<?xml version="1.0" encoding="UTF-8"?>
<svg id="Layer_1" xmlns="http://www.w3.org/2000/svg" version="1.1" viewBox="0 0 566.1 566.1">
  <!-- Generator: Adobe Illustrator 29.0.1, SVG Export Plug-In . SVG Version: 2.1.0 Build 192)  -->
  <defs>
    <style>
      .st0 {
        isolation: isolate;
      }

      .st1 {
        fill: #fff;
      }
    </style>
  </defs>
  <path class="st1" d="M282.8,506.2c-84.1,0-160.1-46.5-198.5-121.4l4.4-2.3c37.5,73.2,111.8,118.7,194,118.7s81.5-11.6,116.2-33.5c33.8-21.4,61.1-51.5,78.9-87.2l4.5,2.2c-18.2,36.5-46.1,67.4-80.7,89.2-35.5,22.5-76.6,34.3-118.9,34.3h.1Z"/>
  <g class="st0">
    <g class="st0">
      <g class="st0">
        <path class="st1" d="M70.2,160.8l.3-.5,4.5,2.9-6.8,12.5-.5-.3.2-.3c.4-.8.6-1.3.5-1.6s-.3-.6-.5-.8c-.3-.2-1.1-.7-2.3-1.4l-7.4-4c-1.2-.6-1.9-1-2.3-1.1-.4-.1-.7-.1-1,0s-.6.6-1,1.3l-.5-.3,5.9-10.8,4,1.7-.3.5c-1.2-.3-2.1-.4-2.7-.3s-1.1.4-1.5.8-.8,1.1-1.4,2.2l-1.1,2.1,6.3,3.4.9-1.6c.4-.7.6-1.3.7-1.6,0-.4,0-.7-.3-.9s-.7-.6-1.4-.9l.3-.5,5.2,2.8-.3.5c-.8-.5-1.4-.7-1.8-.7s-.7,0-.9.3c-.2.2-.5.7-.9,1.3l-.9,1.7,3.6,1.9c1.8,1,2.9,1.4,3.3,1.4s.9-.6,1.5-1.6l.6-1.1c.4-.8.7-1.5.8-2.1,0-.6,0-1.3-.5-2.1-.4-.8-1.1-1.6-2-2.5h0l-.3-.3Z"/>
      </g>
    </g>
  </g>
  <g class="st0">
    <g class="st0">
      <g class="st0">
        <path class="st1" d="M83.7,138.4l-3.8,5.3.6,1c.9,1.5,1.6,2.3,1.9,2.6.4.3.8.4,1.3.2.4-.1.8-.4,1.1-.9l.5.3-3,4.2-.5-.3c.3-.7.5-1.3.3-1.9,0-.6-.6-1.4-1.4-2.6,0-.1-.4-.6-.8-1.4l-6.8-11,.3-.4,14.5,3.3,1.9.4h1.2c.4-.1.7-.4,1.1-.9l.5.3-3.9,5.5-.5-.3c.5-.7.8-1.2.8-1.5s0-.6-.3-.8c-.2-.1-.7-.3-1.7-.5l-3.4-.8h0v.2ZM83.1,138.3l-7.7-1.8,4.2,6.7,3.5-4.9h0Z"/>
      </g>
    </g>
  </g>
  <g class="st0">
    <g class="st0">
      <g class="st0">
        <path class="st1" d="M90.5,118.8l-.4.4-3-2.8,11.2-12.3,3.1,2.7-.4.4c-1-.6-1.8-1-2.4-1.1-.6,0-1.1,0-1.4.2s-.8.7-1.5,1.4l-1.9,2.1,9,8.2c1,.9,1.7,1.5,2,1.7s.7.3,1,.2.8-.4,1.3-1l.6-.6.4.4-5.8,6.3-.4-.4.6-.7c.5-.5.8-1,.8-1.3s0-.7-.3-1c-.2-.3-.9-1-1.9-1.9l-9-8.2-1.7,1.9c-.8.8-1.2,1.4-1.4,1.8s-.2.8,0,1.4.6,1.3,1.3,2.2h.2Z"/>
      </g>
    </g>
  </g>
  <g class="st0">
    <g class="st0">
      <g class="st0">
        <path class="st1" d="M126.2,79.3l2.2-1.8c1.9-1.5,3.1-2.4,3.8-2.9,2.1-1.5,3.9-2.3,5.6-2.5,1.6-.2,3.1,0,4.4.7,1.3.7,2.5,1.7,3.5,3.2.7,1,1.2,2.1,1.5,3.2s.4,2.1.2,3-.5,1.8-1,2.6c-.5.8-1.1,1.5-1.6,2s-1.5,1.2-2.6,2l-6.2,4.4-.3-.5.6-.4c.6-.4,1-.8,1.1-1.1s.1-.7,0-1c-.2-.4-.7-1.1-1.5-2.3l-4.8-6.8c-.8-1.1-1.3-1.8-1.6-2.1-.3-.3-.6-.4-.9-.4s-.8.3-1.5.8l-.4.3-.3-.5h-.2ZM130.7,76.6l6.7,9.4c1,1.4,1.6,2.3,2,2.6.3.4.7.5,1.1.5s1-.3,1.8-.9c1.2-.9,2.1-1.8,2.6-2.7.6-.9.7-2,.6-3.4s-.8-2.8-1.9-4.3c-.9-1.2-1.8-2.1-2.7-2.8-1-.7-1.9-1.2-2.9-1.3-1-.2-1.9,0-2.8.2s-1.8.8-2.9,1.6c-.5.4-1,.8-1.6,1.2h0Z"/>
      </g>
    </g>
  </g>
  <g class="st0">
    <g class="st0">
      <g class="st0">
        <path class="st1" d="M179.2,66.7l-4.1,2.2c-1,0-2.8-.9-5.4-2.2s-1.7-.8-2.5-1.2c-.9-.4-1.4-.6-1.7-.6s-.6,0-1,.3l-.6.3,1.8,3.4c.6,1.2,1.1,2,1.3,2.3s.6.5.9.6c.3,0,.9,0,1.5-.5l.7-.4.3.5-7.3,3.8-.3-.5.5-.3c.6-.3,1.1-.7,1.2-1,.2-.3.2-.6,0-1s-.5-1.2-1.2-2.5l-3.9-7.5c-.6-1.2-1.1-2-1.3-2.3s-.5-.5-.8-.5-.8.2-1.6.6h-.3c0,0-.3-.4-.3-.4l2.1-1.3c1.4-.8,2.6-1.5,3.4-1.9,1.4-.8,2.7-1.3,3.8-1.5s2-.2,2.9.2,1.6.9,2,1.8c.5,1,.6,2,.2,3.1s-1.2,2.1-2.5,3c.8,0,2.4.5,4.8,1.7,2,.9,3.4,1.5,4.3,1.6s1.8,0,2.7-.5l.3.5h0v.2ZM163.6,64.9c.6-.3,1.1-.6,1.7-1s1.1-.7,1.4-1.1.6-.8.8-1.2c.1-.4.2-.9.1-1.4s-.3-1.1-.6-1.7c-.6-1.1-1.3-1.8-2.2-2.2s-2.2,0-4,.9c-.3.2-.6.3-.9.5l3.7,7h0v.2Z"/>
      </g>
    </g>
  </g>
  <g class="st0">
    <g class="st0">
      <g class="st0">
        <path class="st1" d="M185.6,45.8l-.2-.5,7.3-2.9.2.5h-.3c-.8.4-1.3.7-1.5.9s-.3.5-.2.9c0,.4.4,1.2.9,2.6l3.1,7.9c.5,1.3.9,2.1,1.1,2.4.2.4.5.6.8.7.3,0,.9,0,1.6-.3l.5-.2.2.5-7.3,2.9-.2-.5.5-.2c.7-.3,1.1-.5,1.3-.8s.3-.6.2-1c0-.4-.4-1.3-.9-2.6l-3.1-7.9c-.5-1.3-.9-2.1-1.1-2.4-.2-.3-.5-.5-.8-.6-.3,0-.9,0-1.7.4h-.3v.2Z"/>
      </g>
    </g>
  </g>
  <g class="st0">
    <g class="st0">
      <g class="st0">
        <path class="st1" d="M227.3,50.2l-15.9-12.5,3.1,11.5c.2,1,.5,1.6.6,1.8s.5.5,1,.6,1.2,0,2.1-.2v.6c.1,0-6.1,1.7-6.1,1.7v-.6c.6-.3,1.2-.6,1.6-.9.4-.3.5-.7.5-1s-.1-.9-.4-1.9l-2.3-8.8c-.3-1.3-.6-2.1-.9-2.5-.2-.4-.5-.6-.8-.7-.3,0-.9,0-1.8.3v-.6c-.1,0,4.8-1.3,4.8-1.3l13.3,10.4-2.6-10c-.2-.7-.4-1.2-.6-1.5-.2-.2-.6-.4-1.1-.5s-1.1,0-1.8.2v-.6c-.1,0,5.9-1.6,5.9-1.6v.6c-.5.2-1.1.5-1.4.8s-.5.6-.6,1c0,.3,0,.8.2,1.6l3.6,13.8h-.5c0,0,0,.3,0,.3Z"/>
      </g>
    </g>
  </g>
  <g class="st0">
    <g class="st0">
      <g class="st0">
        <path class="st1" d="M247.8,37.4l4.6-5.3c1.1-1.2,1.6-2.1,1.5-2.5,0-.7-.7-1-1.9-.9v-.6l6.4-.8v.6c-.5,0-1,.2-1.5.5s-1,.6-1.4,1-1.1,1.2-2.2,2.5l-2.8,3.3,7.2,5.7c1.6,1.3,2.7,2.1,3.3,2.3s1.2.3,2,.2v.6l-8.8,1.1v-.6h.3c1,0,1.5-.3,1.8-.5.2-.2.3-.4.3-.6,0-.3-.8-1.1-2.1-2.1l-5.4-4.3-1.1,1.2.4,3.1c.2,1.3.3,2.2.4,2.6s.3.7.6.9.8.2,1.6,0h.3v.5l-7.7,1v-.6h.5c.7,0,1.2-.2,1.5-.5.3-.2.4-.5.4-.9s0-1.3-.2-2.7l-1-8.4c-.2-1.4-.3-2.3-.5-2.7-.1-.4-.3-.6-.6-.7s-.9,0-1.9,0v-.6l7.5-.9v.6h-.2c-.8.1-1.4.2-1.6.4-.2.2-.4.5-.4.8s0,1.3.2,2.7l.6,4.4h-.1Z"/>
      </g>
    </g>
  </g>
  <g class="st0">
    <g class="st0">
      <g class="st0">
        <path class="st1" d="M310.8,27.7l-.2,4.3h-.6c0-1-.2-1.8-.6-2.4s-.8-1.1-1.2-1.2-1.2-.3-2.2-.4l-3.4-.3-.6,7.3h1.6c1,.2,1.7,0,2.1-.2s.6-1,.7-2.1h.6l-.5,6.1h-.6v-1.8c0-.4-.3-.8-.6-.9s-.8-.3-1.7-.4h-1.6c0,0-.4,4.1-.4,4.1-.1,1.3-.1,2.2-.1,2.7s.2.8.4,1,.8.4,1.6.4h.6v.6l-8-.7v-.6h.6c.7,0,1.2,0,1.5-.2s.5-.4.6-.8c.1-.4.2-1.3.3-2.7l.7-8.4c.1-1.4.1-2.2.1-2.6s-.2-.7-.4-.9-.8-.3-1.7-.4h-.3v-.6l13.2,1.1h.1Z"/>
      </g>
    </g>
  </g>
  <g class="st0">
    <g class="st0">
      <g class="st0">
        <path class="st1" d="M338,44.2h.6c0,0-1.4,5.3-1.4,5.3l-14-2.8v-.6h.5c.8.2,1.4.2,1.7,0s.5-.4.6-.8c.1-.3.4-1.2.6-2.6l1.7-8.3c.3-1.3.4-2.1.4-2.6s0-.7-.3-1c-.2-.2-.7-.4-1.5-.6v-.6c.1,0,12.2,2.4,12.2,2.4l-.5,4.3h-.6c0-1.3-.2-2.2-.5-2.8s-.7-1-1.2-1.2-1.4-.5-2.5-.7l-2.3-.5-1.4,7.1,1.8.4c.8.2,1.4.2,1.8,0,.4,0,.6-.2.8-.5.2-.3.3-.8.5-1.6h.6c0,0-1.2,5.9-1.2,5.9h-.6c.2-1.1.2-1.7.1-2,0-.3-.3-.6-.6-.8s-.8-.3-1.5-.5l-1.9-.4-.8,4c-.4,2-.5,3.2-.3,3.6.2.4.8.7,2,1l1.3.2c.9.2,1.6.2,2.3,0s1.3-.5,1.9-1.1,1.3-1.5,1.8-2.7h0v.4Z"/>
      </g>
    </g>
  </g>
  <g class="st0">
    <g class="st0">
      <g class="st0">
        <path class="st1" d="M366.4,52.6l.6.2-2,5-13.5-4.5.2-.5h.3c.8.4,1.4.4,1.7.3.3,0,.5-.4.7-.7s.5-1.2.9-2.5l2.7-8c.4-1.2.6-2.1.7-2.5,0-.4,0-.7-.2-1-.2-.2-.7-.5-1.5-.8l.2-.5,11.7,3.9-1,4.2-.6-.2c.1-1.2,0-2.1-.1-2.7s-.6-1-1-1.3-1.3-.6-2.4-1l-2.3-.8-2.3,6.9,1.7.6c.8.3,1.4.4,1.7.3.4,0,.6-.2.8-.4.2-.2.4-.8.7-1.6l.6.2-1.9,5.6-.6-.2c.3-.9.4-1.5.4-1.9s-.2-.6-.5-.8-.7-.4-1.4-.6l-1.8-.6-1.3,3.9c-.6,1.9-.9,3.1-.8,3.5s.8.8,1.8,1.2l1.2.4c.9.3,1.6.4,2.2.4s1.3-.3,2-.8,1.4-1.3,2.1-2.4h0l.3-.3Z"/>
      </g>
    </g>
  </g>
  <g class="st0">
    <g class="st0">
      <g class="st0">
        <path class="st1" d="M394,64.9l-2.3,4.5-13.2-6.2.2-.5.5.2c.7.3,1.2.5,1.5.4.3,0,.6-.2.9-.5s.7-1.1,1.3-2.4l3.6-7.6c.6-1.2.9-2.1,1-2.5s0-.7-.1-1c-.2-.2-.6-.6-1.4-.9l-.3-.2.2-.5,7.5,3.5-.2.5-.7-.3c-.8-.4-1.3-.5-1.6-.5s-.6.2-.8.5-.7,1.1-1.3,2.4l-3.8,8.1c-.5,1.1-.8,1.8-.9,2.2,0,.3,0,.6.2.9s.7.6,1.6,1.1l1.2.6c1,.4,1.7.7,2.2.8s1.2,0,1.8-.5,1.5-1.1,2.4-2.2l.5.2h0Z"/>
      </g>
    </g>
  </g>
  <g class="st0">
    <g class="st0">
      <g class="st0">
        <path class="st1" d="M433.8,87.6l5.9,4.5-.4.5c-.6-.5-1.1-.8-1.5-.8s-.6,0-1,.3-.9,1-1.8,2.1l-1.1,1.5c-.1-.2-.3-.3-.4-.4-.5-.4-1.3-.8-2.4-1.1-1.5-.4-2.7-1-3.7-1.8-2-1.5-3.1-3.4-3.4-5.7-.3-2.3.3-4.4,1.8-6.4s3.4-3.2,5.8-3.7,4.6,0,6.7,1.6c1.8,1.4,2.8,3.2,3,5.5.6-.3,1.1-.7,1.6-1.2l.5.4-3.5,4.6-.5-.4c.9-1.6,1.2-3.1.9-4.6s-1-2.7-2.2-3.7c-1.3-1-2.8-1.3-4.5-1.1-1.7.2-3.5,1.6-5.3,4-1.9,2.4-2.7,4.5-2.5,6.2.1,1.7.9,3.1,2.3,4.1.7.5,1.5.9,2.2,1,.8.2,1.5,0,2-.2s1-.7,1.5-1.3c.6-.7.9-1.3,1-1.6s0-.6,0-.8c-.1-.2-.5-.6-1-1l-.3-.2.4-.5h0v.2Z"/>
      </g>
    </g>
  </g>
  <g class="st0">
    <g class="st0">
      <g class="st0">
        <path class="st1" d="M452.4,101.3c1.9-1.9,4-2.8,6.4-2.6,2.4,0,4.5,1.1,6.4,3s2.9,4.1,3,6.4c.1,2.4-.8,4.6-2.7,6.5-1.9,1.9-4,2.8-6.4,2.7-2.4,0-4.6-1.1-6.5-3.1-1.9-1.9-2.9-4.1-3-6.5,0-2.4.9-4.6,2.8-6.5h0ZM454.4,103.5c-2,1.9-3,3.8-3.2,5.6s.5,3.4,2,5c1.4,1.4,2.9,2,4.7,1.8s3.6-1.2,5.6-3.2c1.9-1.9,3-3.7,3.2-5.5s-.4-3.4-1.9-4.9-3.1-2.1-4.8-1.9c-1.8.2-3.6,1.3-5.5,3.2h-.1Z"/>
      </g>
    </g>
  </g>
  <g class="st0">
    <g class="st0">
      <g class="st0">
        <path class="st1" d="M476.4,127.1c2.1-1.6,4.4-2.2,6.7-1.7,2.4.5,4.3,1.8,5.9,3.9,1.6,2.1,2.3,4.4,2.1,6.8-.2,2.4-1.4,4.4-3.6,6.1-2.1,1.6-4.4,2.2-6.7,1.8s-4.4-1.7-6-4c-1.6-2.2-2.3-4.5-2-6.9s1.5-4.4,3.7-6h-.1ZM478,129.4c-2.2,1.7-3.5,3.3-4,5.1s0,3.5,1.3,5.2c1.2,1.6,2.6,2.4,4.4,2.4s3.8-.7,6-2.4c2.1-1.6,3.5-3.3,3.9-5,.5-1.7,0-3.5-1.2-5.1-1.2-1.7-2.8-2.5-4.5-2.6s-3.8.7-5.9,2.4h0Z"/>
      </g>
    </g>
  </g>
  <g class="st0">
    <g class="st0">
      <g class="st0">
        <path class="st1" d="M503.4,151.3l1.5,2.4c1.2,2,2.1,3.4,2.5,4.1,1.2,2.2,1.9,4.2,1.9,5.8s-.4,3.1-1.2,4.3c-.8,1.2-2,2.3-3.5,3.1-1.1.6-2.2,1-3.3,1.2s-2.1.1-3-.1c-.9-.2-1.8-.7-2.5-1.3s-1.3-1.2-1.8-1.9c-.5-.6-1-1.6-1.7-2.9l-3.7-6.7.5-.3.3.6c.4.6.7,1.1,1,1.2.3.2.6.2,1,0,.4-.1,1.2-.5,2.5-1.2l7.3-4c1.2-.7,2-1.1,2.3-1.4s.5-.6.5-.8-.2-.8-.6-1.6l-.2-.4.5-.3h0l-.3.2ZM505.7,156.1l-10.1,5.6c-1.5.8-2.4,1.4-2.8,1.7s-.6.6-.6,1,.2,1,.7,1.9c.7,1.3,1.5,2.3,2.3,2.9.8.6,1.9,1,3.3.9,1.4,0,2.9-.5,4.5-1.4,1.3-.7,2.3-1.5,3.1-2.4s1.4-1.8,1.7-2.8c.3-1,.3-1.9.1-2.8s-.6-1.9-1.2-3.1c-.3-.6-.6-1.1-1-1.7h0v.2Z"/>
      </g>
    </g>
  </g>
  <g class="st0">
    <g class="st0">
      <g class="st0">
        <path class="st1" d="M68.7,393l.5-.3,3.7,6.9-.5.3-.2-.3c-.4-.8-.7-1.2-1-1.4-.2-.2-.6-.2-.9-.1-.4.1-1.2.5-2.5,1.2l-7.5,4c-1.2.6-2,1.1-2.3,1.3-.3.2-.5.5-.6.9,0,.3,0,.9.5,1.5l.2.5-.5.3-3.7-6.9.5-.3.2.5c.3.6.7,1.1,1,1.2.3.2.6.2,1,0,.4-.1,1.2-.5,2.5-1.2l7.5-4c1.2-.6,2-1.1,2.3-1.4.3-.2.5-.5.5-.8s-.2-.8-.6-1.6l-.2-.3h0Z"/>
      </g>
    </g>
  </g>
  <g class="st0">
    <g class="st0">
      <g class="st0">
        <path class="st1" d="M68.8,426.8l7.1-18.9-10.1,6.4c-.8.5-1.4.9-1.6,1.2s-.3.6-.3,1.2.3,1.2.8,2l-.5.3-3.5-5.4.5-.3c.5.7,1,1.1,1.4,1.3.4.2.8.3,1.1.2.3,0,.9-.4,1.7-1l7.7-4.9c1.1-.7,1.8-1.2,2.1-1.6s.4-.7.4-1-.3-.8-.8-1.6l.5-.3,2.7,4.3-5.9,15.8,8.7-5.5c.6-.4,1.1-.8,1.2-1.1s.2-.7,0-1.2c0-.5-.3-1-.7-1.6l.5-.3,3.4,5.3-.5.3c-.4-.6-.9-1-1.3-1.2s-.8-.3-1.1-.2-.8.3-1.4.7l-12,7.6-.3-.5h.2Z"/>
      </g>
    </g>
  </g>
  <g class="st0">
    <g class="st0">
      <g class="st0">
        <path class="st1" d="M93.3,445.8l6.5-1.1c1.1-.2,1.8-.4,2.1-.6.3-.2.4-.5.5-1,0-.4-.2-.9-.7-1.5l.4-.4,3.7,4.3-.4.4c-.6-.5-1.2-.8-1.9-.9-.7,0-1.7,0-3.1.3l-7.4,1.2-1.7,1.5c-1.1,1-1.8,1.6-2.1,1.9-.2.3-.3.7-.3,1s.4.8.9,1.5l-.4.4-4.8-5.6.4-.4.2.2c.5.6.9.9,1.2,1,.3.1.7,0,1-.1.3-.2,1.1-.8,2.2-1.7l1.6-1.4,2.6-7.8c.5-1.6.8-2.6.8-3s-.2-.9-.7-1.5l.4-.4,4.5,5.3-.4.4c-.8-1-1.5-1.3-1.9-.9-.2.1-.4.6-.7,1.4l-2.5,7.5h0Z"/>
      </g>
    </g>
  </g>
  <g class="st0">
    <g class="st0">
      <g class="st0">
        <path class="st1" d="M102.2,454.1c1.9-1.9,4-2.8,6.4-2.7,2.4.1,4.5,1.1,6.4,2.9,1.9,1.9,3,4,3.1,6.4s-.7,4.6-2.6,6.5-4,2.8-6.4,2.8-4.6-1-6.6-3c-1.9-1.9-3-4.1-3.1-6.5,0-2.4.8-4.6,2.7-6.5h0ZM104.2,456.2c-1.9,2-3,3.9-3.2,5.6-.2,1.8.5,3.4,2.1,5,1.4,1.4,3,1.9,4.7,1.7,1.8-.2,3.6-1.3,5.6-3.2,1.9-1.9,2.9-3.8,3.1-5.5.2-1.8-.4-3.4-1.9-4.9s-3.1-2.1-4.9-1.9-3.6,1.3-5.5,3.2h0Z"/>
      </g>
    </g>
  </g>
  <g class="st0">
    <g class="st0">
      <g class="st0">
        <path class="st1" d="M136.1,473.2l4.5,3.6-.4.5c-.6-.4-1.2-.7-1.6-.7s-.9.1-1.1.3-.8.8-1.4,1.6l-3.6,4.5c-.9,1.1-1.6,2-2.2,2.4s-1.2.8-2.1,1c-.8.2-1.8.1-2.8-.2-1-.3-2.1-.9-3.1-1.7-1.2-1-2.1-2-2.6-3s-.7-2.1-.5-3,.7-1.9,1.5-3l1.1-1.4,3.3-4.2c.9-1.1,1.4-1.8,1.6-2.1s.2-.7,0-1-.5-.7-1.2-1.2l-.3-.2.4-.5,6.1,4.9-.4.5-.3-.2c-.7-.5-1.1-.8-1.4-.9-.3,0-.6,0-.9.3s-.9.9-1.8,2l-3.4,4.2c-1.2,1.5-1.9,2.6-2.3,3.3-.4.7-.4,1.6,0,2.5s.9,1.9,2,2.7c.8.7,1.7,1.1,2.6,1.3.9.2,1.7.2,2.4,0,.7-.2,1.3-.5,1.7-.9.5-.4,1.1-1.2,1.9-2.2l3.7-4.6c.6-.8,1-1.3,1.1-1.7.2-.4.2-.8,0-1.2-.1-.4-.5-.9-1.1-1.4l.4-.5h0l.2.2Z"/>
      </g>
    </g>
  </g>
  <g class="st0">
    <g class="st0">
      <g class="st0">
        <path class="st1" d="M150.6,504.1l-3.9-2.5c-.4-.9-.6-2.9-.7-5.8,0-1,0-1.9-.2-2.8-.1-.9-.2-1.5-.3-1.8s-.3-.5-.7-.8l-.6-.4-2.1,3.2c-.7,1.1-1.2,1.9-1.4,2.3s-.2.7,0,1.1.5.7,1.2,1.1l.7.5-.3.5-6.9-4.5.3-.5.5.3c.6.4,1.1.6,1.4.6s.6-.1.9-.4c.3-.3.8-1,1.6-2.2l4.6-7.1c.8-1.1,1.2-1.9,1.4-2.3.1-.4.2-.7,0-1s-.6-.6-1.3-1.1l-.2-.2.3-.5,2.1,1.2c1.4.8,2.5,1.5,3.3,2,1.4.9,2.4,1.8,3.1,2.6s1.1,1.7,1.3,2.6c.1.9,0,1.8-.6,2.6-.6.9-1.5,1.5-2.6,1.7s-2.4,0-3.9-.8c.4.7.7,2.4.9,5,.1,2.2.4,3.7.7,4.6s.9,1.6,1.7,2.2l-.3.5h0ZM144.5,489.6c.5.3,1.1.7,1.7,1s1.1.6,1.6.7,1,.2,1.4.1.8-.3,1.2-.6c.4-.3.8-.7,1.2-1.3.7-1,.9-2,.8-2.9s-1-2-2.7-3.1c-.3-.2-.6-.4-.9-.5l-4.3,6.6h0Z"/>
      </g>
    </g>
  </g>
  <g class="st0">
    <g class="st0">
      <g class="st0">
        <path class="st1" d="M170.4,505.1c1.1-2.4,2.8-4,5.1-4.7s4.6-.5,7.1.6c2.4,1.1,4.1,2.8,5.1,5s.9,4.5-.3,7c-1.1,2.4-2.8,4-5.1,4.8s-4.7.6-7.2-.6c-2.5-1.1-4.2-2.8-5.1-5.1-.9-2.2-.8-4.6.4-7.1h0ZM173,506.4c-1.2,2.5-1.5,4.6-1.1,6.4.4,1.7,1.6,3,3.6,4,1.8.8,3.4.8,5,0s3-2.4,4.1-4.9c1.1-2.4,1.5-4.5,1.1-6.3s-1.6-3.1-3.5-4-3.6-.9-5.2-.1c-1.6.8-2.9,2.4-4.1,4.9h0Z"/>
      </g>
    </g>
  </g>
  <g class="st0">
    <g class="st0">
      <g class="st0">
        <path class="st1" d="M206.4,529.4l-.5-.2-.5-15.1-8.9,12-.6-.2.3-14v-2.6c0-.4-.1-.8-.3-1s-.6-.5-1.2-.7l.2-.5,6.1,2-.2.5c-.8-.2-1.3-.2-1.5-.2-.3,0-.4.3-.5.6,0,.3-.1,1-.2,2.2l-.3,10.5,8.6-11.7.7.2.4,14.7,5.4-7.8c.7-1.1,1.1-1.8,1.3-2.1.4-1.1,0-1.8-1.2-2.2l.2-.5,4.5,1.5-.2.5c-.7-.2-1.2,0-1.7.2-.5.3-1.2,1.2-2.3,2.7l-7.7,11.1h0Z"/>
      </g>
    </g>
  </g>
  <g class="st0">
    <g class="st0">
      <g class="st0">
        <path class="st1" d="M233.9,536.3l-8.5-18.3-2.5,11.7c-.2,1-.3,1.6-.3,1.9s.2.7.6,1c.4.3,1,.6,1.9.8v.6c-.1,0-6.4-1.4-6.4-1.4v-.6c.9,0,1.6,0,2,0,.5,0,.8-.3.9-.6.1-.3.3-.9.5-1.9l1.9-8.9c.3-1.3.4-2.2.4-2.6s-.1-.8-.4-1-.8-.4-1.7-.6v-.6c.1,0,5.1,1.1,5.1,1.1l7.1,15.3,2.2-10.1c.2-.7.2-1.3.1-1.6,0-.3-.4-.6-.8-.9-.4-.3-1-.5-1.6-.6v-.6c.1,0,6.2,1.3,6.2,1.3v.6h-1.9c-.5,0-.8.3-.9.6-.2.3-.3.8-.5,1.5l-3,13.9h-.5c0,0,0,0,0,0Z"/>
      </g>
    </g>
  </g>
  <g class="st0">
    <g class="st0">
      <g class="st0">
        <path class="st1" d="M270.3,540.6l-11-17-.9,11.9v2c0,.4.3.6.8.9.4.3,1.1.5,2,.5v.6l-6.5-.5v-.6c.9,0,1.5,0,1.9-.3.5-.2.7-.5.8-.7.1-.3.2-.9.3-2l.6-9.1c0-1.3.1-2.2,0-2.7,0-.5-.3-.8-.5-.9-.3-.2-.9-.2-1.8-.3v-.6l5.1.4,9.2,14.2.7-10.3c0-.8,0-1.3-.1-1.6s-.4-.6-.9-.8-1-.3-1.7-.4v-.6l6.3.5v.6c-.8,0-1.4,0-1.8.3s-.7.4-.9.7c-.1.3-.2.8-.3,1.5l-1,14.2h-.5.2Z"/>
      </g>
    </g>
  </g>
  <g class="st0">
    <g class="st0">
      <g class="st0">
        <path class="st1" d="M294,534.9h.6l-.3,5.3-14.2.2v-.6h.4c.9,0,1.4,0,1.6-.4.2-.2.4-.5.5-.9s0-1.2,0-2.7v-8.4c-.2-1.3-.2-2.2-.3-2.6s-.2-.7-.5-.9-.8-.2-1.6-.2v-.6l12.3-.2.5,4.3h-.6c-.3-1.2-.6-2-1-2.5s-.9-.8-1.4-.9c-.5,0-1.4-.2-2.6-.2h-2.4v7.3h1.9c.8,0,1.4,0,1.8-.3s.5-.4.6-.7.1-.9.1-1.7h.6v5.9c.1,0-.5,0-.5,0,0-1-.1-1.6-.3-1.9-.2-.3-.4-.5-.7-.6-.3,0-.8,0-1.6,0h-1.9v4.1c0,2,.2,3.2.5,3.6.3.4,1,.5,2.1.5h1.3c.9,0,1.6-.2,2.2-.4s1.1-.7,1.6-1.5c.5-.7.9-1.7,1.2-3h0Z"/>
      </g>
    </g>
  </g>
  <g class="st0">
    <g class="st0">
      <g class="st0">
        <path class="st1" d="M300,523.2v-.6l7.8-.7v.6h-.3c-.8,0-1.4.2-1.6.3s-.4.4-.5.8c0,.4,0,1.3.1,2.7l.7,8.4c.1,1.3.2,2.2.3,2.6.1.4.3.7.6.9s.8.2,1.6.2h.5v.5l-7.8.7v-.6h.5c.7,0,1.2-.2,1.5-.4s.4-.5.5-.9c0-.4,0-1.3-.1-2.8l-.7-8.4c-.1-1.4-.2-2.2-.3-2.6s-.3-.7-.6-.8c-.3,0-.9-.2-1.7,0h-.5Z"/>
      </g>
    </g>
  </g>
  <g class="st0">
    <g class="st0">
      <g class="st0">
        <path class="st1" d="M325.9,529.4l7.3-1.2v.6c-.7,0-1.2.3-1.5.5s-.4.5-.4.9,0,1.3.3,2.8l.3,1.8h-.5c-.6,0-1.5.4-2.4,1-1.3.8-2.6,1.3-3.8,1.5-2.4.4-4.6,0-6.5-1.4s-3-3.2-3.4-5.7c-.4-2.4,0-4.7,1.2-6.8s3.2-3.3,5.8-3.8c2.3-.4,4.3.2,6,1.6.2-.6.2-1.3.2-2h.6l.9,5.6h-.6c-.5-1.6-1.4-2.9-2.7-3.7s-2.6-1.1-4.2-.9c-1.6.3-2.9,1.1-3.9,2.5s-1.2,3.6-.7,6.6,1.4,5,2.8,6.1,2.9,1.5,4.6,1.2c.9,0,1.6-.5,2.3-.9s1.1-1,1.2-1.5.2-1.2,0-2c-.1-.9-.3-1.5-.5-1.8s-.4-.5-.7-.5h-1.8v-.5h-.1.2Z"/>
      </g>
    </g>
  </g>
  <g class="st0">
    <g class="st0">
      <g class="st0">
        <path class="st1" d="M352.6,521.9l-8.7,2.4,1.1,4c.4,1.3.6,2.2.8,2.5.2.4.4.6.7.8.3,0,.9,0,1.6,0h.4c0,0,.1.4.1.4l-7.5,2v-.6c-.1,0,.3,0,.3,0,.7-.2,1.2-.4,1.4-.7s.3-.6.3-1-.2-1.3-.6-2.7l-2.2-8.2c-.4-1.3-.6-2.2-.8-2.5-.2-.4-.4-.6-.7-.7-.3,0-.9,0-1.7.2h-.3v-.5c-.1,0,7.4-2,7.4-2v.6c.1,0-.2,0-.2,0-.8.2-1.3.4-1.5.6-.2.2-.3.5-.3.9s.2,1.3.6,2.7l.9,3.3,8.7-2.4-.9-3.3c-.4-1.3-.6-2.2-.8-2.5-.2-.4-.4-.6-.7-.7s-.9,0-1.7.2h-.4c0,0-.1-.4-.1-.4l7.6-2.1v.6c.1,0-.1,0-.1,0-.8.2-1.3.4-1.5.6s-.3.5-.3.9.2,1.3.6,2.7l2.2,8.1c.4,1.3.6,2.2.8,2.5.2.4.4.6.7.8.3,0,.9,0,1.6,0h.4v.5c.1,0-7.5,2.1-7.5,2.1v-.6c-.1,0,.4-.2.4-.2.7-.2,1.2-.4,1.4-.7.2-.2.3-.6.3-1s-.2-1.3-.6-2.7l-1.1-4h0v.4Z"/>
      </g>
    </g>
  </g>
  <g class="st0">
    <g class="st0">
      <g class="st0">
        <path class="st1" d="M371,515c1.9-.5,3.4-.6,4.6-.2s2,1.2,2.4,2.4c.4,1,.4,2,0,3-.3,1-.9,1.7-1.8,2.3s-2.1,1.2-3.6,1.8l-6.3,2.4-.2-.5.6-.2c.7-.3,1.1-.5,1.3-.8.2-.3.3-.6.2-1,0-.4-.4-1.3-.9-2.6l-3-7.8c-.5-1.3-.9-2.1-1.1-2.5s-.5-.5-.8-.6c-.3,0-.9,0-1.7.4h-.3c0,.1-.2-.4-.2-.4l2.6-1.1,3-1.2c4.4-1.7,7.1-1.2,8,1.3.4,1,.3,2-.2,3-.5.9-1.5,1.8-2.9,2.6h0l.3-.3ZM368,515.9c.2,0,.4,0,.5-.2,1.7-.6,2.8-1.3,3.2-2.1.4-.8.4-1.8,0-3-.3-.8-.7-1.4-1.1-1.8s-.9-.6-1.5-.6-1.5.1-2.7.6c-.3.1-.6.2-.9.4l2.5,6.8h0ZM368.2,516.5l1.4,3.6c.6,1.5,1,2.5,1.2,2.9s.5.7.8.8.8,0,1.5-.2c1.3-.5,2.1-1.2,2.5-2,.4-.9.3-2-.1-3.3-.5-1.3-1.2-2.2-2.2-2.5-1-.4-2.3-.2-4.1.5-.3,0-.6.2-.9.4h0v-.2Z"/>
      </g>
    </g>
  </g>
  <g class="st0">
    <g class="st0">
      <g class="st0">
        <path class="st1" d="M383.3,510.8c-1.2-2.4-1.3-4.7-.4-6.9.9-2.2,2.5-3.9,4.9-5.1s4.8-1.5,7.1-.8c2.3.6,4.1,2.2,5.3,4.7,1.2,2.4,1.3,4.7.5,7s-2.5,4-5,5.2-4.8,1.4-7.1.7c-2.3-.7-4-2.3-5.2-4.7h0ZM385.9,509.5c1.2,2.5,2.6,4.1,4.2,4.9s3.4.7,5.4-.3c1.7-.8,2.8-2.1,3.2-3.9.4-1.7,0-3.9-1.2-6.3s-2.6-4-4.2-4.8-3.4-.7-5.3.2c-1.9.9-3,2.2-3.4,4-.4,1.7,0,3.8,1.2,6.3h0Z"/>
      </g>
    </g>
  </g>
  <g class="st0">
    <g class="st0">
      <g class="st0">
        <path class="st1" d="M406.5,499c-1.4-2.2-1.8-4.5-1.1-6.8s2.1-4.2,4.4-5.6,4.6-1.9,7-1.5,4.3,1.8,5.7,4.1c1.4,2.3,1.8,4.5,1.2,6.9s-2.1,4.2-4.5,5.7c-2.3,1.5-4.7,1.9-7,1.5s-4.3-1.9-5.7-4.2h0ZM409,497.5c1.5,2.4,3,3.8,4.7,4.4s3.5.3,5.3-.9c1.6-1,2.6-2.4,2.8-4.2.2-1.8-.4-3.8-1.9-6.2-1.4-2.3-3-3.7-4.7-4.3-1.7-.6-3.4-.4-5.2.8-1.8,1.1-2.7,2.5-2.9,4.3-.2,1.8.4,3.8,1.9,6.1h0Z"/>
      </g>
    </g>
  </g>
  <g class="st0">
    <g class="st0">
      <g class="st0">
        <path class="st1" d="M447.6,480.9l-3.7,2.8c-1,0-2.9-.4-5.8-1.3-.9-.3-1.8-.5-2.7-.7s-1.5-.3-1.8-.3-.6.2-1,.4l-.5.4,2.3,3c.8,1.1,1.4,1.8,1.7,2,.3.3.6.4,1,.4s.8-.2,1.4-.7l.6-.5.4.5-6.5,5-.4-.5.4-.3c.6-.5.9-.8,1-1.2.1-.3,0-.7-.1-1s-.7-1.1-1.6-2.2l-5.2-6.7c-.8-1.1-1.4-1.8-1.7-2s-.6-.4-.9-.3-.8.3-1.5.9l-.2.2-.4-.5,1.9-1.6c1.2-1.1,2.3-1.9,3-2.5,1.3-1,2.5-1.7,3.5-2.1s2-.5,2.9-.3,1.7.6,2.3,1.4c.7.9,1,1.9.8,3s-.8,2.3-2,3.4c.8-.2,2.5.1,5,.8,2.1.6,3.6.9,4.5.8.9,0,1.8-.3,2.6-.9l.4.5h.3ZM431.9,481.9c.5-.4,1-.8,1.5-1.3s.9-.9,1.2-1.3c.3-.4.5-.9.5-1.3s0-.9-.1-1.4-.4-1-.9-1.5c-.7-1-1.6-1.5-2.5-1.7s-2.2.3-3.8,1.6c-.2.2-.5.4-.8.7l4.8,6.2h0Z"/>
      </g>
    </g>
  </g>
  <g class="st0">
    <g class="st0">
      <g class="st0">
        <path class="st1" d="M456.8,460.8l-6.5,6.2,2.9,3c.9,1,1.6,1.6,1.9,1.9s.7.4,1,.3c.3,0,.8-.3,1.4-.9l.3-.3.4.4-5.6,5.3-.4-.4.3-.3c.5-.5.8-.9.9-1.2,0-.3,0-.7-.2-1s-.8-1-1.8-2.1l-5.8-6.1c-.9-1-1.6-1.6-1.9-1.9-.3-.2-.6-.3-.9-.2-.3,0-.8.4-1.4,1l-.2.2-.4-.4,5.6-5.3.4.4-.2.2c-.6.6-1,1-1.1,1.3,0,.3,0,.6.1.9.2.3.8,1,1.8,2.1l2.4,2.5,6.5-6.2-2.4-2.5c-.9-1-1.6-1.6-1.9-1.9s-.6-.3-.9-.3-.8.4-1.4,1l-.3.3-.4-.4,5.7-5.4.4.4-.2.2c-.6.6-1,1-1.1,1.3s0,.6.1.9c.2.3.8,1,1.8,2.1l5.8,6.1c.9,1,1.6,1.6,1.9,1.9s.7.4,1,.3c.3,0,.8-.3,1.4-.9l.3-.3.4.4-5.7,5.4-.4-.4.4-.4c.5-.5.8-.9.9-1.2s0-.7-.2-1-.8-1-1.8-2.1l-2.9-3h0Z"/>
      </g>
    </g>
  </g>
  <g class="st0">
    <g class="st0">
      <g class="st0">
        <path class="st1" d="M465.1,452.2c-2-1.7-3-3.8-3.1-6.2,0-2.4.8-4.6,2.5-6.6,1.8-2,3.8-3.2,6.2-3.5,2.4-.3,4.6.4,6.7,2.2,2,1.7,3.1,3.8,3.2,6.2s-.7,4.6-2.5,6.8c-1.8,2.1-3.9,3.2-6.3,3.5s-4.6-.5-6.7-2.3h0ZM467.1,450.1c2.1,1.8,4,2.7,5.8,2.8s3.4-.7,4.8-2.4c1.3-1.5,1.7-3.1,1.4-4.8-.3-1.8-1.5-3.5-3.6-5.3-2-1.7-4-2.7-5.8-2.8s-3.4.7-4.8,2.3c-1.4,1.6-1.9,3.2-1.5,5,.3,1.7,1.5,3.5,3.6,5.3h.1Z"/>
      </g>
    </g>
  </g>
  <g class="st0">
    <g class="st0">
      <g class="st0">
        <path class="st1" d="M481.9,432.2c-2.2-1.5-3.4-3.5-3.7-5.8-.3-2.4.3-4.7,1.8-6.8,1.5-2.2,3.5-3.6,5.8-4.2s4.6,0,6.9,1.5c2.2,1.5,3.5,3.5,3.9,5.8.4,2.4-.2,4.7-1.8,7-1.6,2.2-3.5,3.6-5.9,4.1s-4.6,0-6.9-1.6h0ZM483.6,429.9c2.3,1.6,4.3,2.3,6.1,2.2,1.8-.1,3.3-1.1,4.5-2.9,1.1-1.6,1.4-3.2.9-5s-1.9-3.4-4.1-4.9-4.2-2.2-6-2.1-3.3,1-4.5,2.8c-1.2,1.7-1.5,3.4-1,5.1s1.9,3.3,4.1,4.9h0Z"/>
      </g>
    </g>
  </g>
  <g class="st0">
    <g class="st0">
      <g class="st0">
        <path class="st1" d="M488.7,407.1l1.2-2.5c1-2.1,1.8-3.5,2.1-4.3,1.2-2.2,2.5-3.8,3.9-4.7,1.4-.9,2.8-1.3,4.3-1.3s3,.5,4.5,1.3c1.1.6,2,1.3,2.8,2.2.7.8,1.2,1.7,1.5,2.6s.4,1.8.3,2.8-.3,1.8-.6,2.5-.8,1.7-1.5,3l-3.7,6.7-.5-.3.3-.6c.4-.6.5-1.1.5-1.5s-.2-.6-.5-.9-1.1-.7-2.4-1.4l-7.3-4c-1.2-.7-2-1-2.4-1.2-.4-.1-.7-.1-1,0-.2.1-.6.6-1,1.4l-.2.4-.5-.3h.2ZM491.5,402.7l10.1,5.5c1.5.8,2.5,1.3,2.9,1.5s.9.2,1.2,0,.7-.7,1.2-1.6c.7-1.3,1.1-2.5,1.2-3.5s-.2-2.1-1-3.3-1.9-2.2-3.6-3.1c-1.3-.7-2.5-1.2-3.7-1.4-1.2-.2-2.3-.2-3.2,0-1,.3-1.8.7-2.4,1.3s-1.3,1.5-1.9,2.7c-.3.6-.6,1.1-.9,1.7h0v.2Z"/>
      </g>
    </g>
  </g>
  <path class="st1" d="M477.8,186.1c-17.8-35.7-45.1-65.8-78.9-87.1-34.7-21.9-74.9-33.5-116.1-33.5s-81.4,11.6-116.1,33.5c-33.8,21.3-61.1,51.4-78.9,87.1l-4.5-2.2c18.2-36.5,46.1-67.3,80.7-89.1,35.5-22.4,76.6-34.3,118.8-34.3s83.3,11.9,118.8,34.3c34.6,21.8,62.5,52.6,80.7,89.1l-4.5,2.2h0Z"/>
  <g class="st0">
    <g class="st0">
      <g class="st0">
        <path class="st1" d="M135.8,385.5v4.2c0,1.6,0,2.6.1,3.1,0,.5.3.8.6,1.1s.9.4,1.8.4h.7v.7h-9.1v-.7h.5c.9,0,1.4-.1,1.8-.3s.5-.5.6-1,.1-1.5.1-3.2v-9.7c0-1.6,0-2.6-.1-3.1s-.3-.8-.6-1-1-.3-2-.3h-.4v-.7h2.5c2-.2,3.5-.2,4.7-.2,2.1,0,3.6.2,4.7.5s2,.9,2.7,1.7,1.1,1.9,1.1,3.1-.2,2-.7,2.9-1.2,1.5-2.1,1.9-2.5.6-4.8.6h-2.2,0ZM135.8,384.8h1.4c1.1,0,2.1-.1,2.8-.3s1.3-.7,1.8-1.4.7-1.6.7-2.7c0-1.6-.4-2.8-1.2-3.6s-2.1-1.1-3.9-1.1-1.2,0-1.5,0v9.2h-.1Z"/>
        <path class="st1" d="M155.6,375.7v-.7h9.1v.7h-.4c-1,0-1.6,0-1.9.2s-.5.5-.6.9-.1,1.5-.1,3.1v9.7c0,1.6,0,2.6.1,3.1,0,.5.3.8.6,1.1s.9.4,1.8.4h.6v.7h-9.1v-.7h.6c.9,0,1.4-.1,1.8-.3s.5-.5.6-1,.1-1.5.1-3.2v-9.7c0-1.6,0-2.6-.1-3.1s-.3-.8-.6-1-1-.3-2-.3h-.5Z"/>
        <path class="st1" d="M175.3,394.9v-.5l12.8-18.7h-6.2c-1.3,0-2.2,0-2.6.2s-.9.5-1.4,1.2-.9,1.5-1.2,2.6h-.6l.6-4.6h14.8v.7l-12.7,18.5h6.1c2.1,0,3.4-.2,3.9-.5s1.1-.9,1.5-1.7.8-1.6,1-2.3h.7l-.7,5.1h-16.1,0Z"/>
        <path class="st1" d="M203.4,394.9v-.5l12.8-18.7h-6.2c-1.3,0-2.2,0-2.6.2s-.9.5-1.4,1.2-.9,1.5-1.2,2.6h-.6l.6-4.6h14.8v.7l-12.7,18.5h6.1c2.1,0,3.4-.2,3.9-.5s1.1-.9,1.5-1.7.8-1.6,1-2.3h.7l-.7,5.1h-16.1,0Z"/>
        <path class="st1" d="M243.5,387.5h-7.5l-.5,1.3c-.8,1.8-1.1,3-1.1,3.6s.2,1,.6,1.4.9.5,1.6.5v.7h-5.9v-.7c.9-.1,1.5-.5,2-.9.4-.5.9-1.5,1.6-3,0-.1.3-.7.7-1.7l5.8-13.8h.6l6.6,15.8.9,2.1c.2.5.5.8.8,1.1s.9.4,1.6.5v.7h-7.8v-.7c1,0,1.6,0,1.9-.2.3-.1.5-.4.5-.8s-.2-.9-.7-1.9l-1.5-3.7h0l-.2-.3ZM243.2,386.9l-3.5-8.5-3.5,8.5h7Z"/>
        <path class="st1" d="M277.4,387.7h7.2v2.2h-7.2v-2.2Z"/>
      </g>
    </g>
    <g class="st0">
      <g class="st0">
        <path class="st1" d="M318.1,385.5v4.2c0,1.6,0,2.6.1,3.1,0,.5.3.8.6,1.1s.9.4,1.8.4h.7v.7h-9.1v-.7h.5c.9,0,1.4-.1,1.8-.3s.5-.5.6-1c0-.5.1-1.5.1-3.2v-9.7c0-1.6,0-2.6-.1-3.1s-.3-.8-.6-1-1-.3-2-.3h-.4v-.7h2.5c2-.2,3.5-.2,4.7-.2,2,0,3.6.2,4.7.5s2,.9,2.7,1.7,1.1,1.9,1.1,3.1-.2,2-.7,2.9-1.2,1.5-2.1,1.9-2.5.6-4.8.6h-2.2,0ZM318.1,384.8h1.4c1.1,0,2.1-.1,2.8-.3s1.3-.7,1.8-1.4.7-1.6.7-2.7c0-1.6-.4-2.8-1.2-3.6s-2.1-1.1-3.9-1.1-1.2,0-1.5,0v9.2h0Z"/>
      </g>
    </g>
    <g class="st0">
      <g class="st0">
        <path class="st1" d="M347.3,387.5h-7.5l-.5,1.3c-.8,1.8-1.1,3-1.1,3.6s.2,1,.6,1.4c.4.3.9.5,1.6.5v.7h-5.9v-.7c.9-.1,1.5-.5,2-.9.4-.5,1-1.5,1.5-3,0-.1.3-.7.7-1.7l5.8-13.8h.6l6.6,15.8.9,2.1c.2.5.5.8.8,1.1.4.3.9.4,1.6.5v.7h-7.8v-.7c1,0,1.6,0,1.9-.2.3-.1.5-.4.5-.8s-.2-.9-.7-1.9l-1.5-3.7h0v-.3ZM347,386.9l-3.5-8.5-3.5,8.5h7Z"/>
        <path class="st1" d="M365.4,394.6v-6.4h.7c.8,4.2,2.8,6.2,5.9,6.2s2.5-.4,3.2-1.2,1.1-1.7,1.1-2.7-.3-1.8-1-2.5-1.9-1.4-3.7-2.1c-1.6-.7-2.8-1.3-3.6-1.8s-1.4-1.2-1.9-2-.7-1.7-.7-2.6c0-1.4.5-2.6,1.5-3.5s2.2-1.4,3.7-1.4,1.6.1,2.4.4,1.5.8,2.3,1.7c.5-.5.7-1.1.8-1.7h.6v5.2h-.6c-.4-1.5-1-2.7-2-3.6s-2-1.3-3.3-1.3-2,.3-2.6,1c-.5.6-.8,1.3-.8,2.1s.4,1.7,1,2.3c.7.6,1.9,1.4,3.7,2.2,1.7.8,3,1.4,3.7,1.8s1.4,1.1,1.9,1.9.7,1.8.7,2.8c0,1.7-.6,3.1-1.7,4.1s-2.6,1.6-4.5,1.6-4-.8-5.5-2.5c-.3.5-.6,1.1-.7,1.9h-.7.1Z"/>
      </g>
    </g>
    <g class="st0">
      <g class="st0">
        <path class="st1" d="M390.3,379.8h-.7v-4.8h19.4v4.8c.1,0-.5,0-.5,0-.2-1.3-.5-2.2-.9-2.8s-.8-.9-1.3-1.1-1.2-.2-2.3-.2h-3.2v14c0,1.5,0,2.6.1,3.1s.3.9.6,1.1.9.4,1.8.4h1v.7h-9.9v-.7h1c.9,0,1.4-.1,1.8-.3s.5-.5.6-1,.1-1.5.1-3.2v-14h-2.9c-1.3,0-2.1,0-2.6.2s-.9.5-1.2,1.1-.7,1.5-.9,2.8h0Z"/>
      </g>
    </g>
    <g class="st0">
      <g class="st0">
        <path class="st1" d="M429.3,387.5h-7.5l-.5,1.3c-.8,1.8-1.1,3-1.1,3.6s.2,1,.6,1.4c.4.3.9.5,1.6.5v.7h-5.9v-.7c.9-.1,1.5-.5,2-.9.4-.5,1-1.5,1.5-3,0-.1.3-.7.7-1.7l5.8-13.8h.6l6.6,15.8.9,2.1c.2.5.5.8.8,1.1.4.3.9.4,1.6.5v.7h-7.8v-.7c1,0,1.6,0,1.9-.2.3-.1.5-.4.5-.8s-.2-.9-.7-1.9l-1.5-3.7h0v-.3ZM429,386.9l-3.5-8.5-3.5,8.5h7Z"/>
      </g>
    </g>
    <g class="st0">
      <g class="st0">
        <path class="st1" d="M212.4,418.9h6.3v.7c-.8.2-1.5.6-2.1,1.1s-1.2,1.6-1.8,3.1c-.5,1.3-1,2.2-1.4,2.8,1,1.5,1.9,2.5,2.5,2.8.6.4,1.2.6,1.9.6s1.6-.4,2.1-1.3h.7c-.2.8-.6,1.5-1.3,2s-1.4.7-2.3.7c-1.9,0-3.6-1-5-2.9-1.7,1.9-3.5,2.9-5.4,2.9s-1.4-.1-2.1-.4-1.3-.6-1.8-1.1-.9-1.1-1.3-1.7-.5-1.4-.4-2.2c0-1.2.3-2.2,1-3.1.7-.8,1.9-1.9,3.9-3.2-1.1-1.6-1.7-3-1.7-4.3s.4-1.9,1.2-2.7c.8-.8,1.8-1.2,2.9-1.2s2,.3,2.9.9,1.3,1.4,1.3,2.3c0,1.5-1.4,3-4.2,4.4.9,1.2,1.7,2.3,2.5,3.5s1.6,2.2,2.4,3.4c.6-.8,1-1.6,1.3-2.4s.5-1.5.5-2c0-1.1-.8-1.8-2.3-2v-.7h-.3ZM206.1,420.2c-1,.6-1.8,1.4-2.4,2.2-.6.8-.8,1.6-.8,2.4,0,1.2.5,2.4,1.4,3.4s2.1,1.6,3.3,1.6,2.6-.7,3.8-2c-1-1.6-2-3-2.9-4.3s-1.7-2.4-2.4-3.4h0ZM207.6,418.5c1.9-1.1,2.9-2.4,2.9-3.7s0-.8-.2-1.1-.3-.6-.5-.8-.5-.4-.8-.5-.6-.2-1-.2c-.7,0-1.3.2-1.7.7s-.6,1-.6,1.7.6,2.3,1.8,3.9h.1Z"/>
        <path class="st1" d="M259.9,427.4l7.2-16.4h6.1v.7h-.7c-1,0-1.6,0-1.9.2s-.5.5-.6.9-.1,1.5-.1,3.1v9.7c0,1.6,0,2.6.1,3.1,0,.5.3.8.6,1.1s.9.4,1.8.4h.9v.7h-9.5v-.7h.7c.8,0,1.4-.1,1.8-.3s.5-.5.6-1,.1-1.5.1-3.2v-12.6l-7.9,17.8h-.7l-7.9-17.8v11.6c0,1.6,0,2.7.1,3.2s.4,1.1.9,1.5,1.2.7,2.1.7v.7h-7.1v-.7c.9,0,1.5-.3,2.1-.7s.9-.9,1-1.5.2-1.7.2-3.4v-8.6c0-1.6,0-2.6-.1-3.1s-.3-.8-.6-1-.9-.3-2-.3h-.5v-.7h6.1l7.3,16.4h0v.2Z"/>
        <path class="st1" d="M284.3,420.8c0-3.1,1-5.5,3.1-7.4s4.6-2.8,7.7-2.8,5.7.9,7.8,2.8,3.1,4.3,3.1,7.5-1,5.6-3,7.5-4.6,2.9-7.8,2.9-5.7-1-7.8-2.9-3-4.4-3-7.6h-.1ZM287.6,420.9c0,3.2.6,5.6,1.9,7.2s3.2,2.4,5.7,2.4,4-.8,5.3-2.4,2-4,2-7.2-.6-5.5-1.9-7.1-3.1-2.5-5.6-2.5-4.2.8-5.5,2.4-1.9,4-1.9,7.1h0Z"/>
        <path class="st1" d="M338.2,430.9h-5.4c-1-.7-2.4-2.4-4.4-5.2-.6-.9-1.3-1.8-2-2.6-.7-.8-1.1-1.3-1.4-1.5s-.6-.3-1.2-.3h-.8v4.4c0,1.6,0,2.6.1,3.1,0,.5.3.8.6,1.1s.9.4,1.8.4h1v.7h-9.5v-.7h.6c.9,0,1.4-.1,1.8-.3s.5-.5.6-1,.1-1.5.1-3.2v-9.7c0-1.6,0-2.6-.1-3.1s-.3-.8-.6-1-1-.3-2-.3h-.3v-.7h2.8c1.9-.2,3.4-.3,4.5-.3,1.9,0,3.4.2,4.6.5s2.1.9,2.9,1.7,1.1,1.8,1.1,2.9-.5,2.4-1.4,3.3-2.4,1.5-4.2,1.7c.8.4,2.2,1.9,4,4.3,1.5,2,2.7,3.3,3.5,4s1.9,1,3,1v.7h.3ZM323.2,420.6h2.3c.8,0,1.5-.1,2-.3s1-.4,1.4-.8.6-.8.8-1.3.3-1.2.3-2c0-1.4-.4-2.5-1-3.4s-2.2-1.3-4.6-1.3-.8,0-1.2,0v9.1h0Z"/>
        <path class="st1" d="M364.4,424.7h.7l-.4,6.2h-16.5v-.7h.4c1,0,1.6-.1,1.9-.4s.5-.6.5-1,.1-1.4.1-3.1v-9.7c0-1.5,0-2.5-.1-3s-.3-.8-.6-1c-.3-.2-.9-.3-1.9-.3v-.7h14.2l.5,5h-.7c-.3-1.4-.7-2.4-1.1-3s-1-1-1.6-1.1-1.6-.2-3-.2h-2.8v8.3h2.1c1,0,1.6,0,2-.2s.6-.4.8-.8c.1-.3.2-1,.2-2h.7v6.8h-.7c0-1.1,0-1.8-.3-2.2s-.5-.6-.8-.7-1-.2-1.8-.2h-2.2v4.7c0,2.4.1,3.7.5,4.1.3.4,1.1.6,2.5.6h1.5c1,0,1.9-.1,2.6-.4s1.3-.8,1.9-1.7c.6-.8,1.1-2,1.4-3.5h0v.2Z"/>
      </g>
    </g>
  </g>
  <path class="st1" d="M282.8,506.2c-84.1,0-160.1-46.5-198.5-121.4l4.4-2.3c37.5,73.2,111.8,118.7,194,118.7s81.5-11.6,116.2-33.5c33.8-21.4,61.1-51.5,78.9-87.2l4.5,2.2c-18.2,36.5-46.1,67.4-80.7,89.2-35.5,22.5-76.6,34.3-118.9,34.3h.1Z"/>
  <g class="st0">
    <g class="st0">
      <g class="st0">
        <path class="st1" d="M70.2,160.8l.3-.5,4.5,2.9-6.8,12.5-.5-.3.2-.3c.4-.8.6-1.3.5-1.6s-.3-.6-.5-.8c-.3-.2-1.1-.7-2.3-1.4l-7.4-4c-1.2-.6-1.9-1-2.3-1.1-.4-.1-.7-.1-1,0s-.6.6-1,1.3l-.5-.3,5.9-10.8,4,1.7-.3.5c-1.2-.3-2.1-.4-2.7-.3s-1.1.4-1.5.8-.8,1.1-1.4,2.2l-1.1,2.1,6.3,3.4.9-1.6c.4-.7.6-1.3.7-1.6,0-.4,0-.7-.3-.9s-.7-.6-1.4-.9l.3-.5,5.2,2.8-.3.5c-.8-.5-1.4-.7-1.8-.7s-.7,0-.9.3c-.2.2-.5.7-.9,1.3l-.9,1.7,3.6,1.9c1.8,1,2.9,1.4,3.3,1.4s.9-.6,1.5-1.6l.6-1.1c.4-.8.7-1.5.8-2.1,0-.6,0-1.3-.5-2.1-.4-.8-1.1-1.6-2-2.5h0l-.3-.3Z"/>
      </g>
    </g>
  </g>
  <g class="st0">
    <g class="st0">
      <g class="st0">
        <path class="st1" d="M83.7,138.4l-3.8,5.3.6,1c.9,1.5,1.6,2.3,1.9,2.6.4.3.8.4,1.3.2.4-.1.8-.4,1.1-.9l.5.3-3,4.2-.5-.3c.3-.7.5-1.3.3-1.9,0-.6-.6-1.4-1.4-2.6,0-.1-.4-.6-.8-1.4l-6.8-11,.3-.4,14.5,3.3,1.9.4h1.2c.4-.1.7-.4,1.1-.9l.5.3-3.9,5.5-.5-.3c.5-.7.8-1.2.8-1.5s0-.6-.3-.8c-.2-.1-.7-.3-1.7-.5l-3.4-.8h0v.2ZM83.1,138.3l-7.7-1.8,4.2,6.7,3.5-4.9h0Z"/>
      </g>
    </g>
  </g>
  <g class="st0">
    <g class="st0">
      <g class="st0">
        <path class="st1" d="M90.5,118.8l-.4.4-3-2.8,11.2-12.3,3.1,2.7-.4.4c-1-.6-1.8-1-2.4-1.1-.6,0-1.1,0-1.4.2s-.8.7-1.5,1.4l-1.9,2.1,9,8.2c1,.9,1.7,1.5,2,1.7s.7.3,1,.2.8-.4,1.3-1l.6-.6.4.4-5.8,6.3-.4-.4.6-.7c.5-.5.8-1,.8-1.3s0-.7-.3-1c-.2-.3-.9-1-1.9-1.9l-9-8.2-1.7,1.9c-.8.8-1.2,1.4-1.4,1.8s-.2.8,0,1.4.6,1.3,1.3,2.2h.2Z"/>
      </g>
    </g>
  </g>
  <g class="st0">
    <g class="st0">
      <g class="st0">
        <path class="st1" d="M126.2,79.3l2.2-1.8c1.9-1.5,3.1-2.4,3.8-2.9,2.1-1.5,3.9-2.3,5.6-2.5,1.6-.2,3.1,0,4.4.7,1.3.7,2.5,1.7,3.5,3.2.7,1,1.2,2.1,1.5,3.2s.4,2.1.2,3-.5,1.8-1,2.6c-.5.8-1.1,1.5-1.6,2s-1.5,1.2-2.6,2l-6.2,4.4-.3-.5.6-.4c.6-.4,1-.8,1.1-1.1s.1-.7,0-1c-.2-.4-.7-1.1-1.5-2.3l-4.8-6.8c-.8-1.1-1.3-1.8-1.6-2.1-.3-.3-.6-.4-.9-.4s-.8.3-1.5.8l-.4.3-.3-.5h-.2ZM130.7,76.6l6.7,9.4c1,1.4,1.6,2.3,2,2.6.3.4.7.5,1.1.5s1-.3,1.8-.9c1.2-.9,2.1-1.8,2.6-2.7.6-.9.7-2,.6-3.4s-.8-2.8-1.9-4.3c-.9-1.2-1.8-2.1-2.7-2.8-1-.7-1.9-1.2-2.9-1.3-1-.2-1.9,0-2.8.2s-1.8.8-2.9,1.6c-.5.4-1,.8-1.6,1.2h0Z"/>
      </g>
    </g>
  </g>
  <g class="st0">
    <g class="st0">
      <g class="st0">
        <path class="st1" d="M179.2,66.7l-4.1,2.2c-1,0-2.8-.9-5.4-2.2s-1.7-.8-2.5-1.2c-.9-.4-1.4-.6-1.7-.6s-.6,0-1,.3l-.6.3,1.8,3.4c.6,1.2,1.1,2,1.3,2.3s.6.5.9.6c.3,0,.9,0,1.5-.5l.7-.4.3.5-7.3,3.8-.3-.5.5-.3c.6-.3,1.1-.7,1.2-1,.2-.3.2-.6,0-1s-.5-1.2-1.2-2.5l-3.9-7.5c-.6-1.2-1.1-2-1.3-2.3s-.5-.5-.8-.5-.8.2-1.6.6h-.3c0,0-.3-.4-.3-.4l2.1-1.3c1.4-.8,2.6-1.5,3.4-1.9,1.4-.8,2.7-1.3,3.8-1.5s2-.2,2.9.2,1.6.9,2,1.8c.5,1,.6,2,.2,3.1s-1.2,2.1-2.5,3c.8,0,2.4.5,4.8,1.7,2,.9,3.4,1.5,4.3,1.6s1.8,0,2.7-.5l.3.5h0v.2ZM163.6,64.9c.6-.3,1.1-.6,1.7-1s1.1-.7,1.4-1.1.6-.8.8-1.2c.1-.4.2-.9.1-1.4s-.3-1.1-.6-1.7c-.6-1.1-1.3-1.8-2.2-2.2s-2.2,0-4,.9c-.3.2-.6.3-.9.5l3.7,7h0v.2Z"/>
      </g>
    </g>
  </g>
  <g class="st0">
    <g class="st0">
      <g class="st0">
        <path class="st1" d="M185.6,45.8l-.2-.5,7.3-2.9.2.5h-.3c-.8.4-1.3.7-1.5.9s-.3.5-.2.9c0,.4.4,1.2.9,2.6l3.1,7.9c.5,1.3.9,2.1,1.1,2.4.2.4.5.6.8.7.3,0,.9,0,1.6-.3l.5-.2.2.5-7.3,2.9-.2-.5.5-.2c.7-.3,1.1-.5,1.3-.8s.3-.6.2-1c0-.4-.4-1.3-.9-2.6l-3.1-7.9c-.5-1.3-.9-2.1-1.1-2.4-.2-.3-.5-.5-.8-.6-.3,0-.9,0-1.7.4h-.3v.2Z"/>
      </g>
    </g>
  </g>
  <g class="st0">
    <g class="st0">
      <g class="st0">
        <path class="st1" d="M227.3,50.2l-15.9-12.5,3.1,11.5c.2,1,.5,1.6.6,1.8s.5.5,1,.6,1.2,0,2.1-.2v.6c.1,0-6.1,1.7-6.1,1.7v-.6c.6-.3,1.2-.6,1.6-.9.4-.3.5-.7.5-1s-.1-.9-.4-1.9l-2.3-8.8c-.3-1.3-.6-2.1-.9-2.5-.2-.4-.5-.6-.8-.7-.3,0-.9,0-1.8.3v-.6c-.1,0,4.8-1.3,4.8-1.3l13.3,10.4-2.6-10c-.2-.7-.4-1.2-.6-1.5-.2-.2-.6-.4-1.1-.5s-1.1,0-1.8.2v-.6c-.1,0,5.9-1.6,5.9-1.6v.6c-.5.2-1.1.5-1.4.8s-.5.6-.6,1c0,.3,0,.8.2,1.6l3.6,13.8h-.5c0,0,0,.3,0,.3Z"/>
      </g>
    </g>
  </g>
  <g class="st0">
    <g class="st0">
      <g class="st0">
        <path class="st1" d="M247.8,37.4l4.6-5.3c1.1-1.2,1.6-2.1,1.5-2.5,0-.7-.7-1-1.9-.9v-.6l6.4-.8v.6c-.5,0-1,.2-1.5.5s-1,.6-1.4,1-1.1,1.2-2.2,2.5l-2.8,3.3,7.2,5.7c1.6,1.3,2.7,2.1,3.3,2.3s1.2.3,2,.2v.6l-8.8,1.1v-.6h.3c1,0,1.5-.3,1.8-.5.2-.2.3-.4.3-.6,0-.3-.8-1.1-2.1-2.1l-5.4-4.3-1.1,1.2.4,3.1c.2,1.3.3,2.2.4,2.6s.3.7.6.9.8.2,1.6,0h.3v.5l-7.7,1v-.6h.5c.7,0,1.2-.2,1.5-.5.3-.2.4-.5.4-.9s0-1.3-.2-2.7l-1-8.4c-.2-1.4-.3-2.3-.5-2.7-.1-.4-.3-.6-.6-.7s-.9,0-1.9,0v-.6l7.5-.9v.6h-.2c-.8.1-1.4.2-1.6.4-.2.2-.4.5-.4.8s0,1.3.2,2.7l.6,4.4h-.1Z"/>
      </g>
    </g>
  </g>
  <g class="st0">
    <g class="st0">
      <g class="st0">
        <path class="st1" d="M310.8,27.7l-.2,4.3h-.6c0-1-.2-1.8-.6-2.4s-.8-1.1-1.2-1.2-1.2-.3-2.2-.4l-3.4-.3-.6,7.3h1.6c1,.2,1.7,0,2.1-.2s.6-1,.7-2.1h.6l-.5,6.1h-.6v-1.8c0-.4-.3-.8-.6-.9s-.8-.3-1.7-.4h-1.6c0,0-.4,4.1-.4,4.1-.1,1.3-.1,2.2-.1,2.7s.2.8.4,1,.8.4,1.6.4h.6v.6l-8-.7v-.6h.6c.7,0,1.2,0,1.5-.2s.5-.4.6-.8c.1-.4.2-1.3.3-2.7l.7-8.4c.1-1.4.1-2.2.1-2.6s-.2-.7-.4-.9-.8-.3-1.7-.4h-.3v-.6l13.2,1.1h.1Z"/>
      </g>
    </g>
  </g>
  <g class="st0">
    <g class="st0">
      <g class="st0">
        <path class="st1" d="M338,44.2h.6c0,0-1.4,5.3-1.4,5.3l-14-2.8v-.6h.5c.8.2,1.4.2,1.7,0s.5-.4.6-.8c.1-.3.4-1.2.6-2.6l1.7-8.3c.3-1.3.4-2.1.4-2.6s0-.7-.3-1c-.2-.2-.7-.4-1.5-.6v-.6c.1,0,12.2,2.4,12.2,2.4l-.5,4.3h-.6c0-1.3-.2-2.2-.5-2.8s-.7-1-1.2-1.2-1.4-.5-2.5-.7l-2.3-.5-1.4,7.1,1.8.4c.8.2,1.4.2,1.8,0,.4,0,.6-.2.8-.5.2-.3.3-.8.5-1.6h.6c0,0-1.2,5.9-1.2,5.9h-.6c.2-1.1.2-1.7.1-2,0-.3-.3-.6-.6-.8s-.8-.3-1.5-.5l-1.9-.4-.8,4c-.4,2-.5,3.2-.3,3.6.2.4.8.7,2,1l1.3.2c.9.2,1.6.2,2.3,0s1.3-.5,1.9-1.1,1.3-1.5,1.8-2.7h0v.4Z"/>
      </g>
    </g>
  </g>
  <g class="st0">
    <g class="st0">
      <g class="st0">
        <path class="st1" d="M366.4,52.6l.6.2-2,5-13.5-4.5.2-.5h.3c.8.4,1.4.4,1.7.3.3,0,.5-.4.7-.7s.5-1.2.9-2.5l2.7-8c.4-1.2.6-2.1.7-2.5,0-.4,0-.7-.2-1-.2-.2-.7-.5-1.5-.8l.2-.5,11.7,3.9-1,4.2-.6-.2c.1-1.2,0-2.1-.1-2.7s-.6-1-1-1.3-1.3-.6-2.4-1l-2.3-.8-2.3,6.9,1.7.6c.8.3,1.4.4,1.7.3.4,0,.6-.2.8-.4.2-.2.4-.8.7-1.6l.6.2-1.9,5.6-.6-.2c.3-.9.4-1.5.4-1.9s-.2-.6-.5-.8-.7-.4-1.4-.6l-1.8-.6-1.3,3.9c-.6,1.9-.9,3.1-.8,3.5s.8.8,1.8,1.2l1.2.4c.9.3,1.6.4,2.2.4s1.3-.3,2-.8,1.4-1.3,2.1-2.4h0l.3-.3Z"/>
      </g>
    </g>
  </g>
  <g class="st0">
    <g class="st0">
      <g class="st0">
        <path class="st1" d="M394,64.9l-2.3,4.5-13.2-6.2.2-.5.5.2c.7.3,1.2.5,1.5.4.3,0,.6-.2.9-.5s.7-1.1,1.3-2.4l3.6-7.6c.6-1.2.9-2.1,1-2.5s0-.7-.1-1c-.2-.2-.6-.6-1.4-.9l-.3-.2.2-.5,7.5,3.5-.2.5-.7-.3c-.8-.4-1.3-.5-1.6-.5s-.6.2-.8.5-.7,1.1-1.3,2.4l-3.8,8.1c-.5,1.1-.8,1.8-.9,2.2,0,.3,0,.6.2.9s.7.6,1.6,1.1l1.2.6c1,.4,1.7.7,2.2.8s1.2,0,1.8-.5,1.5-1.1,2.4-2.2l.5.2h0Z"/>
      </g>
    </g>
  </g>
  <g class="st0">
    <g class="st0">
      <g class="st0">
        <path class="st1" d="M433.8,87.6l5.9,4.5-.4.5c-.6-.5-1.1-.8-1.5-.8s-.6,0-1,.3-.9,1-1.8,2.1l-1.1,1.5c-.1-.2-.3-.3-.4-.4-.5-.4-1.3-.8-2.4-1.1-1.5-.4-2.7-1-3.7-1.8-2-1.5-3.1-3.4-3.4-5.7-.3-2.3.3-4.4,1.8-6.4s3.4-3.2,5.8-3.7,4.6,0,6.7,1.6c1.8,1.4,2.8,3.2,3,5.5.6-.3,1.1-.7,1.6-1.2l.5.4-3.5,4.6-.5-.4c.9-1.6,1.2-3.1.9-4.6s-1-2.7-2.2-3.7c-1.3-1-2.8-1.3-4.5-1.1-1.7.2-3.5,1.6-5.3,4-1.9,2.4-2.7,4.5-2.5,6.2.1,1.7.9,3.1,2.3,4.1.7.5,1.5.9,2.2,1,.8.2,1.5,0,2-.2s1-.7,1.5-1.3c.6-.7.9-1.3,1-1.6s0-.6,0-.8c-.1-.2-.5-.6-1-1l-.3-.2.4-.5h0v.2Z"/>
      </g>
    </g>
  </g>
  <g class="st0">
    <g class="st0">
      <g class="st0">
        <path class="st1" d="M452.4,101.3c1.9-1.9,4-2.8,6.4-2.6,2.4,0,4.5,1.1,6.4,3s2.9,4.1,3,6.4c.1,2.4-.8,4.6-2.7,6.5-1.9,1.9-4,2.8-6.4,2.7-2.4,0-4.6-1.1-6.5-3.1-1.9-1.9-2.9-4.1-3-6.5,0-2.4.9-4.6,2.8-6.5h0ZM454.4,103.5c-2,1.9-3,3.8-3.2,5.6s.5,3.4,2,5c1.4,1.4,2.9,2,4.7,1.8s3.6-1.2,5.6-3.2c1.9-1.9,3-3.7,3.2-5.5s-.4-3.4-1.9-4.9-3.1-2.1-4.8-1.9c-1.8.2-3.6,1.3-5.5,3.2h-.1Z"/>
      </g>
    </g>
  </g>
  <g class="st0">
    <g class="st0">
      <g class="st0">
        <path class="st1" d="M476.4,127.1c2.1-1.6,4.4-2.2,6.7-1.7,2.4.5,4.3,1.8,5.9,3.9,1.6,2.1,2.3,4.4,2.1,6.8-.2,2.4-1.4,4.4-3.6,6.1-2.1,1.6-4.4,2.2-6.7,1.8s-4.4-1.7-6-4c-1.6-2.2-2.3-4.5-2-6.9s1.5-4.4,3.7-6h-.1ZM478,129.4c-2.2,1.7-3.5,3.3-4,5.1s0,3.5,1.3,5.2c1.2,1.6,2.6,2.4,4.4,2.4s3.8-.7,6-2.4c2.1-1.6,3.5-3.3,3.9-5,.5-1.7,0-3.5-1.2-5.1-1.2-1.7-2.8-2.5-4.5-2.6s-3.8.7-5.9,2.4h0Z"/>
      </g>
    </g>
  </g>
  <g class="st0">
    <g class="st0">
      <g class="st0">
        <path class="st1" d="M503.4,151.3l1.5,2.4c1.2,2,2.1,3.4,2.5,4.1,1.2,2.2,1.9,4.2,1.9,5.8s-.4,3.1-1.2,4.3c-.8,1.2-2,2.3-3.5,3.1-1.1.6-2.2,1-3.3,1.2s-2.1.1-3-.1c-.9-.2-1.8-.7-2.5-1.3s-1.3-1.2-1.8-1.9c-.5-.6-1-1.6-1.7-2.9l-3.7-6.7.5-.3.3.6c.4.6.7,1.1,1,1.2.3.2.6.2,1,0,.4-.1,1.2-.5,2.5-1.2l7.3-4c1.2-.7,2-1.1,2.3-1.4s.5-.6.5-.8-.2-.8-.6-1.6l-.2-.4.5-.3h0l-.3.2ZM505.7,156.1l-10.1,5.6c-1.5.8-2.4,1.4-2.8,1.7s-.6.6-.6,1,.2,1,.7,1.9c.7,1.3,1.5,2.3,2.3,2.9.8.6,1.9,1,3.3.9,1.4,0,2.9-.5,4.5-1.4,1.3-.7,2.3-1.5,3.1-2.4s1.4-1.8,1.7-2.8c.3-1,.3-1.9.1-2.8s-.6-1.9-1.2-3.1c-.3-.6-.6-1.1-1-1.7h0v.2Z"/>
      </g>
    </g>
  </g>
  <g class="st0">
    <g class="st0">
      <g class="st0">
        <path class="st1" d="M68.7,393l.5-.3,3.7,6.9-.5.3-.2-.3c-.4-.8-.7-1.2-1-1.4-.2-.2-.6-.2-.9-.1-.4.1-1.2.5-2.5,1.2l-7.5,4c-1.2.6-2,1.1-2.3,1.3-.3.2-.5.5-.6.9,0,.3,0,.9.5,1.5l.2.5-.5.3-3.7-6.9.5-.3.2.5c.3.6.7,1.1,1,1.2.3.2.6.2,1,0,.4-.1,1.2-.5,2.5-1.2l7.5-4c1.2-.6,2-1.1,2.3-1.4.3-.2.5-.5.5-.8s-.2-.8-.6-1.6l-.2-.3h0Z"/>
      </g>
    </g>
  </g>
  <g class="st0">
    <g class="st0">
      <g class="st0">
        <path class="st1" d="M68.8,426.8l7.1-18.9-10.1,6.4c-.8.5-1.4.9-1.6,1.2s-.3.6-.3,1.2.3,1.2.8,2l-.5.3-3.5-5.4.5-.3c.5.7,1,1.1,1.4,1.3.4.2.8.3,1.1.2.3,0,.9-.4,1.7-1l7.7-4.9c1.1-.7,1.8-1.2,2.1-1.6s.4-.7.4-1-.3-.8-.8-1.6l.5-.3,2.7,4.3-5.9,15.8,8.7-5.5c.6-.4,1.1-.8,1.2-1.1s.2-.7,0-1.2c0-.5-.3-1-.7-1.6l.5-.3,3.4,5.3-.5.3c-.4-.6-.9-1-1.3-1.2s-.8-.3-1.1-.2-.8.3-1.4.7l-12,7.6-.3-.5h.2Z"/>
      </g>
    </g>
  </g>
  <g class="st0">
    <g class="st0">
      <g class="st0">
        <path class="st1" d="M93.3,445.8l6.5-1.1c1.1-.2,1.8-.4,2.1-.6.3-.2.4-.5.5-1,0-.4-.2-.9-.7-1.5l.4-.4,3.7,4.3-.4.4c-.6-.5-1.2-.8-1.9-.9-.7,0-1.7,0-3.1.3l-7.4,1.2-1.7,1.5c-1.1,1-1.8,1.6-2.1,1.9-.2.3-.3.7-.3,1s.4.8.9,1.5l-.4.4-4.8-5.6.4-.4.2.2c.5.6.9.9,1.2,1,.3.1.7,0,1-.1.3-.2,1.1-.8,2.2-1.7l1.6-1.4,2.6-7.8c.5-1.6.8-2.6.8-3s-.2-.9-.7-1.5l.4-.4,4.5,5.3-.4.4c-.8-1-1.5-1.3-1.9-.9-.2.1-.4.6-.7,1.4l-2.5,7.5h0Z"/>
      </g>
    </g>
  </g>
  <g class="st0">
    <g class="st0">
      <g class="st0">
        <path class="st1" d="M102.2,454.1c1.9-1.9,4-2.8,6.4-2.7,2.4.1,4.5,1.1,6.4,2.9,1.9,1.9,3,4,3.1,6.4s-.7,4.6-2.6,6.5-4,2.8-6.4,2.8-4.6-1-6.6-3c-1.9-1.9-3-4.1-3.1-6.5,0-2.4.8-4.6,2.7-6.5h0ZM104.2,456.2c-1.9,2-3,3.9-3.2,5.6-.2,1.8.5,3.4,2.1,5,1.4,1.4,3,1.9,4.7,1.7,1.8-.2,3.6-1.3,5.6-3.2,1.9-1.9,2.9-3.8,3.1-5.5.2-1.8-.4-3.4-1.9-4.9s-3.1-2.1-4.9-1.9-3.6,1.3-5.5,3.2h0Z"/>
      </g>
    </g>
  </g>
  <g class="st0">
    <g class="st0">
      <g class="st0">
        <path class="st1" d="M136.1,473.2l4.5,3.6-.4.5c-.6-.4-1.2-.7-1.6-.7s-.9.1-1.1.3-.8.8-1.4,1.6l-3.6,4.5c-.9,1.1-1.6,2-2.2,2.4s-1.2.8-2.1,1c-.8.2-1.8.1-2.8-.2-1-.3-2.1-.9-3.1-1.7-1.2-1-2.1-2-2.6-3s-.7-2.1-.5-3,.7-1.9,1.5-3l1.1-1.4,3.3-4.2c.9-1.1,1.4-1.8,1.6-2.1s.2-.7,0-1-.5-.7-1.2-1.2l-.3-.2.4-.5,6.1,4.9-.4.5-.3-.2c-.7-.5-1.1-.8-1.4-.9-.3,0-.6,0-.9.3s-.9.9-1.8,2l-3.4,4.2c-1.2,1.5-1.9,2.6-2.3,3.3-.4.7-.4,1.6,0,2.5s.9,1.9,2,2.7c.8.7,1.7,1.1,2.6,1.3.9.2,1.7.2,2.4,0,.7-.2,1.3-.5,1.7-.9.5-.4,1.1-1.2,1.9-2.2l3.7-4.6c.6-.8,1-1.3,1.1-1.7.2-.4.2-.8,0-1.2-.1-.4-.5-.9-1.1-1.4l.4-.5h0l.2.2Z"/>
      </g>
    </g>
  </g>
  <g class="st0">
    <g class="st0">
      <g class="st0">
        <path class="st1" d="M150.6,504.1l-3.9-2.5c-.4-.9-.6-2.9-.7-5.8,0-1,0-1.9-.2-2.8-.1-.9-.2-1.5-.3-1.8s-.3-.5-.7-.8l-.6-.4-2.1,3.2c-.7,1.1-1.2,1.9-1.4,2.3s-.2.7,0,1.1.5.7,1.2,1.1l.7.5-.3.5-6.9-4.5.3-.5.5.3c.6.4,1.1.6,1.4.6s.6-.1.9-.4c.3-.3.8-1,1.6-2.2l4.6-7.1c.8-1.1,1.2-1.9,1.4-2.3.1-.4.2-.7,0-1s-.6-.6-1.3-1.1l-.2-.2.3-.5,2.1,1.2c1.4.8,2.5,1.5,3.3,2,1.4.9,2.4,1.8,3.1,2.6s1.1,1.7,1.3,2.6c.1.9,0,1.8-.6,2.6-.6.9-1.5,1.5-2.6,1.7s-2.4,0-3.9-.8c.4.7.7,2.4.9,5,.1,2.2.4,3.7.7,4.6s.9,1.6,1.7,2.2l-.3.5h0ZM144.5,489.6c.5.3,1.1.7,1.7,1s1.1.6,1.6.7,1,.2,1.4.1.8-.3,1.2-.6c.4-.3.8-.7,1.2-1.3.7-1,.9-2,.8-2.9s-1-2-2.7-3.1c-.3-.2-.6-.4-.9-.5l-4.3,6.6h0Z"/>
      </g>
    </g>
  </g>
  <g class="st0">
    <g class="st0">
      <g class="st0">
        <path class="st1" d="M170.4,505.1c1.1-2.4,2.8-4,5.1-4.7s4.6-.5,7.1.6c2.4,1.1,4.1,2.8,5.1,5s.9,4.5-.3,7c-1.1,2.4-2.8,4-5.1,4.8s-4.7.6-7.2-.6c-2.5-1.1-4.2-2.8-5.1-5.1-.9-2.2-.8-4.6.4-7.1h0ZM173,506.4c-1.2,2.5-1.5,4.6-1.1,6.4.4,1.7,1.6,3,3.6,4,1.8.8,3.4.8,5,0s3-2.4,4.1-4.9c1.1-2.4,1.5-4.5,1.1-6.3s-1.6-3.1-3.5-4-3.6-.9-5.2-.1c-1.6.8-2.9,2.4-4.1,4.9h0Z"/>
      </g>
    </g>
  </g>
  <g class="st0">
    <g class="st0">
      <g class="st0">
        <path class="st1" d="M206.4,529.4l-.5-.2-.5-15.1-8.9,12-.6-.2.3-14v-2.6c0-.4-.1-.8-.3-1s-.6-.5-1.2-.7l.2-.5,6.1,2-.2.5c-.8-.2-1.3-.2-1.5-.2-.3,0-.4.3-.5.6,0,.3-.1,1-.2,2.2l-.3,10.5,8.6-11.7.7.2.4,14.7,5.4-7.8c.7-1.1,1.1-1.8,1.3-2.1.4-1.1,0-1.8-1.2-2.2l.2-.5,4.5,1.5-.2.5c-.7-.2-1.2,0-1.7.2-.5.3-1.2,1.2-2.3,2.7l-7.7,11.1h0Z"/>
      </g>
    </g>
  </g>
  <g class="st0">
    <g class="st0">
      <g class="st0">
        <path class="st1" d="M233.9,536.3l-8.5-18.3-2.5,11.7c-.2,1-.3,1.6-.3,1.9s.2.7.6,1c.4.3,1,.6,1.9.8v.6c-.1,0-6.4-1.4-6.4-1.4v-.6c.9,0,1.6,0,2,0,.5,0,.8-.3.9-.6.1-.3.3-.9.5-1.9l1.9-8.9c.3-1.3.4-2.2.4-2.6s-.1-.8-.4-1-.8-.4-1.7-.6v-.6c.1,0,5.1,1.1,5.1,1.1l7.1,15.3,2.2-10.1c.2-.7.2-1.3.1-1.6,0-.3-.4-.6-.8-.9-.4-.3-1-.5-1.6-.6v-.6c.1,0,6.2,1.3,6.2,1.3v.6h-1.9c-.5,0-.8.3-.9.6-.2.3-.3.8-.5,1.5l-3,13.9h-.5c0,0,0,0,0,0Z"/>
      </g>
    </g>
  </g>
  <g class="st0">
    <g class="st0">
      <g class="st0">
        <path class="st1" d="M270.3,540.6l-11-17-.9,11.9v2c0,.4.3.6.8.9.4.3,1.1.5,2,.5v.6l-6.5-.5v-.6c.9,0,1.5,0,1.9-.3.5-.2.7-.5.8-.7.1-.3.2-.9.3-2l.6-9.1c0-1.3.1-2.2,0-2.7,0-.5-.3-.8-.5-.9-.3-.2-.9-.2-1.8-.3v-.6l5.1.4,9.2,14.2.7-10.3c0-.8,0-1.3-.1-1.6s-.4-.6-.9-.8-1-.3-1.7-.4v-.6l6.3.5v.6c-.8,0-1.4,0-1.8.3s-.7.4-.9.7c-.1.3-.2.8-.3,1.5l-1,14.2h-.5.2Z"/>
      </g>
    </g>
  </g>
  <g class="st0">
    <g class="st0">
      <g class="st0">
        <path class="st1" d="M294,534.9h.6l-.3,5.3-14.2.2v-.6h.4c.9,0,1.4,0,1.6-.4.2-.2.4-.5.5-.9s0-1.2,0-2.7v-8.4c-.2-1.3-.2-2.2-.3-2.6s-.2-.7-.5-.9-.8-.2-1.6-.2v-.6l12.3-.2.5,4.3h-.6c-.3-1.2-.6-2-1-2.5s-.9-.8-1.4-.9c-.5,0-1.4-.2-2.6-.2h-2.4v7.3h1.9c.8,0,1.4,0,1.8-.3s.5-.4.6-.7.1-.9.1-1.7h.6v5.9c.1,0-.5,0-.5,0,0-1-.1-1.6-.3-1.9-.2-.3-.4-.5-.7-.6-.3,0-.8,0-1.6,0h-1.9v4.1c0,2,.2,3.2.5,3.6.3.4,1,.5,2.1.5h1.3c.9,0,1.6-.2,2.2-.4s1.1-.7,1.6-1.5c.5-.7.9-1.7,1.2-3h0Z"/>
      </g>
    </g>
  </g>
  <g class="st0">
    <g class="st0">
      <g class="st0">
        <path class="st1" d="M300,523.2v-.6l7.8-.7v.6h-.3c-.8,0-1.4.2-1.6.3s-.4.4-.5.8c0,.4,0,1.3.1,2.7l.7,8.4c.1,1.3.2,2.2.3,2.6.1.4.3.7.6.9s.8.2,1.6.2h.5v.5l-7.8.7v-.6h.5c.7,0,1.2-.2,1.5-.4s.4-.5.5-.9c0-.4,0-1.3-.1-2.8l-.7-8.4c-.1-1.4-.2-2.2-.3-2.6s-.3-.7-.6-.8c-.3,0-.9-.2-1.7,0h-.5Z"/>
      </g>
    </g>
  </g>
  <g class="st0">
    <g class="st0">
      <g class="st0">
        <path class="st1" d="M325.9,529.4l7.3-1.2v.6c-.7,0-1.2.3-1.5.5s-.4.5-.4.9,0,1.3.3,2.8l.3,1.8h-.5c-.6,0-1.5.4-2.4,1-1.3.8-2.6,1.3-3.8,1.5-2.4.4-4.6,0-6.5-1.4s-3-3.2-3.4-5.7c-.4-2.4,0-4.7,1.2-6.8s3.2-3.3,5.8-3.8c2.3-.4,4.3.2,6,1.6.2-.6.2-1.3.2-2h.6l.9,5.6h-.6c-.5-1.6-1.4-2.9-2.7-3.7s-2.6-1.1-4.2-.9c-1.6.3-2.9,1.1-3.9,2.5s-1.2,3.6-.7,6.6,1.4,5,2.8,6.1,2.9,1.5,4.6,1.2c.9,0,1.6-.5,2.3-.9s1.1-1,1.2-1.5.2-1.2,0-2c-.1-.9-.3-1.5-.5-1.8s-.4-.5-.7-.5h-1.8v-.5h-.1.2Z"/>
      </g>
    </g>
  </g>
  <g class="st0">
    <g class="st0">
      <g class="st0">
        <path class="st1" d="M352.6,521.9l-8.7,2.4,1.1,4c.4,1.3.6,2.2.8,2.5.2.4.4.6.7.8.3,0,.9,0,1.6,0h.4c0,0,.1.4.1.4l-7.5,2v-.6c-.1,0,.3,0,.3,0,.7-.2,1.2-.4,1.4-.7s.3-.6.3-1-.2-1.3-.6-2.7l-2.2-8.2c-.4-1.3-.6-2.2-.8-2.5-.2-.4-.4-.6-.7-.7-.3,0-.9,0-1.7.2h-.3v-.5c-.1,0,7.4-2,7.4-2v.6c.1,0-.2,0-.2,0-.8.2-1.3.4-1.5.6-.2.2-.3.5-.3.9s.2,1.3.6,2.7l.9,3.3,8.7-2.4-.9-3.3c-.4-1.3-.6-2.2-.8-2.5-.2-.4-.4-.6-.7-.7s-.9,0-1.7.2h-.4c0,0-.1-.4-.1-.4l7.6-2.1v.6c.1,0-.1,0-.1,0-.8.2-1.3.4-1.5.6s-.3.5-.3.9.2,1.3.6,2.7l2.2,8.1c.4,1.3.6,2.2.8,2.5.2.4.4.6.7.8.3,0,.9,0,1.6,0h.4v.5c.1,0-7.5,2.1-7.5,2.1v-.6c-.1,0,.4-.2.4-.2.7-.2,1.2-.4,1.4-.7.2-.2.3-.6.3-1s-.2-1.3-.6-2.7l-1.1-4h0v.4Z"/>
      </g>
    </g>
  </g>
  <g class="st0">
    <g class="st0">
      <g class="st0">
        <path class="st1" d="M371,515c1.9-.5,3.4-.6,4.6-.2s2,1.2,2.4,2.4c.4,1,.4,2,0,3-.3,1-.9,1.7-1.8,2.3s-2.1,1.2-3.6,1.8l-6.3,2.4-.2-.5.6-.2c.7-.3,1.1-.5,1.3-.8.2-.3.3-.6.2-1,0-.4-.4-1.3-.9-2.6l-3-7.8c-.5-1.3-.9-2.1-1.1-2.5s-.5-.5-.8-.6c-.3,0-.9,0-1.7.4h-.3c0,.1-.2-.4-.2-.4l2.6-1.1,3-1.2c4.4-1.7,7.1-1.2,8,1.3.4,1,.3,2-.2,3-.5.9-1.5,1.8-2.9,2.6h0l.3-.3ZM368,515.9c.2,0,.4,0,.5-.2,1.7-.6,2.8-1.3,3.2-2.1.4-.8.4-1.8,0-3-.3-.8-.7-1.4-1.1-1.8s-.9-.6-1.5-.6-1.5.1-2.7.6c-.3.1-.6.2-.9.4l2.5,6.8h0ZM368.2,516.5l1.4,3.6c.6,1.5,1,2.5,1.2,2.9s.5.7.8.8.8,0,1.5-.2c1.3-.5,2.1-1.2,2.5-2,.4-.9.3-2-.1-3.3-.5-1.3-1.2-2.2-2.2-2.5-1-.4-2.3-.2-4.1.5-.3,0-.6.2-.9.4h0v-.2Z"/>
      </g>
    </g>
  </g>
  <g class="st0">
    <g class="st0">
      <g class="st0">
        <path class="st1" d="M383.3,510.8c-1.2-2.4-1.3-4.7-.4-6.9.9-2.2,2.5-3.9,4.9-5.1s4.8-1.5,7.1-.8c2.3.6,4.1,2.2,5.3,4.7,1.2,2.4,1.3,4.7.5,7s-2.5,4-5,5.2-4.8,1.4-7.1.7c-2.3-.7-4-2.3-5.2-4.7h0ZM385.9,509.5c1.2,2.5,2.6,4.1,4.2,4.9s3.4.7,5.4-.3c1.7-.8,2.8-2.1,3.2-3.9.4-1.7,0-3.9-1.2-6.3s-2.6-4-4.2-4.8-3.4-.7-5.3.2c-1.9.9-3,2.2-3.4,4-.4,1.7,0,3.8,1.2,6.3h0Z"/>
      </g>
    </g>
  </g>
  <g class="st0">
    <g class="st0">
      <g class="st0">
        <path class="st1" d="M406.5,499c-1.4-2.2-1.8-4.5-1.1-6.8s2.1-4.2,4.4-5.6,4.6-1.9,7-1.5,4.3,1.8,5.7,4.1c1.4,2.3,1.8,4.5,1.2,6.9s-2.1,4.2-4.5,5.7c-2.3,1.5-4.7,1.9-7,1.5s-4.3-1.9-5.7-4.2h0ZM409,497.5c1.5,2.4,3,3.8,4.7,4.4s3.5.3,5.3-.9c1.6-1,2.6-2.4,2.8-4.2.2-1.8-.4-3.8-1.9-6.2-1.4-2.3-3-3.7-4.7-4.3-1.7-.6-3.4-.4-5.2.8-1.8,1.1-2.7,2.5-2.9,4.3-.2,1.8.4,3.8,1.9,6.1h0Z"/>
      </g>
    </g>
  </g>
  <g class="st0">
    <g class="st0">
      <g class="st0">
        <path class="st1" d="M447.6,480.9l-3.7,2.8c-1,0-2.9-.4-5.8-1.3-.9-.3-1.8-.5-2.7-.7s-1.5-.3-1.8-.3-.6.2-1,.4l-.5.4,2.3,3c.8,1.1,1.4,1.8,1.7,2,.3.3.6.4,1,.4s.8-.2,1.4-.7l.6-.5.4.5-6.5,5-.4-.5.4-.3c.6-.5.9-.8,1-1.2.1-.3,0-.7-.1-1s-.7-1.1-1.6-2.2l-5.2-6.7c-.8-1.1-1.4-1.8-1.7-2s-.6-.4-.9-.3-.8.3-1.5.9l-.2.2-.4-.5,1.9-1.6c1.2-1.1,2.3-1.9,3-2.5,1.3-1,2.5-1.7,3.5-2.1s2-.5,2.9-.3,1.7.6,2.3,1.4c.7.9,1,1.9.8,3s-.8,2.3-2,3.4c.8-.2,2.5.1,5,.8,2.1.6,3.6.9,4.5.8.9,0,1.8-.3,2.6-.9l.4.5h.3ZM431.9,481.9c.5-.4,1-.8,1.5-1.3s.9-.9,1.2-1.3c.3-.4.5-.9.5-1.3s0-.9-.1-1.4-.4-1-.9-1.5c-.7-1-1.6-1.5-2.5-1.7s-2.2.3-3.8,1.6c-.2.2-.5.4-.8.7l4.8,6.2h0Z"/>
      </g>
    </g>
  </g>
  <g class="st0">
    <g class="st0">
      <g class="st0">
        <path class="st1" d="M456.8,460.8l-6.5,6.2,2.9,3c.9,1,1.6,1.6,1.9,1.9s.7.4,1,.3c.3,0,.8-.3,1.4-.9l.3-.3.4.4-5.6,5.3-.4-.4.3-.3c.5-.5.8-.9.9-1.2,0-.3,0-.7-.2-1s-.8-1-1.8-2.1l-5.8-6.1c-.9-1-1.6-1.6-1.9-1.9-.3-.2-.6-.3-.9-.2-.3,0-.8.4-1.4,1l-.2.2-.4-.4,5.6-5.3.4.4-.2.2c-.6.6-1,1-1.1,1.3,0,.3,0,.6.1.9.2.3.8,1,1.8,2.1l2.4,2.5,6.5-6.2-2.4-2.5c-.9-1-1.6-1.6-1.9-1.9s-.6-.3-.9-.3-.8.4-1.4,1l-.3.3-.4-.4,5.7-5.4.4.4-.2.2c-.6.6-1,1-1.1,1.3s0,.6.1.9c.2.3.8,1,1.8,2.1l5.8,6.1c.9,1,1.6,1.6,1.9,1.9s.7.4,1,.3c.3,0,.8-.3,1.4-.9l.3-.3.4.4-5.7,5.4-.4-.4.4-.4c.5-.5.8-.9.9-1.2s0-.7-.2-1-.8-1-1.8-2.1l-2.9-3h0Z"/>
      </g>
    </g>
  </g>
  <g class="st0">
    <g class="st0">
      <g class="st0">
        <path class="st1" d="M465.1,452.2c-2-1.7-3-3.8-3.1-6.2,0-2.4.8-4.6,2.5-6.6,1.8-2,3.8-3.2,6.2-3.5,2.4-.3,4.6.4,6.7,2.2,2,1.7,3.1,3.8,3.2,6.2s-.7,4.6-2.5,6.8c-1.8,2.1-3.9,3.2-6.3,3.5s-4.6-.5-6.7-2.3h0ZM467.1,450.1c2.1,1.8,4,2.7,5.8,2.8s3.4-.7,4.8-2.4c1.3-1.5,1.7-3.1,1.4-4.8-.3-1.8-1.5-3.5-3.6-5.3-2-1.7-4-2.7-5.8-2.8s-3.4.7-4.8,2.3c-1.4,1.6-1.9,3.2-1.5,5,.3,1.7,1.5,3.5,3.6,5.3h.1Z"/>
      </g>
    </g>
  </g>
  <g class="st0">
    <g class="st0">
      <g class="st0">
        <path class="st1" d="M481.9,432.2c-2.2-1.5-3.4-3.5-3.7-5.8-.3-2.4.3-4.7,1.8-6.8,1.5-2.2,3.5-3.6,5.8-4.2s4.6,0,6.9,1.5c2.2,1.5,3.5,3.5,3.9,5.8.4,2.4-.2,4.7-1.8,7-1.6,2.2-3.5,3.6-5.9,4.1s-4.6,0-6.9-1.6h0ZM483.6,429.9c2.3,1.6,4.3,2.3,6.1,2.2,1.8-.1,3.3-1.1,4.5-2.9,1.1-1.6,1.4-3.2.9-5s-1.9-3.4-4.1-4.9-4.2-2.2-6-2.1-3.3,1-4.5,2.8c-1.2,1.7-1.5,3.4-1,5.1s1.9,3.3,4.1,4.9h0Z"/>
      </g>
    </g>
  </g>
  <g class="st0">
    <g class="st0">
      <g class="st0">
        <path class="st1" d="M488.7,407.1l1.2-2.5c1-2.1,1.8-3.5,2.1-4.3,1.2-2.2,2.5-3.8,3.9-4.7,1.4-.9,2.8-1.3,4.3-1.3s3,.5,4.5,1.3c1.1.6,2,1.3,2.8,2.2.7.8,1.2,1.7,1.5,2.6s.4,1.8.3,2.8-.3,1.8-.6,2.5-.8,1.7-1.5,3l-3.7,6.7-.5-.3.3-.6c.4-.6.5-1.1.5-1.5s-.2-.6-.5-.9-1.1-.7-2.4-1.4l-7.3-4c-1.2-.7-2-1-2.4-1.2-.4-.1-.7-.1-1,0-.2.1-.6.6-1,1.4l-.2.4-.5-.3h.2ZM491.5,402.7l10.1,5.5c1.5.8,2.5,1.3,2.9,1.5s.9.2,1.2,0,.7-.7,1.2-1.6c.7-1.3,1.1-2.5,1.2-3.5s-.2-2.1-1-3.3-1.9-2.2-3.6-3.1c-1.3-.7-2.5-1.2-3.7-1.4-1.2-.2-2.3-.2-3.2,0-1,.3-1.8.7-2.4,1.3s-1.3,1.5-1.9,2.7c-.3.6-.6,1.1-.9,1.7h0v.2Z"/>
      </g>
    </g>
  </g>
  <path class="st1" d="M477.8,186.1c-17.8-35.7-45.1-65.8-78.9-87.1-34.7-21.9-74.9-33.5-116.1-33.5s-81.4,11.6-116.1,33.5c-33.8,21.3-61.1,51.4-78.9,87.1l-4.5-2.2c18.2-36.5,46.1-67.3,80.7-89.1,35.5-22.4,76.6-34.3,118.8-34.3s83.3,11.9,118.8,34.3c34.6,21.8,62.5,52.6,80.7,89.1l-4.5,2.2h0Z"/>
  <g class="st0">
    <g class="st0">
      <g class="st0">
        <path class="st1" d="M135.8,385.5v4.2c0,1.6,0,2.6.1,3.1,0,.5.3.8.6,1.1s.9.4,1.8.4h.7v.7h-9.1v-.7h.5c.9,0,1.4-.1,1.8-.3s.5-.5.6-1,.1-1.5.1-3.2v-9.7c0-1.6,0-2.6-.1-3.1s-.3-.8-.6-1-1-.3-2-.3h-.4v-.7h2.5c2-.2,3.5-.2,4.7-.2,2.1,0,3.6.2,4.7.5s2,.9,2.7,1.7,1.1,1.9,1.1,3.1-.2,2-.7,2.9-1.2,1.5-2.1,1.9-2.5.6-4.8.6h-2.2,0ZM135.8,384.8h1.4c1.1,0,2.1-.1,2.8-.3s1.3-.7,1.8-1.4.7-1.6.7-2.7c0-1.6-.4-2.8-1.2-3.6s-2.1-1.1-3.9-1.1-1.2,0-1.5,0v9.2h-.1Z"/>
        <path class="st1" d="M155.6,375.7v-.7h9.1v.7h-.4c-1,0-1.6,0-1.9.2s-.5.5-.6.9-.1,1.5-.1,3.1v9.7c0,1.6,0,2.6.1,3.1,0,.5.3.8.6,1.1s.9.4,1.8.4h.6v.7h-9.1v-.7h.6c.9,0,1.4-.1,1.8-.3s.5-.5.6-1,.1-1.5.1-3.2v-9.7c0-1.6,0-2.6-.1-3.1s-.3-.8-.6-1-1-.3-2-.3h-.5Z"/>
        <path class="st1" d="M175.3,394.9v-.5l12.8-18.7h-6.2c-1.3,0-2.2,0-2.6.2s-.9.5-1.4,1.2-.9,1.5-1.2,2.6h-.6l.6-4.6h14.8v.7l-12.7,18.5h6.1c2.1,0,3.4-.2,3.9-.5s1.1-.9,1.5-1.7.8-1.6,1-2.3h.7l-.7,5.1h-16.1,0Z"/>
        <path class="st1" d="M203.4,394.9v-.5l12.8-18.7h-6.2c-1.3,0-2.2,0-2.6.2s-.9.5-1.4,1.2-.9,1.5-1.2,2.6h-.6l.6-4.6h14.8v.7l-12.7,18.5h6.1c2.1,0,3.4-.2,3.9-.5s1.1-.9,1.5-1.7.8-1.6,1-2.3h.7l-.7,5.1h-16.1,0Z"/>
        <path class="st1" d="M243.5,387.5h-7.5l-.5,1.3c-.8,1.8-1.1,3-1.1,3.6s.2,1,.6,1.4.9.5,1.6.5v.7h-5.9v-.7c.9-.1,1.5-.5,2-.9.4-.5.9-1.5,1.6-3,0-.1.3-.7.7-1.7l5.8-13.8h.6l6.6,15.8.9,2.1c.2.5.5.8.8,1.1s.9.4,1.6.5v.7h-7.8v-.7c1,0,1.6,0,1.9-.2.3-.1.5-.4.5-.8s-.2-.9-.7-1.9l-1.5-3.7h0l-.2-.3ZM243.2,386.9l-3.5-8.5-3.5,8.5h7Z"/>
        <path class="st1" d="M277.4,387.7h7.2v2.2h-7.2v-2.2Z"/>
      </g>
    </g>
    <g class="st0">
      <g class="st0">
        <path class="st1" d="M318.1,385.5v4.2c0,1.6,0,2.6.1,3.1,0,.5.3.8.6,1.1s.9.4,1.8.4h.7v.7h-9.1v-.7h.5c.9,0,1.4-.1,1.8-.3s.5-.5.6-1c0-.5.1-1.5.1-3.2v-9.7c0-1.6,0-2.6-.1-3.1s-.3-.8-.6-1-1-.3-2-.3h-.4v-.7h2.5c2-.2,3.5-.2,4.7-.2,2,0,3.6.2,4.7.5s2,.9,2.7,1.7,1.1,1.9,1.1,3.1-.2,2-.7,2.9-1.2,1.5-2.1,1.9-2.5.6-4.8.6h-2.2,0ZM318.1,384.8h1.4c1.1,0,2.1-.1,2.8-.3s1.3-.7,1.8-1.4.7-1.6.7-2.7c0-1.6-.4-2.8-1.2-3.6s-2.1-1.1-3.9-1.1-1.2,0-1.5,0v9.2h0Z"/>
      </g>
    </g>
    <g class="st0">
      <g class="st0">
        <path class="st1" d="M347.3,387.5h-7.5l-.5,1.3c-.8,1.8-1.1,3-1.1,3.6s.2,1,.6,1.4c.4.3.9.5,1.6.5v.7h-5.9v-.7c.9-.1,1.5-.5,2-.9.4-.5,1-1.5,1.5-3,0-.1.3-.7.7-1.7l5.8-13.8h.6l6.6,15.8.9,2.1c.2.5.5.8.8,1.1.4.3.9.4,1.6.5v.7h-7.8v-.7c1,0,1.6,0,1.9-.2.3-.1.5-.4.5-.8s-.2-.9-.7-1.9l-1.5-3.7h0v-.3ZM347,386.9l-3.5-8.5-3.5,8.5h7Z"/>
        <path class="st1" d="M365.4,394.6v-6.4h.7c.8,4.2,2.8,6.2,5.9,6.2s2.5-.4,3.2-1.2,1.1-1.7,1.1-2.7-.3-1.8-1-2.5-1.9-1.4-3.7-2.1c-1.6-.7-2.8-1.3-3.6-1.8s-1.4-1.2-1.9-2-.7-1.7-.7-2.6c0-1.4.5-2.6,1.5-3.5s2.2-1.4,3.7-1.4,1.6.1,2.4.4,1.5.8,2.3,1.7c.5-.5.7-1.1.8-1.7h.6v5.2h-.6c-.4-1.5-1-2.7-2-3.6s-2-1.3-3.3-1.3-2,.3-2.6,1c-.5.6-.8,1.3-.8,2.1s.4,1.7,1,2.3c.7.6,1.9,1.4,3.7,2.2,1.7.8,3,1.4,3.7,1.8s1.4,1.1,1.9,1.9.7,1.8.7,2.8c0,1.7-.6,3.1-1.7,4.1s-2.6,1.6-4.5,1.6-4-.8-5.5-2.5c-.3.5-.6,1.1-.7,1.9h-.7.1Z"/>
      </g>
    </g>
    <g class="st0">
      <g class="st0">
        <path class="st1" d="M390.3,379.8h-.7v-4.8h19.4v4.8c.1,0-.5,0-.5,0-.2-1.3-.5-2.2-.9-2.8s-.8-.9-1.3-1.1-1.2-.2-2.3-.2h-3.2v14c0,1.5,0,2.6.1,3.1s.3.9.6,1.1.9.4,1.8.4h1v.7h-9.9v-.7h1c.9,0,1.4-.1,1.8-.3s.5-.5.6-1,.1-1.5.1-3.2v-14h-2.9c-1.3,0-2.1,0-2.6.2s-.9.5-1.2,1.1-.7,1.5-.9,2.8h0Z"/>
      </g>
    </g>
    <g class="st0">
      <g class="st0">
        <path class="st1" d="M429.3,387.5h-7.5l-.5,1.3c-.8,1.8-1.1,3-1.1,3.6s.2,1,.6,1.4c.4.3.9.5,1.6.5v.7h-5.9v-.7c.9-.1,1.5-.5,2-.9.4-.5,1-1.5,1.5-3,0-.1.3-.7.7-1.7l5.8-13.8h.6l6.6,15.8.9,2.1c.2.5.5.8.8,1.1.4.3.9.4,1.6.5v.7h-7.8v-.7c1,0,1.6,0,1.9-.2.3-.1.5-.4.5-.8s-.2-.9-.7-1.9l-1.5-3.7h0v-.3ZM429,386.9l-3.5-8.5-3.5,8.5h7Z"/>
      </g>
    </g>
    <g class="st0">
      <g class="st0">
        <path class="st1" d="M212.4,418.9h6.3v.7c-.8.2-1.5.6-2.1,1.1s-1.2,1.6-1.8,3.1c-.5,1.3-1,2.2-1.4,2.8,1,1.5,1.9,2.5,2.5,2.8.6.4,1.2.6,1.9.6s1.6-.4,2.1-1.3h.7c-.2.8-.6,1.5-1.3,2s-1.4.7-2.3.7c-1.9,0-3.6-1-5-2.9-1.7,1.9-3.5,2.9-5.4,2.9s-1.4-.1-2.1-.4-1.3-.6-1.8-1.1-.9-1.1-1.3-1.7-.5-1.4-.4-2.2c0-1.2.3-2.2,1-3.1.7-.8,1.9-1.9,3.9-3.2-1.1-1.6-1.7-3-1.7-4.3s.4-1.9,1.2-2.7c.8-.8,1.8-1.2,2.9-1.2s2,.3,2.9.9,1.3,1.4,1.3,2.3c0,1.5-1.4,3-4.2,4.4.9,1.2,1.7,2.3,2.5,3.5s1.6,2.2,2.4,3.4c.6-.8,1-1.6,1.3-2.4s.5-1.5.5-2c0-1.1-.8-1.8-2.3-2v-.7h-.3ZM206.1,420.2c-1,.6-1.8,1.4-2.4,2.2-.6.8-.8,1.6-.8,2.4,0,1.2.5,2.4,1.4,3.4s2.1,1.6,3.3,1.6,2.6-.7,3.8-2c-1-1.6-2-3-2.9-4.3s-1.7-2.4-2.4-3.4h0ZM207.6,418.5c1.9-1.1,2.9-2.4,2.9-3.7s0-.8-.2-1.1-.3-.6-.5-.8-.5-.4-.8-.5-.6-.2-1-.2c-.7,0-1.3.2-1.7.7s-.6,1-.6,1.7.6,2.3,1.8,3.9h.1Z"/>
        <path class="st1" d="M259.9,427.4l7.2-16.4h6.1v.7h-.7c-1,0-1.6,0-1.9.2s-.5.5-.6.9-.1,1.5-.1,3.1v9.7c0,1.6,0,2.6.1,3.1,0,.5.3.8.6,1.1s.9.4,1.8.4h.9v.7h-9.5v-.7h.7c.8,0,1.4-.1,1.8-.3s.5-.5.6-1,.1-1.5.1-3.2v-12.6l-7.9,17.8h-.7l-7.9-17.8v11.6c0,1.6,0,2.7.1,3.2s.4,1.1.9,1.5,1.2.7,2.1.7v.7h-7.1v-.7c.9,0,1.5-.3,2.1-.7s.9-.9,1-1.5.2-1.7.2-3.4v-8.6c0-1.6,0-2.6-.1-3.1s-.3-.8-.6-1-.9-.3-2-.3h-.5v-.7h6.1l7.3,16.4h0v.2Z"/>
        <path class="st1" d="M284.3,420.8c0-3.1,1-5.5,3.1-7.4s4.6-2.8,7.7-2.8,5.7.9,7.8,2.8,3.1,4.3,3.1,7.5-1,5.6-3,7.5-4.6,2.9-7.8,2.9-5.7-1-7.8-2.9-3-4.4-3-7.6h-.1ZM287.6,420.9c0,3.2.6,5.6,1.9,7.2s3.2,2.4,5.7,2.4,4-.8,5.3-2.4,2-4,2-7.2-.6-5.5-1.9-7.1-3.1-2.5-5.6-2.5-4.2.8-5.5,2.4-1.9,4-1.9,7.1h0Z"/>
        <path class="st1" d="M338.2,430.9h-5.4c-1-.7-2.4-2.4-4.4-5.2-.6-.9-1.3-1.8-2-2.6-.7-.8-1.1-1.3-1.4-1.5s-.6-.3-1.2-.3h-.8v4.4c0,1.6,0,2.6.1,3.1,0,.5.3.8.6,1.1s.9.4,1.8.4h1v.7h-9.5v-.7h.6c.9,0,1.4-.1,1.8-.3s.5-.5.6-1,.1-1.5.1-3.2v-9.7c0-1.6,0-2.6-.1-3.1s-.3-.8-.6-1-1-.3-2-.3h-.3v-.7h2.8c1.9-.2,3.4-.3,4.5-.3,1.9,0,3.4.2,4.6.5s2.1.9,2.9,1.7,1.1,1.8,1.1,2.9-.5,2.4-1.4,3.3-2.4,1.5-4.2,1.7c.8.4,2.2,1.9,4,4.3,1.5,2,2.7,3.3,3.5,4s1.9,1,3,1v.7h.3ZM323.2,420.6h2.3c.8,0,1.5-.1,2-.3s1-.4,1.4-.8.6-.8.8-1.3.3-1.2.3-2c0-1.4-.4-2.5-1-3.4s-2.2-1.3-4.6-1.3-.8,0-1.2,0v9.1h0Z"/>
        <path class="st1" d="M364.4,424.7h.7l-.4,6.2h-16.5v-.7h.4c1,0,1.6-.1,1.9-.4s.5-.6.5-1,.1-1.4.1-3.1v-9.7c0-1.5,0-2.5-.1-3s-.3-.8-.6-1c-.3-.2-.9-.3-1.9-.3v-.7h14.2l.5,5h-.7c-.3-1.4-.7-2.4-1.1-3s-1-1-1.6-1.1-1.6-.2-3-.2h-2.8v8.3h2.1c1,0,1.6,0,2-.2s.6-.4.8-.8c.1-.3.2-1,.2-2h.7v6.8h-.7c0-1.1,0-1.8-.3-2.2s-.5-.6-.8-.7-1-.2-1.8-.2h-2.2v4.7c0,2.4.1,3.7.5,4.1.3.4,1.1.6,2.5.6h1.5c1,0,1.9-.1,2.6-.4s1.3-.8,1.9-1.7c.6-.8,1.1-2,1.4-3.5h0v.2Z"/>
      </g>
    </g>
  </g>
  <path class="st1" d="M283,566.1c-75.6,0-146.7-29.4-200.1-82.9C29.4,429.7,0,358.7,0,283S29.4,136.4,82.9,82.9C136.4,29.4,207.4,0,283,0s146.7,29.4,200.1,82.9c53.5,53.5,82.9,124.5,82.9,200.1s-29.4,146.7-82.9,200.1-124.5,82.9-200.1,82.9h0ZM283,10c-72.9,0-141.5,28.4-193.1,80C38.4,141.5,10,210.1,10,283s28.4,141.5,80,193.1c51.6,51.6,120.1,80,193.1,80s141.5-28.4,193.1-80c51.6-51.6,80-120.1,80-193.1s-28.4-141.5-80-193.1S356,10,283,10Z"/>
  <path class="st1" d="M283,506.2c-48.5,0-96.7-16.5-135.7-46.5-38.6-29.6-66.8-71.3-79.4-117.3l4.8-1.3c12.4,45,40,85.7,77.7,114.6,38.1,29.3,85.2,45.4,132.7,45.4s93.4-15.2,131.5-44.1c36.9-27.9,64.4-67.5,77.6-111.6l4.8,1.4c-13.5,45.1-41.6,85.6-79.4,114.1-39,29.5-85.5,45.1-134.5,45.1h0v.2Z"/>
  <path class="st1" d="M501,274.9c-2.1-56.5-25.7-109.4-66.5-148.7-40.9-39.5-94.7-61.2-151.5-61.2s-99.8,17.7-138.8,49.8c-38.4,31.7-65,75.9-74.9,124.4l-4.9-1c10.2-49.6,37.4-94.8,76.7-127.2,39.8-32.9,90.2-51,142-51s113.2,22.2,155,62.6c41.7,40.3,65.9,94.3,68,152.2l-5,.2h0Z"/>
  <g class="st0">
    <g class="st0">
      <g class="st0">
        <path class="st1" d="M164,218.2c-5.3-2.6-9.5-6.5-12.7-11.8s-4.8-11.9-4.8-19.8,2.5-19.7,7.5-28.9,11.9-16.7,20.5-22.4,18.1-8.6,28.3-8.6,10.8.8,15.6,2.5c4.9,1.7,8.2,4,10.1,6.8-.9,2.2-1.6,5.1-2.3,8.5-.6,3.4-1,6.6-1.1,9.7l-3.2.5c0-1.3,0-2.9-.2-4.8s-.3-3.6-.6-5.2c-.6-4.1-2.3-7.2-5.1-9.4s-7.1-3.2-12.8-3.2c-9.3,0-17.7,2.7-25.2,8.1s-13.4,12.3-17.6,20.7c-4.2,8.4-6.4,16.9-6.4,25.5s1.3,12.1,3.8,16.4c2.6,4.4,6,7.6,10.3,9.8,4.3,2.1,9.1,3.2,14.4,3.2,9.1,0,17.6-3,25.5-8.9s13.9-14.4,17.9-25.4c2.3,0,3.5,1.6,3.5,4.8s-2.2,9.6-6.8,15.3-10.5,10.5-17.9,14.5-15.2,6-23.5,6-12.1-1.3-17.4-3.8h.2Z"/>
        <path class="st1" d="M301.8,191.4c0,3.5-2.2,7.5-6.7,12.1s-9.7,8.6-15.8,12c-6.1,3.3-11.1,5-15.2,5s-7.3-1-10.1-3.1-5.1-4.3-6.6-6.8-2.3-4.4-2.3-5.6c1.4-4.9,2.9-11.8,4.6-20.5l1.4-7.3c.4-1.7,1.6-3.5,3.8-5.4,2.2-1.9,4.6-3.4,7.3-4.7s4.9-1.9,6.5-1.9,2.9.4,4.8,1.2,3.5,2.1,4.9,3.8,2.1,3.9,2.1,6.6-1,6.1-3.1,8.8c-2.1,2.8-5.2,5-9.2,6.8s-9,2.6-14.7,2.6l-1.8,8.7c0,.8.4,2.1,1.4,3.9s2.4,3.5,4.4,4.9c2,1.5,4.6,2.2,7.7,2.2s8.5-1.4,13.1-4.1,8.8-6.1,12.6-10.2c3.8-4.1,6.7-8,8.6-11.8,1.6.3,2.3,1.1,2.3,2.6h0v.2ZM263.5,171.9c-1.6.9-3.1,1.9-4.5,3.2-1.3,1.3-2.1,2.5-2.4,3.6-.9,3.9-1.6,7.8-2.3,11.8,6.7-.3,11.7-1.6,15.1-4s5.1-5.1,5.1-8.1-.8-4-2.3-5.6-3.1-2.3-4.5-2.3-2.4.4-4,1.3h-.2Z"/>
        <path class="st1" d="M353.6,174.2c.3.4.4.9.4,1.4,0,1.8-.8,3.6-2.5,5.3s-3.9,3.1-6.6,4.1-5.5,1.6-8.2,1.6c-4.3,0-8-1.1-11.1-3.4-3.1-2.2-5-5.4-5.9-9.5-3.9.4-7.5,2.9-10.7,7.4s-5.5,9.4-6.8,14.7c-.2.9-.8,3.5-2,8-1.1,4.5-2.2,9.7-3.2,15.8,0,.3-.2.5-.3.6-.1.1-.4.2-.9.2s-1.5-.3-2.7-.8-1.8-1.1-1.8-1.7c0-1.2.2-2.8.6-4.8,5.3-24.4,8.7-39.6,10.3-45.4.2-.8.4-1.3.6-1.6s.6-.4,1.1-.4,1.1.3,2.2.8c1.1.6,2,1.1,2.7,1.8l-2.3,7.5-.8,2.6c2-3.1,4.3-5.6,6.9-7.5s5.4-2.9,8.3-2.9,1.7,0,2.6.3,1.5.4,1.8.6c0,4.2,1.1,7.4,3.3,9.4,2.2,2,5.3,3.1,9.3,3.1s6.5-.6,8.8-1.8,4.4-3.3,6.1-6.2c.4,0,.6.4.9.8h0Z"/>
        <path class="st1" d="M399,191.4c0,3.5-2.2,7.5-6.7,12.1s-9.7,8.6-15.8,12c-6.1,3.3-11.1,5-15.2,5s-7.3-1-10.1-3.1c-2.9-2-5-4.3-6.6-6.8-1.5-2.5-2.3-4.4-2.3-5.6,1.4-4.9,2.9-11.8,4.5-20.5l1.4-7.3c.3-1.7,1.6-3.5,3.8-5.4,2.2-1.9,4.6-3.4,7.3-4.7,2.7-1.3,4.9-1.9,6.5-1.9s2.9.4,4.8,1.2,3.5,2.1,4.9,3.8,2.1,3.9,2.1,6.6-1,6.1-3.1,8.8c-2.1,2.8-5.2,5-9.2,6.8s-9,2.6-14.7,2.6l-1.8,8.7c0,.8.5,2.1,1.4,3.9s2.4,3.5,4.4,4.9,4.6,2.2,7.7,2.2,8.5-1.4,13.1-4.1,8.8-6.1,12.6-10.2c3.8-4.1,6.7-8,8.6-11.8,1.6.3,2.3,1.1,2.3,2.6h0v.2ZM360.8,171.9c-1.6.9-3.1,1.9-4.5,3.2-1.3,1.3-2.1,2.5-2.4,3.6-.9,3.9-1.6,7.8-2.3,11.8,6.7-.3,11.7-1.6,15.1-4s5.1-5.1,5.1-8.1-.8-4-2.3-5.6-3.1-2.3-4.5-2.3-2.4.4-4,1.3h-.2Z"/>
        <path class="st1" d="M387.8,218.6c-2.9-2-4.4-4.3-4.4-6.9s.4-2.5,1.2-3.4c.8-.9,1.6-1.4,2.6-1.6,1,3.3,2.5,5.8,4.7,7.4,2.2,1.6,4.8,2.5,7.9,2.5s7-1.1,9.4-3.3,3.5-4.8,3.5-7.7-.6-4.1-1.9-5.7-3.1-3.6-5.6-5.7c-2.8-2.4-4.8-4.5-6.2-6.3-1.3-1.8-2-3.9-2-6.4s.8-5.2,2.5-7.7c1.7-2.4,3.9-4.4,6.5-5.9s5.4-2.2,8.2-2.2,4.8.5,7,1.6c2.1,1.1,3.2,2.5,3.2,4.4s-1,3.6-3.1,5.5c-1.1-2-2.5-3.5-4.2-4.6-1.6-1.1-3.4-1.6-5.2-1.6-2.8,0-4.9,1-6.3,3.1-1.4,2-2.1,4.1-2.1,6s.6,3.1,1.7,4.4c1.1,1.3,2.9,2.9,5.3,4.9,3,2.5,5.2,4.8,6.8,6.8,1.6,2,2.3,4.3,2.3,7s-.9,5.7-2.8,8.6c-1.9,2.9-4.4,5.2-7.7,7.1s-6.8,2.8-10.7,2.8-7.7-1-10.6-3h0Z"/>
      </g>
    </g>
    <g class="st0">
      <g class="st0">
        <path class="st1" d="M40,340.7c-3.9-.7-7-1.6-9.2-2.7-1-2.6-1.7-5-2.2-7.1l1.2-1.3c3.1,3,6.2,5.2,9.3,6.5s6.9,2,11.5,2,9.5-.9,13.4-2.7,7.4-5.2,10.7-10.2c3.2-5,5.9-12,8.2-21.1l1.7-7c2.9-13.7,5.7-24.9,8.3-33.7,1.4-1.6,2.8-2.9,4.3-3.8s3.4-1.8,5.7-2.9l1.2.4c-2.1,2.8-4.1,7.5-6,14.2s-3.9,14.9-6.1,24.6l-1.9,8.3c-6.2,25-19.1,37.6-38.6,37.6s-7.4-.4-11.3-1.1h-.2ZM44.2,290.2c-3.2-5.2-4.8-10.5-4.8-15.9s1.6-10,4.8-14.2c3.2-4.3,8.1-7.7,14.6-10.3s14.6-3.8,24.1-3.8,8.9.3,12.6.8,8.7,1.3,14.8,2.5c7.4,1.6,13,2.3,16.8,2.3s7.3-.6,10.6-1.9c3.2-1.2,5.8-3.3,7.6-6-.9,4.2-3.1,7.5-6.4,10.1-3.3,2.6-7.9,3.9-13.9,3.9s-6.1-.3-10-.8-9.1-1.3-15.5-2.3c-6.2-1-11.3-1.8-15.3-2.3-3.9-.5-7.3-.8-9.9-.8-4.9,0-9.5.9-13.8,2.8-4.2,1.9-7.7,4.6-10.3,8.1s-3.9,7.6-3.9,12.3,1.5,9.3,4.4,13.3c3,4,7.4,8.2,13.4,12.4l-.5.6c-1.8,0-3.2,0-4.3.2s-2.2.4-3.5.8c-4.6-2.7-8.5-6.6-11.7-11.8h0Z"/>
        <path class="st1" d="M183.4,294.2c.3.4.4.9.4,1.4,0,1.8-.9,3.6-2.5,5.3-1.7,1.7-3.9,3-6.6,4.1s-5.5,1.6-8.2,1.6c-4.3,0-8-1.1-11.1-3.4-3.1-2.2-5.1-5.4-5.9-9.5-3.9.4-7.5,2.9-10.7,7.4s-5.5,9.4-6.8,14.7c-.2.9-.8,3.5-1.9,8-1.1,4.5-2.2,9.7-3.2,15.8,0,.3-.2.5-.3.6,0,.1-.4.2-.8.2s-1.5-.3-2.7-.8-1.8-1.1-1.8-1.7c0-1.2.2-2.8.7-4.8,5.3-24.4,8.7-39.6,10.3-45.4.2-.8.4-1.3.6-1.6.2-.3.6-.4,1.1-.4s1.1.3,2.2.8c1.1.6,2,1.1,2.7,1.8l-2.3,7.5-.8,2.6c2-3.1,4.3-5.6,6.9-7.5s5.4-2.9,8.3-2.9,1.7,0,2.6.3c.9.2,1.5.4,1.8.6,0,4.2,1.1,7.4,3.3,9.4s5.3,3.1,9.3,3.1,6.5-.6,8.8-1.8c2.3-1.2,4.4-3.3,6.1-6.2.4,0,.6.4.9.8h-.4Z"/>
        <path class="st1" d="M246.8,313.2c0,4-1.8,8.2-5.3,12.6s-7.8,8.1-12.7,11.1c-5,3-9.6,4.5-13.7,4.5s-6-1-7.8-3.1-2.9-4.8-3.2-8.1c-2.2,3.1-4.9,5.7-8.2,7.7s-6.2,3-8.8,3-4.5-.8-6.7-2.3-4-3.4-5.4-5.6-2.1-4.3-2.2-6.3l6.4-26.3c.5-2.1,1.8-4.3,4-6.7,2.1-2.4,4.7-4.4,7.7-5.9,3-1.6,6.1-2.3,9.2-2.3s7.5,1.3,10.5,4c.8-2.1,1.4-3.4,1.8-3.9s1-.8,1.8-.9l6.4-.6.4.3c-1.7,1.4-3,3.5-3.8,6.5-2.7,10-4.5,17.5-5.5,22.2-1,4.8-1.5,9-1.5,12.6s.5,6.3,1.4,8,2.6,2.5,4.8,2.5,6.1-1.1,9.9-3.4c3.9-2.2,7.5-5.4,11-9.4s6.1-8.6,7.9-13.6c1.1,0,1.7,1.1,1.7,3.4h0ZM192.9,333.2c2.1-1,4.1-2.5,6-4.5s3.1-4.2,3.8-6.7l2.5-10.7c.4-1.7.9-4.5,1.8-8.4.9-3.9,1.6-6.8,2.1-8.9-2.4-2.4-5.4-3.6-8.8-3.6s-5.1.7-7.3,2.1-3.9,3.2-5.3,5.2c-1.4,2-2.2,3.8-2.6,5.4l-5.2,23.1c.2,2.2,1,4.1,2.6,5.9,1.6,1.7,3.2,2.6,5.1,2.6s3.3-.5,5.4-1.6h-.1Z"/>
        <path class="st1" d="M328.2,318.5c-.7,3.2-2.7,6.6-6.1,10.1s-7.5,6.5-12.3,8.9-9.5,3.6-14.1,3.6-8.5-1.5-10.9-4.4c-2.4-3-3.6-7.1-3.6-12.5s0-2.4.1-3.1c-3.5,5.7-7.9,10.5-13.1,14.3s-9.9,5.7-14.2,5.7-6.4-1.4-8.2-4.2c-1.9-2.8-2.8-6.7-2.8-11.6s1.7-15.4,5.1-32h-12.6c-.8.1-1.3-.2-1.7-.9,1.2-2.4,2.2-4.1,3.1-4.9h12.4c0,.1,6-27.7,6-27.7.8-3.7,1.5-6.2,2.1-7.4s1.8-1.8,3.6-1.8,2.1.4,2.6,1c0,.4-.4,1.3-1,2.9s-1.1,3.5-1.6,5.8c-1.6,7.5-3.5,16.6-5.6,27.3l32.2.3,6.6-30.3c.4-1.9,1.1-3.3,2-4.2s2.2-1.3,4-1.3,1.7.3,1.7.8c-.2.6-.5,1.5-1,2.7-.5,1.2-.9,2.7-1.2,4.5l-5.9,27.7h23c0,1.3-.3,2.2-.9,3s-1.5,1.2-2.6,1.2l-20.4.3c-3.5,17-5.2,27.4-5.2,31.2s.8,7.5,2.5,9.4c1.7,2,4.2,2.9,7.5,2.9,5.3,0,10.6-1.9,15.9-5.6,5.3-3.8,10-8.6,14-14.5.6,1,.8,2,.6,2.9h0ZM286.6,292.4l-32.5.8c-3.2,17.2-4.8,27.4-4.8,30.7s.6,6.5,1.7,8.7c1.1,2.2,2.7,3.2,4.7,3.2,3,0,6.5-1.6,10.6-4.8s7.9-7.5,11.4-12.9,5.9-11.2,7.1-17.4l1.8-8.3h0Z"/>
        <path class="st1" d="M393.6,296.6c0,2.2-.9,4.4-2.6,6.7-1.7,2.3-4.1,4.2-7.1,5.6-3,1.5-6.3,2.2-9.8,2.2s-9-1.3-12.6-3.9c-.5,2.5-1.2,5.1-2,7.7-.3,1-.8,3.1-1.7,6.6-.9,3.4-1.5,6.5-1.8,9.2-.6,1.4-1.8,2.9-3.6,4.5-1.8,1.6-4,3-6.5,4.1s-5,1.7-7.4,1.7-5.3-.7-7.8-2.1-4.6-3.2-6.2-5.6-2.4-4.9-2.4-7.8c1.2-3.6,2.2-7.1,3-10.3s1.5-6.5,2.2-9.8l1.3-6.5c.4-2,1.6-4,3.5-5.9,1.9-2,4.2-3.5,7-4.8,2.7-1.3,5.5-1.9,8.2-1.9s2.5.2,4.4.5c.3-2,.7-3.4,1.4-4.2.6-.8,1.7-1.2,3.2-1.2s1.9.1,3,.4c-.4,2.4-.6,4.5-.6,6.2,0,5,1.5,9.3,4.5,12.7,3,3.5,7.1,5.2,12.4,5.2s7.3-1,10.1-3.1c2.8-2.1,5-5.1,6.7-9,.9.3,1.3,1.1,1.3,2.6h0v.2ZM353.3,316.6c1.7-5.8,2.9-10.5,3.4-14-1.9-2.4-3.2-5.4-3.9-8.8,0-.3,0-.6-.2-.8s-.4-.4-.8-.5c-1.3-.5-2.8-.8-4.4-.8-3.2,0-6,.9-8.3,2.6s-3.8,3.8-4.4,6.2c-.3,1-1.2,5.1-2.9,12.2-.8,4.2-1.7,8.3-2.9,12.4,0,3.2,1.1,5.7,3.2,7.5s4.5,2.7,6.9,2.7,4.3-.7,6.7-2.2c2.4-1.5,3.9-3,4.6-4.5.7-3.5,1.7-7.4,3-11.8h0v-.2Z"/>
        <path class="st1" d="M442.9,294.2c.3.4.4.9.4,1.4,0,1.8-.8,3.6-2.5,5.3s-3.9,3-6.6,4.1-5.5,1.6-8.2,1.6c-4.3,0-8-1.1-11.1-3.4-3.1-2.2-5-5.4-5.9-9.5-3.9.4-7.5,2.9-10.7,7.4s-5.5,9.4-6.8,14.7c-.2.9-.8,3.5-2,8-1.1,4.5-2.2,9.7-3.2,15.8,0,.3-.2.5-.3.6s-.4.2-.8.2c-.6,0-1.5-.3-2.7-.8s-1.8-1.1-1.8-1.7c0-1.2.2-2.8.6-4.8,5.3-24.4,8.7-39.6,10.3-45.4.2-.8.4-1.3.6-1.6s.6-.4,1.1-.4,1.1.3,2.2.8c1.1.6,2,1.1,2.7,1.8l-2.3,7.5-.8,2.6c2-3.1,4.3-5.6,6.9-7.5s5.4-2.9,8.3-2.9,1.7,0,2.6.3,1.5.4,1.8.6c0,4.2,1.1,7.4,3.3,9.4,2.2,2,5.3,3.1,9.3,3.1s6.5-.6,8.8-1.8c2.3-1.2,4.4-3.3,6.1-6.2.3,0,.6.4.9.8h-.2Z"/>
        <path class="st1" d="M435.8,337.7c-2.4-2-3.6-5-3.6-9,1.3-4.2,3.5-13.4,6.8-27.7,1.6-7,2.5-11.2,2.9-12.6,1.1-1.9,2.7-2.9,4.7-2.9s2,.4,2,1.3c-.6,2.2-1.5,5.6-2.5,10.3s-1.9,8.4-2.5,11.1c-2.3,10.8-4,17.6-4.8,20.7,0,2,.6,3.5,1.8,4.6,1.2,1.1,2.7,1.6,4.6,1.6,4.3,0,8.7-1.5,13.1-4.6s8.2-6.6,11.6-10.7,5.8-7.6,7.5-10.5c.5.2.9.5,1,.8.2.4.3,1.1.3,2s-.4,2.6-1.3,4c-4.7,7.4-9.9,13.3-15.7,17.8s-11.6,6.8-17.4,6.8-5.7-1-8.1-3h-.4ZM447,268c-.7-.8-1-1.9-1-3.2s.6-3.3,1.7-4.8c1.1-1.4,2.5-2.1,4.3-2.1s2.4.4,3,1.3,1,1.9,1,3.1c0,1.7-.6,3.3-1.8,4.8s-2.6,2.1-4.4,2.1-2.2-.4-2.9-1.2h0Z"/>
        <path class="st1" d="M545.3,313.2c0,4-1.8,8.2-5.3,12.6s-7.8,8.1-12.7,11.1c-5,3-9.6,4.5-13.7,4.5s-6-1-7.8-3.1-2.9-4.8-3.2-8.1c-2.2,3.1-4.9,5.7-8.2,7.7-3.3,2-6.2,3-8.8,3s-4.5-.8-6.7-2.3-4-3.4-5.4-5.6-2.1-4.3-2.2-6.3l6.4-26.3c.5-2.1,1.8-4.3,4-6.7,2.1-2.4,4.7-4.4,7.7-5.9,3-1.6,6.1-2.3,9.2-2.3s7.5,1.3,10.5,4c.8-2.1,1.4-3.4,1.8-3.9s1-.8,1.8-.9l6.4-.6.4.3c-1.7,1.4-3,3.5-3.8,6.5-2.7,10-4.5,17.5-5.5,22.2-1,4.8-1.5,9-1.5,12.6s.5,6.3,1.4,8c1,1.7,2.6,2.5,4.8,2.5s6.1-1.1,9.9-3.4c3.9-2.2,7.5-5.4,11-9.4s6.1-8.6,7.9-13.6c1.1,0,1.7,1.1,1.7,3.4h-.1ZM491.4,333.2c2.1-1,4.1-2.5,6-4.5s3.1-4.2,3.8-6.7l2.5-10.7c.4-1.7,1-4.5,1.8-8.4.9-3.9,1.6-6.8,2.1-8.9-2.4-2.4-5.4-3.6-8.8-3.6s-5.1.7-7.3,2.1c-2.2,1.4-3.9,3.2-5.3,5.2s-2.2,3.8-2.6,5.4l-5.2,23.1c.2,2.2,1,4.1,2.6,5.9s3.2,2.6,5.1,2.6,3.3-.5,5.4-1.6h-.1Z"/>
      </g>
    </g>
  </g>
</svg>