<?xml version="1.0" encoding="UTF-8"?>
<svg id="Layer_1" xmlns="http://www.w3.org/2000/svg" version="1.1" viewBox="0 0 566.1 566.1">
  <!-- Generator: Adobe Illustrator 29.0.1, SVG Export Plug-In . SVG Version: 2.1.0 Build 192)  -->
  <defs>
    <style>
      .st0 {
        isolation: isolate;
      }
    </style>
  </defs>
  <g class="st0">
    <g class="st0">
      <g class="st0">
        <path d="M152.1,265.8c-5.6-2.8-10.1-6.9-13.5-12.6-3.4-5.6-5.1-12.7-5.1-21.1s2.7-21,8-30.8c5.3-9.8,12.7-17.8,21.8-23.8,9.2-6.1,19.3-9.2,30.1-9.2s11.5.9,16.6,2.7c5.2,1.8,8.7,4.3,10.7,7.2-1,2.3-1.7,5.4-2.4,9-.6,3.6-1.1,7-1.2,10.3l-3.4.5c0-1.4,0-3.1-.2-5.1-.2-2-.3-3.8-.6-5.5-.6-4.4-2.4-7.7-5.4-10-3-2.3-7.6-3.4-13.6-3.4-9.9,0-18.8,2.9-26.8,8.6-8,5.7-14.3,13.1-18.7,22-4.5,8.9-6.8,18-6.8,27.1s1.4,12.9,4,17.5c2.8,4.7,6.4,8.1,11,10.4,4.6,2.2,9.7,3.4,15.3,3.4,9.7,0,18.7-3.2,27.1-9.5,8.4-6.3,14.8-15.3,19-27,2.4,0,3.7,1.7,3.7,5.1s-2.3,10.2-7.2,16.3-11.2,11.2-19,15.4c-7.9,4.3-16.2,6.4-25,6.4s-12.9-1.4-18.5-4h.2Z"/>
        <path d="M298.8,237.3c0,3.7-2.3,8-7.1,12.9-4.8,4.9-10.3,9.2-16.8,12.8-6.5,3.5-11.8,5.3-16.2,5.3s-7.8-1.1-10.7-3.3c-3-2.2-5.4-4.6-7-7.2s-2.4-4.7-2.4-6c1.5-5.2,3.1-12.6,4.9-21.8l1.5-7.8c.4-1.8,1.7-3.7,4-5.7,2.3-2,4.9-3.6,7.8-5,2.9-1.4,5.2-2,6.9-2s3.1.4,5.1,1.3,3.7,2.2,5.2,4,2.2,4.2,2.2,7-1.1,6.5-3.3,9.4c-2.2,3-5.5,5.3-9.8,7.2-4.3,1.9-9.6,2.8-15.6,2.8l-1.9,9.3c0,.9.4,2.2,1.5,4.2,1.1,1.9,2.6,3.7,4.7,5.2,2.1,1.6,4.9,2.3,8.2,2.3s9-1.5,13.9-4.4c4.9-2.9,9.4-6.5,13.4-10.9,4-4.4,7.1-8.5,9.2-12.6,1.7.3,2.4,1.2,2.4,2.8h0v.2ZM258,216.5c-1.7,1-3.3,2-4.8,3.4-1.4,1.4-2.2,2.7-2.6,3.8-1,4.2-1.7,8.3-2.4,12.6,7.1-.3,12.5-1.7,16.1-4.3,3.6-2.6,5.4-5.4,5.4-8.6s-.9-4.3-2.4-6c-1.6-1.7-3.3-2.4-4.8-2.4s-2.6.4-4.3,1.4h-.2Z"/>
        <path d="M353.9,219c.3.4.4,1,.4,1.5,0,1.9-.9,3.8-2.7,5.6s-4.2,3.3-7,4.4c-2.9,1.1-5.9,1.7-8.7,1.7-4.6,0-8.5-1.2-11.8-3.6-3.3-2.3-5.3-5.7-6.3-10.1-4.2.4-8,3.1-11.4,7.9-3.4,4.8-5.9,10-7.2,15.6-.2,1-.9,3.7-2.1,8.5-1.2,4.8-2.3,10.3-3.4,16.8,0,.3-.2.5-.3.6-.1.1-.4.2-1,.2s-1.6-.3-2.9-.9c-1.3-.5-1.9-1.2-1.9-1.8,0-1.3.2-3,.6-5.1,5.6-26,9.3-42.1,11-48.3.2-.9.4-1.4.6-1.7.2-.3.6-.4,1.2-.4s1.2.3,2.3.9c1.2.6,2.1,1.2,2.9,1.9l-2.4,8-.9,2.8c2.1-3.3,4.6-6,7.3-8,2.8-2,5.7-3.1,8.8-3.1s1.8,0,2.8.3,1.6.4,1.9.6c0,4.5,1.2,7.9,3.5,10,2.3,2.1,5.6,3.3,9.9,3.3s6.9-.6,9.4-1.9c2.4-1.3,4.7-3.5,6.5-6.6.4,0,.6.4,1,.9h-.1Z"/>
        <path d="M402.2,237.3c0,3.7-2.3,8-7.1,12.9s-10.3,9.2-16.8,12.8c-6.5,3.5-11.8,5.3-16.2,5.3s-7.8-1.1-10.7-3.3c-3.1-2.1-5.3-4.6-7-7.2-1.6-2.7-2.4-4.7-2.4-6,1.5-5.2,3.1-12.6,4.8-21.8l1.5-7.8c.3-1.8,1.7-3.7,4-5.7,2.3-2,4.9-3.6,7.8-5,2.9-1.4,5.2-2,6.9-2s3.1.4,5.1,1.3,3.7,2.2,5.2,4c1.5,1.8,2.2,4.2,2.2,7s-1.1,6.5-3.3,9.4c-2.2,3-5.5,5.3-9.8,7.2s-9.6,2.8-15.6,2.8l-1.9,9.3c0,.9.5,2.2,1.5,4.2s2.6,3.7,4.7,5.2c2.1,1.5,4.9,2.3,8.2,2.3s9-1.5,13.9-4.4c4.9-2.9,9.4-6.5,13.4-10.9,4-4.4,7.1-8.5,9.2-12.6,1.7.3,2.4,1.2,2.4,2.8h0v.2ZM361.5,216.5c-1.7,1-3.3,2-4.8,3.4-1.4,1.4-2.2,2.7-2.6,3.8-1,4.2-1.7,8.3-2.4,12.6,7.1-.3,12.5-1.7,16.1-4.3,3.6-2.6,5.4-5.4,5.4-8.6s-.9-4.3-2.4-6c-1.6-1.7-3.3-2.4-4.8-2.4s-2.6.4-4.3,1.4h-.2Z"/>
        <path d="M390.3,266.2c-3.1-2.1-4.7-4.6-4.7-7.3s.4-2.7,1.3-3.6c.9-1,1.7-1.5,2.8-1.7,1.1,3.5,2.7,6.2,5,7.9,2.3,1.7,5.1,2.7,8.4,2.7s7.4-1.2,10-3.5c2.6-2.3,3.7-5.1,3.7-8.2s-.6-4.4-2-6.1c-1.4-1.7-3.3-3.8-6-6.1-3-2.6-5.1-4.8-6.6-6.7-1.4-1.9-2.1-4.2-2.1-6.8s.9-5.5,2.7-8.2c1.8-2.6,4.2-4.7,6.9-6.3,2.8-1.6,5.7-2.3,8.7-2.3s5.1.5,7.4,1.7c2.2,1.2,3.4,2.7,3.4,4.7s-1.1,3.8-3.3,5.9c-1.2-2.1-2.7-3.7-4.5-4.9-1.7-1.2-3.6-1.7-5.5-1.7-3,0-5.2,1.1-6.7,3.3-1.5,2.1-2.2,4.4-2.2,6.4s.6,3.3,1.8,4.7c1.2,1.4,3.1,3.1,5.6,5.2,3.2,2.7,5.5,5.1,7.2,7.2,1.7,2.1,2.4,4.6,2.4,7.4s-1,6.1-3,9.2c-2,3.1-4.7,5.5-8.2,7.6-3.5,2-7.2,3-11.4,3s-8.2-1.1-11.3-3.2h0Z"/>
      </g>
    </g>
    <g class="st0">
      <g class="st0">
        <path d="M20.1,396.2c-4.2-.7-7.4-1.7-9.8-2.9-1.1-2.8-1.8-5.3-2.3-7.6l1.3-1.4c3.3,3.2,6.6,5.5,9.9,6.9s7.3,2.1,12.2,2.1,10.1-1,14.3-2.9c4.2-1.9,7.9-5.5,11.4-10.9,3.4-5.3,6.3-12.8,8.7-22.5l1.8-7.4c3.1-14.6,6.1-26.5,8.8-35.9,1.5-1.7,3-3.1,4.6-4,1.6-1,3.6-1.9,6.1-3.1l1.3.4c-2.2,3-4.4,8-6.4,15.1-2,7.1-4.2,15.9-6.5,26.2l-2,8.8c-6.6,26.6-20.3,40-41.1,40s-7.9-.4-12-1.2h-.2ZM24.6,342.4c-3.4-5.5-5.1-11.2-5.1-16.9s1.7-10.6,5.1-15.1c3.4-4.6,8.6-8.2,15.5-11,6.9-2.8,15.5-4,25.6-4s9.5.3,13.4.9,9.3,1.4,15.8,2.7c7.9,1.7,13.8,2.4,17.9,2.4s7.8-.6,11.3-2c3.4-1.3,6.2-3.5,8.1-6.4-1,4.5-3.3,8-6.8,10.7-3.5,2.8-8.4,4.2-14.8,4.2s-6.5-.3-10.6-.9c-4.2-.5-9.7-1.4-16.5-2.4-6.6-1.1-12-1.9-16.3-2.4-4.2-.5-7.8-.9-10.5-.9-5.2,0-10.1,1-14.7,3-4.5,2-8.2,4.9-11,8.6-2.8,3.7-4.2,8.1-4.2,13.1s1.6,9.9,4.7,14.2c3.2,4.3,7.9,8.7,14.3,13.2l-.5.6c-1.9,0-3.4,0-4.6.2s-2.3.4-3.7.9c-4.9-2.9-9-7-12.5-12.6h.1Z"/>
        <path d="M172.7,346.7c.3.4.4,1,.4,1.5,0,1.9-1,3.8-2.7,5.6-1.8,1.8-4.2,3.2-7,4.4-2.9,1.2-5.9,1.7-8.7,1.7-4.6,0-8.5-1.2-11.8-3.6-3.3-2.3-5.4-5.7-6.3-10.1-4.2.4-8,3.1-11.4,7.9-3.4,4.8-5.9,10-7.2,15.6-.2,1-.9,3.7-2,8.5-1.2,4.8-2.3,10.3-3.4,16.8,0,.3-.2.5-.3.6-.1.1-.4.2-.9.2s-1.6-.3-2.9-.9c-1.3-.5-1.9-1.2-1.9-1.8,0-1.3.2-3,.7-5.1,5.6-26,9.3-42.1,11-48.3.2-.9.4-1.4.6-1.7.2-.3.6-.4,1.2-.4s1.2.3,2.3.9c1.2.6,2.1,1.2,2.9,1.9l-2.4,8-.9,2.8c2.1-3.3,4.6-6,7.3-8,2.8-2,5.7-3.1,8.8-3.1s1.8,0,2.8.3c1,.2,1.6.4,1.9.6,0,4.5,1.2,7.9,3.5,10,2.3,2.1,5.6,3.3,9.9,3.3s6.9-.6,9.4-1.9c2.4-1.3,4.7-3.5,6.5-6.6.4,0,.6.4,1,.9h-.4Z"/>
        <path d="M240.2,366.9c0,4.3-1.9,8.7-5.6,13.4-3.7,4.7-8.3,8.6-13.5,11.8-5.3,3.2-10.2,4.8-14.6,4.8s-6.4-1.1-8.3-3.3c-1.9-2.2-3.1-5.1-3.4-8.6-2.3,3.3-5.2,6.1-8.7,8.2-3.5,2.1-6.6,3.2-9.4,3.2s-4.8-.9-7.1-2.4c-2.3-1.6-4.3-3.6-5.7-6-1.5-2.3-2.2-4.6-2.3-6.7l6.8-28c.5-2.2,1.9-4.6,4.3-7.1,2.2-2.6,5-4.7,8.2-6.3,3.2-1.7,6.5-2.4,9.8-2.4s8,1.4,11.2,4.3c.9-2.2,1.5-3.6,1.9-4.2s1.1-.9,1.9-1l6.8-.6.4.3c-1.8,1.5-3.2,3.7-4,6.9-2.9,10.6-4.8,18.6-5.9,23.6-1.1,5.1-1.6,9.6-1.6,13.4s.5,6.7,1.5,8.5c1,1.8,2.8,2.7,5.1,2.7s6.5-1.2,10.5-3.6c4.2-2.3,8-5.7,11.7-10s6.5-9.2,8.4-14.5c1.2,0,1.8,1.2,1.8,3.6h-.1ZM182.9,388.2c2.2-1.1,4.4-2.7,6.4-4.8,2-2.1,3.3-4.5,4-7.1l2.7-11.4c.4-1.8,1-4.8,1.9-8.9,1-4.2,1.7-7.2,2.2-9.5-2.6-2.6-5.7-3.8-9.4-3.8s-5.4.7-7.8,2.2-4.2,3.4-5.6,5.5c-1.5,2.1-2.3,4-2.8,5.7l-5.5,24.6c.2,2.3,1.1,4.4,2.8,6.3,1.7,1.8,3.4,2.8,5.4,2.8s3.5-.5,5.7-1.7h-.1Z"/>
        <path d="M326.8,372.6c-.7,3.4-2.9,7-6.5,10.7-3.6,3.7-8,6.9-13.1,9.5-5.1,2.6-10.1,3.8-15,3.8s-9-1.6-11.6-4.7c-2.6-3.2-3.8-7.6-3.8-13.3s0-2.6.1-3.3c-3.7,6.1-8.4,11.2-13.9,15.2-5.5,4-10.5,6.1-15.1,6.1s-6.8-1.5-8.7-4.5c-2-3-3-7.1-3-12.3s1.8-16.4,5.4-34.1h-13.4c-.9.1-1.4-.2-1.8-1,1.3-2.6,2.3-4.4,3.3-5.2h13.2c0,.1,6.4-29.5,6.4-29.5.9-3.9,1.6-6.6,2.2-7.9.6-1.3,1.9-1.9,3.8-1.9s2.2.4,2.8,1.1c0,.4-.4,1.4-1.1,3.1-.6,1.7-1.2,3.7-1.7,6.2-1.7,8-3.7,17.7-6,29.1l34.3.3,7-32.2c.4-2,1.2-3.5,2.1-4.5s2.3-1.4,4.3-1.4,1.8.3,1.8.9c-.2.6-.5,1.6-1.1,2.9-.5,1.3-1,2.9-1.3,4.8l-6.3,29.5h24.5c0,1.4-.3,2.3-1,3.2-.6.9-1.6,1.3-2.8,1.3l-21.7.3c-3.7,18.1-5.5,29.2-5.5,33.2s.9,8,2.7,10c1.8,2.1,4.5,3.1,8,3.1,5.6,0,11.3-2,16.9-6,5.6-4,10.6-9.2,14.9-15.4.6,1.1.9,2.1.6,3.1h0ZM282.6,344.8l-34.6.9c-3.4,18.3-5.1,29.2-5.1,32.7s.6,6.9,1.8,9.3c1.2,2.3,2.9,3.4,5,3.4,3.2,0,6.9-1.7,11.3-5.1,4.4-3.4,8.4-8,12.1-13.7,3.7-5.7,6.3-11.9,7.6-18.5l1.9-8.8h0Z"/>
        <path d="M396.4,349.2c0,2.3-1,4.7-2.8,7.1-1.8,2.4-4.4,4.5-7.6,6-3.2,1.6-6.7,2.3-10.4,2.3s-9.6-1.4-13.4-4.2c-.5,2.7-1.3,5.4-2.1,8.2-.3,1.1-.9,3.3-1.8,7-1,3.6-1.6,6.9-1.9,9.8-.6,1.5-1.9,3.1-3.8,4.8-1.9,1.7-4.3,3.2-6.9,4.4-2.7,1.2-5.3,1.8-7.9,1.8s-5.6-.7-8.3-2.2c-2.7-1.5-4.9-3.4-6.6-6-1.7-2.6-2.6-5.2-2.6-8.3,1.3-3.8,2.3-7.6,3.2-11,.9-3.4,1.6-6.9,2.3-10.4l1.4-6.9c.4-2.1,1.7-4.3,3.7-6.3,2-2.1,4.5-3.7,7.4-5.1,2.9-1.4,5.9-2,8.7-2s2.7.2,4.7.5c.3-2.1.7-3.6,1.5-4.5.6-.9,1.8-1.3,3.4-1.3s2,.1,3.2.4c-.4,2.6-.6,4.8-.6,6.6,0,5.3,1.6,9.9,4.8,13.5,3.2,3.7,7.6,5.5,13.2,5.5s7.8-1.1,10.7-3.3c3-2.2,5.3-5.4,7.1-9.6,1,.3,1.4,1.2,1.4,2.8h0v.2ZM353.6,370.5c1.8-6.2,3.1-11.2,3.6-14.9-2-2.6-3.4-5.7-4.2-9.4,0-.3,0-.6-.2-.9s-.4-.4-.9-.5c-1.4-.5-3-.9-4.7-.9-3.4,0-6.4,1-8.8,2.8-2.4,1.8-4,4-4.7,6.6-.3,1.1-1.3,5.4-3.1,13-.9,4.5-1.8,8.8-3.1,13.2,0,3.4,1.2,6.1,3.4,8,2.2,1.9,4.8,2.9,7.3,2.9s4.6-.7,7.1-2.3c2.6-1.6,4.2-3.2,4.9-4.8.7-3.7,1.8-7.9,3.2-12.6h0v-.2Z"/>
        <path d="M448.9,346.7c.3.4.4,1,.4,1.5,0,1.9-.9,3.8-2.7,5.6s-4.2,3.2-7,4.4c-2.9,1.2-5.9,1.7-8.7,1.7-4.6,0-8.5-1.2-11.8-3.6-3.3-2.3-5.3-5.7-6.3-10.1-4.2.4-8,3.1-11.4,7.9-3.4,4.8-5.9,10-7.2,15.6-.2,1-.9,3.7-2.1,8.5-1.2,4.8-2.3,10.3-3.4,16.8,0,.3-.2.5-.3.6s-.4.2-.9.2c-.6,0-1.6-.3-2.9-.9-1.3-.5-1.9-1.2-1.9-1.8,0-1.3.2-3,.6-5.1,5.6-26,9.3-42.1,11-48.3.2-.9.4-1.4.6-1.7.2-.3.6-.4,1.2-.4s1.2.3,2.3.9c1.2.6,2.1,1.2,2.9,1.9l-2.4,8-.9,2.8c2.1-3.3,4.6-6,7.3-8,2.8-2,5.7-3.1,8.8-3.1s1.8,0,2.8.3c1,.3,1.6.4,1.9.6,0,4.5,1.2,7.9,3.5,10,2.3,2.1,5.6,3.3,9.9,3.3s6.9-.6,9.4-1.9c2.4-1.3,4.7-3.5,6.5-6.6.3,0,.6.4,1,.9h-.2Z"/>
        <path d="M441.4,393c-2.6-2.1-3.8-5.3-3.8-9.6,1.4-4.5,3.7-14.3,7.2-29.5,1.7-7.4,2.7-11.9,3.1-13.4,1.2-2,2.9-3.1,5-3.1s2.1.4,2.1,1.4c-.6,2.3-1.6,6-2.7,11-1.1,5-2,8.9-2.7,11.8-2.4,11.5-4.3,18.7-5.1,22,0,2.1.6,3.7,1.9,4.9,1.3,1.2,2.9,1.7,4.9,1.7,4.6,0,9.3-1.6,13.9-4.9,4.7-3.3,8.7-7,12.3-11.4,3.6-4.4,6.2-8.1,8-11.2.5.2,1,.5,1.1.9.2.4.3,1.2.3,2.1s-.4,2.8-1.4,4.3c-5,7.9-10.5,14.2-16.7,18.9-6.2,4.8-12.3,7.2-18.5,7.2s-6.1-1.1-8.6-3.2h-.4ZM453.3,318.8c-.7-.9-1.1-2-1.1-3.4s.6-3.5,1.8-5.1c1.2-1.5,2.7-2.2,4.6-2.2s2.6.4,3.2,1.4,1.1,2,1.1,3.3c0,1.8-.6,3.5-1.9,5.1-1.3,1.6-2.8,2.2-4.7,2.2s-2.3-.4-3.1-1.3h.1Z"/>
        <path d="M557.9,366.9c0,4.3-1.9,8.7-5.6,13.4-3.7,4.7-8.3,8.6-13.5,11.8-5.3,3.2-10.2,4.8-14.6,4.8s-6.4-1.1-8.3-3.3c-1.9-2.2-3.1-5.1-3.4-8.6-2.3,3.3-5.2,6.1-8.7,8.2-3.5,2.1-6.6,3.2-9.4,3.2s-4.8-.9-7.1-2.4c-2.3-1.6-4.3-3.6-5.7-6-1.5-2.3-2.2-4.6-2.3-6.7l6.8-28c.5-2.2,1.9-4.6,4.3-7.1,2.2-2.6,5-4.7,8.2-6.3,3.2-1.7,6.5-2.4,9.8-2.4s8,1.4,11.2,4.3c.9-2.2,1.5-3.6,1.9-4.2s1.1-.9,1.9-1l6.8-.6.4.3c-1.8,1.5-3.2,3.7-4,6.9-2.9,10.6-4.8,18.6-5.9,23.6-1.1,5.1-1.6,9.6-1.6,13.4s.5,6.7,1.5,8.5c1.1,1.8,2.8,2.7,5.1,2.7s6.5-1.2,10.5-3.6c4.2-2.3,8-5.7,11.7-10,3.7-4.3,6.5-9.2,8.4-14.5,1.2,0,1.8,1.2,1.8,3.6h-.1ZM500.5,388.2c2.2-1.1,4.4-2.7,6.4-4.8,2-2.1,3.3-4.5,4-7.1l2.7-11.4c.4-1.8,1.1-4.8,1.9-8.9,1-4.2,1.7-7.2,2.2-9.5-2.6-2.6-5.7-3.8-9.4-3.8s-5.4.7-7.8,2.2c-2.3,1.5-4.2,3.4-5.6,5.5-1.5,2.1-2.3,4-2.8,5.7l-5.5,24.6c.2,2.3,1.1,4.4,2.8,6.3,1.7,1.9,3.4,2.8,5.4,2.8s3.5-.5,5.7-1.7h-.1Z"/>
      </g>
    </g>
  </g>
</svg>