<?xml version="1.0" encoding="UTF-8"?>
<svg id="Layer_1" data-name="Layer 1" xmlns="http://www.w3.org/2000/svg" viewBox="0 0 566.1 566.1">
  <defs>
    <style>
      .cls-1 {
        isolation: isolate;
      }
    </style>
  </defs>
  <path d="M282.78,506.2c-84.07,0-160.13-46.52-198.48-121.4l4.45-2.28c37.49,73.2,111.84,118.68,194.02,118.68,41.28,0,81.46-11.6,116.19-33.54,33.8-21.35,61.08-51.52,78.89-87.24l4.47,2.23c-18.22,36.54-46.12,67.39-80.7,89.24-35.53,22.45-76.63,34.31-118.86,34.31Z"/>
  <g class="cls-1">
    <g class="cls-1">
      <g class="cls-1">
        <path d="M70.21,160.75l.29-.54,4.54,2.88-6.79,12.53-.51-.28.17-.31c.41-.75.57-1.29.49-1.62-.08-.33-.26-.61-.54-.83-.28-.23-1.05-.68-2.31-1.37l-7.42-4.02c-1.15-.62-1.93-1-2.33-1.14-.4-.13-.73-.13-1,.02-.27.15-.6.59-1,1.32l-.51-.28,5.86-10.82,3.97,1.69-.28.52c-1.19-.33-2.09-.45-2.72-.34-.63.11-1.13.37-1.5.78-.37.41-.85,1.15-1.42,2.21l-1.14,2.1,6.35,3.44.87-1.61c.4-.74.62-1.29.65-1.65.03-.36-.05-.66-.26-.89-.21-.23-.68-.55-1.42-.95l.28-.52,5.18,2.81-.29.53c-.84-.46-1.44-.69-1.81-.71-.36-.01-.66.09-.89.32-.23.23-.52.66-.88,1.31l-.9,1.66,3.58,1.94c1.79.97,2.91,1.43,3.35,1.37.44-.06.94-.6,1.48-1.61l.61-1.13c.43-.8.68-1.51.76-2.13.07-.62-.08-1.34-.46-2.15-.39-.81-1.06-1.65-2.03-2.52Z"/>
      </g>
    </g>
  </g>
  <g class="cls-1">
    <g class="cls-1">
      <g class="cls-1">
        <path d="M83.67,138.42l-3.8,5.32.63,1c.9,1.46,1.55,2.33,1.94,2.61.42.3.84.38,1.26.25.42-.13.79-.42,1.11-.87l.47.34-2.97,4.16-.48-.34c.35-.69.46-1.31.33-1.85-.12-.55-.58-1.42-1.37-2.63-.08-.11-.36-.56-.84-1.35l-6.81-11.01.29-.4,14.47,3.27,1.92.41c.43.09.83.08,1.2-.03.36-.11.74-.39,1.14-.85l.47.34-3.93,5.51-.47-.34c.48-.68.76-1.17.83-1.48.07-.31-.04-.57-.34-.78-.15-.11-.71-.27-1.69-.49l-3.36-.78ZM83.08,138.26l-7.74-1.79,4.21,6.73,3.54-4.95Z"/>
      </g>
    </g>
  </g>
  <g class="cls-1">
    <g class="cls-1">
      <g class="cls-1">
        <path d="M90.52,118.76l-.39.43-3-2.85,11.25-12.35,3.12,2.72-.37.4c-.97-.62-1.76-.98-2.36-1.06-.6-.09-1.07-.03-1.42.18-.35.21-.84.66-1.47,1.36l-1.86,2.05,8.98,8.18c1,.91,1.67,1.48,2.03,1.72s.7.32,1.04.25.77-.39,1.29-.96l.56-.62.43.39-5.78,6.34-.43-.39.6-.66c.5-.54.77-.98.82-1.32.05-.33-.04-.66-.27-.99-.24-.33-.89-.97-1.95-1.94l-8.98-8.18-1.72,1.89c-.75.82-1.21,1.41-1.39,1.76-.18.35-.18.83-.01,1.44.17.61.6,1.34,1.29,2.21Z"/>
      </g>
    </g>
  </g>
  <g class="cls-1">
    <g class="cls-1">
      <g class="cls-1">
        <path d="M126.21,79.35l2.22-1.76c1.85-1.47,3.12-2.44,3.78-2.92,2.08-1.48,3.93-2.32,5.55-2.52,1.62-.2,3.1.04,4.44.73,1.34.68,2.52,1.73,3.53,3.15.73,1.03,1.25,2.08,1.54,3.15.3,1.07.37,2.08.23,3.03-.14.95-.46,1.82-.97,2.62-.5.8-1.05,1.47-1.64,2-.59.53-1.47,1.21-2.63,2.04l-6.21,4.43-.34-.48.58-.41c.6-.43.96-.8,1.08-1.12.12-.32.1-.66-.06-1.02-.16-.37-.66-1.14-1.5-2.31l-4.82-6.76c-.8-1.12-1.34-1.81-1.64-2.1-.3-.28-.6-.41-.89-.38-.3.03-.8.3-1.51.8l-.41.29-.34-.48ZM130.74,76.56l6.68,9.37c.99,1.39,1.65,2.26,1.99,2.62.34.36.69.53,1.07.51.37-.02.98-.33,1.81-.93,1.22-.87,2.1-1.75,2.65-2.65.55-.89.73-2.02.56-3.38-.17-1.36-.8-2.8-1.89-4.32-.85-1.19-1.75-2.13-2.72-2.85-.97-.71-1.95-1.15-2.94-1.33-.99-.17-1.9-.12-2.75.17-.85.29-1.81.82-2.9,1.59-.52.37-1.04.77-1.56,1.19Z"/>
      </g>
    </g>
  </g>
  <g class="cls-1">
    <g class="cls-1">
      <g class="cls-1">
        <path d="M179.21,66.69l-4.1,2.16c-.99-.12-2.81-.87-5.45-2.23-.84-.44-1.69-.83-2.54-1.19-.85-.36-1.41-.56-1.68-.59-.27-.04-.61.06-1.02.27l-.61.32,1.79,3.38c.63,1.2,1.08,1.97,1.33,2.31.25.34.55.54.88.59.34.05.85-.11,1.54-.47l.73-.39.27.52-7.29,3.85-.27-.52.49-.26c.65-.34,1.06-.66,1.22-.96.16-.3.19-.64.07-1.02-.12-.38-.51-1.21-1.18-2.48l-3.94-7.46c-.64-1.21-1.09-1.98-1.34-2.29-.25-.32-.53-.48-.83-.49-.3-.01-.84.19-1.61.59l-.26.14-.27-.52,2.12-1.26c1.42-.83,2.55-1.48,3.4-1.93,1.45-.77,2.7-1.26,3.75-1.47s2.02-.16,2.91.16,1.55.9,2,1.75c.53,1,.61,2.04.25,3.13-.36,1.09-1.21,2.1-2.54,3.02.8-.03,2.41.54,4.83,1.7,1.97.94,3.41,1.48,4.32,1.61.91.13,1.83-.03,2.74-.47l.27.52ZM163.56,64.91c.55-.31,1.12-.64,1.7-.99s1.06-.7,1.43-1.07c.37-.37.62-.75.76-1.16.14-.4.17-.86.11-1.36-.06-.5-.26-1.06-.58-1.67-.57-1.07-1.29-1.79-2.16-2.15-.87-.36-2.21-.07-4.01.88-.28.15-.59.33-.93.55l3.68,6.96Z"/>
      </g>
    </g>
  </g>
  <g class="cls-1">
    <g class="cls-1">
      <g class="cls-1">
        <path d="M185.6,45.84l-.21-.54,7.33-2.87.21.54-.34.13c-.79.31-1.28.58-1.47.8-.19.23-.26.53-.21.92.06.39.35,1.25.87,2.58l3.08,7.86c.49,1.26.85,2.08,1.06,2.44.21.37.48.6.81.68.33.09.86,0,1.58-.29l.47-.19.21.54-7.33,2.87-.21-.54.47-.19c.69-.27,1.13-.54,1.32-.82.2-.28.26-.61.19-1.01-.07-.4-.37-1.26-.9-2.6l-3.08-7.86c-.5-1.28-.86-2.09-1.07-2.43-.22-.34-.47-.54-.77-.58-.3-.05-.86.09-1.67.41l-.34.13Z"/>
      </g>
    </g>
  </g>
  <g class="cls-1">
    <g class="cls-1">
      <g class="cls-1">
        <path d="M227.26,50.23l-15.9-12.48,3.06,11.55c.25.96.47,1.57.64,1.85.17.28.52.48,1.02.62.51.14,1.21.09,2.09-.15l.15.56-6.21,1.65-.15-.56c.78-.27,1.35-.57,1.7-.92.36-.34.54-.66.54-.95,0-.29-.12-.94-.39-1.94l-2.34-8.82c-.34-1.28-.62-2.12-.86-2.52-.23-.4-.5-.63-.79-.69-.29-.05-.88.04-1.77.27l-.15-.56,4.91-1.3,13.31,10.41-2.64-9.95c-.2-.74-.41-1.23-.64-1.49-.23-.25-.6-.41-1.11-.45s-1.09.01-1.75.19l-.15-.56,6.04-1.6.15.56c-.69.24-1.21.53-1.56.85s-.54.64-.57.97c-.03.33.05.85.24,1.56l3.65,13.77-.53.14Z"/>
      </g>
    </g>
  </g>
  <g class="cls-1">
    <g class="cls-1">
      <g class="cls-1">
        <path d="M247.79,37.41l4.63-5.34c1.08-1.23,1.58-2.08,1.53-2.54-.09-.7-.74-.99-1.95-.87l-.07-.58,6.44-.8.07.58c-.53.07-1.04.25-1.55.54s-.96.63-1.36,1.04c-.4.41-1.14,1.25-2.21,2.54l-2.76,3.26,7.2,5.67c1.65,1.31,2.74,2.08,3.27,2.33.53.25,1.2.33,1.98.23l.07.58-8.87,1.1-.07-.58.34-.04c.96-.12,1.54-.27,1.76-.46.21-.19.31-.4.28-.64-.04-.35-.75-1.06-2.12-2.13l-5.43-4.27-1.09,1.22.38,3.11c.17,1.34.31,2.22.43,2.63.12.41.33.7.62.86.3.17.83.2,1.61.11l.33-.04.07.58-7.67.95-.07-.58.53-.07c.73-.09,1.23-.24,1.48-.46.26-.22.4-.53.43-.93.03-.4-.04-1.32-.22-2.74l-1.04-8.38c-.17-1.41-.33-2.3-.47-2.68-.14-.38-.34-.61-.62-.72-.28-.1-.89-.09-1.85.02l-.07-.58,7.56-.94.07.58-.32.04c-.84.1-1.38.24-1.62.41-.24.17-.38.45-.43.84-.04.39.03,1.29.2,2.71l.55,4.43Z"/>
      </g>
    </g>
  </g>
  <g class="cls-1">
    <g class="cls-1">
      <g class="cls-1">
        <path d="M310.83,27.66l-.21,4.29-.59-.05c-.04-.95-.24-1.74-.6-2.39-.36-.64-.76-1.06-1.19-1.25-.43-.19-1.18-.33-2.25-.41l-3.35-.27-.59,7.28,1.61.13c1.04.08,1.74-.03,2.11-.36.37-.32.6-1.01.68-2.07l.63.05-.49,6.05-.63-.05c.06-.73.03-1.32-.08-1.76-.11-.44-.31-.75-.59-.93-.28-.18-.84-.3-1.68-.37l-1.61-.13-.35,4.26c-.11,1.35-.15,2.24-.12,2.66.03.42.18.75.44.97.26.22.78.37,1.56.43l.58.05-.05.58-7.97-.65.05-.58.53.04c.73.06,1.25,0,1.55-.15.3-.16.5-.44.61-.82.11-.39.23-1.3.34-2.73l.69-8.41c.11-1.37.14-2.25.1-2.65-.05-.4-.19-.69-.44-.86-.25-.17-.8-.29-1.67-.37l-.3-.02.05-.58,13.24,1.08Z"/>
      </g>
    </g>
  </g>
  <g class="cls-1">
    <g class="cls-1">
      <g class="cls-1">
        <path d="M337.98,44.23l.6.12-1.42,5.18-13.98-2.81.11-.57.35.07c.84.17,1.4.17,1.69,0,.29-.17.5-.43.64-.76.13-.33.35-1.2.63-2.61l1.66-8.28c.26-1.29.39-2.14.4-2.56s-.09-.74-.31-.95c-.22-.21-.74-.4-1.55-.57l.12-.57,12.06,2.42-.45,4.29-.58-.12c-.03-1.23-.19-2.13-.47-2.7-.29-.57-.68-.97-1.19-1.21-.51-.24-1.35-.47-2.53-.71l-2.34-.47-1.42,7.08,1.79.36c.82.17,1.41.21,1.77.13.36-.07.61-.25.78-.51.16-.26.33-.81.49-1.64l.58.12-1.16,5.78-.58-.12c.19-.94.24-1.58.14-1.93-.09-.35-.28-.61-.57-.76s-.79-.31-1.51-.45l-1.86-.37-.8,4c-.4,2-.51,3.2-.32,3.61.19.4.84.72,1.97.95l1.26.25c.89.18,1.64.21,2.26.1.62-.11,1.26-.47,1.92-1.08.66-.61,1.27-1.5,1.82-2.69Z"/>
      </g>
    </g>
  </g>
  <g class="cls-1">
    <g class="cls-1">
      <g class="cls-1">
        <path d="M366.38,52.62l.58.19-2.04,4.97-13.53-4.49.18-.55.34.11c.81.27,1.37.33,1.68.2.31-.14.55-.36.73-.68.17-.31.49-1.15.94-2.52l2.66-8.01c.41-1.25.65-2.08.71-2.49.06-.42,0-.74-.2-.98-.19-.24-.68-.49-1.47-.75l.18-.55,11.68,3.87-.96,4.2-.57-.19c.12-1.23.07-2.14-.14-2.74s-.56-1.05-1.03-1.34c-.47-.29-1.28-.63-2.42-1.01l-2.27-.75-2.27,6.86,1.73.58c.8.26,1.38.38,1.74.35.36-.03.64-.17.83-.41.19-.24.42-.77.69-1.57l.57.19-1.85,5.59-.57-.19c.3-.91.43-1.54.38-1.9s-.21-.63-.47-.82-.74-.4-1.44-.63l-1.8-.59-1.28,3.87c-.64,1.94-.89,3.12-.76,3.54s.75.82,1.84,1.18l1.22.4c.86.29,1.6.41,2.23.37.63-.04,1.31-.32,2.04-.83.73-.52,1.44-1.34,2.13-2.44Z"/>
      </g>
    </g>
  </g>
  <g class="cls-1">
    <g class="cls-1">
      <g class="cls-1">
        <path d="M394.04,64.92l-2.28,4.53-13.23-6.24.25-.53.46.22c.67.31,1.17.45,1.5.4.34-.05.62-.23.86-.55.24-.32.67-1.13,1.28-2.43l3.6-7.64c.58-1.24.93-2.06,1.02-2.45.1-.39.06-.72-.11-.96-.17-.25-.65-.56-1.44-.93l-.34-.16.25-.53,7.48,3.53-.25.53-.69-.33c-.77-.36-1.3-.53-1.59-.52-.3.02-.57.17-.81.48-.24.31-.67,1.11-1.28,2.4l-3.84,8.15c-.53,1.12-.83,1.84-.91,2.16-.07.31,0,.61.19.9.2.28.74.64,1.64,1.06l1.18.56c.96.45,1.71.7,2.25.75s1.16-.11,1.84-.48,1.49-1.09,2.42-2.16l.54.25Z"/>
      </g>
    </g>
  </g>
  <g class="cls-1">
    <g class="cls-1">
      <g class="cls-1">
        <path d="M433.78,87.55l5.91,4.49-.37.49c-.65-.5-1.15-.77-1.48-.81-.33-.04-.65.06-.96.31-.31.25-.91.96-1.8,2.14l-1.11,1.46c-.14-.15-.28-.27-.4-.37-.52-.39-1.32-.75-2.4-1.08-1.47-.44-2.7-1.03-3.68-1.77-1.96-1.49-3.1-3.38-3.42-5.65-.32-2.28.27-4.41,1.78-6.39,1.49-1.96,3.42-3.21,5.78-3.74s4.61,0,6.74,1.63c1.83,1.39,2.84,3.22,3.01,5.48.58-.3,1.11-.7,1.58-1.2l.49.37-3.48,4.58-.48-.37c.87-1.56,1.19-3.08.94-4.56s-1-2.7-2.24-3.65c-1.29-.98-2.77-1.35-4.46-1.12-1.68.23-3.45,1.57-5.31,4-1.85,2.43-2.7,4.51-2.54,6.22.15,1.71.91,3.09,2.28,4.13.7.53,1.45.87,2.24,1.02.79.15,1.45.1,1.97-.16.52-.25,1.02-.69,1.5-1.32.56-.73.88-1.26.97-1.58.09-.32.06-.6-.07-.84-.14-.24-.48-.56-1.02-.97l-.32-.25.37-.49Z"/>
      </g>
    </g>
  </g>
  <g class="cls-1">
    <g class="cls-1">
      <g class="cls-1">
        <path d="M452.4,101.34c1.88-1.87,4.02-2.75,6.42-2.62,2.39.12,4.53,1.13,6.4,3.01,1.89,1.9,2.91,4.05,3.05,6.45.14,2.4-.76,4.57-2.71,6.51-1.89,1.88-4.03,2.79-6.41,2.74-2.38-.06-4.57-1.08-6.55-3.07-1.93-1.94-2.93-4.11-2.99-6.52-.07-2.41.87-4.57,2.8-6.49ZM454.39,103.47c-1.96,1.95-3.04,3.81-3.25,5.57s.47,3.43,2.03,4.99c1.37,1.37,2.94,1.97,4.72,1.79,1.78-.18,3.64-1.24,5.59-3.18,1.9-1.89,2.96-3.73,3.19-5.52.23-1.79-.4-3.44-1.89-4.93-1.46-1.47-3.08-2.11-4.84-1.91-1.77.2-3.62,1.26-5.55,3.18Z"/>
      </g>
    </g>
  </g>
  <g class="cls-1">
    <g class="cls-1">
      <g class="cls-1">
        <path d="M476.36,127.06c2.13-1.59,4.37-2.16,6.72-1.7,2.35.46,4.33,1.75,5.92,3.88,1.61,2.15,2.31,4.42,2.12,6.81-.2,2.39-1.4,4.41-3.6,6.06-2.13,1.6-4.38,2.2-6.73,1.81-2.35-.39-4.37-1.71-6.05-3.96-1.64-2.19-2.32-4.48-2.05-6.87.27-2.39,1.5-4.4,3.68-6.04ZM478.03,129.44c-2.22,1.66-3.55,3.34-4,5.06-.45,1.72-.01,3.46,1.31,5.23,1.16,1.55,2.63,2.36,4.42,2.43,1.79.07,3.78-.72,5.98-2.37,2.14-1.6,3.45-3.27,3.93-5.02.48-1.74.09-3.46-1.18-5.14-1.24-1.66-2.75-2.52-4.53-2.57-1.78-.05-3.76.74-5.94,2.37Z"/>
      </g>
    </g>
  </g>
  <g class="cls-1">
    <g class="cls-1">
      <g class="cls-1">
        <path d="M503.44,151.26l1.49,2.41c1.24,2.01,2.07,3.38,2.46,4.09,1.23,2.24,1.86,4.17,1.87,5.8,0,1.63-.4,3.07-1.23,4.33-.83,1.25-2.01,2.3-3.53,3.15-1.1.61-2.21,1-3.31,1.17-1.1.17-2.11.13-3.04-.12-.93-.25-1.76-.67-2.49-1.26s-1.34-1.21-1.79-1.86c-.46-.65-1.03-1.6-1.72-2.85l-3.69-6.68.51-.28.34.62c.36.64.68,1.05.98,1.2.3.16.64.18,1.02.06.38-.12,1.21-.53,2.46-1.22l7.27-4.01c1.2-.66,1.96-1.13,2.27-1.39.31-.26.47-.55.48-.84s-.2-.83-.62-1.59l-.25-.44.51-.28ZM505.7,156.08l-10.07,5.56c-1.49.82-2.43,1.38-2.83,1.67-.4.29-.61.63-.63,1-.02.38.22,1.01.71,1.91.72,1.31,1.5,2.29,2.32,2.94.83.65,1.92.96,3.29.95,1.37-.02,2.87-.48,4.51-1.38,1.27-.7,2.32-1.5,3.14-2.38s1.37-1.8,1.66-2.76c.29-.96.34-1.88.15-2.75-.19-.87-.6-1.9-1.25-3.07-.31-.56-.64-1.12-1-1.68Z"/>
      </g>
    </g>
  </g>
  <g class="cls-1">
    <g class="cls-1">
      <g class="cls-1">
        <path d="M68.65,392.98l.52-.27,3.71,6.94-.52.27-.17-.32c-.4-.75-.72-1.2-.97-1.37-.25-.16-.56-.2-.94-.1-.38.1-1.2.49-2.46,1.16l-7.45,3.98c-1.2.64-1.96,1.08-2.3,1.34-.34.25-.53.55-.58.89-.05.34.11.85.48,1.54l.24.45-.51.28-3.71-6.94.52-.28.24.45c.35.65.67,1.06.97,1.22.3.16.64.18,1.02.07.38-.12,1.21-.52,2.48-1.19l7.45-3.98c1.21-.65,1.97-1.1,2.29-1.35.31-.25.48-.53.49-.84.01-.3-.19-.84-.6-1.61l-.17-.33Z"/>
      </g>
    </g>
  </g>
  <g class="cls-1">
    <g class="cls-1">
      <g class="cls-1">
        <path d="M68.8,426.77l7.07-18.94-10.08,6.42c-.83.53-1.36.92-1.57,1.17-.21.25-.31.64-.28,1.16.02.53.28,1.18.77,1.95l-.49.31-3.45-5.42.49-.31c.49.66.95,1.11,1.39,1.34.43.23.79.31,1.07.23.28-.08.86-.4,1.74-.96l7.7-4.9c1.11-.71,1.83-1.24,2.14-1.58.31-.34.45-.66.41-.96-.04-.29-.3-.83-.8-1.61l.49-.31,2.73,4.28-5.89,15.83,8.68-5.53c.64-.41,1.05-.76,1.22-1.06.17-.3.2-.7.1-1.2-.11-.5-.35-1.04-.71-1.61l.49-.31,3.36,5.27-.49.31c-.44-.58-.87-.99-1.28-1.23-.41-.23-.78-.32-1.1-.25-.32.07-.79.3-1.41.7l-12.01,7.65-.29-.46Z"/>
      </g>
    </g>
  </g>
  <g class="cls-1">
    <g class="cls-1">
      <g class="cls-1">
        <path d="M93.27,445.76l6.54-1.11c1.07-.18,1.75-.39,2.05-.65.27-.23.42-.55.46-.97.03-.42-.2-.92-.69-1.5l.44-.38,3.65,4.28-.44.38c-.59-.52-1.22-.81-1.88-.87-.67-.06-1.71.03-3.14.26l-7.4,1.23-1.74,1.48c-1.11.95-1.8,1.59-2.05,1.92-.25.33-.34.66-.28.99.06.33.37.82.93,1.47l-.44.38-4.76-5.59.44-.38.18.21c.48.56.88.89,1.2.98.33.1.66.04,1.01-.15.35-.2,1.07-.76,2.17-1.7l1.61-1.37,2.58-7.83c.52-1.59.79-2.58.81-2.97.02-.4-.2-.89-.67-1.46l.44-.38,4.53,5.32-.44.38c-.84-.99-1.49-1.3-1.94-.91-.18.15-.4.62-.66,1.41l-2.51,7.54Z"/>
      </g>
    </g>
  </g>
  <g class="cls-1">
    <g class="cls-1">
      <g class="cls-1">
        <path d="M102.18,454.13c1.86-1.9,3.99-2.8,6.38-2.7,2.4.1,4.54,1.07,6.44,2.94,1.92,1.88,2.96,4.02,3.13,6.41s-.71,4.57-2.63,6.54c-1.87,1.9-3.99,2.84-6.38,2.81-2.39-.03-4.58-1.02-6.59-2.99-1.95-1.91-2.98-4.07-3.07-6.48-.1-2.4.81-4.58,2.72-6.53ZM104.19,456.23c-1.94,1.98-3,3.85-3.18,5.61-.18,1.76.51,3.42,2.09,4.97,1.38,1.36,2.96,1.93,4.74,1.73,1.78-.2,3.63-1.29,5.55-3.25,1.87-1.91,2.91-3.76,3.12-5.55.21-1.8-.44-3.43-1.95-4.91-1.48-1.45-3.1-2.07-4.87-1.85-1.76.22-3.6,1.3-5.51,3.25Z"/>
      </g>
    </g>
  </g>
  <g class="cls-1">
    <g class="cls-1">
      <g class="cls-1">
        <path d="M136.06,473.19l4.49,3.59-.36.46c-.63-.44-1.18-.66-1.65-.66-.48,0-.86.11-1.15.34-.29.23-.77.76-1.42,1.58l-3.57,4.47c-.91,1.14-1.64,1.96-2.17,2.44-.53.48-1.23.82-2.08,1.02-.85.19-1.79.14-2.82-.16-1.03-.3-2.05-.86-3.06-1.66-1.2-.96-2.05-1.97-2.55-3.04-.5-1.07-.68-2.07-.52-3,.16-.93.67-1.93,1.54-3.02l1.11-1.37,3.34-4.19c.86-1.07,1.38-1.79,1.56-2.15s.22-.68.12-.96c-.11-.28-.5-.69-1.18-1.24l-.31-.25.36-.46,6.14,4.91-.36.46-.27-.21c-.66-.53-1.14-.82-1.43-.88-.29-.05-.59.04-.9.28s-.91.92-1.8,2.04l-3.38,4.24c-1.17,1.47-1.94,2.56-2.29,3.29-.36.72-.4,1.57-.14,2.53.26.96.91,1.86,1.96,2.69.82.66,1.69,1.1,2.6,1.33.92.23,1.72.24,2.42.05.69-.2,1.27-.51,1.73-.94.46-.43,1.11-1.16,1.94-2.21l3.66-4.58c.61-.76.99-1.33,1.15-1.7.16-.37.16-.76.02-1.17-.14-.4-.5-.87-1.09-1.4l.36-.46Z"/>
      </g>
    </g>
  </g>
  <g class="cls-1">
    <g class="cls-1">
      <g class="cls-1">
        <path d="M150.59,504.11l-3.88-2.53c-.37-.93-.61-2.88-.69-5.84-.03-.95-.09-1.88-.19-2.8-.1-.92-.2-1.5-.3-1.75-.1-.25-.34-.5-.73-.76l-.57-.37-2.08,3.2c-.74,1.14-1.2,1.9-1.37,2.28-.18.39-.2.74-.08,1.06.12.32.51.69,1.16,1.12l.69.45-.32.49-6.91-4.5.32-.49.47.3c.62.4,1.09.6,1.43.6.34,0,.65-.15.93-.43.28-.29.81-1.04,1.6-2.24l4.61-7.08c.75-1.15,1.2-1.91,1.35-2.29.15-.38.16-.7.02-.97-.14-.27-.57-.64-1.3-1.12l-.24-.16.32-.49,2.13,1.24c1.42.83,2.53,1.51,3.34,2.04,1.38.9,2.41,1.75,3.11,2.57.7.82,1.12,1.69,1.27,2.62.15.93-.03,1.79-.56,2.6-.61.94-1.49,1.52-2.62,1.74-1.13.21-2.42-.04-3.87-.75.41.68.7,2.37.87,5.05.14,2.18.37,3.7.7,4.56.33.86.91,1.58,1.74,2.16l-.32.49ZM144.53,489.57c.54.33,1.1.67,1.69,1.01.59.34,1.13.58,1.63.73.5.14.96.18,1.38.1.42-.08.83-.26,1.24-.57.41-.3.8-.74,1.18-1.32.66-1.01.94-1.99.83-2.93-.11-.94-1.02-1.96-2.72-3.07-.26-.17-.57-.35-.93-.55l-4.29,6.6Z"/>
      </g>
    </g>
  </g>
  <g class="cls-1">
    <g class="cls-1">
      <g class="cls-1">
        <path d="M170.42,505.13c1.11-2.41,2.81-3.98,5.1-4.7,2.29-.72,4.64-.52,7.05.59,2.44,1.12,4.14,2.78,5.11,4.98s.88,4.55-.27,7.04c-1.12,2.42-2.8,4.02-5.06,4.8s-4.66.58-7.21-.6c-2.48-1.14-4.17-2.83-5.07-5.06-.9-2.23-.78-4.59.36-7.06ZM173.02,506.42c-1.16,2.51-1.53,4.63-1.1,6.35.42,1.72,1.64,3.05,3.64,3.97,1.76.81,3.44.82,5.04.03,1.6-.79,2.98-2.43,4.13-4.93,1.12-2.43,1.47-4.52,1.06-6.28-.41-1.76-1.57-3.08-3.49-3.96-1.88-.87-3.62-.9-5.2-.1-1.59.8-2.95,2.44-4.09,4.92Z"/>
      </g>
    </g>
  </g>
  <g class="cls-1">
    <g class="cls-1">
      <g class="cls-1">
        <path d="M206.42,529.42l-.54-.18-.47-15.12-8.85,12.01-.58-.19.31-14.03c.03-1.27.04-2.13,0-2.56-.03-.43-.14-.78-.33-1.05-.19-.27-.58-.51-1.16-.73l.18-.55,6.13,2.05-.18.55c-.75-.2-1.26-.25-1.53-.16-.26.09-.45.29-.54.59-.09.26-.15,1-.17,2.2l-.27,10.49,8.64-11.69.67.23.41,14.71,5.39-7.84c.72-1.06,1.14-1.77,1.26-2.13.35-1.06-.03-1.78-1.17-2.16l.18-.55,4.46,1.49-.19.55c-.67-.17-1.25-.09-1.71.24-.47.33-1.22,1.25-2.27,2.74l-7.7,11.09Z"/>
      </g>
    </g>
  </g>
  <g class="cls-1">
    <g class="cls-1">
      <g class="cls-1">
        <path d="M233.95,536.3l-8.47-18.35-2.54,11.67c-.21.97-.3,1.62-.27,1.94.03.33.24.67.63,1.02.39.35,1.03.63,1.93.82l-.12.57-6.28-1.36.12-.57c.81.12,1.46.1,1.93-.04.47-.14.78-.34.92-.6.14-.26.32-.89.54-1.91l1.94-8.92c.28-1.29.41-2.17.38-2.63-.02-.46-.15-.79-.39-.97s-.8-.37-1.7-.57l.12-.57,4.96,1.08,7.1,15.33,2.19-10.06c.16-.74.2-1.28.11-1.61-.09-.33-.35-.63-.78-.91-.43-.28-.98-.49-1.64-.63l.12-.57,6.1,1.33-.12.57c-.72-.1-1.31-.08-1.77.04-.46.12-.77.33-.95.61-.18.28-.34.78-.5,1.49l-3.03,13.92-.53-.12Z"/>
      </g>
    </g>
  </g>
  <g class="cls-1">
    <g class="cls-1">
      <g class="cls-1">
        <path d="M270.29,540.62l-10.99-16.97-.86,11.92c-.07.99-.07,1.64,0,1.96.07.32.33.63.77.92.44.3,1.11.47,2.02.54l-.04.58-6.41-.46.04-.58c.82,0,1.46-.1,1.91-.32.45-.21.72-.45.82-.72.1-.27.19-.93.26-1.97l.65-9.1c.09-1.32.1-2.2,0-2.66-.09-.46-.26-.76-.52-.9-.26-.15-.85-.25-1.77-.32l.04-.58,5.06.36,9.2,14.17.74-10.27c.05-.76.01-1.3-.12-1.61-.13-.31-.44-.58-.9-.79-.47-.21-1.04-.34-1.72-.39l.04-.58,6.23.45-.04.58c-.73,0-1.31.11-1.75.29-.43.19-.72.43-.85.73-.14.3-.23.82-.28,1.55l-1.02,14.21-.54-.04Z"/>
      </g>
    </g>
  </g>
  <g class="cls-1">
    <g class="cls-1">
      <g class="cls-1">
        <path d="M294.01,534.94h.61s-.27,5.35-.27,5.35l-14.25.25v-.58s.35,0,.35,0c.85-.01,1.41-.14,1.65-.37.25-.23.4-.53.46-.88.06-.35.08-1.25.05-2.69l-.15-8.44c-.02-1.31-.07-2.17-.15-2.59s-.25-.7-.51-.86c-.26-.16-.81-.23-1.64-.22v-.58s12.29-.22,12.29-.22l.48,4.28h-.6c-.29-1.19-.64-2.03-1.04-2.53-.4-.5-.88-.8-1.42-.93-.54-.12-1.42-.17-2.62-.15l-2.39.04.13,7.22,1.83-.03c.84-.01,1.42-.1,1.75-.25.33-.15.55-.37.65-.67.1-.29.14-.86.13-1.71h.6s.1,5.88.1,5.88h-.6c-.02-.95-.11-1.59-.28-1.91-.17-.32-.4-.53-.72-.62-.31-.09-.83-.13-1.57-.12l-1.89.03.07,4.08c.04,2.04.19,3.24.46,3.59.27.36.98.52,2.13.5l1.28-.02c.91-.02,1.65-.15,2.23-.39.58-.24,1.13-.73,1.64-1.46.52-.73.92-1.74,1.2-3.01Z"/>
      </g>
    </g>
  </g>
  <g class="cls-1">
    <g class="cls-1">
      <g class="cls-1">
        <path d="M300.02,523.24l-.05-.58,7.84-.68.05.58-.37.03c-.84.07-1.39.19-1.64.35-.25.16-.4.44-.46.82-.06.39-.02,1.29.1,2.72l.73,8.41c.12,1.35.23,2.23.33,2.64.1.41.3.71.59.89.29.18.83.23,1.6.17l.51-.04.05.58-7.84.68-.05-.58.51-.04c.73-.06,1.23-.2,1.5-.41.27-.21.42-.51.46-.91.04-.4,0-1.32-.12-2.75l-.73-8.41c-.12-1.37-.23-2.24-.34-2.63-.11-.39-.3-.65-.58-.78-.27-.13-.85-.16-1.71-.08l-.37.03Z"/>
      </g>
    </g>
  </g>
  <g class="cls-1">
    <g class="cls-1">
      <g class="cls-1">
        <path d="M325.92,529.39l7.33-1.22.1.6c-.81.13-1.34.31-1.61.52-.26.21-.41.51-.43.91-.03.4.08,1.32.32,2.79l.3,1.8c-.21,0-.39.01-.55.04-.64.11-1.45.44-2.43,1.01-1.33.77-2.6,1.26-3.81,1.46-2.43.4-4.58-.06-6.46-1.39s-3.02-3.22-3.43-5.68c-.4-2.43.01-4.69,1.24-6.77,1.23-2.08,3.17-3.34,5.81-3.78,2.27-.38,4.29.15,6.05,1.57.18-.63.25-1.29.21-1.98l.6-.1.94,5.67-.6.1c-.53-1.7-1.42-2.98-2.67-3.82-1.25-.84-2.65-1.13-4.19-.87-1.6.27-2.89,1.09-3.88,2.47-.99,1.38-1.23,3.58-.73,6.61.5,3.01,1.43,5.05,2.78,6.12,1.35,1.07,2.88,1.46,4.57,1.18.87-.14,1.63-.45,2.28-.92s1.06-.99,1.24-1.54.2-1.22.07-1.99c-.15-.91-.31-1.51-.48-1.79-.17-.28-.39-.46-.66-.52-.27-.06-.73-.04-1.4.07l-.4.07-.1-.6Z"/>
      </g>
    </g>
  </g>
  <g class="cls-1">
    <g class="cls-1">
      <g class="cls-1">
        <path d="M352.64,521.91l-8.67,2.36,1.09,4c.36,1.31.62,2.15.8,2.54.18.39.42.64.74.77.32.12.85.08,1.59-.12l.43-.12.15.56-7.47,2.04-.15-.56.43-.12c.71-.19,1.18-.42,1.4-.67.22-.25.32-.58.3-.98-.03-.4-.23-1.3-.61-2.68l-2.22-8.15c-.36-1.32-.63-2.17-.81-2.53-.18-.36-.42-.58-.71-.66-.29-.08-.85,0-1.7.23l-.31.08-.15-.56,7.47-2.04.15.56-.31.08c-.81.22-1.32.43-1.54.64-.22.2-.32.5-.3.89.01.39.21,1.28.59,2.66l.9,3.29,8.67-2.36-.9-3.29c-.36-1.32-.63-2.17-.81-2.53-.18-.36-.41-.58-.7-.66s-.85,0-1.7.23l-.44.12-.15-.56,7.56-2.06.15.56-.25.07c-.82.22-1.33.44-1.55.64-.22.2-.32.5-.3.89.01.39.21,1.28.59,2.66l2.22,8.14c.36,1.31.62,2.15.79,2.54.17.39.42.64.74.77.32.12.86.08,1.6-.12l.38-.1.15.56-7.56,2.06-.15-.56.58-.16c.7-.19,1.17-.41,1.39-.67.22-.25.32-.58.29-.98-.03-.4-.23-1.29-.61-2.68l-1.09-4Z"/>
      </g>
    </g>
  </g>
  <g class="cls-1">
    <g class="cls-1">
      <g class="cls-1">
        <path d="M371.03,515.02c1.88-.55,3.41-.61,4.59-.17,1.18.44,1.99,1.25,2.43,2.41.38,1.01.41,2,.08,2.96-.33.96-.92,1.73-1.77,2.31-.86.58-2.07,1.17-3.65,1.76l-6.32,2.38-.21-.55.62-.23c.69-.26,1.13-.53,1.33-.8.2-.27.27-.61.2-1-.07-.4-.35-1.27-.86-2.61l-2.95-7.84c-.49-1.31-.85-2.14-1.07-2.49-.22-.35-.47-.55-.77-.6-.3-.05-.85.08-1.67.38l-.31.12-.21-.55,2.62-1.07,2.98-1.23c4.4-1.66,7.08-1.22,8.04,1.32.39,1.05.33,2.03-.19,2.95-.52.92-1.5,1.77-2.93,2.57ZM368.03,515.89c.2-.07.37-.12.5-.18,1.71-.64,2.78-1.35,3.2-2.13.42-.77.41-1.76-.04-2.97-.32-.84-.68-1.44-1.1-1.81-.42-.37-.92-.58-1.5-.65-.58-.06-1.47.13-2.66.57-.31.12-.62.25-.94.39l2.54,6.76ZM368.25,516.47l1.35,3.59c.58,1.53.97,2.49,1.18,2.88.21.39.48.65.8.77.32.12.84.05,1.55-.22,1.27-.48,2.1-1.16,2.49-2.05.39-.89.34-1.98-.15-3.28-.5-1.33-1.23-2.18-2.18-2.54-.95-.36-2.33-.2-4.14.48-.29.11-.58.23-.89.36Z"/>
      </g>
    </g>
  </g>
  <g class="cls-1">
    <g class="cls-1">
      <g class="cls-1">
        <path d="M383.28,510.75c-1.17-2.39-1.3-4.69-.41-6.92.89-2.23,2.53-3.92,4.92-5.09,2.41-1.18,4.77-1.45,7.09-.81,2.31.64,4.08,2.2,5.28,4.67,1.17,2.39,1.34,4.71.52,6.95s-2.5,3.97-5.02,5.21c-2.46,1.2-4.83,1.44-7.13.73-2.3-.71-4.05-2.29-5.24-4.74ZM385.93,509.55c1.21,2.49,2.62,4.11,4.22,4.87,1.6.76,3.4.66,5.38-.31,1.74-.85,2.81-2.15,3.21-3.89.4-1.74,0-3.85-1.21-6.32-1.17-2.4-2.57-4-4.19-4.8-1.62-.79-3.38-.73-5.27.2-1.86.91-2.99,2.23-3.37,3.97-.38,1.73.03,3.83,1.22,6.28Z"/>
      </g>
    </g>
  </g>
  <g class="cls-1">
    <g class="cls-1">
      <g class="cls-1">
        <path d="M406.51,498.97c-1.41-2.25-1.79-4.53-1.14-6.84.65-2.31,2.11-4.17,4.36-5.58,2.27-1.42,4.6-1.94,6.96-1.55,2.37.39,4.28,1.76,5.74,4.09,1.42,2.26,1.83,4.55,1.25,6.86s-2.07,4.21-4.45,5.71c-2.32,1.45-4.66,1.94-7.02,1.47s-4.26-1.86-5.71-4.17ZM409.02,497.5c1.47,2.35,3.04,3.81,4.71,4.4,1.67.59,3.45.3,5.32-.87,1.64-1.03,2.57-2.43,2.79-4.2.22-1.77-.4-3.83-1.87-6.16-1.42-2.27-2.98-3.71-4.67-4.33-1.7-.62-3.44-.37-5.22.75-1.76,1.1-2.73,2.53-2.93,4.3-.2,1.77.43,3.8,1.87,6.11Z"/>
      </g>
    </g>
  </g>
  <g class="cls-1">
    <g class="cls-1">
      <g class="cls-1">
        <path d="M447.6,480.9l-3.66,2.84c-1,.05-2.92-.37-5.75-1.26-.91-.28-1.81-.53-2.71-.74-.9-.21-1.48-.31-1.76-.29-.27.01-.59.16-.96.44l-.54.42,2.34,3.02c.83,1.07,1.4,1.75,1.7,2.04.31.29.63.43.97.43.34,0,.82-.25,1.44-.73l.65-.51.36.46-6.51,5.05-.36-.46.44-.34c.58-.45.93-.84,1.04-1.16.11-.32.07-.66-.11-1.02-.18-.36-.71-1.11-1.59-2.24l-5.17-6.67c-.84-1.08-1.41-1.76-1.72-2.03s-.61-.38-.91-.34-.79.33-1.48.86l-.23.18-.36-.46,1.87-1.61c1.25-1.07,2.26-1.89,3.02-2.49,1.3-1.01,2.45-1.7,3.45-2.09,1-.39,1.96-.5,2.89-.34.93.16,1.69.62,2.28,1.38.69.89.95,1.9.78,3.04-.17,1.14-.83,2.28-1.98,3.41.78-.17,2.46.11,5.05.84,2.1.59,3.62.86,4.54.84.92-.03,1.79-.34,2.62-.93l.36.46ZM431.87,481.85c.49-.4.99-.82,1.51-1.27s.92-.88,1.22-1.3c.3-.43.48-.85.55-1.27.06-.42.02-.87-.13-1.36-.15-.48-.44-1-.86-1.55-.74-.96-1.57-1.54-2.5-1.74s-2.19.32-3.79,1.56c-.25.19-.52.42-.82.7l4.82,6.22Z"/>
      </g>
    </g>
  </g>
  <g class="cls-1">
    <g class="cls-1">
      <g class="cls-1">
        <path d="M456.78,460.78l-6.53,6.18,2.85,3.02c.93.98,1.56,1.6,1.9,1.86.34.26.68.37,1.01.33.34-.04.79-.33,1.35-.86l.32-.3.4.42-5.62,5.32-.4-.42.32-.31c.53-.51.84-.92.92-1.25.08-.33,0-.67-.2-1.01-.21-.34-.81-1.04-1.8-2.08l-5.8-6.13c-.94-1-1.58-1.61-1.91-1.85-.33-.23-.64-.32-.94-.25-.29.07-.76.4-1.39,1l-.23.22-.4-.42,5.62-5.32.4.42-.23.22c-.61.58-.96,1-1.06,1.29-.09.28-.04.59.15.93.2.34.79,1.03,1.77,2.07l2.35,2.48,6.53-6.18-2.35-2.48c-.94-1-1.58-1.61-1.91-1.85s-.64-.32-.93-.26c-.29.07-.76.4-1.39,1l-.33.31-.4-.42,5.69-5.38.4.42-.18.17c-.61.58-.97,1.01-1.06,1.29-.09.28-.04.59.15.93.2.34.79,1.03,1.77,2.07l5.8,6.13c.93.98,1.56,1.61,1.9,1.87.33.26.67.37,1.01.32.34-.04.79-.33,1.35-.86l.29-.27.4.42-5.69,5.38-.4-.42.43-.41c.53-.5.83-.91.91-1.25s0-.67-.21-1c-.22-.34-.82-1.03-1.81-2.07l-2.85-3.02Z"/>
      </g>
    </g>
  </g>
  <g class="cls-1">
    <g class="cls-1">
      <g class="cls-1">
        <path d="M465.14,452.23c-2.01-1.73-3.05-3.8-3.12-6.19-.06-2.4.77-4.6,2.51-6.62,1.75-2.04,3.81-3.22,6.19-3.54,2.38-.33,4.61.41,6.7,2.2,2.02,1.74,3.1,3.8,3.23,6.18.13,2.38-.72,4.64-2.55,6.77-1.78,2.07-3.87,3.24-6.26,3.49-2.39.25-4.62-.51-6.69-2.28ZM467.11,450.09c2.1,1.8,4.04,2.74,5.81,2.81,1.77.07,3.38-.74,4.82-2.41,1.26-1.47,1.74-3.08,1.42-4.84-.32-1.76-1.52-3.53-3.61-5.33-2.03-1.74-3.95-2.66-5.75-2.75-1.8-.09-3.39.67-4.77,2.26-1.35,1.57-1.86,3.23-1.52,4.98.34,1.74,1.54,3.51,3.61,5.28Z"/>
      </g>
    </g>
  </g>
  <g class="cls-1">
    <g class="cls-1">
      <g class="cls-1">
        <path d="M481.85,432.21c-2.19-1.51-3.43-3.46-3.74-5.83-.31-2.38.29-4.66,1.8-6.84,1.53-2.21,3.46-3.6,5.79-4.17,2.33-.57,4.63-.08,6.89,1.49,2.19,1.52,3.48,3.45,3.85,5.81.38,2.36-.23,4.69-1.83,7-1.56,2.25-3.51,3.62-5.86,4.12s-4.65-.02-6.89-1.57ZM483.57,429.87c2.28,1.58,4.3,2.3,6.07,2.19,1.77-.12,3.28-1.09,4.54-2.9,1.1-1.59,1.4-3.25.9-4.96-.5-1.71-1.88-3.36-4.14-4.92-2.2-1.52-4.2-2.23-6-2.13-1.8.1-3.3,1.02-4.5,2.75-1.18,1.71-1.51,3.41-1,5.11.52,1.7,1.9,3.32,4.14,4.88Z"/>
      </g>
    </g>
  </g>
  <g class="cls-1">
    <g class="cls-1">
      <g class="cls-1">
        <path d="M488.67,407.14l1.24-2.55c1.04-2.12,1.75-3.55,2.15-4.27,1.23-2.24,2.54-3.8,3.91-4.67,1.37-.88,2.81-1.3,4.32-1.27,1.5.03,3.02.47,4.55,1.31,1.1.61,2.02,1.33,2.75,2.17.73.84,1.24,1.71,1.52,2.63.28.92.37,1.84.26,2.78s-.31,1.78-.61,2.51c-.3.73-.8,1.72-1.49,2.98l-3.68,6.68-.51-.28.34-.62c.36-.64.52-1.14.49-1.47-.03-.34-.19-.64-.5-.9-.31-.26-1.09-.74-2.35-1.43l-7.27-4.01c-1.2-.66-2-1.05-2.39-1.18-.39-.12-.71-.11-.97.05-.25.15-.59.61-1.01,1.38l-.25.44-.51-.28ZM491.54,402.67l10.07,5.55c1.49.82,2.46,1.32,2.93,1.5s.85.18,1.18,0c.33-.18.74-.72,1.23-1.62.72-1.31,1.14-2.49,1.24-3.53.11-1.04-.21-2.14-.96-3.29-.75-1.15-1.94-2.18-3.57-3.08-1.28-.7-2.5-1.17-3.69-1.39-1.18-.22-2.26-.2-3.22.07-.97.27-1.77.72-2.41,1.34-.64.62-1.28,1.52-1.93,2.69-.31.56-.61,1.14-.89,1.74Z"/>
      </g>
    </g>
  </g>
  <path d="M477.79,186.11c-17.83-35.68-45.11-65.8-78.89-87.13-34.71-21.91-74.87-33.49-116.12-33.49s-81.41,11.58-116.12,33.49c-33.79,21.32-61.06,51.45-78.89,87.13l-4.47-2.24c18.23-36.49,46.14-67.31,80.69-89.12,35.51-22.41,76.59-34.26,118.79-34.26s83.28,11.85,118.79,34.26c34.56,21.81,62.46,52.63,80.7,89.12l-4.47,2.24Z"/>
  <g class="cls-1">
    <g class="cls-1">
      <g class="cls-1">
        <path d="M135.84,385.5v4.17c0,1.56.04,2.58.11,3.07.07.48.27.84.59,1.08s.93.35,1.82.35h.66v.67h-9.1v-.67h.53c.85,0,1.44-.11,1.77-.32s.53-.55.62-1c.09-.45.13-1.51.13-3.17v-9.74c0-1.58-.04-2.6-.13-3.06s-.28-.78-.59-.95-.96-.26-1.96-.26h-.37v-.67l2.49-.09c1.99-.07,3.54-.1,4.66-.1,2.05,0,3.63.16,4.74.48s2.02.89,2.72,1.71,1.06,1.86,1.06,3.11c0,1.08-.24,2.04-.73,2.87s-1.18,1.46-2.08,1.89-2.49.64-4.77.64h-2.18ZM135.84,384.77h1.42c1.14,0,2.07-.11,2.77-.34s1.29-.71,1.76-1.44.7-1.64.7-2.71c0-1.64-.4-2.84-1.21-3.61s-2.11-1.15-3.92-1.15c-.66,0-1.17.02-1.52.06v9.2Z"/>
        <path d="M155.59,375.66v-.67h9.08v.67h-.42c-.98,0-1.62.08-1.92.24-.3.16-.51.46-.61.9s-.15,1.48-.15,3.13v9.74c0,1.56.04,2.58.11,3.07.07.48.27.84.59,1.08s.93.35,1.82.35h.59v.67h-9.08v-.67h.59c.85,0,1.44-.11,1.77-.32s.53-.55.62-1c.09-.45.13-1.51.13-3.17v-9.74c0-1.58-.04-2.6-.13-3.06s-.28-.78-.59-.95-.96-.26-1.96-.26h-.42Z"/>
        <path d="M175.34,394.85v-.51l12.82-18.68h-6.18c-1.33,0-2.19.05-2.6.16s-.87.5-1.4,1.17-.93,1.53-1.2,2.57h-.64l.64-4.57h14.77v.67l-12.69,18.52h6.06c2.06,0,3.37-.16,3.93-.48s1.06-.88,1.52-1.67.8-1.56,1.03-2.31h.67l-.67,5.14h-16.05Z"/>
        <path d="M203.4,394.85v-.51l12.82-18.68h-6.18c-1.33,0-2.19.05-2.6.16s-.87.5-1.4,1.17-.93,1.53-1.2,2.57h-.64l.64-4.57h14.77v.67l-12.69,18.52h6.06c2.06,0,3.37-.16,3.93-.48s1.06-.88,1.52-1.67.8-1.56,1.03-2.31h.67l-.67,5.14h-16.05Z"/>
        <path d="M243.5,387.53h-7.54l-.51,1.26c-.76,1.83-1.14,3.02-1.14,3.57,0,.6.2,1.05.61,1.36.41.31.93.46,1.56.46v.67h-5.9v-.67c.88-.14,1.53-.45,1.96-.93.43-.48.95-1.5,1.55-3.05.05-.15.28-.71.7-1.7l5.77-13.78h.57l6.64,15.78.91,2.08c.21.47.48.84.83,1.11.35.27.87.44,1.56.51v.67h-7.81v-.67c.96,0,1.6-.07,1.94-.21.34-.14.51-.42.51-.84,0-.21-.22-.85-.67-1.92l-1.52-3.68ZM243.25,386.87l-3.52-8.47-3.5,8.47h7.02Z"/>
        <path d="M277.41,387.69h7.19v2.21h-7.19v-2.21Z"/>
      </g>
    </g>
    <g class="cls-1">
      <g class="cls-1">
        <path d="M318.14,385.5v4.17c0,1.56.04,2.58.11,3.07.07.48.27.84.59,1.08s.93.35,1.82.35h.66v.67h-9.1v-.67h.53c.85,0,1.44-.11,1.76-.32s.54-.55.62-1c.09-.45.13-1.51.13-3.17v-9.74c0-1.58-.04-2.6-.13-3.06s-.28-.78-.59-.95-.96-.26-1.96-.26h-.37v-.67l2.49-.09c1.99-.07,3.54-.1,4.66-.1,2.05,0,3.63.16,4.74.48s2.02.89,2.72,1.71,1.06,1.86,1.06,3.11c0,1.08-.24,2.04-.73,2.87s-1.18,1.46-2.08,1.89-2.49.64-4.77.64h-2.18ZM318.14,384.77h1.42c1.14,0,2.07-.11,2.77-.34s1.29-.71,1.76-1.44.7-1.64.7-2.71c0-1.64-.4-2.84-1.21-3.61s-2.11-1.15-3.92-1.15c-.66,0-1.17.02-1.52.06v9.2Z"/>
      </g>
    </g>
    <g class="cls-1">
      <g class="cls-1">
        <path d="M347.28,387.53h-7.54l-.51,1.26c-.76,1.83-1.14,3.02-1.14,3.57,0,.6.2,1.05.61,1.36.41.31.93.46,1.56.46v.67h-5.9v-.67c.88-.14,1.53-.45,1.96-.93.43-.48.95-1.5,1.55-3.05.05-.15.28-.71.7-1.7l5.77-13.78h.57l6.64,15.78.91,2.08c.21.47.48.84.83,1.11.35.27.87.44,1.56.51v.67h-7.81v-.67c.96,0,1.6-.07,1.94-.21.34-.14.51-.42.51-.84,0-.21-.22-.85-.67-1.92l-1.52-3.68ZM347.03,386.87l-3.52-8.47-3.5,8.47h7.02Z"/>
        <path d="M365.38,394.65v-6.39h.73c.83,4.16,2.8,6.24,5.9,6.24,1.4,0,2.48-.4,3.24-1.19s1.15-1.69,1.15-2.67-.34-1.83-1.01-2.5c-.67-.66-1.9-1.38-3.69-2.14-1.59-.68-2.79-1.28-3.6-1.79-.81-.51-1.44-1.18-1.9-2s-.68-1.69-.68-2.62c0-1.42.49-2.59,1.47-3.54.98-.94,2.22-1.41,3.73-1.41.84,0,1.63.14,2.37.41s1.5.84,2.29,1.7c.45-.54.7-1.12.76-1.74h.64v5.2h-.64c-.37-1.51-1.03-2.71-1.97-3.57s-2.03-1.3-3.27-1.3-2.05.32-2.6.96c-.55.64-.83,1.34-.83,2.1,0,.92.35,1.69,1.04,2.33.68.64,1.92,1.37,3.71,2.17,1.71.76,2.95,1.38,3.73,1.84.78.46,1.4,1.11,1.87,1.93s.7,1.77.7,2.84c0,1.7-.57,3.08-1.7,4.15s-2.65,1.6-4.54,1.6c-2.18,0-3.99-.83-5.45-2.5-.32.46-.56,1.1-.72,1.93h-.73Z"/>
      </g>
    </g>
    <g class="cls-1">
      <g class="cls-1">
        <path d="M390.34,379.76h-.67l.1-4.78h19.28l.1,4.78h-.63c-.22-1.31-.53-2.25-.92-2.83s-.81-.94-1.26-1.07c-.45-.13-1.22-.2-2.3-.2h-3.19v14.02c0,1.55.04,2.57.11,3.06s.27.85.59,1.08.93.35,1.82.35h.97v.67h-9.9v-.67h1.03c.85,0,1.44-.11,1.76-.32s.54-.55.63-1c.09-.45.14-1.51.14-3.17v-14.02h-2.94c-1.28,0-2.14.06-2.58.18s-.85.49-1.24,1.11-.68,1.55-.89,2.81Z"/>
      </g>
    </g>
    <g class="cls-1">
      <g class="cls-1">
        <path d="M429.26,387.53h-7.54l-.51,1.26c-.76,1.83-1.14,3.02-1.14,3.57,0,.6.2,1.05.61,1.36.41.31.92.46,1.56.46v.67h-5.9v-.67c.88-.14,1.53-.45,1.96-.93.43-.48.95-1.5,1.55-3.05.05-.15.28-.71.7-1.7l5.77-13.78h.57l6.64,15.78.91,2.08c.21.47.48.84.83,1.11.35.27.87.44,1.56.51v.67h-7.81v-.67c.96,0,1.6-.07,1.94-.21.34-.14.5-.42.5-.84,0-.21-.22-.85-.67-1.92l-1.52-3.68ZM429.01,386.87l-3.52-8.47-3.5,8.47h7.02Z"/>
      </g>
    </g>
    <g class="cls-1">
      <g class="cls-1">
        <path d="M212.43,418.85h6.27v.67c-.78.21-1.47.6-2.08,1.14-.58.53-1.18,1.56-1.82,3.09-.53,1.26-1.01,2.18-1.45,2.75,1.04,1.5,1.87,2.45,2.46,2.84.61.4,1.24.6,1.9.6.92,0,1.63-.43,2.12-1.3h.67c-.21.8-.64,1.45-1.32,1.95-.66.49-1.44.73-2.31.73-1.9,0-3.58-.96-5.02-2.87-1.71,1.91-3.53,2.87-5.45,2.87-.69,0-1.38-.12-2.05-.38s-1.27-.64-1.8-1.12c-.53-.48-.95-1.06-1.27-1.73s-.47-1.4-.45-2.21c0-1.22.33-2.25,1-3.09.66-.83,1.95-1.88,3.85-3.16-1.14-1.59-1.71-3.03-1.71-4.32,0-1.01.39-1.91,1.17-2.71.77-.8,1.75-1.2,2.94-1.2,1.06,0,2.02.3,2.86.89.85.61,1.27,1.39,1.27,2.34,0,1.5-1.41,2.96-4.22,4.38.88,1.18,1.73,2.34,2.54,3.47s1.61,2.25,2.38,3.35c.56-.77,1-1.58,1.32-2.42.32-.83.48-1.48.48-1.96,0-1.12-.76-1.77-2.29-1.95v-.67ZM206.12,420.24c-1.02.63-1.8,1.37-2.36,2.2-.56.84-.83,1.65-.83,2.42,0,1.21.48,2.35,1.45,3.41s2.06,1.6,3.28,1.6c1.35,0,2.6-.67,3.76-2.01-1.04-1.57-1.99-2.99-2.87-4.26-.88-1.26-1.69-2.38-2.43-3.36ZM207.58,418.47c1.95-1.14,2.93-2.38,2.93-3.71,0-.39-.06-.75-.17-1.08s-.27-.61-.48-.84-.46-.42-.75-.54-.62-.19-.97-.19c-.71,0-1.28.23-1.7.7-.42.46-.63,1.04-.63,1.74,0,.96.59,2.26,1.77,3.91Z"/>
        <path d="M259.86,427.42l7.24-16.44h6.09v.67h-.73c-.98,0-1.62.08-1.92.24-.3.16-.51.46-.61.9s-.15,1.48-.15,3.13v9.74c0,1.56.04,2.58.12,3.07.08.48.28.84.59,1.08s.93.35,1.82.35h.88v.67h-9.49v-.67h.7c.84,0,1.42-.11,1.75-.32s.54-.55.63-1c.09-.45.14-1.51.14-3.17v-12.64l-7.87,17.81h-.69l-7.92-17.81v11.63c0,1.59.05,2.68.15,3.25s.4,1.08.91,1.52c.51.44,1.22.68,2.14.74v.67h-7.1v-.67c.85-.05,1.54-.28,2.07-.7s.86-.93.97-1.53.18-1.73.18-3.37v-8.64c0-1.58-.05-2.6-.14-3.06s-.29-.78-.59-.95-.95-.26-1.96-.26h-.54v-.67h6.05l7.28,16.44Z"/>
        <path d="M284.3,420.79c0-3.07,1.03-5.53,3.08-7.38s4.61-2.78,7.68-2.78,5.68.92,7.76,2.75,3.11,4.34,3.11,7.51-.99,5.57-2.98,7.47-4.6,2.86-7.84,2.86-5.74-.95-7.76-2.86-3.03-4.43-3.03-7.57ZM287.65,420.89c0,3.19.64,5.59,1.91,7.19s3.19,2.4,5.73,2.4c2.24,0,4-.8,5.3-2.4s1.95-3.99,1.95-7.16-.64-5.45-1.92-7.1c-1.28-1.64-3.13-2.47-5.57-2.47s-4.23.8-5.5,2.41c-1.27,1.61-1.91,3.98-1.91,7.13Z"/>
        <path d="M338.25,430.85h-5.35c-.95-.66-2.4-2.4-4.35-5.21-.62-.9-1.27-1.76-1.95-2.59-.67-.82-1.14-1.33-1.39-1.51s-.65-.27-1.19-.27h-.79v4.41c0,1.56.04,2.58.11,3.07.07.48.27.84.59,1.08s.92.35,1.82.35h.95v.67h-9.51v-.67h.64c.85,0,1.44-.11,1.77-.32s.53-.55.62-1c.09-.45.13-1.51.13-3.17v-9.74c0-1.58-.04-2.6-.13-3.06s-.28-.78-.59-.95-.96-.26-1.96-.26h-.34v-.67l2.84-.15c1.89-.09,3.4-.13,4.51-.13,1.89,0,3.44.18,4.62.53s2.15.93,2.88,1.73,1.1,1.76,1.1,2.87c0,1.3-.48,2.41-1.44,3.33s-2.36,1.49-4.22,1.71c.83.4,2.17,1.85,4.01,4.34,1.5,2.02,2.69,3.34,3.54,3.97s1.88.96,3.05,1v.67ZM323.24,420.6c.73-.02,1.49-.05,2.27-.09s1.46-.15,2.04-.32,1.04-.43,1.4-.77c.36-.34.64-.78.84-1.33s.31-1.22.31-2.02c0-1.4-.35-2.51-1.05-3.35s-2.22-1.26-4.56-1.26c-.36,0-.78.02-1.25.06v9.08Z"/>
        <path d="M364.44,424.67h.7l-.42,6.18h-16.45v-.67h.41c.99,0,1.62-.13,1.91-.4s.47-.6.55-1,.12-1.44.12-3.1v-9.74c0-1.51-.04-2.51-.12-2.99s-.27-.81-.57-1c-.3-.19-.93-.29-1.88-.29v-.67h14.19l.47,4.95h-.69c-.31-1.39-.7-2.37-1.15-2.95s-.99-.95-1.62-1.1c-.62-.15-1.63-.23-3.02-.23h-2.75v8.33h2.11c.97,0,1.64-.08,2.03-.25s.64-.42.76-.75c.12-.34.18-.99.18-1.97h.69v6.8h-.69c0-1.1-.09-1.84-.28-2.22s-.46-.62-.81-.73-.96-.17-1.81-.17h-2.18v4.7c0,2.35.15,3.74.45,4.15.3.42,1.12.62,2.45.62h1.48c1.04,0,1.9-.13,2.58-.4s1.32-.82,1.93-1.66c.61-.83,1.09-1.98,1.44-3.45Z"/>
      </g>
    </g>
  </g>
  <line x1="34.28" y1="157.83" x2="87.23" y2="185.84"/>
  <path d="M282.78,506.2c-84.07,0-160.13-46.52-198.48-121.4l4.45-2.28c37.49,73.2,111.84,118.68,194.02,118.68,41.28,0,81.46-11.6,116.19-33.54,33.8-21.35,61.08-51.52,78.89-87.24l4.47,2.23c-18.22,36.54-46.12,67.39-80.7,89.24-35.53,22.45-76.63,34.31-118.86,34.31Z"/>
  <g class="cls-1">
    <g class="cls-1">
      <g class="cls-1">
        <path d="M70.21,160.75l.29-.54,4.54,2.88-6.79,12.53-.51-.28.17-.31c.41-.75.57-1.29.49-1.62-.08-.33-.26-.61-.54-.83-.28-.23-1.05-.68-2.31-1.37l-7.42-4.02c-1.15-.62-1.93-1-2.33-1.14-.4-.13-.73-.13-1,.02-.27.15-.6.59-1,1.32l-.51-.28,5.86-10.82,3.97,1.69-.28.52c-1.19-.33-2.09-.45-2.72-.34-.63.11-1.13.37-1.5.78-.37.41-.85,1.15-1.42,2.21l-1.14,2.1,6.35,3.44.87-1.61c.4-.74.62-1.29.65-1.65.03-.36-.05-.66-.26-.89-.21-.23-.68-.55-1.42-.95l.28-.52,5.18,2.81-.29.53c-.84-.46-1.44-.69-1.81-.71-.36-.01-.66.09-.89.32-.23.23-.52.66-.88,1.31l-.9,1.66,3.58,1.94c1.79.97,2.91,1.43,3.35,1.37.44-.06.94-.6,1.48-1.61l.61-1.13c.43-.8.68-1.51.76-2.13.07-.62-.08-1.34-.46-2.15-.39-.81-1.06-1.65-2.03-2.52Z"/>
      </g>
    </g>
  </g>
  <g class="cls-1">
    <g class="cls-1">
      <g class="cls-1">
        <path d="M83.67,138.42l-3.8,5.32.63,1c.9,1.46,1.55,2.33,1.94,2.61.42.3.84.38,1.26.25.42-.13.79-.42,1.11-.87l.47.34-2.97,4.16-.48-.34c.35-.69.46-1.31.33-1.85-.12-.55-.58-1.42-1.37-2.63-.08-.11-.36-.56-.84-1.35l-6.81-11.01.29-.4,14.47,3.27,1.92.41c.43.09.83.08,1.2-.03.36-.11.74-.39,1.14-.85l.47.34-3.93,5.51-.47-.34c.48-.68.76-1.17.83-1.48.07-.31-.04-.57-.34-.78-.15-.11-.71-.27-1.69-.49l-3.36-.78ZM83.08,138.26l-7.74-1.79,4.21,6.73,3.54-4.95Z"/>
      </g>
    </g>
  </g>
  <g class="cls-1">
    <g class="cls-1">
      <g class="cls-1">
        <path d="M90.52,118.76l-.39.43-3-2.85,11.25-12.35,3.12,2.72-.37.4c-.97-.62-1.76-.98-2.36-1.06-.6-.09-1.07-.03-1.42.18-.35.21-.84.66-1.47,1.36l-1.86,2.05,8.98,8.18c1,.91,1.67,1.48,2.03,1.72s.7.32,1.04.25.77-.39,1.29-.96l.56-.62.43.39-5.78,6.34-.43-.39.6-.66c.5-.54.77-.98.82-1.32.05-.33-.04-.66-.27-.99-.24-.33-.89-.97-1.95-1.94l-8.98-8.18-1.72,1.89c-.75.82-1.21,1.41-1.39,1.76-.18.35-.18.83-.01,1.44.17.61.6,1.34,1.29,2.21Z"/>
      </g>
    </g>
  </g>
  <g class="cls-1">
    <g class="cls-1">
      <g class="cls-1">
        <path d="M126.21,79.35l2.22-1.76c1.85-1.47,3.12-2.44,3.78-2.92,2.08-1.48,3.93-2.32,5.55-2.52,1.62-.2,3.1.04,4.44.73,1.34.68,2.52,1.73,3.53,3.15.73,1.03,1.25,2.08,1.54,3.15.3,1.07.37,2.08.23,3.03-.14.95-.46,1.82-.97,2.62-.5.8-1.05,1.47-1.64,2-.59.53-1.47,1.21-2.63,2.04l-6.21,4.43-.34-.48.58-.41c.6-.43.96-.8,1.08-1.12.12-.32.1-.66-.06-1.02-.16-.37-.66-1.14-1.5-2.31l-4.82-6.76c-.8-1.12-1.34-1.81-1.64-2.1-.3-.28-.6-.41-.89-.38-.3.03-.8.3-1.51.8l-.41.29-.34-.48ZM130.74,76.56l6.68,9.37c.99,1.39,1.65,2.26,1.99,2.62.34.36.69.53,1.07.51.37-.02.98-.33,1.81-.93,1.22-.87,2.1-1.75,2.65-2.65.55-.89.73-2.02.56-3.38-.17-1.36-.8-2.8-1.89-4.32-.85-1.19-1.75-2.13-2.72-2.85-.97-.71-1.95-1.15-2.94-1.33-.99-.17-1.9-.12-2.75.17-.85.29-1.81.82-2.9,1.59-.52.37-1.04.77-1.56,1.19Z"/>
      </g>
    </g>
  </g>
  <g class="cls-1">
    <g class="cls-1">
      <g class="cls-1">
        <path d="M179.21,66.69l-4.1,2.16c-.99-.12-2.81-.87-5.45-2.23-.84-.44-1.69-.83-2.54-1.19-.85-.36-1.41-.56-1.68-.59-.27-.04-.61.06-1.02.27l-.61.32,1.79,3.38c.63,1.2,1.08,1.97,1.33,2.31.25.34.55.54.88.59.34.05.85-.11,1.54-.47l.73-.39.27.52-7.29,3.85-.27-.52.49-.26c.65-.34,1.06-.66,1.22-.96.16-.3.19-.64.07-1.02-.12-.38-.51-1.21-1.18-2.48l-3.94-7.46c-.64-1.21-1.09-1.98-1.34-2.29-.25-.32-.53-.48-.83-.49-.3-.01-.84.19-1.61.59l-.26.14-.27-.52,2.12-1.26c1.42-.83,2.55-1.48,3.4-1.93,1.45-.77,2.7-1.26,3.75-1.47s2.02-.16,2.91.16,1.55.9,2,1.75c.53,1,.61,2.04.25,3.13-.36,1.09-1.21,2.1-2.54,3.02.8-.03,2.41.54,4.83,1.7,1.97.94,3.41,1.48,4.32,1.61.91.13,1.83-.03,2.74-.47l.27.52ZM163.56,64.91c.55-.31,1.12-.64,1.7-.99s1.06-.7,1.43-1.07c.37-.37.62-.75.76-1.16.14-.4.17-.86.11-1.36-.06-.5-.26-1.06-.58-1.67-.57-1.07-1.29-1.79-2.16-2.15-.87-.36-2.21-.07-4.01.88-.28.15-.59.33-.93.55l3.68,6.96Z"/>
      </g>
    </g>
  </g>
  <g class="cls-1">
    <g class="cls-1">
      <g class="cls-1">
        <path d="M185.6,45.84l-.21-.54,7.33-2.87.21.54-.34.13c-.79.31-1.28.58-1.47.8-.19.23-.26.53-.21.92.06.39.35,1.25.87,2.58l3.08,7.86c.49,1.26.85,2.08,1.06,2.44.21.37.48.6.81.68.33.09.86,0,1.58-.29l.47-.19.21.54-7.33,2.87-.21-.54.47-.19c.69-.27,1.13-.54,1.32-.82.2-.28.26-.61.19-1.01-.07-.4-.37-1.26-.9-2.6l-3.08-7.86c-.5-1.28-.86-2.09-1.07-2.43-.22-.34-.47-.54-.77-.58-.3-.05-.86.09-1.67.41l-.34.13Z"/>
      </g>
    </g>
  </g>
  <g class="cls-1">
    <g class="cls-1">
      <g class="cls-1">
        <path d="M227.26,50.23l-15.9-12.48,3.06,11.55c.25.96.47,1.57.64,1.85.17.28.52.48,1.02.62.51.14,1.21.09,2.09-.15l.15.56-6.21,1.65-.15-.56c.78-.27,1.35-.57,1.7-.92.36-.34.54-.66.54-.95,0-.29-.12-.94-.39-1.94l-2.34-8.82c-.34-1.28-.62-2.12-.86-2.52-.23-.4-.5-.63-.79-.69-.29-.05-.88.04-1.77.27l-.15-.56,4.91-1.3,13.31,10.41-2.64-9.95c-.2-.74-.41-1.23-.64-1.49-.23-.25-.6-.41-1.11-.45s-1.09.01-1.75.19l-.15-.56,6.04-1.6.15.56c-.69.24-1.21.53-1.56.85s-.54.64-.57.97c-.03.33.05.85.24,1.56l3.65,13.77-.53.14Z"/>
      </g>
    </g>
  </g>
  <g class="cls-1">
    <g class="cls-1">
      <g class="cls-1">
        <path d="M247.79,37.41l4.63-5.34c1.08-1.23,1.58-2.08,1.53-2.54-.09-.7-.74-.99-1.95-.87l-.07-.58,6.44-.8.07.58c-.53.07-1.04.25-1.55.54s-.96.63-1.36,1.04c-.4.41-1.14,1.25-2.21,2.54l-2.76,3.26,7.2,5.67c1.65,1.31,2.74,2.08,3.27,2.33.53.25,1.2.33,1.98.23l.07.58-8.87,1.1-.07-.58.34-.04c.96-.12,1.54-.27,1.76-.46.21-.19.31-.4.28-.64-.04-.35-.75-1.06-2.12-2.13l-5.43-4.27-1.09,1.22.38,3.11c.17,1.34.31,2.22.43,2.63.12.41.33.7.62.86.3.17.83.2,1.61.11l.33-.04.07.58-7.67.95-.07-.58.53-.07c.73-.09,1.23-.24,1.48-.46.26-.22.4-.53.43-.93.03-.4-.04-1.32-.22-2.74l-1.04-8.38c-.17-1.41-.33-2.3-.47-2.68-.14-.38-.34-.61-.62-.72-.28-.1-.89-.09-1.85.02l-.07-.58,7.56-.94.07.58-.32.04c-.84.1-1.38.24-1.62.41-.24.17-.38.45-.43.84-.04.39.03,1.29.2,2.71l.55,4.43Z"/>
      </g>
    </g>
  </g>
  <g class="cls-1">
    <g class="cls-1">
      <g class="cls-1">
        <path d="M310.83,27.66l-.21,4.29-.59-.05c-.04-.95-.24-1.74-.6-2.39-.36-.64-.76-1.06-1.19-1.25-.43-.19-1.18-.33-2.25-.41l-3.35-.27-.59,7.28,1.61.13c1.04.08,1.74-.03,2.11-.36.37-.32.6-1.01.68-2.07l.63.05-.49,6.05-.63-.05c.06-.73.03-1.32-.08-1.76-.11-.44-.31-.75-.59-.93-.28-.18-.84-.3-1.68-.37l-1.61-.13-.35,4.26c-.11,1.35-.15,2.24-.12,2.66.03.42.18.75.44.97.26.22.78.37,1.56.43l.58.05-.05.58-7.97-.65.05-.58.53.04c.73.06,1.25,0,1.55-.15.3-.16.5-.44.61-.82.11-.39.23-1.3.34-2.73l.69-8.41c.11-1.37.14-2.25.1-2.65-.05-.4-.19-.69-.44-.86-.25-.17-.8-.29-1.67-.37l-.3-.02.05-.58,13.24,1.08Z"/>
      </g>
    </g>
  </g>
  <g class="cls-1">
    <g class="cls-1">
      <g class="cls-1">
        <path d="M337.98,44.23l.6.12-1.42,5.18-13.98-2.81.11-.57.35.07c.84.17,1.4.17,1.69,0,.29-.17.5-.43.64-.76.13-.33.35-1.2.63-2.61l1.66-8.28c.26-1.29.39-2.14.4-2.56s-.09-.74-.31-.95c-.22-.21-.74-.4-1.55-.57l.12-.57,12.06,2.42-.45,4.29-.58-.12c-.03-1.23-.19-2.13-.47-2.7-.29-.57-.68-.97-1.19-1.21-.51-.24-1.35-.47-2.53-.71l-2.34-.47-1.42,7.08,1.79.36c.82.17,1.41.21,1.77.13.36-.07.61-.25.78-.51.16-.26.33-.81.49-1.64l.58.12-1.16,5.78-.58-.12c.19-.94.24-1.58.14-1.93-.09-.35-.28-.61-.57-.76s-.79-.31-1.51-.45l-1.86-.37-.8,4c-.4,2-.51,3.2-.32,3.61.19.4.84.72,1.97.95l1.26.25c.89.18,1.64.21,2.26.1.62-.11,1.26-.47,1.92-1.08.66-.61,1.27-1.5,1.82-2.69Z"/>
      </g>
    </g>
  </g>
  <g class="cls-1">
    <g class="cls-1">
      <g class="cls-1">
        <path d="M366.38,52.62l.58.19-2.04,4.97-13.53-4.49.18-.55.34.11c.81.27,1.37.33,1.68.2.31-.14.55-.36.73-.68.17-.31.49-1.15.94-2.52l2.66-8.01c.41-1.25.65-2.08.71-2.49.06-.42,0-.74-.2-.98-.19-.24-.68-.49-1.47-.75l.18-.55,11.68,3.87-.96,4.2-.57-.19c.12-1.23.07-2.14-.14-2.74s-.56-1.05-1.03-1.34c-.47-.29-1.28-.63-2.42-1.01l-2.27-.75-2.27,6.86,1.73.58c.8.26,1.38.38,1.74.35.36-.03.64-.17.83-.41.19-.24.42-.77.69-1.57l.57.19-1.85,5.59-.57-.19c.3-.91.43-1.54.38-1.9s-.21-.63-.47-.82-.74-.4-1.44-.63l-1.8-.59-1.28,3.87c-.64,1.94-.89,3.12-.76,3.54s.75.82,1.84,1.18l1.22.4c.86.29,1.6.41,2.23.37.63-.04,1.31-.32,2.04-.83.73-.52,1.44-1.34,2.13-2.44Z"/>
      </g>
    </g>
  </g>
  <g class="cls-1">
    <g class="cls-1">
      <g class="cls-1">
        <path d="M394.04,64.92l-2.28,4.53-13.23-6.24.25-.53.46.22c.67.31,1.17.45,1.5.4.34-.05.62-.23.86-.55.24-.32.67-1.13,1.28-2.43l3.6-7.64c.58-1.24.93-2.06,1.02-2.45.1-.39.06-.72-.11-.96-.17-.25-.65-.56-1.44-.93l-.34-.16.25-.53,7.48,3.53-.25.53-.69-.33c-.77-.36-1.3-.53-1.59-.52-.3.02-.57.17-.81.48-.24.31-.67,1.11-1.28,2.4l-3.84,8.15c-.53,1.12-.83,1.84-.91,2.16-.07.31,0,.61.19.9.2.28.74.64,1.64,1.06l1.18.56c.96.45,1.71.7,2.25.75s1.16-.11,1.84-.48,1.49-1.09,2.42-2.16l.54.25Z"/>
      </g>
    </g>
  </g>
  <g class="cls-1">
    <g class="cls-1">
      <g class="cls-1">
        <path d="M433.78,87.55l5.91,4.49-.37.49c-.65-.5-1.15-.77-1.48-.81-.33-.04-.65.06-.96.31-.31.25-.91.96-1.8,2.14l-1.11,1.46c-.14-.15-.28-.27-.4-.37-.52-.39-1.32-.75-2.4-1.08-1.47-.44-2.7-1.03-3.68-1.77-1.96-1.49-3.1-3.38-3.42-5.65-.32-2.28.27-4.41,1.78-6.39,1.49-1.96,3.42-3.21,5.78-3.74s4.61,0,6.74,1.63c1.83,1.39,2.84,3.22,3.01,5.48.58-.3,1.11-.7,1.58-1.2l.49.37-3.48,4.58-.48-.37c.87-1.56,1.19-3.08.94-4.56s-1-2.7-2.24-3.65c-1.29-.98-2.77-1.35-4.46-1.12-1.68.23-3.45,1.57-5.31,4-1.85,2.43-2.7,4.51-2.54,6.22.15,1.71.91,3.09,2.28,4.13.7.53,1.45.87,2.24,1.02.79.15,1.45.1,1.97-.16.52-.25,1.02-.69,1.5-1.32.56-.73.88-1.26.97-1.58.09-.32.06-.6-.07-.84-.14-.24-.48-.56-1.02-.97l-.32-.25.37-.49Z"/>
      </g>
    </g>
  </g>
  <g class="cls-1">
    <g class="cls-1">
      <g class="cls-1">
        <path d="M452.4,101.34c1.88-1.87,4.02-2.75,6.42-2.62,2.39.12,4.53,1.13,6.4,3.01,1.89,1.9,2.91,4.05,3.05,6.45.14,2.4-.76,4.57-2.71,6.51-1.89,1.88-4.03,2.79-6.41,2.74-2.38-.06-4.57-1.08-6.55-3.07-1.93-1.94-2.93-4.11-2.99-6.52-.07-2.41.87-4.57,2.8-6.49ZM454.39,103.47c-1.96,1.95-3.04,3.81-3.25,5.57s.47,3.43,2.03,4.99c1.37,1.37,2.94,1.97,4.72,1.79,1.78-.18,3.64-1.24,5.59-3.18,1.9-1.89,2.96-3.73,3.19-5.52.23-1.79-.4-3.44-1.89-4.93-1.46-1.47-3.08-2.11-4.84-1.91-1.77.2-3.62,1.26-5.55,3.18Z"/>
      </g>
    </g>
  </g>
  <g class="cls-1">
    <g class="cls-1">
      <g class="cls-1">
        <path d="M476.36,127.06c2.13-1.59,4.37-2.16,6.72-1.7,2.35.46,4.33,1.75,5.92,3.88,1.61,2.15,2.31,4.42,2.12,6.81-.2,2.39-1.4,4.41-3.6,6.06-2.13,1.6-4.38,2.2-6.73,1.81-2.35-.39-4.37-1.71-6.05-3.96-1.64-2.19-2.32-4.48-2.05-6.87.27-2.39,1.5-4.4,3.68-6.04ZM478.03,129.44c-2.22,1.66-3.55,3.34-4,5.06-.45,1.72-.01,3.46,1.31,5.23,1.16,1.55,2.63,2.36,4.42,2.43,1.79.07,3.78-.72,5.98-2.37,2.14-1.6,3.45-3.27,3.93-5.02.48-1.74.09-3.46-1.18-5.14-1.24-1.66-2.75-2.52-4.53-2.57-1.78-.05-3.76.74-5.94,2.37Z"/>
      </g>
    </g>
  </g>
  <g class="cls-1">
    <g class="cls-1">
      <g class="cls-1">
        <path d="M503.44,151.26l1.49,2.41c1.24,2.01,2.07,3.38,2.46,4.09,1.23,2.24,1.86,4.17,1.87,5.8,0,1.63-.4,3.07-1.23,4.33-.83,1.25-2.01,2.3-3.53,3.15-1.1.61-2.21,1-3.31,1.17-1.1.17-2.11.13-3.04-.12-.93-.25-1.76-.67-2.49-1.26s-1.34-1.21-1.79-1.86c-.46-.65-1.03-1.6-1.72-2.85l-3.69-6.68.51-.28.34.62c.36.64.68,1.05.98,1.2.3.16.64.18,1.02.06.38-.12,1.21-.53,2.46-1.22l7.27-4.01c1.2-.66,1.96-1.13,2.27-1.39.31-.26.47-.55.48-.84s-.2-.83-.62-1.59l-.25-.44.51-.28ZM505.7,156.08l-10.07,5.56c-1.49.82-2.43,1.38-2.83,1.67-.4.29-.61.63-.63,1-.02.38.22,1.01.71,1.91.72,1.31,1.5,2.29,2.32,2.94.83.65,1.92.96,3.29.95,1.37-.02,2.87-.48,4.51-1.38,1.27-.7,2.32-1.5,3.14-2.38s1.37-1.8,1.66-2.76c.29-.96.34-1.88.15-2.75-.19-.87-.6-1.9-1.25-3.07-.31-.56-.64-1.12-1-1.68Z"/>
      </g>
    </g>
  </g>
  <g class="cls-1">
    <g class="cls-1">
      <g class="cls-1">
        <path d="M68.65,392.98l.52-.27,3.71,6.94-.52.27-.17-.32c-.4-.75-.72-1.2-.97-1.37-.25-.16-.56-.2-.94-.1-.38.1-1.2.49-2.46,1.16l-7.45,3.98c-1.2.64-1.96,1.08-2.3,1.34-.34.25-.53.55-.58.89-.05.34.11.85.48,1.54l.24.45-.51.28-3.71-6.94.52-.28.24.45c.35.65.67,1.06.97,1.22.3.16.64.18,1.02.07.38-.12,1.21-.52,2.48-1.19l7.45-3.98c1.21-.65,1.97-1.1,2.29-1.35.31-.25.48-.53.49-.84.01-.3-.19-.84-.6-1.61l-.17-.33Z"/>
      </g>
    </g>
  </g>
  <g class="cls-1">
    <g class="cls-1">
      <g class="cls-1">
        <path d="M68.8,426.77l7.07-18.94-10.08,6.42c-.83.53-1.36.92-1.57,1.17-.21.25-.31.64-.28,1.16.02.53.28,1.18.77,1.95l-.49.31-3.45-5.42.49-.31c.49.66.95,1.11,1.39,1.34.43.23.79.31,1.07.23.28-.08.86-.4,1.74-.96l7.7-4.9c1.11-.71,1.83-1.24,2.14-1.58.31-.34.45-.66.41-.96-.04-.29-.3-.83-.8-1.61l.49-.31,2.73,4.28-5.89,15.83,8.68-5.53c.64-.41,1.05-.76,1.22-1.06.17-.3.2-.7.1-1.2-.11-.5-.35-1.04-.71-1.61l.49-.31,3.36,5.27-.49.31c-.44-.58-.87-.99-1.28-1.23-.41-.23-.78-.32-1.1-.25-.32.07-.79.3-1.41.7l-12.01,7.65-.29-.46Z"/>
      </g>
    </g>
  </g>
  <g class="cls-1">
    <g class="cls-1">
      <g class="cls-1">
        <path d="M93.27,445.76l6.54-1.11c1.07-.18,1.75-.39,2.05-.65.27-.23.42-.55.46-.97.03-.42-.2-.92-.69-1.5l.44-.38,3.65,4.28-.44.38c-.59-.52-1.22-.81-1.88-.87-.67-.06-1.71.03-3.14.26l-7.4,1.23-1.74,1.48c-1.11.95-1.8,1.59-2.05,1.92-.25.33-.34.66-.28.99.06.33.37.82.93,1.47l-.44.38-4.76-5.59.44-.38.18.21c.48.56.88.89,1.2.98.33.1.66.04,1.01-.15.35-.2,1.07-.76,2.17-1.7l1.61-1.37,2.58-7.83c.52-1.59.79-2.58.81-2.97.02-.4-.2-.89-.67-1.46l.44-.38,4.53,5.32-.44.38c-.84-.99-1.49-1.3-1.94-.91-.18.15-.4.62-.66,1.41l-2.51,7.54Z"/>
      </g>
    </g>
  </g>
  <g class="cls-1">
    <g class="cls-1">
      <g class="cls-1">
        <path d="M102.18,454.13c1.86-1.9,3.99-2.8,6.38-2.7,2.4.1,4.54,1.07,6.44,2.94,1.92,1.88,2.96,4.02,3.13,6.41s-.71,4.57-2.63,6.54c-1.87,1.9-3.99,2.84-6.38,2.81-2.39-.03-4.58-1.02-6.59-2.99-1.95-1.91-2.98-4.07-3.07-6.48-.1-2.4.81-4.58,2.72-6.53ZM104.19,456.23c-1.94,1.98-3,3.85-3.18,5.61-.18,1.76.51,3.42,2.09,4.97,1.38,1.36,2.96,1.93,4.74,1.73,1.78-.2,3.63-1.29,5.55-3.25,1.87-1.91,2.91-3.76,3.12-5.55.21-1.8-.44-3.43-1.95-4.91-1.48-1.45-3.1-2.07-4.87-1.85-1.76.22-3.6,1.3-5.51,3.25Z"/>
      </g>
    </g>
  </g>
  <g class="cls-1">
    <g class="cls-1">
      <g class="cls-1">
        <path d="M136.06,473.19l4.49,3.59-.36.46c-.63-.44-1.18-.66-1.65-.66-.48,0-.86.11-1.15.34-.29.23-.77.76-1.42,1.58l-3.57,4.47c-.91,1.14-1.64,1.96-2.17,2.44-.53.48-1.23.82-2.08,1.02-.85.19-1.79.14-2.82-.16-1.03-.3-2.05-.86-3.06-1.66-1.2-.96-2.05-1.97-2.55-3.04-.5-1.07-.68-2.07-.52-3,.16-.93.67-1.93,1.54-3.02l1.11-1.37,3.34-4.19c.86-1.07,1.38-1.79,1.56-2.15s.22-.68.12-.96c-.11-.28-.5-.69-1.18-1.24l-.31-.25.36-.46,6.14,4.91-.36.46-.27-.21c-.66-.53-1.14-.82-1.43-.88-.29-.05-.59.04-.9.28s-.91.92-1.8,2.04l-3.38,4.24c-1.17,1.47-1.94,2.56-2.29,3.29-.36.72-.4,1.57-.14,2.53.26.96.91,1.86,1.96,2.69.82.66,1.69,1.1,2.6,1.33.92.23,1.72.24,2.42.05.69-.2,1.27-.51,1.73-.94.46-.43,1.11-1.16,1.94-2.21l3.66-4.58c.61-.76.99-1.33,1.15-1.7.16-.37.16-.76.02-1.17-.14-.4-.5-.87-1.09-1.4l.36-.46Z"/>
      </g>
    </g>
  </g>
  <g class="cls-1">
    <g class="cls-1">
      <g class="cls-1">
        <path d="M150.59,504.11l-3.88-2.53c-.37-.93-.61-2.88-.69-5.84-.03-.95-.09-1.88-.19-2.8-.1-.92-.2-1.5-.3-1.75-.1-.25-.34-.5-.73-.76l-.57-.37-2.08,3.2c-.74,1.14-1.2,1.9-1.37,2.28-.18.39-.2.74-.08,1.06.12.32.51.69,1.16,1.12l.69.45-.32.49-6.91-4.5.32-.49.47.3c.62.4,1.09.6,1.43.6.34,0,.65-.15.93-.43.28-.29.81-1.04,1.6-2.24l4.61-7.08c.75-1.15,1.2-1.91,1.35-2.29.15-.38.16-.7.02-.97-.14-.27-.57-.64-1.3-1.12l-.24-.16.32-.49,2.13,1.24c1.42.83,2.53,1.51,3.34,2.04,1.38.9,2.41,1.75,3.11,2.57.7.82,1.12,1.69,1.27,2.62.15.93-.03,1.79-.56,2.6-.61.94-1.49,1.52-2.62,1.74-1.13.21-2.42-.04-3.87-.75.41.68.7,2.37.87,5.05.14,2.18.37,3.7.7,4.56.33.86.91,1.58,1.74,2.16l-.32.49ZM144.53,489.57c.54.33,1.1.67,1.69,1.01.59.34,1.13.58,1.63.73.5.14.96.18,1.38.1.42-.08.83-.26,1.24-.57.41-.3.8-.74,1.18-1.32.66-1.01.94-1.99.83-2.93-.11-.94-1.02-1.96-2.72-3.07-.26-.17-.57-.35-.93-.55l-4.29,6.6Z"/>
      </g>
    </g>
  </g>
  <g class="cls-1">
    <g class="cls-1">
      <g class="cls-1">
        <path d="M170.42,505.13c1.11-2.41,2.81-3.98,5.1-4.7,2.29-.72,4.64-.52,7.05.59,2.44,1.12,4.14,2.78,5.11,4.98s.88,4.55-.27,7.04c-1.12,2.42-2.8,4.02-5.06,4.8s-4.66.58-7.21-.6c-2.48-1.14-4.17-2.83-5.07-5.06-.9-2.23-.78-4.59.36-7.06ZM173.02,506.42c-1.16,2.51-1.53,4.63-1.1,6.35.42,1.72,1.64,3.05,3.64,3.97,1.76.81,3.44.82,5.04.03,1.6-.79,2.98-2.43,4.13-4.93,1.12-2.43,1.47-4.52,1.06-6.28-.41-1.76-1.57-3.08-3.49-3.96-1.88-.87-3.62-.9-5.2-.1-1.59.8-2.95,2.44-4.09,4.92Z"/>
      </g>
    </g>
  </g>
  <g class="cls-1">
    <g class="cls-1">
      <g class="cls-1">
        <path d="M206.42,529.42l-.54-.18-.47-15.12-8.85,12.01-.58-.19.31-14.03c.03-1.27.04-2.13,0-2.56-.03-.43-.14-.78-.33-1.05-.19-.27-.58-.51-1.16-.73l.18-.55,6.13,2.05-.18.55c-.75-.2-1.26-.25-1.53-.16-.26.09-.45.29-.54.59-.09.26-.15,1-.17,2.2l-.27,10.49,8.64-11.69.67.23.41,14.71,5.39-7.84c.72-1.06,1.14-1.77,1.26-2.13.35-1.06-.03-1.78-1.17-2.16l.18-.55,4.46,1.49-.19.55c-.67-.17-1.25-.09-1.71.24-.47.33-1.22,1.25-2.27,2.74l-7.7,11.09Z"/>
      </g>
    </g>
  </g>
  <g class="cls-1">
    <g class="cls-1">
      <g class="cls-1">
        <path d="M233.95,536.3l-8.47-18.35-2.54,11.67c-.21.97-.3,1.62-.27,1.94.03.33.24.67.63,1.02.39.35,1.03.63,1.93.82l-.12.57-6.28-1.36.12-.57c.81.12,1.46.1,1.93-.04.47-.14.78-.34.92-.6.14-.26.32-.89.54-1.91l1.94-8.92c.28-1.29.41-2.17.38-2.63-.02-.46-.15-.79-.39-.97s-.8-.37-1.7-.57l.12-.57,4.96,1.08,7.1,15.33,2.19-10.06c.16-.74.2-1.28.11-1.61-.09-.33-.35-.63-.78-.91-.43-.28-.98-.49-1.64-.63l.12-.57,6.1,1.33-.12.57c-.72-.1-1.31-.08-1.77.04-.46.12-.77.33-.95.61-.18.28-.34.78-.5,1.49l-3.03,13.92-.53-.12Z"/>
      </g>
    </g>
  </g>
  <g class="cls-1">
    <g class="cls-1">
      <g class="cls-1">
        <path d="M270.29,540.62l-10.99-16.97-.86,11.92c-.07.99-.07,1.64,0,1.96.07.32.33.63.77.92.44.3,1.11.47,2.02.54l-.04.58-6.41-.46.04-.58c.82,0,1.46-.1,1.91-.32.45-.21.72-.45.82-.72.1-.27.19-.93.26-1.97l.65-9.1c.09-1.32.1-2.2,0-2.66-.09-.46-.26-.76-.52-.9-.26-.15-.85-.25-1.77-.32l.04-.58,5.06.36,9.2,14.17.74-10.27c.05-.76.01-1.3-.12-1.61-.13-.31-.44-.58-.9-.79-.47-.21-1.04-.34-1.72-.39l.04-.58,6.23.45-.04.58c-.73,0-1.31.11-1.75.29-.43.19-.72.43-.85.73-.14.3-.23.82-.28,1.55l-1.02,14.21-.54-.04Z"/>
      </g>
    </g>
  </g>
  <g class="cls-1">
    <g class="cls-1">
      <g class="cls-1">
        <path d="M294.01,534.94h.61s-.27,5.35-.27,5.35l-14.25.25v-.58s.35,0,.35,0c.85-.01,1.41-.14,1.65-.37.25-.23.4-.53.46-.88.06-.35.08-1.25.05-2.69l-.15-8.44c-.02-1.31-.07-2.17-.15-2.59s-.25-.7-.51-.86c-.26-.16-.81-.23-1.64-.22v-.58s12.29-.22,12.29-.22l.48,4.28h-.6c-.29-1.19-.64-2.03-1.04-2.53-.4-.5-.88-.8-1.42-.93-.54-.12-1.42-.17-2.62-.15l-2.39.04.13,7.22,1.83-.03c.84-.01,1.42-.1,1.75-.25.33-.15.55-.37.65-.67.1-.29.14-.86.13-1.71h.6s.1,5.88.1,5.88h-.6c-.02-.95-.11-1.59-.28-1.91-.17-.32-.4-.53-.72-.62-.31-.09-.83-.13-1.57-.12l-1.89.03.07,4.08c.04,2.04.19,3.24.46,3.59.27.36.98.52,2.13.5l1.28-.02c.91-.02,1.65-.15,2.23-.39.58-.24,1.13-.73,1.64-1.46.52-.73.92-1.74,1.2-3.01Z"/>
      </g>
    </g>
  </g>
  <g class="cls-1">
    <g class="cls-1">
      <g class="cls-1">
        <path d="M300.02,523.24l-.05-.58,7.84-.68.05.58-.37.03c-.84.07-1.39.19-1.64.35-.25.16-.4.44-.46.82-.06.39-.02,1.29.1,2.72l.73,8.41c.12,1.35.23,2.23.33,2.64.1.41.3.71.59.89.29.18.83.23,1.6.17l.51-.04.05.58-7.84.68-.05-.58.51-.04c.73-.06,1.23-.2,1.5-.41.27-.21.42-.51.46-.91.04-.4,0-1.32-.12-2.75l-.73-8.41c-.12-1.37-.23-2.24-.34-2.63-.11-.39-.3-.65-.58-.78-.27-.13-.85-.16-1.71-.08l-.37.03Z"/>
      </g>
    </g>
  </g>
  <g class="cls-1">
    <g class="cls-1">
      <g class="cls-1">
        <path d="M325.92,529.39l7.33-1.22.1.6c-.81.13-1.34.31-1.61.52-.26.21-.41.51-.43.91-.03.4.08,1.32.32,2.79l.3,1.8c-.21,0-.39.01-.55.04-.64.11-1.45.44-2.43,1.01-1.33.77-2.6,1.26-3.81,1.46-2.43.4-4.58-.06-6.46-1.39s-3.02-3.22-3.43-5.68c-.4-2.43.01-4.69,1.24-6.77,1.23-2.08,3.17-3.34,5.81-3.78,2.27-.38,4.29.15,6.05,1.57.18-.63.25-1.29.21-1.98l.6-.1.94,5.67-.6.1c-.53-1.7-1.42-2.98-2.67-3.82-1.25-.84-2.65-1.13-4.19-.87-1.6.27-2.89,1.09-3.88,2.47-.99,1.38-1.23,3.58-.73,6.61.5,3.01,1.43,5.05,2.78,6.12,1.35,1.07,2.88,1.46,4.57,1.18.87-.14,1.63-.45,2.28-.92s1.06-.99,1.24-1.54.2-1.22.07-1.99c-.15-.91-.31-1.51-.48-1.79-.17-.28-.39-.46-.66-.52-.27-.06-.73-.04-1.4.07l-.4.07-.1-.6Z"/>
      </g>
    </g>
  </g>
  <g class="cls-1">
    <g class="cls-1">
      <g class="cls-1">
        <path d="M352.64,521.91l-8.67,2.36,1.09,4c.36,1.31.62,2.15.8,2.54.18.39.42.64.74.77.32.12.85.08,1.59-.12l.43-.12.15.56-7.47,2.04-.15-.56.43-.12c.71-.19,1.18-.42,1.4-.67.22-.25.32-.58.3-.98-.03-.4-.23-1.3-.61-2.68l-2.22-8.15c-.36-1.32-.63-2.17-.81-2.53-.18-.36-.42-.58-.71-.66-.29-.08-.85,0-1.7.23l-.31.08-.15-.56,7.47-2.04.15.56-.31.08c-.81.22-1.32.43-1.54.64-.22.2-.32.5-.3.89.01.39.21,1.28.59,2.66l.9,3.29,8.67-2.36-.9-3.29c-.36-1.32-.63-2.17-.81-2.53-.18-.36-.41-.58-.7-.66s-.85,0-1.7.23l-.44.12-.15-.56,7.56-2.06.15.56-.25.07c-.82.22-1.33.44-1.55.64-.22.2-.32.5-.3.89.01.39.21,1.28.59,2.66l2.22,8.14c.36,1.31.62,2.15.79,2.54.17.39.42.64.74.77.32.12.86.08,1.6-.12l.38-.1.15.56-7.56,2.06-.15-.56.58-.16c.7-.19,1.17-.41,1.39-.67.22-.25.32-.58.29-.98-.03-.4-.23-1.29-.61-2.68l-1.09-4Z"/>
      </g>
    </g>
  </g>
  <g class="cls-1">
    <g class="cls-1">
      <g class="cls-1">
        <path d="M371.03,515.02c1.88-.55,3.41-.61,4.59-.17,1.18.44,1.99,1.25,2.43,2.41.38,1.01.41,2,.08,2.96-.33.96-.92,1.73-1.77,2.31-.86.58-2.07,1.17-3.65,1.76l-6.32,2.38-.21-.55.62-.23c.69-.26,1.13-.53,1.33-.8.2-.27.27-.61.2-1-.07-.4-.35-1.27-.86-2.61l-2.95-7.84c-.49-1.31-.85-2.14-1.07-2.49-.22-.35-.47-.55-.77-.6-.3-.05-.85.08-1.67.38l-.31.12-.21-.55,2.62-1.07,2.98-1.23c4.4-1.66,7.08-1.22,8.04,1.32.39,1.05.33,2.03-.19,2.95-.52.92-1.5,1.77-2.93,2.57ZM368.03,515.89c.2-.07.37-.12.5-.18,1.71-.64,2.78-1.35,3.2-2.13.42-.77.41-1.76-.04-2.97-.32-.84-.68-1.44-1.1-1.81-.42-.37-.92-.58-1.5-.65-.58-.06-1.47.13-2.66.57-.31.12-.62.25-.94.39l2.54,6.76ZM368.25,516.47l1.35,3.59c.58,1.53.97,2.49,1.18,2.88.21.39.48.65.8.77.32.12.84.05,1.55-.22,1.27-.48,2.1-1.16,2.49-2.05.39-.89.34-1.98-.15-3.28-.5-1.33-1.23-2.18-2.18-2.54-.95-.36-2.33-.2-4.14.48-.29.11-.58.23-.89.36Z"/>
      </g>
    </g>
  </g>
  <g class="cls-1">
    <g class="cls-1">
      <g class="cls-1">
        <path d="M383.28,510.75c-1.17-2.39-1.3-4.69-.41-6.92.89-2.23,2.53-3.92,4.92-5.09,2.41-1.18,4.77-1.45,7.09-.81,2.31.64,4.08,2.2,5.28,4.67,1.17,2.39,1.34,4.71.52,6.95s-2.5,3.97-5.02,5.21c-2.46,1.2-4.83,1.44-7.13.73-2.3-.71-4.05-2.29-5.24-4.74ZM385.93,509.55c1.21,2.49,2.62,4.11,4.22,4.87,1.6.76,3.4.66,5.38-.31,1.74-.85,2.81-2.15,3.21-3.89.4-1.74,0-3.85-1.21-6.32-1.17-2.4-2.57-4-4.19-4.8-1.62-.79-3.38-.73-5.27.2-1.86.91-2.99,2.23-3.37,3.97-.38,1.73.03,3.83,1.22,6.28Z"/>
      </g>
    </g>
  </g>
  <g class="cls-1">
    <g class="cls-1">
      <g class="cls-1">
        <path d="M406.51,498.97c-1.41-2.25-1.79-4.53-1.14-6.84.65-2.31,2.11-4.17,4.36-5.58,2.27-1.42,4.6-1.94,6.96-1.55,2.37.39,4.28,1.76,5.74,4.09,1.42,2.26,1.83,4.55,1.25,6.86s-2.07,4.21-4.45,5.71c-2.32,1.45-4.66,1.94-7.02,1.47s-4.26-1.86-5.71-4.17ZM409.02,497.5c1.47,2.35,3.04,3.81,4.71,4.4,1.67.59,3.45.3,5.32-.87,1.64-1.03,2.57-2.43,2.79-4.2.22-1.77-.4-3.83-1.87-6.16-1.42-2.27-2.98-3.71-4.67-4.33-1.7-.62-3.44-.37-5.22.75-1.76,1.1-2.73,2.53-2.93,4.3-.2,1.77.43,3.8,1.87,6.11Z"/>
      </g>
    </g>
  </g>
  <g class="cls-1">
    <g class="cls-1">
      <g class="cls-1">
        <path d="M447.6,480.9l-3.66,2.84c-1,.05-2.92-.37-5.75-1.26-.91-.28-1.81-.53-2.71-.74-.9-.21-1.48-.31-1.76-.29-.27.01-.59.16-.96.44l-.54.42,2.34,3.02c.83,1.07,1.4,1.75,1.7,2.04.31.29.63.43.97.43.34,0,.82-.25,1.44-.73l.65-.51.36.46-6.51,5.05-.36-.46.44-.34c.58-.45.93-.84,1.04-1.16.11-.32.07-.66-.11-1.02-.18-.36-.71-1.11-1.59-2.24l-5.17-6.67c-.84-1.08-1.41-1.76-1.72-2.03s-.61-.38-.91-.34-.79.33-1.48.86l-.23.18-.36-.46,1.87-1.61c1.25-1.07,2.26-1.89,3.02-2.49,1.3-1.01,2.45-1.7,3.45-2.09,1-.39,1.96-.5,2.89-.34.93.16,1.69.62,2.28,1.38.69.89.95,1.9.78,3.04-.17,1.14-.83,2.28-1.98,3.41.78-.17,2.46.11,5.05.84,2.1.59,3.62.86,4.54.84.92-.03,1.79-.34,2.62-.93l.36.46ZM431.87,481.85c.49-.4.99-.82,1.51-1.27s.92-.88,1.22-1.3c.3-.43.48-.85.55-1.27.06-.42.02-.87-.13-1.36-.15-.48-.44-1-.86-1.55-.74-.96-1.57-1.54-2.5-1.74s-2.19.32-3.79,1.56c-.25.19-.52.42-.82.7l4.82,6.22Z"/>
      </g>
    </g>
  </g>
  <g class="cls-1">
    <g class="cls-1">
      <g class="cls-1">
        <path d="M456.78,460.78l-6.53,6.18,2.85,3.02c.93.98,1.56,1.6,1.9,1.86.34.26.68.37,1.01.33.34-.04.79-.33,1.35-.86l.32-.3.4.42-5.62,5.32-.4-.42.32-.31c.53-.51.84-.92.92-1.25.08-.33,0-.67-.2-1.01-.21-.34-.81-1.04-1.8-2.08l-5.8-6.13c-.94-1-1.58-1.61-1.91-1.85-.33-.23-.64-.32-.94-.25-.29.07-.76.4-1.39,1l-.23.22-.4-.42,5.62-5.32.4.42-.23.22c-.61.58-.96,1-1.06,1.29-.09.28-.04.59.15.93.2.34.79,1.03,1.77,2.07l2.35,2.48,6.53-6.18-2.35-2.48c-.94-1-1.58-1.61-1.91-1.85s-.64-.32-.93-.26c-.29.07-.76.4-1.39,1l-.33.31-.4-.42,5.69-5.38.4.42-.18.17c-.61.58-.97,1.01-1.06,1.29-.09.28-.04.59.15.93.2.34.79,1.03,1.77,2.07l5.8,6.13c.93.98,1.56,1.61,1.9,1.87.33.26.67.37,1.01.32.34-.04.79-.33,1.35-.86l.29-.27.4.42-5.69,5.38-.4-.42.43-.41c.53-.5.83-.91.91-1.25s0-.67-.21-1c-.22-.34-.82-1.03-1.81-2.07l-2.85-3.02Z"/>
      </g>
    </g>
  </g>
  <g class="cls-1">
    <g class="cls-1">
      <g class="cls-1">
        <path d="M465.14,452.23c-2.01-1.73-3.05-3.8-3.12-6.19-.06-2.4.77-4.6,2.51-6.62,1.75-2.04,3.81-3.22,6.19-3.54,2.38-.33,4.61.41,6.7,2.2,2.02,1.74,3.1,3.8,3.23,6.18.13,2.38-.72,4.64-2.55,6.77-1.78,2.07-3.87,3.24-6.26,3.49-2.39.25-4.62-.51-6.69-2.28ZM467.11,450.09c2.1,1.8,4.04,2.74,5.81,2.81,1.77.07,3.38-.74,4.82-2.41,1.26-1.47,1.74-3.08,1.42-4.84-.32-1.76-1.52-3.53-3.61-5.33-2.03-1.74-3.95-2.66-5.75-2.75-1.8-.09-3.39.67-4.77,2.26-1.35,1.57-1.86,3.23-1.52,4.98.34,1.74,1.54,3.51,3.61,5.28Z"/>
      </g>
    </g>
  </g>
  <g class="cls-1">
    <g class="cls-1">
      <g class="cls-1">
        <path d="M481.85,432.21c-2.19-1.51-3.43-3.46-3.74-5.83-.31-2.38.29-4.66,1.8-6.84,1.53-2.21,3.46-3.6,5.79-4.17,2.33-.57,4.63-.08,6.89,1.49,2.19,1.52,3.48,3.45,3.85,5.81.38,2.36-.23,4.69-1.83,7-1.56,2.25-3.51,3.62-5.86,4.12s-4.65-.02-6.89-1.57ZM483.57,429.87c2.28,1.58,4.3,2.3,6.07,2.19,1.77-.12,3.28-1.09,4.54-2.9,1.1-1.59,1.4-3.25.9-4.96-.5-1.71-1.88-3.36-4.14-4.92-2.2-1.52-4.2-2.23-6-2.13-1.8.1-3.3,1.02-4.5,2.75-1.18,1.71-1.51,3.41-1,5.11.52,1.7,1.9,3.32,4.14,4.88Z"/>
      </g>
    </g>
  </g>
  <g class="cls-1">
    <g class="cls-1">
      <g class="cls-1">
        <path d="M488.67,407.14l1.24-2.55c1.04-2.12,1.75-3.55,2.15-4.27,1.23-2.24,2.54-3.8,3.91-4.67,1.37-.88,2.81-1.3,4.32-1.27,1.5.03,3.02.47,4.55,1.31,1.1.61,2.02,1.33,2.75,2.17.73.84,1.24,1.71,1.52,2.63.28.92.37,1.84.26,2.78s-.31,1.78-.61,2.51c-.3.73-.8,1.72-1.49,2.98l-3.68,6.68-.51-.28.34-.62c.36-.64.52-1.14.49-1.47-.03-.34-.19-.64-.5-.9-.31-.26-1.09-.74-2.35-1.43l-7.27-4.01c-1.2-.66-2-1.05-2.39-1.18-.39-.12-.71-.11-.97.05-.25.15-.59.61-1.01,1.38l-.25.44-.51-.28ZM491.54,402.67l10.07,5.55c1.49.82,2.46,1.32,2.93,1.5s.85.18,1.18,0c.33-.18.74-.72,1.23-1.62.72-1.31,1.14-2.49,1.24-3.53.11-1.04-.21-2.14-.96-3.29-.75-1.15-1.94-2.18-3.57-3.08-1.28-.7-2.5-1.17-3.69-1.39-1.18-.22-2.26-.2-3.22.07-.97.27-1.77.72-2.41,1.34-.64.62-1.28,1.52-1.93,2.69-.31.56-.61,1.14-.89,1.74Z"/>
      </g>
    </g>
  </g>
  <path d="M477.79,186.11c-17.83-35.68-45.11-65.8-78.89-87.13-34.71-21.91-74.87-33.49-116.12-33.49s-81.41,11.58-116.12,33.49c-33.79,21.32-61.06,51.45-78.89,87.13l-4.47-2.24c18.23-36.49,46.14-67.31,80.69-89.12,35.51-22.41,76.59-34.26,118.79-34.26s83.28,11.85,118.79,34.26c34.56,21.81,62.46,52.63,80.7,89.12l-4.47,2.24Z"/>
  <g class="cls-1">
    <g class="cls-1">
      <g class="cls-1">
        <path d="M135.84,385.5v4.17c0,1.56.04,2.58.11,3.07.07.48.27.84.59,1.08s.93.35,1.82.35h.66v.67h-9.1v-.67h.53c.85,0,1.44-.11,1.77-.32s.53-.55.62-1c.09-.45.13-1.51.13-3.17v-9.74c0-1.58-.04-2.6-.13-3.06s-.28-.78-.59-.95-.96-.26-1.96-.26h-.37v-.67l2.49-.09c1.99-.07,3.54-.1,4.66-.1,2.05,0,3.63.16,4.74.48s2.02.89,2.72,1.71,1.06,1.86,1.06,3.11c0,1.08-.24,2.04-.73,2.87s-1.18,1.46-2.08,1.89-2.49.64-4.77.64h-2.18ZM135.84,384.77h1.42c1.14,0,2.07-.11,2.77-.34s1.29-.71,1.76-1.44.7-1.64.7-2.71c0-1.64-.4-2.84-1.21-3.61s-2.11-1.15-3.92-1.15c-.66,0-1.17.02-1.52.06v9.2Z"/>
        <path d="M155.59,375.66v-.67h9.08v.67h-.42c-.98,0-1.62.08-1.92.24-.3.16-.51.46-.61.9s-.15,1.48-.15,3.13v9.74c0,1.56.04,2.58.11,3.07.07.48.27.84.59,1.08s.93.35,1.82.35h.59v.67h-9.08v-.67h.59c.85,0,1.44-.11,1.77-.32s.53-.55.62-1c.09-.45.13-1.51.13-3.17v-9.74c0-1.58-.04-2.6-.13-3.06s-.28-.78-.59-.95-.96-.26-1.96-.26h-.42Z"/>
        <path d="M175.34,394.85v-.51l12.82-18.68h-6.18c-1.33,0-2.19.05-2.6.16s-.87.5-1.4,1.17-.93,1.53-1.2,2.57h-.64l.64-4.57h14.77v.67l-12.69,18.52h6.06c2.06,0,3.37-.16,3.93-.48s1.06-.88,1.52-1.67.8-1.56,1.03-2.31h.67l-.67,5.14h-16.05Z"/>
        <path d="M203.4,394.85v-.51l12.82-18.68h-6.18c-1.33,0-2.19.05-2.6.16s-.87.5-1.4,1.17-.93,1.53-1.2,2.57h-.64l.64-4.57h14.77v.67l-12.69,18.52h6.06c2.06,0,3.37-.16,3.93-.48s1.06-.88,1.52-1.67.8-1.56,1.03-2.31h.67l-.67,5.14h-16.05Z"/>
        <path d="M243.5,387.53h-7.54l-.51,1.26c-.76,1.83-1.14,3.02-1.14,3.57,0,.6.2,1.05.61,1.36.41.31.93.46,1.56.46v.67h-5.9v-.67c.88-.14,1.53-.45,1.96-.93.43-.48.95-1.5,1.55-3.05.05-.15.28-.71.7-1.7l5.77-13.78h.57l6.64,15.78.91,2.08c.21.47.48.84.83,1.11.35.27.87.44,1.56.51v.67h-7.81v-.67c.96,0,1.6-.07,1.94-.21.34-.14.51-.42.51-.84,0-.21-.22-.85-.67-1.92l-1.52-3.68ZM243.25,386.87l-3.52-8.47-3.5,8.47h7.02Z"/>
        <path d="M277.41,387.69h7.19v2.21h-7.19v-2.21Z"/>
      </g>
    </g>
    <g class="cls-1">
      <g class="cls-1">
        <path d="M318.14,385.5v4.17c0,1.56.04,2.58.11,3.07.07.48.27.84.59,1.08s.93.35,1.82.35h.66v.67h-9.1v-.67h.53c.85,0,1.44-.11,1.76-.32s.54-.55.62-1c.09-.45.13-1.51.13-3.17v-9.74c0-1.58-.04-2.6-.13-3.06s-.28-.78-.59-.95-.96-.26-1.96-.26h-.37v-.67l2.49-.09c1.99-.07,3.54-.1,4.66-.1,2.05,0,3.63.16,4.74.48s2.02.89,2.72,1.71,1.06,1.86,1.06,3.11c0,1.08-.24,2.04-.73,2.87s-1.18,1.46-2.08,1.89-2.49.64-4.77.64h-2.18ZM318.14,384.77h1.42c1.14,0,2.07-.11,2.77-.34s1.29-.71,1.76-1.44.7-1.64.7-2.71c0-1.64-.4-2.84-1.21-3.61s-2.11-1.15-3.92-1.15c-.66,0-1.17.02-1.52.06v9.2Z"/>
      </g>
    </g>
    <g class="cls-1">
      <g class="cls-1">
        <path d="M347.28,387.53h-7.54l-.51,1.26c-.76,1.83-1.14,3.02-1.14,3.57,0,.6.2,1.05.61,1.36.41.31.93.46,1.56.46v.67h-5.9v-.67c.88-.14,1.53-.45,1.96-.93.43-.48.95-1.5,1.55-3.05.05-.15.28-.71.7-1.7l5.77-13.78h.57l6.64,15.78.91,2.08c.21.47.48.84.83,1.11.35.27.87.44,1.56.51v.67h-7.81v-.67c.96,0,1.6-.07,1.94-.21.34-.14.51-.42.51-.84,0-.21-.22-.85-.67-1.92l-1.52-3.68ZM347.03,386.87l-3.52-8.47-3.5,8.47h7.02Z"/>
        <path d="M365.38,394.65v-6.39h.73c.83,4.16,2.8,6.24,5.9,6.24,1.4,0,2.48-.4,3.24-1.19s1.15-1.69,1.15-2.67-.34-1.83-1.01-2.5c-.67-.66-1.9-1.38-3.69-2.14-1.59-.68-2.79-1.28-3.6-1.79-.81-.51-1.44-1.18-1.9-2s-.68-1.69-.68-2.62c0-1.42.49-2.59,1.47-3.54.98-.94,2.22-1.41,3.73-1.41.84,0,1.63.14,2.37.41s1.5.84,2.29,1.7c.45-.54.7-1.12.76-1.74h.64v5.2h-.64c-.37-1.51-1.03-2.71-1.97-3.57s-2.03-1.3-3.27-1.3-2.05.32-2.6.96c-.55.64-.83,1.34-.83,2.1,0,.92.35,1.69,1.04,2.33.68.64,1.92,1.37,3.71,2.17,1.71.76,2.95,1.38,3.73,1.84.78.46,1.4,1.11,1.87,1.93s.7,1.77.7,2.84c0,1.7-.57,3.08-1.7,4.15s-2.65,1.6-4.54,1.6c-2.18,0-3.99-.83-5.45-2.5-.32.46-.56,1.1-.72,1.93h-.73Z"/>
      </g>
    </g>
    <g class="cls-1">
      <g class="cls-1">
        <path d="M390.34,379.76h-.67l.1-4.78h19.28l.1,4.78h-.63c-.22-1.31-.53-2.25-.92-2.83s-.81-.94-1.26-1.07c-.45-.13-1.22-.2-2.3-.2h-3.19v14.02c0,1.55.04,2.57.11,3.06s.27.85.59,1.08.93.35,1.82.35h.97v.67h-9.9v-.67h1.03c.85,0,1.44-.11,1.76-.32s.54-.55.63-1c.09-.45.14-1.51.14-3.17v-14.02h-2.94c-1.28,0-2.14.06-2.58.18s-.85.49-1.24,1.11-.68,1.55-.89,2.81Z"/>
      </g>
    </g>
    <g class="cls-1">
      <g class="cls-1">
        <path d="M429.26,387.53h-7.54l-.51,1.26c-.76,1.83-1.14,3.02-1.14,3.57,0,.6.2,1.05.61,1.36.41.31.92.46,1.56.46v.67h-5.9v-.67c.88-.14,1.53-.45,1.96-.93.43-.48.95-1.5,1.55-3.05.05-.15.28-.71.7-1.7l5.77-13.78h.57l6.64,15.78.91,2.08c.21.47.48.84.83,1.11.35.27.87.44,1.56.51v.67h-7.81v-.67c.96,0,1.6-.07,1.94-.21.34-.14.5-.42.5-.84,0-.21-.22-.85-.67-1.92l-1.52-3.68ZM429.01,386.87l-3.52-8.47-3.5,8.47h7.02Z"/>
      </g>
    </g>
    <g class="cls-1">
      <g class="cls-1">
        <path d="M212.43,418.85h6.27v.67c-.78.21-1.47.6-2.08,1.14-.58.53-1.18,1.56-1.82,3.09-.53,1.26-1.01,2.18-1.45,2.75,1.04,1.5,1.87,2.45,2.46,2.84.61.4,1.24.6,1.9.6.92,0,1.63-.43,2.12-1.3h.67c-.21.8-.64,1.45-1.32,1.95-.66.49-1.44.73-2.31.73-1.9,0-3.58-.96-5.02-2.87-1.71,1.91-3.53,2.87-5.45,2.87-.69,0-1.38-.12-2.05-.38s-1.27-.64-1.8-1.12c-.53-.48-.95-1.06-1.27-1.73s-.47-1.4-.45-2.21c0-1.22.33-2.25,1-3.09.66-.83,1.95-1.88,3.85-3.16-1.14-1.59-1.71-3.03-1.71-4.32,0-1.01.39-1.91,1.17-2.71.77-.8,1.75-1.2,2.94-1.2,1.06,0,2.02.3,2.86.89.85.61,1.27,1.39,1.27,2.34,0,1.5-1.41,2.96-4.22,4.38.88,1.18,1.73,2.34,2.54,3.47s1.61,2.25,2.38,3.35c.56-.77,1-1.58,1.32-2.42.32-.83.48-1.48.48-1.96,0-1.12-.76-1.77-2.29-1.95v-.67ZM206.12,420.24c-1.02.63-1.8,1.37-2.36,2.2-.56.84-.83,1.65-.83,2.42,0,1.21.48,2.35,1.45,3.41s2.06,1.6,3.28,1.6c1.35,0,2.6-.67,3.76-2.01-1.04-1.57-1.99-2.99-2.87-4.26-.88-1.26-1.69-2.38-2.43-3.36ZM207.58,418.47c1.95-1.14,2.93-2.38,2.93-3.71,0-.39-.06-.75-.17-1.08s-.27-.61-.48-.84-.46-.42-.75-.54-.62-.19-.97-.19c-.71,0-1.28.23-1.7.7-.42.46-.63,1.04-.63,1.74,0,.96.59,2.26,1.77,3.91Z"/>
        <path d="M259.86,427.42l7.24-16.44h6.09v.67h-.73c-.98,0-1.62.08-1.92.24-.3.16-.51.46-.61.9s-.15,1.48-.15,3.13v9.74c0,1.56.04,2.58.12,3.07.08.48.28.84.59,1.08s.93.35,1.82.35h.88v.67h-9.49v-.67h.7c.84,0,1.42-.11,1.75-.32s.54-.55.63-1c.09-.45.14-1.51.14-3.17v-12.64l-7.87,17.81h-.69l-7.92-17.81v11.63c0,1.59.05,2.68.15,3.25s.4,1.08.91,1.52c.51.44,1.22.68,2.14.74v.67h-7.1v-.67c.85-.05,1.54-.28,2.07-.7s.86-.93.97-1.53.18-1.73.18-3.37v-8.64c0-1.58-.05-2.6-.14-3.06s-.29-.78-.59-.95-.95-.26-1.96-.26h-.54v-.67h6.05l7.28,16.44Z"/>
        <path d="M284.3,420.79c0-3.07,1.03-5.53,3.08-7.38s4.61-2.78,7.68-2.78,5.68.92,7.76,2.75,3.11,4.34,3.11,7.51-.99,5.57-2.98,7.47-4.6,2.86-7.84,2.86-5.74-.95-7.76-2.86-3.03-4.43-3.03-7.57ZM287.65,420.89c0,3.19.64,5.59,1.91,7.19s3.19,2.4,5.73,2.4c2.24,0,4-.8,5.3-2.4s1.95-3.99,1.95-7.16-.64-5.45-1.92-7.1c-1.28-1.64-3.13-2.47-5.57-2.47s-4.23.8-5.5,2.41c-1.27,1.61-1.91,3.98-1.91,7.13Z"/>
        <path d="M338.25,430.85h-5.35c-.95-.66-2.4-2.4-4.35-5.21-.62-.9-1.27-1.76-1.95-2.59-.67-.82-1.14-1.33-1.39-1.51s-.65-.27-1.19-.27h-.79v4.41c0,1.56.04,2.58.11,3.07.07.48.27.84.59,1.08s.92.35,1.82.35h.95v.67h-9.51v-.67h.64c.85,0,1.44-.11,1.77-.32s.53-.55.62-1c.09-.45.13-1.51.13-3.17v-9.74c0-1.58-.04-2.6-.13-3.06s-.28-.78-.59-.95-.96-.26-1.96-.26h-.34v-.67l2.84-.15c1.89-.09,3.4-.13,4.51-.13,1.89,0,3.44.18,4.62.53s2.15.93,2.88,1.73,1.1,1.76,1.1,2.87c0,1.3-.48,2.41-1.44,3.33s-2.36,1.49-4.22,1.71c.83.4,2.17,1.85,4.01,4.34,1.5,2.02,2.69,3.34,3.54,3.97s1.88.96,3.05,1v.67ZM323.24,420.6c.73-.02,1.49-.05,2.27-.09s1.46-.15,2.04-.32,1.04-.43,1.4-.77c.36-.34.64-.78.84-1.33s.31-1.22.31-2.02c0-1.4-.35-2.51-1.05-3.35s-2.22-1.26-4.56-1.26c-.36,0-.78.02-1.25.06v9.08Z"/>
        <path d="M364.44,424.67h.7l-.42,6.18h-16.45v-.67h.41c.99,0,1.62-.13,1.91-.4s.47-.6.55-1,.12-1.44.12-3.1v-9.74c0-1.51-.04-2.51-.12-2.99s-.27-.81-.57-1c-.3-.19-.93-.29-1.88-.29v-.67h14.19l.47,4.95h-.69c-.31-1.39-.7-2.37-1.15-2.95s-.99-.95-1.62-1.1c-.62-.15-1.63-.23-3.02-.23h-2.75v8.33h2.11c.97,0,1.64-.08,2.03-.25s.64-.42.76-.75c.12-.34.18-.99.18-1.97h.69v6.8h-.69c0-1.1-.09-1.84-.28-2.22s-.46-.62-.81-.73-.96-.17-1.81-.17h-2.18v4.7c0,2.35.15,3.74.45,4.15.3.42,1.12.62,2.45.62h1.48c1.04,0,1.9-.13,2.58-.4s1.32-.82,1.93-1.66c.61-.83,1.09-1.98,1.44-3.45Z"/>
      </g>
    </g>
  </g>
  <line x1="34.28" y1="157.83" x2="87.23" y2="185.84"/>
  <path d="M283.05,566.1c-75.61,0-146.69-29.44-200.15-82.9C29.44,429.74,0,358.66,0,283.05S29.44,136.36,82.9,82.9C136.36,29.44,207.44,0,283.05,0s146.69,29.44,200.15,82.9c53.46,53.46,82.9,124.54,82.9,200.15s-29.44,146.69-82.9,200.15-124.54,82.9-200.15,82.9ZM283.05,10c-72.93,0-141.5,28.4-193.08,79.97S10,210.12,10,283.05s28.4,141.5,79.97,193.08,120.14,79.97,193.08,79.97,141.5-28.4,193.08-79.97,79.97-120.14,79.97-193.08-28.4-141.5-79.97-193.08S355.98,10,283.05,10Z"/>
  <path d="M283.05,506.2c-48.52,0-96.72-16.5-135.71-46.46-38.56-29.63-66.77-71.28-79.44-117.27l4.82-1.33c12.39,44.95,39.97,85.66,77.67,114.63,38.12,29.29,85.23,45.42,132.66,45.42s93.38-15.24,131.49-44.06c36.87-27.9,64.42-67.52,77.58-111.58l4.79,1.43c-13.45,45.07-41.63,85.61-79.35,114.14-38.98,29.49-85.49,45.08-134.5,45.08Z"/>
  <path d="M501.05,274.86c-2.09-56.54-25.69-109.36-66.46-148.74-40.88-39.48-94.69-61.22-151.54-61.22-50.56,0-99.84,17.69-138.77,49.81-38.41,31.7-65.03,75.87-74.95,124.37l-4.9-1c10.15-49.62,37.38-94.8,76.67-127.22,39.82-32.86,90.23-50.96,141.95-50.96,58.15,0,113.2,22.24,155.01,62.63,41.71,40.28,65.85,94.32,67.99,152.15l-5,.18Z"/>
  <g class="cls-1">
    <g class="cls-1">
      <g class="cls-1">
        <path d="M163.96,218.23c-5.29-2.56-9.51-6.48-12.67-11.76-3.17-5.29-4.75-11.87-4.75-19.76,0-10.05,2.51-19.69,7.54-28.92,5.03-9.23,11.85-16.71,20.48-22.42,8.62-5.72,18.05-8.58,28.27-8.58,5.55,0,10.75.84,15.6,2.54,4.85,1.69,8.23,3.96,10.14,6.83-.87,2.25-1.62,5.09-2.27,8.51-.65,3.42-1.02,6.65-1.1,9.69l-3.25.52c0-1.3-.06-2.9-.19-4.81-.13-1.91-.33-3.64-.58-5.2-.61-4.07-2.32-7.19-5.14-9.36-2.82-2.17-7.08-3.25-12.8-3.25-9.27,0-17.66,2.69-25.16,8.06-7.5,5.37-13.37,12.26-17.61,20.67-4.25,8.41-6.37,16.9-6.37,25.48,0,6.59,1.28,12.07,3.83,16.45,2.56,4.38,5.98,7.63,10.27,9.75,4.29,2.12,9.08,3.18,14.36,3.18,9.1,0,17.59-2.97,25.48-8.9,7.89-5.94,13.87-14.41,17.94-25.42,2.34,0,3.51,1.6,3.51,4.81,0,4.51-2.25,9.6-6.76,15.28-4.51,5.68-10.47,10.51-17.88,14.5-7.41,3.98-15.23,5.98-23.47,5.98-6.33,0-12.13-1.28-17.42-3.83Z"/>
        <path d="M301.76,191.39c0,3.47-2.23,7.52-6.69,12.15-4.46,4.64-9.73,8.62-15.79,11.96-6.07,3.34-11.14,5.01-15.21,5.01s-7.28-1.02-10.14-3.06c-2.86-2.04-5.05-4.31-6.56-6.83-1.52-2.51-2.27-4.38-2.27-5.59,1.39-4.94,2.9-11.79,4.55-20.54l1.43-7.28c.35-1.73,1.6-3.53,3.77-5.4,2.17-1.86,4.59-3.42,7.28-4.68,2.69-1.26,4.85-1.88,6.5-1.88,1.3,0,2.88.41,4.75,1.23,1.86.83,3.51,2.1,4.94,3.83,1.43,1.74,2.15,3.95,2.15,6.63,0,3.12-1.04,6.07-3.12,8.84-2.08,2.77-5.16,5.03-9.23,6.76-4.07,1.73-8.97,2.6-14.69,2.6l-1.82,8.71c0,.78.45,2.08,1.36,3.9s2.38,3.47,4.42,4.94c2.04,1.47,4.62,2.21,7.73,2.21,4.16,0,8.54-1.36,13.13-4.09,4.59-2.73,8.79-6.13,12.61-10.21,3.81-4.07,6.67-8.01,8.58-11.83,1.56.26,2.34,1.13,2.34,2.6ZM263.54,171.89c-1.65.87-3.14,1.95-4.49,3.25-1.34,1.3-2.15,2.51-2.4,3.64-.87,3.9-1.65,7.84-2.34,11.83,6.67-.26,11.7-1.58,15.08-3.96,3.38-2.38,5.07-5.09,5.07-8.12,0-2.17-.78-4.03-2.34-5.59-1.56-1.56-3.08-2.34-4.55-2.34-1.04,0-2.38.43-4.03,1.3Z"/>
        <path d="M353.63,174.23c.26.43.39.91.39,1.43,0,1.82-.84,3.58-2.54,5.27s-3.9,3.05-6.63,4.09c-2.73,1.04-5.48,1.56-8.25,1.56-4.33,0-8.04-1.12-11.12-3.38-3.08-2.25-5.05-5.42-5.92-9.49-3.9.44-7.47,2.91-10.72,7.41-3.25,4.51-5.53,9.41-6.83,14.69-.17.87-.82,3.53-1.95,8-1.13,4.46-2.21,9.73-3.25,15.79-.09.26-.19.46-.32.58-.13.13-.41.19-.85.19-.61,0-1.52-.26-2.73-.78-1.21-.52-1.82-1.08-1.82-1.69,0-1.21.22-2.82.65-4.81,5.29-24.44,8.71-39.56,10.27-45.37.17-.78.37-1.3.58-1.56.22-.26.58-.39,1.11-.39.34,0,1.08.28,2.21.84,1.12.57,2.04,1.15,2.73,1.75l-2.34,7.54-.78,2.6c1.99-3.12,4.29-5.63,6.89-7.54,2.6-1.91,5.37-2.86,8.32-2.86.87,0,1.73.09,2.6.26.87.17,1.47.39,1.82.65,0,4.25,1.1,7.39,3.31,9.42,2.21,2.04,5.31,3.06,9.29,3.06,3.55,0,6.5-.61,8.84-1.82,2.34-1.21,4.38-3.29,6.11-6.24.35.09.65.35.91.78Z"/>
        <path d="M399,191.39c0,3.47-2.23,7.52-6.69,12.15-4.46,4.64-9.73,8.62-15.79,11.96-6.07,3.34-11.14,5.01-15.21,5.01s-7.28-1.02-10.14-3.06c-2.86-2.04-5.05-4.31-6.56-6.83-1.52-2.51-2.28-4.38-2.28-5.59,1.39-4.94,2.9-11.79,4.55-20.54l1.43-7.28c.34-1.73,1.6-3.53,3.77-5.4,2.17-1.86,4.59-3.42,7.28-4.68,2.68-1.26,4.85-1.88,6.5-1.88,1.3,0,2.88.41,4.75,1.23,1.86.83,3.51,2.1,4.94,3.83,1.43,1.74,2.15,3.95,2.15,6.63,0,3.12-1.04,6.07-3.12,8.84-2.08,2.77-5.16,5.03-9.23,6.76-4.07,1.73-8.97,2.6-14.69,2.6l-1.82,8.71c0,.78.46,2.08,1.37,3.9s2.38,3.47,4.42,4.94c2.04,1.47,4.62,2.21,7.73,2.21,4.16,0,8.54-1.36,13.13-4.09,4.59-2.73,8.79-6.13,12.61-10.21,3.81-4.07,6.67-8.01,8.58-11.83,1.56.26,2.34,1.13,2.34,2.6ZM360.78,171.89c-1.65.87-3.14,1.95-4.49,3.25-1.34,1.3-2.14,2.51-2.4,3.64-.87,3.9-1.65,7.84-2.34,11.83,6.67-.26,11.7-1.58,15.08-3.96,3.38-2.38,5.07-5.09,5.07-8.12,0-2.17-.78-4.03-2.34-5.59-1.56-1.56-3.08-2.34-4.55-2.34-1.04,0-2.38.43-4.03,1.3Z"/>
        <path d="M387.75,218.56c-2.9-1.99-4.35-4.29-4.35-6.89,0-1.38.39-2.51,1.17-3.38.78-.87,1.64-1.38,2.6-1.56.95,3.29,2.51,5.76,4.68,7.41,2.17,1.65,4.81,2.47,7.93,2.47,3.9,0,7.02-1.11,9.36-3.32s3.51-4.79,3.51-7.73c0-2.17-.63-4.07-1.89-5.72-1.26-1.65-3.14-3.55-5.65-5.72-2.78-2.42-4.83-4.53-6.18-6.3-1.34-1.78-2.01-3.92-2.01-6.44,0-2.68.84-5.24,2.54-7.67,1.69-2.42,3.86-4.38,6.5-5.85,2.64-1.47,5.39-2.21,8.25-2.21,2.51,0,4.83.54,6.96,1.62,2.12,1.08,3.19,2.54,3.19,4.35s-1.04,3.55-3.12,5.46c-1.13-1.99-2.51-3.53-4.16-4.62-1.65-1.08-3.38-1.62-5.2-1.62-2.77,0-4.88,1.02-6.3,3.05-1.43,2.04-2.15,4.05-2.15,6.04,0,1.65.56,3.12,1.69,4.42,1.12,1.3,2.9,2.95,5.33,4.94,2.95,2.51,5.2,4.77,6.76,6.76,1.56,2,2.34,4.33,2.34,7.02,0,2.86-.93,5.72-2.79,8.58-1.87,2.86-4.42,5.22-7.67,7.08-3.25,1.86-6.83,2.8-10.73,2.8-4.16,0-7.69-1-10.59-2.99Z"/>
      </g>
    </g>
    <g class="cls-1">
      <g class="cls-1">
        <path d="M40.01,340.7c-3.9-.74-6.98-1.62-9.23-2.67-.95-2.6-1.69-4.98-2.21-7.15l1.17-1.3c3.12,3.03,6.22,5.2,9.29,6.5,3.08,1.3,6.91,1.95,11.5,1.95,5.03,0,9.49-.91,13.39-2.73,3.9-1.82,7.45-5.22,10.66-10.21,3.21-4.98,5.94-12.03,8.19-21.12l1.69-7.02c2.95-13.69,5.72-24.92,8.32-33.67,1.39-1.64,2.82-2.9,4.29-3.77,1.47-.87,3.38-1.82,5.72-2.86l1.17.39c-2.08,2.77-4.07,7.52-5.98,14.23-1.91,6.72-3.94,14.93-6.11,24.63l-1.95,8.32c-6.24,25.05-19.11,37.57-38.61,37.57-3.64,0-7.41-.37-11.31-1.11ZM44.17,290.2c-3.21-5.2-4.81-10.49-4.81-15.86s1.6-9.95,4.81-14.24c3.21-4.29,8.08-7.71,14.62-10.27,6.54-2.55,14.58-3.83,24.12-3.83,4.68,0,8.88.26,12.61.78,3.73.52,8.67,1.34,14.82,2.47,7.37,1.56,12.96,2.34,16.77,2.34s7.34-.63,10.59-1.89c3.25-1.25,5.79-3.27,7.6-6.04-.95,4.16-3.08,7.54-6.37,10.14-3.29,2.6-7.93,3.9-13.91,3.9-2.77,0-6.11-.26-10.01-.78-3.9-.52-9.06-1.3-15.47-2.34-6.24-1.04-11.33-1.82-15.28-2.34-3.94-.52-7.26-.78-9.94-.78-4.94,0-9.53.93-13.78,2.79-4.25,1.87-7.67,4.55-10.27,8.06s-3.9,7.6-3.9,12.29,1.47,9.29,4.42,13.33c2.95,4.03,7.41,8.17,13.39,12.42l-.52.65c-1.82,0-3.25.07-4.29.2-1.04.13-2.21.41-3.51.84-4.59-2.69-8.49-6.63-11.7-11.83Z"/>
        <path d="M183.4,294.23c.26.43.39.91.39,1.43,0,1.82-.85,3.58-2.54,5.27-1.69,1.69-3.9,3.05-6.63,4.09s-5.48,1.56-8.25,1.56c-4.33,0-8.04-1.12-11.12-3.38-3.08-2.25-5.05-5.42-5.92-9.49-3.9.44-7.47,2.91-10.72,7.41-3.25,4.51-5.53,9.41-6.83,14.69-.17.87-.82,3.53-1.95,8-1.13,4.46-2.21,9.73-3.25,15.79-.09.26-.19.46-.32.58-.13.13-.41.19-.85.19-.61,0-1.52-.26-2.73-.78-1.21-.52-1.82-1.08-1.82-1.69,0-1.21.22-2.82.65-4.81,5.29-24.44,8.71-39.56,10.27-45.37.17-.78.37-1.3.58-1.56.22-.26.58-.39,1.1-.39.35,0,1.08.28,2.21.84,1.13.57,2.04,1.15,2.73,1.75l-2.34,7.54-.78,2.6c1.99-3.12,4.29-5.63,6.89-7.54,2.6-1.91,5.37-2.86,8.32-2.86.87,0,1.73.09,2.6.26.87.17,1.47.39,1.82.65,0,4.25,1.1,7.39,3.31,9.42,2.21,2.04,5.31,3.06,9.29,3.06,3.55,0,6.5-.61,8.84-1.82,2.34-1.21,4.38-3.29,6.11-6.24.35.09.65.35.91.78Z"/>
        <path d="M246.84,313.21c0,3.99-1.76,8.19-5.27,12.61-3.51,4.42-7.76,8.12-12.74,11.12-4.98,2.99-9.55,4.48-13.71,4.48-3.38,0-5.98-1.04-7.8-3.12-1.82-2.08-2.9-4.77-3.25-8.06-2.17,3.12-4.9,5.68-8.19,7.67-3.29,1.99-6.24,2.99-8.84,2.99-2.25,0-4.48-.76-6.69-2.28-2.21-1.51-4.01-3.38-5.4-5.59-1.39-2.21-2.12-4.31-2.21-6.3l6.37-26.26c.52-2.08,1.84-4.31,3.97-6.7,2.12-2.38,4.7-4.36,7.73-5.92,3.03-1.56,6.11-2.34,9.23-2.34,3.99,0,7.5,1.34,10.53,4.03.78-2.08,1.36-3.38,1.75-3.9.39-.52.98-.82,1.75-.91l6.37-.65.39.26c-1.73,1.39-2.99,3.55-3.77,6.5-2.69,10.05-4.53,17.46-5.53,22.23-1,4.77-1.49,8.97-1.49,12.61s.48,6.3,1.43,8c.95,1.69,2.56,2.54,4.81,2.54,2.77,0,6.09-1.13,9.94-3.38,3.86-2.25,7.52-5.4,10.99-9.43,3.47-4.03,6.11-8.56,7.93-13.58,1.13,0,1.69,1.13,1.69,3.38ZM192.95,333.23c2.12-1.04,4.12-2.54,5.98-4.49,1.86-1.95,3.14-4.18,3.83-6.69l2.47-10.66c.35-1.73.95-4.53,1.82-8.39.87-3.85,1.56-6.82,2.08-8.9-2.43-2.43-5.37-3.64-8.84-3.64-2.69,0-5.11.72-7.28,2.15-2.17,1.43-3.94,3.17-5.33,5.2-1.39,2.04-2.25,3.83-2.6,5.39l-5.2,23.14c.17,2.17,1.04,4.12,2.6,5.85,1.56,1.73,3.25,2.6,5.07,2.6,1.47,0,3.27-.52,5.4-1.56Z"/>
        <path d="M328.22,318.54c-.7,3.21-2.73,6.59-6.11,10.14-3.38,3.55-7.48,6.52-12.29,8.9-4.81,2.38-9.51,3.58-14.11,3.58-4.85,0-8.49-1.47-10.92-4.42-2.43-2.95-3.64-7.11-3.64-12.48,0-1.39.04-2.43.13-3.12-3.55,5.72-7.91,10.49-13.06,14.3-5.16,3.81-9.9,5.72-14.23,5.72-3.64,0-6.39-1.41-8.25-4.22-1.86-2.82-2.79-6.7-2.79-11.63s1.69-15.43,5.07-31.98l-12.61.13c-.78,0-1.34-.34-1.69-1.04,1.21-2.42,2.25-4.07,3.12-4.94l12.35.13,5.98-27.82c.78-3.73,1.5-6.2,2.15-7.41.65-1.21,1.84-1.82,3.58-1.82,1.21,0,2.08.35,2.6,1.04-.09.35-.41,1.32-.97,2.92-.56,1.6-1.1,3.53-1.62,5.79-1.65,7.54-3.51,16.64-5.59,27.3l32.24.26,6.63-30.29c.43-1.91,1.1-3.29,2.01-4.16.91-.87,2.23-1.3,3.96-1.3,1.13,0,1.69.26,1.69.78-.17.61-.5,1.52-.98,2.73-.48,1.21-.89,2.73-1.23,4.55l-5.85,27.69,23.01.13c0,1.13-.3,2.08-.91,2.86-.61.78-1.47,1.17-2.6,1.17l-20.41.26c-3.47,16.99-5.2,27.39-5.2,31.2,0,4.33.84,7.47,2.54,9.42,1.69,1.95,4.18,2.92,7.47,2.92,5.29,0,10.59-1.88,15.92-5.65,5.33-3.77,9.99-8.6,13.97-14.5.61,1.04.82,1.99.65,2.86ZM286.62,292.41l-32.5.78c-3.21,17.16-4.81,27.39-4.81,30.68,0,3.64.56,6.54,1.69,8.71,1.13,2.17,2.69,3.25,4.68,3.25,2.95,0,6.48-1.6,10.6-4.81,4.12-3.21,7.91-7.52,11.38-12.94,3.47-5.42,5.85-11.2,7.15-17.35l1.82-8.32Z"/>
        <path d="M393.6,296.57c0,2.17-.87,4.4-2.6,6.7-1.73,2.3-4.09,4.18-7.08,5.65-2.99,1.48-6.26,2.21-9.81,2.21-4.77,0-8.97-1.3-12.61-3.9-.52,2.51-1.17,5.07-1.95,7.67-.26.96-.82,3.14-1.69,6.57-.87,3.42-1.48,6.48-1.82,9.16-.61,1.39-1.82,2.88-3.64,4.49-1.82,1.6-3.99,2.97-6.5,4.09-2.51,1.13-4.98,1.69-7.41,1.69-2.69,0-5.29-.69-7.8-2.08-2.51-1.39-4.57-3.25-6.17-5.59-1.6-2.34-2.4-4.94-2.4-7.8,1.21-3.64,2.21-7.06,2.99-10.27.78-3.21,1.52-6.46,2.21-9.75l1.3-6.5c.43-1.99,1.6-3.96,3.51-5.92,1.91-1.95,4.22-3.55,6.96-4.81,2.73-1.26,5.48-1.88,8.25-1.88,1.04,0,2.51.17,4.42.52.26-1.99.71-3.38,1.37-4.16.65-.78,1.71-1.17,3.18-1.17.87,0,1.86.13,2.99.39-.43,2.43-.65,4.51-.65,6.24,0,5.03,1.52,9.28,4.55,12.74,3.03,3.47,7.15,5.2,12.35,5.2,3.9,0,7.26-1.04,10.08-3.12,2.82-2.08,5.05-5.07,6.69-8.97.87.26,1.3,1.13,1.3,2.6ZM353.3,316.59c1.73-5.81,2.86-10.49,3.38-14.04-1.91-2.43-3.21-5.37-3.9-8.84,0-.34-.07-.63-.2-.84-.13-.21-.41-.37-.84-.46-1.3-.52-2.77-.78-4.42-.78-3.21,0-5.98.87-8.32,2.6-2.34,1.73-3.81,3.81-4.42,6.24-.26,1.04-1.21,5.11-2.86,12.22-.78,4.16-1.73,8.28-2.86,12.35,0,3.21,1.08,5.7,3.25,7.48,2.17,1.78,4.46,2.67,6.89,2.67,2.08,0,4.31-.74,6.7-2.21,2.38-1.47,3.92-2.99,4.62-4.55.69-3.46,1.69-7.41,2.99-11.83Z"/>
        <path d="M442.87,294.23c.26.43.39.91.39,1.43,0,1.82-.84,3.58-2.54,5.27s-3.9,3.05-6.63,4.09-5.48,1.56-8.25,1.56c-4.33,0-8.04-1.12-11.12-3.38-3.08-2.25-5.05-5.42-5.92-9.49-3.9.44-7.47,2.91-10.72,7.41-3.25,4.51-5.53,9.41-6.83,14.69-.17.87-.83,3.53-1.95,8-1.13,4.46-2.21,9.73-3.25,15.79-.09.26-.2.46-.33.58s-.41.19-.84.19c-.61,0-1.52-.26-2.73-.78-1.21-.52-1.82-1.08-1.82-1.69,0-1.21.21-2.82.65-4.81,5.29-24.44,8.71-39.56,10.27-45.37.17-.78.37-1.3.58-1.56.21-.26.58-.39,1.11-.39.34,0,1.08.28,2.21.84,1.12.57,2.04,1.15,2.73,1.75l-2.34,7.54-.78,2.6c1.99-3.12,4.29-5.63,6.89-7.54,2.6-1.91,5.37-2.86,8.32-2.86.87,0,1.73.09,2.6.26.87.17,1.47.39,1.82.65,0,4.25,1.11,7.39,3.32,9.42,2.21,2.04,5.31,3.06,9.29,3.06,3.55,0,6.5-.61,8.84-1.82,2.34-1.21,4.38-3.29,6.11-6.24.34.09.65.35.91.78Z"/>
        <path d="M435.79,337.72c-2.38-2.04-3.58-5.05-3.58-9.04,1.3-4.16,3.55-13.39,6.76-27.69,1.56-7.02,2.51-11.22,2.86-12.61,1.13-1.91,2.69-2.86,4.68-2.86,1.3,0,1.95.43,1.95,1.3-.61,2.17-1.45,5.61-2.53,10.33-1.08,4.72-1.93,8.43-2.54,11.12-2.34,10.75-3.95,17.64-4.81,20.67,0,1.99.58,3.53,1.75,4.62,1.17,1.08,2.71,1.62,4.62,1.62,4.33,0,8.69-1.54,13.07-4.62,4.38-3.08,8.23-6.65,11.57-10.72,3.34-4.07,5.83-7.58,7.48-10.53.52.17.87.46,1.04.84.17.39.26,1.06.26,2.01,0,1.3-.43,2.65-1.3,4.03-4.68,7.37-9.92,13.3-15.73,17.81-5.81,4.51-11.61,6.76-17.42,6.76-3.03,0-5.74-1.02-8.12-3.05ZM447.03,268.03c-.69-.82-1.04-1.88-1.04-3.18,0-1.73.56-3.32,1.69-4.75,1.12-1.43,2.55-2.15,4.29-2.15,1.38,0,2.4.44,3.05,1.3.65.87.97,1.91.97,3.12,0,1.74-.58,3.32-1.75,4.75-1.17,1.43-2.62,2.15-4.35,2.15-1.21,0-2.17-.41-2.86-1.24Z"/>
        <path d="M545.31,313.21c0,3.99-1.75,8.19-5.27,12.61-3.51,4.42-7.76,8.12-12.74,11.12-4.99,2.99-9.56,4.48-13.72,4.48-3.38,0-5.98-1.04-7.8-3.12-1.82-2.08-2.9-4.77-3.25-8.06-2.17,3.12-4.9,5.68-8.19,7.67-3.29,1.99-6.24,2.99-8.84,2.99-2.25,0-4.49-.76-6.7-2.28-2.21-1.51-4.01-3.38-5.4-5.59-1.39-2.21-2.12-4.31-2.21-6.3l6.37-26.26c.52-2.08,1.84-4.31,3.96-6.7,2.12-2.38,4.7-4.36,7.74-5.92,3.03-1.56,6.11-2.34,9.23-2.34,3.99,0,7.5,1.34,10.53,4.03.78-2.08,1.37-3.38,1.75-3.9.39-.52.98-.82,1.76-.91l6.37-.65.39.26c-1.74,1.39-2.99,3.55-3.77,6.5-2.69,10.05-4.53,17.46-5.52,22.23-1,4.77-1.5,8.97-1.5,12.61s.48,6.3,1.43,8c.95,1.69,2.56,2.54,4.81,2.54,2.77,0,6.09-1.13,9.94-3.38,3.86-2.25,7.52-5.4,10.99-9.43,3.46-4.03,6.11-8.56,7.93-13.58,1.13,0,1.69,1.13,1.69,3.38ZM491.42,333.23c2.12-1.04,4.12-2.54,5.98-4.49,1.86-1.95,3.14-4.18,3.83-6.69l2.47-10.66c.35-1.73.95-4.53,1.82-8.39.87-3.85,1.56-6.82,2.08-8.9-2.43-2.43-5.38-3.64-8.84-3.64-2.69,0-5.12.72-7.28,2.15-2.17,1.43-3.94,3.17-5.33,5.2-1.39,2.04-2.25,3.83-2.6,5.39l-5.2,23.14c.17,2.17,1.04,4.12,2.6,5.85,1.56,1.73,3.25,2.6,5.07,2.6,1.47,0,3.27-.52,5.4-1.56Z"/>
      </g>
    </g>
  </g>
</svg>