<?xml version="1.0" encoding="UTF-8"?>
<svg id="Layer_1" xmlns="http://www.w3.org/2000/svg" version="1.1" viewBox="0 0 595.3 841.9">
  <!-- Generator: Adobe Illustrator 29.0.1, SVG Export Plug-In . SVG Version: 2.1.0 Build 192)  -->
  <defs>
    <style>
      .st0 {
        font-size: 15px;
      }

      .st0, .st1, .st2, .st3, .st4, .st5, .st6, .st7 {
        isolation: isolate;
      }

      .st0, .st1, .st3, .st4, .st5, .st8, .st6, .st7 {
        fill: #fff;
      }

      .st0, .st1, .st3, .st4, .st5, .st6, .st7 {
        font-family: Baskerville, Baskerville;
      }

      .st9 {
        fill: none;
        stroke: #fff;
        stroke-miterlimit: 10;
      }

      .st1 {
        font-size: 16px;
      }

      .st3 {
        letter-spacing: .5em;
      }

      .st3, .st4, .st6 {
        font-size: 11px;
      }

      .st4 {
        letter-spacing: .3em;
      }

      .st5 {
        font-size: 30px;
      }

      .st7 {
        font-size: 10px;
      }

      .st10 {
        fill: #1b1b1b;
      }
    </style>
  </defs>
  <rect class="st10" x="-.2" y=".3" width="595.3" height="841.9"/>
  <g>
    <path class="st8" d="M297.4,92.8c-14.8,0-28.2-8.2-35-21.4l.8-.4c6.6,12.9,19.7,20.9,34.2,20.9s14.4-2,20.5-5.9c6-3.8,10.8-9.1,13.9-15.4l.8.4c-3.2,6.4-8.1,11.9-14.2,15.7-6.3,4-13.5,6-21,6h0Z"/>
    <g class="st2">
      <g class="st2">
        <g class="st2">
          <path class="st8" d="M259.9,31.9h0l.8.4-1.2,2.2h0c0-.2.1-.3,0-.4s0,0,0,0c0,0-.2,0-.4-.2l-1.3-.7c-.2,0-.3-.2-.4-.2h-.2c-.1,0-.1,0-.2.2h0l1-2,.7.3h-.5c-.1,0-.2,0-.3.1s-.1.2-.2.4l-.2.4,1.1.6.2-.3c0,0,.1-.2.1-.3v-.2c0-.1-.1,0-.2-.2h0l.9.4h-.5s0,0-.2.2l-.2.3.6.3c.3.2.5.2.6.2s.2,0,.3-.3v-.2c.2,0,.2-.3.2-.4v-.4c0-.1-.2-.3-.4-.4h0v.3Z"/>
        </g>
      </g>
    </g>
    <g class="st2">
      <g class="st2">
        <g class="st2">
          <path class="st8" d="M262.3,27.9l-.7.9v.2c.3.3.4.4.4.5h.2s.1,0,.2-.2h0l-.5.8h0v-.4c0-.1-.1-.2-.2-.5,0,0,0-.1-.1-.2l-1.2-1.9h0l2.6.5h.5s.1,0,.2-.2h0l-.7,1h0c0-.2.1-.3.1-.3h0c0-.1-.1-.1-.3-.1h-.6c0-.1.1,0,.1,0ZM262.2,27.9l-1.4-.3.7,1.2.6-.9h0Z"/>
        </g>
      </g>
    </g>
    <g class="st2">
      <g class="st2">
        <g class="st2">
          <path class="st8" d="M263.5,24.5h0l-.5-.4,2-2.2.5.5h0c-.2,0-.3-.1-.4-.1h-.2s-.1.1-.3.2l-.3.4,1.6,1.4c.2.2.3.3.4.3h.2q.1,0,.2-.2h.1c0-.1,0,0,0,0l-1,1.1h0v-.2c.1,0,.2-.2.2-.2v-.2s-.2-.2-.3-.3l-1.6-1.4-.3.3c-.1.1-.2.2-.2.3v.2c0,.1.1.2.2.4h-.3Z"/>
        </g>
      </g>
    </g>
    <g class="st2">
      <g class="st2">
        <g class="st2">
          <path class="st8" d="M269.8,17.5l.4-.3c.3-.3.5-.4.7-.5.4-.3.7-.4,1-.4s.5,0,.8.1c.2.1.4.3.6.6.1.2.2.4.3.6s0,.4,0,.5,0,.3-.2.5c0,.1-.2.3-.3.4s-.3.2-.5.4l-1.1.8h0v-.2c.2,0,.3-.1.3-.2v-.2s-.1-.2-.3-.4l-.8-1.2c-.1-.2-.2-.3-.3-.4h-.2q-.1,0-.3.1h0v-.2ZM270.6,17.1l1.2,1.7c.2.2.3.4.4.5h.2c.1,0,.2,0,.3-.2.2-.2.4-.3.5-.5s.1-.4.1-.6-.1-.5-.3-.8c-.2-.2-.3-.4-.5-.5s-.3-.2-.5-.2h-.5c-.2,0-.3.1-.5.3,0,0-.2.1-.3.2h-.1Z"/>
        </g>
      </g>
    </g>
    <g class="st2">
      <g class="st2">
        <g class="st2">
          <path class="st8" d="M279.1,15.3l-.7.4c-.2,0-.5-.2-1-.4s-.3-.1-.4-.2c-.2,0-.2-.1-.3-.1h-.3l.3.7c.1.2.2.4.2.4,0,0,.1,0,.2.1h.4l-1.3.7h0c.1-.1.2-.2.2-.3v-.2c0-.1,0-.2-.2-.4l-.7-1.3-.2-.4h-.1q-.1,0-.3.1h0l.4-.2c.2-.1.5-.3.6-.3.2-.1.5-.2.7-.3s.4,0,.5,0,.3.2.4.3c0,.2.1.4,0,.5s-.2.4-.4.5c.1,0,.4,0,.8.3.4.2.6.3.8.3h.5c0,.1,0-.2,0-.2ZM276.4,15c.1,0,.2-.1.3-.2s.2-.1.2-.2.1-.1.1-.2v-.2s0-.2-.1-.3c-.1-.2-.2-.3-.4-.4s-.4,0-.7.2h-.2l.7,1.2h.1Z"/>
        </g>
      </g>
    </g>
    <g class="st2">
      <g class="st2">
        <g class="st2">
          <path class="st8" d="M280.3,11.6h0l1.3-.6h0c-.1,0-.2.1-.3.2s0,0,0,.2c0,0,0,.2.2.5l.5,1.4c0,.2.2.4.2.4,0,0,0,.1.1.1h.3l-1.3.5h0c.1-.1.2-.1.2-.2v-.2s0-.2-.2-.5l-.5-1.4c0-.2-.2-.4-.2-.4h-.1c0-.1-.2-.1-.3-.1h0Z"/>
        </g>
      </g>
    </g>
    <g class="st2">
      <g class="st2">
        <g class="st2">
          <path class="st8" d="M287.6,12.4l-2.8-2.2.5,2c0,.2,0,.3.1.3s0,0,.2.1.2,0,.4,0h0c0,.1-1.1.4-1.1.4h0c.1-.2.2-.2.3-.3v-.5l-.4-1.6c0-.2-.1-.4-.2-.4,0,0,0-.1-.1-.1h-.3c0-.1.8-.3.8-.3l2.3,1.8-.5-1.8c0-.1,0-.2-.1-.3h-.5c0-.1,1-.4,1-.4h0c0,.1-.2.2-.2.2,0,0,0,.1-.1.2v.3l.6,2.4h0v.2Z"/>
        </g>
      </g>
    </g>
    <g class="st2">
      <g class="st2">
        <g class="st2">
          <path class="st8" d="M291.2,10.1l.8-.9c.2-.2.3-.4.3-.4,0-.1-.1-.2-.3-.2h0c0-.1,1.1-.2,1.1-.2h0c0,.1-.2.1-.3.2s-.2.1-.2.2-.2.2-.4.4l-.5.6,1.3,1c.3.2.5.4.6.4h.4c0,.1-1.6.3-1.6.3h0c.2-.1.3-.1.3-.1h0c0-.1-.1-.3-.4-.5l-1-.8-.2.2v.5c.1.2.1.4.1.5s0,.1.1.2.1,0,.3,0h0l-1.4.3h0c.1-.1.2-.1.3-.1v-.7l-.2-1.5v-.5s0-.1-.1-.1h-.3c0-.1,1.3-.3,1.3-.3h0c-.1.1-.2.1-.3.1h0v1.4h.3Z"/>
        </g>
      </g>
    </g>
    <g class="st2">
      <g class="st2">
        <g class="st2">
          <path class="st8" d="M302.3,8.4v.8h-.1c0-.2,0-.3-.1-.4s-.1-.2-.2-.2h-1v1.2c-.1,0,.2,0,.2,0h.4c.1,0,.1-.2.1-.4h.1v1.1h-.2v-.3s0-.1-.1-.2-.1,0-.3,0h-.3v1.4c0,0,.1,0,.3,0h.1c0,.1-1.4,0-1.4,0h0c0-.1.1-.1.1-.1h.3c0,0,0,0,.1-.1v-2c.1-.2.1-.4.1-.5v-.2c0,0-.1,0-.3,0h0c0-.1,2.3,0,2.3,0h0Z"/>
        </g>
      </g>
    </g>
    <g class="st2">
      <g class="st2">
        <g class="st2">
          <path class="st8" d="M307.1,11.3h.1l-.2.9-2.5-.5h0c.1-.1.2-.1.3-.1s0,0,.1-.1c0,0,0-.2.1-.5l.3-1.5v-.7s-.1,0-.3-.1h0c0-.1,2.2.3,2.2.3v.8h-.2v-.5c0-.1-.1-.2-.2-.2s-.2,0-.4-.1h-.4l-.2,1.2h.3c.1.1.2.1.3,0h.1v-.3h.1l-.2,1h-.1v-.4s0-.1-.1-.1h-.6v.6c-.1.4-.1.6-.1.6,0,0,.1.1.4.2h.6c.1,0,.2,0,.3-.2s.2-.3.3-.5h0v.2Z"/>
        </g>
      </g>
    </g>
    <g class="st2">
      <g class="st2">
        <g class="st2">
          <path class="st8" d="M312.1,12.8h.1l-.4.9-2.4-.8h.4c.1-.2,0-.3.2-.5l.5-1.4c0-.2.1-.4.1-.4v-.2s-.1,0-.3-.1h0l2.1.6-.2.7h-.1v-.5c0-.1-.1-.2-.2-.2s-.2-.1-.4-.2h-.4c0-.1-.4,1.1-.4,1.1h.3c.1.2.2.2.3.2h.1s0-.1.1-.3h.1l-.3,1h-.1v-.4h0c0-.1-.1-.1-.2-.2h-.3c0-.1-.2.6-.2.6-.1.3-.2.5-.1.6s.1.1.3.2h.2c.2.1.3.1.4.1s.2,0,.4-.1.2-.2.4-.4h0v-.3Z"/>
        </g>
      </g>
    </g>
    <g class="st2">
      <g class="st2">
        <g class="st2">
          <path class="st8" d="M317,15l-.4.8-2.3-1.1h.5c.1,0,.1-.2.2-.4l.6-1.3.2-.4v-.2s-.1-.1-.2-.2h0c0-.1,1.3.5,1.3.5h-.5l-.2.4-.7,1.4c0,.2-.1.3-.2.4v.2c0,0,.1.1.3.2h.2c.2.2.3.2.4.2h.3c0,0,.3-.2.4-.4h.1Z"/>
        </g>
      </g>
    </g>
    <g class="st2">
      <g class="st2">
        <g class="st2">
          <path class="st8" d="M324,19l1,.8h-.5c-.1,0-.2.2-.3.4l-.2.3h0s-.2-.1-.4-.2c-.3,0-.5-.2-.7-.3-.4-.3-.5-.6-.6-1,0-.4,0-.8.3-1.1s.6-.6,1-.7.8,0,1.2.3c.3.2.5.6.5,1,.1,0,.2-.1.3-.2h0l-.6.9h0c.2-.4.2-.6.2-.9s-.2-.5-.4-.7c-.2-.2-.5-.2-.8-.2s-.6.3-.9.7c-.3.4-.5.8-.4,1.1,0,.3.2.5.4.7.1,0,.3.2.4.2h.4c.1,0,.2-.1.3-.2.1-.1.2-.2.2-.3h0c0-.1,0-.2-.2-.3h0c0-.1-.2-.3-.2-.3Z"/>
        </g>
      </g>
    </g>
    <g class="st2">
      <g class="st2">
        <g class="st2">
          <path class="st8" d="M327.3,21.4c.3-.3.7-.5,1.1-.5s.8.2,1.1.5.5.7.5,1.1-.1.8-.5,1.1c-.3.3-.7.5-1.1.5s-.8-.2-1.1-.5c-.3-.3-.5-.7-.5-1.1s.2-.8.5-1.1h0ZM327.7,21.8c-.4.3-.5.7-.6,1s0,.6.4.9c.2.2.5.4.8.3s.6-.2,1-.6c.3-.3.5-.7.6-1s0-.6-.3-.9-.5-.4-.8-.3c-.3,0-.6.2-1,.6h-.1Z"/>
        </g>
      </g>
    </g>
    <g class="st2">
      <g class="st2">
        <g class="st2">
          <path class="st8" d="M331.5,26c.4-.3.8-.4,1.2-.3.4,0,.8.3,1,.7.3.4.4.8.4,1.2s-.2.8-.6,1.1c-.4.3-.8.4-1.2.3s-.8-.3-1.1-.7c-.3-.4-.4-.8-.4-1.2s.3-.8.7-1.1h0ZM331.8,26.4c-.4.3-.6.6-.7.9s0,.6.2.9.5.4.8.4.7-.1,1.1-.4.6-.6.7-.9c0-.3,0-.6-.2-.9s-.5-.4-.8-.5-.7.1-1,.4h-.1Z"/>
        </g>
      </g>
    </g>
    <g class="st2">
      <g class="st2">
        <g class="st2">
          <path class="st8" d="M336.3,30.2l.3.4c.2.4.4.6.4.7.2.4.3.7.3,1s0,.5-.2.8c-.1.2-.4.4-.6.5s-.4.2-.6.2h-.5c-.2,0-.3,0-.4-.2s-.2-.2-.3-.3c0,0-.2-.3-.3-.5l-.7-1.2h0c0,.1.1.2.2.2h.2s.2,0,.4-.2l1.3-.7c.2-.1.4-.2.4-.2h0c0-.1,0-.2-.1-.4h0c0-.1.2-.1.2-.1ZM336.7,31.1l-1.8,1c-.3,0-.4.2-.5.3s-.1,0-.1.2,0,.2.1.3c.1.2.3.4.4.5s.3.2.6.2.5,0,.8-.2c.2,0,.4-.3.5-.4s.2-.3.3-.5v-.5c0-.2-.1-.3-.2-.5,0-.1-.1-.2-.2-.3h.1Z"/>
        </g>
      </g>
    </g>
    <g class="st2">
      <g class="st2">
        <g class="st2">
          <path class="st8" d="M259.6,72.8h0l.7,1.2h0c0,0-.1-.2-.2-.2h-.2s-.2,0-.4.2l-1.3.7c-.2,0-.4.2-.4.2v.2c-.1,0-.1.2-.1.3h0c0,0-.7-1.1-.7-1.1h0c0,0,.1.2.2.2h.2s.2,0,.4-.2l1.3-.7c.2,0,.4-.2.4-.2h0q0-.2-.1-.4h0l.2-.2Z"/>
        </g>
      </g>
    </g>
    <g class="st2">
      <g class="st2">
        <g class="st2">
          <path class="st8" d="M259.7,78.8l1.3-3.3-1.8,1.1c-.1,0-.2.2-.3.2s0,0,0,.2,0,.2.1.4h0l-.6-.9h0s.2,0,.2.2h.2s.2,0,.3-.2l1.4-.9c.2,0,.3-.2.4-.3s0,0,0-.2,0,0-.1-.3h0l.5.7-1,2.8,1.5-1c.1,0,.2,0,.2-.2v-.2s0-.2-.1-.3h0l.6.9h0s-.2,0-.2-.2-.1,0-.2,0-.1,0-.2,0l-2.1,1.3h0Z"/>
        </g>
      </g>
    </g>
    <g class="st2">
      <g class="st2">
        <g class="st2">
          <path class="st8" d="M264,82.2l1.1-.2c.2,0,.3,0,.4,0v-.2s0-.2-.1-.3h0l.7.7h-.8l-1.3.2-.3.3c-.2.2-.3.3-.4.3v.2q0,0,.2.3h0l-.8-.9h0c0,0,.2.2.2.2h.2s.2,0,.4-.3l.3-.2.5-1.4c0-.3.1-.5.1-.5,0,0,0-.2-.1-.3h0l.8.9h0c-.1,0-.3-.2-.3,0,0,0,0,0-.1.2l-.4,1.3h0l-.3-.2Z"/>
        </g>
      </g>
    </g>
    <g class="st2">
      <g class="st2">
        <g class="st2">
          <path class="st8" d="M265.5,83.6c.3-.3.7-.5,1.1-.5s.8.2,1.1.5c.3.3.5.7.5,1.1s-.1.8-.5,1.1-.7.5-1.1.5-.8-.2-1.2-.5c-.3-.3-.5-.7-.5-1.1s.1-.8.5-1.1h.1ZM265.9,84c-.3.4-.5.7-.6,1,0,.3,0,.6.4.9.2.2.5.3.8.3s.6-.2,1-.6c.3-.3.5-.7.5-1s0-.6-.3-.9-.5-.4-.9-.3-.6.2-1,.6h.1Z"/>
        </g>
      </g>
    </g>
    <g class="st2">
      <g class="st2">
        <g class="st2">
          <path class="st8" d="M271.5,87l.8.6h-.5s-.1,0-.2.3l-.6.8c-.2.2-.3.4-.4.4s-.2,0-.4.2h-.5c-.2,0-.4-.2-.5-.3-.2-.2-.4-.4-.5-.5s-.1-.4,0-.5.1-.3.3-.5l.2-.2.6-.7c.2-.2.2-.3.3-.4s0,0,0-.2,0,0-.2-.2h0c0,0,1.1.8,1.1.8h0c-.1,0-.2,0-.2-.2h-.2c-.1,0-.2.2-.3.4l-.6.7c-.2.3-.3.5-.4.6v.4c0,0,.2.3.4.5.1,0,.3.2.5.2h.4c.1,0,.2,0,.3-.2,0,0,.2-.2.3-.4l.7-.8c.1,0,.2-.2.2-.3v-.2s0-.2-.2-.2h-.4Z"/>
        </g>
      </g>
    </g>
    <g class="st2">
      <g class="st2">
        <g class="st2">
          <path class="st8" d="M274.1,92.4l-.7-.4c0-.2-.1-.5-.1-1v-.8h-.1c0,0-.1,0-.1,0l-.4.5c-.1.2-.2.3-.2.4v.2q0,0,.2.2h.1v.2l-1.2-.8h0c.1,0,.2,0,.2,0h.2s.1-.2.3-.4l.8-1.3c.1-.2.2-.3.2-.4v-.2c0,0-.1,0-.2-.2h0c0,0,.4,0,.4,0,.2,0,.4.3.6.4.2.2.4.3.5.5s.2.3.2.5,0,.3-.1.5-.3.3-.5.3-.4,0-.7,0c0,0,.1.4.2.9,0,.4,0,.7.1.8s.2.3.3.4h0v-.3ZM273,89.9s.2,0,.3.2.2,0,.3,0h.2s.1,0,.2,0l.2-.2c.1-.2.2-.4.1-.5s-.2-.4-.5-.5h-.2l-.8,1.2h0l.2-.2Z"/>
        </g>
      </g>
    </g>
    <g class="st2">
      <g class="st2">
        <g class="st2">
          <path class="st8" d="M277.6,92.6c.2-.4.5-.7.9-.8s.8,0,1.3,0c.4.2.7.5.9.9s.2.8,0,1.2c-.2.4-.5.7-.9.8s-.8,0-1.3,0c-.4-.2-.7-.5-.9-.9-.2-.4-.1-.8,0-1.3h0ZM278,92.8c-.2.4-.3.8-.2,1.1,0,.3.3.5.6.7.3,0,.6,0,.9,0s.5-.4.7-.9c.2-.4.3-.8.2-1.1s-.3-.5-.6-.7-.6-.2-.9,0c-.3,0-.5.4-.7.9h0Z"/>
        </g>
      </g>
    </g>
    <g class="st2">
      <g class="st2">
        <g class="st2">
          <path class="st8" d="M283.9,96.9h0v-2.7l-1.6,2.1h-.1v-3.2c0,0-.1,0-.2,0h0l1.1.3h-.3v2.4l1.5-2.1h.1v2.6l1-1.4c.1-.2.2-.3.2-.4,0-.2,0-.3-.2-.4h0l.8.2h0c-.1,0-.2,0-.3,0,0,0-.2.2-.4.5l-1.4,2h-.2Z"/>
        </g>
      </g>
    </g>
    <g class="st2">
      <g class="st2">
        <g class="st2">
          <path class="st8" d="M288.8,98.1l-1.5-3.2-.4,2.1v.3s0,0,.1.2c0,0,.2,0,.3,0h0c0,0-1.1,0-1.1,0h0c.2,0,.3,0,.4,0,0,0,.1,0,.2,0v-.3l.3-1.6v-.7c0,0-.1,0-.3,0h0c0,0,.9,0,.9,0l1.3,2.7.4-1.8v-.3s0,0-.1-.2c0,0-.2,0-.3,0h0c0,0,1.1,0,1.1,0h0c-.1,0-.2,0-.3,0s-.1,0-.2,0v.3l-.5,2.5h-.3Z"/>
        </g>
      </g>
    </g>
    <g class="st2">
      <g class="st2">
        <g class="st2">
          <path class="st8" d="M295.2,98.9l-1.9-3-.2,2.1v.4s0,0,.1.2h.4c0,0-1.1,0-1.1,0h0c.2,0,.3,0,.3-.2,0,0,.1,0,.1,0v-2c.1-.2.1-.4.1-.5v-.2h-.3c0,0,.9,0,.9,0l1.6,2.5v-1.8c.1,0,.1-.2.1-.3s0,0-.2,0h-.3c0,0,1.1,0,1.1,0h0c-.1,0-.2,0-.3.2s-.1,0-.2,0v.3l-.2,2.5h0Z"/>
        </g>
      </g>
    </g>
    <g class="st2">
      <g class="st2">
        <g class="st2">
          <path class="st8" d="M299.4,97.9h.1v.9h-2.6q.2,0,.3,0v-2.9c0,0-.1,0-.3,0h0c0,0,2.2,0,2.2,0v.8h0c0-.2-.1-.4-.2-.4s-.2,0-.2-.2h-.9v1.3h.6c0,0,0,0,.1,0s0-.2,0-.3h.1v1h0v-.3h-.1c0,0-.1,0-.3,0h-.3v1.3h1c.1,0,.2,0,.3-.3,0,0,.2-.3.2-.5h0Z"/>
        </g>
      </g>
    </g>
    <g class="st2">
      <g class="st2">
        <g class="st2">
          <path class="st8" d="M300.4,95.8h0c0,0,1.4-.2,1.4-.2h0c-.1,0-.2,0-.3,0s0,0,0,0v2c.1.2.2.4.2.5,0,0,0,0,.1.2s.1,0,.3,0h0l-1.4.2h0c.1,0,.2,0,.3,0s0,0,0-.2v-2c-.1-.2-.2-.4-.2-.5s0,0-.1,0h-.3Z"/>
        </g>
      </g>
    </g>
    <g class="st2">
      <g class="st2">
        <g class="st2">
          <path class="st8" d="M305,96.9l1.3-.2h0c-.1,0-.2.2-.3.2s0,0,0,.2v.8h0c-.1,0-.3,0-.4.2-.2,0-.5.2-.7.3-.4,0-.8,0-1.1-.2s-.5-.6-.6-1c0-.4,0-.8.2-1.2s.6-.6,1-.7c.4,0,.8,0,1.1.3v-.4h.1l.2,1h-.1c0-.3-.2-.5-.5-.7s-.5-.2-.7-.2c-.3,0-.5.2-.7.4s-.2.6-.1,1.2.2.9.5,1.1.5.3.8.2c.2,0,.3,0,.4-.2s.2-.2.2-.3v-.7h-.6Z"/>
        </g>
      </g>
    </g>
    <g class="st2">
      <g class="st2">
        <g class="st2">
          <path class="st8" d="M309.7,95.6l-1.5.4.2.7c0,.2.1.4.1.4,0,0,0,0,.1,0h.3l-1.3.4h0c.1,0,.2,0,.2-.2v-.2c0,0,0-.2-.1-.5l-.4-1.4c0-.2-.1-.4-.1-.4,0,0,0,0-.1,0h-.3l1.3-.4h0c-.1,0-.2,0-.3.2v.2q0,.2.1.5l.2.6,1.5-.4-.2-.6c0-.2-.1-.4-.1-.4,0,0,0,0-.1,0h-.3l1.3-.4h0c-.1,0-.2,0-.3.2s0,0,0,.2,0,.2.1.5l.4,1.4c0,.2.1.4.1.4,0,0,0,0,.1,0h.3l-1.3.5h0c.1,0,.2,0,.2-.2v-.2c0,0,0-.2-.1-.5l-.2-.7h.2Z"/>
        </g>
      </g>
    </g>
    <g class="st2">
      <g class="st2">
        <g class="st2">
          <path class="st8" d="M312.9,94.4c.3,0,.6,0,.8,0s.4.2.4.4v.5c0,.2-.2.3-.3.4s-.4.2-.6.3l-1.1.4h.1c.1,0,.2,0,.2-.2v-.2s0-.2-.2-.5l-.5-1.4c0-.2-.2-.4-.2-.4h-.1c0,0-.2,0-.3,0h0l.5-.2.5-.2c.8-.3,1.3-.2,1.4.2v.5c0,.2-.3.3-.5.5h0ZM312.4,94.5h0c.3,0,.5-.2.6-.4v-.5c0,0-.1-.2-.2-.3s-.2,0-.3,0-.3,0-.5,0h-.2l.4,1.2h.2ZM312.5,94.6l.2.6c.1.3.2.4.2.5s0,0,.1,0h.3c.2,0,.4-.2.4-.4v-.6c0-.2-.2-.4-.4-.4h-.9v.2Z"/>
        </g>
      </g>
    </g>
    <g class="st2">
      <g class="st2">
        <g class="st2">
          <path class="st8" d="M315.1,93.6c-.2-.4-.2-.8,0-1.2.2-.4.4-.7.9-.9s.8-.3,1.3,0c.4,0,.7.4.9.8.2.4.2.8,0,1.2s-.4.7-.9.9-.8.2-1.3,0c-.4,0-.7-.4-.9-.8h0ZM315.6,93.4c.2.4.5.7.7.9s.6,0,1,0c.3,0,.5-.4.6-.7,0-.3,0-.7-.2-1.1s-.5-.7-.7-.8-.6,0-.9,0c-.3.2-.5.4-.6.7,0,.3,0,.7.2,1.1h-.1Z"/>
        </g>
      </g>
    </g>
    <g class="st2">
      <g class="st2">
        <g class="st2">
          <path class="st8" d="M319.2,91.5c-.2-.4-.3-.8-.2-1.2s.4-.7.8-1,.8-.3,1.2-.3.8.3,1,.7c.2.4.3.8.2,1.2s-.4.7-.8,1-.8.3-1.2.3-.8-.3-1-.7h0ZM319.6,91.3c.3.4.5.7.8.8s.6,0,.9-.2.5-.4.5-.7,0-.7-.3-1.1c-.2-.4-.5-.7-.8-.8-.3,0-.6,0-.9,0-.3.2-.5.4-.5.8s0,.7.3,1.1h0Z"/>
        </g>
      </g>
    </g>
    <g class="st2">
      <g class="st2">
        <g class="st2">
          <path class="st8" d="M326.5,88.3l-.7.5c-.2,0-.5,0-1-.2-.2,0-.3,0-.5,0s-.3,0-.3,0h-.2l.4.6c.1.2.2.3.3.4h.2q.1,0,.2,0h.1l-1.1.9h0c.1,0,.2-.2.2-.3v-.2c0,0-.1-.2-.3-.4l-.9-1.2c-.1-.2-.2-.3-.3-.4s-.1,0-.2,0-.1,0-.3.2h0l.3-.3c.2-.2.4-.3.5-.4.2-.2.4-.3.6-.4s.4,0,.5,0,.3,0,.4.2c.1.2.2.3.1.5s-.1.4-.4.6c.1,0,.4,0,.9,0,.4,0,.6.2.8,0,.2,0,.3,0,.5-.2h0c0,0,.2,0,.2,0ZM323.7,88.5s.2,0,.3-.2.2-.2.2-.2v-.4s0-.2-.2-.3c-.1-.2-.3-.3-.4-.3s-.4,0-.7.3h-.1c0,0,.8,1.2.8,1.2h.1Z"/>
        </g>
      </g>
    </g>
    <g class="st2">
      <g class="st2">
        <g class="st2">
          <path class="st8" d="M328.1,84.8l-1.1,1.1.5.5c.2.2.3.3.3.3h.2s.1,0,.2-.2h0l-1,.9h0c0,0,.1-.3.2-.3v-.2c0,0-.1-.2-.3-.4l-1-1.1c-.2-.2-.3-.3-.3-.3h-.2s-.1,0-.2.2h0l1-.9h0c-.1.2-.2.3-.2.3v.2s.1.2.3.4l.4.4,1.1-1.1-.4-.4c-.2-.2-.3-.3-.3-.3h-.2q-.1,0-.2.2h0l1-1h0c-.1.2-.2.3-.2.3v.2s.1.2.3.4l1,1.1c.2.2.3.3.3.3h.2s.1,0,.2-.2h0l-1,1h0c0,0,.1-.3.2-.3s0,0,0-.2-.1-.2-.3-.4l-.5-.5h0Z"/>
        </g>
      </g>
    </g>
    <g class="st2">
      <g class="st2">
        <g class="st2">
          <path class="st8" d="M329.5,83.3c-.4-.3-.5-.7-.5-1.1s.1-.8.4-1.2c.3-.4.7-.6,1.1-.6s.8,0,1.2.4c.4.3.5.7.6,1.1s-.1.8-.4,1.2c-.3.4-.7.6-1.1.6s-.8,0-1.2-.4h-.1ZM329.9,82.9c.4.3.7.5,1,.5s.6,0,.8-.4c.2-.3.3-.5.2-.8,0-.3-.3-.6-.6-.9-.4-.3-.7-.5-1-.5s-.6,0-.8.4c-.2.3-.3.6-.3.9s.3.6.6.9h0Z"/>
        </g>
      </g>
    </g>
    <g class="st2">
      <g class="st2">
        <g class="st2">
          <path class="st8" d="M332.5,79.8c-.4-.3-.6-.6-.7-1,0-.4,0-.8.3-1.2.3-.4.6-.6,1-.7s.8,0,1.2.3c.4.3.6.6.7,1,0,.4,0,.8-.3,1.2-.3.4-.6.6-1,.7s-.8,0-1.2-.3h0ZM332.8,79.3c.4.3.8.4,1.1.4s.6-.2.8-.5c.2-.3.2-.6.2-.9s-.3-.6-.7-.9-.7-.4-1.1-.4-.6.2-.8.5c-.2.3-.3.6-.2.9s.3.6.7.9h0Z"/>
        </g>
      </g>
    </g>
    <g class="st2">
      <g class="st2">
        <g class="st2">
          <path class="st8" d="M333.7,75.3l.2-.4c.2-.4.3-.6.4-.8.2-.4.4-.7.7-.8.2-.2.5-.2.8-.2s.5,0,.8.2c.2,0,.4.2.5.4.1,0,.2.3.3.5s0,.3,0,.5,0,.3-.1.4-.1.3-.3.5l-.7,1.2h0v-.7c0,0-.2,0-.4-.2l-1.3-.7c-.2,0-.4-.2-.4-.2h-.2l-.2.2h0ZM334.2,74.6l1.8,1c.3,0,.4.2.5.3s.2,0,.2,0c0,0,.1,0,.2-.3.1-.2.2-.4.2-.6s0-.4-.2-.6-.3-.4-.6-.5c-.2,0-.4-.2-.7-.2h-.6c-.2,0-.3,0-.4.2s-.2.3-.3.5c0,0-.1.2-.2.3h.1Z"/>
        </g>
      </g>
    </g>
    <path class="st8" d="M331.8,36.4c-3.1-6.3-8-11.6-13.9-15.4-6.1-3.9-13.2-5.9-20.5-5.9s-14.4,2-20.5,5.9c-6,3.8-10.8,9.1-13.9,15.4l-.8-.4c3.2-6.4,8.1-11.9,14.2-15.7,6.3-3.9,13.5-6,20.9-6s14.7,2.1,20.9,6c6.1,3.8,11,9.3,14.2,15.7l-.8.4h.2Z"/>
    <g class="st2">
      <g class="st2">
        <g class="st2">
          <path class="st8" d="M271.5,71.5v1.2s0,0,.1.2.2,0,.3,0h.1c0,0-1.6,0-1.6,0h0q.2,0,.3,0c0,0,0,0,.1-.2s0-.3,0-.6v-2.2s0,0-.1-.2-.2,0-.4,0h0c0,0,.4,0,.4,0h1.6c.2,0,.4.2.5.3s.2.3.2.5,0,.4-.1.5-.2.3-.4.3-.4,0-.8,0h-.4l.2.2ZM271.5,71.4h.7c.1,0,.2,0,.3-.2s.1-.3.1-.5c0-.3,0-.5-.2-.6s-.4-.2-.7-.2-.2,0-.3,0v1.6h.1Z"/>
          <path class="st8" d="M275,69.8h0c0,0,1.6,0,1.6,0h0c-.2,0-.3,0-.3,0v.2c-.2.2-.1.3-.1.5v2.2s0,0,.1.2.2,0,.3,0h.1c0,0-1.6,0-1.6,0h0c0,0,.1,0,.1,0h.3c0,0,0,0,.1-.2s0-.3,0-.6v-2.2s0,0-.1-.2-.2,0-.4,0h-.1Z"/>
          <path class="st8" d="M278.4,73.2h0l2.3-3.4h-1.6c-.1,0-.2,0-.2.2s-.2.3-.2.5h-.1v-.8h2.7c0,0-2.2,3.4-2.2,3.4h1.8c.1,0,.2-.2.3-.3s.1-.3.2-.4h.1v.9h-3.1Z"/>
          <path class="st8" d="M283.4,73.2h0l2.3-3.4h-1.6c-.1,0-.2,0-.2.2s-.2.3-.2.5h-.1v-.8h2.7c0,0-2.2,3.4-2.2,3.4h1.8c.1,0,.2-.2.3-.3s.1-.3.2-.4h.1v.9h-3.1Z"/>
          <path class="st8" d="M290.5,71.9h-1.3v.2c-.2.3-.3.5-.3.6s0,.2.1.2h.3c0,0-1,0-1,0h0c.2,0,.3-.2.4-.3,0,0,.2-.3.3-.5,0,0,0,0,.1-.3l1-2.4h.1l1.2,2.8.2.4s0,0,.1.2.2,0,.3,0h0c0,0-1.4,0-1.4,0h0c.2,0,.3,0,.3-.2h0c0-.2,0-.3-.1-.4l-.3-.7h0v.2ZM290.4,71.8l-.6-1.5-.6,1.5h1.2Z"/>
          <path class="st8" d="M296.4,71.9h1.3v.4h-1.3v-.4Z"/>
        </g>
      </g>
      <g class="st2">
        <g class="st2">
          <path class="st8" d="M303.6,71.5v1.2s0,0,.1.2.2,0,.3,0h.1c0,0-1.6,0-1.6,0h0q.2,0,.3,0c0,0,0,0,.1-.2v-2.8s0,0-.1-.2-.2,0-.4,0h0c0,0,.4,0,.4,0h1.6c.2,0,.4.2.5.3s.2.3.2.5,0,.4-.1.5-.2.3-.4.3-.4,0-.8,0h-.4l.2.2ZM303.6,71.4h.7c.1,0,.2,0,.3-.2s.1-.3.1-.5c0-.3,0-.5-.2-.6s-.4-.2-.7-.2-.2,0-.3,0v1.6h.1Z"/>
        </g>
      </g>
      <g class="st2">
        <g class="st2">
          <path class="st8" d="M308.8,71.9h-1.3v.2c-.2.3-.3.5-.3.6s0,.2.1.2h.3c0,0-1,0-1,0h0c.2,0,.3-.2.4-.3,0,0,.2-.3.3-.5,0,0,0,0,.1-.3l1-2.4h.1l1.2,2.8.2.4s0,0,.1.2h.3c0,0-1.4,0-1.4,0h0c.2,0,.3,0,.3-.2h0c0-.2,0-.3-.1-.4l-.3-.7h0v.2ZM308.7,71.8l-.6-1.5-.6,1.5h1.2Z"/>
          <path class="st8" d="M312,73.1v-1.1h.1c.1.7.5,1.1,1,1.1s.4,0,.6-.2.2-.3.2-.5,0-.3-.2-.4-.3-.2-.7-.4c-.3,0-.5-.2-.6-.3s-.2-.2-.3-.4-.1-.3-.1-.5,0-.5.3-.6.4-.2.7-.2h.4c.1,0,.3,0,.4.3,0,0,.1-.2.1-.3h.1v.9h-.1c0-.3-.2-.5-.4-.6s-.4-.2-.6-.2-.4,0-.5.2c0,0-.1.2-.1.4s0,.3.2.4c.1,0,.3.2.7.4.3,0,.5.2.7.3s.2.2.3.3.1.3.1.5c0,.3-.1.5-.3.7s-.5.3-.8.3-.7,0-1-.4c0,0-.1.2-.1.3h-.1Z"/>
        </g>
      </g>
      <g class="st2">
        <g class="st2">
          <path class="st8" d="M316.3,70.5h-.1v-.8h3.4v.8h0c0-.2,0-.4-.2-.5s-.1-.2-.2-.2h-1v3s0,.2.1.2h.5c0,0-1.7,0-1.7,0h0c0,0,.2,0,.2,0h.3c0,0,0,0,.1-.2s0-.3,0-.6v-2.5h-1c-.1,0-.2,0-.2.2s-.1.3-.2.5h0Z"/>
        </g>
      </g>
      <g class="st2">
        <g class="st2">
          <path class="st8" d="M323.2,71.9h-1.3v.2c-.2.3-.3.5-.3.6s0,.2.1.2h.3c0,0-1,0-1,0h0c.2,0,.3-.2.4-.3,0,0,.2-.3.3-.5,0,0,0,0,.1-.3l1-2.4h.1l1.2,2.8.2.4s0,0,.1.2h.3c0,0-1.4,0-1.4,0h0c.2,0,.3,0,.3-.2h0c0-.2,0-.3-.1-.4l-.3-.7h0v.2ZM323.2,71.8l-.6-1.5-.6,1.5h1.2Z"/>
        </g>
      </g>
      <g class="st2">
        <g class="st2">
          <path class="st8" d="M285,77.4h1.1c-.1.2-.3.2-.4.3s-.2.3-.3.5c0,.2-.2.4-.2.5.2.3.3.4.4.5.1,0,.2,0,.3,0s.3,0,.4-.2h.1c0,0-.1.3-.2.4s-.2,0-.4,0c-.3,0-.6-.2-.9-.5-.3.3-.6.5-1,.5h-.4c-.2,0-.2,0-.3-.2s-.2-.2-.2-.3v-.4c0-.2,0-.4.2-.5.1,0,.3-.3.7-.6-.2-.3-.3-.5-.3-.8s0-.3.2-.5.3-.2.5-.2.4,0,.5.2.2.2.2.4c0,.3-.2.5-.7.8.2.2.3.4.4.6s.3.4.4.6c.1,0,.2-.3.2-.4v-.4c0-.2-.1-.3-.4-.4h0c0,0,0,0,0,0ZM283.9,77.6c-.2,0-.3.2-.4.4-.1,0-.1.3-.1.4,0,.2,0,.4.2.6s.4.3.6.3.5,0,.7-.4c-.2-.3-.4-.5-.5-.8s-.3-.4-.4-.6h-.1ZM284.1,77.3c.3-.2.5-.4.5-.7s0,0,0-.2h0q0,0-.1,0h-.2c-.1,0-.2,0-.3,0s-.1.2-.1.3.1.4.3.7h0Z"/>
          <path class="st8" d="M293.4,78.9l1.3-2.9h1.1c0,0-.1,0-.1,0h-.3v.2c-.2.2-.1.3-.1.5v2.2s0,0,.1.2.2,0,.3,0h.2c0,0-1.7,0-1.7,0h0c0,0,.1,0,.1,0h.3c0,0,0,0,.1-.2s0-.3,0-.6v-2.2l-1.4,3.1h-.1l-1.4-3.1v2.6c0,0,0,.2.2.3s.2,0,.4,0h0c0,0-1.3,0-1.3,0h0c.2,0,.3-.2.4-.2s.2-.2.2-.3v-2.6s0,0-.1-.2-.2,0-.4,0h0c0,0,1.1,0,1.1,0l1.3,2.9h-.2Z"/>
          <path class="st8" d="M297.7,77.7c0-.5.2-1,.5-1.3s.8-.5,1.4-.5,1,.2,1.4.5.5.8.5,1.3-.2,1-.5,1.3-.8.5-1.4.5-1-.2-1.4-.5-.5-.8-.5-1.3h0ZM298.2,77.8c0,.6.1,1,.3,1.3s.6.4,1,.4.7,0,.9-.4.4-.7.4-1.3-.1-1-.3-1.3-.5-.4-1-.4-.7,0-1,.4-.3.7-.3,1.3h0Z"/>
          <path class="st8" d="M307.2,79.5h-1c-.2,0-.4-.4-.8-.9-.1-.2-.2-.3-.4-.5-.1,0-.2-.2-.2-.3s-.1,0-.2,0h-.1v1.3s0,0,.1.2.2,0,.3,0h.2c0,0-1.7,0-1.7,0h0c0,0,.1,0,.1,0h.3c0,0,0,0,.1-.2s0-.3,0-.6v-2.2s0,0-.1-.2-.2,0-.4,0h0c0,0,.5,0,.5,0h1.6c.2,0,.4.2.5.3s.2.3.2.5,0,.4-.2.6-.4.3-.7.3c.1,0,.4.3.7.8.3.4.5.6.6.7s.3.2.5.2h0c0,0,.1,0,.1,0ZM304.5,77.7h.8c.1,0,.2,0,.2,0s.1,0,.1-.2v-.4c0-.2,0-.4-.2-.6s-.4-.2-.8-.2-.1,0-.2,0v1.6h.1Z"/>
          <path class="st8" d="M311.8,78.4h.1v1.1h-3c.2,0,.3,0,.3,0v-2.9q0,0-.1-.2h-.3c0,0,2.5,0,2.5,0v.9h0c0-.2-.1-.4-.2-.5s-.2-.2-.3-.2h-1v1.5h.8q.1,0,.1,0v-.4h.1v1.2h-.1v-.4q0,0-.1,0h-.7v1.5s.2,0,.4,0h.8c.2,0,.2,0,.3-.3.1,0,.2-.4.2-.6h0l.2-.4Z"/>
        </g>
      </g>
    </g>
    <path class="st8" d="M297.4,92.8c-14.8,0-28.2-8.2-35-21.4l.8-.4c6.6,12.9,19.7,20.9,34.2,20.9s14.4-2,20.5-5.9c6-3.8,10.8-9.1,13.9-15.4l.8.4c-3.2,6.4-8.1,11.9-14.2,15.7-6.3,4-13.5,6-21,6h0Z"/>
    <g class="st2">
      <g class="st2">
        <g class="st2">
          <path class="st8" d="M259.9,31.9h0l.8.4-1.2,2.2h0c0-.2.1-.3,0-.4s0,0,0,0c0,0-.2,0-.4-.2l-1.3-.7c-.2,0-.3-.2-.4-.2h-.2c-.1,0-.1,0-.2.2h0l1-2,.7.3h-.5c-.1,0-.2,0-.3.1s-.1.2-.2.4l-.2.4,1.1.6.2-.3c0,0,.1-.2.1-.3v-.2c0-.1-.1,0-.2-.2h0l.9.4h-.5s0,0-.2.2l-.2.3.6.3c.3.2.5.2.6.2s.2,0,.3-.3v-.2c.2,0,.2-.3.2-.4v-.4c0-.1-.2-.3-.4-.4h0v.3Z"/>
        </g>
      </g>
    </g>
    <g class="st2">
      <g class="st2">
        <g class="st2">
          <path class="st8" d="M262.3,27.9l-.7.9v.2c.3.3.4.4.4.5h.2s.1,0,.2-.2h0l-.5.8h0v-.4c0-.1-.1-.2-.2-.5,0,0,0-.1-.1-.2l-1.2-1.9h0l2.6.5h.5s.1,0,.2-.2h0l-.7,1h0c0-.2.1-.3.1-.3h0c0-.1-.1-.1-.3-.1h-.6c0-.1.1,0,.1,0ZM262.2,27.9l-1.4-.3.7,1.2.6-.9h0Z"/>
        </g>
      </g>
    </g>
    <g class="st2">
      <g class="st2">
        <g class="st2">
          <path class="st8" d="M263.5,24.5h0l-.5-.4,2-2.2.5.5h0c-.2,0-.3-.1-.4-.1h-.2s-.1.1-.3.2l-.3.4,1.6,1.4c.2.2.3.3.4.3h.2q.1,0,.2-.2h.1c0-.1,0,0,0,0l-1,1.1h0v-.2c.1,0,.2-.2.2-.2v-.2s-.2-.2-.3-.3l-1.6-1.4-.3.3c-.1.1-.2.2-.2.3v.2c0,.1.1.2.2.4h-.3Z"/>
        </g>
      </g>
    </g>
    <g class="st2">
      <g class="st2">
        <g class="st2">
          <path class="st8" d="M269.8,17.5l.4-.3c.3-.3.5-.4.7-.5.4-.3.7-.4,1-.4s.5,0,.8.1c.2.1.4.3.6.6.1.2.2.4.3.6s0,.4,0,.5,0,.3-.2.5c0,.1-.2.3-.3.4s-.3.2-.5.4l-1.1.8h0v-.2c.2,0,.3-.1.3-.2v-.2s-.1-.2-.3-.4l-.8-1.2c-.1-.2-.2-.3-.3-.4h-.2q-.1,0-.3.1h0v-.2ZM270.6,17.1l1.2,1.7c.2.2.3.4.4.5h.2c.1,0,.2,0,.3-.2.2-.2.4-.3.5-.5s.1-.4.1-.6-.1-.5-.3-.8c-.2-.2-.3-.4-.5-.5s-.3-.2-.5-.2h-.5c-.2,0-.3.1-.5.3,0,0-.2.1-.3.2h-.1Z"/>
        </g>
      </g>
    </g>
    <g class="st2">
      <g class="st2">
        <g class="st2">
          <path class="st8" d="M279.1,15.3l-.7.4c-.2,0-.5-.2-1-.4s-.3-.1-.4-.2c-.2,0-.2-.1-.3-.1h-.3l.3.7c.1.2.2.4.2.4,0,0,.1,0,.2.1h.4l-1.3.7h0c.1-.1.2-.2.2-.3v-.2c0-.1,0-.2-.2-.4l-.7-1.3-.2-.4h-.1q-.1,0-.3.1h0l.4-.2c.2-.1.5-.3.6-.3.2-.1.5-.2.7-.3s.4,0,.5,0,.3.2.4.3c0,.2.1.4,0,.5s-.2.4-.4.5c.1,0,.4,0,.8.3.4.2.6.3.8.3h.5c0,.1,0-.2,0-.2ZM276.4,15c.1,0,.2-.1.3-.2s.2-.1.2-.2.1-.1.1-.2v-.2s0-.2-.1-.3c-.1-.2-.2-.3-.4-.4s-.4,0-.7.2h-.2l.7,1.2h.1Z"/>
        </g>
      </g>
    </g>
    <g class="st2">
      <g class="st2">
        <g class="st2">
          <path class="st8" d="M280.3,11.6h0l1.3-.6h0c-.1,0-.2.1-.3.2s0,0,0,.2c0,0,0,.2.2.5l.5,1.4c0,.2.2.4.2.4,0,0,0,.1.1.1h.3l-1.3.5h0c.1-.1.2-.1.2-.2v-.2s0-.2-.2-.5l-.5-1.4c0-.2-.2-.4-.2-.4h-.1c0-.1-.2-.1-.3-.1h0Z"/>
        </g>
      </g>
    </g>
    <g class="st2">
      <g class="st2">
        <g class="st2">
          <path class="st8" d="M287.6,12.4l-2.8-2.2.5,2c0,.2,0,.3.1.3s0,0,.2.1.2,0,.4,0h0c0,.1-1.1.4-1.1.4h0c.1-.2.2-.2.3-.3v-.5l-.4-1.6c0-.2-.1-.4-.2-.4,0,0,0-.1-.1-.1h-.3c0-.1.8-.3.8-.3l2.3,1.8-.5-1.8c0-.1,0-.2-.1-.3h-.5c0-.1,1-.4,1-.4h0c0,.1-.2.2-.2.2,0,0,0,.1-.1.2v.3l.6,2.4h0v.2Z"/>
        </g>
      </g>
    </g>
    <g class="st2">
      <g class="st2">
        <g class="st2">
          <path class="st8" d="M291.2,10.1l.8-.9c.2-.2.3-.4.3-.4,0-.1-.1-.2-.3-.2h0c0-.1,1.1-.2,1.1-.2h0c0,.1-.2.1-.3.2s-.2.1-.2.2-.2.2-.4.4l-.5.6,1.3,1c.3.2.5.4.6.4h.4c0,.1-1.6.3-1.6.3h0c.2-.1.3-.1.3-.1h0c0-.1-.1-.3-.4-.5l-1-.8-.2.2v.5c.1.2.1.4.1.5s0,.1.1.2.1,0,.3,0h0l-1.4.3h0c.1-.1.2-.1.3-.1v-.7l-.2-1.5v-.5s0-.1-.1-.1h-.3c0-.1,1.3-.3,1.3-.3h0c-.1.1-.2.1-.3.1h0v1.4h.3Z"/>
        </g>
      </g>
    </g>
    <g class="st2">
      <g class="st2">
        <g class="st2">
          <path class="st8" d="M302.3,8.4v.8h-.1c0-.2,0-.3-.1-.4s-.1-.2-.2-.2h-1v1.2c-.1,0,.2,0,.2,0h.4c.1,0,.1-.2.1-.4h.1v1.1h-.2v-.3s0-.1-.1-.2-.1,0-.3,0h-.3v1.4c0,0,.1,0,.3,0h.1c0,.1-1.4,0-1.4,0h0c0-.1.1-.1.1-.1h.3c0,0,0,0,.1-.1v-2c.1-.2.1-.4.1-.5v-.2c0,0-.1,0-.3,0h0c0-.1,2.3,0,2.3,0h0Z"/>
        </g>
      </g>
    </g>
    <g class="st2">
      <g class="st2">
        <g class="st2">
          <path class="st8" d="M307.1,11.3h.1l-.2.9-2.5-.5h0c.1-.1.2-.1.3-.1s0,0,.1-.1c0,0,0-.2.1-.5l.3-1.5v-.7s-.1,0-.3-.1h0c0-.1,2.2.3,2.2.3v.8h-.2v-.5c0-.1-.1-.2-.2-.2s-.2,0-.4-.1h-.4l-.2,1.2h.3c.1.1.2.1.3,0h.1v-.3h.1l-.2,1h-.1v-.4s0-.1-.1-.1h-.6v.6c-.1.4-.1.6-.1.6,0,0,.1.1.4.2h.6c.1,0,.2,0,.3-.2s.2-.3.3-.5h0v.2Z"/>
        </g>
      </g>
    </g>
    <g class="st2">
      <g class="st2">
        <g class="st2">
          <path class="st8" d="M312.1,12.8h.1l-.4.9-2.4-.8h.4c.1-.2,0-.3.2-.5l.5-1.4c0-.2.1-.4.1-.4v-.2s-.1,0-.3-.1h0l2.1.6-.2.7h-.1v-.5c0-.1-.1-.2-.2-.2s-.2-.1-.4-.2h-.4c0-.1-.4,1.1-.4,1.1h.3c.1.2.2.2.3.2h.1s0-.1.1-.3h.1l-.3,1h-.1v-.4h0c0-.1-.1-.1-.2-.2h-.3c0-.1-.2.6-.2.6-.1.3-.2.5-.1.6s.1.1.3.2h.2c.2.1.3.1.4.1s.2,0,.4-.1.2-.2.4-.4h0v-.3Z"/>
        </g>
      </g>
    </g>
    <g class="st2">
      <g class="st2">
        <g class="st2">
          <path class="st8" d="M317,15l-.4.8-2.3-1.1h.5c.1,0,.1-.2.2-.4l.6-1.3.2-.4v-.2s-.1-.1-.2-.2h0c0-.1,1.3.5,1.3.5h-.5l-.2.4-.7,1.4c0,.2-.1.3-.2.4v.2c0,0,.1.1.3.2h.2c.2.2.3.2.4.2h.3c0,0,.3-.2.4-.4h.1Z"/>
        </g>
      </g>
    </g>
    <g class="st2">
      <g class="st2">
        <g class="st2">
          <path class="st8" d="M324,19l1,.8h-.5c-.1,0-.2.2-.3.4l-.2.3h0s-.2-.1-.4-.2c-.3,0-.5-.2-.7-.3-.4-.3-.5-.6-.6-1,0-.4,0-.8.3-1.1s.6-.6,1-.7.8,0,1.2.3c.3.2.5.6.5,1,.1,0,.2-.1.3-.2h0l-.6.9h0c.2-.4.2-.6.2-.9s-.2-.5-.4-.7c-.2-.2-.5-.2-.8-.2s-.6.3-.9.7c-.3.4-.5.8-.4,1.1,0,.3.2.5.4.7.1,0,.3.2.4.2h.4c.1,0,.2-.1.3-.2.1-.1.2-.2.2-.3h0c0-.1,0-.2-.2-.3h0c0-.1-.2-.3-.2-.3Z"/>
        </g>
      </g>
    </g>
    <g class="st2">
      <g class="st2">
        <g class="st2">
          <path class="st8" d="M327.3,21.4c.3-.3.7-.5,1.1-.5s.8.2,1.1.5.5.7.5,1.1-.1.8-.5,1.1c-.3.3-.7.5-1.1.5s-.8-.2-1.1-.5c-.3-.3-.5-.7-.5-1.1s.2-.8.5-1.1h0ZM327.7,21.8c-.4.3-.5.7-.6,1s0,.6.4.9c.2.2.5.4.8.3s.6-.2,1-.6c.3-.3.5-.7.6-1s0-.6-.3-.9-.5-.4-.8-.3c-.3,0-.6.2-1,.6h-.1Z"/>
        </g>
      </g>
    </g>
    <g class="st2">
      <g class="st2">
        <g class="st2">
          <path class="st8" d="M331.5,26c.4-.3.8-.4,1.2-.3.4,0,.8.3,1,.7.3.4.4.8.4,1.2s-.2.8-.6,1.1c-.4.3-.8.4-1.2.3s-.8-.3-1.1-.7c-.3-.4-.4-.8-.4-1.2s.3-.8.7-1.1h0ZM331.8,26.4c-.4.3-.6.6-.7.9s0,.6.2.9.5.4.8.4.7-.1,1.1-.4.6-.6.7-.9c0-.3,0-.6-.2-.9s-.5-.4-.8-.5-.7.1-1,.4h-.1Z"/>
        </g>
      </g>
    </g>
    <g class="st2">
      <g class="st2">
        <g class="st2">
          <path class="st8" d="M336.3,30.2l.3.4c.2.4.4.6.4.7.2.4.3.7.3,1s0,.5-.2.8c-.1.2-.4.4-.6.5s-.4.2-.6.2h-.5c-.2,0-.3,0-.4-.2s-.2-.2-.3-.3c0,0-.2-.3-.3-.5l-.7-1.2h0c0,.1.1.2.2.2h.2s.2,0,.4-.2l1.3-.7c.2-.1.4-.2.4-.2h0c0-.1,0-.2-.1-.4h0c0-.1.2-.1.2-.1ZM336.7,31.1l-1.8,1c-.3,0-.4.2-.5.3s-.1,0-.1.2,0,.2.1.3c.1.2.3.4.4.5s.3.2.6.2.5,0,.8-.2c.2,0,.4-.3.5-.4s.2-.3.3-.5v-.5c0-.2-.1-.3-.2-.5,0-.1-.1-.2-.2-.3h.1Z"/>
        </g>
      </g>
    </g>
    <g class="st2">
      <g class="st2">
        <g class="st2">
          <path class="st8" d="M259.6,72.8h0l.7,1.2h0c0,0-.1-.2-.2-.2h-.2s-.2,0-.4.2l-1.3.7c-.2,0-.4.2-.4.2v.2c-.1,0-.1.2-.1.3h0c0,0-.7-1.1-.7-1.1h0c0,0,.1.2.2.2h.2s.2,0,.4-.2l1.3-.7c.2,0,.4-.2.4-.2h0q0-.2-.1-.4h0l.2-.2Z"/>
        </g>
      </g>
    </g>
    <g class="st2">
      <g class="st2">
        <g class="st2">
          <path class="st8" d="M259.7,78.8l1.3-3.3-1.8,1.1c-.1,0-.2.2-.3.2s0,0,0,.2,0,.2.1.4h0l-.6-.9h0s.2,0,.2.2h.2s.2,0,.3-.2l1.4-.9c.2,0,.3-.2.4-.3s0,0,0-.2,0,0-.1-.3h0l.5.7-1,2.8,1.5-1c.1,0,.2,0,.2-.2v-.2s0-.2-.1-.3h0l.6.9h0s-.2,0-.2-.2-.1,0-.2,0-.1,0-.2,0l-2.1,1.3h0Z"/>
        </g>
      </g>
    </g>
    <g class="st2">
      <g class="st2">
        <g class="st2">
          <path class="st8" d="M264,82.2l1.1-.2c.2,0,.3,0,.4,0v-.2s0-.2-.1-.3h0l.7.7h-.8l-1.3.2-.3.3c-.2.2-.3.3-.4.3v.2q0,0,.2.3h0l-.8-.9h0c0,0,.2.2.2.2h.2s.2,0,.4-.3l.3-.2.5-1.4c0-.3.1-.5.1-.5,0,0,0-.2-.1-.3h0l.8.9h0c-.1,0-.3-.2-.3,0,0,0,0,0-.1.2l-.4,1.3h0l-.3-.2Z"/>
        </g>
      </g>
    </g>
    <g class="st2">
      <g class="st2">
        <g class="st2">
          <path class="st8" d="M265.5,83.6c.3-.3.7-.5,1.1-.5s.8.2,1.1.5c.3.3.5.7.5,1.1s-.1.8-.5,1.1-.7.5-1.1.5-.8-.2-1.2-.5c-.3-.3-.5-.7-.5-1.1s.1-.8.5-1.1h.1ZM265.9,84c-.3.4-.5.7-.6,1,0,.3,0,.6.4.9.2.2.5.3.8.3s.6-.2,1-.6c.3-.3.5-.7.5-1s0-.6-.3-.9-.5-.4-.9-.3-.6.2-1,.6h.1Z"/>
        </g>
      </g>
    </g>
    <g class="st2">
      <g class="st2">
        <g class="st2">
          <path class="st8" d="M271.5,87l.8.6h-.5s-.1,0-.2.3l-.6.8c-.2.2-.3.4-.4.4s-.2,0-.4.2h-.5c-.2,0-.4-.2-.5-.3-.2-.2-.4-.4-.5-.5s-.1-.4,0-.5.1-.3.3-.5l.2-.2.6-.7c.2-.2.2-.3.3-.4s0,0,0-.2,0,0-.2-.2h0c0,0,1.1.8,1.1.8h0c-.1,0-.2,0-.2-.2h-.2c-.1,0-.2.2-.3.4l-.6.7c-.2.3-.3.5-.4.6v.4c0,0,.2.3.4.5.1,0,.3.2.5.2h.4c.1,0,.2,0,.3-.2,0,0,.2-.2.3-.4l.7-.8c.1,0,.2-.2.2-.3v-.2s0-.2-.2-.2h-.4Z"/>
        </g>
      </g>
    </g>
    <g class="st2">
      <g class="st2">
        <g class="st2">
          <path class="st8" d="M274.1,92.4l-.7-.4c0-.2-.1-.5-.1-1v-.8h-.1c0,0-.1,0-.1,0l-.4.5c-.1.2-.2.3-.2.4v.2q0,0,.2.2h.1v.2l-1.2-.8h0c.1,0,.2,0,.2,0h.2s.1-.2.3-.4l.8-1.3c.1-.2.2-.3.2-.4v-.2c0,0-.1,0-.2-.2h0c0,0,.4,0,.4,0,.2,0,.4.3.6.4.2.2.4.3.5.5s.2.3.2.5,0,.3-.1.5-.3.3-.5.3-.4,0-.7,0c0,0,.1.4.2.9,0,.4,0,.7.1.8s.2.3.3.4h0v-.3ZM273,89.9s.2,0,.3.2.2,0,.3,0h.2s.1,0,.2,0l.2-.2c.1-.2.2-.4.1-.5s-.2-.4-.5-.5h-.2l-.8,1.2h0l.2-.2Z"/>
        </g>
      </g>
    </g>
    <g class="st2">
      <g class="st2">
        <g class="st2">
          <path class="st8" d="M277.6,92.6c.2-.4.5-.7.9-.8s.8,0,1.3,0c.4.2.7.5.9.9s.2.8,0,1.2c-.2.4-.5.7-.9.8s-.8,0-1.3,0c-.4-.2-.7-.5-.9-.9-.2-.4-.1-.8,0-1.3h0ZM278,92.8c-.2.4-.3.8-.2,1.1,0,.3.3.5.6.7.3,0,.6,0,.9,0s.5-.4.7-.9c.2-.4.3-.8.2-1.1s-.3-.5-.6-.7-.6-.2-.9,0c-.3,0-.5.4-.7.9h0Z"/>
        </g>
      </g>
    </g>
    <g class="st2">
      <g class="st2">
        <g class="st2">
          <path class="st8" d="M283.9,96.9h0v-2.7l-1.6,2.1h-.1v-3.2c0,0-.1,0-.2,0h0l1.1.3h-.3v2.4l1.5-2.1h.1v2.6l1-1.4c.1-.2.2-.3.2-.4,0-.2,0-.3-.2-.4h0l.8.2h0c-.1,0-.2,0-.3,0,0,0-.2.2-.4.5l-1.4,2h-.2Z"/>
        </g>
      </g>
    </g>
    <g class="st2">
      <g class="st2">
        <g class="st2">
          <path class="st8" d="M288.8,98.1l-1.5-3.2-.4,2.1v.3s0,0,.1.2c0,0,.2,0,.3,0h0c0,0-1.1,0-1.1,0h0c.2,0,.3,0,.4,0,0,0,.1,0,.2,0v-.3l.3-1.6v-.7c0,0-.1,0-.3,0h0c0,0,.9,0,.9,0l1.3,2.7.4-1.8v-.3s0,0-.1-.2c0,0-.2,0-.3,0h0c0,0,1.1,0,1.1,0h0c-.1,0-.2,0-.3,0s-.1,0-.2,0v.3l-.5,2.5h-.3Z"/>
        </g>
      </g>
    </g>
    <g class="st2">
      <g class="st2">
        <g class="st2">
          <path class="st8" d="M295.2,98.9l-1.9-3-.2,2.1v.4s0,0,.1.2h.4c0,0-1.1,0-1.1,0h0c.2,0,.3,0,.3-.2,0,0,.1,0,.1,0v-2c.1-.2.1-.4.1-.5v-.2h-.3c0,0,.9,0,.9,0l1.6,2.5v-1.8c.1,0,.1-.2.1-.3s0,0-.2,0h-.3c0,0,1.1,0,1.1,0h0c-.1,0-.2,0-.3.2s-.1,0-.2,0v.3l-.2,2.5h0Z"/>
        </g>
      </g>
    </g>
    <g class="st2">
      <g class="st2">
        <g class="st2">
          <path class="st8" d="M299.4,97.9h.1v.9h-2.6q.2,0,.3,0v-2.9c0,0-.1,0-.3,0h0c0,0,2.2,0,2.2,0v.8h0c0-.2-.1-.4-.2-.4s-.2,0-.2-.2h-.9v1.3h.6c0,0,0,0,.1,0s0-.2,0-.3h.1v1h0v-.3h-.1c0,0-.1,0-.3,0h-.3v1.3h1c.1,0,.2,0,.3-.3,0,0,.2-.3.2-.5h0Z"/>
        </g>
      </g>
    </g>
    <g class="st2">
      <g class="st2">
        <g class="st2">
          <path class="st8" d="M300.4,95.8h0c0,0,1.4-.2,1.4-.2h0c-.1,0-.2,0-.3,0s0,0,0,0v2c.1.2.2.4.2.5,0,0,0,0,.1.2s.1,0,.3,0h0l-1.4.2h0c.1,0,.2,0,.3,0s0,0,0-.2v-2c-.1-.2-.2-.4-.2-.5s0,0-.1,0h-.3Z"/>
        </g>
      </g>
    </g>
    <g class="st2">
      <g class="st2">
        <g class="st2">
          <path class="st8" d="M305,96.9l1.3-.2h0c-.1,0-.2.2-.3.2s0,0,0,.2v.8h0c-.1,0-.3,0-.4.2-.2,0-.5.2-.7.3-.4,0-.8,0-1.1-.2s-.5-.6-.6-1c0-.4,0-.8.2-1.2s.6-.6,1-.7c.4,0,.8,0,1.1.3v-.4h.1l.2,1h-.1c0-.3-.2-.5-.5-.7s-.5-.2-.7-.2c-.3,0-.5.2-.7.4s-.2.6-.1,1.2.2.9.5,1.1.5.3.8.2c.2,0,.3,0,.4-.2s.2-.2.2-.3v-.7h-.6Z"/>
        </g>
      </g>
    </g>
    <g class="st2">
      <g class="st2">
        <g class="st2">
          <path class="st8" d="M309.7,95.6l-1.5.4.2.7c0,.2.1.4.1.4,0,0,0,0,.1,0h.3l-1.3.4h0c.1,0,.2,0,.2-.2v-.2c0,0,0-.2-.1-.5l-.4-1.4c0-.2-.1-.4-.1-.4,0,0,0,0-.1,0h-.3l1.3-.4h0c-.1,0-.2,0-.3.2v.2q0,.2.1.5l.2.6,1.5-.4-.2-.6c0-.2-.1-.4-.1-.4,0,0,0,0-.1,0h-.3l1.3-.4h0c-.1,0-.2,0-.3.2s0,0,0,.2,0,.2.1.5l.4,1.4c0,.2.1.4.1.4,0,0,0,0,.1,0h.3l-1.3.5h0c.1,0,.2,0,.2-.2v-.2c0,0,0-.2-.1-.5l-.2-.7h.2Z"/>
        </g>
      </g>
    </g>
    <g class="st2">
      <g class="st2">
        <g class="st2">
          <path class="st8" d="M312.9,94.4c.3,0,.6,0,.8,0s.4.2.4.4v.5c0,.2-.2.3-.3.4s-.4.2-.6.3l-1.1.4h.1c.1,0,.2,0,.2-.2v-.2s0-.2-.2-.5l-.5-1.4c0-.2-.2-.4-.2-.4h-.1c0,0-.2,0-.3,0h0l.5-.2.5-.2c.8-.3,1.3-.2,1.4.2v.5c0,.2-.3.3-.5.5h0ZM312.4,94.5h0c.3,0,.5-.2.6-.4v-.5c0,0-.1-.2-.2-.3s-.2,0-.3,0-.3,0-.5,0h-.2l.4,1.2h.2ZM312.5,94.6l.2.6c.1.3.2.4.2.5s0,0,.1,0h.3c.2,0,.4-.2.4-.4v-.6c0-.2-.2-.4-.4-.4h-.9v.2Z"/>
        </g>
      </g>
    </g>
    <g class="st2">
      <g class="st2">
        <g class="st2">
          <path class="st8" d="M315.1,93.6c-.2-.4-.2-.8,0-1.2.2-.4.4-.7.9-.9s.8-.3,1.3,0c.4,0,.7.4.9.8.2.4.2.8,0,1.2s-.4.7-.9.9-.8.2-1.3,0c-.4,0-.7-.4-.9-.8h0ZM315.6,93.4c.2.4.5.7.7.9s.6,0,1,0c.3,0,.5-.4.6-.7,0-.3,0-.7-.2-1.1s-.5-.7-.7-.8-.6,0-.9,0c-.3.2-.5.4-.6.7,0,.3,0,.7.2,1.1h-.1Z"/>
        </g>
      </g>
    </g>
    <g class="st2">
      <g class="st2">
        <g class="st2">
          <path class="st8" d="M319.2,91.5c-.2-.4-.3-.8-.2-1.2s.4-.7.8-1,.8-.3,1.2-.3.8.3,1,.7c.2.4.3.8.2,1.2s-.4.7-.8,1-.8.3-1.2.3-.8-.3-1-.7h0ZM319.6,91.3c.3.4.5.7.8.8s.6,0,.9-.2.5-.4.5-.7,0-.7-.3-1.1c-.2-.4-.5-.7-.8-.8-.3,0-.6,0-.9,0-.3.2-.5.4-.5.8s0,.7.3,1.1h0Z"/>
        </g>
      </g>
    </g>
    <g class="st2">
      <g class="st2">
        <g class="st2">
          <path class="st8" d="M326.5,88.3l-.7.5c-.2,0-.5,0-1-.2-.2,0-.3,0-.5,0s-.3,0-.3,0h-.2l.4.6c.1.2.2.3.3.4h.2q.1,0,.2,0h.1l-1.1.9h0c.1,0,.2-.2.2-.3v-.2c0,0-.1-.2-.3-.4l-.9-1.2c-.1-.2-.2-.3-.3-.4s-.1,0-.2,0-.1,0-.3.2h0l.3-.3c.2-.2.4-.3.5-.4.2-.2.4-.3.6-.4s.4,0,.5,0,.3,0,.4.2c.1.2.2.3.1.5s-.1.4-.4.6c.1,0,.4,0,.9,0,.4,0,.6.2.8,0,.2,0,.3,0,.5-.2h0c0,0,.2,0,.2,0ZM323.7,88.5s.2,0,.3-.2.2-.2.2-.2v-.4s0-.2-.2-.3c-.1-.2-.3-.3-.4-.3s-.4,0-.7.3h-.1c0,0,.8,1.2.8,1.2h.1Z"/>
        </g>
      </g>
    </g>
    <g class="st2">
      <g class="st2">
        <g class="st2">
          <path class="st8" d="M328.1,84.8l-1.1,1.1.5.5c.2.2.3.3.3.3h.2s.1,0,.2-.2h0l-1,.9h0c0,0,.1-.3.2-.3v-.2c0,0-.1-.2-.3-.4l-1-1.1c-.2-.2-.3-.3-.3-.3h-.2s-.1,0-.2.2h0l1-.9h0c-.1.2-.2.3-.2.3v.2s.1.2.3.4l.4.4,1.1-1.1-.4-.4c-.2-.2-.3-.3-.3-.3h-.2q-.1,0-.2.2h0l1-1h0c-.1.2-.2.3-.2.3v.2s.1.2.3.4l1,1.1c.2.2.3.3.3.3h.2s.1,0,.2-.2h0l-1,1h0c0,0,.1-.3.2-.3s0,0,0-.2-.1-.2-.3-.4l-.5-.5h0Z"/>
        </g>
      </g>
    </g>
    <g class="st2">
      <g class="st2">
        <g class="st2">
          <path class="st8" d="M329.5,83.3c-.4-.3-.5-.7-.5-1.1s.1-.8.4-1.2c.3-.4.7-.6,1.1-.6s.8,0,1.2.4c.4.3.5.7.6,1.1s-.1.8-.4,1.2c-.3.4-.7.6-1.1.6s-.8,0-1.2-.4h-.1ZM329.9,82.9c.4.3.7.5,1,.5s.6,0,.8-.4c.2-.3.3-.5.2-.8,0-.3-.3-.6-.6-.9-.4-.3-.7-.5-1-.5s-.6,0-.8.4c-.2.3-.3.6-.3.9s.3.6.6.9h0Z"/>
        </g>
      </g>
    </g>
    <g class="st2">
      <g class="st2">
        <g class="st2">
          <path class="st8" d="M332.5,79.8c-.4-.3-.6-.6-.7-1,0-.4,0-.8.3-1.2.3-.4.6-.6,1-.7s.8,0,1.2.3c.4.3.6.6.7,1,0,.4,0,.8-.3,1.2-.3.4-.6.6-1,.7s-.8,0-1.2-.3h0ZM332.8,79.3c.4.3.8.4,1.1.4s.6-.2.8-.5c.2-.3.2-.6.2-.9s-.3-.6-.7-.9-.7-.4-1.1-.4-.6.2-.8.5c-.2.3-.3.6-.2.9s.3.6.7.9h0Z"/>
        </g>
      </g>
    </g>
    <g class="st2">
      <g class="st2">
        <g class="st2">
          <path class="st8" d="M333.7,75.3l.2-.4c.2-.4.3-.6.4-.8.2-.4.4-.7.7-.8.2-.2.5-.2.8-.2s.5,0,.8.2c.2,0,.4.2.5.4.1,0,.2.3.3.5s0,.3,0,.5,0,.3-.1.4-.1.3-.3.5l-.7,1.2h0v-.7c0,0-.2,0-.4-.2l-1.3-.7c-.2,0-.4-.2-.4-.2h-.2l-.2.2h0ZM334.2,74.6l1.8,1c.3,0,.4.2.5.3s.2,0,.2,0c0,0,.1,0,.2-.3.1-.2.2-.4.2-.6s0-.4-.2-.6-.3-.4-.6-.5c-.2,0-.4-.2-.7-.2h-.6c-.2,0-.3,0-.4.2s-.2.3-.3.5c0,0-.1.2-.2.3h.1Z"/>
        </g>
      </g>
    </g>
    <path class="st8" d="M331.8,36.4c-3.1-6.3-8-11.6-13.9-15.4-6.1-3.9-13.2-5.9-20.5-5.9s-14.4,2-20.5,5.9c-6,3.8-10.8,9.1-13.9,15.4l-.8-.4c3.2-6.4,8.1-11.9,14.2-15.7,6.3-3.9,13.5-6,20.9-6s14.7,2.1,20.9,6c6.1,3.8,11,9.3,14.2,15.7l-.8.4h.2Z"/>
    <g class="st2">
      <g class="st2">
        <g class="st2">
          <path class="st8" d="M271.5,71.5v1.2s0,0,.1.2.2,0,.3,0h.1c0,0-1.6,0-1.6,0h0q.2,0,.3,0c0,0,0,0,.1-.2s0-.3,0-.6v-2.2s0,0-.1-.2-.2,0-.4,0h0c0,0,.4,0,.4,0h1.6c.2,0,.4.2.5.3s.2.3.2.5,0,.4-.1.5-.2.3-.4.3-.4,0-.8,0h-.4l.2.2ZM271.5,71.4h.7c.1,0,.2,0,.3-.2s.1-.3.1-.5c0-.3,0-.5-.2-.6s-.4-.2-.7-.2-.2,0-.3,0v1.6h.1Z"/>
          <path class="st8" d="M275,69.8h0c0,0,1.6,0,1.6,0h0c-.2,0-.3,0-.3,0v.2c-.2.2-.1.3-.1.5v2.2s0,0,.1.2.2,0,.3,0h.1c0,0-1.6,0-1.6,0h0c0,0,.1,0,.1,0h.3c0,0,0,0,.1-.2s0-.3,0-.6v-2.2s0,0-.1-.2-.2,0-.4,0h-.1Z"/>
          <path class="st8" d="M278.4,73.2h0l2.3-3.4h-1.6c-.1,0-.2,0-.2.2s-.2.3-.2.5h-.1v-.8h2.7c0,0-2.2,3.4-2.2,3.4h1.8c.1,0,.2-.2.3-.3s.1-.3.2-.4h.1v.9h-3.1Z"/>
          <path class="st8" d="M283.4,73.2h0l2.3-3.4h-1.6c-.1,0-.2,0-.2.2s-.2.3-.2.5h-.1v-.8h2.7c0,0-2.2,3.4-2.2,3.4h1.8c.1,0,.2-.2.3-.3s.1-.3.2-.4h.1v.9h-3.1Z"/>
          <path class="st8" d="M290.5,71.9h-1.3v.2c-.2.3-.3.5-.3.6s0,.2.1.2h.3c0,0-1,0-1,0h0c.2,0,.3-.2.4-.3,0,0,.2-.3.3-.5,0,0,0,0,.1-.3l1-2.4h.1l1.2,2.8.2.4s0,0,.1.2.2,0,.3,0h0c0,0-1.4,0-1.4,0h0c.2,0,.3,0,.3-.2h0c0-.2,0-.3-.1-.4l-.3-.7h0v.2ZM290.4,71.8l-.6-1.5-.6,1.5h1.2Z"/>
          <path class="st8" d="M296.4,71.9h1.3v.4h-1.3v-.4Z"/>
        </g>
      </g>
      <g class="st2">
        <g class="st2">
          <path class="st8" d="M303.6,71.5v1.2s0,0,.1.2.2,0,.3,0h.1c0,0-1.6,0-1.6,0h0q.2,0,.3,0c0,0,0,0,.1-.2v-2.8s0,0-.1-.2-.2,0-.4,0h0c0,0,.4,0,.4,0h1.6c.2,0,.4.2.5.3s.2.3.2.5,0,.4-.1.5-.2.3-.4.3-.4,0-.8,0h-.4l.2.2ZM303.6,71.4h.7c.1,0,.2,0,.3-.2s.1-.3.1-.5c0-.3,0-.5-.2-.6s-.4-.2-.7-.2-.2,0-.3,0v1.6h.1Z"/>
        </g>
      </g>
      <g class="st2">
        <g class="st2">
          <path class="st8" d="M308.8,71.9h-1.3v.2c-.2.3-.3.5-.3.6s0,.2.1.2h.3c0,0-1,0-1,0h0c.2,0,.3-.2.4-.3,0,0,.2-.3.3-.5,0,0,0,0,.1-.3l1-2.4h.1l1.2,2.8.2.4s0,0,.1.2h.3c0,0-1.4,0-1.4,0h0c.2,0,.3,0,.3-.2h0c0-.2,0-.3-.1-.4l-.3-.7h0v.2ZM308.7,71.8l-.6-1.5-.6,1.5h1.2Z"/>
          <path class="st8" d="M312,73.1v-1.1h.1c.1.7.5,1.1,1,1.1s.4,0,.6-.2.2-.3.2-.5,0-.3-.2-.4-.3-.2-.7-.4c-.3,0-.5-.2-.6-.3s-.2-.2-.3-.4-.1-.3-.1-.5,0-.5.3-.6.4-.2.7-.2h.4c.1,0,.3,0,.4.3,0,0,.1-.2.1-.3h.1v.9h-.1c0-.3-.2-.5-.4-.6s-.4-.2-.6-.2-.4,0-.5.2c0,0-.1.2-.1.4s0,.3.2.4c.1,0,.3.2.7.4.3,0,.5.2.7.3s.2.2.3.3.1.3.1.5c0,.3-.1.5-.3.7s-.5.3-.8.3-.7,0-1-.4c0,0-.1.2-.1.3h-.1Z"/>
        </g>
      </g>
      <g class="st2">
        <g class="st2">
          <path class="st8" d="M316.3,70.5h-.1v-.8h3.4v.8h0c0-.2,0-.4-.2-.5s-.1-.2-.2-.2h-1v3s0,.2.1.2h.5c0,0-1.7,0-1.7,0h0c0,0,.2,0,.2,0h.3c0,0,0,0,.1-.2s0-.3,0-.6v-2.5h-1c-.1,0-.2,0-.2.2s-.1.3-.2.5h0Z"/>
        </g>
      </g>
      <g class="st2">
        <g class="st2">
          <path class="st8" d="M323.2,71.9h-1.3v.2c-.2.3-.3.5-.3.6s0,.2.1.2h.3c0,0-1,0-1,0h0c.2,0,.3-.2.4-.3,0,0,.2-.3.3-.5,0,0,0,0,.1-.3l1-2.4h.1l1.2,2.8.2.4s0,0,.1.2h.3c0,0-1.4,0-1.4,0h0c.2,0,.3,0,.3-.2h0c0-.2,0-.3-.1-.4l-.3-.7h0v.2ZM323.2,71.8l-.6-1.5-.6,1.5h1.2Z"/>
        </g>
      </g>
      <g class="st2">
        <g class="st2">
          <path class="st8" d="M285,77.4h1.1c-.1.2-.3.2-.4.3s-.2.3-.3.5c0,.2-.2.4-.2.5.2.3.3.4.4.5.1,0,.2,0,.3,0s.3,0,.4-.2h.1c0,0-.1.3-.2.4s-.2,0-.4,0c-.3,0-.6-.2-.9-.5-.3.3-.6.5-1,.5h-.4c-.2,0-.2,0-.3-.2s-.2-.2-.2-.3v-.4c0-.2,0-.4.2-.5.1,0,.3-.3.7-.6-.2-.3-.3-.5-.3-.8s0-.3.2-.5.3-.2.5-.2.4,0,.5.2.2.2.2.4c0,.3-.2.5-.7.8.2.2.3.4.4.6s.3.4.4.6c.1,0,.2-.3.2-.4v-.4c0-.2-.1-.3-.4-.4h0c0,0,0,0,0,0ZM283.9,77.6c-.2,0-.3.2-.4.4-.1,0-.1.3-.1.4,0,.2,0,.4.2.6s.4.3.6.3.5,0,.7-.4c-.2-.3-.4-.5-.5-.8s-.3-.4-.4-.6h-.1ZM284.1,77.3c.3-.2.5-.4.5-.7s0,0,0-.2h0q0,0-.1,0h-.2c-.1,0-.2,0-.3,0s-.1.2-.1.3.1.4.3.7h0Z"/>
          <path class="st8" d="M293.4,78.9l1.3-2.9h1.1c0,0-.1,0-.1,0h-.3v.2c-.2.2-.1.3-.1.5v2.2s0,0,.1.2.2,0,.3,0h.2c0,0-1.7,0-1.7,0h0c0,0,.1,0,.1,0h.3c0,0,0,0,.1-.2s0-.3,0-.6v-2.2l-1.4,3.1h-.1l-1.4-3.1v2.6c0,0,0,.2.2.3s.2,0,.4,0h0c0,0-1.3,0-1.3,0h0c.2,0,.3-.2.4-.2s.2-.2.2-.3v-2.6s0,0-.1-.2-.2,0-.4,0h0c0,0,1.1,0,1.1,0l1.3,2.9h-.2Z"/>
          <path class="st8" d="M297.7,77.7c0-.5.2-1,.5-1.3s.8-.5,1.4-.5,1,.2,1.4.5.5.8.5,1.3-.2,1-.5,1.3-.8.5-1.4.5-1-.2-1.4-.5-.5-.8-.5-1.3h0ZM298.2,77.8c0,.6.1,1,.3,1.3s.6.4,1,.4.7,0,.9-.4.4-.7.4-1.3-.1-1-.3-1.3-.5-.4-1-.4-.7,0-1,.4-.3.7-.3,1.3h0Z"/>
          <path class="st8" d="M307.2,79.5h-1c-.2,0-.4-.4-.8-.9-.1-.2-.2-.3-.4-.5-.1,0-.2-.2-.2-.3s-.1,0-.2,0h-.1v1.3s0,0,.1.2.2,0,.3,0h.2c0,0-1.7,0-1.7,0h0c0,0,.1,0,.1,0h.3c0,0,0,0,.1-.2s0-.3,0-.6v-2.2s0,0-.1-.2-.2,0-.4,0h0c0,0,.5,0,.5,0h1.6c.2,0,.4.2.5.3s.2.3.2.5,0,.4-.2.6-.4.3-.7.3c.1,0,.4.3.7.8.3.4.5.6.6.7s.3.2.5.2h0c0,0,.1,0,.1,0ZM304.5,77.7h.8c.1,0,.2,0,.2,0s.1,0,.1-.2v-.4c0-.2,0-.4-.2-.6s-.4-.2-.8-.2-.1,0-.2,0v1.6h.1Z"/>
          <path class="st8" d="M311.8,78.4h.1v1.1h-3c.2,0,.3,0,.3,0v-2.9q0,0-.1-.2h-.3c0,0,2.5,0,2.5,0v.9h0c0-.2-.1-.4-.2-.5s-.2-.2-.3-.2h-1v1.5h.8q.1,0,.1,0v-.4h.1v1.2h-.1v-.4q0,0-.1,0h-.7v1.5s.2,0,.4,0h.8c.2,0,.2,0,.3-.3.1,0,.2-.4.2-.6h0l.2-.4Z"/>
        </g>
      </g>
    </g>
    <path class="st8" d="M297.4,103.4c-13.3,0-25.9-5.2-35.3-14.6s-14.6-22-14.6-35.3,5.2-25.8,14.6-35.3c9.4-9.4,22-14.6,35.3-14.6s25.9,5.2,35.3,14.6c9.4,9.4,14.6,22,14.6,35.3s-5.2,25.9-14.6,35.3-22,14.6-35.3,14.6h0ZM297.4,5.3c-12.9,0-25,5-34,14.1-9.1,9.1-14.1,21.2-14.1,34s5,25,14.1,34c9.1,9.1,21.2,14.1,34,14.1s25-5,34-14.1c9.1-9.1,14.1-21.2,14.1-34s-5-25-14.1-34c-9.1-9.1-21.2-14.1-34.1-14.1h.1Z"/>
    <path class="st8" d="M297.4,92.8c-8.6,0-17.1-2.9-23.9-8.2-6.8-5.2-11.8-12.6-14-20.7l.8-.2c2.2,7.9,7.1,15.1,13.7,20.2,6.7,5.2,15,8,23.4,8s16.5-2.7,23.2-7.8c6.5-4.9,11.4-11.9,13.7-19.7l.8.2c-2.4,8-7.3,15.1-14,20.1-6.9,5.2-15.1,8-23.7,8h0Z"/>
    <path class="st8" d="M335.9,52c-.4-10-4.5-19.3-11.7-26.2-7.2-7-16.7-10.8-26.7-10.8s-17.6,3.1-24.5,8.8c-6.8,5.6-11.5,13.4-13.2,21.9l-.9-.2c1.8-8.7,6.6-16.7,13.5-22.4,7-5.8,15.9-9,25-9s20,3.9,27.3,11c7.4,7.1,11.6,16.6,12,26.8h-.9.1Z"/>
    <g class="st2">
      <g class="st2">
        <g class="st2">
          <path class="st8" d="M276.4,42c-.9-.5-1.7-1.1-2.2-2.1s-.8-2.1-.8-3.5.4-3.5,1.3-5.1,2.1-2.9,3.6-3.9,3.2-1.5,5-1.5,1.9.1,2.8.4,1.4.7,1.8,1.2c-.2.4-.3.9-.4,1.5s-.2,1.2-.2,1.7h-.6v-.8c0-.4,0-.6-.1-.9-.1-.7-.4-1.3-.9-1.7s-1.3-.6-2.3-.6c-1.6,0-3.1.5-4.4,1.4s-2.4,2.2-3.1,3.7-1.1,3-1.1,4.5.2,2.1.7,2.9c.5.8,1.1,1.3,1.8,1.7.8.4,1.6.6,2.5.6,1.6,0,3.1-.5,4.5-1.6s2.5-2.5,3.2-4.5c.4,0,.6.3.6.8s-.4,1.7-1.2,2.7-1.9,1.9-3.2,2.6-2.7,1.1-4.1,1.1-2.1-.2-3.1-.7h0Z"/>
          <path class="st8" d="M300.7,37.3c0,.6-.4,1.3-1.2,2.1s-1.7,1.5-2.8,2.1c-1.1.6-2,.9-2.7.9s-1.3-.2-1.8-.5-.9-.8-1.2-1.2-.4-.8-.4-1c.2-.9.5-2.1.8-3.6l.2-1.3c0-.3.3-.6.7-1,.4-.3.8-.6,1.3-.8s.9-.3,1.1-.3.5,0,.8.2.6.4.9.7.4.7.4,1.2-.2,1.1-.5,1.6c-.4.5-.9.9-1.6,1.2s-1.6.5-2.6.5l-.3,1.5c0,0,0,.4.2.7s.4.6.8.9c.4.3.8.4,1.4.4s1.5-.2,2.3-.7,1.6-1.1,2.2-1.8c.7-.7,1.2-1.4,1.5-2.1.3,0,.4.2.4.5h0v-.2ZM294,33.9c-.3.2-.5.3-.8.6-.2.2-.4.4-.4.6-.2.7-.3,1.4-.4,2.1,1.2,0,2.1-.3,2.7-.7s.9-.9.9-1.4-.1-.7-.4-1-.5-.4-.8-.4-.4,0-.7.2h-.1Z"/>
          <path class="st8" d="M309.9,34.3v.2c0,.3-.1.6-.4.9s-.7.5-1.2.7-1,.3-1.4.3c-.8,0-1.4-.2-2-.6-.5-.4-.9-1-1-1.7-.7,0-1.3.5-1.9,1.3s-1,1.7-1.2,2.6c0,.2-.1.6-.4,1.4-.2.8-.4,1.7-.6,2.8h0q0,0-.2,0c-.2,0-.3,0-.5,0s-.3-.2-.3-.3c0-.2,0-.5.1-.8.9-4.3,1.5-7,1.8-8,0,0,0-.2.1-.3s.1,0,.2,0,.2,0,.4,0c.2,0,.4.2.5.3l-.4,1.3v.5c.2-.5.6-1,1.1-1.3s1-.5,1.5-.5h.5c.2,0,.3,0,.3,0,0,.7.2,1.3.6,1.7s.9.5,1.6.5,1.1,0,1.6-.3.8-.6,1.1-1.1c0,0,.1,0,.2,0h-.1Z"/>
          <path class="st8" d="M317.9,37.3c0,.6-.4,1.3-1.2,2.1s-1.7,1.5-2.8,2.1c-1.1.6-2,.9-2.7.9s-1.3-.2-1.8-.5c-.5-.4-.9-.8-1.2-1.2-.3-.4-.4-.8-.4-1,.2-.9.5-2.1.8-3.6l.2-1.3c0-.3.3-.6.7-1,.4-.3.8-.6,1.3-.8s.9-.3,1.1-.3.5,0,.8.2.6.4.9.7.4.7.4,1.2-.2,1.1-.5,1.6c-.4.5-.9.9-1.6,1.2s-1.6.5-2.6.5l-.3,1.5c0,0,0,.4.2.7s.4.6.8.9.8.4,1.4.4,1.5-.2,2.3-.7,1.6-1.1,2.2-1.8c.7-.7,1.2-1.4,1.5-2.1.3,0,.4.2.4.5h0v-.2ZM311.1,33.9c-.3.2-.5.3-.8.6-.2.2-.4.4-.4.6-.2.7-.3,1.4-.4,2.1,1.2,0,2.1-.3,2.7-.7s.9-.9.9-1.4-.1-.7-.4-1-.5-.4-.8-.4-.4,0-.7.2h-.1Z"/>
          <path class="st8" d="M315.9,42.1c-.5-.4-.8-.8-.8-1.2s0-.4.2-.6c.1-.2.3-.2.5-.3.2.6.4,1,.8,1.3s.8.4,1.4.4,1.2-.2,1.7-.6.6-.8.6-1.4-.1-.7-.3-1-.5-.6-1-1-.8-.8-1.1-1.1c-.2-.3-.4-.7-.4-1.1s.1-.9.4-1.4c.3-.4.7-.8,1.1-1s1-.4,1.4-.4.8,0,1.2.3c.4.2.6.4.6.8s-.2.6-.5,1c-.2-.4-.4-.6-.7-.8-.3-.2-.6-.3-.9-.3-.5,0-.9.2-1.1.5-.2.4-.4.7-.4,1.1s.1.5.3.8c.2.2.5.5.9.9.5.4.9.8,1.2,1.2.3.4.4.8.4,1.2s-.2,1-.5,1.5-.8.9-1.4,1.3-1.2.5-1.9.5-1.4-.2-1.9-.5h.2Z"/>
        </g>
      </g>
      <g class="st2">
        <g class="st2">
          <path class="st8" d="M254.6,63.6c-.7,0-1.2-.3-1.6-.5-.2-.5-.3-.9-.4-1.3l.2-.2c.5.5,1.1.9,1.6,1.1s1.2.4,2,.4,1.7-.2,2.4-.5,1.3-.9,1.9-1.8c.6-.9,1-2.1,1.4-3.7l.3-1.2c.5-2.4,1-4.4,1.5-5.9.2-.3.5-.5.8-.7s.6-.3,1-.5h.2c-.4.6-.7,1.4-1.1,2.6s-.7,2.6-1.1,4.3l-.3,1.5c-1.1,4.4-3.4,6.6-6.8,6.6s-1.3,0-2-.2h0ZM255.3,54.7c-.6-.9-.8-1.9-.8-2.8s.3-1.8.8-2.5c.6-.8,1.4-1.4,2.6-1.8s2.6-.7,4.2-.7,1.6,0,2.2,0,1.5.2,2.6.4c1.3.3,2.3.4,3,.4s1.3,0,1.9-.3,1-.6,1.3-1.1c-.2.7-.5,1.3-1.1,1.8s-1.4.7-2.5.7-1.1,0-1.8,0-1.6-.2-2.7-.4-2-.3-2.7-.4c-.7,0-1.3,0-1.7,0-.9,0-1.7.2-2.4.5-.7.3-1.4.8-1.8,1.4s-.7,1.3-.7,2.2.3,1.6.8,2.3,1.3,1.4,2.4,2.2h0c-.3,0-.6,0-.8,0s-.4,0-.6,0c-.8-.5-1.5-1.2-2.1-2.1h0Z"/>
          <path class="st8" d="M279.9,55.4v.2c0,.3-.2.6-.4.9-.3.3-.7.5-1.2.7s-1,.3-1.4.3c-.8,0-1.4-.2-2-.6-.5-.4-.9-1-1-1.7-.7,0-1.3.5-1.9,1.3s-1,1.7-1.2,2.6c0,.2-.1.6-.3,1.4-.2.8-.4,1.7-.6,2.8h0q0,0-.1,0c-.1,0-.3,0-.5,0s-.3-.2-.3-.3c0-.2,0-.5.1-.8.9-4.3,1.5-7,1.8-8,0,0,0-.2.1-.3h.2c.1,0,.2,0,.4,0,.2,0,.4.2.5.3l-.4,1.3v.5c.2-.5.6-1,1.1-1.3s1-.5,1.5-.5h.5c.2,0,.3,0,.3,0,0,.7.2,1.3.6,1.7s.9.5,1.6.5,1.1,0,1.6-.3c.4-.2.8-.6,1.1-1.1,0,0,.1,0,.2,0h-.3Z"/>
          <path class="st8" d="M291,58.8c0,.7-.3,1.4-.9,2.2s-1.4,1.4-2.2,2c-.9.5-1.7.8-2.4.8s-1.1-.2-1.4-.5-.5-.8-.6-1.4c-.4.5-.9,1-1.4,1.4s-1.1.5-1.6.5-.8,0-1.2-.4-.7-.6-1-1-.4-.8-.4-1.1l1.1-4.6c0-.4.3-.8.7-1.2.4-.4.8-.8,1.4-1,.5-.3,1.1-.4,1.6-.4s1.3.2,1.9.7c.1-.4.2-.6.3-.7s.2,0,.3-.2h1.1c0,0,0,0,0,0-.3.2-.5.6-.7,1.1-.5,1.8-.8,3.1-1,3.9-.2.8-.3,1.6-.3,2.2s0,1.1.2,1.4.5.4.8.4,1.1-.2,1.7-.6c.7-.4,1.3-1,1.9-1.7s1.1-1.5,1.4-2.4c.2,0,.3.2.3.6h.4ZM281.5,62.3c.4-.2.7-.4,1.1-.8s.5-.7.7-1.2l.4-1.9c0-.3.2-.8.3-1.5.2-.7.3-1.2.4-1.6-.4-.4-1-.6-1.6-.6s-.9,0-1.3.4-.7.6-.9.9c-.2.4-.4.7-.5,1l-.9,4.1c0,.4.2.7.5,1s.6.5.9.5.6,0,1-.3h-.1Z"/>
          <path class="st8" d="M305.4,59.7c-.1.6-.5,1.2-1.1,1.8s-1.3,1.1-2.2,1.6-1.7.6-2.5.6-1.5-.3-1.9-.8-.6-1.3-.6-2.2,0-.4,0-.5c-.6,1-1.4,1.9-2.3,2.5s-1.7,1-2.5,1-1.1-.2-1.4-.7-.5-1.2-.5-2,.3-2.7.9-5.6h-2.2c-.1,0-.2,0-.3-.2.2-.4.4-.7.5-.9h2.2l1.1-4.9c.1-.7.3-1.1.4-1.3s.3-.3.6-.3.4,0,.5.2c0,0,0,.2-.2.5s-.2.6-.3,1c-.3,1.3-.6,2.9-1,4.8h5.7l1.2-5.3c0-.3.2-.6.4-.7s.4-.2.7-.2.3,0,.3,0,0,.3-.2.5c0,.2-.2.5-.2.8l-1,4.9h4.1c0,.2,0,.4-.2.5s-.3.2-.5.2h-3.6c-.6,3.1-.9,4.9-.9,5.6s.1,1.3.4,1.7.7.5,1.3.5c.9,0,1.9-.3,2.8-1s1.8-1.5,2.5-2.6c.1.2.1.4.1.5h0ZM298.1,55.1h-5.7c-.6,3.2-.8,5-.8,5.6s.1,1.1.3,1.5c.2.4.5.6.8.6.5,0,1.1-.3,1.9-.8s1.4-1.3,2-2.3,1-2,1.3-3.1l.3-1.5h0Z"/>
          <path class="st8" d="M316.9,55.8c0,.4-.2.8-.5,1.2s-.7.7-1.3,1c-.5.3-1.1.4-1.7.4s-1.6-.2-2.2-.7c0,.4-.2.9-.4,1.4,0,.2-.1.5-.3,1.2-.2.6-.3,1.1-.3,1.6-.1.2-.3.5-.6.8-.3.3-.7.5-1.1.7s-.9.3-1.3.3-.9,0-1.4-.4-.8-.6-1.1-1-.4-.9-.4-1.4c.2-.6.4-1.3.5-1.8s.3-1.1.4-1.7l.2-1.1c0-.4.3-.7.6-1,.3-.4.7-.6,1.2-.8s1-.3,1.4-.3h.8c0-.4.1-.6.2-.7.1,0,.3-.2.6-.2h.5c0,.4-.1.8-.1,1.1,0,.9.3,1.6.8,2.2.5.6,1.3.9,2.2.9s1.3-.2,1.8-.5c.5-.4.9-.9,1.2-1.6.2,0,.2.2.2.5h0ZM309.8,59.4c.3-1,.5-1.9.6-2.5-.3-.4-.6-1-.7-1.6h0q0,0-.1,0c-.2,0-.5,0-.8,0-.6,0-1.1.2-1.5.5s-.7.7-.8,1.1c0,.2-.2.9-.5,2.2-.1.7-.3,1.5-.5,2.2,0,.6.2,1,.6,1.3s.8.5,1.2.5.8,0,1.2-.4c.4-.3.7-.5.8-.8.1-.6.3-1.3.5-2.1h0v-.2Z"/>
          <path class="st8" d="M325.6,55.4v.2c0,.3-.1.6-.4.9s-.7.5-1.2.7-1,.3-1.4.3c-.8,0-1.4-.2-2-.6-.5-.4-.9-1-1-1.7-.7,0-1.3.5-1.9,1.3s-1,1.7-1.2,2.6c0,.2-.1.6-.4,1.4-.2.8-.4,1.7-.6,2.8h0c0,.2,0,0-.1,0s-.3,0-.5,0-.3-.2-.3-.3c0-.2,0-.5.1-.8.9-4.3,1.5-7,1.8-8,0,0,0-.2.1-.3s.1,0,.2,0,.2,0,.4,0c.2,0,.4.2.5.3l-.4,1.3v.5c.2-.5.6-1,1.1-1.3s1-.5,1.5-.5h.5c.2,0,.3,0,.3,0,0,.7.2,1.3.6,1.7s.9.5,1.6.5,1.1,0,1.6-.3c.4-.2.8-.6,1.1-1.1,0,0,.1,0,.2,0h-.2Z"/>
          <path class="st8" d="M324.4,63.1c-.4-.4-.6-.9-.6-1.6.2-.7.6-2.4,1.2-4.9.3-1.2.4-2,.5-2.2.2-.3.5-.5.8-.5s.4,0,.4.2c-.1.4-.3,1-.4,1.8s-.3,1.5-.4,2c-.4,1.9-.7,3.1-.8,3.7,0,.4.1.6.3.8.2.2.5.3.8.3.8,0,1.5-.3,2.3-.8s1.4-1.2,2-1.9,1-1.3,1.3-1.9c0,0,.2,0,.2,0v.4c0,.2,0,.5-.2.7-.8,1.3-1.7,2.3-2.8,3.1s-2,1.2-3.1,1.2-1-.2-1.4-.5h0ZM326.3,50.8c-.1,0-.2-.3-.2-.6s.1-.6.3-.8c.2-.2.4-.4.8-.4s.4,0,.5.2.2.3.2.5c0,.3-.1.6-.3.8s-.5.4-.8.4-.4,0-.5-.2h0Z"/>
          <path class="st8" d="M343.7,58.8c0,.7-.3,1.4-.9,2.2s-1.4,1.4-2.2,2c-.9.5-1.7.8-2.4.8s-1.1-.2-1.4-.5-.5-.8-.6-1.4c-.4.5-.9,1-1.4,1.4-.6.4-1.1.5-1.6.5s-.8,0-1.2-.4-.7-.6-1-1-.4-.8-.4-1.1l1.1-4.6c0-.4.3-.8.7-1.2.4-.4.8-.8,1.4-1,.5-.3,1.1-.4,1.6-.4s1.3.2,1.9.7c.1-.4.2-.6.3-.7s.2,0,.3-.2h1.1c0,0,0,0,0,0-.3.2-.5.6-.7,1.1-.5,1.8-.8,3.1-1,3.9-.2.8-.3,1.6-.3,2.2s0,1.1.2,1.4c.2.3.5.4.8.4s1.1-.2,1.7-.6c.7-.4,1.3-1,1.9-1.7s1.1-1.5,1.4-2.4c.2,0,.3.2.3.6h.4ZM334.2,62.3c.4-.2.7-.4,1.1-.8s.5-.7.7-1.2l.4-1.9c0-.3.2-.8.3-1.5.2-.7.3-1.2.4-1.6-.4-.4-1-.6-1.6-.6s-.9,0-1.3.4c-.4.2-.7.6-.9.9s-.4.7-.5,1l-.9,4.1c0,.4.2.7.5,1s.6.5.9.5.6,0,1-.3h-.1Z"/>
        </g>
      </g>
    </g>
  </g>
  <line class="st9" x1="582.7" y1="156.5" x2="17" y2="156.5"/>
  <line class="st9" x1="571.4" y1="535.3" x2="16.5" y2="535.3"/>
  <line class="st9" x1="570.7" y1="580.6" x2="17.2" y2="580.6"/>
  <line class="st9" x1="582.7" y1="114.5" x2="17.2" y2="114.5"/>
  <line class="st9" x1="294" y1="114.5" x2="294" y2="842.2"/>
  <g class="st2">
    <text class="st5" transform="translate(115.5 145.8)"><tspan x="0" y="0">PIZZA</tspan></text>
  </g>
  <g class="st2">
    <text class="st0" transform="translate(16.7 175.7)"><tspan x="0" y="0">MARGHERITA</tspan></text>
  </g>
  <g class="st2">
    <text class="st1" transform="translate(244.8 176.4)"><tspan x="0" y="0">90 kr.</tspan></text>
  </g>
  <g class="st2">
    <text class="st6" transform="translate(16.5 187.7)"><tspan x="0" y="0">Tomato sauce, mozzarella, fior di latte, </tspan></text>
    <text class="st6" transform="translate(16.5 197.7)"><tspan x="0" y="0">fresh basil</tspan></text>
  </g>
  <g class="st2">
    <text class="st0" transform="translate(16.7 226.7)"><tspan x="0" y="0">CAPRICCIOSA</tspan></text>
  </g>
  <g class="st2">
    <text class="st1" transform="translate(244.8 227.4)"><tspan x="0" y="0">110 kr.</tspan></text>
  </g>
  <g class="st2">
    <text class="st6" transform="translate(16.5 238.7)"><tspan x="0" y="0">Tomato sauce, mozzarella, ham, fresh </tspan></text>
    <text class="st6" transform="translate(16.5 248.7)"><tspan x="0" y="0">mushrooms, oregano</tspan></text>
  </g>
  <g class="st2">
    <text class="st0" transform="translate(16.7 277.7)"><tspan x="0" y="0">SOTTO BOSCO</tspan></text>
  </g>
  <g class="st2">
    <text class="st1" transform="translate(244.8 278.4)"><tspan x="0" y="0">125 kr.</tspan></text>
  </g>
  <g class="st2">
    <text class="st6" transform="translate(16.5 289.7)"><tspan x="0" y="0">Home made truffle cream, mozzarella, </tspan></text>
    <text class="st6" transform="translate(16.5 299.7)"><tspan x="0" y="0">scamorza, fresh mushrooms, red onion, </tspan></text>
    <text class="st6" transform="translate(16.5 309.7)"><tspan x="0" y="0">fresh tomatoes, ruccola, parmesan flakes</tspan></text>
  </g>
  <g class="st2">
    <text class="st0" transform="translate(16.7 328.8)"><tspan x="0" y="0">VEGETARINA</tspan></text>
  </g>
  <g class="st2">
    <text class="st1" transform="translate(244.8 329.5)"><tspan x="0" y="0">110 kr.</tspan></text>
  </g>
  <g class="st2">
    <text class="st6" transform="translate(16.5 340.7)"><tspan x="0" y="0">Tomato sauce, mozzarella, pesto, ruccola, </tspan></text>
    <text class="st6" transform="translate(16.5 350.7)"><tspan x="0" y="0">fresh mushrooms, olives</tspan></text>
  </g>
  <g class="st2">
    <text class="st0" transform="translate(16.7 379.8)"><tspan x="0" y="0">PEPPERONI</tspan></text>
  </g>
  <g class="st2">
    <text class="st1" transform="translate(244.8 380.5)"><tspan x="0" y="0">110 kr.</tspan></text>
  </g>
  <g class="st2">
    <text class="st6" transform="translate(16.5 391.8)"><tspan x="0" y="0">Tomato sauce, fior di latte, salami, </tspan></text>
    <text class="st6" transform="translate(16.5 401.8)"><tspan x="0" y="0">pepperoni</tspan></text>
  </g>
  <g class="st2">
    <text class="st0" transform="translate(16.7 430.8)"><tspan x="0" y="0">PARMA / BRESAOLA</tspan></text>
  </g>
  <g class="st2">
    <text class="st1" transform="translate(244.8 431.5)"><tspan x="0" y="0">125 kr.</tspan></text>
  </g>
  <g class="st2">
    <text class="st6" transform="translate(16.5 442.8)"><tspan x="0" y="0">Tomato sauce, mozzarella, prosciutto or </tspan></text>
    <text class="st6" transform="translate(16.5 452.8)"><tspan x="0" y="0">bresaola, ruccola, parmesan</tspan></text>
  </g>
  <g class="st2">
    <text class="st0" transform="translate(16.7 481.8)"><tspan x="0" y="0">BURRATA</tspan></text>
  </g>
  <g class="st2">
    <text class="st1" transform="translate(244.8 482.5)"><tspan x="0" y="0">110 kr.</tspan></text>
  </g>
  <g class="st2">
    <text class="st6" transform="translate(16.5 493.8)"><tspan x="0" y="0">Tomato sauce, mozzarella, ruccola, burrata, </tspan></text>
    <text class="st6" transform="translate(16.5 503.8)"><tspan x="0" y="0">pesto</tspan></text>
  </g>
  <g class="st2">
    <text class="st5" transform="translate(374.8 569.2)"><tspan x="0" y="0">DESSERT</tspan></text>
  </g>
  <g class="st2">
    <text class="st0" transform="translate(307.6 600)"><tspan x="0" y="0">PANNA COTTA</tspan></text>
  </g>
  <g class="st2">
    <text class="st1" transform="translate(537.9 601.6)"><tspan x="0" y="0">45 kr.</tspan></text>
  </g>
  <g class="st2">
    <text class="st7" transform="translate(307.4 611.3)"><tspan x="0" y="0">Cream, real vanilla, sugar</tspan></text>
  </g>
  <g class="st2">
    <text class="st0" transform="translate(307.6 651)"><tspan x="0" y="0">TIRAMISU</tspan></text>
  </g>
  <g class="st2">
    <text class="st1" transform="translate(537.9 652.7)"><tspan x="0" y="0">45 kr.</tspan></text>
  </g>
  <g class="st2">
    <text class="st6" transform="translate(307.4 663)"><tspan x="0" y="0">Lady fingers, espresso, liqueur, </tspan></text>
    <text class="st6" transform="translate(307.4 673)"><tspan x="0" y="0">mascarpone, eggs, chocolate powder</tspan></text>
  </g>
  <g class="st2">
    <text class="st5" transform="translate(393.6 145.8)"><tspan x="0" y="0">PASTA</tspan></text>
  </g>
  <g class="st2">
    <text class="st0" transform="translate(309.8 175.7)"><tspan x="0" y="0">SPAGHETTI BOLOGNESE</tspan></text>
  </g>
  <g class="st2">
    <text class="st1" transform="translate(518.9 176.4)"><tspan x="0" y="0">90/145kr</tspan></text>
  </g>
  <g class="st2">
    <text class="st6" transform="translate(309.6 187.6)"><tspan x="0" y="0">Onion,</tspan></text>
    <text class="st6" transform="translate(340.9 187.6)"><tspan x="0" y="0"> </tspan></text>
    <text class="st6" transform="translate(343.2 187.6)"><tspan x="0" y="0">celery,</tspan></text>
    <text class="st6" transform="translate(374.4 187.6)"><tspan x="0" y="0"> </tspan></text>
    <text class="st6" transform="translate(376.7 187.6)"><tspan x="0" y="0">garlic,</tspan></text>
    <text class="st6" transform="translate(404.7 187.6)"><tspan x="0" y="0"> </tspan></text>
    <text class="st6" transform="translate(407 187.6)"><tspan x="0" y="0">tomatosauce,</tspan></text>
    <text class="st6" transform="translate(474.2 187.6)"><tspan x="0" y="0"> </tspan></text>
    <text class="st6" transform="translate(476.5 187.6)"><tspan x="0" y="0">minced </tspan></text>
    <text class="st6" transform="translate(309.6 197.6)"><tspan x="0" y="0">beef, parsley, parmesan</tspan></text>
  </g>
  <g class="st2">
    <text class="st0" transform="translate(309.8 226.7)"><tspan x="0" y="0">SPAGHETTI CARBONARA</tspan></text>
  </g>
  <g class="st2">
    <text class="st1" transform="translate(537.9 227.4)"><tspan x="0" y="0">135 kr.</tspan></text>
  </g>
  <g class="st2">
    <text class="st6" transform="translate(309.6 238.7)"><tspan x="0" y="0">Guanciale,</tspan></text>
    <text class="st6" transform="translate(359.3 238.7)"><tspan x="0" y="0"> </tspan></text>
    <text class="st6" transform="translate(361.7 238.7)"><tspan x="0" y="0">eggyolk,</tspan></text>
    <text class="st6" transform="translate(400.9 238.7)"><tspan x="0" y="0"> </tspan></text>
    <text class="st6" transform="translate(403.3 238.7)"><tspan x="0" y="0">garlic,</tspan></text>
    <text class="st6" transform="translate(431.4 238.7)"><tspan x="0" y="0"> </tspan></text>
    <text class="st6" transform="translate(433.8 238.7)"><tspan x="0" y="0">parmesan,</tspan></text>
    <text class="st6" transform="translate(484.6 238.7)"><tspan x="0" y="0"> </tspan></text>
    <text class="st6" transform="translate(487 238.7)"><tspan x="0" y="0">black </tspan></text>
    <text class="st6" transform="translate(309.6 248.7)"><tspan x="0" y="0">pepper</tspan></text>
  </g>
  <g class="st2">
    <text class="st0" transform="translate(309.8 277.7)"><tspan x="0" y="0">PASTA DELLA CASA</tspan></text>
  </g>
  <g class="st2">
    <text class="st1" transform="translate(537.9 278.4)"><tspan x="0" y="0">145 kr.</tspan></text>
  </g>
  <g class="st2">
    <text class="st6" transform="translate(309.6 289.7)"><tspan x="0" y="0">Cream</tspan></text>
    <text class="st4" transform="translate(341.5 289.7)"><tspan x="0" y="0"> </tspan></text>
    <text class="st6" transform="translate(347.8 289.7)"><tspan x="0" y="0">cheese,</tspan></text>
    <text class="st4" transform="translate(384.4 289.7)"><tspan x="0" y="0"> </tspan></text>
    <text class="st6" transform="translate(390.8 289.7)"><tspan x="0" y="0">onion,</tspan></text>
    <text class="st4" transform="translate(420.4 289.7)"><tspan x="0" y="0"> </tspan></text>
    <text class="st6" transform="translate(426.8 289.7)"><tspan x="0" y="0">chili,</tspan></text>
    <text class="st4" transform="translate(448.3 289.7)"><tspan x="0" y="0"> </tspan></text>
    <text class="st6" transform="translate(454.7 289.7)"><tspan x="0" y="0">white</tspan></text>
    <text class="st4" transform="translate(481.4 289.7)"><tspan x="0" y="0"> </tspan></text>
    <text class="st6" transform="translate(487.8 289.7)"><tspan x="0" y="0">wine, </tspan></text>
    <text class="st6" transform="translate(309.6 299.7)"><tspan x="0" y="0">mushroom, bacon, parsley, oregano</tspan></text>
  </g>
  <g class="st2">
    <text class="st0" transform="translate(309.8 328.7)"><tspan x="0" y="0">RIGATONI</tspan></text>
  </g>
  <g class="st2">
    <text class="st1" transform="translate(537.9 329.4)"><tspan x="0" y="0">135 kr.</tspan></text>
  </g>
  <g class="st2">
    <text class="st6" transform="translate(309.6 340.7)"><tspan x="0" y="0">Tomato</tspan></text>
    <text class="st6" transform="translate(347.6 340.7)"><tspan x="0" y="0"> </tspan></text>
    <text class="st6" transform="translate(351 340.7)"><tspan x="0" y="0">sauce,</tspan></text>
    <text class="st6" transform="translate(381.7 340.7)"><tspan x="0" y="0"> </tspan></text>
    <text class="st6" transform="translate(385.1 340.7)"><tspan x="0" y="0">cream,</tspan></text>
    <text class="st6" transform="translate(418.1 340.7)"><tspan x="0" y="0"> </tspan></text>
    <text class="st6" transform="translate(421.5 340.7)"><tspan x="0" y="0">white</tspan></text>
    <text class="st6" transform="translate(448.2 340.7)"><tspan x="0" y="0"> </tspan></text>
    <text class="st6" transform="translate(451.6 340.7)"><tspan x="0" y="0">wine,</tspan></text>
    <text class="st6" transform="translate(476.5 340.7)"><tspan x="0" y="0"> </tspan></text>
    <text class="st6" transform="translate(479.9 340.7)"><tspan x="0" y="0">lemon, </tspan></text>
    <text class="st6" transform="translate(309.6 350.7)"><tspan x="0" y="0">garlic, onion, tuna, mushrooms</tspan></text>
  </g>
  <g class="st2">
    <text class="st0" transform="translate(309.8 379.7)"><tspan x="0" y="0">TAGLITELLE DI LINONE</tspan></text>
  </g>
  <g class="st2">
    <text class="st1" transform="translate(537.9 380.4)"><tspan x="0" y="0">145 kr.</tspan></text>
  </g>
  <g class="st2">
    <text class="st6" transform="translate(309.6 391.7)"><tspan x="0" y="0">Cream,</tspan></text>
    <text class="st3" transform="translate(344 391.7)"><tspan x="0" y="0"> </tspan></text>
    <text class="st6" transform="translate(351.8 391.7)"><tspan x="0" y="0">butter,</tspan></text>
    <text class="st3" transform="translate(384.7 391.7)"><tspan x="0" y="0"> </tspan></text>
    <text class="st6" transform="translate(392.6 391.7)"><tspan x="0" y="0">lemon,</tspan></text>
    <text class="st3" transform="translate(425.3 391.7)"><tspan x="0" y="0"> </tspan></text>
    <text class="st6" transform="translate(433.2 391.7)"><tspan x="0" y="0">garlic,</tspan></text>
    <text class="st3" transform="translate(461.3 391.7)"><tspan x="0" y="0"> </tspan></text>
    <text class="st6" transform="translate(469.2 391.7)"><tspan x="0" y="0">jalapeo, </tspan></text>
    <text class="st6" transform="translate(309.6 401.7)"><tspan x="0" y="0">parsley,</tspan></text>
    <text class="st6" transform="translate(346.6 401.7)"><tspan x="0" y="0"> </tspan></text>
    <text class="st6" transform="translate(349.7 401.7)"><tspan x="0" y="0">onion,</tspan></text>
    <text class="st6" transform="translate(379.3 401.7)"><tspan x="0" y="0"> </tspan></text>
    <text class="st6" transform="translate(382.4 401.7)"><tspan x="0" y="0">parmesan,</tspan></text>
    <text class="st6" transform="translate(433.2 401.7)"><tspan x="0" y="0"> </tspan></text>
    <text class="st6" transform="translate(436.2 401.7)"><tspan x="0" y="0">rosemary,</tspan></text>
    <text class="st6" transform="translate(484 401.7)"><tspan x="0" y="0"> </tspan></text>
    <text class="st6" transform="translate(487 401.7)"><tspan x="0" y="0">black </tspan></text>
    <text class="st6" transform="translate(309.6 411.7)"><tspan x="0" y="0">pepper, </tspan></text>
    <text class="st6" transform="translate(309.6 421.7)"><tspan x="0" y="0">with</tspan></text>
    <text class="st3" transform="translate(330.6 421.7)"><tspan x="0" y="0"> </tspan></text>
    <text class="st6" transform="translate(338.2 421.7)"><tspan x="0" y="0">black</tspan></text>
    <text class="st3" transform="translate(363.8 421.7)"><tspan x="0" y="0"> </tspan></text>
    <text class="st6" transform="translate(371.5 421.7)"><tspan x="0" y="0">cabbage</tspan></text>
    <text class="st3" transform="translate(412.9 421.7)"><tspan x="0" y="0"> </tspan></text>
    <text class="st6" transform="translate(420.6 421.7)"><tspan x="0" y="0">&amp;</tspan></text>
    <text class="st3" transform="translate(427.2 421.7)"><tspan x="0" y="0"> </tspan></text>
    <text class="st6" transform="translate(434.8 421.7)"><tspan x="0" y="0">mushrooms,</tspan></text>
    <text class="st3" transform="translate(495.2 421.7)"><tspan x="0" y="0"> </tspan></text>
    <text class="st6" transform="translate(502.8 421.7)"><tspan x="0" y="0">or</tspan></text>
  </g>
  <g class="st2">
    <text class="st5" transform="translate(86 566.8)"><tspan x="0" y="0">ANTIPASTI</tspan></text>
  </g>
  <g class="st2">
    <text class="st0" transform="translate(18 597.7)"><tspan x="0" y="0">INSALATA DI PIZZA</tspan></text>
  </g>
  <g class="st2">
    <text class="st1" transform="translate(246.1 598.4)"><tspan x="0" y="0">30 kr.</tspan></text>
  </g>
  <g class="st2">
    <text class="st6" transform="translate(17.9 609.6)"><tspan x="0" y="0">White cabbage, oregano, white wine </tspan></text>
    <text class="st6" transform="translate(17.9 619.6)"><tspan x="0" y="0">vinegar, olive oil, salt, black pepper</tspan></text>
  </g>
  <g class="st2">
    <text class="st0" transform="translate(18 648.7)"><tspan x="0" y="0">INSALATA CAPRESE</tspan></text>
  </g>
  <g class="st2">
    <text class="st1" transform="translate(246.1 649.4)"><tspan x="0" y="0">65 kr.</tspan></text>
  </g>
  <g class="st2">
    <text class="st6" transform="translate(17.9 660.7)"><tspan x="0" y="0">Fresh tomatoes, fior di latte, fresh basil, </tspan></text>
    <text class="st6" transform="translate(17.9 670.7)"><tspan x="0" y="0">e.v.olive oil, balsamico, salt and black </tspan></text>
    <text class="st6" transform="translate(17.9 680.7)"><tspan x="0" y="0">pepper</tspan></text>
  </g>
  <g class="st2">
    <text class="st0" transform="translate(18 699.7)"><tspan x="0" y="0">PANE ROSMARINO E AGLIO</tspan></text>
  </g>
  <g class="st2">
    <text class="st1" transform="translate(246.1 700.4)"><tspan x="0" y="0">45 kr.</tspan></text>
  </g>
  <g class="st2">
    <text class="st6" transform="translate(17.9 711.7)"><tspan x="0" y="0">Homemade bread, rosemary, garlic</tspan></text>
  </g>
  <g class="st2">
    <text class="st0" transform="translate(18 750.7)"><tspan x="0" y="0">BRUSCHETTA</tspan></text>
  </g>
  <g class="st2">
    <text class="st1" transform="translate(246.1 751.4)"><tspan x="0" y="0">65 kr.</tspan></text>
  </g>
  <g class="st2">
    <text class="st6" transform="translate(17.9 762.7)"><tspan x="0" y="0">Fresh tomatoes, onion, fresh basil, </tspan></text>
    <text class="st6" transform="translate(17.9 772.7)"><tspan x="0" y="0">e.v.olive oil, balsamico, salt, black pepper</tspan></text>
  </g>
</svg>