<?xml version="1.0" encoding="UTF-8"?>
<svg xmlns="http://www.w3.org/2000/svg" version="1.1" viewBox="0 0 595.3 841.9">
  <!-- Generator: Adobe Illustrator 29.0.1, SVG Export Plug-In . SVG Version: 2.1.0 Build 192)  -->
  <defs>
    <style>
      .st0 {
        font-size: 15px;
      }

      .st0, .st1, .st2, .st3, .st4, .st5, .st6 {
        isolation: isolate;
      }

      .st0, .st1, .st3, .st7, .st4, .st5, .st6, .st8 {
        fill: #fff;
      }

      .st0, .st1, .st3, .st4, .st5, .st6 {
        font-family: Baskerville, Baskerville;
      }

      .st9 {
        fill: #1c1c1c;
      }

      .st1 {
        font-size: 16px;
      }

      .st3 {
        font-size: 30px;
      }

      .st4 {
        font-size: 11px;
      }

      .st5 {
        font-size: 10px;
      }

      .st6 {
        font-size: 13px;
      }

      .st8 {
        stroke: #fff;
        stroke-miterlimit: 10;
      }
    </style>
  </defs>
  <g id="Layer_2">
    <rect class="st9" width="595.8" height="841.9"/>
  </g>
  <g id="Layer_1">
    <line class="st7" x1="582.7" y1="369.2" x2="294.2" y2="369.2"/>
    <line class="st8" x1="294.2" y1="156.5" y2="156.5"/>
    <line class="st8" x1="595.3" y1="585.9" x2="294.2" y2="585.9"/>
    <line class="st8" x1="594.9" y1="631.2" x2="294.6" y2="631.2"/>
    <line class="st8" x1="595.8" y1="791" y2="791"/>
    <line class="st8" x1="582.7" y1="327.2" x2="294" y2="327.2"/>
    <line class="st8" x1="294" y1="114.5" y2="114.5"/>
    <line class="st8" x1="294" y1="114.5" x2="294" y2="789"/>
    <g class="st2">
      <g class="st2">
        <text class="st3" transform="translate(115.5 145.8)"><tspan x="0" y="0">PIZZA</tspan></text>
      </g>
    </g>
    <g class="st2">
      <g class="st2">
        <text class="st0" transform="translate(16.7 175.7)"><tspan x="0" y="0">MARGHERITA</tspan></text>
      </g>
    </g>
    <g class="st2">
      <g class="st2">
        <text class="st1" transform="translate(244.8 176.4)"><tspan x="0" y="0">90 kr.</tspan></text>
      </g>
    </g>
    <g class="st2">
      <g class="st2">
        <text class="st4" transform="translate(16.5 187.7)"><tspan x="0" y="0">Tomato sauce, mozzarella, fior di latte,</tspan></text>
      </g>
      <g class="st2">
        <text class="st4" transform="translate(16.5 197.7)"><tspan x="0" y="0">fresh basil</tspan></text>
      </g>
    </g>
    <g class="st2">
      <g class="st2">
        <text class="st0" transform="translate(16.7 229.7)"><tspan x="0" y="0">CAPRICCIOSA</tspan></text>
      </g>
    </g>
    <g class="st2">
      <g class="st2">
        <text class="st1" transform="translate(244.8 230.4)"><tspan x="0" y="0">125 kr.</tspan></text>
      </g>
    </g>
    <g class="st2">
      <g class="st2">
        <text class="st4" transform="translate(16.5 241.7)"><tspan x="0" y="0">Tomato sauce, mozzarella, ham, fresh</tspan></text>
      </g>
      <g class="st2">
        <text class="st4" transform="translate(16.5 251.7)"><tspan x="0" y="0">mushrooms, oregano</tspan></text>
      </g>
    </g>
    <g class="st2">
      <g class="st2">
        <text class="st0" transform="translate(16.7 281.7)"><tspan x="0" y="0">SOTTO BOSCO</tspan></text>
      </g>
    </g>
    <g class="st2">
      <g class="st2">
        <text class="st1" transform="translate(244.8 282.4)"><tspan x="0" y="0">125 kr.</tspan></text>
      </g>
    </g>
    <g class="st2">
      <g class="st2">
        <text class="st4" transform="translate(16.5 293.7)"><tspan x="0" y="0">Home made truffle cream, mozzarella,</tspan></text>
      </g>
      <g class="st2">
        <text class="st4" transform="translate(16.5 303.7)"><tspan x="0" y="0">scamorza, fresh mushrooms, red onion,</tspan></text>
      </g>
      <g class="st2">
        <text class="st4" transform="translate(16.5 313.7)"><tspan x="0" y="0">fresh tomatoes, ruccola, parmesan flakes</tspan></text>
      </g>
    </g>
    <g class="st2">
      <g class="st2">
        <text class="st0" transform="translate(16.7 339.8)"><tspan x="0" y="0">VEGETARINA</tspan></text>
      </g>
    </g>
    <g class="st2">
      <g class="st2">
        <text class="st1" transform="translate(244.8 340.5)"><tspan x="0" y="0">110 kr.</tspan></text>
      </g>
    </g>
    <g class="st2">
      <g class="st2">
        <text class="st4" transform="translate(16.5 351.7)"><tspan x="0" y="0">Tomato sauce, mozzarella, pesto, ruccola,</tspan></text>
      </g>
      <g class="st2">
        <text class="st4" transform="translate(16.5 361.7)"><tspan x="0" y="0">fresh mushrooms, olives</tspan></text>
      </g>
    </g>
    <g class="st2">
      <g class="st2">
        <text class="st0" transform="translate(16.7 391.8)"><tspan x="0" y="0">PEPPERONI</tspan></text>
      </g>
    </g>
    <g class="st2">
      <g class="st2">
        <text class="st1" transform="translate(244.8 392.5)"><tspan x="0" y="0">125 kr.</tspan></text>
      </g>
    </g>
    <g class="st2">
      <g class="st2">
        <text class="st4" transform="translate(16.5 403.8)"><tspan x="0" y="0">Tomato sauce, fior di latte, salami,</tspan></text>
      </g>
      <g class="st2">
        <text class="st4" transform="translate(16.5 413.8)"><tspan x="0" y="0">pepperoni</tspan></text>
      </g>
    </g>
    <g class="st2">
      <g class="st2">
        <text class="st0" transform="translate(16.7 443.8)"><tspan x="0" y="0">PARMA / BRESAOLA</tspan></text>
      </g>
    </g>
    <g class="st2">
      <g class="st2">
        <text class="st1" transform="translate(244.8 444.5)"><tspan x="0" y="0">125 kr.</tspan></text>
      </g>
    </g>
    <g class="st2">
      <g class="st2">
        <text class="st4" transform="translate(16.5 455.8)"><tspan x="0" y="0">Tomato sauce, mozzarella, prosciutto or</tspan></text>
      </g>
      <g class="st2">
        <text class="st4" transform="translate(16.5 465.8)"><tspan x="0" y="0">bresaola, ruccola, parmesan</tspan></text>
      </g>
    </g>
    <g class="st2">
      <g class="st2">
        <text class="st0" transform="translate(16.7 495.8)"><tspan x="0" y="0">BURRATA</tspan></text>
      </g>
    </g>
    <g class="st2">
      <g class="st2">
        <text class="st1" transform="translate(244.8 496.5)"><tspan x="0" y="0">125 kr.</tspan></text>
      </g>
    </g>
    <g class="st2">
      <g class="st2">
        <text class="st4" transform="translate(16.5 507.8)"><tspan x="0" y="0">Tomato sauce, mozzarella, ruccola, burrata,</tspan></text>
      </g>
      <g class="st2">
        <text class="st4" transform="translate(16.5 517.8)"><tspan x="0" y="0">pesto</tspan></text>
      </g>
    </g>
    <g class="st2">
      <g class="st2">
        <text class="st0" transform="translate(16.7 547.8)"><tspan x="0" y="0">PESTO</tspan></text>
      </g>
    </g>
    <g class="st2">
      <g class="st2">
        <text class="st1" transform="translate(244.8 548.5)"><tspan x="0" y="0">110 kr.</tspan></text>
      </g>
    </g>
    <g class="st2">
      <g class="st2">
        <text class="st4" transform="translate(16.5 559.8)"><tspan x="0" y="0">Tomato sauce, mozzarella, homemade pesto, </tspan><tspan x="0" y="13.2">semi-dried tomatoes, olives, parmesan, oregano</tspan></text>
      </g>
    </g>
    <g class="st2">
      <g class="st2">
        <text class="st0" transform="translate(16.7 599.8)"><tspan x="0" y="0">CALZONE (BAKED IN)</tspan></text>
      </g>
    </g>
    <g class="st2">
      <g class="st2">
        <text class="st1" transform="translate(244.8 600.5)"><tspan x="0" y="0">125 kr.</tspan></text>
      </g>
    </g>
    <g class="st2">
      <g class="st2">
        <text class="st4" transform="translate(16.5 611.8)"><tspan x="0" y="0">Tomato sauce, fior di latte, mozzarella, ham, fresh </tspan><tspan x="0" y="13.2">mushrooms, fresh basil, pecorino, oregano</tspan></text>
      </g>
    </g>
    <g class="st2">
      <g class="st2">
        <text class="st0" transform="translate(16.7 651.8)"><tspan x="0" y="0">DA CASA</tspan></text>
      </g>
    </g>
    <g class="st2">
      <g class="st2">
        <text class="st1" transform="translate(244.8 652.5)"><tspan x="0" y="0">125 kr.</tspan></text>
      </g>
    </g>
    <g class="st2">
      <g class="st2">
        <text class="st4" transform="translate(16.5 663.8)"><tspan x="0" y="0">Tomato sauce, mozzarella, red onion, pecorino</tspan><tspan x="0" y="13.2">homemade tuna sauce, bacon, oregano</tspan></text>
      </g>
    </g>
    <g class="st2">
      <g class="st2">
        <text class="st0" transform="translate(16.7 703.8)"><tspan x="0" y="0">4 FORMAGGI</tspan></text>
      </g>
    </g>
    <g class="st2">
      <g class="st2">
        <text class="st1" transform="translate(244.8 704.5)"><tspan x="0" y="0">125 kr.</tspan></text>
      </g>
    </g>
    <g class="st2">
      <g class="st2">
        <text class="st4" transform="translate(16.5 715.8)"><tspan x="0" y="0">Tomato sauce, fior di latte, gorgonzola, provolone</tspan><tspan x="0" y="13.2">parmesan, oregano</tspan></text>
      </g>
    </g>
    <g class="st2">
      <g class="st2">
        <text class="st0" transform="translate(16.7 754.8)"><tspan x="0" y="0">STRACCIATELLA</tspan></text>
      </g>
    </g>
    <g class="st2">
      <g class="st2">
        <text class="st1" transform="translate(244.8 755.5)"><tspan x="0" y="0">125 kr.</tspan></text>
      </g>
    </g>
    <g class="st2">
      <g class="st2">
        <text class="st4" transform="translate(16.5 766.8)"><tspan x="0" y="0">Tomato sauce, mozzarella, prosciutto, stracciatella, </tspan><tspan x="0" y="13.2">ruccola, pecorino, oregano</tspan></text>
      </g>
    </g>
    <g class="st2">
      <g class="st2">
        <text class="st3" transform="translate(374.8 619.8)"><tspan x="0" y="0">DESSERT</tspan></text>
      </g>
    </g>
    <g class="st2">
      <g class="st2">
        <text class="st0" transform="translate(307.6 650.6)"><tspan x="0" y="0">PANNA COTTA</tspan></text>
      </g>
    </g>
    <g class="st2">
      <g class="st2">
        <text class="st1" transform="translate(537.9 652.2)"><tspan x="0" y="0">45 kr.</tspan></text>
      </g>
    </g>
    <g class="st2">
      <g class="st2">
        <text class="st5" transform="translate(307.4 661.9)"><tspan x="0" y="0">Cream, real vanilla, sugar</tspan></text>
      </g>
    </g>
    <g class="st2">
      <g class="st2">
        <text class="st0" transform="translate(307.6 701.6)"><tspan x="0" y="0">TIRAMISU</tspan></text>
      </g>
    </g>
    <g class="st2">
      <g class="st2">
        <text class="st1" transform="translate(537.9 703.3)"><tspan x="0" y="0">45 kr.</tspan></text>
      </g>
    </g>
    <g class="st2">
      <g class="st2">
        <text class="st4" transform="translate(307.4 713.6)"><tspan x="0" y="0">Lady fingers, espresso, liqueur,</tspan></text>
      </g>
      <g class="st2">
        <text class="st4" transform="translate(307.4 723.6)"><tspan x="0" y="0">mascarpone, eggs, chocolate powder</tspan></text>
      </g>
    </g>
    <g class="st2">
      <g class="st2">
        <text class="st3" transform="translate(393.6 358.5)"><tspan x="0" y="0">PASTA</tspan></text>
      </g>
    </g>
    <g class="st2">
      <g class="st2">
        <text class="st0" transform="translate(309.8 388.4)"><tspan x="0" y="0">SPAGHETTI BOLOGNESE</tspan></text>
      </g>
    </g>
    <g class="st2">
      <g class="st2">
        <text class="st1" transform="translate(518.9 389.1)"><tspan x="0" y="0" xml:space="preserve">     145kr</tspan></text>
      </g>
    </g>
    <g class="st2">
      <g class="st2">
        <text class="st4" transform="translate(309.6 400.3)"><tspan x="0" y="0">Onion,</tspan></text>
      </g>
      <g class="st2">
        <text class="st4" transform="translate(343.2 400.3)"><tspan x="0" y="0">celery,</tspan></text>
      </g>
      <g class="st2">
        <text class="st4" transform="translate(376.7 400.3)"><tspan x="0" y="0">garlic,</tspan></text>
      </g>
      <g class="st2">
        <text class="st4" transform="translate(407 400.3)"><tspan x="0" y="0">tomatosauce,</tspan></text>
      </g>
      <g class="st2">
        <text class="st4" transform="translate(476.5 400.3)"><tspan x="0" y="0">minced</tspan></text>
      </g>
      <g class="st2">
        <text class="st4" transform="translate(309.6 410.3)"><tspan x="0" y="0">beef, parsley, parmesan</tspan></text>
      </g>
    </g>
    <g class="st2">
      <g class="st2">
        <text class="st0" transform="translate(309.8 439.4)"><tspan x="0" y="0">SPAGHETTI CARBONARA</tspan></text>
      </g>
    </g>
    <g class="st2">
      <g class="st2">
        <text class="st1" transform="translate(537.9 440.1)"><tspan x="0" y="0">135 kr.</tspan></text>
      </g>
    </g>
    <g class="st2">
      <g class="st2">
        <text class="st4" transform="translate(309.6 451.4)"><tspan x="0" y="0">Guanciale,</tspan></text>
      </g>
      <g class="st2">
        <text class="st4" transform="translate(361.7 451.4)"><tspan x="0" y="0">eggyolk,</tspan></text>
      </g>
      <g class="st2">
        <text class="st4" transform="translate(403.3 451.4)"><tspan x="0" y="0">garlic,</tspan></text>
      </g>
      <g class="st2">
        <text class="st4" transform="translate(433.8 451.4)"><tspan x="0" y="0">parmesan,</tspan></text>
      </g>
      <g class="st2">
        <text class="st4" transform="translate(487 451.4)"><tspan x="0" y="0">black</tspan></text>
      </g>
      <g class="st2">
        <text class="st4" transform="translate(309.6 461.4)"><tspan x="0" y="0">pepper</tspan></text>
      </g>
    </g>
    <g class="st2">
      <g class="st2">
        <text class="st0" transform="translate(309.8 541.4)"><tspan x="0" y="0">PASTA DELLA CASA</tspan></text>
      </g>
    </g>
    <g class="st2">
      <g class="st2">
        <text class="st1" transform="translate(537.9 542.1)"><tspan x="0" y="0">145 kr.</tspan></text>
      </g>
    </g>
    <g class="st2">
      <g class="st2">
        <text class="st4" transform="translate(309.6 553.4)"><tspan x="0" y="0">Cream</tspan></text>
      </g>
      <g class="st2">
        <text class="st4" transform="translate(347.8 553.4)"><tspan x="0" y="0">cheese,</tspan></text>
      </g>
      <g class="st2">
        <text class="st4" transform="translate(390.8 553.4)"><tspan x="0" y="0">onion,</tspan></text>
      </g>
      <g class="st2">
        <text class="st4" transform="translate(426.8 553.4)"><tspan x="0" y="0">chili,</tspan></text>
      </g>
      <g class="st2">
        <text class="st4" transform="translate(454.7 553.4)"><tspan x="0" y="0">white</tspan></text>
      </g>
      <g class="st2">
        <text class="st4" transform="translate(487.8 553.4)"><tspan x="0" y="0">wine,</tspan></text>
      </g>
      <g class="st2">
        <text class="st4" transform="translate(309.6 563.4)"><tspan x="0" y="0">mushroom, bacon, parsley, oregano</tspan></text>
      </g>
    </g>
    <g class="st2">
      <g class="st2">
        <text class="st6" transform="translate(309.8 490.4)"><tspan x="0" y="0">TAGLIATELLE RAGU CHINGHIALE</tspan></text>
      </g>
    </g>
    <g class="st2">
      <g class="st2">
        <text class="st1" transform="translate(537.9 491.1)"><tspan x="0" y="0">145 kr.</tspan></text>
      </g>
    </g>
    <g class="st2">
      <g class="st2">
        <text class="st4" transform="translate(309.6 502.4)"><tspan x="0" y="0">Wild boar meat, tomato sauce, onions, red wine</tspan><tspan x="0" y="10">parsley, parmesan</tspan></text>
      </g>
    </g>
    <g class="st2">
      <g class="st2">
        <text class="st0" transform="translate(306.2 179.5)"><tspan x="0" y="0">INSALATA CAPRESE</tspan></text>
      </g>
    </g>
    <g class="st2">
      <g class="st2">
        <text class="st1" transform="translate(534.3 180.2)"><tspan x="0" y="0">65 kr.</tspan></text>
      </g>
    </g>
    <g class="st2">
      <g class="st2">
        <text class="st4" transform="translate(306.1 191.5)"><tspan x="0" y="0">Fresh tomatoes, fior di latte, fresh basil,</tspan></text>
      </g>
      <g class="st2">
        <text class="st4" transform="translate(306.1 201.5)"><tspan x="0" y="0">e.v.olive oil, balsamico, salt and black</tspan></text>
      </g>
      <g class="st2">
        <text class="st4" transform="translate(306.1 211.5)"><tspan x="0" y="0">pepper</tspan></text>
      </g>
    </g>
    <g class="st2">
      <g class="st2">
        <text class="st0" transform="translate(306.2 230.5)"><tspan x="0" y="0">PANE ROSMARINO E AGLIO</tspan></text>
      </g>
    </g>
    <g class="st2">
      <g class="st2">
        <text class="st1" transform="translate(534.3 231.2)"><tspan x="0" y="0">45 kr.</tspan></text>
      </g>
    </g>
    <g class="st2">
      <g class="st2">
        <text class="st4" transform="translate(306.1 242.5)"><tspan x="0" y="0">Homemade bread, rosemary, garlic</tspan></text>
      </g>
    </g>
    <g class="st2">
      <g class="st2">
        <text class="st0" transform="translate(306.2 281.5)"><tspan x="0" y="0">BRUSCHETTA</tspan></text>
      </g>
    </g>
    <g class="st2">
      <g class="st2">
        <text class="st1" transform="translate(534.3 282.2)"><tspan x="0" y="0">65 kr.</tspan></text>
      </g>
    </g>
    <g class="st2">
      <g class="st2">
        <text class="st4" transform="translate(306.1 293.5)"><tspan x="0" y="0">Fresh tomatoes, onion, fresh basil,</tspan></text>
      </g>
      <g class="st2">
        <text class="st4" transform="translate(306.1 303.5)"><tspan x="0" y="0">e.v.olive oil, balsamico, salt, black pepper</tspan></text>
      </g>
    </g>
    <line class="st8" x1="595.8" y1="114.5" x2="293.7" y2="114.5"/>
    <line class="st8" x1="595.8" y1="156.7" x2="294.4" y2="156.7"/>
    <g class="st2">
      <g class="st2">
        <text class="st3" transform="translate(363.2 142.9)"><tspan x="0" y="0">ANTIPASTI</tspan></text>
      </g>
    </g>
    <g>
      <path class="st7" d="M297.4,94.8c-14.8,0-28.2-8.2-35-21.4l.8-.4c6.6,12.9,19.7,20.9,34.2,20.9s14.4-2,20.5-5.9c6-3.8,10.8-9.1,13.9-15.4l.8.4c-3.2,6.4-8.1,11.9-14.2,15.7-6.3,4-13.5,6-21,6h0Z"/>
      <g class="st2">
        <g class="st2">
          <g class="st2">
            <path class="st7" d="M259.9,33.9h0c0,0,.8.4.8.4l-1.2,2.2h0c0,0,0-.1,0-.1,0-.1.1-.2,0-.3s0-.1,0-.1c0,0-.2-.1-.4-.2l-1.3-.7c-.2-.1-.3-.2-.4-.2,0,0-.1,0-.2,0s-.1.1-.2.2h0c0,0,1-2,1-2l.7.3h0c-.2,0-.4,0-.5,0s-.2,0-.3.1-.1.2-.2.4l-.2.4,1.1.6.2-.3c0-.1.1-.2.1-.3,0,0,0-.1,0-.2s-.1-.1-.2-.2h0c0,0,.9.4.9.4h0c-.1,0-.2,0-.3,0s-.1,0-.2,0c0,0,0,.1-.2.2l-.2.3.6.3c.3.2.5.2.6.2s.2-.1.3-.3v-.2c.2-.1.2-.3.2-.4,0-.1,0-.2,0-.4,0-.1-.2-.3-.4-.4h0q0,0,0,0Z"/>
          </g>
        </g>
      </g>
      <g class="st2">
        <g class="st2">
          <g class="st2">
            <path class="st7" d="M262.3,30l-.7.9v.2c.3.3.4.4.4.5,0,0,.1,0,.2,0,0,0,.1,0,.2-.2h0c0,0-.5.8-.5.8h0c0-.2,0-.3,0-.4,0-.1-.1-.2-.2-.5,0,0,0-.1-.1-.2l-1.2-1.9h0c0,0,2.6.5,2.6.5h.3c0,0,.2,0,.2,0,0,0,.1,0,.2-.2h0c0,0-.7,1-.7,1h0c0-.2.1-.3.1-.3s0-.1,0-.1c0,0-.1,0-.3,0h-.6c0-.1,0-.1,0-.1h0ZM262.2,30l-1.4-.3.7,1.2.6-.9h0Z"/>
          </g>
        </g>
      </g>
      <g class="st2">
        <g class="st2">
          <g class="st2">
            <path class="st7" d="M263.5,26.5h0c0,0-.5-.4-.5-.4l2-2.2.5.5h0c-.2,0-.3-.1-.4-.1-.1,0-.2,0-.2,0s-.1.1-.3.2l-.3.4,1.6,1.4c.2.2.3.3.4.3s.1,0,.2,0,.1,0,.2-.2h.1c0-.1,0,0,0,0l-1,1.1h0c0,0,.1-.2.1-.2,0,0,.1-.2.1-.2s0-.1,0-.2c0,0-.2-.2-.3-.3l-1.6-1.4-.3.3c-.1.1-.2.2-.2.3s0,.1,0,.2.1.2.2.4h0Z"/>
          </g>
        </g>
      </g>
      <g class="st2">
        <g class="st2">
          <g class="st2">
            <path class="st7" d="M269.8,19.6l.4-.3c.3-.3.5-.4.7-.5.4-.3.7-.4,1-.4.3,0,.5,0,.8.1.2.1.4.3.6.6.1.2.2.4.3.6s0,.4,0,.5,0,.3-.2.5c0,.1-.2.3-.3.4s-.3.2-.5.4l-1.1.8h0c0,0,.1-.2.1-.2.1,0,.2-.1.2-.2s0-.1,0-.2c0,0-.1-.2-.3-.4l-.8-1.2c-.1-.2-.2-.3-.3-.4,0,0-.1,0-.2,0s-.1,0-.3.1h0c0,0,0,0,0,0h0,0ZM270.5,19.1l1.2,1.7c.2.2.3.4.4.5,0,0,.1,0,.2,0s.2,0,.3-.2c.2-.2.4-.3.5-.5.1-.2.1-.4.1-.6s-.1-.5-.3-.8c-.2-.2-.3-.4-.5-.5-.2-.1-.3-.2-.5-.2-.2,0-.3,0-.5,0s-.3.1-.5.3c0,0-.2.1-.3.2h0Z"/>
          </g>
        </g>
      </g>
      <g class="st2">
        <g class="st2">
          <g class="st2">
            <path class="st7" d="M279.1,17.4l-.7.4c-.2,0-.5-.2-1-.4s-.3-.1-.4-.2c-.2,0-.2-.1-.3-.1s-.1,0-.2,0h-.1c0,0,.3.7.3.7.1.2.2.4.2.4s.1,0,.2.1c0,0,.2,0,.3,0h.1c0,0,0,0,0,0l-1.3.7h0c0,0,0-.1,0-.1.1,0,.2-.1.2-.2,0,0,0-.1,0-.2s0-.2-.2-.4l-.7-1.3c-.1-.2-.2-.4-.2-.4s0,0-.1,0-.1,0-.3.1h-.1c0,0,.4-.3.4-.3.2-.1.5-.3.6-.3.2-.1.5-.2.7-.3s.4,0,.5,0,.3.2.4.3c0,.2.1.4,0,.5s-.2.4-.4.5c.1,0,.4,0,.8.3.4.2.6.3.8.3s.3,0,.5,0h0c0,.1,0,.1,0,.1ZM276.3,17c.1,0,.2-.1.3-.2s.2-.1.2-.2.1-.1.1-.2c0,0,0-.2,0-.2s0-.2-.1-.3c-.1-.2-.2-.3-.4-.4s-.4,0-.7.2c0,0-.1,0-.2,0l.7,1.2h0Z"/>
          </g>
        </g>
      </g>
      <g class="st2">
        <g class="st2">
          <g class="st2">
            <path class="st7" d="M280.2,13.7h0c0,0,1.3-.6,1.3-.6h0c0,0,0,0,0,0-.1,0-.2.1-.3.2s0,0,0,.2c0,0,0,.2.2.5l.5,1.4c0,.2.2.4.2.4,0,0,0,.1.1.1,0,0,.2,0,.3,0h0s0,0,0,0l-1.3.5h0c0,0,0-.1,0-.1.1,0,.2,0,.2-.1s0-.1,0-.2c0,0,0-.2-.2-.5l-.5-1.4c0-.2-.2-.4-.2-.4,0,0,0,0-.1-.1,0,0-.2,0-.3,0h0s0,0,0,0Z"/>
          </g>
        </g>
      </g>
      <g class="st2">
        <g class="st2">
          <g class="st2">
            <path class="st7" d="M287.6,14.4l-2.8-2.2.5,2c0,.2,0,.3.1.3s0,0,.2.1.2,0,.4,0h0c0,.1-1.1.4-1.1.4h0c.1-.2.2-.2.3-.3,0,0,0-.1,0-.2s0-.2,0-.3l-.4-1.6c0-.2-.1-.4-.2-.4,0,0,0-.1-.1-.1,0,0-.2,0-.3,0h0c0-.1.8-.3.8-.3l2.3,1.8-.5-1.8c0-.1,0-.2-.1-.3,0,0-.1,0-.2,0s-.2,0-.3,0h0c0-.1,1-.4,1-.4h0c0,.1-.2.2-.2.2s0,.1-.1.2c0,0,0,.1,0,.3l.6,2.4h0c0,0,0,0,0,0Z"/>
          </g>
        </g>
      </g>
      <g class="st2">
        <g class="st2">
          <g class="st2">
            <path class="st7" d="M291.2,12.2l.8-.9c.2-.2.3-.4.3-.4,0-.1-.1-.2-.3-.2h0c0-.1,1.1-.2,1.1-.2h0c0,.1-.2.1-.3.2s-.2.1-.2.2-.2.2-.4.4l-.5.6,1.3,1c.3.2.5.4.6.4s.2,0,.4,0h0c0,.1-1.6.3-1.6.3h0c0-.1,0-.1,0-.1.2,0,.3,0,.3,0,0,0,0,0,0-.1,0,0-.1-.2-.4-.4l-1-.8-.2.2v.5c.1.2.1.4.1.5s0,.1.1.2.1,0,.3,0h0c0,0-1.4.3-1.4.3h0c0-.1,0-.1,0-.1.1,0,.2,0,.3,0,0,0,0,0,0-.2s0-.2,0-.5l-.2-1.5c0-.2,0-.4,0-.5,0,0,0-.1-.1-.1s-.2,0-.3,0h0c0-.1,1.3-.3,1.3-.3h0c0,.1,0,.1,0,.1-.1,0-.2,0-.3,0,0,0,0,0,0,.1s0,.2,0,.5v.8c.1,0,0,0,0,0h0Z"/>
          </g>
        </g>
      </g>
      <g class="st2">
        <g class="st2">
          <g class="st2">
            <path class="st7" d="M302.3,10.5v.8h-.1c0-.2,0-.3-.1-.4s-.1-.2-.2-.2-.2,0-.4,0h-.6c0,0-.1,1.2-.1,1.2h.3c.2,0,.3,0,.4,0s.1-.2.1-.4h.1v1.1h-.2v-.3c0,0,0-.1-.1-.2s-.1,0-.3,0h-.3v.7c0,.2,0,.4,0,.5s0,.1,0,.2.1,0,.3,0h.1c0,.1-1.4,0-1.4,0h0c0-.1.1-.1.1-.1.1,0,.2,0,.3,0s0,0,.1-.1c0,0,0-.2,0-.5v-1.5c.1-.2.1-.4.1-.5s0-.1,0-.2-.1,0-.3,0h0c0-.1,2.3,0,2.3,0,0,0,0,0,0,0Z"/>
          </g>
        </g>
      </g>
      <g class="st2">
        <g class="st2">
          <g class="st2">
            <path class="st7" d="M307.1,13.4h.1l-.2.9-2.5-.5h0c0-.1,0-.1,0-.1.1,0,.2,0,.3,0s0,0,.1-.1c0,0,0-.2.1-.5l.3-1.5c0-.2,0-.4,0-.5s0-.1,0-.2c0,0-.1,0-.3-.1h0c0-.1,2.2.3,2.2.3v.8h-.2c0-.2,0-.4,0-.5s-.1-.2-.2-.2-.2,0-.4-.1h-.4c0,0-.2,1.2-.2,1.2h.3c.1.1.2.1.3,0,0,0,.1,0,.1,0,0,0,0-.1,0-.3h.1l-.2,1h-.1c0-.2,0-.3,0-.4,0,0,0-.1-.1-.1s-.1,0-.3,0h-.3c0,0-.1.6-.1.6,0,.4,0,.6,0,.6,0,0,.1.1.4.2h.2c.2,0,.3,0,.4,0s.2,0,.3-.2.2-.3.3-.5h0c0,0,0,0,0,0Z"/>
          </g>
        </g>
      </g>
      <g class="st2">
        <g class="st2">
          <g class="st2">
            <path class="st7" d="M312.1,14.9h.1s-.4.9-.4.9l-2.4-.8h0c0,0,0,0,0,0,.1,0,.2,0,.3,0,0,0,0,0,.1-.1s0-.2.2-.4l.5-1.4c0-.2.1-.4.1-.4,0,0,0-.1,0-.2,0,0-.1,0-.3-.1h0c0,0,2.1.6,2.1.6l-.2.7h-.1c0-.2,0-.4,0-.5s-.1-.2-.2-.2-.2-.1-.4-.2h-.4c0-.1-.4,1.1-.4,1.1h.3c.1.2.2.2.3.2,0,0,.1,0,.1,0,0,0,0-.1.1-.3h.1s-.3,1-.3,1h-.1c0-.2,0-.3,0-.4s0-.1,0-.1-.1,0-.2-.1h-.3c0-.1-.2.6-.2.6-.1.3-.2.5-.1.6s.1.1.3.2h.2c.2.1.3.1.4.1s.2,0,.4-.1.2-.2.4-.4h0q0,0,0,0Z"/>
          </g>
        </g>
      </g>
      <g class="st2">
        <g class="st2">
          <g class="st2">
            <path class="st7" d="M317,17l-.4.8-2.3-1.1h0c0,0,0,0,0,0,.1,0,.2,0,.3,0,0,0,.1,0,.2,0s.1-.2.2-.4l.6-1.3c.1-.2.2-.4.2-.4s0-.1,0-.2c0,0-.1-.1-.2-.2h0s0-.1,0-.1l1.3.6h0c0,0-.1,0-.1,0-.1,0-.2,0-.3,0s-.1,0-.1,0-.1.2-.2.4l-.7,1.4c0,.2-.1.3-.2.4,0,0,0,.1,0,.2s.1.1.3.2h.2c.2.2.3.2.4.2s.2,0,.3,0,.3-.2.4-.4h0s0,0,0,0Z"/>
          </g>
        </g>
      </g>
      <g class="st2">
        <g class="st2">
          <g class="st2">
            <path class="st7" d="M324,21l1,.8h0c-.1,0-.2,0-.3,0s-.1,0-.2,0-.2.2-.3.4l-.2.3s0,0,0,0c0,0-.2-.1-.4-.2-.3,0-.5-.2-.7-.3-.4-.3-.5-.6-.6-1,0-.4,0-.8.3-1.1s.6-.6,1-.7.8,0,1.2.3c.3.2.5.6.5,1,.1,0,.2-.1.3-.2h0c0,0-.6.9-.6.9h0c.2-.4.2-.6.2-.9s-.2-.5-.4-.7c-.2-.2-.5-.2-.8-.2-.3,0-.6.3-.9.7-.3.4-.5.8-.4,1.1,0,.3.2.5.4.7.1,0,.3.2.4.2.1,0,.3,0,.4,0s.2-.1.3-.2c.1-.1.2-.2.2-.3s0-.1,0-.1c0,0,0-.1-.2-.2h0s0-.1,0-.1h0s0,0,0,0Z"/>
          </g>
        </g>
      </g>
      <g class="st2">
        <g class="st2">
          <g class="st2">
            <path class="st7" d="M327.3,23.5c.3-.3.7-.5,1.1-.5.4,0,.8.2,1.1.5s.5.7.5,1.1c0,.4-.1.8-.5,1.1-.3.3-.7.5-1.1.5-.4,0-.8-.2-1.1-.5-.3-.3-.5-.7-.5-1.1,0-.4.2-.8.5-1.1h0ZM327.6,23.8c-.4.3-.5.7-.6,1s0,.6.4.9c.2.2.5.4.8.3s.6-.2,1-.6c.3-.3.5-.7.6-1s0-.6-.3-.9-.5-.4-.8-.3c-.3,0-.6.2-1,.6h0Z"/>
          </g>
        </g>
      </g>
      <g class="st2">
        <g class="st2">
          <g class="st2">
            <path class="st7" d="M331.5,28c.4-.3.8-.4,1.2-.3.4,0,.8.3,1,.7.3.4.4.8.4,1.2,0,.4-.2.8-.6,1.1-.4.3-.8.4-1.2.3s-.8-.3-1.1-.7c-.3-.4-.4-.8-.4-1.2s.3-.8.7-1.1h0ZM331.8,28.4c-.4.3-.6.6-.7.9s0,.6.2.9c.2.3.5.4.8.4s.7-.1,1.1-.4c.4-.3.6-.6.7-.9,0-.3,0-.6-.2-.9-.2-.3-.5-.4-.8-.5s-.7.1-1,.4h0Z"/>
          </g>
        </g>
      </g>
      <g class="st2">
        <g class="st2">
          <g class="st2">
            <path class="st7" d="M336.3,32.3l.3.4c.2.4.4.6.4.7.2.4.3.7.3,1s0,.5-.2.8c-.1.2-.4.4-.6.5-.2.1-.4.2-.6.2s-.4,0-.5,0c-.2,0-.3-.1-.4-.2s-.2-.2-.3-.3c0-.1-.2-.3-.3-.5l-.7-1.2h0c0,0,0,0,0,0,0,.1.1.2.2.2,0,0,.1,0,.2,0,0,0,.2,0,.4-.2l1.3-.7c.2-.1.4-.2.4-.2s0-.1,0-.1,0-.1-.1-.3h0c0,0,0-.1,0-.1h0s0,0,0,0ZM336.7,33.1l-1.8,1c-.3.1-.4.2-.5.3s-.1.1-.1.2,0,.2.1.3c.1.2.3.4.4.5.1.1.3.2.6.2.2,0,.5,0,.8-.2.2-.1.4-.3.5-.4s.2-.3.3-.5c0-.2,0-.3,0-.5s-.1-.3-.2-.5c0-.1-.1-.2-.2-.3h0Z"/>
          </g>
        </g>
      </g>
      <g class="st2">
        <g class="st2">
          <g class="st2">
            <path class="st7" d="M259.6,74.9h0c0,0,.7,1.2.7,1.2h0c0,0,0,0,0,0,0-.1-.1-.2-.2-.2,0,0-.1,0-.2,0,0,0-.2,0-.4.2l-1.3.7c-.2.1-.4.2-.4.2,0,0,0,0-.1.2,0,0,0,.2,0,.3h0c0,0,0,.1,0,.1l-.7-1.2h0c0,0,0,0,0,0,0,.1.1.2.2.2,0,0,.1,0,.2,0,0,0,.2,0,.4-.2l1.3-.7c.2-.1.4-.2.4-.2,0,0,0,0,0-.1s0-.1-.1-.3h0c0,0,0,0,0,0Z"/>
          </g>
        </g>
      </g>
      <g class="st2">
        <g class="st2">
          <g class="st2">
            <path class="st7" d="M259.6,80.8l1.3-3.3-1.8,1.1c-.1,0-.2.2-.3.2s0,.1,0,.2,0,.2.1.4h0c0,0-.6-.9-.6-.9h0c0,0,.2.1.2.2,0,0,.1,0,.2,0,0,0,.2,0,.3-.2l1.4-.9c.2-.1.3-.2.4-.3s0-.1,0-.2,0-.1-.1-.3h0c0,0,.5.7.5.7l-1,2.8,1.5-1c.1,0,.2-.1.2-.2s0-.1,0-.2c0,0,0-.2-.1-.3h0c0,0,.6.9.6.9h0c0,0-.2-.1-.2-.2s-.1,0-.2,0-.1,0-.2.1l-2.1,1.3h0c0,0,0,0,0,0h0Z"/>
          </g>
        </g>
      </g>
      <g class="st2">
        <g class="st2">
          <g class="st2">
            <path class="st7" d="M264,84.2l1.1-.2c.2,0,.3,0,.4-.1,0,0,0,0,0-.2,0,0,0-.2-.1-.3h0c0,0,.7.7.7.7h0c-.1,0-.2,0-.3,0-.1,0-.3,0-.5,0l-1.3.2-.3.3c-.2.2-.3.3-.4.3,0,0,0,.1,0,.2s0,.1.2.3h0c0,0-.8-.9-.8-.9h0c0,0,0,0,0,0,0,.1.2.2.2.2,0,0,.1,0,.2,0,0,0,.2-.1.4-.3l.3-.2.5-1.4c0-.3.1-.5.1-.5s0-.2-.1-.3h0c0,0,.8.9.8.9h0c-.1-.1-.3-.2-.3,0,0,0,0,.1-.1.2l-.4,1.3h0Z"/>
          </g>
        </g>
      </g>
      <g class="st2">
        <g class="st2">
          <g class="st2">
            <path class="st7" d="M265.5,85.7c.3-.3.7-.5,1.1-.5.4,0,.8.2,1.1.5.3.3.5.7.5,1.1s-.1.8-.5,1.1-.7.5-1.1.5-.8-.2-1.2-.5c-.3-.3-.5-.7-.5-1.1,0-.4.1-.8.5-1.1h0ZM265.9,86c-.3.4-.5.7-.6,1,0,.3,0,.6.4.9.2.2.5.3.8.3.3,0,.6-.2,1-.6.3-.3.5-.7.5-1,0-.3,0-.6-.3-.9s-.5-.4-.9-.3-.6.2-1,.6h0Z"/>
          </g>
        </g>
      </g>
      <g class="st2">
        <g class="st2">
          <g class="st2">
            <path class="st7" d="M271.5,89l.8.6h0c-.1,0-.2,0-.3,0s-.2,0-.2,0-.1.1-.2.3l-.6.8c-.2.2-.3.4-.4.4s-.2.1-.4.2c-.1,0-.3,0-.5,0-.2,0-.4-.2-.5-.3-.2-.2-.4-.4-.5-.5s-.1-.4,0-.5.1-.3.3-.5l.2-.2.6-.7c.2-.2.2-.3.3-.4s0-.1,0-.2,0-.1-.2-.2h0s0-.1,0-.1l1.1.9h0c0,0,0,0,0,0-.1,0-.2-.1-.2-.2,0,0-.1,0-.2,0s-.2.2-.3.4l-.6.7c-.2.3-.3.5-.4.6,0,.1,0,.3,0,.4s.2.3.4.5c.1.1.3.2.5.2.2,0,.3,0,.4,0s.2,0,.3-.2c0,0,.2-.2.3-.4l.7-.8c.1-.1.2-.2.2-.3,0,0,0-.1,0-.2,0,0,0-.2-.2-.2h0c0,0,0,0,0,0h0Z"/>
          </g>
        </g>
      </g>
      <g class="st2">
        <g class="st2">
          <g class="st2">
            <path class="st7" d="M274.1,94.5l-.7-.4c0-.2-.1-.5-.1-1,0-.2,0-.3,0-.5,0-.2,0-.3,0-.3s0,0-.1-.1h-.1c0,0-.4.5-.4.5-.1.2-.2.3-.2.4s0,.1,0,.2,0,.1.2.2h.1c0,0,0,.2,0,.2l-1.2-.8h0c0,0,0,0,0,0,.1,0,.2.1.2.1s.1,0,.2,0c0,0,.1-.2.3-.4l.8-1.3c.1-.2.2-.3.2-.4,0,0,0-.1,0-.2s-.1-.1-.2-.2h0s0-.1,0-.1l.4.2c.2.1.4.3.6.4.2.2.4.3.5.5s.2.3.2.5c0,.2,0,.3-.1.5-.1.2-.3.3-.5.3s-.4,0-.7-.1c0,.1.1.4.2.9,0,.4,0,.7.1.8s.2.3.3.4h0ZM273,91.9c0,0,.2.1.3.2s.2.1.3.1.2,0,.2,0,.1,0,.2-.1c0,0,.1-.1.2-.2.1-.2.2-.4.1-.5s-.2-.4-.5-.5c0,0-.1,0-.2,0l-.8,1.2h0Z"/>
          </g>
        </g>
      </g>
      <g class="st2">
        <g class="st2">
          <g class="st2">
            <path class="st7" d="M277.5,94.7c.2-.4.5-.7.9-.8s.8,0,1.3.1c.4.2.7.5.9.9s.2.8,0,1.2c-.2.4-.5.7-.9.8s-.8.1-1.3-.1c-.4-.2-.7-.5-.9-.9-.2-.4-.1-.8,0-1.3h0ZM278,94.9c-.2.4-.3.8-.2,1.1,0,.3.3.5.6.7.3.1.6.1.9,0s.5-.4.7-.9c.2-.4.3-.8.2-1.1s-.3-.5-.6-.7-.6-.2-.9,0c-.3.1-.5.4-.7.9h0Z"/>
          </g>
        </g>
      </g>
      <g class="st2">
        <g class="st2">
          <g class="st2">
            <path class="st7" d="M283.9,98.9h0s0-2.7,0-2.7l-1.6,2.1h-.1s0-2.5,0-2.5v-.5c0,0,0-.1,0-.2s-.1,0-.2-.1h0c0,0,1.1.3,1.1.3h0c-.1,0-.2,0-.3,0,0,0,0,0,0,.1,0,0,0,.2,0,.4v1.9c0,0,1.5-2.1,1.5-2.1h.1s0,2.6,0,2.6l1-1.4c.1-.2.2-.3.2-.4,0-.2,0-.3-.2-.4h0c0,0,.8.2.8.2h0c-.1,0-.2,0-.3.1,0,0-.2.2-.4.5l-1.4,2h0Z"/>
          </g>
        </g>
      </g>
      <g class="st2">
        <g class="st2">
          <g class="st2">
            <path class="st7" d="M288.7,100.2l-1.5-3.2-.4,2.1c0,.2,0,.3,0,.3s0,.1.1.2c0,0,.2.1.3.1h0c0,.1-1.1-.1-1.1-.1h0c.2-.1.3-.1.4-.1s.1,0,.2-.1c0,0,0-.2,0-.3l.3-1.6c0-.2,0-.4,0-.5s0-.1,0-.2-.1,0-.3-.1h0c0-.1.9,0,.9,0l1.3,2.7.4-1.8c0-.1,0-.2,0-.3,0,0,0-.1-.1-.2,0,0-.2,0-.3-.1h0c0-.1,1.1.1,1.1.1h0c0,.1-.3.1-.3.1,0,0-.1,0-.2.1,0,0,0,.1,0,.3l-.5,2.5h0,0Z"/>
          </g>
        </g>
      </g>
      <g class="st2">
        <g class="st2">
          <g class="st2">
            <path class="st7" d="M295.2,100.9l-1.9-3-.2,2.1v.4c0,0,0,.1.1.2,0,0,.2,0,.4,0h0c0,.1-1.1,0-1.1,0h0c.2-.1.3-.1.3-.2,0,0,.1,0,.1-.1,0,0,0-.2,0-.4v-1.6c.1-.2.1-.4.1-.5,0,0,0-.1,0-.2,0,0-.2,0-.3,0h0c0-.1.9,0,.9,0l1.6,2.5v-1.8c.1-.1.1-.2.1-.3s0-.1-.2-.1-.2,0-.3,0h0c0-.1,1.1,0,1.1,0h0c-.1.1-.2.1-.3.2s-.1,0-.2.1c0,0,0,.1,0,.3l-.2,2.5h0,0Z"/>
          </g>
        </g>
      </g>
      <g class="st2">
        <g class="st2">
          <g class="st2">
            <path class="st7" d="M299.3,99.9h.1v.9c0,0-2.6,0-2.6,0h0c0-.1,0-.1,0-.1.2,0,.2,0,.3,0,0,0,0,0,0-.2s0-.2,0-.5v-1.5c0-.2,0-.4,0-.5s0-.1,0-.2-.1,0-.3,0h0c0-.1,2.2-.1,2.2-.1v.8c0,0,0,0,0,0,0-.2-.1-.4-.2-.4s-.2-.1-.2-.2c0,0-.2,0-.5,0h-.4v1.3h.3c.1,0,.2,0,.3,0s0,0,.1-.1,0-.2,0-.3h.1v1s0,0,0,0c0-.2,0-.3,0-.3,0,0,0,0-.1-.1h-.6v.7c0,.4,0,.6,0,.6,0,0,.2,0,.4,0h.2c.2,0,.3,0,.4,0s.2-.1.3-.3c0-.1.2-.3.2-.5h0Z"/>
          </g>
        </g>
      </g>
      <g class="st2">
        <g class="st2">
          <g class="st2">
            <path class="st7" d="M300.4,97.8h0c0-.1,1.4-.2,1.4-.2h0c0,.1,0,.1,0,.1-.1,0-.2,0-.3,0s0,0,0,.1c0,0,0,.2,0,.5v1.5c.1.2.2.4.2.5,0,0,0,.1.1.2s.1,0,.3,0h0c0,0-1.4.2-1.4.2h0c0-.1,0-.1,0-.1.1,0,.2,0,.3,0s0,0,0-.2c0,0,0-.2,0-.5v-1.5c-.1-.2-.2-.4-.2-.5s0-.1-.1-.1c0,0-.2,0-.3,0h0Z"/>
          </g>
        </g>
      </g>
      <g class="st2">
        <g class="st2">
          <g class="st2">
            <path class="st7" d="M305,98.9l1.3-.2h0c-.1.1-.2.2-.3.2s0,0,0,.2,0,.2,0,.5v.3c0,0,0,0,0,0-.1,0-.3,0-.4.2-.2.1-.5.2-.7.3-.4,0-.8,0-1.1-.2s-.5-.6-.6-1c0-.4,0-.8.2-1.2s.6-.6,1-.7c.4,0,.8,0,1.1.3,0-.1,0-.2,0-.4h.1l.2,1h-.1c0-.3-.2-.5-.5-.7s-.5-.2-.7-.2c-.3,0-.5.2-.7.4s-.2.6-.1,1.2.2.9.5,1.1.5.3.8.2c.2,0,.3,0,.4-.2s.2-.2.2-.3,0-.2,0-.4c0-.2,0-.3,0-.3s0,0-.1,0h-.3c0,0,0,0,0,0h0Z"/>
          </g>
        </g>
      </g>
      <g class="st2">
        <g class="st2">
          <g class="st2">
            <path class="st7" d="M309.7,97.6l-1.5.4.2.7c0,.2.1.4.1.4,0,0,0,.1.1.1h.4c0,0-1.3.4-1.3.4h0c0-.1,0-.1,0-.1.1,0,.2,0,.2-.1s0-.1,0-.2,0-.2-.1-.5l-.4-1.4c0-.2-.1-.4-.1-.4,0,0,0-.1-.1-.1,0,0-.2,0-.3,0h0c0,0,1.3-.4,1.3-.4h0c0,.1,0,.1,0,.1-.1,0-.2,0-.3.1,0,0,0,0,0,.2s0,.2.1.5l.2.6,1.5-.4-.2-.6c0-.2-.1-.4-.1-.4,0,0,0-.1-.1-.1s-.2,0-.3,0h0c0,0,1.3-.4,1.3-.4h0c0,.1,0,.1,0,.1-.1,0-.2,0-.3.1s0,0,0,.2,0,.2.1.5l.4,1.4c0,.2.1.4.1.4,0,0,0,.1.1.1h.4c0,0-1.3.5-1.3.5h0c0-.1,0-.1,0-.1.1,0,.2,0,.2-.1,0,0,0-.1,0-.2s0-.2-.1-.5l-.2-.7h0c0,0,0,0,0,0Z"/>
          </g>
        </g>
      </g>
      <g class="st2">
        <g class="st2">
          <g class="st2">
            <path class="st7" d="M312.9,96.4c.3,0,.6-.1.8,0s.4.2.4.4c0,.2,0,.4,0,.5,0,.2-.2.3-.3.4s-.4.2-.6.3l-1.1.4h0c0,0,.1-.1.1-.1.1,0,.2,0,.2-.1,0,0,0-.1,0-.2,0,0,0-.2-.2-.5l-.5-1.4c0-.2-.2-.4-.2-.4s0,0-.1-.1c0,0-.2,0-.3,0h0s0,0,0,0l.5-.2.5-.2c.8-.3,1.3-.2,1.4.2,0,.2,0,.4,0,.5,0,.2-.3.3-.5.5h0ZM312.4,96.6s0,0,0,0c.3-.1.5-.2.6-.4,0-.1,0-.3,0-.5,0-.1-.1-.2-.2-.3s-.2-.1-.3-.1-.3,0-.5.1c0,0-.1,0-.2,0l.4,1.2h0ZM312.4,96.7l.2.6c.1.3.2.4.2.5s0,.1.1.1.1,0,.3,0c.2,0,.4-.2.4-.4,0-.2,0-.4,0-.6,0-.2-.2-.4-.4-.4-.2,0-.4,0-.7,0,0,0-.1,0-.2,0h0s0,0,0,0Z"/>
          </g>
        </g>
      </g>
      <g class="st2">
        <g class="st2">
          <g class="st2">
            <path class="st7" d="M315.1,95.7c-.2-.4-.2-.8,0-1.2.2-.4.4-.7.9-.9s.8-.3,1.3-.1c.4.1.7.4.9.8.2.4.2.8,0,1.2s-.4.7-.9.9-.8.2-1.3.1c-.4-.1-.7-.4-.9-.8h0ZM315.5,95.4c.2.4.5.7.7.9s.6.1,1,0c.3-.1.5-.4.6-.7,0-.3,0-.7-.2-1.1s-.5-.7-.7-.8-.6-.1-.9,0c-.3.2-.5.4-.6.7,0,.3,0,.7.2,1.1h0Z"/>
          </g>
        </g>
      </g>
      <g class="st2">
        <g class="st2">
          <g class="st2">
            <path class="st7" d="M319.2,93.6c-.2-.4-.3-.8-.2-1.2s.4-.7.8-1,.8-.3,1.2-.3.8.3,1,.7c.2.4.3.8.2,1.2s-.4.7-.8,1c-.4.3-.8.3-1.2.3s-.8-.3-1-.7h0ZM319.6,93.3c.3.4.5.7.8.8s.6,0,.9-.2c.3-.2.5-.4.5-.7,0-.3,0-.7-.3-1.1-.2-.4-.5-.7-.8-.8-.3-.1-.6,0-.9.1-.3.2-.5.4-.5.8,0,.3,0,.7.3,1.1h0Z"/>
          </g>
        </g>
      </g>
      <g class="st2">
        <g class="st2">
          <g class="st2">
            <path class="st7" d="M326.4,90.4l-.7.5c-.2,0-.5,0-1-.2-.2,0-.3,0-.5-.1s-.3,0-.3,0-.1,0-.2,0h0c0,0,.4.6.4.6.1.2.2.3.3.4,0,0,.1,0,.2,0s.1,0,.2-.1h.1c0,0,0,0,0,0l-1.1.9h0c0,0,0-.1,0-.1.1,0,.2-.1.2-.2,0,0,0-.1,0-.2s-.1-.2-.3-.4l-.9-1.2c-.1-.2-.2-.3-.3-.4s-.1,0-.2,0-.1,0-.3.2h0s0,0,0,0l.3-.3c.2-.2.4-.3.5-.4.2-.2.4-.3.6-.4s.4,0,.5,0,.3.1.4.2c.1.2.2.3.1.5s-.1.4-.4.6c.1,0,.4,0,.9.1.4.1.6.2.8.1.2,0,.3,0,.5-.2h0c0,0,0,0,0,0h0ZM323.7,90.6c0,0,.2-.1.3-.2s.2-.2.2-.2c0,0,0-.2,0-.2s0-.2,0-.2,0-.2-.2-.3c-.1-.2-.3-.3-.4-.3s-.4,0-.7.3c0,0,0,0-.1.1l.8,1.1h0Z"/>
          </g>
        </g>
      </g>
      <g class="st2">
        <g class="st2">
          <g class="st2">
            <path class="st7" d="M328,86.8l-1.1,1.1.5.5c.2.2.3.3.3.3s.1,0,.2,0c0,0,.1,0,.2-.2h0c0,0,0,0,0,0l-1,.9h0c0,0,0-.1,0-.1,0,0,.1-.2.2-.2,0,0,0-.1,0-.2s-.1-.2-.3-.4l-1-1.1c-.2-.2-.3-.3-.3-.3,0,0-.1,0-.2,0,0,0-.1,0-.2.2h0s0,0,0,0l1-.9h0c0,0,0,.1,0,.1-.1.1-.2.2-.2.2,0,0,0,.1,0,.2,0,0,.1.2.3.4l.4.4,1.1-1.1-.4-.4c-.2-.2-.3-.3-.3-.3s-.1,0-.2,0-.1,0-.2.2h0c0,0,0,0,0,0l1-1h0c0,0,0,.1,0,.1-.1.1-.2.2-.2.2s0,.1,0,.2c0,0,.1.2.3.4l1,1.1c.2.2.3.3.3.3s.1,0,.2,0c0,0,.1,0,.2-.2h0c0,0,0,0,0,0l-1,1h0c0,0,0-.1,0-.1,0,0,.1-.2.2-.2s0-.1,0-.2-.1-.2-.3-.4l-.5-.5h0Z"/>
          </g>
        </g>
      </g>
      <g class="st2">
        <g class="st2">
          <g class="st2">
            <path class="st7" d="M329.5,85.3c-.4-.3-.5-.7-.5-1.1,0-.4.1-.8.4-1.2.3-.4.7-.6,1.1-.6.4,0,.8,0,1.2.4.4.3.5.7.6,1.1s-.1.8-.4,1.2c-.3.4-.7.6-1.1.6s-.8,0-1.2-.4h0ZM329.9,85c.4.3.7.5,1,.5s.6-.1.8-.4c.2-.3.3-.5.2-.8,0-.3-.3-.6-.6-.9-.4-.3-.7-.5-1-.5s-.6.1-.8.4c-.2.3-.3.6-.3.9,0,.3.3.6.6.9h0Z"/>
          </g>
        </g>
      </g>
      <g class="st2">
        <g class="st2">
          <g class="st2">
            <path class="st7" d="M332.5,81.8c-.4-.3-.6-.6-.7-1,0-.4,0-.8.3-1.2.3-.4.6-.6,1-.7s.8,0,1.2.3c.4.3.6.6.7,1,0,.4,0,.8-.3,1.2-.3.4-.6.6-1,.7s-.8,0-1.2-.3h0ZM332.8,81.4c.4.3.8.4,1.1.4.3,0,.6-.2.8-.5.2-.3.2-.6.2-.9s-.3-.6-.7-.9-.7-.4-1.1-.4-.6.2-.8.5c-.2.3-.3.6-.2.9s.3.6.7.9h0Z"/>
          </g>
        </g>
      </g>
      <g class="st2">
        <g class="st2">
          <g class="st2">
            <path class="st7" d="M333.7,77.4l.2-.4c.2-.4.3-.6.4-.8.2-.4.4-.7.7-.8.2-.2.5-.2.8-.2s.5,0,.8.2c.2.1.4.2.5.4.1.1.2.3.3.5s0,.3,0,.5,0,.3-.1.4-.1.3-.3.5l-.7,1.2h0c0,0,0-.2,0-.2,0-.1,0-.2,0-.3s0-.1,0-.2-.2-.1-.4-.2l-1.3-.7c-.2-.1-.4-.2-.4-.2,0,0-.1,0-.2,0,0,0-.1.1-.2.2h0c0,0,0,0,0,0h0ZM334.2,76.6l1.8,1c.3.1.4.2.5.3s.2,0,.2,0,.1-.1.2-.3c.1-.2.2-.4.2-.6s0-.4-.2-.6-.3-.4-.6-.5c-.2-.1-.4-.2-.7-.2-.2,0-.4,0-.6,0-.2,0-.3.1-.4.2s-.2.3-.3.5c0,.1-.1.2-.2.3h0s0,0,0,0Z"/>
          </g>
        </g>
      </g>
      <path class="st7" d="M331.7,38.4c-3.1-6.3-8-11.6-13.9-15.4-6.1-3.9-13.2-5.9-20.5-5.9s-14.4,2-20.5,5.9c-6,3.8-10.8,9.1-13.9,15.4l-.8-.4c3.2-6.4,8.1-11.9,14.2-15.7,6.3-3.9,13.5-6,20.9-6s14.7,2.1,20.9,6c6.1,3.8,11,9.3,14.2,15.7l-.8.4h0Z"/>
      <g class="st2">
        <g class="st2">
          <g class="st2">
            <path class="st7" d="M271.4,73.6v.7c0,.3,0,.5,0,.5,0,0,0,.1.1.2s.2,0,.3,0h.1c0,.1-1.6.1-1.6.1h0c0-.1,0-.1,0-.1.2,0,.2,0,.3,0s0,0,.1-.2,0-.3,0-.6v-1.7c0-.3,0-.5,0-.5s0-.1-.1-.2-.2,0-.4,0h0c0-.1.4-.1.4-.1.4,0,.6,0,.8,0,.4,0,.6,0,.8,0s.4.2.5.3.2.3.2.5,0,.4-.1.5-.2.3-.4.3-.4.1-.8.1h-.4,0ZM271.4,73.4h.2c.2,0,.4,0,.5,0s.2-.1.3-.2.1-.3.1-.5c0-.3,0-.5-.2-.6s-.4-.2-.7-.2-.2,0-.3,0v1.6h0Z"/>
            <path class="st7" d="M274.9,71.8h0c0-.1,1.6-.1,1.6-.1h0c0,.1,0,.1,0,.1-.2,0-.3,0-.3,0s0,0-.1.2,0,.3,0,.5v1.7c0,.3,0,.5,0,.5,0,0,0,.1.1.2s.2,0,.3,0h.1c0,.1-1.6.1-1.6.1h0c0-.1.1-.1.1-.1.2,0,.2,0,.3,0s0,0,.1-.2,0-.3,0-.6v-1.7c0-.3,0-.5,0-.5s0-.1-.1-.2-.2,0-.4,0h0Z"/>
            <path class="st7" d="M278.4,75.2h0c0,0,2.3-3.4,2.3-3.4h-1.1c-.2,0-.4,0-.5,0s-.2,0-.2.2-.2.3-.2.5h-.1v-.8h2.7c0,.1-2.2,3.4-2.2,3.4h1.1c.4,0,.6,0,.7,0s.2-.2.3-.3.1-.3.2-.4h.1v.9h-3,0Z"/>
            <path class="st7" d="M283.4,75.2h0c0,0,2.3-3.4,2.3-3.4h-1.1c-.2,0-.4,0-.5,0s-.2,0-.2.2-.2.3-.2.5h-.1v-.8h2.7c0,.1-2.2,3.4-2.2,3.4h1.1c.4,0,.6,0,.7,0s.2-.2.3-.3.1-.3.2-.4h.1v.9h-3,0Z"/>
            <path class="st7" d="M290.4,73.9h-1.3v.2c-.2.3-.3.5-.3.6s0,.2.1.2.2,0,.3,0h0c0,.1-1,.1-1,.1h0c.2-.1.3-.2.4-.3,0,0,.2-.3.3-.5,0,0,0-.1.1-.3l1-2.4h.1l1.2,2.8.2.4c0,0,0,.1.1.2s.2,0,.3,0h0c0,.1-1.4.1-1.4.1h0c.2-.1.3-.1.3-.2,0,0,0,0,0-.1s0-.2-.1-.3l-.3-.7h0q0,0,0,0ZM290.4,73.8l-.6-1.5-.6,1.5h1.2Z"/>
            <path class="st7" d="M296.4,74h1.3v.4h-1.3v-.4Z"/>
          </g>
        </g>
        <g class="st2">
          <g class="st2">
            <path class="st7" d="M303.6,73.6v.7c0,.3,0,.5,0,.5,0,0,0,.1.1.2s.2,0,.3,0h.1c0,.1-1.6.1-1.6.1h0c0-.1,0-.1,0-.1.2,0,.2,0,.3,0s0,0,.1-.2c0,0,0-.3,0-.6v-1.7c0-.3,0-.5,0-.5s0-.1-.1-.2-.2,0-.4,0h0c0-.1.4-.1.4-.1.4,0,.6,0,.8,0,.4,0,.6,0,.8,0s.4.2.5.3.2.3.2.5,0,.4-.1.5-.2.3-.4.3-.4.1-.8.1h-.4,0ZM303.6,73.4h.2c.2,0,.4,0,.5,0s.2-.1.3-.2.1-.3.1-.5c0-.3,0-.5-.2-.6s-.4-.2-.7-.2-.2,0-.3,0v1.6h0Z"/>
          </g>
        </g>
        <g class="st2">
          <g class="st2">
            <path class="st7" d="M308.7,73.9h-1.3v.2c-.2.3-.3.5-.3.6s0,.2.1.2c0,0,.2,0,.3,0h0c0,.1-1,.1-1,.1h0c.2-.1.3-.2.4-.3,0,0,.2-.3.3-.5,0,0,0-.1.1-.3l1-2.4h.1l1.2,2.8.2.4c0,0,0,.1.1.2,0,0,.2,0,.3,0h0c0,.1-1.4.1-1.4.1h0c.2-.1.3-.1.3-.2,0,0,0,0,0-.1s0-.2-.1-.3l-.3-.7h0c0,0,0,0,0,0ZM308.7,73.8l-.6-1.5-.6,1.5h1.2Z"/>
            <path class="st7" d="M311.9,75.2v-1.1h.1c.1.7.5,1.1,1,1.1s.4,0,.6-.2.2-.3.2-.5,0-.3-.2-.4-.3-.2-.7-.4c-.3-.1-.5-.2-.6-.3s-.2-.2-.3-.4-.1-.3-.1-.5c0-.2,0-.5.3-.6s.4-.2.7-.2.3,0,.4,0,.3.1.4.3c0,0,.1-.2.1-.3h.1v.9h-.1c0-.3-.2-.5-.4-.6s-.4-.2-.6-.2-.4,0-.5.2c0,.1-.1.2-.1.4s0,.3.2.4c.1.1.3.2.7.4.3.1.5.2.7.3s.2.2.3.3.1.3.1.5c0,.3-.1.5-.3.7s-.5.3-.8.3-.7-.1-1-.4c0,0-.1.2-.1.3h-.1,0Z"/>
          </g>
        </g>
        <g class="st2">
          <g class="st2">
            <path class="st7" d="M316.3,72.6h-.1v-.8h3.4v.8s0,0,0,0c0-.2,0-.4-.2-.5s-.1-.2-.2-.2-.2,0-.4,0h-.6v2.5c0,.3,0,.5,0,.5s0,.2.1.2.2,0,.3,0h.2c0,.1-1.7.1-1.7.1h0c0-.1.2-.1.2-.1.2,0,.2,0,.3,0s0,0,.1-.2,0-.3,0-.6v-2.5h-.5c-.2,0-.4,0-.5,0s-.2,0-.2.2-.1.3-.2.5h0Z"/>
          </g>
        </g>
        <g class="st2">
          <g class="st2">
            <path class="st7" d="M323.2,73.9h-1.3v.2c-.2.3-.3.5-.3.6s0,.2.1.2c0,0,.2,0,.3,0h0c0,.1-1,.1-1,.1h0c.2-.1.3-.2.4-.3,0,0,.2-.3.3-.5,0,0,0-.1.1-.3l1-2.4h.1l1.2,2.8.2.4c0,0,0,.1.1.2,0,0,.2,0,.3,0h0c0,.1-1.4.1-1.4.1h0c.2-.1.3-.1.3-.2,0,0,0,0,0-.1s0-.2-.1-.3l-.3-.7h0c0,0,0,0,0,0ZM323.1,73.8l-.6-1.5-.6,1.5h1.2Z"/>
          </g>
        </g>
        <g class="st2">
          <g class="st2">
            <path class="st7" d="M285,79.5h1.1c-.1.2-.3.2-.4.3s-.2.3-.3.5c0,.2-.2.4-.2.5.2.3.3.4.4.5.1,0,.2.1.3.1s.3,0,.4-.2h.1c0,.1-.1.3-.2.4s-.2.1-.4.1c-.3,0-.6-.2-.9-.5-.3.3-.6.5-1,.5s-.2,0-.4,0-.2-.1-.3-.2-.2-.2-.2-.3,0-.2,0-.4c0-.2,0-.4.2-.5.1-.1.3-.3.7-.6-.2-.3-.3-.5-.3-.8s0-.3.2-.5c.1-.1.3-.2.5-.2s.4,0,.5.2.2.2.2.4c0,.3-.2.5-.7.8.2.2.3.4.4.6s.3.4.4.6c.1-.1.2-.3.2-.4s0-.3,0-.4c0-.2-.1-.3-.4-.4h0c0-.1,0-.1,0-.1h0ZM283.8,79.7c-.2.1-.3.2-.4.4-.1.1-.1.3-.1.4,0,.2,0,.4.2.6s.4.3.6.3.5-.1.7-.4c-.2-.3-.4-.5-.5-.8s-.3-.4-.4-.6h0ZM284.1,79.4c.3-.2.5-.4.5-.7s0-.1,0-.2,0-.1,0-.1,0,0-.1,0-.1,0-.2,0c-.1,0-.2,0-.3.1s-.1.2-.1.3.1.4.3.7h0Z"/>
            <path class="st7" d="M293.3,81l1.3-2.9h1.1c0,.1-.1.1-.1.1-.2,0-.3,0-.3,0s0,0-.1.2,0,.3,0,.5v1.7c0,.3,0,.5,0,.5,0,0,0,.1.1.2s.2,0,.3,0h.2c0,.1-1.7.1-1.7.1h0c0-.1.1-.1.1-.1.1,0,.2,0,.3,0s0,0,.1-.2,0-.3,0-.6v-2.2l-1.4,3.1h-.1l-1.4-3.1v2c0,.3,0,.5,0,.6s0,.2.2.3.2.1.4.1h0c0,.1-1.3.1-1.3.1h0c.2-.1.3-.2.4-.2s.2-.2.2-.3,0-.3,0-.6v-1.5c0-.3,0-.5,0-.5s0-.1-.1-.2-.2,0-.4,0h0c0-.1,1.1-.1,1.1-.1l1.3,2.9h0s0,0,0,0Z"/>
            <path class="st7" d="M297.6,79.8c0-.5.2-1,.5-1.3s.8-.5,1.4-.5,1,.2,1.4.5.5.8.5,1.3-.2,1-.5,1.3-.8.5-1.4.5-1-.2-1.4-.5-.5-.8-.5-1.3h0ZM298.2,79.8c0,.6.1,1,.3,1.3s.6.4,1,.4.7-.1.9-.4.4-.7.4-1.3-.1-1-.3-1.3-.5-.4-1-.4-.7.1-1,.4-.3.7-.3,1.3h0Z"/>
            <path class="st7" d="M307.1,81.6h-1c-.2-.1-.4-.4-.8-.9-.1-.2-.2-.3-.4-.5-.1-.1-.2-.2-.2-.3s-.1,0-.2,0h-.1v.8c0,.3,0,.5,0,.5,0,0,0,.1.1.2s.2,0,.3,0h.2c0,.1-1.7.1-1.7.1h0c0-.1.1-.1.1-.1.2,0,.2,0,.3,0s0,0,.1-.2,0-.3,0-.6v-1.7c0-.3,0-.5,0-.5s0-.1-.1-.2-.2,0-.4,0h0c0-.1.5-.1.5-.1.3,0,.6,0,.8,0,.3,0,.6,0,.8,0s.4.2.5.3.2.3.2.5,0,.4-.2.6-.4.3-.7.3c.1,0,.4.3.7.8.3.4.5.6.6.7s.3.2.5.2h0c0,.1,0,.1,0,.1h0ZM304.5,79.8h.4c.1,0,.3,0,.4,0s.2,0,.2-.1.1-.1.1-.2,0-.2,0-.4c0-.2,0-.4-.2-.6s-.4-.2-.8-.2-.1,0-.2,0v1.6h0Z"/>
            <path class="st7" d="M311.8,80.5h.1v1.1h-3c0-.1,0-.1,0-.1.2,0,.3,0,.3,0s0-.1,0-.2,0-.2,0-.5v-1.7c0-.3,0-.4,0-.5s0-.1-.1-.2c0,0-.2,0-.3,0h0c0-.1,2.5-.1,2.5-.1v.9c0,0,0,0,0,0,0-.2-.1-.4-.2-.5s-.2-.2-.3-.2-.3,0-.5,0h-.5v1.5h.4c.2,0,.3,0,.4,0s.1,0,.1-.1c0,0,0-.2,0-.4h.1v1.2h-.1c0-.2,0-.3,0-.4s0-.1-.1-.1-.2,0-.3,0h-.4v.8c0,.4,0,.7,0,.7,0,0,.2.1.4.1h.3c.2,0,.3,0,.5,0s.2-.1.3-.3c.1-.1.2-.4.2-.6h0s0,0,0,0Z"/>
          </g>
        </g>
      </g>
      <path class="st7" d="M297.4,94.8c-14.8,0-28.2-8.2-35-21.4l.8-.4c6.6,12.9,19.7,20.9,34.2,20.9s14.4-2,20.5-5.9c6-3.8,10.8-9.1,13.9-15.4l.8.4c-3.2,6.4-8.1,11.9-14.2,15.7-6.3,4-13.5,6-21,6h0Z"/>
      <g class="st2">
        <g class="st2">
          <g class="st2">
            <path class="st7" d="M259.9,33.9h0c0,0,.8.4.8.4l-1.2,2.2h0c0,0,0-.1,0-.1,0-.1.1-.2,0-.3s0-.1,0-.1c0,0-.2-.1-.4-.2l-1.3-.7c-.2-.1-.3-.2-.4-.2,0,0-.1,0-.2,0s-.1.1-.2.2h0c0,0,1-2,1-2l.7.3h0c-.2,0-.4,0-.5,0s-.2,0-.3.1-.1.2-.2.4l-.2.4,1.1.6.2-.3c0-.1.1-.2.1-.3,0,0,0-.1,0-.2s-.1-.1-.2-.2h0c0,0,.9.4.9.4h0c-.1,0-.2,0-.3,0s-.1,0-.2,0c0,0,0,.1-.2.2l-.2.3.6.3c.3.2.5.2.6.2s.2-.1.3-.3v-.2c.2-.1.2-.3.2-.4,0-.1,0-.2,0-.4,0-.1-.2-.3-.4-.4h0q0,0,0,0Z"/>
          </g>
        </g>
      </g>
      <g class="st2">
        <g class="st2">
          <g class="st2">
            <path class="st7" d="M262.3,30l-.7.9v.2c.3.3.4.4.4.5,0,0,.1,0,.2,0,0,0,.1,0,.2-.2h0c0,0-.5.8-.5.8h0c0-.2,0-.3,0-.4,0-.1-.1-.2-.2-.5,0,0,0-.1-.1-.2l-1.2-1.9h0c0,0,2.6.5,2.6.5h.3c0,0,.2,0,.2,0,0,0,.1,0,.2-.2h0c0,0-.7,1-.7,1h0c0-.2.1-.3.1-.3s0-.1,0-.1c0,0-.1,0-.3,0h-.6c0-.1,0-.1,0-.1h0ZM262.2,30l-1.4-.3.7,1.2.6-.9h0Z"/>
          </g>
        </g>
      </g>
      <g class="st2">
        <g class="st2">
          <g class="st2">
            <path class="st7" d="M263.5,26.5h0c0,0-.5-.4-.5-.4l2-2.2.5.5h0c-.2,0-.3-.1-.4-.1-.1,0-.2,0-.2,0s-.1.1-.3.2l-.3.4,1.6,1.4c.2.2.3.3.4.3s.1,0,.2,0,.1,0,.2-.2h.1c0-.1,0,0,0,0l-1,1.1h0c0,0,.1-.2.1-.2,0,0,.1-.2.1-.2s0-.1,0-.2c0,0-.2-.2-.3-.3l-1.6-1.4-.3.3c-.1.1-.2.2-.2.3s0,.1,0,.2.1.2.2.4h0Z"/>
          </g>
        </g>
      </g>
      <g class="st2">
        <g class="st2">
          <g class="st2">
            <path class="st7" d="M269.8,19.6l.4-.3c.3-.3.5-.4.7-.5.4-.3.7-.4,1-.4.3,0,.5,0,.8.1.2.1.4.3.6.6.1.2.2.4.3.6s0,.4,0,.5,0,.3-.2.5c0,.1-.2.3-.3.4s-.3.2-.5.4l-1.1.8h0c0,0,.1-.2.1-.2.1,0,.2-.1.2-.2s0-.1,0-.2c0,0-.1-.2-.3-.4l-.8-1.2c-.1-.2-.2-.3-.3-.4,0,0-.1,0-.2,0s-.1,0-.3.1h0c0,0,0,0,0,0h0,0ZM270.5,19.1l1.2,1.7c.2.2.3.4.4.5,0,0,.1,0,.2,0s.2,0,.3-.2c.2-.2.4-.3.5-.5.1-.2.1-.4.1-.6s-.1-.5-.3-.8c-.2-.2-.3-.4-.5-.5-.2-.1-.3-.2-.5-.2-.2,0-.3,0-.5,0s-.3.1-.5.3c0,0-.2.1-.3.2h0Z"/>
          </g>
        </g>
      </g>
      <g class="st2">
        <g class="st2">
          <g class="st2">
            <path class="st7" d="M279.1,17.4l-.7.4c-.2,0-.5-.2-1-.4s-.3-.1-.4-.2c-.2,0-.2-.1-.3-.1s-.1,0-.2,0h-.1c0,0,.3.7.3.7.1.2.2.4.2.4s.1,0,.2.1c0,0,.2,0,.3,0h.1c0,0,0,0,0,0l-1.3.7h0c0,0,0-.1,0-.1.1,0,.2-.1.2-.2,0,0,0-.1,0-.2s0-.2-.2-.4l-.7-1.3c-.1-.2-.2-.4-.2-.4s0,0-.1,0-.1,0-.3.1h-.1c0,0,.4-.3.4-.3.2-.1.5-.3.6-.3.2-.1.5-.2.7-.3s.4,0,.5,0,.3.2.4.3c0,.2.1.4,0,.5s-.2.4-.4.5c.1,0,.4,0,.8.3.4.2.6.3.8.3s.3,0,.5,0h0c0,.1,0,.1,0,.1ZM276.3,17c.1,0,.2-.1.3-.2s.2-.1.2-.2.1-.1.1-.2c0,0,0-.2,0-.2s0-.2-.1-.3c-.1-.2-.2-.3-.4-.4s-.4,0-.7.2c0,0-.1,0-.2,0l.7,1.2h0Z"/>
          </g>
        </g>
      </g>
      <g class="st2">
        <g class="st2">
          <g class="st2">
            <path class="st7" d="M280.2,13.7h0c0,0,1.3-.6,1.3-.6h0c0,0,0,0,0,0-.1,0-.2.1-.3.2s0,0,0,.2c0,0,0,.2.2.5l.5,1.4c0,.2.2.4.2.4,0,0,0,.1.1.1,0,0,.2,0,.3,0h0s0,0,0,0l-1.3.5h0c0,0,0-.1,0-.1.1,0,.2,0,.2-.1s0-.1,0-.2c0,0,0-.2-.2-.5l-.5-1.4c0-.2-.2-.4-.2-.4,0,0,0,0-.1-.1,0,0-.2,0-.3,0h0s0,0,0,0Z"/>
          </g>
        </g>
      </g>
      <g class="st2">
        <g class="st2">
          <g class="st2">
            <path class="st7" d="M287.6,14.4l-2.8-2.2.5,2c0,.2,0,.3.1.3s0,0,.2.1.2,0,.4,0h0c0,.1-1.1.4-1.1.4h0c.1-.2.2-.2.3-.3,0,0,0-.1,0-.2s0-.2,0-.3l-.4-1.6c0-.2-.1-.4-.2-.4,0,0,0-.1-.1-.1,0,0-.2,0-.3,0h0c0-.1.8-.3.8-.3l2.3,1.8-.5-1.8c0-.1,0-.2-.1-.3,0,0-.1,0-.2,0s-.2,0-.3,0h0c0-.1,1-.4,1-.4h0c0,.1-.2.2-.2.2s0,.1-.1.2c0,0,0,.1,0,.3l.6,2.4h0c0,0,0,0,0,0Z"/>
          </g>
        </g>
      </g>
      <g class="st2">
        <g class="st2">
          <g class="st2">
            <path class="st7" d="M291.2,12.2l.8-.9c.2-.2.3-.4.3-.4,0-.1-.1-.2-.3-.2h0c0-.1,1.1-.2,1.1-.2h0c0,.1-.2.1-.3.2s-.2.1-.2.2-.2.2-.4.4l-.5.6,1.3,1c.3.2.5.4.6.4s.2,0,.4,0h0c0,.1-1.6.3-1.6.3h0c0-.1,0-.1,0-.1.2,0,.3,0,.3,0,0,0,0,0,0-.1,0,0-.1-.2-.4-.4l-1-.8-.2.2v.5c.1.2.1.4.1.5s0,.1.1.2.1,0,.3,0h0c0,0-1.4.3-1.4.3h0c0-.1,0-.1,0-.1.1,0,.2,0,.3,0,0,0,0,0,0-.2s0-.2,0-.5l-.2-1.5c0-.2,0-.4,0-.5,0,0,0-.1-.1-.1s-.2,0-.3,0h0c0-.1,1.3-.3,1.3-.3h0c0,.1,0,.1,0,.1-.1,0-.2,0-.3,0,0,0,0,0,0,.1s0,.2,0,.5v.8c.1,0,0,0,0,0h0Z"/>
          </g>
        </g>
      </g>
      <g class="st2">
        <g class="st2">
          <g class="st2">
            <path class="st7" d="M302.3,10.5v.8h-.1c0-.2,0-.3-.1-.4s-.1-.2-.2-.2-.2,0-.4,0h-.6c0,0-.1,1.2-.1,1.2h.3c.2,0,.3,0,.4,0s.1-.2.1-.4h.1v1.1h-.2v-.3c0,0,0-.1-.1-.2s-.1,0-.3,0h-.3v.7c0,.2,0,.4,0,.5s0,.1,0,.2.1,0,.3,0h.1c0,.1-1.4,0-1.4,0h0c0-.1.1-.1.1-.1.1,0,.2,0,.3,0s0,0,.1-.1c0,0,0-.2,0-.5v-1.5c.1-.2.1-.4.1-.5s0-.1,0-.2-.1,0-.3,0h0c0-.1,2.3,0,2.3,0,0,0,0,0,0,0Z"/>
          </g>
        </g>
      </g>
      <g class="st2">
        <g class="st2">
          <g class="st2">
            <path class="st7" d="M307.1,13.4h.1l-.2.9-2.5-.5h0c0-.1,0-.1,0-.1.1,0,.2,0,.3,0s0,0,.1-.1c0,0,0-.2.1-.5l.3-1.5c0-.2,0-.4,0-.5s0-.1,0-.2c0,0-.1,0-.3-.1h0c0-.1,2.2.3,2.2.3v.8h-.2c0-.2,0-.4,0-.5s-.1-.2-.2-.2-.2,0-.4-.1h-.4c0,0-.2,1.2-.2,1.2h.3c.1.1.2.1.3,0,0,0,.1,0,.1,0,0,0,0-.1,0-.3h.1l-.2,1h-.1c0-.2,0-.3,0-.4,0,0,0-.1-.1-.1s-.1,0-.3,0h-.3c0,0-.1.6-.1.6,0,.4,0,.6,0,.6,0,0,.1.1.4.2h.2c.2,0,.3,0,.4,0s.2,0,.3-.2.2-.3.3-.5h0c0,0,0,0,0,0Z"/>
          </g>
        </g>
      </g>
      <g class="st2">
        <g class="st2">
          <g class="st2">
            <path class="st7" d="M312.1,14.9h.1s-.4.9-.4.9l-2.4-.8h0c0,0,0,0,0,0,.1,0,.2,0,.3,0,0,0,0,0,.1-.1s0-.2.2-.4l.5-1.4c0-.2.1-.4.1-.4,0,0,0-.1,0-.2,0,0-.1,0-.3-.1h0c0,0,2.1.6,2.1.6l-.2.7h-.1c0-.2,0-.4,0-.5s-.1-.2-.2-.2-.2-.1-.4-.2h-.4c0-.1-.4,1.1-.4,1.1h.3c.1.2.2.2.3.2,0,0,.1,0,.1,0,0,0,0-.1.1-.3h.1s-.3,1-.3,1h-.1c0-.2,0-.3,0-.4s0-.1,0-.1-.1,0-.2-.1h-.3c0-.1-.2.6-.2.6-.1.3-.2.5-.1.6s.1.1.3.2h.2c.2.1.3.1.4.1s.2,0,.4-.1.2-.2.4-.4h0q0,0,0,0Z"/>
          </g>
        </g>
      </g>
      <g class="st2">
        <g class="st2">
          <g class="st2">
            <path class="st7" d="M317,17l-.4.8-2.3-1.1h0c0,0,0,0,0,0,.1,0,.2,0,.3,0,0,0,.1,0,.2,0s.1-.2.2-.4l.6-1.3c.1-.2.2-.4.2-.4s0-.1,0-.2c0,0-.1-.1-.2-.2h0s0-.1,0-.1l1.3.6h0c0,0-.1,0-.1,0-.1,0-.2,0-.3,0s-.1,0-.1,0-.1.2-.2.4l-.7,1.4c0,.2-.1.3-.2.4,0,0,0,.1,0,.2s.1.1.3.2h.2c.2.2.3.2.4.2s.2,0,.3,0,.3-.2.4-.4h0s0,0,0,0Z"/>
          </g>
        </g>
      </g>
      <g class="st2">
        <g class="st2">
          <g class="st2">
            <path class="st7" d="M324,21l1,.8h0c-.1,0-.2,0-.3,0s-.1,0-.2,0-.2.2-.3.4l-.2.3s0,0,0,0c0,0-.2-.1-.4-.2-.3,0-.5-.2-.7-.3-.4-.3-.5-.6-.6-1,0-.4,0-.8.3-1.1s.6-.6,1-.7.8,0,1.2.3c.3.2.5.6.5,1,.1,0,.2-.1.3-.2h0c0,0-.6.9-.6.9h0c.2-.4.2-.6.2-.9s-.2-.5-.4-.7c-.2-.2-.5-.2-.8-.2-.3,0-.6.3-.9.7-.3.4-.5.8-.4,1.1,0,.3.2.5.4.7.1,0,.3.2.4.2.1,0,.3,0,.4,0s.2-.1.3-.2c.1-.1.2-.2.2-.3s0-.1,0-.1c0,0,0-.1-.2-.2h0s0-.1,0-.1h0s0,0,0,0Z"/>
          </g>
        </g>
      </g>
      <g class="st2">
        <g class="st2">
          <g class="st2">
            <path class="st7" d="M327.3,23.5c.3-.3.7-.5,1.1-.5.4,0,.8.2,1.1.5s.5.7.5,1.1c0,.4-.1.8-.5,1.1-.3.3-.7.5-1.1.5-.4,0-.8-.2-1.1-.5-.3-.3-.5-.7-.5-1.1,0-.4.2-.8.5-1.1h0ZM327.6,23.8c-.4.3-.5.7-.6,1s0,.6.4.9c.2.2.5.4.8.3s.6-.2,1-.6c.3-.3.5-.7.6-1s0-.6-.3-.9-.5-.4-.8-.3c-.3,0-.6.2-1,.6h0Z"/>
          </g>
        </g>
      </g>
      <g class="st2">
        <g class="st2">
          <g class="st2">
            <path class="st7" d="M331.5,28c.4-.3.8-.4,1.2-.3.4,0,.8.3,1,.7.3.4.4.8.4,1.2,0,.4-.2.8-.6,1.1-.4.3-.8.4-1.2.3s-.8-.3-1.1-.7c-.3-.4-.4-.8-.4-1.2s.3-.8.7-1.1h0ZM331.8,28.4c-.4.3-.6.6-.7.9s0,.6.2.9c.2.3.5.4.8.4s.7-.1,1.1-.4c.4-.3.6-.6.7-.9,0-.3,0-.6-.2-.9-.2-.3-.5-.4-.8-.5s-.7.1-1,.4h0Z"/>
          </g>
        </g>
      </g>
      <g class="st2">
        <g class="st2">
          <g class="st2">
            <path class="st7" d="M336.3,32.3l.3.4c.2.4.4.6.4.7.2.4.3.7.3,1s0,.5-.2.8c-.1.2-.4.4-.6.5-.2.1-.4.2-.6.2s-.4,0-.5,0c-.2,0-.3-.1-.4-.2s-.2-.2-.3-.3c0-.1-.2-.3-.3-.5l-.7-1.2h0c0,0,0,0,0,0,0,.1.1.2.2.2,0,0,.1,0,.2,0,0,0,.2,0,.4-.2l1.3-.7c.2-.1.4-.2.4-.2s0-.1,0-.1,0-.1-.1-.3h0c0,0,0-.1,0-.1h0s0,0,0,0ZM336.7,33.1l-1.8,1c-.3.1-.4.2-.5.3s-.1.1-.1.2,0,.2.1.3c.1.2.3.4.4.5.1.1.3.2.6.2.2,0,.5,0,.8-.2.2-.1.4-.3.5-.4s.2-.3.3-.5c0-.2,0-.3,0-.5s-.1-.3-.2-.5c0-.1-.1-.2-.2-.3h0Z"/>
          </g>
        </g>
      </g>
      <g class="st2">
        <g class="st2">
          <g class="st2">
            <path class="st7" d="M259.6,74.9h0c0,0,.7,1.2.7,1.2h0c0,0,0,0,0,0,0-.1-.1-.2-.2-.2,0,0-.1,0-.2,0,0,0-.2,0-.4.2l-1.3.7c-.2.1-.4.2-.4.2,0,0,0,0-.1.2,0,0,0,.2,0,.3h0c0,0,0,.1,0,.1l-.7-1.2h0c0,0,0,0,0,0,0,.1.1.2.2.2,0,0,.1,0,.2,0,0,0,.2,0,.4-.2l1.3-.7c.2-.1.4-.2.4-.2,0,0,0,0,0-.1s0-.1-.1-.3h0c0,0,0,0,0,0Z"/>
          </g>
        </g>
      </g>
      <g class="st2">
        <g class="st2">
          <g class="st2">
            <path class="st7" d="M259.6,80.8l1.3-3.3-1.8,1.1c-.1,0-.2.2-.3.2s0,.1,0,.2,0,.2.1.4h0c0,0-.6-.9-.6-.9h0c0,0,.2.1.2.2,0,0,.1,0,.2,0,0,0,.2,0,.3-.2l1.4-.9c.2-.1.3-.2.4-.3s0-.1,0-.2,0-.1-.1-.3h0c0,0,.5.7.5.7l-1,2.8,1.5-1c.1,0,.2-.1.2-.2s0-.1,0-.2c0,0,0-.2-.1-.3h0c0,0,.6.9.6.9h0c0,0-.2-.1-.2-.2s-.1,0-.2,0-.1,0-.2.1l-2.1,1.3h0c0,0,0,0,0,0h0Z"/>
          </g>
        </g>
      </g>
      <g class="st2">
        <g class="st2">
          <g class="st2">
            <path class="st7" d="M264,84.2l1.1-.2c.2,0,.3,0,.4-.1,0,0,0,0,0-.2,0,0,0-.2-.1-.3h0c0,0,.7.7.7.7h0c-.1,0-.2,0-.3,0-.1,0-.3,0-.5,0l-1.3.2-.3.3c-.2.2-.3.3-.4.3,0,0,0,.1,0,.2s0,.1.2.3h0c0,0-.8-.9-.8-.9h0c0,0,0,0,0,0,0,.1.2.2.2.2,0,0,.1,0,.2,0,0,0,.2-.1.4-.3l.3-.2.5-1.4c0-.3.1-.5.1-.5s0-.2-.1-.3h0c0,0,.8.9.8.9h0c-.1-.1-.3-.2-.3,0,0,0,0,.1-.1.2l-.4,1.3h0Z"/>
          </g>
        </g>
      </g>
      <g class="st2">
        <g class="st2">
          <g class="st2">
            <path class="st7" d="M265.5,85.7c.3-.3.7-.5,1.1-.5.4,0,.8.2,1.1.5.3.3.5.7.5,1.1s-.1.8-.5,1.1-.7.5-1.1.5-.8-.2-1.2-.5c-.3-.3-.5-.7-.5-1.1,0-.4.1-.8.5-1.1h0ZM265.9,86c-.3.4-.5.7-.6,1,0,.3,0,.6.4.9.2.2.5.3.8.3.3,0,.6-.2,1-.6.3-.3.5-.7.5-1,0-.3,0-.6-.3-.9s-.5-.4-.9-.3-.6.2-1,.6h0Z"/>
          </g>
        </g>
      </g>
      <g class="st2">
        <g class="st2">
          <g class="st2">
            <path class="st7" d="M271.5,89l.8.6h0c-.1,0-.2,0-.3,0s-.2,0-.2,0-.1.1-.2.3l-.6.8c-.2.2-.3.4-.4.4s-.2.1-.4.2c-.1,0-.3,0-.5,0-.2,0-.4-.2-.5-.3-.2-.2-.4-.4-.5-.5s-.1-.4,0-.5.1-.3.3-.5l.2-.2.6-.7c.2-.2.2-.3.3-.4s0-.1,0-.2,0-.1-.2-.2h0s0-.1,0-.1l1.1.9h0c0,0,0,0,0,0-.1,0-.2-.1-.2-.2,0,0-.1,0-.2,0s-.2.2-.3.4l-.6.7c-.2.3-.3.5-.4.6,0,.1,0,.3,0,.4s.2.3.4.5c.1.1.3.2.5.2.2,0,.3,0,.4,0s.2,0,.3-.2c0,0,.2-.2.3-.4l.7-.8c.1-.1.2-.2.2-.3,0,0,0-.1,0-.2,0,0,0-.2-.2-.2h0c0,0,0,0,0,0h0Z"/>
          </g>
        </g>
      </g>
      <g class="st2">
        <g class="st2">
          <g class="st2">
            <path class="st7" d="M274.1,94.5l-.7-.4c0-.2-.1-.5-.1-1,0-.2,0-.3,0-.5,0-.2,0-.3,0-.3s0,0-.1-.1h-.1c0,0-.4.5-.4.5-.1.2-.2.3-.2.4s0,.1,0,.2,0,.1.2.2h.1c0,0,0,.2,0,.2l-1.2-.8h0c0,0,0,0,0,0,.1,0,.2.1.2.1s.1,0,.2,0c0,0,.1-.2.3-.4l.8-1.3c.1-.2.2-.3.2-.4,0,0,0-.1,0-.2s-.1-.1-.2-.2h0s0-.1,0-.1l.4.2c.2.1.4.3.6.4.2.2.4.3.5.5s.2.3.2.5c0,.2,0,.3-.1.5-.1.2-.3.3-.5.3s-.4,0-.7-.1c0,.1.1.4.2.9,0,.4,0,.7.1.8s.2.3.3.4h0ZM273,91.9c0,0,.2.1.3.2s.2.1.3.1.2,0,.2,0,.1,0,.2-.1c0,0,.1-.1.2-.2.1-.2.2-.4.1-.5s-.2-.4-.5-.5c0,0-.1,0-.2,0l-.8,1.2h0Z"/>
          </g>
        </g>
      </g>
      <g class="st2">
        <g class="st2">
          <g class="st2">
            <path class="st7" d="M277.5,94.7c.2-.4.5-.7.9-.8s.8,0,1.3.1c.4.2.7.5.9.9s.2.8,0,1.2c-.2.4-.5.7-.9.8s-.8.1-1.3-.1c-.4-.2-.7-.5-.9-.9-.2-.4-.1-.8,0-1.3h0ZM278,94.9c-.2.4-.3.8-.2,1.1,0,.3.3.5.6.7.3.1.6.1.9,0s.5-.4.7-.9c.2-.4.3-.8.2-1.1s-.3-.5-.6-.7-.6-.2-.9,0c-.3.1-.5.4-.7.9h0Z"/>
          </g>
        </g>
      </g>
      <g class="st2">
        <g class="st2">
          <g class="st2">
            <path class="st7" d="M283.9,98.9h0s0-2.7,0-2.7l-1.6,2.1h-.1s0-2.5,0-2.5v-.5c0,0,0-.1,0-.2s-.1,0-.2-.1h0c0,0,1.1.3,1.1.3h0c-.1,0-.2,0-.3,0,0,0,0,0,0,.1,0,0,0,.2,0,.4v1.9c0,0,1.5-2.1,1.5-2.1h.1s0,2.6,0,2.6l1-1.4c.1-.2.2-.3.2-.4,0-.2,0-.3-.2-.4h0c0,0,.8.2.8.2h0c-.1,0-.2,0-.3.1,0,0-.2.2-.4.5l-1.4,2h0Z"/>
          </g>
        </g>
      </g>
      <g class="st2">
        <g class="st2">
          <g class="st2">
            <path class="st7" d="M288.7,100.2l-1.5-3.2-.4,2.1c0,.2,0,.3,0,.3s0,.1.1.2c0,0,.2.1.3.1h0c0,.1-1.1-.1-1.1-.1h0c.2-.1.3-.1.4-.1s.1,0,.2-.1c0,0,0-.2,0-.3l.3-1.6c0-.2,0-.4,0-.5s0-.1,0-.2-.1,0-.3-.1h0c0-.1.9,0,.9,0l1.3,2.7.4-1.8c0-.1,0-.2,0-.3,0,0,0-.1-.1-.2,0,0-.2,0-.3-.1h0c0-.1,1.1.1,1.1.1h0c0,.1-.3.1-.3.1,0,0-.1,0-.2.1,0,0,0,.1,0,.3l-.5,2.5h0,0Z"/>
          </g>
        </g>
      </g>
      <g class="st2">
        <g class="st2">
          <g class="st2">
            <path class="st7" d="M295.2,100.9l-1.9-3-.2,2.1v.4c0,0,0,.1.1.2,0,0,.2,0,.4,0h0c0,.1-1.1,0-1.1,0h0c.2-.1.3-.1.3-.2,0,0,.1,0,.1-.1,0,0,0-.2,0-.4v-1.6c.1-.2.1-.4.1-.5,0,0,0-.1,0-.2,0,0-.2,0-.3,0h0c0-.1.9,0,.9,0l1.6,2.5v-1.8c.1-.1.1-.2.1-.3s0-.1-.2-.1-.2,0-.3,0h0c0-.1,1.1,0,1.1,0h0c-.1.1-.2.1-.3.2s-.1,0-.2.1c0,0,0,.1,0,.3l-.2,2.5h0,0Z"/>
          </g>
        </g>
      </g>
      <g class="st2">
        <g class="st2">
          <g class="st2">
            <path class="st7" d="M299.3,99.9h.1v.9c0,0-2.6,0-2.6,0h0c0-.1,0-.1,0-.1.2,0,.2,0,.3,0,0,0,0,0,0-.2s0-.2,0-.5v-1.5c0-.2,0-.4,0-.5s0-.1,0-.2-.1,0-.3,0h0c0-.1,2.2-.1,2.2-.1v.8c0,0,0,0,0,0,0-.2-.1-.4-.2-.4s-.2-.1-.2-.2c0,0-.2,0-.5,0h-.4v1.3h.3c.1,0,.2,0,.3,0s0,0,.1-.1,0-.2,0-.3h.1v1s0,0,0,0c0-.2,0-.3,0-.3,0,0,0,0-.1-.1h-.6v.7c0,.4,0,.6,0,.6,0,0,.2,0,.4,0h.2c.2,0,.3,0,.4,0s.2-.1.3-.3c0-.1.2-.3.2-.5h0Z"/>
          </g>
        </g>
      </g>
      <g class="st2">
        <g class="st2">
          <g class="st2">
            <path class="st7" d="M300.4,97.8h0c0-.1,1.4-.2,1.4-.2h0c0,.1,0,.1,0,.1-.1,0-.2,0-.3,0s0,0,0,.1c0,0,0,.2,0,.5v1.5c.1.2.2.4.2.5,0,0,0,.1.1.2s.1,0,.3,0h0c0,0-1.4.2-1.4.2h0c0-.1,0-.1,0-.1.1,0,.2,0,.3,0s0,0,0-.2c0,0,0-.2,0-.5v-1.5c-.1-.2-.2-.4-.2-.5s0-.1-.1-.1c0,0-.2,0-.3,0h0Z"/>
          </g>
        </g>
      </g>
      <g class="st2">
        <g class="st2">
          <g class="st2">
            <path class="st7" d="M305,98.9l1.3-.2h0c-.1.1-.2.2-.3.2s0,0,0,.2,0,.2,0,.5v.3c0,0,0,0,0,0-.1,0-.3,0-.4.2-.2.1-.5.2-.7.3-.4,0-.8,0-1.1-.2s-.5-.6-.6-1c0-.4,0-.8.2-1.2s.6-.6,1-.7c.4,0,.8,0,1.1.3,0-.1,0-.2,0-.4h.1l.2,1h-.1c0-.3-.2-.5-.5-.7s-.5-.2-.7-.2c-.3,0-.5.2-.7.4s-.2.6-.1,1.2.2.9.5,1.1.5.3.8.2c.2,0,.3,0,.4-.2s.2-.2.2-.3,0-.2,0-.4c0-.2,0-.3,0-.3s0,0-.1,0h-.3c0,0,0,0,0,0h0Z"/>
          </g>
        </g>
      </g>
      <g class="st2">
        <g class="st2">
          <g class="st2">
            <path class="st7" d="M309.7,97.6l-1.5.4.2.7c0,.2.1.4.1.4,0,0,0,.1.1.1h.4c0,0-1.3.4-1.3.4h0c0-.1,0-.1,0-.1.1,0,.2,0,.2-.1s0-.1,0-.2,0-.2-.1-.5l-.4-1.4c0-.2-.1-.4-.1-.4,0,0,0-.1-.1-.1,0,0-.2,0-.3,0h0c0,0,1.3-.4,1.3-.4h0c0,.1,0,.1,0,.1-.1,0-.2,0-.3.1,0,0,0,0,0,.2s0,.2.1.5l.2.6,1.5-.4-.2-.6c0-.2-.1-.4-.1-.4,0,0,0-.1-.1-.1s-.2,0-.3,0h0c0,0,1.3-.4,1.3-.4h0c0,.1,0,.1,0,.1-.1,0-.2,0-.3.1s0,0,0,.2,0,.2.1.5l.4,1.4c0,.2.1.4.1.4,0,0,0,.1.1.1h.4c0,0-1.3.5-1.3.5h0c0-.1,0-.1,0-.1.1,0,.2,0,.2-.1,0,0,0-.1,0-.2s0-.2-.1-.5l-.2-.7h0c0,0,0,0,0,0Z"/>
          </g>
        </g>
      </g>
      <g class="st2">
        <g class="st2">
          <g class="st2">
            <path class="st7" d="M312.9,96.4c.3,0,.6-.1.8,0s.4.2.4.4c0,.2,0,.4,0,.5,0,.2-.2.3-.3.4s-.4.2-.6.3l-1.1.4h0c0,0,.1-.1.1-.1.1,0,.2,0,.2-.1,0,0,0-.1,0-.2,0,0,0-.2-.2-.5l-.5-1.4c0-.2-.2-.4-.2-.4s0,0-.1-.1c0,0-.2,0-.3,0h0s0,0,0,0l.5-.2.5-.2c.8-.3,1.3-.2,1.4.2,0,.2,0,.4,0,.5,0,.2-.3.3-.5.5h0ZM312.4,96.6s0,0,0,0c.3-.1.5-.2.6-.4,0-.1,0-.3,0-.5,0-.1-.1-.2-.2-.3s-.2-.1-.3-.1-.3,0-.5.1c0,0-.1,0-.2,0l.4,1.2h0ZM312.4,96.7l.2.6c.1.3.2.4.2.5s0,.1.1.1.1,0,.3,0c.2,0,.4-.2.4-.4,0-.2,0-.4,0-.6,0-.2-.2-.4-.4-.4-.2,0-.4,0-.7,0,0,0-.1,0-.2,0h0s0,0,0,0Z"/>
          </g>
        </g>
      </g>
      <g class="st2">
        <g class="st2">
          <g class="st2">
            <path class="st7" d="M315.1,95.7c-.2-.4-.2-.8,0-1.2.2-.4.4-.7.9-.9s.8-.3,1.3-.1c.4.1.7.4.9.8.2.4.2.8,0,1.2s-.4.7-.9.9-.8.2-1.3.1c-.4-.1-.7-.4-.9-.8h0ZM315.5,95.4c.2.4.5.7.7.9s.6.1,1,0c.3-.1.5-.4.6-.7,0-.3,0-.7-.2-1.1s-.5-.7-.7-.8-.6-.1-.9,0c-.3.2-.5.4-.6.7,0,.3,0,.7.2,1.1h0Z"/>
          </g>
        </g>
      </g>
      <g class="st2">
        <g class="st2">
          <g class="st2">
            <path class="st7" d="M319.2,93.6c-.2-.4-.3-.8-.2-1.2s.4-.7.8-1,.8-.3,1.2-.3.8.3,1,.7c.2.4.3.8.2,1.2s-.4.7-.8,1c-.4.3-.8.3-1.2.3s-.8-.3-1-.7h0ZM319.6,93.3c.3.4.5.7.8.8s.6,0,.9-.2c.3-.2.5-.4.5-.7,0-.3,0-.7-.3-1.1-.2-.4-.5-.7-.8-.8-.3-.1-.6,0-.9.1-.3.2-.5.4-.5.8,0,.3,0,.7.3,1.1h0Z"/>
          </g>
        </g>
      </g>
      <g class="st2">
        <g class="st2">
          <g class="st2">
            <path class="st7" d="M326.4,90.4l-.7.5c-.2,0-.5,0-1-.2-.2,0-.3,0-.5-.1s-.3,0-.3,0-.1,0-.2,0h0c0,0,.4.6.4.6.1.2.2.3.3.4,0,0,.1,0,.2,0s.1,0,.2-.1h.1c0,0,0,0,0,0l-1.1.9h0c0,0,0-.1,0-.1.1,0,.2-.1.2-.2,0,0,0-.1,0-.2s-.1-.2-.3-.4l-.9-1.2c-.1-.2-.2-.3-.3-.4s-.1,0-.2,0-.1,0-.3.2h0s0,0,0,0l.3-.3c.2-.2.4-.3.5-.4.2-.2.4-.3.6-.4s.4,0,.5,0,.3.1.4.2c.1.2.2.3.1.5s-.1.4-.4.6c.1,0,.4,0,.9.1.4.1.6.2.8.1.2,0,.3,0,.5-.2h0c0,0,0,0,0,0h0ZM323.7,90.6c0,0,.2-.1.3-.2s.2-.2.2-.2c0,0,0-.2,0-.2s0-.2,0-.2,0-.2-.2-.3c-.1-.2-.3-.3-.4-.3s-.4,0-.7.3c0,0,0,0-.1.1l.8,1.1h0Z"/>
          </g>
        </g>
      </g>
      <g class="st2">
        <g class="st2">
          <g class="st2">
            <path class="st7" d="M328,86.8l-1.1,1.1.5.5c.2.2.3.3.3.3s.1,0,.2,0c0,0,.1,0,.2-.2h0c0,0,0,0,0,0l-1,.9h0c0,0,0-.1,0-.1,0,0,.1-.2.2-.2,0,0,0-.1,0-.2s-.1-.2-.3-.4l-1-1.1c-.2-.2-.3-.3-.3-.3,0,0-.1,0-.2,0,0,0-.1,0-.2.2h0s0,0,0,0l1-.9h0c0,0,0,.1,0,.1-.1.1-.2.2-.2.2,0,0,0,.1,0,.2,0,0,.1.2.3.4l.4.4,1.1-1.1-.4-.4c-.2-.2-.3-.3-.3-.3s-.1,0-.2,0-.1,0-.2.2h0c0,0,0,0,0,0l1-1h0c0,0,0,.1,0,.1-.1.1-.2.2-.2.2s0,.1,0,.2c0,0,.1.2.3.4l1,1.1c.2.2.3.3.3.3s.1,0,.2,0c0,0,.1,0,.2-.2h0c0,0,0,0,0,0l-1,1h0c0,0,0-.1,0-.1,0,0,.1-.2.2-.2s0-.1,0-.2-.1-.2-.3-.4l-.5-.5h0Z"/>
          </g>
        </g>
      </g>
      <g class="st2">
        <g class="st2">
          <g class="st2">
            <path class="st7" d="M329.5,85.3c-.4-.3-.5-.7-.5-1.1,0-.4.1-.8.4-1.2.3-.4.7-.6,1.1-.6.4,0,.8,0,1.2.4.4.3.5.7.6,1.1s-.1.8-.4,1.2c-.3.4-.7.6-1.1.6s-.8,0-1.2-.4h0ZM329.9,85c.4.3.7.5,1,.5s.6-.1.8-.4c.2-.3.3-.5.2-.8,0-.3-.3-.6-.6-.9-.4-.3-.7-.5-1-.5s-.6.1-.8.4c-.2.3-.3.6-.3.9,0,.3.3.6.6.9h0Z"/>
          </g>
        </g>
      </g>
      <g class="st2">
        <g class="st2">
          <g class="st2">
            <path class="st7" d="M332.5,81.8c-.4-.3-.6-.6-.7-1,0-.4,0-.8.3-1.2.3-.4.6-.6,1-.7s.8,0,1.2.3c.4.3.6.6.7,1,0,.4,0,.8-.3,1.2-.3.4-.6.6-1,.7s-.8,0-1.2-.3h0ZM332.8,81.4c.4.3.8.4,1.1.4.3,0,.6-.2.8-.5.2-.3.2-.6.2-.9s-.3-.6-.7-.9-.7-.4-1.1-.4-.6.2-.8.5c-.2.3-.3.6-.2.9s.3.6.7.9h0Z"/>
          </g>
        </g>
      </g>
      <g class="st2">
        <g class="st2">
          <g class="st2">
            <path class="st7" d="M333.7,77.4l.2-.4c.2-.4.3-.6.4-.8.2-.4.4-.7.7-.8.2-.2.5-.2.8-.2s.5,0,.8.2c.2.1.4.2.5.4.1.1.2.3.3.5s0,.3,0,.5,0,.3-.1.4-.1.3-.3.5l-.7,1.2h0c0,0,0-.2,0-.2,0-.1,0-.2,0-.3s0-.1,0-.2-.2-.1-.4-.2l-1.3-.7c-.2-.1-.4-.2-.4-.2,0,0-.1,0-.2,0,0,0-.1.1-.2.2h0c0,0,0,0,0,0h0ZM334.2,76.6l1.8,1c.3.1.4.2.5.3s.2,0,.2,0,.1-.1.2-.3c.1-.2.2-.4.2-.6s0-.4-.2-.6-.3-.4-.6-.5c-.2-.1-.4-.2-.7-.2-.2,0-.4,0-.6,0-.2,0-.3.1-.4.2s-.2.3-.3.5c0,.1-.1.2-.2.3h0s0,0,0,0Z"/>
          </g>
        </g>
      </g>
      <path class="st7" d="M331.7,38.4c-3.1-6.3-8-11.6-13.9-15.4-6.1-3.9-13.2-5.9-20.5-5.9s-14.4,2-20.5,5.9c-6,3.8-10.8,9.1-13.9,15.4l-.8-.4c3.2-6.4,8.1-11.9,14.2-15.7,6.3-3.9,13.5-6,20.9-6s14.7,2.1,20.9,6c6.1,3.8,11,9.3,14.2,15.7l-.8.4h0Z"/>
      <g class="st2">
        <g class="st2">
          <g class="st2">
            <path class="st7" d="M271.4,73.6v.7c0,.3,0,.5,0,.5,0,0,0,.1.1.2s.2,0,.3,0h.1c0,.1-1.6.1-1.6.1h0c0-.1,0-.1,0-.1.2,0,.2,0,.3,0s0,0,.1-.2,0-.3,0-.6v-1.7c0-.3,0-.5,0-.5s0-.1-.1-.2-.2,0-.4,0h0c0-.1.4-.1.4-.1.4,0,.6,0,.8,0,.4,0,.6,0,.8,0s.4.2.5.3.2.3.2.5,0,.4-.1.5-.2.3-.4.3-.4.1-.8.1h-.4,0ZM271.4,73.4h.2c.2,0,.4,0,.5,0s.2-.1.3-.2.1-.3.1-.5c0-.3,0-.5-.2-.6s-.4-.2-.7-.2-.2,0-.3,0v1.6h0Z"/>
            <path class="st7" d="M274.9,71.8h0c0-.1,1.6-.1,1.6-.1h0c0,.1,0,.1,0,.1-.2,0-.3,0-.3,0s0,0-.1.2,0,.3,0,.5v1.7c0,.3,0,.5,0,.5,0,0,0,.1.1.2s.2,0,.3,0h.1c0,.1-1.6.1-1.6.1h0c0-.1.1-.1.1-.1.2,0,.2,0,.3,0s0,0,.1-.2,0-.3,0-.6v-1.7c0-.3,0-.5,0-.5s0-.1-.1-.2-.2,0-.4,0h0Z"/>
            <path class="st7" d="M278.4,75.2h0c0,0,2.3-3.4,2.3-3.4h-1.1c-.2,0-.4,0-.5,0s-.2,0-.2.2-.2.3-.2.5h-.1v-.8h2.7c0,.1-2.2,3.4-2.2,3.4h1.1c.4,0,.6,0,.7,0s.2-.2.3-.3.1-.3.2-.4h.1v.9h-3,0Z"/>
            <path class="st7" d="M283.4,75.2h0c0,0,2.3-3.4,2.3-3.4h-1.1c-.2,0-.4,0-.5,0s-.2,0-.2.2-.2.3-.2.5h-.1v-.8h2.7c0,.1-2.2,3.4-2.2,3.4h1.1c.4,0,.6,0,.7,0s.2-.2.3-.3.1-.3.2-.4h.1v.9h-3,0Z"/>
            <path class="st7" d="M290.4,73.9h-1.3v.2c-.2.3-.3.5-.3.6s0,.2.1.2.2,0,.3,0h0c0,.1-1,.1-1,.1h0c.2-.1.3-.2.4-.3,0,0,.2-.3.3-.5,0,0,0-.1.1-.3l1-2.4h.1l1.2,2.8.2.4c0,0,0,.1.1.2s.2,0,.3,0h0c0,.1-1.4.1-1.4.1h0c.2-.1.3-.1.3-.2,0,0,0,0,0-.1s0-.2-.1-.3l-.3-.7h0q0,0,0,0ZM290.4,73.8l-.6-1.5-.6,1.5h1.2Z"/>
            <path class="st7" d="M296.4,74h1.3v.4h-1.3v-.4Z"/>
          </g>
        </g>
        <g class="st2">
          <g class="st2">
            <path class="st7" d="M303.6,73.6v.7c0,.3,0,.5,0,.5,0,0,0,.1.1.2s.2,0,.3,0h.1c0,.1-1.6.1-1.6.1h0c0-.1,0-.1,0-.1.2,0,.2,0,.3,0s0,0,.1-.2c0,0,0-.3,0-.6v-1.7c0-.3,0-.5,0-.5s0-.1-.1-.2-.2,0-.4,0h0c0-.1.4-.1.4-.1.4,0,.6,0,.8,0,.4,0,.6,0,.8,0s.4.2.5.3.2.3.2.5,0,.4-.1.5-.2.3-.4.3-.4.1-.8.1h-.4,0ZM303.6,73.4h.2c.2,0,.4,0,.5,0s.2-.1.3-.2.1-.3.1-.5c0-.3,0-.5-.2-.6s-.4-.2-.7-.2-.2,0-.3,0v1.6h0Z"/>
          </g>
        </g>
        <g class="st2">
          <g class="st2">
            <path class="st7" d="M308.7,73.9h-1.3v.2c-.2.3-.3.5-.3.6s0,.2.1.2c0,0,.2,0,.3,0h0c0,.1-1,.1-1,.1h0c.2-.1.3-.2.4-.3,0,0,.2-.3.3-.5,0,0,0-.1.1-.3l1-2.4h.1l1.2,2.8.2.4c0,0,0,.1.1.2,0,0,.2,0,.3,0h0c0,.1-1.4.1-1.4.1h0c.2-.1.3-.1.3-.2,0,0,0,0,0-.1s0-.2-.1-.3l-.3-.7h0c0,0,0,0,0,0ZM308.7,73.8l-.6-1.5-.6,1.5h1.2Z"/>
            <path class="st7" d="M311.9,75.2v-1.1h.1c.1.7.5,1.1,1,1.1s.4,0,.6-.2.2-.3.2-.5,0-.3-.2-.4-.3-.2-.7-.4c-.3-.1-.5-.2-.6-.3s-.2-.2-.3-.4-.1-.3-.1-.5c0-.2,0-.5.3-.6s.4-.2.7-.2.3,0,.4,0,.3.1.4.3c0,0,.1-.2.1-.3h.1v.9h-.1c0-.3-.2-.5-.4-.6s-.4-.2-.6-.2-.4,0-.5.2c0,.1-.1.2-.1.4s0,.3.2.4c.1.1.3.2.7.4.3.1.5.2.7.3s.2.2.3.3.1.3.1.5c0,.3-.1.5-.3.7s-.5.3-.8.3-.7-.1-1-.4c0,0-.1.2-.1.3h-.1,0Z"/>
          </g>
        </g>
        <g class="st2">
          <g class="st2">
            <path class="st7" d="M316.3,72.6h-.1v-.8h3.4v.8s0,0,0,0c0-.2,0-.4-.2-.5s-.1-.2-.2-.2-.2,0-.4,0h-.6v2.5c0,.3,0,.5,0,.5s0,.2.1.2.2,0,.3,0h.2c0,.1-1.7.1-1.7.1h0c0-.1.2-.1.2-.1.2,0,.2,0,.3,0s0,0,.1-.2,0-.3,0-.6v-2.5h-.5c-.2,0-.4,0-.5,0s-.2,0-.2.2-.1.3-.2.5h0Z"/>
          </g>
        </g>
        <g class="st2">
          <g class="st2">
            <path class="st7" d="M323.2,73.9h-1.3v.2c-.2.3-.3.5-.3.6s0,.2.1.2c0,0,.2,0,.3,0h0c0,.1-1,.1-1,.1h0c.2-.1.3-.2.4-.3,0,0,.2-.3.3-.5,0,0,0-.1.1-.3l1-2.4h.1l1.2,2.8.2.4c0,0,0,.1.1.2,0,0,.2,0,.3,0h0c0,.1-1.4.1-1.4.1h0c.2-.1.3-.1.3-.2,0,0,0,0,0-.1s0-.2-.1-.3l-.3-.7h0c0,0,0,0,0,0ZM323.1,73.8l-.6-1.5-.6,1.5h1.2Z"/>
          </g>
        </g>
        <g class="st2">
          <g class="st2">
            <path class="st7" d="M285,79.5h1.1c-.1.2-.3.2-.4.3s-.2.3-.3.5c0,.2-.2.4-.2.5.2.3.3.4.4.5.1,0,.2.1.3.1s.3,0,.4-.2h.1c0,.1-.1.3-.2.4s-.2.1-.4.1c-.3,0-.6-.2-.9-.5-.3.3-.6.5-1,.5s-.2,0-.4,0-.2-.1-.3-.2-.2-.2-.2-.3,0-.2,0-.4c0-.2,0-.4.2-.5.1-.1.3-.3.7-.6-.2-.3-.3-.5-.3-.8s0-.3.2-.5c.1-.1.3-.2.5-.2s.4,0,.5.2.2.2.2.4c0,.3-.2.5-.7.8.2.2.3.4.4.6s.3.4.4.6c.1-.1.2-.3.2-.4s0-.3,0-.4c0-.2-.1-.3-.4-.4h0c0-.1,0-.1,0-.1h0ZM283.8,79.7c-.2.1-.3.2-.4.4-.1.1-.1.3-.1.4,0,.2,0,.4.2.6s.4.3.6.3.5-.1.7-.4c-.2-.3-.4-.5-.5-.8s-.3-.4-.4-.6h0ZM284.1,79.4c.3-.2.5-.4.5-.7s0-.1,0-.2,0-.1,0-.1,0,0-.1,0-.1,0-.2,0c-.1,0-.2,0-.3.1s-.1.2-.1.3.1.4.3.7h0Z"/>
            <path class="st7" d="M293.3,81l1.3-2.9h1.1c0,.1-.1.1-.1.1-.2,0-.3,0-.3,0s0,0-.1.2,0,.3,0,.5v1.7c0,.3,0,.5,0,.5,0,0,0,.1.1.2s.2,0,.3,0h.2c0,.1-1.7.1-1.7.1h0c0-.1.1-.1.1-.1.1,0,.2,0,.3,0s0,0,.1-.2,0-.3,0-.6v-2.2l-1.4,3.1h-.1l-1.4-3.1v2c0,.3,0,.5,0,.6s0,.2.2.3.2.1.4.1h0c0,.1-1.3.1-1.3.1h0c.2-.1.3-.2.4-.2s.2-.2.2-.3,0-.3,0-.6v-1.5c0-.3,0-.5,0-.5s0-.1-.1-.2-.2,0-.4,0h0c0-.1,1.1-.1,1.1-.1l1.3,2.9h0s0,0,0,0Z"/>
            <path class="st7" d="M297.6,79.8c0-.5.2-1,.5-1.3s.8-.5,1.4-.5,1,.2,1.4.5.5.8.5,1.3-.2,1-.5,1.3-.8.5-1.4.5-1-.2-1.4-.5-.5-.8-.5-1.3h0ZM298.2,79.8c0,.6.1,1,.3,1.3s.6.4,1,.4.7-.1.9-.4.4-.7.4-1.3-.1-1-.3-1.3-.5-.4-1-.4-.7.1-1,.4-.3.7-.3,1.3h0Z"/>
            <path class="st7" d="M307.1,81.6h-1c-.2-.1-.4-.4-.8-.9-.1-.2-.2-.3-.4-.5-.1-.1-.2-.2-.2-.3s-.1,0-.2,0h-.1v.8c0,.3,0,.5,0,.5,0,0,0,.1.1.2s.2,0,.3,0h.2c0,.1-1.7.1-1.7.1h0c0-.1.1-.1.1-.1.2,0,.2,0,.3,0s0,0,.1-.2,0-.3,0-.6v-1.7c0-.3,0-.5,0-.5s0-.1-.1-.2-.2,0-.4,0h0c0-.1.5-.1.5-.1.3,0,.6,0,.8,0,.3,0,.6,0,.8,0s.4.2.5.3.2.3.2.5,0,.4-.2.6-.4.3-.7.3c.1,0,.4.3.7.8.3.4.5.6.6.7s.3.2.5.2h0c0,.1,0,.1,0,.1h0ZM304.5,79.8h.4c.1,0,.3,0,.4,0s.2,0,.2-.1.1-.1.1-.2,0-.2,0-.4c0-.2,0-.4-.2-.6s-.4-.2-.8-.2-.1,0-.2,0v1.6h0Z"/>
            <path class="st7" d="M311.8,80.5h.1v1.1h-3c0-.1,0-.1,0-.1.2,0,.3,0,.3,0s0-.1,0-.2,0-.2,0-.5v-1.7c0-.3,0-.4,0-.5s0-.1-.1-.2c0,0-.2,0-.3,0h0c0-.1,2.5-.1,2.5-.1v.9c0,0,0,0,0,0,0-.2-.1-.4-.2-.5s-.2-.2-.3-.2-.3,0-.5,0h-.5v1.5h.4c.2,0,.3,0,.4,0s.1,0,.1-.1c0,0,0-.2,0-.4h.1v1.2h-.1c0-.2,0-.3,0-.4s0-.1-.1-.1-.2,0-.3,0h-.4v.8c0,.4,0,.7,0,.7,0,0,.2.1.4.1h.3c.2,0,.3,0,.5,0s.2-.1.3-.3c.1-.1.2-.4.2-.6h0s0,0,0,0Z"/>
          </g>
        </g>
      </g>
      <path class="st7" d="M297.4,105.4c-13.3,0-25.9-5.2-35.3-14.6-9.4-9.4-14.6-22-14.6-35.3s5.2-25.8,14.6-35.3c9.4-9.4,22-14.6,35.3-14.6s25.9,5.2,35.3,14.6c9.4,9.4,14.6,22,14.6,35.3s-5.2,25.9-14.6,35.3-22,14.6-35.3,14.6h0ZM297.4,7.4c-12.9,0-24.9,5-34,14.1-9.1,9.1-14.1,21.2-14.1,34s5,24.9,14.1,34c9.1,9.1,21.2,14.1,34,14.1s24.9-5,34-14.1c9.1-9.1,14.1-21.2,14.1-34s-5-24.9-14.1-34-21.2-14.1-34.1-14.1Z"/>
      <path class="st7" d="M297.4,94.8c-8.6,0-17.1-2.9-23.9-8.2-6.8-5.2-11.8-12.6-14-20.7l.8-.2c2.2,7.9,7.1,15.1,13.7,20.2,6.7,5.2,15,8,23.4,8s16.5-2.7,23.2-7.8c6.5-4.9,11.4-11.9,13.7-19.7l.8.2c-2.4,8-7.3,15.1-14,20.1-6.9,5.2-15.1,8-23.7,8h0s0,0,0,0Z"/>
      <path class="st7" d="M335.8,54.1c-.4-10-4.5-19.3-11.7-26.2-7.2-7-16.7-10.8-26.7-10.8s-17.6,3.1-24.5,8.8c-6.8,5.6-11.5,13.4-13.2,21.9l-.9-.2c1.8-8.7,6.6-16.7,13.5-22.4,7-5.8,15.9-9,25-9s20,3.9,27.3,11c7.4,7.1,11.6,16.6,12,26.8h-.9s0,0,0,0Z"/>
      <g class="st2">
        <g class="st2">
          <g class="st2">
            <path class="st7" d="M276.4,44.1c-.9-.5-1.7-1.1-2.2-2.1s-.8-2.1-.8-3.5.4-3.5,1.3-5.1,2.1-2.9,3.6-3.9,3.2-1.5,5-1.5,1.9.1,2.8.4c.9.3,1.4.7,1.8,1.2-.2.4-.3.9-.4,1.5-.1.6-.2,1.2-.2,1.7h-.6c0-.1,0-.4,0-.8s0-.6-.1-.9c-.1-.7-.4-1.3-.9-1.7s-1.3-.6-2.3-.6c-1.6,0-3.1.5-4.4,1.4s-2.4,2.2-3.1,3.6c-.7,1.5-1.1,3-1.1,4.5s.2,2.1.7,2.9c.5.8,1.1,1.3,1.8,1.7.8.4,1.6.6,2.5.6,1.6,0,3.1-.5,4.5-1.6s2.5-2.5,3.2-4.5c.4,0,.6.3.6.8s-.4,1.7-1.2,2.7-1.9,1.9-3.2,2.6-2.7,1.1-4.1,1.1-2.1-.2-3.1-.7h0Z"/>
            <path class="st7" d="M300.7,39.3c0,.6-.4,1.3-1.2,2.1s-1.7,1.5-2.8,2.1c-1.1.6-2,.9-2.7.9s-1.3-.2-1.8-.5-.9-.8-1.2-1.2-.4-.8-.4-1c.2-.9.5-2.1.8-3.6l.2-1.3c0-.3.3-.6.7-1,.4-.3.8-.6,1.3-.8s.9-.3,1.1-.3.5,0,.8.2.6.4.9.7.4.7.4,1.2-.2,1.1-.5,1.6c-.4.5-.9.9-1.6,1.2s-1.6.5-2.6.5l-.3,1.5c0,.1,0,.4.2.7s.4.6.8.9c.4.3.8.4,1.4.4s1.5-.2,2.3-.7,1.6-1.1,2.2-1.8c.7-.7,1.2-1.4,1.5-2.1.3,0,.4.2.4.5h0s0,0,0,0ZM294,35.9c-.3.2-.5.3-.8.6-.2.2-.4.4-.4.6-.2.7-.3,1.4-.4,2.1,1.2,0,2.1-.3,2.7-.7s.9-.9.9-1.4-.1-.7-.4-1-.5-.4-.8-.4-.4,0-.7.2h0Z"/>
            <path class="st7" d="M309.8,36.3c0,0,0,.2,0,.2,0,.3-.1.6-.4.9s-.7.5-1.2.7-1,.3-1.4.3c-.8,0-1.4-.2-2-.6-.5-.4-.9-1-1-1.7-.7,0-1.3.5-1.9,1.3s-1,1.7-1.2,2.6c0,.2-.1.6-.4,1.4-.2.8-.4,1.7-.6,2.8,0,0,0,0,0,.1,0,0,0,0-.2,0s-.3,0-.5-.1-.3-.2-.3-.3c0-.2,0-.5.1-.8.9-4.3,1.5-7,1.8-8,0-.1,0-.2.1-.3s.1,0,.2,0,.2,0,.4.1c.2.1.4.2.5.3l-.4,1.3v.5c.2-.5.6-1,1.1-1.3s1-.5,1.5-.5.3,0,.5,0,.3,0,.3.1c0,.7.2,1.3.6,1.7.4.4.9.5,1.6.5s1.1-.1,1.6-.3.8-.6,1.1-1.1c0,0,.1,0,.2.1h0Z"/>
            <path class="st7" d="M317.9,39.3c0,.6-.4,1.3-1.2,2.1s-1.7,1.5-2.8,2.1c-1.1.6-2,.9-2.7.9s-1.3-.2-1.8-.5c-.5-.4-.9-.8-1.2-1.2-.3-.4-.4-.8-.4-1,.2-.9.5-2.1.8-3.6l.2-1.3c0-.3.3-.6.7-1,.4-.3.8-.6,1.3-.8.5-.2.9-.3,1.1-.3s.5,0,.8.2.6.4.9.7.4.7.4,1.2-.2,1.1-.5,1.6c-.4.5-.9.9-1.6,1.2s-1.6.5-2.6.5l-.3,1.5c0,.1,0,.4.2.7s.4.6.8.9.8.4,1.4.4,1.5-.2,2.3-.7,1.6-1.1,2.2-1.8c.7-.7,1.2-1.4,1.5-2.1.3,0,.4.2.4.5h0s0,0,0,0ZM311.1,35.9c-.3.2-.5.3-.8.6-.2.2-.4.4-.4.6-.2.7-.3,1.4-.4,2.1,1.2,0,2.1-.3,2.7-.7s.9-.9.9-1.4-.1-.7-.4-1-.5-.4-.8-.4-.4,0-.7.2h0Z"/>
            <path class="st7" d="M315.9,44.1c-.5-.4-.8-.8-.8-1.2s0-.4.2-.6c.1-.2.3-.2.5-.3.2.6.4,1,.8,1.3.4.3.8.4,1.4.4s1.2-.2,1.7-.6.6-.8.6-1.4-.1-.7-.3-1-.5-.6-1-1c-.5-.4-.8-.8-1.1-1.1-.2-.3-.4-.7-.4-1.1s.1-.9.4-1.4c.3-.4.7-.8,1.1-1s1-.4,1.4-.4.8,0,1.2.3c.4.2.6.4.6.8s-.2.6-.5,1c-.2-.4-.4-.6-.7-.8-.3-.2-.6-.3-.9-.3-.5,0-.9.2-1.1.5-.2.4-.4.7-.4,1.1s.1.5.3.8c.2.2.5.5.9.9.5.4.9.8,1.2,1.2.3.4.4.8.4,1.2s-.2,1-.5,1.5c-.3.5-.8.9-1.4,1.3s-1.2.5-1.9.5-1.4-.2-1.9-.5h0Z"/>
          </g>
        </g>
        <g class="st2">
          <g class="st2">
            <path class="st7" d="M254.6,65.7c-.7-.1-1.2-.3-1.6-.5-.2-.5-.3-.9-.4-1.3l.2-.2c.5.5,1.1.9,1.6,1.1s1.2.4,2,.4,1.7-.2,2.4-.5,1.3-.9,1.9-1.8c.6-.9,1-2.1,1.4-3.7l.3-1.2c.5-2.4,1-4.4,1.5-5.9.2-.3.5-.5.8-.7s.6-.3,1-.5h.2c-.4.6-.7,1.4-1.1,2.6s-.7,2.6-1.1,4.3l-.3,1.5c-1.1,4.4-3.4,6.6-6.8,6.6s-1.3,0-2-.2h0,0ZM255.3,56.8c-.6-.9-.8-1.9-.8-2.8s.3-1.8.8-2.5c.6-.8,1.4-1.4,2.6-1.8s2.6-.7,4.2-.7,1.6,0,2.2.1,1.5.2,2.6.4c1.3.3,2.3.4,3,.4s1.3-.1,1.9-.3c.6-.2,1-.6,1.3-1.1-.2.7-.5,1.3-1.1,1.8-.6.5-1.4.7-2.5.7s-1.1,0-1.8-.1-1.6-.2-2.7-.4c-1.1-.2-2-.3-2.7-.4-.7,0-1.3-.1-1.7-.1-.9,0-1.7.2-2.4.5-.7.3-1.4.8-1.8,1.4s-.7,1.3-.7,2.2.3,1.6.8,2.3c.5.7,1.3,1.4,2.4,2.2h0c-.3.1-.6.1-.8.1s-.4,0-.6.1c-.8-.5-1.5-1.2-2.1-2.1h0Z"/>
            <path class="st7" d="M279.8,57.5c0,0,0,.2,0,.2,0,.3-.2.6-.4.9-.3.3-.7.5-1.2.7s-1,.3-1.4.3c-.8,0-1.4-.2-2-.6-.5-.4-.9-1-1-1.7-.7,0-1.3.5-1.9,1.3s-1,1.7-1.2,2.6c0,.2-.1.6-.3,1.4-.2.8-.4,1.7-.6,2.8,0,0,0,0,0,.1,0,0,0,0-.1,0s-.3,0-.5-.1-.3-.2-.3-.3c0-.2,0-.5.1-.8.9-4.3,1.5-7,1.8-8,0-.1,0-.2.1-.3,0,0,.1,0,.2,0s.2,0,.4.1c.2.1.4.2.5.3l-.4,1.3v.5c.2-.5.6-1,1.1-1.3s1-.5,1.5-.5.3,0,.5,0c.2,0,.3,0,.3.1,0,.7.2,1.3.6,1.7s.9.5,1.6.5,1.1-.1,1.6-.3c.4-.2.8-.6,1.1-1.1,0,0,.1,0,.2.1h0Z"/>
            <path class="st7" d="M291,60.8c0,.7-.3,1.4-.9,2.2s-1.4,1.4-2.2,2c-.9.5-1.7.8-2.4.8s-1.1-.2-1.4-.5-.5-.8-.6-1.4c-.4.5-.9,1-1.4,1.4s-1.1.5-1.6.5-.8-.1-1.2-.4-.7-.6-1-1-.4-.8-.4-1.1l1.1-4.6c0-.4.3-.8.7-1.2.4-.4.8-.8,1.4-1,.5-.3,1.1-.4,1.6-.4s1.3.2,1.9.7c.1-.4.2-.6.3-.7s.2-.1.3-.2h1.1c0-.1,0,0,0,0-.3.2-.5.6-.7,1.1-.5,1.8-.8,3.1-1,3.9-.2.8-.3,1.6-.3,2.2s0,1.1.2,1.4.5.4.8.4,1.1-.2,1.7-.6c.7-.4,1.3-1,1.9-1.7s1.1-1.5,1.4-2.4c.2,0,.3.2.3.6h0ZM281.5,64.3c.4-.2.7-.4,1.1-.8s.5-.7.7-1.2l.4-1.9c0-.3.2-.8.3-1.5.2-.7.3-1.2.4-1.6-.4-.4-1-.6-1.6-.6s-.9.1-1.3.4-.7.6-.9.9c-.2.4-.4.7-.5,1l-.9,4.1c0,.4.2.7.5,1,.3.3.6.5.9.5s.6,0,1-.3h0Z"/>
            <path class="st7" d="M305.4,61.8c-.1.6-.5,1.2-1.1,1.8s-1.3,1.1-2.2,1.6-1.7.6-2.5.6-1.5-.3-1.9-.8c-.4-.5-.6-1.3-.6-2.2s0-.4,0-.5c-.6,1-1.4,1.9-2.3,2.5s-1.7,1-2.5,1-1.1-.2-1.4-.7c-.3-.5-.5-1.2-.5-2s.3-2.7.9-5.6h-2.2c-.1,0-.2,0-.3-.2.2-.4.4-.7.5-.9h2.2s1.1-4.9,1.1-4.9c.1-.7.3-1.1.4-1.3s.3-.3.6-.3.4,0,.5.2c0,0,0,.2-.2.5s-.2.6-.3,1c-.3,1.3-.6,2.9-1,4.8h5.7c0,0,1.2-5.3,1.2-5.3,0-.3.2-.6.4-.7s.4-.2.7-.2.3,0,.3.1c0,.1,0,.3-.2.5,0,.2-.2.5-.2.8l-1,4.9h4.1c0,.2,0,.4-.2.5s-.3.2-.5.2h-3.6c-.6,3.1-.9,4.9-.9,5.6s.1,1.3.4,1.7c.3.4.7.5,1.3.5.9,0,1.9-.3,2.8-1,.9-.7,1.8-1.5,2.5-2.6.1.2.1.4.1.5h0ZM298,57.1h-5.7c-.6,3.2-.8,5-.8,5.6s.1,1.1.3,1.5c.2.4.5.6.8.6.5,0,1.1-.3,1.9-.8s1.4-1.3,2-2.3,1-2,1.3-3.1l.3-1.5h0Z"/>
            <path class="st7" d="M316.9,57.9c0,.4-.2.8-.5,1.2-.3.4-.7.7-1.3,1-.5.3-1.1.4-1.7.4s-1.6-.2-2.2-.7c0,.4-.2.9-.4,1.4,0,.2-.1.5-.3,1.2-.2.6-.3,1.1-.3,1.6-.1.2-.3.5-.6.8-.3.3-.7.5-1.1.7s-.9.3-1.3.3-.9-.1-1.4-.4-.8-.6-1.1-1-.4-.9-.4-1.4c.2-.6.4-1.3.5-1.8s.3-1.1.4-1.7l.2-1.1c0-.4.3-.7.6-1,.3-.4.7-.6,1.2-.8.5-.2,1-.3,1.4-.3s.4,0,.8,0c0-.4.1-.6.2-.7.1-.1.3-.2.6-.2s.3,0,.5,0c0,.4-.1.8-.1,1.1,0,.9.3,1.6.8,2.2.5.6,1.3.9,2.2.9s1.3-.2,1.8-.5c.5-.4.9-.9,1.2-1.6.2,0,.2.2.2.5h0s0,0,0,0ZM309.8,61.4c.3-1,.5-1.9.6-2.5-.3-.4-.6-1-.7-1.6,0,0,0-.1,0-.1s0,0-.1,0c-.2,0-.5-.1-.8-.1-.6,0-1.1.2-1.5.5s-.7.7-.8,1.1c0,.2-.2.9-.5,2.2-.1.7-.3,1.5-.5,2.2,0,.6.2,1,.6,1.3s.8.5,1.2.5.8-.1,1.2-.4c.4-.3.7-.5.8-.8.1-.6.3-1.3.5-2.1h0s0,0,0,0Z"/>
            <path class="st7" d="M325.6,57.5c0,0,0,.2,0,.2,0,.3-.1.6-.4.9s-.7.5-1.2.7-1,.3-1.4.3c-.8,0-1.4-.2-2-.6-.5-.4-.9-1-1-1.7-.7,0-1.3.5-1.9,1.3s-1,1.7-1.2,2.6c0,.2-.1.6-.4,1.4-.2.8-.4,1.7-.6,2.8,0,0,0,0,0,.1s0,0-.1,0c-.1,0-.3,0-.5-.1s-.3-.2-.3-.3c0-.2,0-.5.1-.8.9-4.3,1.5-7,1.8-8,0-.1,0-.2.1-.3s.1,0,.2,0,.2,0,.4.1c.2.1.4.2.5.3l-.4,1.3v.5c.2-.5.6-1,1.1-1.3s1-.5,1.5-.5.3,0,.5,0,.3,0,.3.1c0,.7.2,1.3.6,1.7.4.4.9.5,1.6.5s1.1-.1,1.6-.3c.4-.2.8-.6,1.1-1.1,0,0,.1,0,.2.1h0,0Z"/>
            <path class="st7" d="M324.3,65.1c-.4-.4-.6-.9-.6-1.6.2-.7.6-2.4,1.2-4.9.3-1.2.4-2,.5-2.2.2-.3.5-.5.8-.5s.4,0,.4.2c-.1.4-.3,1-.4,1.8s-.3,1.5-.4,2c-.4,1.9-.7,3.1-.8,3.6,0,.4.1.6.3.8.2.2.5.3.8.3.8,0,1.5-.3,2.3-.8s1.4-1.2,2-1.9,1-1.3,1.3-1.9c0,0,.2,0,.2.1,0,0,0,.2,0,.4s0,.5-.2.7c-.8,1.3-1.7,2.3-2.8,3.1s-2,1.2-3.1,1.2-1-.2-1.4-.5h0ZM326.3,52.8c-.1-.1-.2-.3-.2-.6s.1-.6.3-.8c.2-.2.4-.4.8-.4s.4,0,.5.2.2.3.2.5c0,.3-.1.6-.3.8s-.5.4-.8.4-.4,0-.5-.2h0Z"/>
            <path class="st7" d="M343.6,60.8c0,.7-.3,1.4-.9,2.2s-1.4,1.4-2.2,2c-.9.5-1.7.8-2.4.8s-1.1-.2-1.4-.5-.5-.8-.6-1.4c-.4.5-.9,1-1.4,1.4-.6.4-1.1.5-1.6.5s-.8-.1-1.2-.4-.7-.6-1-1-.4-.8-.4-1.1l1.1-4.6c0-.4.3-.8.7-1.2.4-.4.8-.8,1.4-1,.5-.3,1.1-.4,1.6-.4s1.3.2,1.9.7c.1-.4.2-.6.3-.7s.2-.1.3-.2h1.1c0-.1,0,0,0,0-.3.2-.5.6-.7,1.1-.5,1.8-.8,3.1-1,3.9-.2.8-.3,1.6-.3,2.2s0,1.1.2,1.4c.2.3.5.4.8.4s1.1-.2,1.7-.6c.7-.4,1.3-1,1.9-1.7s1.1-1.5,1.4-2.4c.2,0,.3.2.3.6h0ZM334.1,64.3c.4-.2.7-.4,1.1-.8s.5-.7.7-1.2l.4-1.9c0-.3.2-.8.3-1.5.2-.7.3-1.2.4-1.6-.4-.4-1-.6-1.6-.6s-.9.1-1.3.4c-.4.2-.7.6-.9.9s-.4.7-.5,1l-.9,4.1c0,.4.2.7.5,1s.6.5.9.5.6,0,1-.3h0Z"/>
          </g>
        </g>
      </g>
    </g>
  </g>
</svg>