<?xml version="1.0" encoding="UTF-8"?>
<svg id="Layer_1" xmlns="http://www.w3.org/2000/svg" version="1.1" viewBox="0 0 595.3 841.9">
  <!-- Generator: Adobe Illustrator 29.0.1, SVG Export Plug-In . SVG Version: 2.1.0 Build 192)  -->
  <defs>
    <style>
      .st0, .st1, .st2, .st3, .st4, .st5, .st6, .st7, .st8 {
        font-family: Baskerville, Baskerville;
      }

      .st1 {
        font-size: 10px;
      }

      .st1, .st2, .st9, .st3, .st4, .st6, .st10, .st11 {
        fill: #fff;
      }

      .st2, .st9 {
        font-size: 11px;
      }

      .st3 {
        font-size: 15px;
      }

      .st4 {
        font-size: 16px;
      }

      .st12 {
        fill: #1b1b1b;
      }

      .st5, .st13 {
        letter-spacing: 0em;
      }

      .st14 {
        isolation: isolate;
      }

      .st15 {
        letter-spacing: .4em;
      }

      .st16 {
        letter-spacing: .3em;
      }

      .st17 {
        letter-spacing: .3em;
      }

      .st18 {
        letter-spacing: .3em;
      }

      .st19 {
        letter-spacing: .3em;
      }

      .st20 {
        letter-spacing: .3em;
      }

      .st21 {
        letter-spacing: .7em;
      }

      .st22 {
        letter-spacing: .5em;
      }

      .st23 {
        letter-spacing: .5em;
      }

      .st6 {
        font-size: 30px;
      }

      .st7 {
        letter-spacing: .1em;
      }

      .st8, .st24 {
        letter-spacing: .1em;
      }

      .st11 {
        stroke: #fff;
        stroke-miterlimit: 10;
      }

      .st25, .st24 {
        font-family: Baskerville-Bold, Baskerville;
        font-weight: 700;
      }
    </style>
  </defs>
  <rect class="st12" width="595.3" height="841.9"/>
  <g>
    <path class="st10" d="M297.6,93.4c-14.8,0-28.2-8.2-35-21.4l.8-.4c6.6,12.9,19.7,20.9,34.2,20.9s14.4-2,20.5-5.9c6-3.8,10.8-9.1,13.9-15.4l.8.4c-3.2,6.4-8.1,11.9-14.2,15.7-6.3,4-13.5,6-21,6h0Z"/>
    <g class="st14">
      <g class="st14">
        <g class="st14">
          <path class="st10" d="M260.1,32.5h0c0,0,.8.4.8.4l-1.2,2.2h0c0,0,0-.1,0-.1,0-.1.1-.2,0-.3s0-.1,0-.1c0,0-.2-.1-.4-.2l-1.3-.7c-.2-.1-.3-.2-.4-.2,0,0-.1,0-.2,0s-.1.1-.2.2h0c0,0,1-2,1-2l.7.3h0c-.2,0-.4,0-.5,0s-.2,0-.3.1-.1.2-.2.4l-.2.4,1.1.6.2-.3c0-.1.1-.2.1-.3,0,0,0-.1,0-.2s-.1-.1-.2-.2h0c0,0,.9.4.9.4h0c-.1,0-.2,0-.3,0s-.1,0-.2,0c0,0,0,.1-.2.2l-.2.3.6.3c.3.2.5.2.6.2s.2-.1.3-.3v-.2c.2-.1.2-.3.2-.4,0-.1,0-.2,0-.4,0-.1-.2-.3-.4-.4h0Z"/>
        </g>
      </g>
    </g>
    <g class="st14">
      <g class="st14">
        <g class="st14">
          <path class="st10" d="M262.5,28.5l-.7.9v.2c.3.3.4.4.4.5,0,0,.1,0,.2,0,0,0,.1,0,.2-.2h0c0,0-.5.8-.5.8h0c0-.2,0-.3,0-.4,0-.1-.1-.2-.2-.5,0,0,0-.1-.1-.2l-1.2-1.9h0c0,0,2.6.5,2.6.5h.3c0,0,.1,0,.2,0,0,0,.1,0,.2-.2h0c0,0-.7,1-.7,1h0c0-.2.1-.3.1-.3s0-.1,0-.1c0,0-.1,0-.3,0h-.6c0-.1,0-.1,0-.1ZM262.4,28.5l-1.4-.3.7,1.2.6-.9h0Z"/>
        </g>
      </g>
    </g>
    <g class="st14">
      <g class="st14">
        <g class="st14">
          <path class="st10" d="M263.7,25h0c0,0-.5-.4-.5-.4l2-2.2.5.5h0c-.2,0-.3-.1-.4-.1-.1,0-.2,0-.2,0s-.1.1-.3.2l-.3.4,1.6,1.4c.2.2.3.3.4.3s.1,0,.2,0,.1,0,.2-.2h.1c0-.1,0,0,0,0l-1,1.1h0c0,0,.1-.2.1-.2,0,0,.1-.2.1-.2s0-.1,0-.2c0,0-.2-.2-.3-.3l-1.6-1.4-.3.3c-.1.1-.2.2-.2.3s0,.1,0,.2.1.2.2.4h0Z"/>
        </g>
      </g>
    </g>
    <g class="st14">
      <g class="st14">
        <g class="st14">
          <path class="st10" d="M270,18.1l.4-.3c.3-.3.5-.4.7-.5.4-.3.7-.4,1-.4.3,0,.5,0,.8.1.2.1.4.3.6.6.1.2.2.4.3.6s0,.4,0,.5,0,.3-.2.5c0,.1-.2.3-.3.4s-.3.2-.5.4l-1.1.8h0c0,0,.1-.2.1-.2.1,0,.2-.1.2-.2s0-.1,0-.2c0,0-.1-.2-.3-.4l-.8-1.2c-.1-.2-.2-.3-.3-.4,0,0-.1,0-.2,0s-.1,0-.3.1h0c0,0,0,0,0,0h0ZM270.8,17.6l1.2,1.7c.2.2.3.4.4.5,0,0,.1,0,.2,0s.2,0,.3-.2c.2-.2.4-.3.5-.5.1-.2.1-.4.1-.6s-.1-.5-.3-.8c-.2-.2-.3-.4-.5-.5-.2-.1-.3-.2-.5-.2-.2,0-.3,0-.5,0s-.3.1-.5.3c0,0-.2.1-.3.2h0Z"/>
        </g>
      </g>
    </g>
    <g class="st14">
      <g class="st14">
        <g class="st14">
          <path class="st10" d="M279.3,15.9l-.7.4c-.2,0-.5-.2-1-.4s-.3-.1-.4-.2c-.2,0-.2-.1-.3-.1s-.1,0-.2,0h-.1c0,0,.3.7.3.7.1.2.2.4.2.4s.1,0,.2.1c0,0,.2,0,.3,0h.1c0,0,0,0,0,0l-1.3.7h0c0,0,0-.1,0-.1.1,0,.2-.1.2-.2,0,0,0-.1,0-.2s0-.2-.2-.4l-.7-1.3c-.1-.2-.2-.4-.2-.4s0,0-.1,0-.1,0-.3.1h0s0,0,0,0l.4-.2c.2-.1.5-.3.6-.3.2-.1.5-.2.7-.3s.4,0,.5,0,.3.2.4.3c0,.2.1.4,0,.5s-.2.4-.4.5c.1,0,.4,0,.8.3.4.2.6.3.8.3s.3,0,.5,0h0c0,0,0,.1,0,.1ZM276.6,15.5c.1,0,.2-.1.3-.2s.2-.1.2-.2.1-.1.1-.2c0,0,0-.2,0-.2s0-.2-.1-.3c-.1-.2-.2-.3-.4-.4s-.4,0-.7.2c0,0-.1,0-.2,0l.7,1.2h0Z"/>
        </g>
      </g>
    </g>
    <g class="st14">
      <g class="st14">
        <g class="st14">
          <path class="st10" d="M280.5,12.2h0c0,0,1.3-.6,1.3-.6h0c0,0,0,0,0,0-.1,0-.2.1-.3.2s0,0,0,.2c0,0,0,.2.2.5l.5,1.4c0,.2.2.4.2.4,0,0,0,.1.1.1,0,0,.2,0,.3,0h0s0,0,0,0l-1.3.5h0c0,0,0-.1,0-.1.1,0,.2,0,.2-.1s0-.1,0-.2c0,0,0-.2-.2-.5l-.5-1.4c0-.2-.2-.4-.2-.4,0,0,0,0-.1-.1,0,0-.2,0-.3,0h0Z"/>
        </g>
      </g>
    </g>
    <g class="st14">
      <g class="st14">
        <g class="st14">
          <path class="st10" d="M287.8,12.9l-2.8-2.2.5,2c0,.2,0,.3.1.3s0,0,.2.1.2,0,.4,0h0c0,.1-1.1.4-1.1.4h0c.1-.2.2-.2.3-.3,0,0,0-.1,0-.2s0-.2,0-.3l-.4-1.6c0-.2-.1-.4-.2-.4,0,0,0-.1-.1-.1,0,0-.2,0-.3,0h0c0-.1.8-.3.8-.3l2.3,1.8-.5-1.8c0-.1,0-.2-.1-.3,0,0-.1,0-.2,0s-.2,0-.3,0h0c0-.1,1-.4,1-.4h0c0,.1-.2.2-.2.2s0,.1-.1.2c0,0,0,.1,0,.3l.6,2.4h0s0,0,0,0Z"/>
        </g>
      </g>
    </g>
    <g class="st14">
      <g class="st14">
        <g class="st14">
          <path class="st10" d="M291.4,10.7l.8-.9c.2-.2.3-.4.3-.4,0-.1-.1-.2-.3-.2h0c0-.1,1.1-.2,1.1-.2h0c0,.1-.2.1-.3.2s-.2.1-.2.2-.2.2-.4.4l-.5.6,1.3,1c.3.2.5.4.6.4s.2,0,.4,0h0c0,.1-1.6.3-1.6.3h0c0-.1,0-.1,0-.1.2,0,.3,0,.3,0,0,0,0,0,0-.1,0,0-.1-.2-.4-.4l-1-.8-.2.2v.5c.1.2.1.4.1.5s0,.1.1.2.1,0,.3,0h0c0,0-1.4.3-1.4.3h0c0-.1,0-.1,0-.1.1,0,.2,0,.3,0,0,0,0,0,0-.2s0-.2,0-.5l-.2-1.5c0-.2,0-.4,0-.5,0,0,0-.1-.1-.1s-.2,0-.3,0h0c0-.1,1.3-.3,1.3-.3h0c0,.1,0,.1,0,.1-.1,0-.2,0-.3,0,0,0,0,0,0,.1s0,.2,0,.5v.8h.1,0Z"/>
        </g>
      </g>
    </g>
    <g class="st14">
      <g class="st14">
        <g class="st14">
          <path class="st10" d="M302.5,9v.8h-.1c0-.2,0-.3-.1-.4s-.1-.2-.2-.2-.2,0-.4,0h-.6c0,0-.1,1.2-.1,1.2h.3c.2,0,.3,0,.4,0s.1-.2.1-.4h.1v1.1h-.2v-.3c0,0,0-.1-.1-.2s-.1,0-.3,0h-.3s0,.7,0,.7c0,.2,0,.4,0,.5s0,.1,0,.2.1,0,.3,0h.1c0,.1-1.4,0-1.4,0h0c0-.1.1-.1.1-.1.1,0,.2,0,.3,0s0,0,.1-.1c0,0,0-.2,0-.5v-1.5c.1-.2.1-.4.1-.5s0-.1,0-.2-.1,0-.3,0h0c0-.1,2.3,0,2.3,0h0Z"/>
        </g>
      </g>
    </g>
    <g class="st14">
      <g class="st14">
        <g class="st14">
          <path class="st10" d="M307.3,11.9h.1s-.2.9-.2.9l-2.5-.5h0c0-.1,0-.1,0-.1.1,0,.2,0,.3,0s0,0,.1-.1c0,0,0-.2.1-.5l.3-1.5c0-.2,0-.4,0-.5s0-.1,0-.2c0,0-.1,0-.3-.1h0c0-.1,2.2.3,2.2.3v.8h-.2c0-.2,0-.4,0-.5s-.1-.2-.2-.2-.2,0-.4-.1h-.4c0,0-.2,1.2-.2,1.2h.3c.1.1.2.1.3,0,0,0,.1,0,.1,0,0,0,0-.1,0-.3h.1s-.2,1-.2,1h-.1c0-.2,0-.3,0-.4,0,0,0-.1-.1-.1s-.1,0-.3,0h-.3c0,0-.1.6-.1.6,0,.4,0,.6,0,.6,0,0,.1.1.4.2h.2c.2,0,.3,0,.4,0s.2,0,.3-.2.2-.3.3-.5h0Z"/>
        </g>
      </g>
    </g>
    <g class="st14">
      <g class="st14">
        <g class="st14">
          <path class="st10" d="M312.3,13.4h.1s-.4.9-.4.9l-2.4-.8h0c0,0,0,0,0,0,.1,0,.2,0,.3,0,0,0,0,0,.1-.1s0-.2.2-.4l.5-1.4c0-.2.1-.4.1-.4,0,0,0-.1,0-.2,0,0-.1,0-.3-.1h0c0,0,2.1.6,2.1.6l-.2.7h-.1c0-.2,0-.4,0-.5s-.1-.2-.2-.2-.2-.1-.4-.2h-.4c0-.1-.4,1.1-.4,1.1h.3c.1.2.2.2.3.2,0,0,.1,0,.1,0,0,0,0-.1.1-.3h.1s-.3,1-.3,1h-.1c0-.2,0-.3,0-.4s0-.1,0-.1-.1,0-.2-.1h-.3c0-.1-.2.6-.2.6-.1.3-.2.5-.1.6s.1.1.3.2h.2c.2.1.3.1.4.1s.2,0,.4-.1.2-.2.4-.4h0Z"/>
        </g>
      </g>
    </g>
    <g class="st14">
      <g class="st14">
        <g class="st14">
          <path class="st10" d="M317.2,15.5l-.4.8-2.3-1.1h0c0,0,0,0,0,0,.1,0,.2,0,.3,0,0,0,.1,0,.2,0s.1-.2.2-.4l.6-1.3c.1-.2.2-.4.2-.4s0-.1,0-.2c0,0-.1-.1-.2-.2h0s0-.1,0-.1l1.3.6h0c0,0-.1,0-.1,0-.1,0-.2,0-.3,0s-.1,0-.1,0-.1.2-.2.4l-.7,1.4c0,.2-.1.3-.2.4,0,0,0,.1,0,.2s.1.1.3.2h.2c.2.2.3.2.4.2s.2,0,.3,0,.3-.2.4-.4h0s0,0,0,0Z"/>
        </g>
      </g>
    </g>
    <g class="st14">
      <g class="st14">
        <g class="st14">
          <path class="st10" d="M324.2,19.5l1,.8h0c-.1,0-.2,0-.3,0s-.1,0-.2,0-.2.2-.3.4l-.2.3s0,0,0,0c0,0-.2-.1-.4-.2-.3,0-.5-.2-.7-.3-.4-.3-.5-.6-.6-1,0-.4,0-.8.3-1.1s.6-.6,1-.7.8,0,1.2.3c.3.2.5.6.5,1,.1,0,.2-.1.3-.2h0c0,0-.6.9-.6.9h0c.2-.4.2-.6.2-.9s-.2-.5-.4-.7c-.2-.2-.5-.2-.8-.2-.3,0-.6.3-.9.7-.3.4-.5.8-.4,1.1,0,.3.2.5.4.7.1,0,.3.2.4.2.1,0,.3,0,.4,0s.2-.1.3-.2c.1-.1.2-.2.2-.3s0-.1,0-.1c0,0,0-.1-.2-.2h0s0-.1,0-.1h0Z"/>
        </g>
      </g>
    </g>
    <g class="st14">
      <g class="st14">
        <g class="st14">
          <path class="st10" d="M327.5,22c.3-.3.7-.5,1.1-.5.4,0,.8.2,1.1.5s.5.7.5,1.1c0,.4-.1.8-.5,1.1-.3.3-.7.5-1.1.5-.4,0-.8-.2-1.1-.5-.3-.3-.5-.7-.5-1.1,0-.4.2-.8.5-1.1h0ZM327.9,22.3c-.4.3-.5.7-.6,1s0,.6.4.9c.2.2.5.4.8.3s.6-.2,1-.6c.3-.3.5-.7.6-1s0-.6-.3-.9-.5-.4-.8-.3c-.3,0-.6.2-1,.6h0Z"/>
        </g>
      </g>
    </g>
    <g class="st14">
      <g class="st14">
        <g class="st14">
          <path class="st10" d="M331.7,26.5c.4-.3.8-.4,1.2-.3.4,0,.8.3,1,.7.3.4.4.8.4,1.2,0,.4-.2.8-.6,1.1-.4.3-.8.4-1.2.3s-.8-.3-1.1-.7c-.3-.4-.4-.8-.4-1.2s.3-.8.7-1.1h0ZM332,26.9c-.4.3-.6.6-.7.9s0,.6.2.9c.2.3.5.4.8.4s.7-.1,1.1-.4c.4-.3.6-.6.7-.9,0-.3,0-.6-.2-.9-.2-.3-.5-.4-.8-.5s-.7.1-1,.4h0Z"/>
        </g>
      </g>
    </g>
    <g class="st14">
      <g class="st14">
        <g class="st14">
          <path class="st10" d="M336.5,30.8l.3.4c.2.4.4.6.4.7.2.4.3.7.3,1s0,.5-.2.8c-.1.2-.4.4-.6.5-.2.1-.4.2-.6.2s-.4,0-.5,0c-.2,0-.3-.1-.4-.2s-.2-.2-.3-.3c0-.1-.2-.3-.3-.5l-.7-1.2h0c0,0,0,0,0,0,0,.1.1.2.2.2,0,0,.1,0,.2,0,0,0,.2,0,.4-.2l1.3-.7c.2-.1.4-.2.4-.2s0-.1,0-.1,0-.1-.1-.3h0c0,0,0-.1,0-.1h0ZM336.9,31.6l-1.8,1c-.3.1-.4.2-.5.3s-.1.1-.1.2,0,.2.1.3c.1.2.3.4.4.5.1.1.3.2.6.2.2,0,.5,0,.8-.2.2-.1.4-.3.5-.4s.2-.3.3-.5c0-.2,0-.3,0-.5s-.1-.3-.2-.5c0-.1-.1-.2-.2-.3h0Z"/>
        </g>
      </g>
    </g>
    <g class="st14">
      <g class="st14">
        <g class="st14">
          <path class="st10" d="M259.9,73.4h0c0,0,.7,1.2.7,1.2h0c0,0,0,0,0,0,0-.1-.1-.2-.2-.2,0,0-.1,0-.2,0,0,0-.2,0-.4.2l-1.3.7c-.2.1-.4.2-.4.2,0,0,0,0-.1.2,0,0,0,.2,0,.3h0c0,0,0,.1,0,.1l-.7-1.2h0c0,0,0,0,0,0,0,.1.1.2.2.2,0,0,.1,0,.2,0,0,0,.2,0,.4-.2l1.3-.7c.2-.1.4-.2.4-.2,0,0,0,0,0-.1s0-.1-.1-.3h0c0,0,0,0,0,0Z"/>
        </g>
      </g>
    </g>
    <g class="st14">
      <g class="st14">
        <g class="st14">
          <path class="st10" d="M259.9,79.4l1.3-3.3-1.8,1.1c-.1,0-.2.2-.3.2s0,.1,0,.2,0,.2.1.4h0c0,0-.6-.9-.6-.9h0c0,0,.2.1.2.2,0,0,.1,0,.2,0,0,0,.2,0,.3-.2l1.4-.9c.2-.1.3-.2.4-.3s0-.1,0-.2,0-.1-.1-.3h0c0,0,.5.7.5.7l-1,2.8,1.5-1c.1,0,.2-.1.2-.2s0-.1,0-.2c0,0,0-.2-.1-.3h0c0,0,.6.9.6.9h0c0,0-.2-.1-.2-.2s-.1,0-.2,0-.1,0-.2.1l-2.1,1.3h0c0,0,0,0,0,0Z"/>
        </g>
      </g>
    </g>
    <g class="st14">
      <g class="st14">
        <g class="st14">
          <path class="st10" d="M264.2,82.7l1.1-.2c.2,0,.3,0,.4-.1,0,0,0,0,0-.2,0,0,0-.2-.1-.3h0c0,0,.7.7.7.7h0c-.1,0-.2,0-.3,0-.1,0-.3,0-.5,0l-1.3.2-.3.3c-.2.2-.3.3-.4.3,0,0,0,.1,0,.2s0,.1.2.3h0c0,0-.8-.9-.8-.9h0c0,0,0,0,0,0,0,.1.2.2.2.2,0,0,.1,0,.2,0,0,0,.2-.1.4-.3l.3-.2.5-1.4c0-.3.1-.5.1-.5s0-.2-.1-.3h0c0,0,.8.9.8.9h0c-.1-.1-.3-.2-.3,0,0,0,0,.1-.1.2l-.4,1.3h0Z"/>
        </g>
      </g>
    </g>
    <g class="st14">
      <g class="st14">
        <g class="st14">
          <path class="st10" d="M265.8,84.2c.3-.3.7-.5,1.1-.5.4,0,.8.2,1.1.5.3.3.5.7.5,1.1s-.1.8-.5,1.1-.7.5-1.1.5-.8-.2-1.2-.5c-.3-.3-.5-.7-.5-1.1,0-.4.1-.8.5-1.1h0ZM266.1,84.5c-.3.4-.5.7-.6,1,0,.3,0,.6.4.9.2.2.5.3.8.3.3,0,.6-.2,1-.6.3-.3.5-.7.5-1,0-.3,0-.6-.3-.9s-.5-.4-.9-.3-.6.2-1,.6h0Z"/>
        </g>
      </g>
    </g>
    <g class="st14">
      <g class="st14">
        <g class="st14">
          <path class="st10" d="M271.7,87.5l.8.6h0c-.1,0-.2,0-.3,0s-.2,0-.2,0-.1.1-.2.3l-.6.8c-.2.2-.3.4-.4.4s-.2.1-.4.2c-.1,0-.3,0-.5,0-.2,0-.4-.2-.5-.3-.2-.2-.4-.4-.5-.5s-.1-.4,0-.5.1-.3.3-.5l.2-.2.6-.7c.2-.2.2-.3.3-.4s0-.1,0-.2,0-.1-.2-.2h0s0-.1,0-.1l1.1.9h0c0,0,0,0,0,0-.1,0-.2-.1-.2-.2,0,0-.1,0-.2,0s-.2.2-.3.4l-.6.7c-.2.3-.3.5-.4.6,0,.1,0,.3,0,.4s.2.3.4.5c.1.1.3.2.5.2.2,0,.3,0,.4,0,.1,0,.2,0,.3-.2,0,0,.2-.2.3-.4l.7-.8c.1-.1.2-.2.2-.3,0,0,0-.1,0-.2,0,0,0-.2-.2-.2h0c0,0,0,0,0,0Z"/>
        </g>
      </g>
    </g>
    <g class="st14">
      <g class="st14">
        <g class="st14">
          <path class="st10" d="M274.3,93l-.7-.4c0-.2-.1-.5-.1-1,0-.2,0-.3,0-.5,0-.2,0-.3,0-.3s0,0-.1-.1h-.1c0,0-.4.5-.4.5-.1.2-.2.3-.2.4s0,.1,0,.2,0,.1.2.2h.1c0,0,0,.2,0,.2l-1.2-.8h0c0,0,0,0,0,0,.1,0,.2.1.2.1s.1,0,.2,0c0,0,.1-.2.3-.4l.8-1.3c.1-.2.2-.3.2-.4,0,0,0-.1,0-.2s-.1-.1-.2-.2h0s0-.1,0-.1l.4.2c.2.1.4.3.6.4.2.2.4.3.5.5s.2.3.2.5c0,.2,0,.3-.1.5-.1.2-.3.3-.5.3s-.4,0-.7-.1c0,.1.1.4.2.9,0,.4,0,.7.1.8s.2.3.3.4h0ZM273.2,90.4c0,0,.2.1.3.2s.2.1.3.1.2,0,.2,0,.1,0,.2-.1c0,0,.1-.1.2-.2.1-.2.2-.4.1-.5s-.2-.4-.5-.5c0,0-.1,0-.2,0l-.8,1.2h0Z"/>
        </g>
      </g>
    </g>
    <g class="st14">
      <g class="st14">
        <g class="st14">
          <path class="st10" d="M277.8,93.2c.2-.4.5-.7.9-.8s.8,0,1.3.1c.4.2.7.5.9.9s.2.8,0,1.2c-.2.4-.5.7-.9.8s-.8.1-1.3-.1c-.4-.2-.7-.5-.9-.9-.2-.4-.1-.8,0-1.3h0ZM278.2,93.4c-.2.4-.3.8-.2,1.1,0,.3.3.5.6.7.3.1.6.1.9,0s.5-.4.7-.9c.2-.4.3-.8.2-1.1s-.3-.5-.6-.7-.6-.2-.9,0c-.3.1-.5.4-.7.9h0Z"/>
        </g>
      </g>
    </g>
    <g class="st14">
      <g class="st14">
        <g class="st14">
          <path class="st10" d="M284.1,97.4h0s0-2.7,0-2.7l-1.6,2.1h-.1s0-2.5,0-2.5v-.5c0,0,0-.1,0-.2s-.1,0-.2-.1h0c0,0,1.1.3,1.1.3h0c-.1,0-.2,0-.3,0,0,0,0,0,0,.1,0,0,0,.2,0,.4v1.9c0,0,1.5-2.1,1.5-2.1h.1s0,2.6,0,2.6l1-1.4c.1-.2.2-.3.2-.4,0-.2,0-.3-.2-.4h0c0,0,.8.2.8.2h0c-.1,0-.2,0-.3.1,0,0-.2.2-.4.5l-1.4,2h0Z"/>
        </g>
      </g>
    </g>
    <g class="st14">
      <g class="st14">
        <g class="st14">
          <path class="st10" d="M289,98.7l-1.5-3.2-.4,2.1c0,.2,0,.3,0,.3s0,.1.1.2c0,0,.2.1.3.1h0c0,.1-1.1-.1-1.1-.1h0c.2,0,.3-.1.4-.1,0,0,.1,0,.2-.1,0,0,0-.2,0-.3l.3-1.6c0-.2,0-.4,0-.5s0-.1,0-.2-.1,0-.3-.1h0c0-.1.9,0,.9,0l1.3,2.7.4-1.8c0-.1,0-.2,0-.3,0,0,0-.1-.1-.2,0,0-.2,0-.3-.1h0c0-.1,1.1.1,1.1.1h0c-.1.1-.2.1-.3.1s-.1,0-.2.1c0,0,0,.1,0,.3l-.5,2.5h0s0,0,0,0Z"/>
        </g>
      </g>
    </g>
    <g class="st14">
      <g class="st14">
        <g class="st14">
          <path class="st10" d="M295.4,99.4l-1.9-3-.2,2.1v.4c0,0,0,.1.1.2,0,0,.2,0,.4,0h0c0,.1-1.1,0-1.1,0h0c.2-.1.3-.1.3-.2,0,0,.1,0,.1-.1,0,0,0-.2,0-.4v-1.6c.1-.2.1-.4.1-.5,0,0,0-.1,0-.2,0,0-.2,0-.3,0h0c0-.1.9,0,.9,0l1.6,2.5v-1.8c.1-.1.1-.2.1-.3s0-.1-.2-.1-.2,0-.3,0h0c0-.1,1.1,0,1.1,0h0c-.1.1-.2.1-.3.2s-.1,0-.2.1c0,0,0,.1,0,.3l-.2,2.5h0,0Z"/>
        </g>
      </g>
    </g>
    <g class="st14">
      <g class="st14">
        <g class="st14">
          <path class="st10" d="M299.6,98.4h.1v.9c0,0-2.6,0-2.6,0h0c0-.1,0-.1,0-.1.2,0,.2,0,.3,0,0,0,0,0,0-.2s0-.2,0-.5v-1.5c0-.2,0-.4,0-.5s0-.1,0-.2-.1,0-.3,0h0c0-.1,2.2-.1,2.2-.1v.8c0,0,0,0,0,0,0-.2-.1-.4-.2-.4s-.2-.1-.2-.2c0,0-.2,0-.5,0h-.4v1.3h.3c.1,0,.2,0,.3,0s0,0,.1-.1,0-.2,0-.3h.1v1s0,0,0,0c0-.2,0-.3,0-.3,0,0,0,0-.1-.1,0,0-.1,0-.3,0h-.3v.7c0,.4,0,.6,0,.6,0,0,.2,0,.4,0h.2c.2,0,.3,0,.4,0s.2-.1.3-.3c0-.1.2-.3.2-.5h0Z"/>
        </g>
      </g>
    </g>
    <g class="st14">
      <g class="st14">
        <g class="st14">
          <path class="st10" d="M300.6,96.4h0c0-.1,1.4-.2,1.4-.2h0c0,.1,0,.1,0,.1-.1,0-.2,0-.3,0s0,0,0,.1c0,0,0,.2,0,.5v1.5c.1.2.2.4.2.5,0,0,0,.1.1.2s.1,0,.3,0h0c0,0-1.4.2-1.4.2h0c0-.1,0-.1,0-.1.1,0,.2,0,.3,0s0,0,0-.2c0,0,0-.2,0-.5v-1.5c-.1-.2-.2-.4-.2-.5s0-.1-.1-.1c0,0-.2,0-.3,0h0Z"/>
        </g>
      </g>
    </g>
    <g class="st14">
      <g class="st14">
        <g class="st14">
          <path class="st10" d="M305.2,97.4l1.3-.2h0c-.1.1-.2.2-.3.2s0,0,0,.2,0,.2,0,.5v.3s0,0,0,0c-.1,0-.3,0-.4.2-.2.1-.5.2-.7.3-.4,0-.8,0-1.1-.2s-.5-.6-.6-1c0-.4,0-.8.2-1.2s.6-.6,1-.7c.4,0,.8,0,1.1.3,0-.1,0-.2,0-.4h.1l.2,1h-.1c0-.3-.2-.5-.5-.7s-.5-.2-.7-.2c-.3,0-.5.2-.7.4s-.2.6-.1,1.2.2.9.5,1.1.5.3.8.2c.2,0,.3,0,.4-.2s.2-.2.2-.3,0-.2,0-.4c0-.2,0-.3,0-.3s0,0-.1,0h-.3c0,0,0,0,0,0Z"/>
        </g>
      </g>
    </g>
    <g class="st14">
      <g class="st14">
        <g class="st14">
          <path class="st10" d="M309.9,96.1l-1.5.4.2.7c0,.2.1.4.1.4,0,0,0,.1.1.1,0,0,.2,0,.3,0h0s0,0,0,0l-1.3.4h0c0-.1,0-.1,0-.1.1,0,.2,0,.2-.1s0-.1,0-.2,0-.2-.1-.5l-.4-1.4c0-.2-.1-.4-.1-.4,0,0,0-.1-.1-.1,0,0-.2,0-.3,0h0c0,0,1.3-.4,1.3-.4h0c0,.1,0,.1,0,.1-.1,0-.2,0-.3.1,0,0,0,0,0,.2s0,.2.1.5l.2.6,1.5-.4-.2-.6c0-.2-.1-.4-.1-.4,0,0,0-.1-.1-.1s-.2,0-.3,0h0s0,0,0,0l1.3-.4h0c0,.1,0,.1,0,.1-.1,0-.2,0-.3.1s0,0,0,.2,0,.2.1.5l.4,1.4c0,.2.1.4.1.4,0,0,0,.1.1.1,0,0,.2,0,.3,0h0c0,0-1.3.5-1.3.5h0c0-.1,0-.1,0-.1.1,0,.2,0,.2-.1,0,0,0-.1,0-.2s0-.2-.1-.5l-.2-.7h0Z"/>
        </g>
      </g>
    </g>
    <g class="st14">
      <g class="st14">
        <g class="st14">
          <path class="st10" d="M313.2,94.9c.3,0,.6-.1.8,0s.4.2.4.4c0,.2,0,.4,0,.5,0,.2-.2.3-.3.4s-.4.2-.6.3l-1.1.4h0c0,0,.1-.1.1-.1.1,0,.2,0,.2-.1,0,0,0-.1,0-.2,0,0,0-.2-.2-.5l-.5-1.4c0-.2-.2-.4-.2-.4s0,0-.1-.1c0,0-.2,0-.3,0h0s0,0,0,0l.5-.2.5-.2c.8-.3,1.3-.2,1.4.2,0,.2,0,.4,0,.5,0,.2-.3.3-.5.5h0ZM312.6,95.1s0,0,0,0c.3-.1.5-.2.6-.4,0-.1,0-.3,0-.5,0-.1-.1-.2-.2-.3s-.2-.1-.3-.1-.3,0-.5.1c0,0-.1,0-.2,0l.4,1.2h0ZM312.7,95.2l.2.6c.1.3.2.4.2.5s0,.1.1.1.1,0,.3,0c.2,0,.4-.2.4-.4,0-.2,0-.4,0-.6,0-.2-.2-.4-.4-.4-.2,0-.4,0-.7,0,0,0-.1,0-.2,0h0Z"/>
        </g>
      </g>
    </g>
    <g class="st14">
      <g class="st14">
        <g class="st14">
          <path class="st10" d="M315.3,94.2c-.2-.4-.2-.8,0-1.2.2-.4.4-.7.9-.9s.8-.3,1.3-.1c.4.1.7.4.9.8.2.4.2.8,0,1.2s-.4.7-.9.9-.8.2-1.3.1c-.4-.1-.7-.4-.9-.8h0ZM315.8,93.9c.2.4.5.7.7.9s.6.1,1,0c.3-.1.5-.4.6-.7,0-.3,0-.7-.2-1.1s-.5-.7-.7-.8-.6-.1-.9,0c-.3.2-.5.4-.6.7,0,.3,0,.7.2,1.1h0Z"/>
        </g>
      </g>
    </g>
    <g class="st14">
      <g class="st14">
        <g class="st14">
          <path class="st10" d="M319.4,92.1c-.2-.4-.3-.8-.2-1.2s.4-.7.8-1,.8-.3,1.2-.3.8.3,1,.7c.2.4.3.8.2,1.2s-.4.7-.8,1c-.4.3-.8.3-1.2.3s-.8-.3-1-.7h0ZM319.9,91.8c.3.4.5.7.8.8s.6,0,.9-.2c.3-.2.5-.4.5-.7,0-.3,0-.7-.3-1.1-.2-.4-.5-.7-.8-.8-.3-.1-.6,0-.9.1-.3.2-.5.4-.5.8,0,.3,0,.7.3,1.1h0Z"/>
        </g>
      </g>
    </g>
    <g class="st14">
      <g class="st14">
        <g class="st14">
          <path class="st10" d="M326.7,88.9l-.7.5c-.2,0-.5,0-1-.2-.2,0-.3,0-.5-.1s-.3,0-.3,0-.1,0-.2,0h0c0,0,.4.6.4.6.1.2.2.3.3.4,0,0,.1,0,.2,0s.1,0,.2-.1h.1c0,0,0,0,0,0l-1.1.9h0c0,0,0-.1,0-.1.1,0,.2-.1.2-.2,0,0,0-.1,0-.2s-.1-.2-.3-.4l-.9-1.2c-.1-.2-.2-.3-.3-.4s-.1,0-.2,0-.1,0-.3.2h0s0,0,0,0l.3-.3c.2-.2.4-.3.5-.4.2-.2.4-.3.6-.4s.4,0,.5,0,.3.1.4.2c.1.2.2.3.1.5s-.1.4-.4.6c.1,0,.4,0,.9.1.4.1.6.2.8.1.2,0,.3,0,.5-.2h0c0,0,0,.1,0,.1ZM323.9,89.1c0,0,.2-.1.3-.2s.2-.2.2-.2c0,0,0-.2,0-.2s0-.2,0-.2,0-.2-.2-.3c-.1-.2-.3-.3-.4-.3s-.4,0-.7.3c0,0,0,0-.1.1l.8,1.1h0Z"/>
        </g>
      </g>
    </g>
    <g class="st14">
      <g class="st14">
        <g class="st14">
          <path class="st10" d="M328.3,85.4l-1.1,1.1.5.5c.2.2.3.3.3.3s.1,0,.2,0c0,0,.1,0,.2-.2h0c0,0,0,0,0,0l-1,.9h0c0,0,0-.1,0-.1,0,0,.1-.2.2-.2,0,0,0-.1,0-.2s-.1-.2-.3-.4l-1-1.1c-.2-.2-.3-.3-.3-.3,0,0-.1,0-.2,0,0,0-.1,0-.2.2h0s0,0,0,0l1-.9h0c0,0,0,.1,0,.1-.1.1-.2.2-.2.2,0,0,0,.1,0,.2,0,0,.1.2.3.4l.4.4,1.1-1.1-.4-.4c-.2-.2-.3-.3-.3-.3s-.1,0-.2,0-.1,0-.2.2h0c0,0,0,0,0,0l1-1h0c0,0,0,.1,0,.1-.1.1-.2.2-.2.2s0,.1,0,.2c0,0,.1.2.3.4l1,1.1c.2.2.3.3.3.3s.1,0,.2,0c0,0,.1,0,.2-.2h0c0,0,0,0,0,0l-1,1h0c0,0,0-.1,0-.1,0,0,.1-.2.2-.2s0-.1,0-.2-.1-.2-.3-.4l-.5-.5h0Z"/>
        </g>
      </g>
    </g>
    <g class="st14">
      <g class="st14">
        <g class="st14">
          <path class="st10" d="M329.7,83.8c-.4-.3-.5-.7-.5-1.1,0-.4.1-.8.4-1.2.3-.4.7-.6,1.1-.6.4,0,.8,0,1.2.4.4.3.5.7.6,1.1s-.1.8-.4,1.2c-.3.4-.7.6-1.1.6s-.8,0-1.2-.4h0ZM330.1,83.5c.4.3.7.5,1,.5s.6-.1.8-.4c.2-.3.3-.5.2-.8,0-.3-.3-.6-.6-.9-.4-.3-.7-.5-1-.5s-.6.1-.8.4c-.2.3-.3.6-.3.9,0,.3.3.6.6.9h0Z"/>
        </g>
      </g>
    </g>
    <g class="st14">
      <g class="st14">
        <g class="st14">
          <path class="st10" d="M332.7,80.3c-.4-.3-.6-.6-.7-1,0-.4,0-.8.3-1.2.3-.4.6-.6,1-.7s.8,0,1.2.3c.4.3.6.6.7,1,0,.4,0,.8-.3,1.2-.3.4-.6.6-1,.7s-.8,0-1.2-.3h0ZM333,79.9c.4.3.8.4,1.1.4.3,0,.6-.2.8-.5.2-.3.2-.6.2-.9s-.3-.6-.7-.9-.7-.4-1.1-.4-.6.2-.8.5c-.2.3-.3.6-.2.9s.3.6.7.9h0Z"/>
        </g>
      </g>
    </g>
    <g class="st14">
      <g class="st14">
        <g class="st14">
          <path class="st10" d="M333.9,75.9l.2-.4c.2-.4.3-.6.4-.8.2-.4.4-.7.7-.8.2-.2.5-.2.8-.2s.5,0,.8.2c.2.1.4.2.5.4.1.1.2.3.3.5s0,.3,0,.5,0,.3-.1.4-.1.3-.3.5l-.7,1.2h0c0,0,0-.2,0-.2,0-.1,0-.2,0-.3s0-.1,0-.2-.2-.1-.4-.2l-1.3-.7c-.2-.1-.4-.2-.4-.2,0,0-.1,0-.2,0,0,0-.1.1-.2.2h0c0,0,0,0,0,0h0ZM334.4,75.1l1.8,1c.3.1.4.2.5.3s.2,0,.2,0,.1-.1.2-.3c.1-.2.2-.4.2-.6s0-.4-.2-.6-.3-.4-.6-.5c-.2-.1-.4-.2-.7-.2-.2,0-.4,0-.6,0-.2,0-.3.1-.4.2s-.2.3-.3.5c0,.1-.1.2-.2.3h0Z"/>
        </g>
      </g>
    </g>
    <path class="st10" d="M332,36.9c-3.1-6.3-8-11.6-13.9-15.4-6.1-3.9-13.2-5.9-20.5-5.9s-14.4,2-20.5,5.9c-6,3.8-10.8,9.1-13.9,15.4l-.8-.4c3.2-6.4,8.1-11.9,14.2-15.7,6.3-3.9,13.5-6,20.9-6s14.7,2.1,20.9,6c6.1,3.8,11,9.3,14.2,15.7l-.8.4h0Z"/>
    <g class="st14">
      <g class="st14">
        <g class="st14">
          <path class="st10" d="M271.7,72.1v.7c0,.3,0,.5,0,.5,0,0,0,.1.1.2s.2,0,.3,0h.1c0,.1-1.6.1-1.6.1h0c0-.1,0-.1,0-.1.2,0,.2,0,.3,0s0,0,.1-.2,0-.3,0-.6v-1.7c0-.3,0-.5,0-.5s0-.1-.1-.2-.2,0-.4,0h0c0-.1.4-.1.4-.1.4,0,.6,0,.8,0,.4,0,.6,0,.8,0s.4.2.5.3.2.3.2.5,0,.4-.1.5-.2.3-.4.3-.4.1-.8.1h-.4,0ZM271.7,72h.2c.2,0,.4,0,.5,0s.2-.1.3-.2.1-.3.1-.5c0-.3,0-.5-.2-.6s-.4-.2-.7-.2-.2,0-.3,0v1.6h0Z"/>
          <path class="st10" d="M275.2,70.3h0c0-.1,1.6-.1,1.6-.1h0c0,.1,0,.1,0,.1-.2,0-.3,0-.3,0s0,0-.1.2,0,.3,0,.5v1.7c0,.3,0,.5,0,.5,0,0,0,.1.1.2s.2,0,.3,0h.1c0,.1-1.6.1-1.6.1h0c0-.1.1-.1.1-.1.2,0,.2,0,.3,0s0,0,.1-.2,0-.3,0-.6v-1.7c0-.3,0-.5,0-.5s0-.1-.1-.2-.2,0-.4,0h0Z"/>
          <path class="st10" d="M278.6,73.7h0c0,0,2.3-3.4,2.3-3.4h-1.1c-.2,0-.4,0-.5,0s-.2,0-.2.2-.2.3-.2.5h-.1v-.8h2.7c0,.1-2.2,3.4-2.2,3.4h1.1c.4,0,.6,0,.7,0s.2-.2.3-.3.1-.3.2-.4h.1v.9h-3,0Z"/>
          <path class="st10" d="M283.6,73.7h0c0,0,2.3-3.4,2.3-3.4h-1.1c-.2,0-.4,0-.5,0s-.2,0-.2.2-.2.3-.2.5h-.1v-.8h2.7c0,.1-2.2,3.4-2.2,3.4h1.1c.4,0,.6,0,.7,0s.2-.2.3-.3.1-.3.2-.4h.1v.9h-3,0Z"/>
          <path class="st10" d="M290.7,72.4h-1.3v.2c-.2.3-.3.5-.3.6s0,.2.1.2.2,0,.3,0h0c0,.1-1,.1-1,.1h0c.2-.1.3-.2.4-.3,0,0,.2-.3.3-.5,0,0,0-.1.1-.3l1-2.4h.1l1.2,2.8.2.4c0,0,0,.1.1.2s.2,0,.3,0h0c0,.1-1.4.1-1.4.1h0c.2-.1.3-.1.3-.2,0,0,0,0,0-.1s0-.2-.1-.3l-.3-.7h0ZM290.6,72.3l-.6-1.5-.6,1.5h1.2Z"/>
          <path class="st10" d="M296.7,72.5h1.3v.4h-1.3v-.4Z"/>
        </g>
      </g>
      <g class="st14">
        <g class="st14">
          <path class="st10" d="M303.8,72.1v.7c0,.3,0,.5,0,.5,0,0,0,.1.1.2s.2,0,.3,0h.1c0,.1-1.6.1-1.6.1h0c0-.1,0-.1,0-.1.2,0,.2,0,.3,0s0,0,.1-.2c0,0,0-.3,0-.6v-1.7c0-.3,0-.5,0-.5s0-.1-.1-.2-.2,0-.4,0h0c0-.1.4-.1.4-.1.4,0,.6,0,.8,0,.4,0,.6,0,.8,0s.4.2.5.3.2.3.2.5,0,.4-.1.5-.2.3-.4.3-.4.1-.8.1h-.4,0ZM303.8,72h.2c.2,0,.4,0,.5,0s.2-.1.3-.2.1-.3.1-.5c0-.3,0-.5-.2-.6s-.4-.2-.7-.2-.2,0-.3,0v1.6h0Z"/>
        </g>
      </g>
      <g class="st14">
        <g class="st14">
          <path class="st10" d="M309,72.4h-1.3v.2c-.2.3-.3.5-.3.6s0,.2.1.2c0,0,.2,0,.3,0h0c0,.1-1,.1-1,.1h0c.2-.1.3-.2.4-.3,0,0,.2-.3.3-.5,0,0,0-.1.1-.3l1-2.4h.1l1.2,2.8.2.4c0,0,0,.1.1.2,0,0,.2,0,.3,0h0c0,.1-1.4.1-1.4.1h0c.2-.1.3-.1.3-.2,0,0,0,0,0-.1s0-.2-.1-.3l-.3-.7h0ZM308.9,72.3l-.6-1.5-.6,1.5h1.2Z"/>
          <path class="st10" d="M312.2,73.7v-1.1h.1c.1.7.5,1.1,1,1.1s.4,0,.6-.2.2-.3.2-.5,0-.3-.2-.4-.3-.2-.7-.4c-.3-.1-.5-.2-.6-.3s-.2-.2-.3-.4-.1-.3-.1-.5c0-.2,0-.5.3-.6s.4-.2.7-.2.3,0,.4,0,.3.1.4.3c0,0,.1-.2.1-.3h.1v.9h-.1c0-.3-.2-.5-.4-.6s-.4-.2-.6-.2-.4,0-.5.2c0,.1-.1.2-.1.4s0,.3.2.4c.1.1.3.2.7.4.3.1.5.2.7.3s.2.2.3.3.1.3.1.5c0,.3-.1.5-.3.7s-.5.3-.8.3-.7-.1-1-.4c0,0-.1.2-.1.3h-.1,0Z"/>
        </g>
      </g>
      <g class="st14">
        <g class="st14">
          <path class="st10" d="M316.6,71.1h-.1v-.8h3.4v.8s0,0,0,0c0-.2,0-.4-.2-.5s-.1-.2-.2-.2-.2,0-.4,0h-.6v2.5c0,.3,0,.5,0,.5s0,.2.1.2.2,0,.3,0h.2c0,.1-1.7.1-1.7.1h0c0-.1.2-.1.2-.1.2,0,.2,0,.3,0s0,0,.1-.2,0-.3,0-.6v-2.5h-.5c-.2,0-.4,0-.5,0s-.2,0-.2.2-.1.3-.2.5h0Z"/>
        </g>
      </g>
      <g class="st14">
        <g class="st14">
          <path class="st10" d="M323.4,72.4h-1.3v.2c-.2.3-.3.5-.3.6s0,.2.1.2c0,0,.2,0,.3,0h0c0,.1-1,.1-1,.1h0c.2-.1.3-.2.4-.3,0,0,.2-.3.3-.5,0,0,0-.1.1-.3l1-2.4h.1l1.2,2.8.2.4c0,0,0,.1.1.2,0,0,.2,0,.3,0h0c0,.1-1.4.1-1.4.1h0c.2-.1.3-.1.3-.2,0,0,0,0,0-.1s0-.2-.1-.3l-.3-.7h0ZM323.4,72.3l-.6-1.5-.6,1.5h1.2Z"/>
        </g>
      </g>
      <g class="st14">
        <g class="st14">
          <path class="st10" d="M285.2,78h1.1c-.1.2-.3.2-.4.3s-.2.3-.3.5c0,.2-.2.4-.2.5.2.3.3.4.4.5.1,0,.2.1.3.1s.3,0,.4-.2h.1c0,.1-.1.3-.2.4s-.2.1-.4.1c-.3,0-.6-.2-.9-.5-.3.3-.6.5-1,.5s-.2,0-.4,0-.2-.1-.3-.2-.2-.2-.2-.3,0-.2,0-.4c0-.2,0-.4.2-.5.1-.1.3-.3.7-.6-.2-.3-.3-.5-.3-.8s0-.3.2-.5c.1-.1.3-.2.5-.2s.4,0,.5.2.2.2.2.4c0,.3-.2.5-.7.8.2.2.3.4.4.6s.3.4.4.6c.1-.1.2-.3.2-.4s0-.3,0-.4c0-.2-.1-.3-.4-.4h0c0-.1,0-.1,0-.1ZM284.1,78.2c-.2.1-.3.2-.4.4-.1.1-.1.3-.1.4,0,.2,0,.4.2.6s.4.3.6.3.5-.1.7-.4c-.2-.3-.4-.5-.5-.8s-.3-.4-.4-.6h0ZM284.3,77.9c.3-.2.5-.4.5-.7s0-.1,0-.2,0-.1,0-.1,0,0-.1,0-.1,0-.2,0c-.1,0-.2,0-.3.1s-.1.2-.1.3.1.4.3.7h0Z"/>
          <path class="st10" d="M293.6,79.5l1.3-2.9h1.1c0,.1-.1.1-.1.1-.2,0-.3,0-.3,0s0,0-.1.2,0,.3,0,.5v1.7c0,.3,0,.5,0,.5,0,0,0,.1.1.2s.2,0,.3,0h.2c0,.1-1.7.1-1.7.1h0c0-.1.1-.1.1-.1.1,0,.2,0,.3,0s0,0,.1-.2,0-.3,0-.6v-2.2l-1.4,3.1h-.1l-1.4-3.1v2c0,.3,0,.5,0,.6s0,.2.2.3.2.1.4.1h0c0,.1-1.3.1-1.3.1h0c.2-.1.3-.2.4-.2s.2-.2.2-.3,0-.3,0-.6v-1.5c0-.3,0-.5,0-.5s0-.1-.1-.2-.2,0-.4,0h0c0-.1,1.1-.1,1.1-.1l1.3,2.9h0Z"/>
          <path class="st10" d="M297.9,78.3c0-.5.2-1,.5-1.3s.8-.5,1.4-.5,1,.2,1.4.5.5.8.5,1.3-.2,1-.5,1.3-.8.5-1.4.5-1-.2-1.4-.5-.5-.8-.5-1.3h0ZM298.4,78.3c0,.6.1,1,.3,1.3s.6.4,1,.4.7-.1.9-.4.4-.7.4-1.3-.1-1-.3-1.3-.5-.4-1-.4-.7.1-1,.4-.3.7-.3,1.3h0Z"/>
          <path class="st10" d="M307.4,80.1h-1c-.2-.1-.4-.4-.8-.9-.1-.2-.2-.3-.4-.5-.1-.1-.2-.2-.2-.3s-.1,0-.2,0h-.1v.8c0,.3,0,.5,0,.5,0,0,0,.1.1.2s.2,0,.3,0h.2c0,.1-1.7.1-1.7.1h0c0-.1.1-.1.1-.1.2,0,.2,0,.3,0s0,0,.1-.2,0-.3,0-.6v-1.7c0-.3,0-.5,0-.5s0-.1-.1-.2-.2,0-.4,0h0c0-.1.5-.1.5-.1.3,0,.6,0,.8,0,.3,0,.6,0,.8,0s.4.2.5.3.2.3.2.5,0,.4-.2.6-.4.3-.7.3c.1,0,.4.3.7.8.3.4.5.6.6.7s.3.2.5.2h0c0,.1,0,.1,0,.1ZM304.7,78.3h.4c.1,0,.3,0,.4,0s.2,0,.2-.1.1-.1.1-.2,0-.2,0-.4c0-.2,0-.4-.2-.6s-.4-.2-.8-.2-.1,0-.2,0v1.6h0Z"/>
          <path class="st10" d="M312,79h.1v1.1h-3c0-.1,0-.1,0-.1.2,0,.3,0,.3,0s0-.1,0-.2,0-.2,0-.5v-1.7c0-.3,0-.4,0-.5s0-.1-.1-.2c0,0-.2,0-.3,0h0c0-.1,2.5-.1,2.5-.1v.9c0,0,0,0,0,0,0-.2-.1-.4-.2-.5s-.2-.2-.3-.2-.3,0-.5,0h-.5v1.5h.4c.2,0,.3,0,.4,0s.1,0,.1-.1c0,0,0-.2,0-.4h.1v1.2h-.1c0-.2,0-.3,0-.4s0-.1-.1-.1-.2,0-.3,0h-.4v.8c0,.4,0,.7,0,.7,0,0,.2.1.4.1h.3c.2,0,.3,0,.5,0s.2-.1.3-.3c.1-.1.2-.4.2-.6h0Z"/>
        </g>
      </g>
    </g>
    <path class="st10" d="M297.6,93.4c-14.8,0-28.2-8.2-35-21.4l.8-.4c6.6,12.9,19.7,20.9,34.2,20.9s14.4-2,20.5-5.9c6-3.8,10.8-9.1,13.9-15.4l.8.4c-3.2,6.4-8.1,11.9-14.2,15.7-6.3,4-13.5,6-21,6h0Z"/>
    <g class="st14">
      <g class="st14">
        <g class="st14">
          <path class="st10" d="M260.1,32.5h0c0,0,.8.4.8.4l-1.2,2.2h0c0,0,0-.1,0-.1,0-.1.1-.2,0-.3s0-.1,0-.1c0,0-.2-.1-.4-.2l-1.3-.7c-.2-.1-.3-.2-.4-.2,0,0-.1,0-.2,0s-.1.1-.2.2h0c0,0,1-2,1-2l.7.3h0c-.2,0-.4,0-.5,0s-.2,0-.3.1-.1.2-.2.4l-.2.4,1.1.6.2-.3c0-.1.1-.2.1-.3,0,0,0-.1,0-.2s-.1-.1-.2-.2h0c0,0,.9.4.9.4h0c-.1,0-.2,0-.3,0s-.1,0-.2,0c0,0,0,.1-.2.2l-.2.3.6.3c.3.2.5.2.6.2s.2-.1.3-.3v-.2c.2-.1.2-.3.2-.4,0-.1,0-.2,0-.4,0-.1-.2-.3-.4-.4h0Z"/>
        </g>
      </g>
    </g>
    <g class="st14">
      <g class="st14">
        <g class="st14">
          <path class="st10" d="M262.5,28.5l-.7.9v.2c.3.3.4.4.4.5,0,0,.1,0,.2,0,0,0,.1,0,.2-.2h0c0,0-.5.8-.5.8h0c0-.2,0-.3,0-.4,0-.1-.1-.2-.2-.5,0,0,0-.1-.1-.2l-1.2-1.9h0c0,0,2.6.5,2.6.5h.3c0,0,.1,0,.2,0,0,0,.1,0,.2-.2h0c0,0-.7,1-.7,1h0c0-.2.1-.3.1-.3s0-.1,0-.1c0,0-.1,0-.3,0h-.6c0-.1,0-.1,0-.1ZM262.4,28.5l-1.4-.3.7,1.2.6-.9h0Z"/>
        </g>
      </g>
    </g>
    <g class="st14">
      <g class="st14">
        <g class="st14">
          <path class="st10" d="M263.7,25h0c0,0-.5-.4-.5-.4l2-2.2.5.5h0c-.2,0-.3-.1-.4-.1-.1,0-.2,0-.2,0s-.1.1-.3.2l-.3.4,1.6,1.4c.2.2.3.3.4.3s.1,0,.2,0,.1,0,.2-.2h.1c0-.1,0,0,0,0l-1,1.1h0c0,0,.1-.2.1-.2,0,0,.1-.2.1-.2s0-.1,0-.2c0,0-.2-.2-.3-.3l-1.6-1.4-.3.3c-.1.1-.2.2-.2.3s0,.1,0,.2.1.2.2.4h0Z"/>
        </g>
      </g>
    </g>
    <g class="st14">
      <g class="st14">
        <g class="st14">
          <path class="st10" d="M270,18.1l.4-.3c.3-.3.5-.4.7-.5.4-.3.7-.4,1-.4.3,0,.5,0,.8.1.2.1.4.3.6.6.1.2.2.4.3.6s0,.4,0,.5,0,.3-.2.5c0,.1-.2.3-.3.4s-.3.2-.5.4l-1.1.8h0c0,0,.1-.2.1-.2.1,0,.2-.1.2-.2s0-.1,0-.2c0,0-.1-.2-.3-.4l-.8-1.2c-.1-.2-.2-.3-.3-.4,0,0-.1,0-.2,0s-.1,0-.3.1h0c0,0,0,0,0,0h0ZM270.8,17.6l1.2,1.7c.2.2.3.4.4.5,0,0,.1,0,.2,0s.2,0,.3-.2c.2-.2.4-.3.5-.5.1-.2.1-.4.1-.6s-.1-.5-.3-.8c-.2-.2-.3-.4-.5-.5-.2-.1-.3-.2-.5-.2-.2,0-.3,0-.5,0s-.3.1-.5.3c0,0-.2.1-.3.2h0Z"/>
        </g>
      </g>
    </g>
    <g class="st14">
      <g class="st14">
        <g class="st14">
          <path class="st10" d="M279.3,15.9l-.7.4c-.2,0-.5-.2-1-.4s-.3-.1-.4-.2c-.2,0-.2-.1-.3-.1s-.1,0-.2,0h-.1c0,0,.3.7.3.7.1.2.2.4.2.4s.1,0,.2.1c0,0,.2,0,.3,0h.1c0,0,0,0,0,0l-1.3.7h0c0,0,0-.1,0-.1.1,0,.2-.1.2-.2,0,0,0-.1,0-.2s0-.2-.2-.4l-.7-1.3c-.1-.2-.2-.4-.2-.4s0,0-.1,0-.1,0-.3.1h0s0,0,0,0l.4-.2c.2-.1.5-.3.6-.3.2-.1.5-.2.7-.3s.4,0,.5,0,.3.2.4.3c0,.2.1.4,0,.5s-.2.4-.4.5c.1,0,.4,0,.8.3.4.2.6.3.8.3s.3,0,.5,0h0c0,0,0,.1,0,.1ZM276.6,15.5c.1,0,.2-.1.3-.2s.2-.1.2-.2.1-.1.1-.2c0,0,0-.2,0-.2s0-.2-.1-.3c-.1-.2-.2-.3-.4-.4s-.4,0-.7.2c0,0-.1,0-.2,0l.7,1.2h0Z"/>
        </g>
      </g>
    </g>
    <g class="st14">
      <g class="st14">
        <g class="st14">
          <path class="st10" d="M280.5,12.2h0c0,0,1.3-.6,1.3-.6h0c0,0,0,0,0,0-.1,0-.2.1-.3.2s0,0,0,.2c0,0,0,.2.2.5l.5,1.4c0,.2.2.4.2.4,0,0,0,.1.1.1,0,0,.2,0,.3,0h0s0,0,0,0l-1.3.5h0c0,0,0-.1,0-.1.1,0,.2,0,.2-.1s0-.1,0-.2c0,0,0-.2-.2-.5l-.5-1.4c0-.2-.2-.4-.2-.4,0,0,0,0-.1-.1,0,0-.2,0-.3,0h0Z"/>
        </g>
      </g>
    </g>
    <g class="st14">
      <g class="st14">
        <g class="st14">
          <path class="st10" d="M287.8,12.9l-2.8-2.2.5,2c0,.2,0,.3.1.3s0,0,.2.1.2,0,.4,0h0c0,.1-1.1.4-1.1.4h0c.1-.2.2-.2.3-.3,0,0,0-.1,0-.2s0-.2,0-.3l-.4-1.6c0-.2-.1-.4-.2-.4,0,0,0-.1-.1-.1,0,0-.2,0-.3,0h0c0-.1.8-.3.8-.3l2.3,1.8-.5-1.8c0-.1,0-.2-.1-.3,0,0-.1,0-.2,0s-.2,0-.3,0h0c0-.1,1-.4,1-.4h0c0,.1-.2.2-.2.2s0,.1-.1.2c0,0,0,.1,0,.3l.6,2.4h0s0,0,0,0Z"/>
        </g>
      </g>
    </g>
    <g class="st14">
      <g class="st14">
        <g class="st14">
          <path class="st10" d="M291.4,10.7l.8-.9c.2-.2.3-.4.3-.4,0-.1-.1-.2-.3-.2h0c0-.1,1.1-.2,1.1-.2h0c0,.1-.2.1-.3.2s-.2.1-.2.2-.2.2-.4.4l-.5.6,1.3,1c.3.2.5.4.6.4s.2,0,.4,0h0c0,.1-1.6.3-1.6.3h0c0-.1,0-.1,0-.1.2,0,.3,0,.3,0,0,0,0,0,0-.1,0,0-.1-.2-.4-.4l-1-.8-.2.2v.5c.1.2.1.4.1.5s0,.1.1.2.1,0,.3,0h0c0,0-1.4.3-1.4.3h0c0-.1,0-.1,0-.1.1,0,.2,0,.3,0,0,0,0,0,0-.2s0-.2,0-.5l-.2-1.5c0-.2,0-.4,0-.5,0,0,0-.1-.1-.1s-.2,0-.3,0h0c0-.1,1.3-.3,1.3-.3h0c0,.1,0,.1,0,.1-.1,0-.2,0-.3,0,0,0,0,0,0,.1s0,.2,0,.5v.8h.1,0Z"/>
        </g>
      </g>
    </g>
    <g class="st14">
      <g class="st14">
        <g class="st14">
          <path class="st10" d="M302.5,9v.8h-.1c0-.2,0-.3-.1-.4s-.1-.2-.2-.2-.2,0-.4,0h-.6c0,0-.1,1.2-.1,1.2h.3c.2,0,.3,0,.4,0s.1-.2.1-.4h.1v1.1h-.2v-.3c0,0,0-.1-.1-.2s-.1,0-.3,0h-.3s0,.7,0,.7c0,.2,0,.4,0,.5s0,.1,0,.2.1,0,.3,0h.1c0,.1-1.4,0-1.4,0h0c0-.1.1-.1.1-.1.1,0,.2,0,.3,0s0,0,.1-.1c0,0,0-.2,0-.5v-1.5c.1-.2.1-.4.1-.5s0-.1,0-.2-.1,0-.3,0h0c0-.1,2.3,0,2.3,0h0Z"/>
        </g>
      </g>
    </g>
    <g class="st14">
      <g class="st14">
        <g class="st14">
          <path class="st10" d="M307.3,11.9h.1s-.2.9-.2.9l-2.5-.5h0c0-.1,0-.1,0-.1.1,0,.2,0,.3,0s0,0,.1-.1c0,0,0-.2.1-.5l.3-1.5c0-.2,0-.4,0-.5s0-.1,0-.2c0,0-.1,0-.3-.1h0c0-.1,2.2.3,2.2.3v.8h-.2c0-.2,0-.4,0-.5s-.1-.2-.2-.2-.2,0-.4-.1h-.4c0,0-.2,1.2-.2,1.2h.3c.1.1.2.1.3,0,0,0,.1,0,.1,0,0,0,0-.1,0-.3h.1s-.2,1-.2,1h-.1c0-.2,0-.3,0-.4,0,0,0-.1-.1-.1s-.1,0-.3,0h-.3c0,0-.1.6-.1.6,0,.4,0,.6,0,.6,0,0,.1.1.4.2h.2c.2,0,.3,0,.4,0s.2,0,.3-.2.2-.3.3-.5h0Z"/>
        </g>
      </g>
    </g>
    <g class="st14">
      <g class="st14">
        <g class="st14">
          <path class="st10" d="M312.3,13.4h.1s-.4.9-.4.9l-2.4-.8h0c0,0,0,0,0,0,.1,0,.2,0,.3,0,0,0,0,0,.1-.1s0-.2.2-.4l.5-1.4c0-.2.1-.4.1-.4,0,0,0-.1,0-.2,0,0-.1,0-.3-.1h0c0,0,2.1.6,2.1.6l-.2.7h-.1c0-.2,0-.4,0-.5s-.1-.2-.2-.2-.2-.1-.4-.2h-.4c0-.1-.4,1.1-.4,1.1h.3c.1.2.2.2.3.2,0,0,.1,0,.1,0,0,0,0-.1.1-.3h.1s-.3,1-.3,1h-.1c0-.2,0-.3,0-.4s0-.1,0-.1-.1,0-.2-.1h-.3c0-.1-.2.6-.2.6-.1.3-.2.5-.1.6s.1.1.3.2h.2c.2.1.3.1.4.1s.2,0,.4-.1.2-.2.4-.4h0Z"/>
        </g>
      </g>
    </g>
    <g class="st14">
      <g class="st14">
        <g class="st14">
          <path class="st10" d="M317.2,15.5l-.4.8-2.3-1.1h0c0,0,0,0,0,0,.1,0,.2,0,.3,0,0,0,.1,0,.2,0s.1-.2.2-.4l.6-1.3c.1-.2.2-.4.2-.4s0-.1,0-.2c0,0-.1-.1-.2-.2h0s0-.1,0-.1l1.3.6h0c0,0-.1,0-.1,0-.1,0-.2,0-.3,0s-.1,0-.1,0-.1.2-.2.4l-.7,1.4c0,.2-.1.3-.2.4,0,0,0,.1,0,.2s.1.1.3.2h.2c.2.2.3.2.4.2s.2,0,.3,0,.3-.2.4-.4h0s0,0,0,0Z"/>
        </g>
      </g>
    </g>
    <g class="st14">
      <g class="st14">
        <g class="st14">
          <path class="st10" d="M324.2,19.5l1,.8h0c-.1,0-.2,0-.3,0s-.1,0-.2,0-.2.2-.3.4l-.2.3s0,0,0,0c0,0-.2-.1-.4-.2-.3,0-.5-.2-.7-.3-.4-.3-.5-.6-.6-1,0-.4,0-.8.3-1.1s.6-.6,1-.7.8,0,1.2.3c.3.2.5.6.5,1,.1,0,.2-.1.3-.2h0c0,0-.6.9-.6.9h0c.2-.4.2-.6.2-.9s-.2-.5-.4-.7c-.2-.2-.5-.2-.8-.2-.3,0-.6.3-.9.7-.3.4-.5.8-.4,1.1,0,.3.2.5.4.7.1,0,.3.2.4.2.1,0,.3,0,.4,0s.2-.1.3-.2c.1-.1.2-.2.2-.3s0-.1,0-.1c0,0,0-.1-.2-.2h0s0-.1,0-.1h0Z"/>
        </g>
      </g>
    </g>
    <g class="st14">
      <g class="st14">
        <g class="st14">
          <path class="st10" d="M327.5,22c.3-.3.7-.5,1.1-.5.4,0,.8.2,1.1.5s.5.7.5,1.1c0,.4-.1.8-.5,1.1-.3.3-.7.5-1.1.5-.4,0-.8-.2-1.1-.5-.3-.3-.5-.7-.5-1.1,0-.4.2-.8.5-1.1h0ZM327.9,22.3c-.4.3-.5.7-.6,1s0,.6.4.9c.2.2.5.4.8.3s.6-.2,1-.6c.3-.3.5-.7.6-1s0-.6-.3-.9-.5-.4-.8-.3c-.3,0-.6.2-1,.6h0Z"/>
        </g>
      </g>
    </g>
    <g class="st14">
      <g class="st14">
        <g class="st14">
          <path class="st10" d="M331.7,26.5c.4-.3.8-.4,1.2-.3.4,0,.8.3,1,.7.3.4.4.8.4,1.2,0,.4-.2.8-.6,1.1-.4.3-.8.4-1.2.3s-.8-.3-1.1-.7c-.3-.4-.4-.8-.4-1.2s.3-.8.7-1.1h0ZM332,26.9c-.4.3-.6.6-.7.9s0,.6.2.9c.2.3.5.4.8.4s.7-.1,1.1-.4c.4-.3.6-.6.7-.9,0-.3,0-.6-.2-.9-.2-.3-.5-.4-.8-.5s-.7.1-1,.4h0Z"/>
        </g>
      </g>
    </g>
    <g class="st14">
      <g class="st14">
        <g class="st14">
          <path class="st10" d="M336.5,30.8l.3.4c.2.4.4.6.4.7.2.4.3.7.3,1s0,.5-.2.8c-.1.2-.4.4-.6.5-.2.1-.4.2-.6.2s-.4,0-.5,0c-.2,0-.3-.1-.4-.2s-.2-.2-.3-.3c0-.1-.2-.3-.3-.5l-.7-1.2h0c0,0,0,0,0,0,0,.1.1.2.2.2,0,0,.1,0,.2,0,0,0,.2,0,.4-.2l1.3-.7c.2-.1.4-.2.4-.2s0-.1,0-.1,0-.1-.1-.3h0c0,0,0-.1,0-.1h0ZM336.9,31.6l-1.8,1c-.3.1-.4.2-.5.3s-.1.1-.1.2,0,.2.1.3c.1.2.3.4.4.5.1.1.3.2.6.2.2,0,.5,0,.8-.2.2-.1.4-.3.5-.4s.2-.3.3-.5c0-.2,0-.3,0-.5s-.1-.3-.2-.5c0-.1-.1-.2-.2-.3h0Z"/>
        </g>
      </g>
    </g>
    <g class="st14">
      <g class="st14">
        <g class="st14">
          <path class="st10" d="M259.9,73.4h0c0,0,.7,1.2.7,1.2h0c0,0,0,0,0,0,0-.1-.1-.2-.2-.2,0,0-.1,0-.2,0,0,0-.2,0-.4.2l-1.3.7c-.2.1-.4.2-.4.2,0,0,0,0-.1.2,0,0,0,.2,0,.3h0c0,0,0,.1,0,.1l-.7-1.2h0c0,0,0,0,0,0,0,.1.1.2.2.2,0,0,.1,0,.2,0,0,0,.2,0,.4-.2l1.3-.7c.2-.1.4-.2.4-.2,0,0,0,0,0-.1s0-.1-.1-.3h0c0,0,0,0,0,0Z"/>
        </g>
      </g>
    </g>
    <g class="st14">
      <g class="st14">
        <g class="st14">
          <path class="st10" d="M259.9,79.4l1.3-3.3-1.8,1.1c-.1,0-.2.2-.3.2s0,.1,0,.2,0,.2.1.4h0c0,0-.6-.9-.6-.9h0c0,0,.2.1.2.2,0,0,.1,0,.2,0,0,0,.2,0,.3-.2l1.4-.9c.2-.1.3-.2.4-.3s0-.1,0-.2,0-.1-.1-.3h0c0,0,.5.7.5.7l-1,2.8,1.5-1c.1,0,.2-.1.2-.2s0-.1,0-.2c0,0,0-.2-.1-.3h0c0,0,.6.9.6.9h0c0,0-.2-.1-.2-.2s-.1,0-.2,0-.1,0-.2.1l-2.1,1.3h0c0,0,0,0,0,0Z"/>
        </g>
      </g>
    </g>
    <g class="st14">
      <g class="st14">
        <g class="st14">
          <path class="st10" d="M264.2,82.7l1.1-.2c.2,0,.3,0,.4-.1,0,0,0,0,0-.2,0,0,0-.2-.1-.3h0c0,0,.7.7.7.7h0c-.1,0-.2,0-.3,0-.1,0-.3,0-.5,0l-1.3.2-.3.3c-.2.2-.3.3-.4.3,0,0,0,.1,0,.2s0,.1.2.3h0c0,0-.8-.9-.8-.9h0c0,0,0,0,0,0,0,.1.2.2.2.2,0,0,.1,0,.2,0,0,0,.2-.1.4-.3l.3-.2.5-1.4c0-.3.1-.5.1-.5s0-.2-.1-.3h0c0,0,.8.9.8.9h0c-.1-.1-.3-.2-.3,0,0,0,0,.1-.1.2l-.4,1.3h0Z"/>
        </g>
      </g>
    </g>
    <g class="st14">
      <g class="st14">
        <g class="st14">
          <path class="st10" d="M265.8,84.2c.3-.3.7-.5,1.1-.5.4,0,.8.2,1.1.5.3.3.5.7.5,1.1s-.1.8-.5,1.1-.7.5-1.1.5-.8-.2-1.2-.5c-.3-.3-.5-.7-.5-1.1,0-.4.1-.8.5-1.1h0ZM266.1,84.5c-.3.4-.5.7-.6,1,0,.3,0,.6.4.9.2.2.5.3.8.3.3,0,.6-.2,1-.6.3-.3.5-.7.5-1,0-.3,0-.6-.3-.9s-.5-.4-.9-.3-.6.2-1,.6h0Z"/>
        </g>
      </g>
    </g>
    <g class="st14">
      <g class="st14">
        <g class="st14">
          <path class="st10" d="M271.7,87.5l.8.6h0c-.1,0-.2,0-.3,0s-.2,0-.2,0-.1.1-.2.3l-.6.8c-.2.2-.3.4-.4.4s-.2.1-.4.2c-.1,0-.3,0-.5,0-.2,0-.4-.2-.5-.3-.2-.2-.4-.4-.5-.5s-.1-.4,0-.5.1-.3.3-.5l.2-.2.6-.7c.2-.2.2-.3.3-.4s0-.1,0-.2,0-.1-.2-.2h0s0-.1,0-.1l1.1.9h0c0,0,0,0,0,0-.1,0-.2-.1-.2-.2,0,0-.1,0-.2,0s-.2.2-.3.4l-.6.7c-.2.3-.3.5-.4.6,0,.1,0,.3,0,.4s.2.3.4.5c.1.1.3.2.5.2.2,0,.3,0,.4,0,.1,0,.2,0,.3-.2,0,0,.2-.2.3-.4l.7-.8c.1-.1.2-.2.2-.3,0,0,0-.1,0-.2,0,0,0-.2-.2-.2h0c0,0,0,0,0,0Z"/>
        </g>
      </g>
    </g>
    <g class="st14">
      <g class="st14">
        <g class="st14">
          <path class="st10" d="M274.3,93l-.7-.4c0-.2-.1-.5-.1-1,0-.2,0-.3,0-.5,0-.2,0-.3,0-.3s0,0-.1-.1h-.1c0,0-.4.5-.4.5-.1.2-.2.3-.2.4s0,.1,0,.2,0,.1.2.2h.1c0,0,0,.2,0,.2l-1.2-.8h0c0,0,0,0,0,0,.1,0,.2.1.2.1s.1,0,.2,0c0,0,.1-.2.3-.4l.8-1.3c.1-.2.2-.3.2-.4,0,0,0-.1,0-.2s-.1-.1-.2-.2h0s0-.1,0-.1l.4.2c.2.1.4.3.6.4.2.2.4.3.5.5s.2.3.2.5c0,.2,0,.3-.1.5-.1.2-.3.3-.5.3s-.4,0-.7-.1c0,.1.1.4.2.9,0,.4,0,.7.1.8s.2.3.3.4h0ZM273.2,90.4c0,0,.2.1.3.2s.2.1.3.1.2,0,.2,0,.1,0,.2-.1c0,0,.1-.1.2-.2.1-.2.2-.4.1-.5s-.2-.4-.5-.5c0,0-.1,0-.2,0l-.8,1.2h0Z"/>
        </g>
      </g>
    </g>
    <g class="st14">
      <g class="st14">
        <g class="st14">
          <path class="st10" d="M277.8,93.2c.2-.4.5-.7.9-.8s.8,0,1.3.1c.4.2.7.5.9.9s.2.8,0,1.2c-.2.4-.5.7-.9.8s-.8.1-1.3-.1c-.4-.2-.7-.5-.9-.9-.2-.4-.1-.8,0-1.3h0ZM278.2,93.4c-.2.4-.3.8-.2,1.1,0,.3.3.5.6.7.3.1.6.1.9,0s.5-.4.7-.9c.2-.4.3-.8.2-1.1s-.3-.5-.6-.7-.6-.2-.9,0c-.3.1-.5.4-.7.9h0Z"/>
        </g>
      </g>
    </g>
    <g class="st14">
      <g class="st14">
        <g class="st14">
          <path class="st10" d="M284.1,97.4h0s0-2.7,0-2.7l-1.6,2.1h-.1s0-2.5,0-2.5v-.5c0,0,0-.1,0-.2s-.1,0-.2-.1h0c0,0,1.1.3,1.1.3h0c-.1,0-.2,0-.3,0,0,0,0,0,0,.1,0,0,0,.2,0,.4v1.9c0,0,1.5-2.1,1.5-2.1h.1s0,2.6,0,2.6l1-1.4c.1-.2.2-.3.2-.4,0-.2,0-.3-.2-.4h0c0,0,.8.2.8.2h0c-.1,0-.2,0-.3.1,0,0-.2.2-.4.5l-1.4,2h0Z"/>
        </g>
      </g>
    </g>
    <g class="st14">
      <g class="st14">
        <g class="st14">
          <path class="st10" d="M289,98.7l-1.5-3.2-.4,2.1c0,.2,0,.3,0,.3s0,.1.1.2c0,0,.2.1.3.1h0c0,.1-1.1-.1-1.1-.1h0c.2,0,.3-.1.4-.1,0,0,.1,0,.2-.1,0,0,0-.2,0-.3l.3-1.6c0-.2,0-.4,0-.5s0-.1,0-.2-.1,0-.3-.1h0c0-.1.9,0,.9,0l1.3,2.7.4-1.8c0-.1,0-.2,0-.3,0,0,0-.1-.1-.2,0,0-.2,0-.3-.1h0c0-.1,1.1.1,1.1.1h0c-.1.1-.2.1-.3.1s-.1,0-.2.1c0,0,0,.1,0,.3l-.5,2.5h0s0,0,0,0Z"/>
        </g>
      </g>
    </g>
    <g class="st14">
      <g class="st14">
        <g class="st14">
          <path class="st10" d="M295.4,99.4l-1.9-3-.2,2.1v.4c0,0,0,.1.1.2,0,0,.2,0,.4,0h0c0,.1-1.1,0-1.1,0h0c.2-.1.3-.1.3-.2,0,0,.1,0,.1-.1,0,0,0-.2,0-.4v-1.6c.1-.2.1-.4.1-.5,0,0,0-.1,0-.2,0,0-.2,0-.3,0h0c0-.1.9,0,.9,0l1.6,2.5v-1.8c.1-.1.1-.2.1-.3s0-.1-.2-.1-.2,0-.3,0h0c0-.1,1.1,0,1.1,0h0c-.1.1-.2.1-.3.2s-.1,0-.2.1c0,0,0,.1,0,.3l-.2,2.5h0,0Z"/>
        </g>
      </g>
    </g>
    <g class="st14">
      <g class="st14">
        <g class="st14">
          <path class="st10" d="M299.6,98.4h.1v.9c0,0-2.6,0-2.6,0h0c0-.1,0-.1,0-.1.2,0,.2,0,.3,0,0,0,0,0,0-.2s0-.2,0-.5v-1.5c0-.2,0-.4,0-.5s0-.1,0-.2-.1,0-.3,0h0c0-.1,2.2-.1,2.2-.1v.8c0,0,0,0,0,0,0-.2-.1-.4-.2-.4s-.2-.1-.2-.2c0,0-.2,0-.5,0h-.4v1.3h.3c.1,0,.2,0,.3,0s0,0,.1-.1,0-.2,0-.3h.1v1s0,0,0,0c0-.2,0-.3,0-.3,0,0,0,0-.1-.1,0,0-.1,0-.3,0h-.3v.7c0,.4,0,.6,0,.6,0,0,.2,0,.4,0h.2c.2,0,.3,0,.4,0s.2-.1.3-.3c0-.1.2-.3.2-.5h0Z"/>
        </g>
      </g>
    </g>
    <g class="st14">
      <g class="st14">
        <g class="st14">
          <path class="st10" d="M300.6,96.4h0c0-.1,1.4-.2,1.4-.2h0c0,.1,0,.1,0,.1-.1,0-.2,0-.3,0s0,0,0,.1c0,0,0,.2,0,.5v1.5c.1.2.2.4.2.5,0,0,0,.1.1.2s.1,0,.3,0h0c0,0-1.4.2-1.4.2h0c0-.1,0-.1,0-.1.1,0,.2,0,.3,0s0,0,0-.2c0,0,0-.2,0-.5v-1.5c-.1-.2-.2-.4-.2-.5s0-.1-.1-.1c0,0-.2,0-.3,0h0Z"/>
        </g>
      </g>
    </g>
    <g class="st14">
      <g class="st14">
        <g class="st14">
          <path class="st10" d="M305.2,97.4l1.3-.2h0c-.1.1-.2.2-.3.2s0,0,0,.2,0,.2,0,.5v.3s0,0,0,0c-.1,0-.3,0-.4.2-.2.1-.5.2-.7.3-.4,0-.8,0-1.1-.2s-.5-.6-.6-1c0-.4,0-.8.2-1.2s.6-.6,1-.7c.4,0,.8,0,1.1.3,0-.1,0-.2,0-.4h.1l.2,1h-.1c0-.3-.2-.5-.5-.7s-.5-.2-.7-.2c-.3,0-.5.2-.7.4s-.2.6-.1,1.2.2.9.5,1.1.5.3.8.2c.2,0,.3,0,.4-.2s.2-.2.2-.3,0-.2,0-.4c0-.2,0-.3,0-.3s0,0-.1,0h-.3c0,0,0,0,0,0Z"/>
        </g>
      </g>
    </g>
    <g class="st14">
      <g class="st14">
        <g class="st14">
          <path class="st10" d="M309.9,96.1l-1.5.4.2.7c0,.2.1.4.1.4,0,0,0,.1.1.1,0,0,.2,0,.3,0h0s0,0,0,0l-1.3.4h0c0-.1,0-.1,0-.1.1,0,.2,0,.2-.1s0-.1,0-.2,0-.2-.1-.5l-.4-1.4c0-.2-.1-.4-.1-.4,0,0,0-.1-.1-.1,0,0-.2,0-.3,0h0c0,0,1.3-.4,1.3-.4h0c0,.1,0,.1,0,.1-.1,0-.2,0-.3.1,0,0,0,0,0,.2s0,.2.1.5l.2.6,1.5-.4-.2-.6c0-.2-.1-.4-.1-.4,0,0,0-.1-.1-.1s-.2,0-.3,0h0s0,0,0,0l1.3-.4h0c0,.1,0,.1,0,.1-.1,0-.2,0-.3.1s0,0,0,.2,0,.2.1.5l.4,1.4c0,.2.1.4.1.4,0,0,0,.1.1.1,0,0,.2,0,.3,0h0c0,0-1.3.5-1.3.5h0c0-.1,0-.1,0-.1.1,0,.2,0,.2-.1,0,0,0-.1,0-.2s0-.2-.1-.5l-.2-.7h0Z"/>
        </g>
      </g>
    </g>
    <g class="st14">
      <g class="st14">
        <g class="st14">
          <path class="st10" d="M313.2,94.9c.3,0,.6-.1.8,0s.4.2.4.4c0,.2,0,.4,0,.5,0,.2-.2.3-.3.4s-.4.2-.6.3l-1.1.4h0c0,0,.1-.1.1-.1.1,0,.2,0,.2-.1,0,0,0-.1,0-.2,0,0,0-.2-.2-.5l-.5-1.4c0-.2-.2-.4-.2-.4s0,0-.1-.1c0,0-.2,0-.3,0h0s0,0,0,0l.5-.2.5-.2c.8-.3,1.3-.2,1.4.2,0,.2,0,.4,0,.5,0,.2-.3.3-.5.5h0ZM312.6,95.1s0,0,0,0c.3-.1.5-.2.6-.4,0-.1,0-.3,0-.5,0-.1-.1-.2-.2-.3s-.2-.1-.3-.1-.3,0-.5.1c0,0-.1,0-.2,0l.4,1.2h0ZM312.7,95.2l.2.6c.1.3.2.4.2.5s0,.1.1.1.1,0,.3,0c.2,0,.4-.2.4-.4,0-.2,0-.4,0-.6,0-.2-.2-.4-.4-.4-.2,0-.4,0-.7,0,0,0-.1,0-.2,0h0Z"/>
        </g>
      </g>
    </g>
    <g class="st14">
      <g class="st14">
        <g class="st14">
          <path class="st10" d="M315.3,94.2c-.2-.4-.2-.8,0-1.2.2-.4.4-.7.9-.9s.8-.3,1.3-.1c.4.1.7.4.9.8.2.4.2.8,0,1.2s-.4.7-.9.9-.8.2-1.3.1c-.4-.1-.7-.4-.9-.8h0ZM315.8,93.9c.2.4.5.7.7.9s.6.1,1,0c.3-.1.5-.4.6-.7,0-.3,0-.7-.2-1.1s-.5-.7-.7-.8-.6-.1-.9,0c-.3.2-.5.4-.6.7,0,.3,0,.7.2,1.1h0Z"/>
        </g>
      </g>
    </g>
    <g class="st14">
      <g class="st14">
        <g class="st14">
          <path class="st10" d="M319.4,92.1c-.2-.4-.3-.8-.2-1.2s.4-.7.8-1,.8-.3,1.2-.3.8.3,1,.7c.2.4.3.8.2,1.2s-.4.7-.8,1c-.4.3-.8.3-1.2.3s-.8-.3-1-.7h0ZM319.9,91.8c.3.4.5.7.8.8s.6,0,.9-.2c.3-.2.5-.4.5-.7,0-.3,0-.7-.3-1.1-.2-.4-.5-.7-.8-.8-.3-.1-.6,0-.9.1-.3.2-.5.4-.5.8,0,.3,0,.7.3,1.1h0Z"/>
        </g>
      </g>
    </g>
    <g class="st14">
      <g class="st14">
        <g class="st14">
          <path class="st10" d="M326.7,88.9l-.7.5c-.2,0-.5,0-1-.2-.2,0-.3,0-.5-.1s-.3,0-.3,0-.1,0-.2,0h0c0,0,.4.6.4.6.1.2.2.3.3.4,0,0,.1,0,.2,0s.1,0,.2-.1h.1c0,0,0,0,0,0l-1.1.9h0c0,0,0-.1,0-.1.1,0,.2-.1.2-.2,0,0,0-.1,0-.2s-.1-.2-.3-.4l-.9-1.2c-.1-.2-.2-.3-.3-.4s-.1,0-.2,0-.1,0-.3.2h0s0,0,0,0l.3-.3c.2-.2.4-.3.5-.4.2-.2.4-.3.6-.4s.4,0,.5,0,.3.1.4.2c.1.2.2.3.1.5s-.1.4-.4.6c.1,0,.4,0,.9.1.4.1.6.2.8.1.2,0,.3,0,.5-.2h0c0,0,0,.1,0,.1ZM323.9,89.1c0,0,.2-.1.3-.2s.2-.2.2-.2c0,0,0-.2,0-.2s0-.2,0-.2,0-.2-.2-.3c-.1-.2-.3-.3-.4-.3s-.4,0-.7.3c0,0,0,0-.1.1l.8,1.1h0Z"/>
        </g>
      </g>
    </g>
    <g class="st14">
      <g class="st14">
        <g class="st14">
          <path class="st10" d="M328.3,85.4l-1.1,1.1.5.5c.2.2.3.3.3.3s.1,0,.2,0c0,0,.1,0,.2-.2h0c0,0,0,0,0,0l-1,.9h0c0,0,0-.1,0-.1,0,0,.1-.2.2-.2,0,0,0-.1,0-.2s-.1-.2-.3-.4l-1-1.1c-.2-.2-.3-.3-.3-.3,0,0-.1,0-.2,0,0,0-.1,0-.2.2h0s0,0,0,0l1-.9h0c0,0,0,.1,0,.1-.1.1-.2.2-.2.2,0,0,0,.1,0,.2,0,0,.1.2.3.4l.4.4,1.1-1.1-.4-.4c-.2-.2-.3-.3-.3-.3s-.1,0-.2,0-.1,0-.2.2h0c0,0,0,0,0,0l1-1h0c0,0,0,.1,0,.1-.1.1-.2.2-.2.2s0,.1,0,.2c0,0,.1.2.3.4l1,1.1c.2.2.3.3.3.3s.1,0,.2,0c0,0,.1,0,.2-.2h0c0,0,0,0,0,0l-1,1h0c0,0,0-.1,0-.1,0,0,.1-.2.2-.2s0-.1,0-.2-.1-.2-.3-.4l-.5-.5h0Z"/>
        </g>
      </g>
    </g>
    <g class="st14">
      <g class="st14">
        <g class="st14">
          <path class="st10" d="M329.7,83.8c-.4-.3-.5-.7-.5-1.1,0-.4.1-.8.4-1.2.3-.4.7-.6,1.1-.6.4,0,.8,0,1.2.4.4.3.5.7.6,1.1s-.1.8-.4,1.2c-.3.4-.7.6-1.1.6s-.8,0-1.2-.4h0ZM330.1,83.5c.4.3.7.5,1,.5s.6-.1.8-.4c.2-.3.3-.5.2-.8,0-.3-.3-.6-.6-.9-.4-.3-.7-.5-1-.5s-.6.1-.8.4c-.2.3-.3.6-.3.9,0,.3.3.6.6.9h0Z"/>
        </g>
      </g>
    </g>
    <g class="st14">
      <g class="st14">
        <g class="st14">
          <path class="st10" d="M332.7,80.3c-.4-.3-.6-.6-.7-1,0-.4,0-.8.3-1.2.3-.4.6-.6,1-.7s.8,0,1.2.3c.4.3.6.6.7,1,0,.4,0,.8-.3,1.2-.3.4-.6.6-1,.7s-.8,0-1.2-.3h0ZM333,79.9c.4.3.8.4,1.1.4.3,0,.6-.2.8-.5.2-.3.2-.6.2-.9s-.3-.6-.7-.9-.7-.4-1.1-.4-.6.2-.8.5c-.2.3-.3.6-.2.9s.3.6.7.9h0Z"/>
        </g>
      </g>
    </g>
    <g class="st14">
      <g class="st14">
        <g class="st14">
          <path class="st10" d="M333.9,75.9l.2-.4c.2-.4.3-.6.4-.8.2-.4.4-.7.7-.8.2-.2.5-.2.8-.2s.5,0,.8.2c.2.1.4.2.5.4.1.1.2.3.3.5s0,.3,0,.5,0,.3-.1.4-.1.3-.3.5l-.7,1.2h0c0,0,0-.2,0-.2,0-.1,0-.2,0-.3s0-.1,0-.2-.2-.1-.4-.2l-1.3-.7c-.2-.1-.4-.2-.4-.2,0,0-.1,0-.2,0,0,0-.1.1-.2.2h0c0,0,0,0,0,0h0ZM334.4,75.1l1.8,1c.3.1.4.2.5.3s.2,0,.2,0,.1-.1.2-.3c.1-.2.2-.4.2-.6s0-.4-.2-.6-.3-.4-.6-.5c-.2-.1-.4-.2-.7-.2-.2,0-.4,0-.6,0-.2,0-.3.1-.4.2s-.2.3-.3.5c0,.1-.1.2-.2.3h0Z"/>
        </g>
      </g>
    </g>
    <path class="st10" d="M332,36.9c-3.1-6.3-8-11.6-13.9-15.4-6.1-3.9-13.2-5.9-20.5-5.9s-14.4,2-20.5,5.9c-6,3.8-10.8,9.1-13.9,15.4l-.8-.4c3.2-6.4,8.1-11.9,14.2-15.7,6.3-3.9,13.5-6,20.9-6s14.7,2.1,20.9,6c6.1,3.8,11,9.3,14.2,15.7l-.8.4h0Z"/>
    <g class="st14">
      <g class="st14">
        <g class="st14">
          <path class="st10" d="M271.7,72.1v.7c0,.3,0,.5,0,.5,0,0,0,.1.1.2s.2,0,.3,0h.1c0,.1-1.6.1-1.6.1h0c0-.1,0-.1,0-.1.2,0,.2,0,.3,0s0,0,.1-.2,0-.3,0-.6v-1.7c0-.3,0-.5,0-.5s0-.1-.1-.2-.2,0-.4,0h0c0-.1.4-.1.4-.1.4,0,.6,0,.8,0,.4,0,.6,0,.8,0s.4.2.5.3.2.3.2.5,0,.4-.1.5-.2.3-.4.3-.4.1-.8.1h-.4,0ZM271.7,72h.2c.2,0,.4,0,.5,0s.2-.1.3-.2.1-.3.1-.5c0-.3,0-.5-.2-.6s-.4-.2-.7-.2-.2,0-.3,0v1.6h0Z"/>
          <path class="st10" d="M275.2,70.3h0c0-.1,1.6-.1,1.6-.1h0c0,.1,0,.1,0,.1-.2,0-.3,0-.3,0s0,0-.1.2,0,.3,0,.5v1.7c0,.3,0,.5,0,.5,0,0,0,.1.1.2s.2,0,.3,0h.1c0,.1-1.6.1-1.6.1h0c0-.1.1-.1.1-.1.2,0,.2,0,.3,0s0,0,.1-.2,0-.3,0-.6v-1.7c0-.3,0-.5,0-.5s0-.1-.1-.2-.2,0-.4,0h0Z"/>
          <path class="st10" d="M278.6,73.7h0c0,0,2.3-3.4,2.3-3.4h-1.1c-.2,0-.4,0-.5,0s-.2,0-.2.2-.2.3-.2.5h-.1v-.8h2.7c0,.1-2.2,3.4-2.2,3.4h1.1c.4,0,.6,0,.7,0s.2-.2.3-.3.1-.3.2-.4h.1v.9h-3,0Z"/>
          <path class="st10" d="M283.6,73.7h0c0,0,2.3-3.4,2.3-3.4h-1.1c-.2,0-.4,0-.5,0s-.2,0-.2.2-.2.3-.2.5h-.1v-.8h2.7c0,.1-2.2,3.4-2.2,3.4h1.1c.4,0,.6,0,.7,0s.2-.2.3-.3.1-.3.2-.4h.1v.9h-3,0Z"/>
          <path class="st10" d="M290.7,72.4h-1.3v.2c-.2.3-.3.5-.3.6s0,.2.1.2.2,0,.3,0h0c0,.1-1,.1-1,.1h0c.2-.1.3-.2.4-.3,0,0,.2-.3.3-.5,0,0,0-.1.1-.3l1-2.4h.1l1.2,2.8.2.4c0,0,0,.1.1.2s.2,0,.3,0h0c0,.1-1.4.1-1.4.1h0c.2-.1.3-.1.3-.2,0,0,0,0,0-.1s0-.2-.1-.3l-.3-.7h0ZM290.6,72.3l-.6-1.5-.6,1.5h1.2Z"/>
          <path class="st10" d="M296.7,72.5h1.3v.4h-1.3v-.4Z"/>
        </g>
      </g>
      <g class="st14">
        <g class="st14">
          <path class="st10" d="M303.8,72.1v.7c0,.3,0,.5,0,.5,0,0,0,.1.1.2s.2,0,.3,0h.1c0,.1-1.6.1-1.6.1h0c0-.1,0-.1,0-.1.2,0,.2,0,.3,0s0,0,.1-.2c0,0,0-.3,0-.6v-1.7c0-.3,0-.5,0-.5s0-.1-.1-.2-.2,0-.4,0h0c0-.1.4-.1.4-.1.4,0,.6,0,.8,0,.4,0,.6,0,.8,0s.4.2.5.3.2.3.2.5,0,.4-.1.5-.2.3-.4.3-.4.1-.8.1h-.4,0ZM303.8,72h.2c.2,0,.4,0,.5,0s.2-.1.3-.2.1-.3.1-.5c0-.3,0-.5-.2-.6s-.4-.2-.7-.2-.2,0-.3,0v1.6h0Z"/>
        </g>
      </g>
      <g class="st14">
        <g class="st14">
          <path class="st10" d="M309,72.4h-1.3v.2c-.2.3-.3.5-.3.6s0,.2.1.2c0,0,.2,0,.3,0h0c0,.1-1,.1-1,.1h0c.2-.1.3-.2.4-.3,0,0,.2-.3.3-.5,0,0,0-.1.1-.3l1-2.4h.1l1.2,2.8.2.4c0,0,0,.1.1.2,0,0,.2,0,.3,0h0c0,.1-1.4.1-1.4.1h0c.2-.1.3-.1.3-.2,0,0,0,0,0-.1s0-.2-.1-.3l-.3-.7h0ZM308.9,72.3l-.6-1.5-.6,1.5h1.2Z"/>
          <path class="st10" d="M312.2,73.7v-1.1h.1c.1.7.5,1.1,1,1.1s.4,0,.6-.2.2-.3.2-.5,0-.3-.2-.4-.3-.2-.7-.4c-.3-.1-.5-.2-.6-.3s-.2-.2-.3-.4-.1-.3-.1-.5c0-.2,0-.5.3-.6s.4-.2.7-.2.3,0,.4,0,.3.1.4.3c0,0,.1-.2.1-.3h.1v.9h-.1c0-.3-.2-.5-.4-.6s-.4-.2-.6-.2-.4,0-.5.2c0,.1-.1.2-.1.4s0,.3.2.4c.1.1.3.2.7.4.3.1.5.2.7.3s.2.2.3.3.1.3.1.5c0,.3-.1.5-.3.7s-.5.3-.8.3-.7-.1-1-.4c0,0-.1.2-.1.3h-.1,0Z"/>
        </g>
      </g>
      <g class="st14">
        <g class="st14">
          <path class="st10" d="M316.6,71.1h-.1v-.8h3.4v.8s0,0,0,0c0-.2,0-.4-.2-.5s-.1-.2-.2-.2-.2,0-.4,0h-.6v2.5c0,.3,0,.5,0,.5s0,.2.1.2.2,0,.3,0h.2c0,.1-1.7.1-1.7.1h0c0-.1.2-.1.2-.1.2,0,.2,0,.3,0s0,0,.1-.2,0-.3,0-.6v-2.5h-.5c-.2,0-.4,0-.5,0s-.2,0-.2.2-.1.3-.2.5h0Z"/>
        </g>
      </g>
      <g class="st14">
        <g class="st14">
          <path class="st10" d="M323.4,72.4h-1.3v.2c-.2.3-.3.5-.3.6s0,.2.1.2c0,0,.2,0,.3,0h0c0,.1-1,.1-1,.1h0c.2-.1.3-.2.4-.3,0,0,.2-.3.3-.5,0,0,0-.1.1-.3l1-2.4h.1l1.2,2.8.2.4c0,0,0,.1.1.2,0,0,.2,0,.3,0h0c0,.1-1.4.1-1.4.1h0c.2-.1.3-.1.3-.2,0,0,0,0,0-.1s0-.2-.1-.3l-.3-.7h0ZM323.4,72.3l-.6-1.5-.6,1.5h1.2Z"/>
        </g>
      </g>
      <g class="st14">
        <g class="st14">
          <path class="st10" d="M285.2,78h1.1c-.1.2-.3.2-.4.3s-.2.3-.3.5c0,.2-.2.4-.2.5.2.3.3.4.4.5.1,0,.2.1.3.1s.3,0,.4-.2h.1c0,.1-.1.3-.2.4s-.2.1-.4.1c-.3,0-.6-.2-.9-.5-.3.3-.6.5-1,.5s-.2,0-.4,0-.2-.1-.3-.2-.2-.2-.2-.3,0-.2,0-.4c0-.2,0-.4.2-.5.1-.1.3-.3.7-.6-.2-.3-.3-.5-.3-.8s0-.3.2-.5c.1-.1.3-.2.5-.2s.4,0,.5.2.2.2.2.4c0,.3-.2.5-.7.8.2.2.3.4.4.6s.3.4.4.6c.1-.1.2-.3.2-.4s0-.3,0-.4c0-.2-.1-.3-.4-.4h0c0-.1,0-.1,0-.1ZM284.1,78.2c-.2.1-.3.2-.4.4-.1.1-.1.3-.1.4,0,.2,0,.4.2.6s.4.3.6.3.5-.1.7-.4c-.2-.3-.4-.5-.5-.8s-.3-.4-.4-.6h0ZM284.3,77.9c.3-.2.5-.4.5-.7s0-.1,0-.2,0-.1,0-.1,0,0-.1,0-.1,0-.2,0c-.1,0-.2,0-.3.1s-.1.2-.1.3.1.4.3.7h0Z"/>
          <path class="st10" d="M293.6,79.5l1.3-2.9h1.1c0,.1-.1.1-.1.1-.2,0-.3,0-.3,0s0,0-.1.2,0,.3,0,.5v1.7c0,.3,0,.5,0,.5,0,0,0,.1.1.2s.2,0,.3,0h.2c0,.1-1.7.1-1.7.1h0c0-.1.1-.1.1-.1.1,0,.2,0,.3,0s0,0,.1-.2,0-.3,0-.6v-2.2l-1.4,3.1h-.1l-1.4-3.1v2c0,.3,0,.5,0,.6s0,.2.2.3.2.1.4.1h0c0,.1-1.3.1-1.3.1h0c.2-.1.3-.2.4-.2s.2-.2.2-.3,0-.3,0-.6v-1.5c0-.3,0-.5,0-.5s0-.1-.1-.2-.2,0-.4,0h0c0-.1,1.1-.1,1.1-.1l1.3,2.9h0Z"/>
          <path class="st10" d="M297.9,78.3c0-.5.2-1,.5-1.3s.8-.5,1.4-.5,1,.2,1.4.5.5.8.5,1.3-.2,1-.5,1.3-.8.5-1.4.5-1-.2-1.4-.5-.5-.8-.5-1.3h0ZM298.4,78.3c0,.6.1,1,.3,1.3s.6.4,1,.4.7-.1.9-.4.4-.7.4-1.3-.1-1-.3-1.3-.5-.4-1-.4-.7.1-1,.4-.3.7-.3,1.3h0Z"/>
          <path class="st10" d="M307.4,80.1h-1c-.2-.1-.4-.4-.8-.9-.1-.2-.2-.3-.4-.5-.1-.1-.2-.2-.2-.3s-.1,0-.2,0h-.1v.8c0,.3,0,.5,0,.5,0,0,0,.1.1.2s.2,0,.3,0h.2c0,.1-1.7.1-1.7.1h0c0-.1.1-.1.1-.1.2,0,.2,0,.3,0s0,0,.1-.2,0-.3,0-.6v-1.7c0-.3,0-.5,0-.5s0-.1-.1-.2-.2,0-.4,0h0c0-.1.5-.1.5-.1.3,0,.6,0,.8,0,.3,0,.6,0,.8,0s.4.2.5.3.2.3.2.5,0,.4-.2.6-.4.3-.7.3c.1,0,.4.3.7.8.3.4.5.6.6.7s.3.2.5.2h0c0,.1,0,.1,0,.1ZM304.7,78.3h.4c.1,0,.3,0,.4,0s.2,0,.2-.1.1-.1.1-.2,0-.2,0-.4c0-.2,0-.4-.2-.6s-.4-.2-.8-.2-.1,0-.2,0v1.6h0Z"/>
          <path class="st10" d="M312,79h.1v1.1h-3c0-.1,0-.1,0-.1.2,0,.3,0,.3,0s0-.1,0-.2,0-.2,0-.5v-1.7c0-.3,0-.4,0-.5s0-.1-.1-.2c0,0-.2,0-.3,0h0c0-.1,2.5-.1,2.5-.1v.9c0,0,0,0,0,0,0-.2-.1-.4-.2-.5s-.2-.2-.3-.2-.3,0-.5,0h-.5v1.5h.4c.2,0,.3,0,.4,0s.1,0,.1-.1c0,0,0-.2,0-.4h.1v1.2h-.1c0-.2,0-.3,0-.4s0-.1-.1-.1-.2,0-.3,0h-.4v.8c0,.4,0,.7,0,.7,0,0,.2.1.4.1h.3c.2,0,.3,0,.5,0s.2-.1.3-.3c.1-.1.2-.4.2-.6h0Z"/>
        </g>
      </g>
    </g>
    <path class="st10" d="M297.6,103.9c-13.3,0-25.9-5.2-35.3-14.6-9.4-9.4-14.6-22-14.6-35.3s5.2-25.8,14.6-35.3c9.4-9.4,22-14.6,35.3-14.6s25.9,5.2,35.3,14.6c9.4,9.4,14.6,22,14.6,35.3s-5.2,25.9-14.6,35.3-22,14.6-35.3,14.6h0ZM297.6,5.9c-12.9,0-25,5-34,14.1-9.1,9.1-14.1,21.2-14.1,34s5,25,14.1,34c9.1,9.1,21.2,14.1,34,14.1s25-5,34-14.1c9.1-9.1,14.1-21.2,14.1-34s-5-25-14.1-34c-9.1-9.1-21.2-14.1-34.1-14.1Z"/>
    <path class="st10" d="M297.6,93.4c-8.6,0-17.1-2.9-23.9-8.2-6.8-5.2-11.8-12.6-14-20.7l.8-.2c2.2,7.9,7.1,15.1,13.7,20.2,6.7,5.2,15,8,23.4,8s16.5-2.7,23.2-7.8c6.5-4.9,11.4-11.9,13.7-19.7l.8.2c-2.4,8-7.3,15.1-14,20.1-6.9,5.2-15.1,8-23.7,8h0Z"/>
    <path class="st10" d="M336.1,52.6c-.4-10-4.5-19.3-11.7-26.2-7.2-7-16.7-10.8-26.7-10.8s-17.6,3.1-24.5,8.8c-6.8,5.6-11.5,13.4-13.2,21.9l-.9-.2c1.8-8.7,6.6-16.7,13.5-22.4,7-5.8,15.9-9,25-9s20,3.9,27.3,11c7.4,7.1,11.6,16.6,12,26.8h-.9s0,0,0,0Z"/>
    <g class="st14">
      <g class="st14">
        <g class="st14">
          <path class="st10" d="M276.7,42.6c-.9-.5-1.7-1.1-2.2-2.1s-.8-2.1-.8-3.5.4-3.5,1.3-5.1,2.1-2.9,3.6-3.9,3.2-1.5,5-1.5,1.9.1,2.8.4c.9.3,1.4.7,1.8,1.2-.2.4-.3.9-.4,1.5-.1.6-.2,1.2-.2,1.7h-.6c0-.1,0-.4,0-.8s0-.6-.1-.9c-.1-.7-.4-1.3-.9-1.7s-1.3-.6-2.3-.6c-1.6,0-3.1.5-4.4,1.4s-2.4,2.2-3.1,3.7c-.7,1.5-1.1,3-1.1,4.5s.2,2.1.7,2.9c.5.8,1.1,1.3,1.8,1.7.8.4,1.6.6,2.5.6,1.6,0,3.1-.5,4.5-1.6s2.5-2.5,3.2-4.5c.4,0,.6.3.6.8s-.4,1.7-1.2,2.7-1.9,1.9-3.2,2.6-2.7,1.1-4.1,1.1-2.1-.2-3.1-.7h0Z"/>
          <path class="st10" d="M301,37.8c0,.6-.4,1.3-1.2,2.1s-1.7,1.5-2.8,2.1c-1.1.6-2,.9-2.7.9s-1.3-.2-1.8-.5-.9-.8-1.2-1.2-.4-.8-.4-1c.2-.9.5-2.1.8-3.6l.2-1.3c0-.3.3-.6.7-1,.4-.3.8-.6,1.3-.8s.9-.3,1.1-.3.5,0,.8.2.6.4.9.7.4.7.4,1.2-.2,1.1-.5,1.6c-.4.5-.9.9-1.6,1.2s-1.6.5-2.6.5l-.3,1.5c0,.1,0,.4.2.7s.4.6.8.9c.4.3.8.4,1.4.4s1.5-.2,2.3-.7,1.6-1.1,2.2-1.8c.7-.7,1.2-1.4,1.5-2.1.3,0,.4.2.4.5h0ZM294.2,34.4c-.3.2-.5.3-.8.6-.2.2-.4.4-.4.6-.2.7-.3,1.4-.4,2.1,1.2,0,2.1-.3,2.7-.7s.9-.9.9-1.4-.1-.7-.4-1-.5-.4-.8-.4-.4,0-.7.2h0Z"/>
          <path class="st10" d="M310.1,34.8c0,0,0,.2,0,.2,0,.3-.1.6-.4.9s-.7.5-1.2.7-1,.3-1.4.3c-.8,0-1.4-.2-2-.6-.5-.4-.9-1-1-1.7-.7,0-1.3.5-1.9,1.3s-1,1.7-1.2,2.6c0,.2-.1.6-.4,1.4-.2.8-.4,1.7-.6,2.8,0,0,0,0,0,.1,0,0,0,0-.2,0s-.3,0-.5-.1-.3-.2-.3-.3c0-.2,0-.5.1-.8.9-4.3,1.5-7,1.8-8,0-.1,0-.2.1-.3s.1,0,.2,0,.2,0,.4.1c.2.1.4.2.5.3l-.4,1.3v.5c.2-.5.6-1,1.1-1.3s1-.5,1.5-.5.3,0,.5,0,.3,0,.3.1c0,.7.2,1.3.6,1.7.4.4.9.5,1.6.5s1.1-.1,1.6-.3.8-.6,1.1-1.1c0,0,.1,0,.2.1h0Z"/>
          <path class="st10" d="M318.1,37.8c0,.6-.4,1.3-1.2,2.1s-1.7,1.5-2.8,2.1c-1.1.6-2,.9-2.7.9s-1.3-.2-1.8-.5c-.5-.4-.9-.8-1.2-1.2-.3-.4-.4-.8-.4-1,.2-.9.5-2.1.8-3.6l.2-1.3c0-.3.3-.6.7-1,.4-.3.8-.6,1.3-.8.5-.2.9-.3,1.1-.3s.5,0,.8.2.6.4.9.7.4.7.4,1.2-.2,1.1-.5,1.6c-.4.5-.9.9-1.6,1.2s-1.6.5-2.6.5l-.3,1.5c0,.1,0,.4.2.7s.4.6.8.9.8.4,1.4.4,1.5-.2,2.3-.7,1.6-1.1,2.2-1.8c.7-.7,1.2-1.4,1.5-2.1.3,0,.4.2.4.5h0ZM311.4,34.4c-.3.2-.5.3-.8.6-.2.2-.4.4-.4.6-.2.7-.3,1.4-.4,2.1,1.2,0,2.1-.3,2.7-.7s.9-.9.9-1.4-.1-.7-.4-1-.5-.4-.8-.4-.4,0-.7.2h0Z"/>
          <path class="st10" d="M316.1,42.6c-.5-.4-.8-.8-.8-1.2s0-.4.2-.6c.1-.2.3-.2.5-.3.2.6.4,1,.8,1.3.4.3.8.4,1.4.4s1.2-.2,1.7-.6.6-.8.6-1.4-.1-.7-.3-1-.5-.6-1-1c-.5-.4-.8-.8-1.1-1.1-.2-.3-.4-.7-.4-1.1s.1-.9.4-1.4c.3-.4.7-.8,1.1-1s1-.4,1.4-.4.8,0,1.2.3c.4.2.6.4.6.8s-.2.6-.5,1c-.2-.4-.4-.6-.7-.8-.3-.2-.6-.3-.9-.3-.5,0-.9.2-1.1.5-.2.4-.4.7-.4,1.1s.1.5.3.8c.2.2.5.5.9.9.5.4.9.8,1.2,1.2.3.4.4.8.4,1.2s-.2,1-.5,1.5c-.3.5-.8.9-1.4,1.3s-1.2.5-1.9.5-1.4-.2-1.9-.5h0Z"/>
        </g>
      </g>
      <g class="st14">
        <g class="st14">
          <path class="st10" d="M254.8,64.2c-.7-.1-1.2-.3-1.6-.5-.2-.5-.3-.9-.4-1.3l.2-.2c.5.5,1.1.9,1.6,1.1s1.2.4,2,.4,1.7-.2,2.4-.5,1.3-.9,1.9-1.8c.6-.9,1-2.1,1.4-3.7l.3-1.2c.5-2.4,1-4.4,1.5-5.9.2-.3.5-.5.8-.7s.6-.3,1-.5h.2c-.4.6-.7,1.4-1.1,2.6s-.7,2.6-1.1,4.3l-.3,1.5c-1.1,4.4-3.4,6.6-6.8,6.6s-1.3,0-2-.2h0ZM255.5,55.3c-.6-.9-.8-1.9-.8-2.8s.3-1.8.8-2.5c.6-.8,1.4-1.4,2.6-1.8s2.6-.7,4.2-.7,1.6,0,2.2.1,1.5.2,2.6.4c1.3.3,2.3.4,3,.4s1.3-.1,1.9-.3c.6-.2,1-.6,1.3-1.1-.2.7-.5,1.3-1.1,1.8-.6.5-1.4.7-2.5.7s-1.1,0-1.8-.1-1.6-.2-2.7-.4c-1.1-.2-2-.3-2.7-.4-.7,0-1.3-.1-1.7-.1-.9,0-1.7.2-2.4.5-.7.3-1.4.8-1.8,1.4s-.7,1.3-.7,2.2.3,1.6.8,2.3c.5.7,1.3,1.4,2.4,2.2h0c-.3.1-.6.1-.8.1s-.4,0-.6.1c-.8-.5-1.5-1.2-2.1-2.1h0Z"/>
          <path class="st10" d="M280.1,56c0,0,0,.2,0,.2,0,.3-.2.6-.4.9-.3.3-.7.5-1.2.7s-1,.3-1.4.3c-.8,0-1.4-.2-2-.6-.5-.4-.9-1-1-1.7-.7,0-1.3.5-1.9,1.3s-1,1.7-1.2,2.6c0,.2-.1.6-.3,1.4-.2.8-.4,1.7-.6,2.8,0,0,0,0,0,.1,0,0,0,0-.1,0s-.3,0-.5-.1-.3-.2-.3-.3c0-.2,0-.5.1-.8.9-4.3,1.5-7,1.8-8,0-.1,0-.2.1-.3,0,0,.1,0,.2,0s.2,0,.4.1c.2.1.4.2.5.3l-.4,1.3v.5c.2-.5.6-1,1.1-1.3s1-.5,1.5-.5.3,0,.5,0c.2,0,.3,0,.3.1,0,.7.2,1.3.6,1.7s.9.5,1.6.5,1.1-.1,1.6-.3c.4-.2.8-.6,1.1-1.1,0,0,.1,0,.2.1h0Z"/>
          <path class="st10" d="M291.3,59.3c0,.7-.3,1.4-.9,2.2s-1.4,1.4-2.2,2c-.9.5-1.7.8-2.4.8s-1.1-.2-1.4-.5-.5-.8-.6-1.4c-.4.5-.9,1-1.4,1.4s-1.1.5-1.6.5-.8-.1-1.2-.4-.7-.6-1-1-.4-.8-.4-1.1l1.1-4.6c0-.4.3-.8.7-1.2.4-.4.8-.8,1.4-1,.5-.3,1.1-.4,1.6-.4s1.3.2,1.9.7c.1-.4.2-.6.3-.7s.2-.1.3-.2h1.1c0-.1,0,0,0,0-.3.2-.5.6-.7,1.1-.5,1.8-.8,3.1-1,3.9-.2.8-.3,1.6-.3,2.2s0,1.1.2,1.4.5.4.8.4,1.1-.2,1.7-.6c.7-.4,1.3-1,1.9-1.7s1.1-1.5,1.4-2.4c.2,0,.3.2.3.6h0ZM281.8,62.9c.4-.2.7-.4,1.1-.8s.5-.7.7-1.2l.4-1.9c0-.3.2-.8.3-1.5.2-.7.3-1.2.4-1.6-.4-.4-1-.6-1.6-.6s-.9.1-1.3.4-.7.6-.9.9c-.2.4-.4.7-.5,1l-.9,4.1c0,.4.2.7.5,1,.3.3.6.5.9.5s.6,0,1-.3h0Z"/>
          <path class="st10" d="M305.6,60.3c-.1.6-.5,1.2-1.1,1.8s-1.3,1.1-2.2,1.6-1.7.6-2.5.6-1.5-.3-1.9-.8c-.4-.5-.6-1.3-.6-2.2s0-.4,0-.5c-.6,1-1.4,1.9-2.3,2.5s-1.7,1-2.5,1-1.1-.2-1.4-.7c-.3-.5-.5-1.2-.5-2s.3-2.7.9-5.6h-2.2c-.1,0-.2,0-.3-.2.2-.4.4-.7.5-.9h2.2s1.1-4.9,1.1-4.9c.1-.7.3-1.1.4-1.3s.3-.3.6-.3.4,0,.5.2c0,0,0,.2-.2.5s-.2.6-.3,1c-.3,1.3-.6,2.9-1,4.8h5.7c0,0,1.2-5.3,1.2-5.3,0-.3.2-.6.4-.7s.4-.2.7-.2.3,0,.3.1c0,.1,0,.3-.2.5,0,.2-.2.5-.2.8l-1,4.9h4.1c0,.2,0,.4-.2.5s-.3.2-.5.2h-3.6c-.6,3.1-.9,4.9-.9,5.6s.1,1.3.4,1.7c.3.4.7.5,1.3.5.9,0,1.9-.3,2.8-1,.9-.7,1.8-1.5,2.5-2.6.1.2.1.4.1.5h0ZM298.3,55.7h-5.7c-.6,3.2-.8,5-.8,5.6s.1,1.1.3,1.5c.2.4.5.6.8.6.5,0,1.1-.3,1.9-.8s1.4-1.3,2-2.3,1-2,1.3-3.1l.3-1.5h0Z"/>
          <path class="st10" d="M317.1,56.4c0,.4-.2.8-.5,1.2-.3.4-.7.7-1.3,1-.5.3-1.1.4-1.7.4s-1.6-.2-2.2-.7c0,.4-.2.9-.4,1.4,0,.2-.1.5-.3,1.2-.2.6-.3,1.1-.3,1.6-.1.2-.3.5-.6.8-.3.3-.7.5-1.1.7s-.9.3-1.3.3-.9-.1-1.4-.4-.8-.6-1.1-1-.4-.9-.4-1.4c.2-.6.4-1.3.5-1.8s.3-1.1.4-1.7l.2-1.1c0-.4.3-.7.6-1,.3-.4.7-.6,1.2-.8.5-.2,1-.3,1.4-.3s.4,0,.8,0c0-.4.1-.6.2-.7.1-.1.3-.2.6-.2s.3,0,.5,0c0,.4-.1.8-.1,1.1,0,.9.3,1.6.8,2.2.5.6,1.3.9,2.2.9s1.3-.2,1.8-.5c.5-.4.9-.9,1.2-1.6.2,0,.2.2.2.5h0ZM310,59.9c.3-1,.5-1.9.6-2.5-.3-.4-.6-1-.7-1.6,0,0,0-.1,0-.1s0,0-.1,0c-.2,0-.5-.1-.8-.1-.6,0-1.1.2-1.5.5s-.7.7-.8,1.1c0,.2-.2.9-.5,2.2-.1.7-.3,1.5-.5,2.2,0,.6.2,1,.6,1.3s.8.5,1.2.5.8-.1,1.2-.4c.4-.3.7-.5.8-.8.1-.6.3-1.3.5-2.1h0Z"/>
          <path class="st10" d="M325.8,56c0,0,0,.2,0,.2,0,.3-.1.6-.4.9s-.7.5-1.2.7-1,.3-1.4.3c-.8,0-1.4-.2-2-.6-.5-.4-.9-1-1-1.7-.7,0-1.3.5-1.9,1.3s-1,1.7-1.2,2.6c0,.2-.1.6-.4,1.4-.2.8-.4,1.7-.6,2.8,0,0,0,0,0,.1s0,0-.1,0c-.1,0-.3,0-.5-.1s-.3-.2-.3-.3c0-.2,0-.5.1-.8.9-4.3,1.5-7,1.8-8,0-.1,0-.2.1-.3s.1,0,.2,0,.2,0,.4.1c.2.1.4.2.5.3l-.4,1.3v.5c.2-.5.6-1,1.1-1.3s1-.5,1.5-.5.3,0,.5,0,.3,0,.3.1c0,.7.2,1.3.6,1.7.4.4.9.5,1.6.5s1.1-.1,1.6-.3c.4-.2.8-.6,1.1-1.1,0,0,.1,0,.2.1h0Z"/>
          <path class="st10" d="M324.6,63.6c-.4-.4-.6-.9-.6-1.6.2-.7.6-2.4,1.2-4.9.3-1.2.4-2,.5-2.2.2-.3.5-.5.8-.5s.4,0,.4.2c-.1.4-.3,1-.4,1.8s-.3,1.5-.4,2c-.4,1.9-.7,3.1-.8,3.7,0,.4.1.6.3.8.2.2.5.3.8.3.8,0,1.5-.3,2.3-.8s1.4-1.2,2-1.9,1-1.3,1.3-1.9c0,0,.2,0,.2.1,0,0,0,.2,0,.4s0,.5-.2.7c-.8,1.3-1.7,2.3-2.8,3.1s-2,1.2-3.1,1.2-1-.2-1.4-.5h0ZM326.6,51.4c-.1-.1-.2-.3-.2-.6s.1-.6.3-.8c.2-.2.4-.4.8-.4s.4,0,.5.2.2.3.2.5c0,.3-.1.6-.3.8s-.5.4-.8.4-.4,0-.5-.2h0Z"/>
          <path class="st10" d="M343.9,59.3c0,.7-.3,1.4-.9,2.2s-1.4,1.4-2.2,2c-.9.5-1.7.8-2.4.8s-1.1-.2-1.4-.5-.5-.8-.6-1.4c-.4.5-.9,1-1.4,1.4-.6.4-1.1.5-1.6.5s-.8-.1-1.2-.4-.7-.6-1-1-.4-.8-.4-1.1l1.1-4.6c0-.4.3-.8.7-1.2.4-.4.8-.8,1.4-1,.5-.3,1.1-.4,1.6-.4s1.3.2,1.9.7c.1-.4.2-.6.3-.7s.2-.1.3-.2h1.1c0-.1,0,0,0,0-.3.2-.5.6-.7,1.1-.5,1.8-.8,3.1-1,3.9-.2.8-.3,1.6-.3,2.2s0,1.1.2,1.4c.2.3.5.4.8.4s1.1-.2,1.7-.6c.7-.4,1.3-1,1.9-1.7s1.1-1.5,1.4-2.4c.2,0,.3.2.3.6h0ZM334.4,62.9c.4-.2.7-.4,1.1-.8s.5-.7.7-1.2l.4-1.9c0-.3.2-.8.3-1.5.2-.7.3-1.2.4-1.6-.4-.4-1-.6-1.6-.6s-.9.1-1.3.4c-.4.2-.7.6-.9.9s-.4.7-.5,1l-.9,4.1c0,.4.2.7.5,1s.6.5.9.5.6,0,1-.3h0Z"/>
        </g>
      </g>
    </g>
  </g>
  <line class="st11" x1="582.9" y1="157.1" x2="17.2" y2="157.1"/>
  <line class="st11" x1="571.6" y1="431.8" x2="16.7" y2="431.8"/>
  <line class="st11" x1="570.9" y1="477.1" x2="17.4" y2="477.1"/>
  <line class="st11" x1="582.9" y1="115.1" x2="17.4" y2="115.1"/>
  <line class="st11" x1="294.2" y1="115.1" x2="294.2" y2="818.1"/>
  <text class="st6" transform="translate(74.2 145.9)"><tspan x="0" y="0">ANTIPASTI</tspan></text>
  <text class="st3" transform="translate(16.9 173.7)"><tspan x="0" y="0">INSALATA DI PIZZA</tspan></text>
  <text class="st4" transform="translate(245 174.4)"><tspan x="0" y="0">30 kr.</tspan></text>
  <text class="st2" transform="translate(16.7 185.8)"><tspan x="0" y="0">White cabbage, oregano, white wine vinegar, </tspan><tspan x="0" y="10">olive oil, salt, black pepper</tspan></text>
  <text class="st3" transform="translate(16.9 224.7)"><tspan x="0" y="0">INSALATA CAPRESE</tspan></text>
  <text class="st4" transform="translate(245 225.4)"><tspan x="0" y="0">65 kr.</tspan></text>
  <text class="st2" transform="translate(16.7 236.8)"><tspan x="0" y="0">Fresh tomatoes, fior di latte, fresh basil, </tspan><tspan x="0" y="10">e.v.olive oil, balsamico, salt and black pepper</tspan></text>
  <text class="st3" transform="translate(16.9 275.8)"><tspan x="0" y="0">PANE ROSMARINO E AGLIO</tspan></text>
  <text class="st4" transform="translate(245 276.4)"><tspan x="0" y="0">45 kr.</tspan></text>
  <text class="st2" transform="translate(16.7 287.9)"><tspan x="0" y="0">Homemade bread, rosemary, garlic </tspan></text>
  <text class="st3" transform="translate(16.9 326.8)"><tspan x="0" y="0">BRUSCHETTA</tspan></text>
  <text class="st4" transform="translate(245 327.5)"><tspan x="0" y="0">65 kr.</tspan></text>
  <text class="st2" transform="translate(16.7 338.9)"><tspan x="0" y="0">Fresh tomatoes, onion, fresh basil, e.v.olive </tspan><tspan x="0" y="10">oil, balsamico, salt, black pepper</tspan></text>
  <text class="st6" transform="translate(110.9 465.2)"><tspan x="0" y="0">PIZZA</tspan></text>
  <text class="st3" transform="translate(16.9 493)"><tspan x="0" y="0">MARGHERITA</tspan></text>
  <text class="st4" transform="translate(245 493.7)"><tspan x="0" y="0">90 kr.</tspan></text>
  <text class="st2" transform="translate(16.7 505.1)"><tspan x="0" y="0">Tomato sauce, mozzarella, fior di latte, fresh </tspan><tspan x="0" y="10">basil</tspan></text>
  <text class="st3" transform="translate(16.9 544)"><tspan x="0" y="0">CAPRICCIOSA</tspan></text>
  <text class="st4" transform="translate(245 544.7)"><tspan x="0" y="0">110 kr.</tspan></text>
  <text class="st2" transform="translate(16.7 556.1)"><tspan x="0" y="0">Tomato sauce, mozzarella, ham, fresh </tspan><tspan x="0" y="10">mushrooms, oregano</tspan></text>
  <text class="st3" transform="translate(16.9 595.1)"><tspan x="0" y="0">SOTTO BOSCO</tspan></text>
  <text class="st4" transform="translate(245 595.7)"><tspan x="0" y="0">125 kr.</tspan></text>
  <text class="st2" transform="translate(16.7 607.2)"><tspan x="0" y="0">Home made truffle cream, mozzarella, </tspan><tspan x="0" y="10">scamorza, fresh mushrooms, red onion, fresh </tspan><tspan x="0" y="20">tomatoes, ruccola, parmesan flakes</tspan></text>
  <text class="st3" transform="translate(16.9 646.1)"><tspan x="0" y="0">VEGETARINA</tspan></text>
  <text class="st4" transform="translate(245 646.7)"><tspan x="0" y="0">110 kr.</tspan></text>
  <text class="st2" transform="translate(16.7 658.2)"><tspan x="0" y="0">Tomato sauce, mozzarella, pesto, ruccola, </tspan><tspan x="0" y="10">fresh mushrooms, olives</tspan></text>
  <text class="st3" transform="translate(16.9 697.1)"><tspan x="0" y="0">PEPPERONI</tspan></text>
  <text class="st4" transform="translate(245 697.8)"><tspan x="0" y="0">110 kr.</tspan></text>
  <text class="st2" transform="translate(16.7 709.2)"><tspan x="0" y="0">Tomato sauce, fior di latte, salami, pepperoni</tspan></text>
  <text class="st3" transform="translate(16.9 748.1)"><tspan x="0" y="0">PARMA / BRESAOLA</tspan></text>
  <text class="st4" transform="translate(245 748.8)"><tspan x="0" y="0">125 kr.</tspan></text>
  <text class="st2" transform="translate(16.7 760.2)"><tspan x="0" y="0">Tomato sauce, mozzarella, prosciutto or </tspan><tspan x="0" y="10">bresaola, ruccola, parmesan</tspan></text>
  <text class="st3" transform="translate(16.9 799.1)"><tspan x="0" y="0">BURRATA</tspan></text>
  <text class="st4" transform="translate(245 799.8)"><tspan x="0" y="0">110 kr.</tspan></text>
  <text class="st2" transform="translate(16.7 811.3)"><tspan x="0" y="0">Tomato sauce, mozzarella, ruccola, burrata, </tspan><tspan x="0" y="10">pesto</tspan></text>
  <text class="st6" transform="translate(366.9 465.2)"><tspan x="0" y="0">DESSERT</tspan></text>
  <text class="st3" transform="translate(307.8 493)"><tspan x="0" y="0">PANNA COTTA</tspan></text>
  <text class="st4" transform="translate(538.1 494.6)"><tspan x="0" y="0">45 kr.</tspan></text>
  <text class="st1" transform="translate(307.6 504.4)"><tspan x="0" y="0">Cream, real vanilla, sugar</tspan></text>
  <text class="st3" transform="translate(307.8 544)"><tspan x="0" y="0">TIRAMISU</tspan></text>
  <text class="st4" transform="translate(538.1 545.6)"><tspan x="0" y="0">45 kr.</tspan></text>
  <text class="st2" transform="translate(307.6 556.1)"><tspan x="0" y="0">Lady fingers, espresso, liqueur, mascarpone, </tspan><tspan x="0" y="10">eggs, chocolate powder</tspan></text>
  <text class="st6" transform="translate(389.6 145.9)"><tspan x="0" y="0">PASTA</tspan></text>
  <text class="st3" transform="translate(310 173.7)"><tspan x="0" y="0">SPAGHETTI BOLOGNESE</tspan></text>
  <text class="st4" transform="translate(519.1 174.4)"><tspan x="0" y="0">90/145kr</tspan></text>
  <text class="st2" transform="translate(309.8 185.8)"><tspan x="0" y="0">Onion,</tspan><tspan class="st17" x="31.7" y="0"> </tspan><tspan class="st13" x="37.9" y="0">celery,</tspan><tspan class="st16" x="66.6" y="0"> </tspan><tspan x="72.8" y="0">garlic,</tspan><tspan class="st17" x="99.9" y="0"> </tspan><tspan class="st13" x="106.1" y="0">tomatosauce,</tspan><tspan class="st16" x="164.3" y="0"> </tspan><tspan x="170.4" y="0">minced </tspan><tspan x="0" y="10">beef, parsley, parmesan</tspan></text>
  <text class="st3" transform="translate(310 224.7)"><tspan x="0" y="0">SPAGHETTI CARBONARA</tspan></text>
  <text class="st4" transform="translate(538.1 225.4)"><tspan x="0" y="0">135 kr.</tspan></text>
  <text class="st2" transform="translate(309.8 236.8)"><tspan x="0" y="0">Guanciale,</tspan><tspan class="st20" x="48" y="0"> </tspan><tspan x="53.7" y="0">eggyolk,</tspan><tspan class="st20" x="89.8" y="0"> </tspan><tspan x="95.4" y="0">garlic,</tspan><tspan class="st20" x="122.6" y="0"> </tspan><tspan x="128.2" y="0">parmesan,</tspan><tspan class="st20" x="174.2" y="0"> </tspan><tspan x="179.8" y="0">black </tspan><tspan x="0" y="10">pepper</tspan></text>
  <text class="st3" transform="translate(310 275.8)"><tspan x="0" y="0">PASTA DELLA CASA</tspan></text>
  <text class="st4" transform="translate(538.1 276.4)"><tspan x="0" y="0">145 kr.</tspan></text>
  <text class="st2" transform="translate(309.8 287.9)"><tspan x="0" y="0">Cream</tspan><tspan class="st22" x="30.7" y="0"> </tspan><tspan x="39.4" y="0">cheese,</tspan><tspan class="st22" x="70.8" y="0"> </tspan><tspan x="79.6" y="0">onion,</tspan><tspan class="st23" x="107.8" y="0"> </tspan><tspan x="116.5" y="0">chili,</tspan><tspan class="st22" x="137.9" y="0"> </tspan><tspan x="146.7" y="0">white</tspan><tspan class="st22" x="170.7" y="0"> </tspan><tspan x="179.5" y="0">wine, </tspan><tspan x="0" y="10">mushroom, bacon, parsley, oregano</tspan></text>
  <text class="st3" transform="translate(310 326.8)"><tspan x="0" y="0">RIGATONI</tspan></text>
  <text class="st4" transform="translate(538.1 327.5)"><tspan x="0" y="0">135 kr.</tspan></text>
  <text class="st2" transform="translate(309.8 338.9)"><tspan x="0" y="0">Tomato</tspan><tspan class="st18" x="35.9" y="0"> </tspan><tspan x="42.3" y="0">sauce,</tspan><tspan class="st18" x="69.1" y="0"> </tspan><tspan x="75.5" y="0">cream,</tspan><tspan class="st19" x="105.8" y="0"> </tspan><tspan x="112.2" y="0">white</tspan><tspan class="st18" x="136.2" y="0"> </tspan><tspan x="142.7" y="0">wine,</tspan><tspan class="st18" x="166.3" y="0"> </tspan><tspan x="172.7" y="0">lemon, </tspan><tspan x="0" y="10">garlic, onion, tuna, mushrooms</tspan></text>
  <text class="st3" transform="translate(310 377.8)"><tspan x="0" y="0">TAGLITELLE DI LINONE</tspan></text>
  <text class="st4" transform="translate(538.1 378.5)"><tspan x="0" y="0">145 kr.</tspan></text>
  <text class="st9" transform="translate(309.8 389.9)"><tspan class="st0"><tspan x="0" y="0">Cream,</tspan><tspan class="st21" x="33.5" y="0"> </tspan><tspan x="44" y="0">butter,</tspan><tspan class="st21" x="73.5" y="0"> </tspan><tspan x="84.1" y="0">lemon,</tspan><tspan class="st21" x="114.4" y="0"> </tspan><tspan x="125" y="0">garlic,</tspan><tspan class="st21" x="152.2" y="0"> </tspan><tspan x="162.7" y="0">jalapeo, </tspan></tspan><tspan class="st0"><tspan x="0" y="10">parsley,</tspan><tspan class="st15" x="33.8" y="10"> </tspan><tspan x="40.8" y="10">onion,</tspan><tspan class="st15" x="69" y="10"> </tspan><tspan x="76" y="10">parmesan,</tspan><tspan class="st15" x="122" y="10"> </tspan><tspan x="129" y="10">rosemary,</tspan><tspan class="st15" x="172.8" y="10"> </tspan><tspan x="179.8" y="10">black </tspan></tspan><tspan class="st0"><tspan x="0" y="20">pepper, </tspan></tspan><tspan class="st0" x="0" y="30">with</tspan><tspan class="st8" x="19.2" y="30"> </tspan><tspan class="st5" x="23.2" y="30">black</tspan><tspan class="st7" x="46.5" y="30"> </tspan><tspan class="st0" x="50.4" y="30">cabbage</tspan><tspan class="st8" x="86.9" y="30"> </tspan><tspan class="st5" x="90.8" y="30">&amp;</tspan><tspan class="st8" x="98.5" y="30"> </tspan><tspan class="st0" x="102.4" y="30">mushrooms,</tspan><tspan class="st8" x="156.8" y="30"> </tspan><tspan class="st25" x="160.7" y="30">or</tspan><tspan class="st24" x="172.2" y="30"> </tspan><tspan class="st0" x="176.1" y="30">bacon</tspan><tspan class="st25" x="203.1" y="30"> </tspan></text>
</svg>