<?xml version="1.0" encoding="UTF-8"?>
<svg xmlns="http://www.w3.org/2000/svg" version="1.1" viewBox="0 0 595.3 841.9">
  <!-- Generator: Adobe Illustrator 29.0.1, SVG Export Plug-In . SVG Version: 2.1.0 Build 192)  -->
  <defs>
    <style>
      .st0 {
        font-size: 10px;
      }

      .st0, .st1, .st2, .st3, .st4 {
        font-family: Baskerville, Baskerville;
      }

      .st0, .st1, .st2, .st3, .st4, .st5, .st6 {
        fill: #fff;
      }

      .st1 {
        font-size: 11px;
      }

      .st2 {
        font-size: 15px;
      }

      .st3 {
        font-size: 16px;
      }

      .st7 {
        fill: #1b1b1b;
      }

      .st8 {
        isolation: isolate;
      }

      .st4 {
        font-size: 30px;
      }

      .st9 {
        stroke-width: .5px;
      }

      .st9, .st10 {
        fill: none;
      }

      .st9, .st10, .st6 {
        stroke: #fff;
        stroke-miterlimit: 10;
      }

      .st10 {
        stroke-linecap: round;
        stroke-width: 3px;
      }
    </style>
  </defs>
  <g id="Layer_2">
    <rect class="st7" x="-.2" y=".3" width="595.3" height="841.9"/>
  </g>
  <g id="Layer_3">
    <line class="st6" x1="582.7" y1="156.5" x2="17" y2="156.5"/>
    <line class="st6" x1="582.7" y1="385.1" x2="16.5" y2="385.1"/>
    <line class="st6" x1="582.7" y1="475.7" x2="17.2" y2="475.7"/>
    <line class="st6" x1="582.7" y1="114.5" x2="17.2" y2="114.5"/>
    <line class="st6" x1="294" y1="114.5" x2="294" y2="591.1"/>
    <line class="st6" x1="582.7" y1="591.1" x2="17.2" y2="591.1"/>
    <line class="st6" x1="582.7" y1="632.8" x2="17.2" y2="632.8"/>
  </g>
  <g id="Layer_1">
    <path class="st5" d="M297.4,92.8c-14.8,0-28.2-8.2-35-21.4l.8-.4c6.6,12.9,19.7,20.9,34.2,20.9s14.4-2,20.5-5.9c6-3.8,10.8-9.1,13.9-15.4l.8.4c-3.2,6.4-8.1,11.9-14.2,15.7-6.3,4-13.5,6-21,6h0Z"/>
    <g class="st8">
      <g class="st8">
        <g class="st8">
          <path class="st5" d="M259.9,31.9h0c0,0,.8.4.8.4l-1.2,2.2h0c0,0,0-.1,0-.1,0-.1.1-.2,0-.3s0-.1,0-.1c0,0-.2-.1-.4-.2l-1.3-.7c-.2-.1-.3-.2-.4-.2,0,0-.1,0-.2,0s-.1.1-.2.2h0c0,0,1-2,1-2l.7.3h0c-.2,0-.4,0-.5,0s-.2,0-.3.1-.1.2-.2.4l-.2.4,1.1.6.2-.3c0-.1.1-.2.1-.3,0,0,0-.1,0-.2s-.1-.1-.2-.2h0c0,0,.9.4.9.4h0c-.1,0-.2,0-.3,0s-.1,0-.2,0c0,0,0,.1-.2.2l-.2.3.6.3c.3.2.5.2.6.2s.2-.1.3-.3v-.2c.2-.1.2-.3.2-.4,0-.1,0-.2,0-.4,0-.1-.2-.3-.4-.4h0Z"/>
        </g>
      </g>
    </g>
    <g class="st8">
      <g class="st8">
        <g class="st8">
          <path class="st5" d="M262.3,27.9l-.7.9v.2c.3.3.4.4.4.5,0,0,.1,0,.2,0,0,0,.1,0,.2-.2h0c0,0-.5.8-.5.8h0c0-.2,0-.3,0-.4,0-.1-.1-.2-.2-.5,0,0,0-.1-.1-.2l-1.2-1.9h0c0,0,2.6.5,2.6.5h.3c0,0,.1,0,.2,0,0,0,.1,0,.2-.2h0c0,0-.7,1-.7,1h0c0-.2.1-.3.1-.3s0-.1,0-.1c0,0-.1,0-.3,0h-.6c0-.1,0-.1,0-.1ZM262.2,27.9l-1.4-.3.7,1.2.6-.9h0Z"/>
        </g>
      </g>
    </g>
    <g class="st8">
      <g class="st8">
        <g class="st8">
          <path class="st5" d="M263.5,24.5h0c0,0-.5-.4-.5-.4l2-2.2.5.5h0c-.2,0-.3-.1-.4-.1-.1,0-.2,0-.2,0s-.1.1-.3.2l-.3.4,1.6,1.4c.2.2.3.3.4.3s.1,0,.2,0,.1,0,.2-.2h.1c0-.1,0,0,0,0l-1,1.1h0c0,0,.1-.2.1-.2,0,0,.1-.2.1-.2s0-.1,0-.2c0,0-.2-.2-.3-.3l-1.6-1.4-.3.3c-.1.1-.2.2-.2.3s0,.1,0,.2.1.2.2.4h0Z"/>
        </g>
      </g>
    </g>
    <g class="st8">
      <g class="st8">
        <g class="st8">
          <path class="st5" d="M269.8,17.5l.4-.3c.3-.3.5-.4.7-.5.4-.3.7-.4,1-.4.3,0,.5,0,.8.1.2.1.4.3.6.6.1.2.2.4.3.6s0,.4,0,.5,0,.3-.2.5c0,.1-.2.3-.3.4s-.3.2-.5.4l-1.1.8h0c0,0,.1-.2.1-.2.1,0,.2-.1.2-.2s0-.1,0-.2c0,0-.1-.2-.3-.4l-.8-1.2c-.1-.2-.2-.3-.3-.4,0,0-.1,0-.2,0s-.1,0-.3.1h0c0,0,0,0,0,0h0ZM270.6,17.1l1.2,1.7c.2.2.3.4.4.5,0,0,.1,0,.2,0s.2,0,.3-.2c.2-.2.4-.3.5-.5.1-.2.1-.4.1-.6s-.1-.5-.3-.8c-.2-.2-.3-.4-.5-.5-.2-.1-.3-.2-.5-.2-.2,0-.3,0-.5,0s-.3.1-.5.3c0,0-.2.1-.3.2h0Z"/>
        </g>
      </g>
    </g>
    <g class="st8">
      <g class="st8">
        <g class="st8">
          <path class="st5" d="M279.1,15.3l-.7.4c-.2,0-.5-.2-1-.4s-.3-.1-.4-.2c-.2,0-.2-.1-.3-.1s-.1,0-.2,0h-.1c0,0,.3.7.3.7.1.2.2.4.2.4s.1,0,.2.1c0,0,.2,0,.3,0h.1c0,0,0,0,0,0l-1.3.7h0c0,0,0-.1,0-.1.1,0,.2-.1.2-.2,0,0,0-.1,0-.2s0-.2-.2-.4l-.7-1.3c-.1-.2-.2-.4-.2-.4s0,0-.1,0-.1,0-.3.1h0s0,0,0,0l.4-.2c.2-.1.5-.3.6-.3.2-.1.5-.2.7-.3s.4,0,.5,0,.3.2.4.3c0,.2.1.4,0,.5s-.2.4-.4.5c.1,0,.4,0,.8.3.4.2.6.3.8.3s.3,0,.5,0h0c0,0,0,.1,0,.1ZM276.4,15c.1,0,.2-.1.3-.2s.2-.1.2-.2.1-.1.1-.2c0,0,0-.2,0-.2s0-.2-.1-.3c-.1-.2-.2-.3-.4-.4s-.4,0-.7.2c0,0-.1,0-.2,0l.7,1.2h0Z"/>
        </g>
      </g>
    </g>
    <g class="st8">
      <g class="st8">
        <g class="st8">
          <path class="st5" d="M280.3,11.6h0c0,0,1.3-.6,1.3-.6h0c0,0,0,0,0,0-.1,0-.2.1-.3.2s0,0,0,.2c0,0,0,.2.2.5l.5,1.4c0,.2.2.4.2.4,0,0,0,.1.1.1,0,0,.2,0,.3,0h0s0,0,0,0l-1.3.5h0c0,0,0-.1,0-.1.1,0,.2,0,.2-.1s0-.1,0-.2c0,0,0-.2-.2-.5l-.5-1.4c0-.2-.2-.4-.2-.4,0,0,0,0-.1-.1,0,0-.2,0-.3,0h0Z"/>
        </g>
      </g>
    </g>
    <g class="st8">
      <g class="st8">
        <g class="st8">
          <path class="st5" d="M287.6,12.4l-2.8-2.2.5,2c0,.2,0,.3.1.3s0,0,.2.1.2,0,.4,0h0c0,.1-1.1.4-1.1.4h0c.1-.2.2-.2.3-.3,0,0,0-.1,0-.2s0-.2,0-.3l-.4-1.6c0-.2-.1-.4-.2-.4,0,0,0-.1-.1-.1,0,0-.2,0-.3,0h0c0-.1.8-.3.8-.3l2.3,1.8-.5-1.8c0-.1,0-.2-.1-.3,0,0-.1,0-.2,0s-.2,0-.3,0h0c0-.1,1-.4,1-.4h0c0,.1-.2.2-.2.2s0,.1-.1.2c0,0,0,.1,0,.3l.6,2.4h0s0,0,0,0Z"/>
        </g>
      </g>
    </g>
    <g class="st8">
      <g class="st8">
        <g class="st8">
          <path class="st5" d="M291.2,10.1l.8-.9c.2-.2.3-.4.3-.4,0-.1-.1-.2-.3-.2h0c0-.1,1.1-.2,1.1-.2h0c0,.1-.2.1-.3.2s-.2.1-.2.2-.2.2-.4.4l-.5.6,1.3,1c.3.2.5.4.6.4s.2,0,.4,0h0c0,.1-1.6.3-1.6.3h0c0-.1,0-.1,0-.1.2,0,.3,0,.3,0,0,0,0,0,0-.1,0,0-.1-.2-.4-.4l-1-.8-.2.2v.5c.1.2.1.4.1.5s0,.1.1.2.1,0,.3,0h0c0,0-1.4.3-1.4.3h0c0-.1,0-.1,0-.1.1,0,.2,0,.3,0,0,0,0,0,0-.2s0-.2,0-.5l-.2-1.5c0-.2,0-.4,0-.5,0,0,0-.1-.1-.1s-.2,0-.3,0h0c0-.1,1.3-.3,1.3-.3h0c0,.1,0,.1,0,.1-.1,0-.2,0-.3,0,0,0,0,0,0,.1s0,.2,0,.5v.8h.1,0Z"/>
        </g>
      </g>
    </g>
    <g class="st8">
      <g class="st8">
        <g class="st8">
          <path class="st5" d="M302.3,8.4v.8h-.1c0-.2,0-.3-.1-.4s-.1-.2-.2-.2-.2,0-.4,0h-.6c0,0-.1,1.2-.1,1.2h.3c.2,0,.3,0,.4,0s.1-.2.1-.4h.1v1.1h-.2v-.3c0,0,0-.1-.1-.2s-.1,0-.3,0h-.3s0,.7,0,.7c0,.2,0,.4,0,.5s0,.1,0,.2.1,0,.3,0h.1c0,.1-1.4,0-1.4,0h0c0-.1.1-.1.1-.1.1,0,.2,0,.3,0s0,0,.1-.1c0,0,0-.2,0-.5v-1.5c.1-.2.1-.4.1-.5s0-.1,0-.2-.1,0-.3,0h0c0-.1,2.3,0,2.3,0h0Z"/>
        </g>
      </g>
    </g>
    <g class="st8">
      <g class="st8">
        <g class="st8">
          <path class="st5" d="M307.1,11.3h.1s-.2.9-.2.9l-2.5-.5h0c0-.1,0-.1,0-.1.1,0,.2,0,.3,0s0,0,.1-.1c0,0,0-.2.1-.5l.3-1.5c0-.2,0-.4,0-.5s0-.1,0-.2c0,0-.1,0-.3-.1h0c0-.1,2.2.3,2.2.3v.8h-.2c0-.2,0-.4,0-.5s-.1-.2-.2-.2-.2,0-.4-.1h-.4c0,0-.2,1.2-.2,1.2h.3c.1.1.2.1.3,0,0,0,.1,0,.1,0,0,0,0-.1,0-.3h.1s-.2,1-.2,1h-.1c0-.2,0-.3,0-.4,0,0,0-.1-.1-.1s-.1,0-.3,0h-.3c0,0-.1.6-.1.6,0,.4,0,.6,0,.6,0,0,.1.1.4.2h.2c.2,0,.3,0,.4,0s.2,0,.3-.2.2-.3.3-.5h0Z"/>
        </g>
      </g>
    </g>
    <g class="st8">
      <g class="st8">
        <g class="st8">
          <path class="st5" d="M312.1,12.8h.1s-.4.9-.4.9l-2.4-.8h0c0,0,0,0,0,0,.1,0,.2,0,.3,0,0,0,0,0,.1-.1s0-.2.2-.4l.5-1.4c0-.2.1-.4.1-.4,0,0,0-.1,0-.2,0,0-.1,0-.3-.1h0c0,0,2.1.6,2.1.6l-.2.7h-.1c0-.2,0-.4,0-.5s-.1-.2-.2-.2-.2-.1-.4-.2h-.4c0-.1-.4,1.1-.4,1.1h.3c.1.2.2.2.3.2,0,0,.1,0,.1,0,0,0,0-.1.1-.3h.1s-.3,1-.3,1h-.1c0-.2,0-.3,0-.4s0-.1,0-.1-.1,0-.2-.1h-.3c0-.1-.2.6-.2.6-.1.3-.2.5-.1.6s.1.1.3.2h.2c.2.1.3.1.4.1s.2,0,.4-.1.2-.2.4-.4h0Z"/>
        </g>
      </g>
    </g>
    <g class="st8">
      <g class="st8">
        <g class="st8">
          <path class="st5" d="M317,15l-.4.8-2.3-1.1h0c0,0,0,0,0,0,.1,0,.2,0,.3,0,0,0,.1,0,.2,0s.1-.2.2-.4l.6-1.3c.1-.2.2-.4.2-.4s0-.1,0-.2c0,0-.1-.1-.2-.2h0s0-.1,0-.1l1.3.6h0c0,0-.1,0-.1,0-.1,0-.2,0-.3,0s-.1,0-.1,0-.1.2-.2.4l-.7,1.4c0,.2-.1.3-.2.4,0,0,0,.1,0,.2s.1.1.3.2h.2c.2.2.3.2.4.2s.2,0,.3,0,.3-.2.4-.4h0s0,0,0,0Z"/>
        </g>
      </g>
    </g>
    <g class="st8">
      <g class="st8">
        <g class="st8">
          <path class="st5" d="M324,19l1,.8h0c-.1,0-.2,0-.3,0s-.1,0-.2,0-.2.2-.3.4l-.2.3s0,0,0,0c0,0-.2-.1-.4-.2-.3,0-.5-.2-.7-.3-.4-.3-.5-.6-.6-1,0-.4,0-.8.3-1.1s.6-.6,1-.7.8,0,1.2.3c.3.2.5.6.5,1,.1,0,.2-.1.3-.2h0c0,0-.6.9-.6.9h0c.2-.4.2-.6.2-.9s-.2-.5-.4-.7c-.2-.2-.5-.2-.8-.2-.3,0-.6.3-.9.7-.3.4-.5.8-.4,1.1,0,.3.2.5.4.7.1,0,.3.2.4.2.1,0,.3,0,.4,0s.2-.1.3-.2c.1-.1.2-.2.2-.3s0-.1,0-.1c0,0,0-.1-.2-.2h0s0-.1,0-.1h0Z"/>
        </g>
      </g>
    </g>
    <g class="st8">
      <g class="st8">
        <g class="st8">
          <path class="st5" d="M327.3,21.4c.3-.3.7-.5,1.1-.5.4,0,.8.2,1.1.5s.5.7.5,1.1c0,.4-.1.8-.5,1.1-.3.3-.7.5-1.1.5-.4,0-.8-.2-1.1-.5-.3-.3-.5-.7-.5-1.1,0-.4.2-.8.5-1.1h0ZM327.7,21.8c-.4.3-.5.7-.6,1s0,.6.4.9c.2.2.5.4.8.3s.6-.2,1-.6c.3-.3.5-.7.6-1s0-.6-.3-.9-.5-.4-.8-.3c-.3,0-.6.2-1,.6h0Z"/>
        </g>
      </g>
    </g>
    <g class="st8">
      <g class="st8">
        <g class="st8">
          <path class="st5" d="M331.5,26c.4-.3.8-.4,1.2-.3.4,0,.8.3,1,.7.3.4.4.8.4,1.2,0,.4-.2.8-.6,1.1-.4.3-.8.4-1.2.3s-.8-.3-1.1-.7c-.3-.4-.4-.8-.4-1.2s.3-.8.7-1.1h0ZM331.8,26.4c-.4.3-.6.6-.7.9s0,.6.2.9c.2.3.5.4.8.4s.7-.1,1.1-.4c.4-.3.6-.6.7-.9,0-.3,0-.6-.2-.9-.2-.3-.5-.4-.8-.5s-.7.1-1,.4h0Z"/>
        </g>
      </g>
    </g>
    <g class="st8">
      <g class="st8">
        <g class="st8">
          <path class="st5" d="M336.3,30.2l.3.4c.2.4.4.6.4.7.2.4.3.7.3,1s0,.5-.2.8c-.1.2-.4.4-.6.5-.2.1-.4.2-.6.2s-.4,0-.5,0c-.2,0-.3-.1-.4-.2s-.2-.2-.3-.3c0-.1-.2-.3-.3-.5l-.7-1.2h0c0,0,0,0,0,0,0,.1.1.2.2.2,0,0,.1,0,.2,0,0,0,.2,0,.4-.2l1.3-.7c.2-.1.4-.2.4-.2s0-.1,0-.1,0-.1-.1-.3h0c0,0,0-.1,0-.1h0ZM336.7,31.1l-1.8,1c-.3.1-.4.2-.5.3s-.1.1-.1.2,0,.2.1.3c.1.2.3.4.4.5.1.1.3.2.6.2.2,0,.5,0,.8-.2.2-.1.4-.3.5-.4s.2-.3.3-.5c0-.2,0-.3,0-.5s-.1-.3-.2-.5c0-.1-.1-.2-.2-.3h0Z"/>
        </g>
      </g>
    </g>
    <g class="st8">
      <g class="st8">
        <g class="st8">
          <path class="st5" d="M259.6,72.8h0c0,0,.7,1.2.7,1.2h0c0,0,0,0,0,0,0-.1-.1-.2-.2-.2,0,0-.1,0-.2,0,0,0-.2,0-.4.2l-1.3.7c-.2.1-.4.2-.4.2,0,0,0,0-.1.2,0,0,0,.2,0,.3h0c0,0,0,.1,0,.1l-.7-1.2h0c0,0,0,0,0,0,0,.1.1.2.2.2,0,0,.1,0,.2,0,0,0,.2,0,.4-.2l1.3-.7c.2-.1.4-.2.4-.2,0,0,0,0,0-.1s0-.1-.1-.3h0c0,0,0,0,0,0Z"/>
        </g>
      </g>
    </g>
    <g class="st8">
      <g class="st8">
        <g class="st8">
          <path class="st5" d="M259.7,78.8l1.3-3.3-1.8,1.1c-.1,0-.2.2-.3.2s0,.1,0,.2,0,.2.1.4h0c0,0-.6-.9-.6-.9h0c0,0,.2.1.2.2,0,0,.1,0,.2,0,0,0,.2,0,.3-.2l1.4-.9c.2-.1.3-.2.4-.3s0-.1,0-.2,0-.1-.1-.3h0c0,0,.5.7.5.7l-1,2.8,1.5-1c.1,0,.2-.1.2-.2s0-.1,0-.2c0,0,0-.2-.1-.3h0c0,0,.6.9.6.9h0c0,0-.2-.1-.2-.2s-.1,0-.2,0-.1,0-.2.1l-2.1,1.3h0c0,0,0,0,0,0Z"/>
        </g>
      </g>
    </g>
    <g class="st8">
      <g class="st8">
        <g class="st8">
          <path class="st5" d="M264,82.2l1.1-.2c.2,0,.3,0,.4-.1,0,0,0,0,0-.2,0,0,0-.2-.1-.3h0c0,0,.7.7.7.7h0c-.1,0-.2,0-.3,0-.1,0-.3,0-.5,0l-1.3.2-.3.3c-.2.2-.3.3-.4.3,0,0,0,.1,0,.2s0,.1.2.3h0c0,0-.8-.9-.8-.9h0c0,0,0,0,0,0,0,.1.2.2.2.2,0,0,.1,0,.2,0,0,0,.2-.1.4-.3l.3-.2.5-1.4c0-.3.1-.5.1-.5s0-.2-.1-.3h0c0,0,.8.9.8.9h0c-.1-.1-.3-.2-.3,0,0,0,0,.1-.1.2l-.4,1.3h0Z"/>
        </g>
      </g>
    </g>
    <g class="st8">
      <g class="st8">
        <g class="st8">
          <path class="st5" d="M265.5,83.6c.3-.3.7-.5,1.1-.5.4,0,.8.2,1.1.5.3.3.5.7.5,1.1s-.1.8-.5,1.1-.7.5-1.1.5-.8-.2-1.2-.5c-.3-.3-.5-.7-.5-1.1,0-.4.1-.8.5-1.1h0ZM265.9,84c-.3.4-.5.7-.6,1,0,.3,0,.6.4.9.2.2.5.3.8.3.3,0,.6-.2,1-.6.3-.3.5-.7.5-1,0-.3,0-.6-.3-.9s-.5-.4-.9-.3-.6.2-1,.6h0Z"/>
        </g>
      </g>
    </g>
    <g class="st8">
      <g class="st8">
        <g class="st8">
          <path class="st5" d="M271.5,87l.8.6h0c-.1,0-.2,0-.3,0s-.2,0-.2,0-.1.1-.2.3l-.6.8c-.2.2-.3.4-.4.4s-.2.1-.4.2c-.1,0-.3,0-.5,0-.2,0-.4-.2-.5-.3-.2-.2-.4-.4-.5-.5s-.1-.4,0-.5.1-.3.3-.5l.2-.2.6-.7c.2-.2.2-.3.3-.4s0-.1,0-.2,0-.1-.2-.2h0s0-.1,0-.1l1.1.9h0c0,0,0,0,0,0-.1,0-.2-.1-.2-.2,0,0-.1,0-.2,0s-.2.2-.3.4l-.6.7c-.2.3-.3.5-.4.6,0,.1,0,.3,0,.4s.2.3.4.5c.1.1.3.2.5.2.2,0,.3,0,.4,0,.1,0,.2,0,.3-.2,0,0,.2-.2.3-.4l.7-.8c.1-.1.2-.2.2-.3,0,0,0-.1,0-.2,0,0,0-.2-.2-.2h0c0,0,0,0,0,0Z"/>
        </g>
      </g>
    </g>
    <g class="st8">
      <g class="st8">
        <g class="st8">
          <path class="st5" d="M274.1,92.4l-.7-.4c0-.2-.1-.5-.1-1,0-.2,0-.3,0-.5,0-.2,0-.3,0-.3s0,0-.1-.1h-.1c0,0-.4.5-.4.5-.1.2-.2.3-.2.4s0,.1,0,.2,0,.1.2.2h.1c0,0,0,.2,0,.2l-1.2-.8h0c0,0,0,0,0,0,.1,0,.2.1.2.1s.1,0,.2,0c0,0,.1-.2.3-.4l.8-1.3c.1-.2.2-.3.2-.4,0,0,0-.1,0-.2s-.1-.1-.2-.2h0s0-.1,0-.1l.4.2c.2.1.4.3.6.4.2.2.4.3.5.5s.2.3.2.5c0,.2,0,.3-.1.5-.1.2-.3.3-.5.3s-.4,0-.7-.1c0,.1.1.4.2.9,0,.4,0,.7.1.8s.2.3.3.4h0ZM273,89.9c0,0,.2.1.3.2s.2.1.3.1.2,0,.2,0,.1,0,.2-.1c0,0,.1-.1.2-.2.1-.2.2-.4.1-.5s-.2-.4-.5-.5c0,0-.1,0-.2,0l-.8,1.2h0Z"/>
        </g>
      </g>
    </g>
    <g class="st8">
      <g class="st8">
        <g class="st8">
          <path class="st5" d="M277.6,92.6c.2-.4.5-.7.9-.8s.8,0,1.3.1c.4.2.7.5.9.9s.2.8,0,1.2c-.2.4-.5.7-.9.8s-.8.1-1.3-.1c-.4-.2-.7-.5-.9-.9-.2-.4-.1-.8,0-1.3h0ZM278,92.8c-.2.4-.3.8-.2,1.1,0,.3.3.5.6.7.3.1.6.1.9,0s.5-.4.7-.9c.2-.4.3-.8.2-1.1s-.3-.5-.6-.7-.6-.2-.9,0c-.3.1-.5.4-.7.9h0Z"/>
        </g>
      </g>
    </g>
    <g class="st8">
      <g class="st8">
        <g class="st8">
          <path class="st5" d="M283.9,96.9h0s0-2.7,0-2.7l-1.6,2.1h-.1s0-2.5,0-2.5v-.5c0,0,0-.1,0-.2s-.1,0-.2-.1h0c0,0,1.1.3,1.1.3h0c-.1,0-.2,0-.3,0,0,0,0,0,0,.1,0,0,0,.2,0,.4v1.9c0,0,1.5-2.1,1.5-2.1h.1s0,2.6,0,2.6l1-1.4c.1-.2.2-.3.2-.4,0-.2,0-.3-.2-.4h0c0,0,.8.2.8.2h0c-.1,0-.2,0-.3.1,0,0-.2.2-.4.5l-1.4,2h0Z"/>
        </g>
      </g>
    </g>
    <g class="st8">
      <g class="st8">
        <g class="st8">
          <path class="st5" d="M288.8,98.1l-1.5-3.2-.4,2.1c0,.2,0,.3,0,.3s0,.1.1.2c0,0,.2.1.3.1h0c0,.1-1.1-.1-1.1-.1h0c.2,0,.3-.1.4-.1,0,0,.1,0,.2-.1,0,0,0-.2,0-.3l.3-1.6c0-.2,0-.4,0-.5s0-.1,0-.2-.1,0-.3-.1h0c0-.1.9,0,.9,0l1.3,2.7.4-1.8c0-.1,0-.2,0-.3,0,0,0-.1-.1-.2,0,0-.2,0-.3-.1h0c0-.1,1.1.1,1.1.1h0c-.1.1-.2.1-.3.1s-.1,0-.2.1c0,0,0,.1,0,.3l-.5,2.5h0s0,0,0,0Z"/>
        </g>
      </g>
    </g>
    <g class="st8">
      <g class="st8">
        <g class="st8">
          <path class="st5" d="M295.2,98.9l-1.9-3-.2,2.1v.4c0,0,0,.1.1.2,0,0,.2,0,.4,0h0c0,.1-1.1,0-1.1,0h0c.2-.1.3-.1.3-.2,0,0,.1,0,.1-.1,0,0,0-.2,0-.4v-1.6c.1-.2.1-.4.1-.5,0,0,0-.1,0-.2,0,0-.2,0-.3,0h0c0-.1.9,0,.9,0l1.6,2.5v-1.8c.1-.1.1-.2.1-.3s0-.1-.2-.1-.2,0-.3,0h0c0-.1,1.1,0,1.1,0h0c-.1.1-.2.1-.3.2s-.1,0-.2.1c0,0,0,.1,0,.3l-.2,2.5h0,0Z"/>
        </g>
      </g>
    </g>
    <g class="st8">
      <g class="st8">
        <g class="st8">
          <path class="st5" d="M299.4,97.9h.1v.9c0,0-2.6,0-2.6,0h0c0-.1,0-.1,0-.1.2,0,.2,0,.3,0,0,0,0,0,0-.2s0-.2,0-.5v-1.5c0-.2,0-.4,0-.5s0-.1,0-.2-.1,0-.3,0h0c0-.1,2.2-.1,2.2-.1v.8c0,0,0,0,0,0,0-.2-.1-.4-.2-.4s-.2-.1-.2-.2c0,0-.2,0-.5,0h-.4v1.3h.3c.1,0,.2,0,.3,0s0,0,.1-.1,0-.2,0-.3h.1v1s0,0,0,0c0-.2,0-.3,0-.3,0,0,0,0-.1-.1,0,0-.1,0-.3,0h-.3v.7c0,.4,0,.6,0,.6,0,0,.2,0,.4,0h.2c.2,0,.3,0,.4,0s.2-.1.3-.3c0-.1.2-.3.2-.5h0Z"/>
        </g>
      </g>
    </g>
    <g class="st8">
      <g class="st8">
        <g class="st8">
          <path class="st5" d="M300.4,95.8h0c0-.1,1.4-.2,1.4-.2h0c0,.1,0,.1,0,.1-.1,0-.2,0-.3,0s0,0,0,.1c0,0,0,.2,0,.5v1.5c.1.2.2.4.2.5,0,0,0,.1.1.2s.1,0,.3,0h0c0,0-1.4.2-1.4.2h0c0-.1,0-.1,0-.1.1,0,.2,0,.3,0s0,0,0-.2c0,0,0-.2,0-.5v-1.5c-.1-.2-.2-.4-.2-.5s0-.1-.1-.1c0,0-.2,0-.3,0h0Z"/>
        </g>
      </g>
    </g>
    <g class="st8">
      <g class="st8">
        <g class="st8">
          <path class="st5" d="M305,96.9l1.3-.2h0c-.1.1-.2.2-.3.2s0,0,0,.2,0,.2,0,.5v.3s0,0,0,0c-.1,0-.3,0-.4.2-.2.1-.5.2-.7.3-.4,0-.8,0-1.1-.2s-.5-.6-.6-1c0-.4,0-.8.2-1.2s.6-.6,1-.7c.4,0,.8,0,1.1.3,0-.1,0-.2,0-.4h.1l.2,1h-.1c0-.3-.2-.5-.5-.7s-.5-.2-.7-.2c-.3,0-.5.2-.7.4s-.2.6-.1,1.2.2.9.5,1.1.5.3.8.2c.2,0,.3,0,.4-.2s.2-.2.2-.3,0-.2,0-.4c0-.2,0-.3,0-.3s0,0-.1,0h-.3c0,0,0,0,0,0Z"/>
        </g>
      </g>
    </g>
    <g class="st8">
      <g class="st8">
        <g class="st8">
          <path class="st5" d="M309.7,95.6l-1.5.4.2.7c0,.2.1.4.1.4,0,0,0,.1.1.1,0,0,.2,0,.3,0h0s0,0,0,0l-1.3.4h0c0-.1,0-.1,0-.1.1,0,.2,0,.2-.1s0-.1,0-.2,0-.2-.1-.5l-.4-1.4c0-.2-.1-.4-.1-.4,0,0,0-.1-.1-.1,0,0-.2,0-.3,0h0c0,0,1.3-.4,1.3-.4h0c0,.1,0,.1,0,.1-.1,0-.2,0-.3.1,0,0,0,0,0,.2s0,.2.1.5l.2.6,1.5-.4-.2-.6c0-.2-.1-.4-.1-.4,0,0,0-.1-.1-.1s-.2,0-.3,0h0s0,0,0,0l1.3-.4h0c0,.1,0,.1,0,.1-.1,0-.2,0-.3.1s0,0,0,.2,0,.2.1.5l.4,1.4c0,.2.1.4.1.4,0,0,0,.1.1.1,0,0,.2,0,.3,0h0c0,0-1.3.5-1.3.5h0c0-.1,0-.1,0-.1.1,0,.2,0,.2-.1,0,0,0-.1,0-.2s0-.2-.1-.5l-.2-.7h0Z"/>
        </g>
      </g>
    </g>
    <g class="st8">
      <g class="st8">
        <g class="st8">
          <path class="st5" d="M312.9,94.4c.3,0,.6-.1.8,0s.4.2.4.4c0,.2,0,.4,0,.5,0,.2-.2.3-.3.4s-.4.2-.6.3l-1.1.4h0c0,0,.1-.1.1-.1.1,0,.2,0,.2-.1,0,0,0-.1,0-.2,0,0,0-.2-.2-.5l-.5-1.4c0-.2-.2-.4-.2-.4s0,0-.1-.1c0,0-.2,0-.3,0h0s0,0,0,0l.5-.2.5-.2c.8-.3,1.3-.2,1.4.2,0,.2,0,.4,0,.5,0,.2-.3.3-.5.5h0ZM312.4,94.5s0,0,0,0c.3-.1.5-.2.6-.4,0-.1,0-.3,0-.5,0-.1-.1-.2-.2-.3s-.2-.1-.3-.1-.3,0-.5.1c0,0-.1,0-.2,0l.4,1.2h0ZM312.5,94.6l.2.6c.1.3.2.4.2.5s0,.1.1.1.1,0,.3,0c.2,0,.4-.2.4-.4,0-.2,0-.4,0-.6,0-.2-.2-.4-.4-.4-.2,0-.4,0-.7,0,0,0-.1,0-.2,0h0Z"/>
        </g>
      </g>
    </g>
    <g class="st8">
      <g class="st8">
        <g class="st8">
          <path class="st5" d="M315.1,93.6c-.2-.4-.2-.8,0-1.2.2-.4.4-.7.9-.9s.8-.3,1.3-.1c.4.1.7.4.9.8.2.4.2.8,0,1.2s-.4.7-.9.9-.8.2-1.3.1c-.4-.1-.7-.4-.9-.8h0ZM315.6,93.4c.2.4.5.7.7.9s.6.1,1,0c.3-.1.5-.4.6-.7,0-.3,0-.7-.2-1.1s-.5-.7-.7-.8-.6-.1-.9,0c-.3.2-.5.4-.6.7,0,.3,0,.7.2,1.1h0Z"/>
        </g>
      </g>
    </g>
    <g class="st8">
      <g class="st8">
        <g class="st8">
          <path class="st5" d="M319.2,91.5c-.2-.4-.3-.8-.2-1.2s.4-.7.8-1,.8-.3,1.2-.3.8.3,1,.7c.2.4.3.8.2,1.2s-.4.7-.8,1c-.4.3-.8.3-1.2.3s-.8-.3-1-.7h0ZM319.6,91.3c.3.4.5.7.8.8s.6,0,.9-.2c.3-.2.5-.4.5-.7,0-.3,0-.7-.3-1.1-.2-.4-.5-.7-.8-.8-.3-.1-.6,0-.9.1-.3.2-.5.4-.5.8,0,.3,0,.7.3,1.1h0Z"/>
        </g>
      </g>
    </g>
    <g class="st8">
      <g class="st8">
        <g class="st8">
          <path class="st5" d="M326.5,88.3l-.7.5c-.2,0-.5,0-1-.2-.2,0-.3,0-.5-.1s-.3,0-.3,0-.1,0-.2,0h0c0,0,.4.6.4.6.1.2.2.3.3.4,0,0,.1,0,.2,0s.1,0,.2-.1h.1c0,0,0,0,0,0l-1.1.9h0c0,0,0-.1,0-.1.1,0,.2-.1.2-.2,0,0,0-.1,0-.2s-.1-.2-.3-.4l-.9-1.2c-.1-.2-.2-.3-.3-.4s-.1,0-.2,0-.1,0-.3.2h0s0,0,0,0l.3-.3c.2-.2.4-.3.5-.4.2-.2.4-.3.6-.4s.4,0,.5,0,.3.1.4.2c.1.2.2.3.1.5s-.1.4-.4.6c.1,0,.4,0,.9.1.4.1.6.2.8.1.2,0,.3,0,.5-.2h0c0,0,0,.1,0,.1ZM323.7,88.5c0,0,.2-.1.3-.2s.2-.2.2-.2c0,0,0-.2,0-.2s0-.2,0-.2,0-.2-.2-.3c-.1-.2-.3-.3-.4-.3s-.4,0-.7.3c0,0,0,0-.1.1l.8,1.1h0Z"/>
        </g>
      </g>
    </g>
    <g class="st8">
      <g class="st8">
        <g class="st8">
          <path class="st5" d="M328.1,84.8l-1.1,1.1.5.5c.2.2.3.3.3.3s.1,0,.2,0c0,0,.1,0,.2-.2h0c0,0,0,0,0,0l-1,.9h0c0,0,0-.1,0-.1,0,0,.1-.2.2-.2,0,0,0-.1,0-.2s-.1-.2-.3-.4l-1-1.1c-.2-.2-.3-.3-.3-.3,0,0-.1,0-.2,0,0,0-.1,0-.2.2h0s0,0,0,0l1-.9h0c0,0,0,.1,0,.1-.1.1-.2.2-.2.2,0,0,0,.1,0,.2,0,0,.1.2.3.4l.4.4,1.1-1.1-.4-.4c-.2-.2-.3-.3-.3-.3s-.1,0-.2,0-.1,0-.2.2h0c0,0,0,0,0,0l1-1h0c0,0,0,.1,0,.1-.1.1-.2.2-.2.2s0,.1,0,.2c0,0,.1.2.3.4l1,1.1c.2.2.3.3.3.3s.1,0,.2,0c0,0,.1,0,.2-.2h0c0,0,0,0,0,0l-1,1h0c0,0,0-.1,0-.1,0,0,.1-.2.2-.2s0-.1,0-.2-.1-.2-.3-.4l-.5-.5h0Z"/>
        </g>
      </g>
    </g>
    <g class="st8">
      <g class="st8">
        <g class="st8">
          <path class="st5" d="M329.5,83.3c-.4-.3-.5-.7-.5-1.1,0-.4.1-.8.4-1.2.3-.4.7-.6,1.1-.6.4,0,.8,0,1.2.4.4.3.5.7.6,1.1s-.1.8-.4,1.2c-.3.4-.7.6-1.1.6s-.8,0-1.2-.4h0ZM329.9,82.9c.4.3.7.5,1,.5s.6-.1.8-.4c.2-.3.3-.5.2-.8,0-.3-.3-.6-.6-.9-.4-.3-.7-.5-1-.5s-.6.1-.8.4c-.2.3-.3.6-.3.9,0,.3.3.6.6.9h0Z"/>
        </g>
      </g>
    </g>
    <g class="st8">
      <g class="st8">
        <g class="st8">
          <path class="st5" d="M332.5,79.8c-.4-.3-.6-.6-.7-1,0-.4,0-.8.3-1.2.3-.4.6-.6,1-.7s.8,0,1.2.3c.4.3.6.6.7,1,0,.4,0,.8-.3,1.2-.3.4-.6.6-1,.7s-.8,0-1.2-.3h0ZM332.8,79.3c.4.3.8.4,1.1.4.3,0,.6-.2.8-.5.2-.3.2-.6.2-.9s-.3-.6-.7-.9-.7-.4-1.1-.4-.6.2-.8.5c-.2.3-.3.6-.2.9s.3.6.7.9h0Z"/>
        </g>
      </g>
    </g>
    <g class="st8">
      <g class="st8">
        <g class="st8">
          <path class="st5" d="M333.7,75.3l.2-.4c.2-.4.3-.6.4-.8.2-.4.4-.7.7-.8.2-.2.5-.2.8-.2s.5,0,.8.2c.2.1.4.2.5.4.1.1.2.3.3.5s0,.3,0,.5,0,.3-.1.4-.1.3-.3.5l-.7,1.2h0c0,0,0-.2,0-.2,0-.1,0-.2,0-.3s0-.1,0-.2-.2-.1-.4-.2l-1.3-.7c-.2-.1-.4-.2-.4-.2,0,0-.1,0-.2,0,0,0-.1.1-.2.2h0c0,0,0,0,0,0h0ZM334.2,74.6l1.8,1c.3.1.4.2.5.3s.2,0,.2,0,.1-.1.2-.3c.1-.2.2-.4.2-.6s0-.4-.2-.6-.3-.4-.6-.5c-.2-.1-.4-.2-.7-.2-.2,0-.4,0-.6,0-.2,0-.3.1-.4.2s-.2.3-.3.5c0,.1-.1.2-.2.3h0Z"/>
        </g>
      </g>
    </g>
    <path class="st5" d="M331.8,36.4c-3.1-6.3-8-11.6-13.9-15.4-6.1-3.9-13.2-5.9-20.5-5.9s-14.4,2-20.5,5.9c-6,3.8-10.8,9.1-13.9,15.4l-.8-.4c3.2-6.4,8.1-11.9,14.2-15.7,6.3-3.9,13.5-6,20.9-6s14.7,2.1,20.9,6c6.1,3.8,11,9.3,14.2,15.7l-.8.4h0Z"/>
    <g class="st8">
      <g class="st8">
        <g class="st8">
          <path class="st5" d="M271.5,71.5v.7c0,.3,0,.5,0,.5,0,0,0,.1.1.2s.2,0,.3,0h.1c0,.1-1.6.1-1.6.1h0c0-.1,0-.1,0-.1.2,0,.2,0,.3,0s0,0,.1-.2,0-.3,0-.6v-1.7c0-.3,0-.5,0-.5s0-.1-.1-.2-.2,0-.4,0h0c0-.1.4-.1.4-.1.4,0,.6,0,.8,0,.4,0,.6,0,.8,0s.4.2.5.3.2.3.2.5,0,.4-.1.5-.2.3-.4.3-.4.1-.8.1h-.4,0ZM271.5,71.4h.2c.2,0,.4,0,.5,0s.2-.1.3-.2.1-.3.1-.5c0-.3,0-.5-.2-.6s-.4-.2-.7-.2-.2,0-.3,0v1.6h0Z"/>
          <path class="st5" d="M275,69.8h0c0-.1,1.6-.1,1.6-.1h0c0,.1,0,.1,0,.1-.2,0-.3,0-.3,0s0,0-.1.2,0,.3,0,.5v1.7c0,.3,0,.5,0,.5,0,0,0,.1.1.2s.2,0,.3,0h.1c0,.1-1.6.1-1.6.1h0c0-.1.1-.1.1-.1.2,0,.2,0,.3,0s0,0,.1-.2,0-.3,0-.6v-1.7c0-.3,0-.5,0-.5s0-.1-.1-.2-.2,0-.4,0h0Z"/>
          <path class="st5" d="M278.4,73.2h0c0,0,2.3-3.4,2.3-3.4h-1.1c-.2,0-.4,0-.5,0s-.2,0-.2.2-.2.3-.2.5h-.1v-.8h2.7c0,.1-2.2,3.4-2.2,3.4h1.1c.4,0,.6,0,.7,0s.2-.2.3-.3.1-.3.2-.4h.1v.9h-3,0Z"/>
          <path class="st5" d="M283.4,73.2h0c0,0,2.3-3.4,2.3-3.4h-1.1c-.2,0-.4,0-.5,0s-.2,0-.2.2-.2.3-.2.5h-.1v-.8h2.7c0,.1-2.2,3.4-2.2,3.4h1.1c.4,0,.6,0,.7,0s.2-.2.3-.3.1-.3.2-.4h.1v.9h-3,0Z"/>
          <path class="st5" d="M290.5,71.9h-1.3v.2c-.2.3-.3.5-.3.6s0,.2.1.2.2,0,.3,0h0c0,.1-1,.1-1,.1h0c.2-.1.3-.2.4-.3,0,0,.2-.3.3-.5,0,0,0-.1.1-.3l1-2.4h.1l1.2,2.8.2.4c0,0,0,.1.1.2s.2,0,.3,0h0c0,.1-1.4.1-1.4.1h0c.2-.1.3-.1.3-.2,0,0,0,0,0-.1s0-.2-.1-.3l-.3-.7h0ZM290.4,71.8l-.6-1.5-.6,1.5h1.2Z"/>
          <path class="st5" d="M296.4,71.9h1.3v.4h-1.3v-.4Z"/>
        </g>
      </g>
      <g class="st8">
        <g class="st8">
          <path class="st5" d="M303.6,71.5v.7c0,.3,0,.5,0,.5,0,0,0,.1.1.2s.2,0,.3,0h.1c0,.1-1.6.1-1.6.1h0c0-.1,0-.1,0-.1.2,0,.2,0,.3,0s0,0,.1-.2c0,0,0-.3,0-.6v-1.7c0-.3,0-.5,0-.5s0-.1-.1-.2-.2,0-.4,0h0c0-.1.4-.1.4-.1.4,0,.6,0,.8,0,.4,0,.6,0,.8,0s.4.2.5.3.2.3.2.5,0,.4-.1.5-.2.3-.4.3-.4.1-.8.1h-.4,0ZM303.6,71.4h.2c.2,0,.4,0,.5,0s.2-.1.3-.2.1-.3.1-.5c0-.3,0-.5-.2-.6s-.4-.2-.7-.2-.2,0-.3,0v1.6h0Z"/>
        </g>
      </g>
      <g class="st8">
        <g class="st8">
          <path class="st5" d="M308.8,71.9h-1.3v.2c-.2.3-.3.5-.3.6s0,.2.1.2c0,0,.2,0,.3,0h0c0,.1-1,.1-1,.1h0c.2-.1.3-.2.4-.3,0,0,.2-.3.3-.5,0,0,0-.1.1-.3l1-2.4h.1l1.2,2.8.2.4c0,0,0,.1.1.2,0,0,.2,0,.3,0h0c0,.1-1.4.1-1.4.1h0c.2-.1.3-.1.3-.2,0,0,0,0,0-.1s0-.2-.1-.3l-.3-.7h0ZM308.7,71.8l-.6-1.5-.6,1.5h1.2Z"/>
          <path class="st5" d="M312,73.1v-1.1h.1c.1.7.5,1.1,1,1.1s.4,0,.6-.2.2-.3.2-.5,0-.3-.2-.4-.3-.2-.7-.4c-.3-.1-.5-.2-.6-.3s-.2-.2-.3-.4-.1-.3-.1-.5c0-.2,0-.5.3-.6s.4-.2.7-.2.3,0,.4,0,.3.1.4.3c0,0,.1-.2.1-.3h.1v.9h-.1c0-.3-.2-.5-.4-.6s-.4-.2-.6-.2-.4,0-.5.2c0,.1-.1.2-.1.4s0,.3.2.4c.1.1.3.2.7.4.3.1.5.2.7.3s.2.2.3.3.1.3.1.5c0,.3-.1.5-.3.7s-.5.3-.8.3-.7-.1-1-.4c0,0-.1.2-.1.3h-.1,0Z"/>
        </g>
      </g>
      <g class="st8">
        <g class="st8">
          <path class="st5" d="M316.3,70.5h-.1v-.8h3.4v.8s0,0,0,0c0-.2,0-.4-.2-.5s-.1-.2-.2-.2-.2,0-.4,0h-.6v2.5c0,.3,0,.5,0,.5s0,.2.1.2.2,0,.3,0h.2c0,.1-1.7.1-1.7.1h0c0-.1.2-.1.2-.1.2,0,.2,0,.3,0s0,0,.1-.2,0-.3,0-.6v-2.5h-.5c-.2,0-.4,0-.5,0s-.2,0-.2.2-.1.3-.2.5h0Z"/>
        </g>
      </g>
      <g class="st8">
        <g class="st8">
          <path class="st5" d="M323.2,71.9h-1.3v.2c-.2.3-.3.5-.3.6s0,.2.1.2c0,0,.2,0,.3,0h0c0,.1-1,.1-1,.1h0c.2-.1.3-.2.4-.3,0,0,.2-.3.3-.5,0,0,0-.1.1-.3l1-2.4h.1l1.2,2.8.2.4c0,0,0,.1.1.2,0,0,.2,0,.3,0h0c0,.1-1.4.1-1.4.1h0c.2-.1.3-.1.3-.2,0,0,0,0,0-.1s0-.2-.1-.3l-.3-.7h0ZM323.2,71.8l-.6-1.5-.6,1.5h1.2Z"/>
        </g>
      </g>
      <g class="st8">
        <g class="st8">
          <path class="st5" d="M285,77.4h1.1c-.1.2-.3.2-.4.3s-.2.3-.3.5c0,.2-.2.4-.2.5.2.3.3.4.4.5.1,0,.2.1.3.1s.3,0,.4-.2h.1c0,.1-.1.3-.2.4s-.2.1-.4.1c-.3,0-.6-.2-.9-.5-.3.3-.6.5-1,.5s-.2,0-.4,0-.2-.1-.3-.2-.2-.2-.2-.3,0-.2,0-.4c0-.2,0-.4.2-.5.1-.1.3-.3.7-.6-.2-.3-.3-.5-.3-.8s0-.3.2-.5c.1-.1.3-.2.5-.2s.4,0,.5.2.2.2.2.4c0,.3-.2.5-.7.8.2.2.3.4.4.6s.3.4.4.6c.1-.1.2-.3.2-.4s0-.3,0-.4c0-.2-.1-.3-.4-.4h0c0-.1,0-.1,0-.1ZM283.9,77.6c-.2.1-.3.2-.4.4-.1.1-.1.3-.1.4,0,.2,0,.4.2.6s.4.3.6.3.5-.1.7-.4c-.2-.3-.4-.5-.5-.8s-.3-.4-.4-.6h0ZM284.1,77.3c.3-.2.5-.4.5-.7s0-.1,0-.2,0-.1,0-.1,0,0-.1,0-.1,0-.2,0c-.1,0-.2,0-.3.1s-.1.2-.1.3.1.4.3.7h0Z"/>
          <path class="st5" d="M293.4,78.9l1.3-2.9h1.1c0,.1-.1.1-.1.1-.2,0-.3,0-.3,0s0,0-.1.2,0,.3,0,.5v1.7c0,.3,0,.5,0,.5,0,0,0,.1.1.2s.2,0,.3,0h.2c0,.1-1.7.1-1.7.1h0c0-.1.1-.1.1-.1.1,0,.2,0,.3,0s0,0,.1-.2,0-.3,0-.6v-2.2l-1.4,3.1h-.1l-1.4-3.1v2c0,.3,0,.5,0,.6s0,.2.2.3.2.1.4.1h0c0,.1-1.3.1-1.3.1h0c.2-.1.3-.2.4-.2s.2-.2.2-.3,0-.3,0-.6v-1.5c0-.3,0-.5,0-.5s0-.1-.1-.2-.2,0-.4,0h0c0-.1,1.1-.1,1.1-.1l1.3,2.9h0Z"/>
          <path class="st5" d="M297.7,77.7c0-.5.2-1,.5-1.3s.8-.5,1.4-.5,1,.2,1.4.5.5.8.5,1.3-.2,1-.5,1.3-.8.5-1.4.5-1-.2-1.4-.5-.5-.8-.5-1.3h0ZM298.2,77.8c0,.6.1,1,.3,1.3s.6.4,1,.4.7-.1.9-.4.4-.7.4-1.3-.1-1-.3-1.3-.5-.4-1-.4-.7.1-1,.4-.3.7-.3,1.3h0Z"/>
          <path class="st5" d="M307.2,79.5h-1c-.2-.1-.4-.4-.8-.9-.1-.2-.2-.3-.4-.5-.1-.1-.2-.2-.2-.3s-.1,0-.2,0h-.1v.8c0,.3,0,.5,0,.5,0,0,0,.1.1.2s.2,0,.3,0h.2c0,.1-1.7.1-1.7.1h0c0-.1.1-.1.1-.1.2,0,.2,0,.3,0s0,0,.1-.2,0-.3,0-.6v-1.7c0-.3,0-.5,0-.5s0-.1-.1-.2-.2,0-.4,0h0c0-.1.5-.1.5-.1.3,0,.6,0,.8,0,.3,0,.6,0,.8,0s.4.2.5.3.2.3.2.5,0,.4-.2.6-.4.3-.7.3c.1,0,.4.3.7.8.3.4.5.6.6.7s.3.2.5.2h0c0,.1,0,.1,0,.1ZM304.5,77.7h.4c.1,0,.3,0,.4,0s.2,0,.2-.1.1-.1.1-.2,0-.2,0-.4c0-.2,0-.4-.2-.6s-.4-.2-.8-.2-.1,0-.2,0v1.6h0Z"/>
          <path class="st5" d="M311.8,78.4h.1v1.1h-3c0-.1,0-.1,0-.1.2,0,.3,0,.3,0s0-.1,0-.2,0-.2,0-.5v-1.7c0-.3,0-.4,0-.5s0-.1-.1-.2c0,0-.2,0-.3,0h0c0-.1,2.5-.1,2.5-.1v.9c0,0,0,0,0,0,0-.2-.1-.4-.2-.5s-.2-.2-.3-.2-.3,0-.5,0h-.5v1.5h.4c.2,0,.3,0,.4,0s.1,0,.1-.1c0,0,0-.2,0-.4h.1v1.2h-.1c0-.2,0-.3,0-.4s0-.1-.1-.1-.2,0-.3,0h-.4v.8c0,.4,0,.7,0,.7,0,0,.2.1.4.1h.3c.2,0,.3,0,.5,0s.2-.1.3-.3c.1-.1.2-.4.2-.6h0Z"/>
        </g>
      </g>
    </g>
    <path class="st5" d="M297.4,92.8c-14.8,0-28.2-8.2-35-21.4l.8-.4c6.6,12.9,19.7,20.9,34.2,20.9s14.4-2,20.5-5.9c6-3.8,10.8-9.1,13.9-15.4l.8.4c-3.2,6.4-8.1,11.9-14.2,15.7-6.3,4-13.5,6-21,6h0Z"/>
    <g class="st8">
      <g class="st8">
        <g class="st8">
          <path class="st5" d="M259.9,31.9h0c0,0,.8.4.8.4l-1.2,2.2h0c0,0,0-.1,0-.1,0-.1.1-.2,0-.3s0-.1,0-.1c0,0-.2-.1-.4-.2l-1.3-.7c-.2-.1-.3-.2-.4-.2,0,0-.1,0-.2,0s-.1.1-.2.2h0c0,0,1-2,1-2l.7.3h0c-.2,0-.4,0-.5,0s-.2,0-.3.1-.1.2-.2.4l-.2.4,1.1.6.2-.3c0-.1.1-.2.1-.3,0,0,0-.1,0-.2s-.1-.1-.2-.2h0c0,0,.9.4.9.4h0c-.1,0-.2,0-.3,0s-.1,0-.2,0c0,0,0,.1-.2.2l-.2.3.6.3c.3.2.5.2.6.2s.2-.1.3-.3v-.2c.2-.1.2-.3.2-.4,0-.1,0-.2,0-.4,0-.1-.2-.3-.4-.4h0Z"/>
        </g>
      </g>
    </g>
    <g class="st8">
      <g class="st8">
        <g class="st8">
          <path class="st5" d="M262.3,27.9l-.7.9v.2c.3.3.4.4.4.5,0,0,.1,0,.2,0,0,0,.1,0,.2-.2h0c0,0-.5.8-.5.8h0c0-.2,0-.3,0-.4,0-.1-.1-.2-.2-.5,0,0,0-.1-.1-.2l-1.2-1.9h0c0,0,2.6.5,2.6.5h.3c0,0,.1,0,.2,0,0,0,.1,0,.2-.2h0c0,0-.7,1-.7,1h0c0-.2.1-.3.1-.3s0-.1,0-.1c0,0-.1,0-.3,0h-.6c0-.1,0-.1,0-.1ZM262.2,27.9l-1.4-.3.7,1.2.6-.9h0Z"/>
        </g>
      </g>
    </g>
    <g class="st8">
      <g class="st8">
        <g class="st8">
          <path class="st5" d="M263.5,24.5h0c0,0-.5-.4-.5-.4l2-2.2.5.5h0c-.2,0-.3-.1-.4-.1-.1,0-.2,0-.2,0s-.1.1-.3.2l-.3.4,1.6,1.4c.2.2.3.3.4.3s.1,0,.2,0,.1,0,.2-.2h.1c0-.1,0,0,0,0l-1,1.1h0c0,0,.1-.2.1-.2,0,0,.1-.2.1-.2s0-.1,0-.2c0,0-.2-.2-.3-.3l-1.6-1.4-.3.3c-.1.1-.2.2-.2.3s0,.1,0,.2.1.2.2.4h0Z"/>
        </g>
      </g>
    </g>
    <g class="st8">
      <g class="st8">
        <g class="st8">
          <path class="st5" d="M269.8,17.5l.4-.3c.3-.3.5-.4.7-.5.4-.3.7-.4,1-.4.3,0,.5,0,.8.1.2.1.4.3.6.6.1.2.2.4.3.6s0,.4,0,.5,0,.3-.2.5c0,.1-.2.3-.3.4s-.3.2-.5.4l-1.1.8h0c0,0,.1-.2.1-.2.1,0,.2-.1.2-.2s0-.1,0-.2c0,0-.1-.2-.3-.4l-.8-1.2c-.1-.2-.2-.3-.3-.4,0,0-.1,0-.2,0s-.1,0-.3.1h0c0,0,0,0,0,0h0ZM270.6,17.1l1.2,1.7c.2.2.3.4.4.5,0,0,.1,0,.2,0s.2,0,.3-.2c.2-.2.4-.3.5-.5.1-.2.1-.4.1-.6s-.1-.5-.3-.8c-.2-.2-.3-.4-.5-.5-.2-.1-.3-.2-.5-.2-.2,0-.3,0-.5,0s-.3.1-.5.3c0,0-.2.1-.3.2h0Z"/>
        </g>
      </g>
    </g>
    <g class="st8">
      <g class="st8">
        <g class="st8">
          <path class="st5" d="M279.1,15.3l-.7.4c-.2,0-.5-.2-1-.4s-.3-.1-.4-.2c-.2,0-.2-.1-.3-.1s-.1,0-.2,0h-.1c0,0,.3.7.3.7.1.2.2.4.2.4s.1,0,.2.1c0,0,.2,0,.3,0h.1c0,0,0,0,0,0l-1.3.7h0c0,0,0-.1,0-.1.1,0,.2-.1.2-.2,0,0,0-.1,0-.2s0-.2-.2-.4l-.7-1.3c-.1-.2-.2-.4-.2-.4s0,0-.1,0-.1,0-.3.1h0s0,0,0,0l.4-.2c.2-.1.5-.3.6-.3.2-.1.5-.2.7-.3s.4,0,.5,0,.3.2.4.3c0,.2.1.4,0,.5s-.2.4-.4.5c.1,0,.4,0,.8.3.4.2.6.3.8.3s.3,0,.5,0h0c0,0,0,.1,0,.1ZM276.4,15c.1,0,.2-.1.3-.2s.2-.1.2-.2.1-.1.1-.2c0,0,0-.2,0-.2s0-.2-.1-.3c-.1-.2-.2-.3-.4-.4s-.4,0-.7.2c0,0-.1,0-.2,0l.7,1.2h0Z"/>
        </g>
      </g>
    </g>
    <g class="st8">
      <g class="st8">
        <g class="st8">
          <path class="st5" d="M280.3,11.6h0c0,0,1.3-.6,1.3-.6h0c0,0,0,0,0,0-.1,0-.2.1-.3.2s0,0,0,.2c0,0,0,.2.2.5l.5,1.4c0,.2.2.4.2.4,0,0,0,.1.1.1,0,0,.2,0,.3,0h0s0,0,0,0l-1.3.5h0c0,0,0-.1,0-.1.1,0,.2,0,.2-.1s0-.1,0-.2c0,0,0-.2-.2-.5l-.5-1.4c0-.2-.2-.4-.2-.4,0,0,0,0-.1-.1,0,0-.2,0-.3,0h0Z"/>
        </g>
      </g>
    </g>
    <g class="st8">
      <g class="st8">
        <g class="st8">
          <path class="st5" d="M287.6,12.4l-2.8-2.2.5,2c0,.2,0,.3.1.3s0,0,.2.1.2,0,.4,0h0c0,.1-1.1.4-1.1.4h0c.1-.2.2-.2.3-.3,0,0,0-.1,0-.2s0-.2,0-.3l-.4-1.6c0-.2-.1-.4-.2-.4,0,0,0-.1-.1-.1,0,0-.2,0-.3,0h0c0-.1.8-.3.8-.3l2.3,1.8-.5-1.8c0-.1,0-.2-.1-.3,0,0-.1,0-.2,0s-.2,0-.3,0h0c0-.1,1-.4,1-.4h0c0,.1-.2.2-.2.2s0,.1-.1.2c0,0,0,.1,0,.3l.6,2.4h0s0,0,0,0Z"/>
        </g>
      </g>
    </g>
    <g class="st8">
      <g class="st8">
        <g class="st8">
          <path class="st5" d="M291.2,10.1l.8-.9c.2-.2.3-.4.3-.4,0-.1-.1-.2-.3-.2h0c0-.1,1.1-.2,1.1-.2h0c0,.1-.2.1-.3.2s-.2.1-.2.2-.2.2-.4.4l-.5.6,1.3,1c.3.2.5.4.6.4s.2,0,.4,0h0c0,.1-1.6.3-1.6.3h0c0-.1,0-.1,0-.1.2,0,.3,0,.3,0,0,0,0,0,0-.1,0,0-.1-.2-.4-.4l-1-.8-.2.2v.5c.1.2.1.4.1.5s0,.1.1.2.1,0,.3,0h0c0,0-1.4.3-1.4.3h0c0-.1,0-.1,0-.1.1,0,.2,0,.3,0,0,0,0,0,0-.2s0-.2,0-.5l-.2-1.5c0-.2,0-.4,0-.5,0,0,0-.1-.1-.1s-.2,0-.3,0h0c0-.1,1.3-.3,1.3-.3h0c0,.1,0,.1,0,.1-.1,0-.2,0-.3,0,0,0,0,0,0,.1s0,.2,0,.5v.8h.1,0Z"/>
        </g>
      </g>
    </g>
    <g class="st8">
      <g class="st8">
        <g class="st8">
          <path class="st5" d="M302.3,8.4v.8h-.1c0-.2,0-.3-.1-.4s-.1-.2-.2-.2-.2,0-.4,0h-.6c0,0-.1,1.2-.1,1.2h.3c.2,0,.3,0,.4,0s.1-.2.1-.4h.1v1.1h-.2v-.3c0,0,0-.1-.1-.2s-.1,0-.3,0h-.3s0,.7,0,.7c0,.2,0,.4,0,.5s0,.1,0,.2.1,0,.3,0h.1c0,.1-1.4,0-1.4,0h0c0-.1.1-.1.1-.1.1,0,.2,0,.3,0s0,0,.1-.1c0,0,0-.2,0-.5v-1.5c.1-.2.1-.4.1-.5s0-.1,0-.2-.1,0-.3,0h0c0-.1,2.3,0,2.3,0h0Z"/>
        </g>
      </g>
    </g>
    <g class="st8">
      <g class="st8">
        <g class="st8">
          <path class="st5" d="M307.1,11.3h.1s-.2.9-.2.9l-2.5-.5h0c0-.1,0-.1,0-.1.1,0,.2,0,.3,0s0,0,.1-.1c0,0,0-.2.1-.5l.3-1.5c0-.2,0-.4,0-.5s0-.1,0-.2c0,0-.1,0-.3-.1h0c0-.1,2.2.3,2.2.3v.8h-.2c0-.2,0-.4,0-.5s-.1-.2-.2-.2-.2,0-.4-.1h-.4c0,0-.2,1.2-.2,1.2h.3c.1.1.2.1.3,0,0,0,.1,0,.1,0,0,0,0-.1,0-.3h.1s-.2,1-.2,1h-.1c0-.2,0-.3,0-.4,0,0,0-.1-.1-.1s-.1,0-.3,0h-.3c0,0-.1.6-.1.6,0,.4,0,.6,0,.6,0,0,.1.1.4.2h.2c.2,0,.3,0,.4,0s.2,0,.3-.2.2-.3.3-.5h0Z"/>
        </g>
      </g>
    </g>
    <g class="st8">
      <g class="st8">
        <g class="st8">
          <path class="st5" d="M312.1,12.8h.1s-.4.9-.4.9l-2.4-.8h0c0,0,0,0,0,0,.1,0,.2,0,.3,0,0,0,0,0,.1-.1s0-.2.2-.4l.5-1.4c0-.2.1-.4.1-.4,0,0,0-.1,0-.2,0,0-.1,0-.3-.1h0c0,0,2.1.6,2.1.6l-.2.7h-.1c0-.2,0-.4,0-.5s-.1-.2-.2-.2-.2-.1-.4-.2h-.4c0-.1-.4,1.1-.4,1.1h.3c.1.2.2.2.3.2,0,0,.1,0,.1,0,0,0,0-.1.1-.3h.1s-.3,1-.3,1h-.1c0-.2,0-.3,0-.4s0-.1,0-.1-.1,0-.2-.1h-.3c0-.1-.2.6-.2.6-.1.3-.2.5-.1.6s.1.1.3.2h.2c.2.1.3.1.4.1s.2,0,.4-.1.2-.2.4-.4h0Z"/>
        </g>
      </g>
    </g>
    <g class="st8">
      <g class="st8">
        <g class="st8">
          <path class="st5" d="M317,15l-.4.8-2.3-1.1h0c0,0,0,0,0,0,.1,0,.2,0,.3,0,0,0,.1,0,.2,0s.1-.2.2-.4l.6-1.3c.1-.2.2-.4.2-.4s0-.1,0-.2c0,0-.1-.1-.2-.2h0s0-.1,0-.1l1.3.6h0c0,0-.1,0-.1,0-.1,0-.2,0-.3,0s-.1,0-.1,0-.1.2-.2.4l-.7,1.4c0,.2-.1.3-.2.4,0,0,0,.1,0,.2s.1.1.3.2h.2c.2.2.3.2.4.2s.2,0,.3,0,.3-.2.4-.4h0s0,0,0,0Z"/>
        </g>
      </g>
    </g>
    <g class="st8">
      <g class="st8">
        <g class="st8">
          <path class="st5" d="M324,19l1,.8h0c-.1,0-.2,0-.3,0s-.1,0-.2,0-.2.2-.3.4l-.2.3s0,0,0,0c0,0-.2-.1-.4-.2-.3,0-.5-.2-.7-.3-.4-.3-.5-.6-.6-1,0-.4,0-.8.3-1.1s.6-.6,1-.7.8,0,1.2.3c.3.2.5.6.5,1,.1,0,.2-.1.3-.2h0c0,0-.6.9-.6.9h0c.2-.4.2-.6.2-.9s-.2-.5-.4-.7c-.2-.2-.5-.2-.8-.2-.3,0-.6.3-.9.7-.3.4-.5.8-.4,1.1,0,.3.2.5.4.7.1,0,.3.2.4.2.1,0,.3,0,.4,0s.2-.1.3-.2c.1-.1.2-.2.2-.3s0-.1,0-.1c0,0,0-.1-.2-.2h0s0-.1,0-.1h0Z"/>
        </g>
      </g>
    </g>
    <g class="st8">
      <g class="st8">
        <g class="st8">
          <path class="st5" d="M327.3,21.4c.3-.3.7-.5,1.1-.5.4,0,.8.2,1.1.5s.5.7.5,1.1c0,.4-.1.8-.5,1.1-.3.3-.7.5-1.1.5-.4,0-.8-.2-1.1-.5-.3-.3-.5-.7-.5-1.1,0-.4.2-.8.5-1.1h0ZM327.7,21.8c-.4.3-.5.7-.6,1s0,.6.4.9c.2.2.5.4.8.3s.6-.2,1-.6c.3-.3.5-.7.6-1s0-.6-.3-.9-.5-.4-.8-.3c-.3,0-.6.2-1,.6h0Z"/>
        </g>
      </g>
    </g>
    <g class="st8">
      <g class="st8">
        <g class="st8">
          <path class="st5" d="M331.5,26c.4-.3.8-.4,1.2-.3.4,0,.8.3,1,.7.3.4.4.8.4,1.2,0,.4-.2.8-.6,1.1-.4.3-.8.4-1.2.3s-.8-.3-1.1-.7c-.3-.4-.4-.8-.4-1.2s.3-.8.7-1.1h0ZM331.8,26.4c-.4.3-.6.6-.7.9s0,.6.2.9c.2.3.5.4.8.4s.7-.1,1.1-.4c.4-.3.6-.6.7-.9,0-.3,0-.6-.2-.9-.2-.3-.5-.4-.8-.5s-.7.1-1,.4h0Z"/>
        </g>
      </g>
    </g>
    <g class="st8">
      <g class="st8">
        <g class="st8">
          <path class="st5" d="M336.3,30.2l.3.4c.2.4.4.6.4.7.2.4.3.7.3,1s0,.5-.2.8c-.1.2-.4.4-.6.5-.2.1-.4.2-.6.2s-.4,0-.5,0c-.2,0-.3-.1-.4-.2s-.2-.2-.3-.3c0-.1-.2-.3-.3-.5l-.7-1.2h0c0,0,0,0,0,0,0,.1.1.2.2.2,0,0,.1,0,.2,0,0,0,.2,0,.4-.2l1.3-.7c.2-.1.4-.2.4-.2s0-.1,0-.1,0-.1-.1-.3h0c0,0,0-.1,0-.1h0ZM336.7,31.1l-1.8,1c-.3.1-.4.2-.5.3s-.1.1-.1.2,0,.2.1.3c.1.2.3.4.4.5.1.1.3.2.6.2.2,0,.5,0,.8-.2.2-.1.4-.3.5-.4s.2-.3.3-.5c0-.2,0-.3,0-.5s-.1-.3-.2-.5c0-.1-.1-.2-.2-.3h0Z"/>
        </g>
      </g>
    </g>
    <g class="st8">
      <g class="st8">
        <g class="st8">
          <path class="st5" d="M259.6,72.8h0c0,0,.7,1.2.7,1.2h0c0,0,0,0,0,0,0-.1-.1-.2-.2-.2,0,0-.1,0-.2,0,0,0-.2,0-.4.2l-1.3.7c-.2.1-.4.2-.4.2,0,0,0,0-.1.2,0,0,0,.2,0,.3h0c0,0,0,.1,0,.1l-.7-1.2h0c0,0,0,0,0,0,0,.1.1.2.2.2,0,0,.1,0,.2,0,0,0,.2,0,.4-.2l1.3-.7c.2-.1.4-.2.4-.2,0,0,0,0,0-.1s0-.1-.1-.3h0c0,0,0,0,0,0Z"/>
        </g>
      </g>
    </g>
    <g class="st8">
      <g class="st8">
        <g class="st8">
          <path class="st5" d="M259.7,78.8l1.3-3.3-1.8,1.1c-.1,0-.2.2-.3.2s0,.1,0,.2,0,.2.1.4h0c0,0-.6-.9-.6-.9h0c0,0,.2.1.2.2,0,0,.1,0,.2,0,0,0,.2,0,.3-.2l1.4-.9c.2-.1.3-.2.4-.3s0-.1,0-.2,0-.1-.1-.3h0c0,0,.5.7.5.7l-1,2.8,1.5-1c.1,0,.2-.1.2-.2s0-.1,0-.2c0,0,0-.2-.1-.3h0c0,0,.6.9.6.9h0c0,0-.2-.1-.2-.2s-.1,0-.2,0-.1,0-.2.1l-2.1,1.3h0c0,0,0,0,0,0Z"/>
        </g>
      </g>
    </g>
    <g class="st8">
      <g class="st8">
        <g class="st8">
          <path class="st5" d="M264,82.2l1.1-.2c.2,0,.3,0,.4-.1,0,0,0,0,0-.2,0,0,0-.2-.1-.3h0c0,0,.7.7.7.7h0c-.1,0-.2,0-.3,0-.1,0-.3,0-.5,0l-1.3.2-.3.3c-.2.2-.3.3-.4.3,0,0,0,.1,0,.2s0,.1.2.3h0c0,0-.8-.9-.8-.9h0c0,0,0,0,0,0,0,.1.2.2.2.2,0,0,.1,0,.2,0,0,0,.2-.1.4-.3l.3-.2.5-1.4c0-.3.1-.5.1-.5s0-.2-.1-.3h0c0,0,.8.9.8.9h0c-.1-.1-.3-.2-.3,0,0,0,0,.1-.1.2l-.4,1.3h0Z"/>
        </g>
      </g>
    </g>
    <g class="st8">
      <g class="st8">
        <g class="st8">
          <path class="st5" d="M265.5,83.6c.3-.3.7-.5,1.1-.5.4,0,.8.2,1.1.5.3.3.5.7.5,1.1s-.1.8-.5,1.1-.7.5-1.1.5-.8-.2-1.2-.5c-.3-.3-.5-.7-.5-1.1,0-.4.1-.8.5-1.1h0ZM265.9,84c-.3.4-.5.7-.6,1,0,.3,0,.6.4.9.2.2.5.3.8.3.3,0,.6-.2,1-.6.3-.3.5-.7.5-1,0-.3,0-.6-.3-.9s-.5-.4-.9-.3-.6.2-1,.6h0Z"/>
        </g>
      </g>
    </g>
    <g class="st8">
      <g class="st8">
        <g class="st8">
          <path class="st5" d="M271.5,87l.8.6h0c-.1,0-.2,0-.3,0s-.2,0-.2,0-.1.1-.2.3l-.6.8c-.2.2-.3.4-.4.4s-.2.1-.4.2c-.1,0-.3,0-.5,0-.2,0-.4-.2-.5-.3-.2-.2-.4-.4-.5-.5s-.1-.4,0-.5.1-.3.3-.5l.2-.2.6-.7c.2-.2.2-.3.3-.4s0-.1,0-.2,0-.1-.2-.2h0s0-.1,0-.1l1.1.9h0c0,0,0,0,0,0-.1,0-.2-.1-.2-.2,0,0-.1,0-.2,0s-.2.2-.3.4l-.6.7c-.2.3-.3.5-.4.6,0,.1,0,.3,0,.4s.2.3.4.5c.1.1.3.2.5.2.2,0,.3,0,.4,0,.1,0,.2,0,.3-.2,0,0,.2-.2.3-.4l.7-.8c.1-.1.2-.2.2-.3,0,0,0-.1,0-.2,0,0,0-.2-.2-.2h0c0,0,0,0,0,0Z"/>
        </g>
      </g>
    </g>
    <g class="st8">
      <g class="st8">
        <g class="st8">
          <path class="st5" d="M274.1,92.4l-.7-.4c0-.2-.1-.5-.1-1,0-.2,0-.3,0-.5,0-.2,0-.3,0-.3s0,0-.1-.1h-.1c0,0-.4.5-.4.5-.1.2-.2.3-.2.4s0,.1,0,.2,0,.1.2.2h.1c0,0,0,.2,0,.2l-1.2-.8h0c0,0,0,0,0,0,.1,0,.2.1.2.1s.1,0,.2,0c0,0,.1-.2.3-.4l.8-1.3c.1-.2.2-.3.2-.4,0,0,0-.1,0-.2s-.1-.1-.2-.2h0s0-.1,0-.1l.4.2c.2.1.4.3.6.4.2.2.4.3.5.5s.2.3.2.5c0,.2,0,.3-.1.5-.1.2-.3.3-.5.3s-.4,0-.7-.1c0,.1.1.4.2.9,0,.4,0,.7.1.8s.2.3.3.4h0ZM273,89.9c0,0,.2.1.3.2s.2.1.3.1.2,0,.2,0,.1,0,.2-.1c0,0,.1-.1.2-.2.1-.2.2-.4.1-.5s-.2-.4-.5-.5c0,0-.1,0-.2,0l-.8,1.2h0Z"/>
        </g>
      </g>
    </g>
    <g class="st8">
      <g class="st8">
        <g class="st8">
          <path class="st5" d="M277.6,92.6c.2-.4.5-.7.9-.8s.8,0,1.3.1c.4.2.7.5.9.9s.2.8,0,1.2c-.2.4-.5.7-.9.8s-.8.1-1.3-.1c-.4-.2-.7-.5-.9-.9-.2-.4-.1-.8,0-1.3h0ZM278,92.8c-.2.4-.3.8-.2,1.1,0,.3.3.5.6.7.3.1.6.1.9,0s.5-.4.7-.9c.2-.4.3-.8.2-1.1s-.3-.5-.6-.7-.6-.2-.9,0c-.3.1-.5.4-.7.9h0Z"/>
        </g>
      </g>
    </g>
    <g class="st8">
      <g class="st8">
        <g class="st8">
          <path class="st5" d="M283.9,96.9h0s0-2.7,0-2.7l-1.6,2.1h-.1s0-2.5,0-2.5v-.5c0,0,0-.1,0-.2s-.1,0-.2-.1h0c0,0,1.1.3,1.1.3h0c-.1,0-.2,0-.3,0,0,0,0,0,0,.1,0,0,0,.2,0,.4v1.9c0,0,1.5-2.1,1.5-2.1h.1s0,2.6,0,2.6l1-1.4c.1-.2.2-.3.2-.4,0-.2,0-.3-.2-.4h0c0,0,.8.2.8.2h0c-.1,0-.2,0-.3.1,0,0-.2.2-.4.5l-1.4,2h0Z"/>
        </g>
      </g>
    </g>
    <g class="st8">
      <g class="st8">
        <g class="st8">
          <path class="st5" d="M288.8,98.1l-1.5-3.2-.4,2.1c0,.2,0,.3,0,.3s0,.1.1.2c0,0,.2.1.3.1h0c0,.1-1.1-.1-1.1-.1h0c.2,0,.3-.1.4-.1,0,0,.1,0,.2-.1,0,0,0-.2,0-.3l.3-1.6c0-.2,0-.4,0-.5s0-.1,0-.2-.1,0-.3-.1h0c0-.1.9,0,.9,0l1.3,2.7.4-1.8c0-.1,0-.2,0-.3,0,0,0-.1-.1-.2,0,0-.2,0-.3-.1h0c0-.1,1.1.1,1.1.1h0c-.1.1-.2.1-.3.1s-.1,0-.2.1c0,0,0,.1,0,.3l-.5,2.5h0s0,0,0,0Z"/>
        </g>
      </g>
    </g>
    <g class="st8">
      <g class="st8">
        <g class="st8">
          <path class="st5" d="M295.2,98.9l-1.9-3-.2,2.1v.4c0,0,0,.1.1.2,0,0,.2,0,.4,0h0c0,.1-1.1,0-1.1,0h0c.2-.1.3-.1.3-.2,0,0,.1,0,.1-.1,0,0,0-.2,0-.4v-1.6c.1-.2.1-.4.1-.5,0,0,0-.1,0-.2,0,0-.2,0-.3,0h0c0-.1.9,0,.9,0l1.6,2.5v-1.8c.1-.1.1-.2.1-.3s0-.1-.2-.1-.2,0-.3,0h0c0-.1,1.1,0,1.1,0h0c-.1.1-.2.1-.3.2s-.1,0-.2.1c0,0,0,.1,0,.3l-.2,2.5h0,0Z"/>
        </g>
      </g>
    </g>
    <g class="st8">
      <g class="st8">
        <g class="st8">
          <path class="st5" d="M299.4,97.9h.1v.9c0,0-2.6,0-2.6,0h0c0-.1,0-.1,0-.1.2,0,.2,0,.3,0,0,0,0,0,0-.2s0-.2,0-.5v-1.5c0-.2,0-.4,0-.5s0-.1,0-.2-.1,0-.3,0h0c0-.1,2.2-.1,2.2-.1v.8c0,0,0,0,0,0,0-.2-.1-.4-.2-.4s-.2-.1-.2-.2c0,0-.2,0-.5,0h-.4v1.3h.3c.1,0,.2,0,.3,0s0,0,.1-.1,0-.2,0-.3h.1v1s0,0,0,0c0-.2,0-.3,0-.3,0,0,0,0-.1-.1,0,0-.1,0-.3,0h-.3v.7c0,.4,0,.6,0,.6,0,0,.2,0,.4,0h.2c.2,0,.3,0,.4,0s.2-.1.3-.3c0-.1.2-.3.2-.5h0Z"/>
        </g>
      </g>
    </g>
    <g class="st8">
      <g class="st8">
        <g class="st8">
          <path class="st5" d="M300.4,95.8h0c0-.1,1.4-.2,1.4-.2h0c0,.1,0,.1,0,.1-.1,0-.2,0-.3,0s0,0,0,.1c0,0,0,.2,0,.5v1.5c.1.2.2.4.2.5,0,0,0,.1.1.2s.1,0,.3,0h0c0,0-1.4.2-1.4.2h0c0-.1,0-.1,0-.1.1,0,.2,0,.3,0s0,0,0-.2c0,0,0-.2,0-.5v-1.5c-.1-.2-.2-.4-.2-.5s0-.1-.1-.1c0,0-.2,0-.3,0h0Z"/>
        </g>
      </g>
    </g>
    <g class="st8">
      <g class="st8">
        <g class="st8">
          <path class="st5" d="M305,96.9l1.3-.2h0c-.1.1-.2.2-.3.2s0,0,0,.2,0,.2,0,.5v.3s0,0,0,0c-.1,0-.3,0-.4.2-.2.1-.5.2-.7.3-.4,0-.8,0-1.1-.2s-.5-.6-.6-1c0-.4,0-.8.2-1.2s.6-.6,1-.7c.4,0,.8,0,1.1.3,0-.1,0-.2,0-.4h.1l.2,1h-.1c0-.3-.2-.5-.5-.7s-.5-.2-.7-.2c-.3,0-.5.2-.7.4s-.2.6-.1,1.2.2.9.5,1.1.5.3.8.2c.2,0,.3,0,.4-.2s.2-.2.2-.3,0-.2,0-.4c0-.2,0-.3,0-.3s0,0-.1,0h-.3c0,0,0,0,0,0Z"/>
        </g>
      </g>
    </g>
    <g class="st8">
      <g class="st8">
        <g class="st8">
          <path class="st5" d="M309.7,95.6l-1.5.4.2.7c0,.2.1.4.1.4,0,0,0,.1.1.1,0,0,.2,0,.3,0h0s0,0,0,0l-1.3.4h0c0-.1,0-.1,0-.1.1,0,.2,0,.2-.1s0-.1,0-.2,0-.2-.1-.5l-.4-1.4c0-.2-.1-.4-.1-.4,0,0,0-.1-.1-.1,0,0-.2,0-.3,0h0c0,0,1.3-.4,1.3-.4h0c0,.1,0,.1,0,.1-.1,0-.2,0-.3.1,0,0,0,0,0,.2s0,.2.1.5l.2.6,1.5-.4-.2-.6c0-.2-.1-.4-.1-.4,0,0,0-.1-.1-.1s-.2,0-.3,0h0s0,0,0,0l1.3-.4h0c0,.1,0,.1,0,.1-.1,0-.2,0-.3.1s0,0,0,.2,0,.2.1.5l.4,1.4c0,.2.1.4.1.4,0,0,0,.1.1.1,0,0,.2,0,.3,0h0c0,0-1.3.5-1.3.5h0c0-.1,0-.1,0-.1.1,0,.2,0,.2-.1,0,0,0-.1,0-.2s0-.2-.1-.5l-.2-.7h0Z"/>
        </g>
      </g>
    </g>
    <g class="st8">
      <g class="st8">
        <g class="st8">
          <path class="st5" d="M312.9,94.4c.3,0,.6-.1.8,0s.4.2.4.4c0,.2,0,.4,0,.5,0,.2-.2.3-.3.4s-.4.2-.6.3l-1.1.4h0c0,0,.1-.1.1-.1.1,0,.2,0,.2-.1,0,0,0-.1,0-.2,0,0,0-.2-.2-.5l-.5-1.4c0-.2-.2-.4-.2-.4s0,0-.1-.1c0,0-.2,0-.3,0h0s0,0,0,0l.5-.2.5-.2c.8-.3,1.3-.2,1.4.2,0,.2,0,.4,0,.5,0,.2-.3.3-.5.5h0ZM312.4,94.5s0,0,0,0c.3-.1.5-.2.6-.4,0-.1,0-.3,0-.5,0-.1-.1-.2-.2-.3s-.2-.1-.3-.1-.3,0-.5.1c0,0-.1,0-.2,0l.4,1.2h0ZM312.5,94.6l.2.6c.1.3.2.4.2.5s0,.1.1.1.1,0,.3,0c.2,0,.4-.2.4-.4,0-.2,0-.4,0-.6,0-.2-.2-.4-.4-.4-.2,0-.4,0-.7,0,0,0-.1,0-.2,0h0Z"/>
        </g>
      </g>
    </g>
    <g class="st8">
      <g class="st8">
        <g class="st8">
          <path class="st5" d="M315.1,93.6c-.2-.4-.2-.8,0-1.2.2-.4.4-.7.9-.9s.8-.3,1.3-.1c.4.1.7.4.9.8.2.4.2.8,0,1.2s-.4.7-.9.9-.8.2-1.3.1c-.4-.1-.7-.4-.9-.8h0ZM315.6,93.4c.2.4.5.7.7.9s.6.1,1,0c.3-.1.5-.4.6-.7,0-.3,0-.7-.2-1.1s-.5-.7-.7-.8-.6-.1-.9,0c-.3.2-.5.4-.6.7,0,.3,0,.7.2,1.1h0Z"/>
        </g>
      </g>
    </g>
    <g class="st8">
      <g class="st8">
        <g class="st8">
          <path class="st5" d="M319.2,91.5c-.2-.4-.3-.8-.2-1.2s.4-.7.8-1,.8-.3,1.2-.3.8.3,1,.7c.2.4.3.8.2,1.2s-.4.7-.8,1c-.4.3-.8.3-1.2.3s-.8-.3-1-.7h0ZM319.6,91.3c.3.4.5.7.8.8s.6,0,.9-.2c.3-.2.5-.4.5-.7,0-.3,0-.7-.3-1.1-.2-.4-.5-.7-.8-.8-.3-.1-.6,0-.9.1-.3.2-.5.4-.5.8,0,.3,0,.7.3,1.1h0Z"/>
        </g>
      </g>
    </g>
    <g class="st8">
      <g class="st8">
        <g class="st8">
          <path class="st5" d="M326.5,88.3l-.7.5c-.2,0-.5,0-1-.2-.2,0-.3,0-.5-.1s-.3,0-.3,0-.1,0-.2,0h0c0,0,.4.6.4.6.1.2.2.3.3.4,0,0,.1,0,.2,0s.1,0,.2-.1h.1c0,0,0,0,0,0l-1.1.9h0c0,0,0-.1,0-.1.1,0,.2-.1.2-.2,0,0,0-.1,0-.2s-.1-.2-.3-.4l-.9-1.2c-.1-.2-.2-.3-.3-.4s-.1,0-.2,0-.1,0-.3.2h0s0,0,0,0l.3-.3c.2-.2.4-.3.5-.4.2-.2.4-.3.6-.4s.4,0,.5,0,.3.1.4.2c.1.2.2.3.1.5s-.1.4-.4.6c.1,0,.4,0,.9.1.4.1.6.2.8.1.2,0,.3,0,.5-.2h0c0,0,0,.1,0,.1ZM323.7,88.5c0,0,.2-.1.3-.2s.2-.2.2-.2c0,0,0-.2,0-.2s0-.2,0-.2,0-.2-.2-.3c-.1-.2-.3-.3-.4-.3s-.4,0-.7.3c0,0,0,0-.1.1l.8,1.1h0Z"/>
        </g>
      </g>
    </g>
    <g class="st8">
      <g class="st8">
        <g class="st8">
          <path class="st5" d="M328.1,84.8l-1.1,1.1.5.5c.2.2.3.3.3.3s.1,0,.2,0c0,0,.1,0,.2-.2h0c0,0,0,0,0,0l-1,.9h0c0,0,0-.1,0-.1,0,0,.1-.2.2-.2,0,0,0-.1,0-.2s-.1-.2-.3-.4l-1-1.1c-.2-.2-.3-.3-.3-.3,0,0-.1,0-.2,0,0,0-.1,0-.2.2h0s0,0,0,0l1-.9h0c0,0,0,.1,0,.1-.1.1-.2.2-.2.2,0,0,0,.1,0,.2,0,0,.1.2.3.4l.4.4,1.1-1.1-.4-.4c-.2-.2-.3-.3-.3-.3s-.1,0-.2,0-.1,0-.2.2h0c0,0,0,0,0,0l1-1h0c0,0,0,.1,0,.1-.1.1-.2.2-.2.2s0,.1,0,.2c0,0,.1.2.3.4l1,1.1c.2.2.3.3.3.3s.1,0,.2,0c0,0,.1,0,.2-.2h0c0,0,0,0,0,0l-1,1h0c0,0,0-.1,0-.1,0,0,.1-.2.2-.2s0-.1,0-.2-.1-.2-.3-.4l-.5-.5h0Z"/>
        </g>
      </g>
    </g>
    <g class="st8">
      <g class="st8">
        <g class="st8">
          <path class="st5" d="M329.5,83.3c-.4-.3-.5-.7-.5-1.1,0-.4.1-.8.4-1.2.3-.4.7-.6,1.1-.6.4,0,.8,0,1.2.4.4.3.5.7.6,1.1s-.1.8-.4,1.2c-.3.4-.7.6-1.1.6s-.8,0-1.2-.4h0ZM329.9,82.9c.4.3.7.5,1,.5s.6-.1.8-.4c.2-.3.3-.5.2-.8,0-.3-.3-.6-.6-.9-.4-.3-.7-.5-1-.5s-.6.1-.8.4c-.2.3-.3.6-.3.9,0,.3.3.6.6.9h0Z"/>
        </g>
      </g>
    </g>
    <g class="st8">
      <g class="st8">
        <g class="st8">
          <path class="st5" d="M332.5,79.8c-.4-.3-.6-.6-.7-1,0-.4,0-.8.3-1.2.3-.4.6-.6,1-.7s.8,0,1.2.3c.4.3.6.6.7,1,0,.4,0,.8-.3,1.2-.3.4-.6.6-1,.7s-.8,0-1.2-.3h0ZM332.8,79.3c.4.3.8.4,1.1.4.3,0,.6-.2.8-.5.2-.3.2-.6.2-.9s-.3-.6-.7-.9-.7-.4-1.1-.4-.6.2-.8.5c-.2.3-.3.6-.2.9s.3.6.7.9h0Z"/>
        </g>
      </g>
    </g>
    <g class="st8">
      <g class="st8">
        <g class="st8">
          <path class="st5" d="M333.7,75.3l.2-.4c.2-.4.3-.6.4-.8.2-.4.4-.7.7-.8.2-.2.5-.2.8-.2s.5,0,.8.2c.2.1.4.2.5.4.1.1.2.3.3.5s0,.3,0,.5,0,.3-.1.4-.1.3-.3.5l-.7,1.2h0c0,0,0-.2,0-.2,0-.1,0-.2,0-.3s0-.1,0-.2-.2-.1-.4-.2l-1.3-.7c-.2-.1-.4-.2-.4-.2,0,0-.1,0-.2,0,0,0-.1.1-.2.2h0c0,0,0,0,0,0h0ZM334.2,74.6l1.8,1c.3.1.4.2.5.3s.2,0,.2,0,.1-.1.2-.3c.1-.2.2-.4.2-.6s0-.4-.2-.6-.3-.4-.6-.5c-.2-.1-.4-.2-.7-.2-.2,0-.4,0-.6,0-.2,0-.3.1-.4.2s-.2.3-.3.5c0,.1-.1.2-.2.3h0Z"/>
        </g>
      </g>
    </g>
    <path class="st5" d="M331.8,36.4c-3.1-6.3-8-11.6-13.9-15.4-6.1-3.9-13.2-5.9-20.5-5.9s-14.4,2-20.5,5.9c-6,3.8-10.8,9.1-13.9,15.4l-.8-.4c3.2-6.4,8.1-11.9,14.2-15.7,6.3-3.9,13.5-6,20.9-6s14.7,2.1,20.9,6c6.1,3.8,11,9.3,14.2,15.7l-.8.4h0Z"/>
    <g class="st8">
      <g class="st8">
        <g class="st8">
          <path class="st5" d="M271.5,71.5v.7c0,.3,0,.5,0,.5,0,0,0,.1.1.2s.2,0,.3,0h.1c0,.1-1.6.1-1.6.1h0c0-.1,0-.1,0-.1.2,0,.2,0,.3,0s0,0,.1-.2,0-.3,0-.6v-1.7c0-.3,0-.5,0-.5s0-.1-.1-.2-.2,0-.4,0h0c0-.1.4-.1.4-.1.4,0,.6,0,.8,0,.4,0,.6,0,.8,0s.4.2.5.3.2.3.2.5,0,.4-.1.5-.2.3-.4.3-.4.1-.8.1h-.4,0ZM271.5,71.4h.2c.2,0,.4,0,.5,0s.2-.1.3-.2.1-.3.1-.5c0-.3,0-.5-.2-.6s-.4-.2-.7-.2-.2,0-.3,0v1.6h0Z"/>
          <path class="st5" d="M275,69.8h0c0-.1,1.6-.1,1.6-.1h0c0,.1,0,.1,0,.1-.2,0-.3,0-.3,0s0,0-.1.2,0,.3,0,.5v1.7c0,.3,0,.5,0,.5,0,0,0,.1.1.2s.2,0,.3,0h.1c0,.1-1.6.1-1.6.1h0c0-.1.1-.1.1-.1.2,0,.2,0,.3,0s0,0,.1-.2,0-.3,0-.6v-1.7c0-.3,0-.5,0-.5s0-.1-.1-.2-.2,0-.4,0h0Z"/>
          <path class="st5" d="M278.4,73.2h0c0,0,2.3-3.4,2.3-3.4h-1.1c-.2,0-.4,0-.5,0s-.2,0-.2.2-.2.3-.2.5h-.1v-.8h2.7c0,.1-2.2,3.4-2.2,3.4h1.1c.4,0,.6,0,.7,0s.2-.2.3-.3.1-.3.2-.4h.1v.9h-3,0Z"/>
          <path class="st5" d="M283.4,73.2h0c0,0,2.3-3.4,2.3-3.4h-1.1c-.2,0-.4,0-.5,0s-.2,0-.2.2-.2.3-.2.5h-.1v-.8h2.7c0,.1-2.2,3.4-2.2,3.4h1.1c.4,0,.6,0,.7,0s.2-.2.3-.3.1-.3.2-.4h.1v.9h-3,0Z"/>
          <path class="st5" d="M290.5,71.9h-1.3v.2c-.2.3-.3.5-.3.6s0,.2.1.2.2,0,.3,0h0c0,.1-1,.1-1,.1h0c.2-.1.3-.2.4-.3,0,0,.2-.3.3-.5,0,0,0-.1.1-.3l1-2.4h.1l1.2,2.8.2.4c0,0,0,.1.1.2s.2,0,.3,0h0c0,.1-1.4.1-1.4.1h0c.2-.1.3-.1.3-.2,0,0,0,0,0-.1s0-.2-.1-.3l-.3-.7h0ZM290.4,71.8l-.6-1.5-.6,1.5h1.2Z"/>
          <path class="st5" d="M296.4,71.9h1.3v.4h-1.3v-.4Z"/>
        </g>
      </g>
      <g class="st8">
        <g class="st8">
          <path class="st5" d="M303.6,71.5v.7c0,.3,0,.5,0,.5,0,0,0,.1.1.2s.2,0,.3,0h.1c0,.1-1.6.1-1.6.1h0c0-.1,0-.1,0-.1.2,0,.2,0,.3,0s0,0,.1-.2c0,0,0-.3,0-.6v-1.7c0-.3,0-.5,0-.5s0-.1-.1-.2-.2,0-.4,0h0c0-.1.4-.1.4-.1.4,0,.6,0,.8,0,.4,0,.6,0,.8,0s.4.2.5.3.2.3.2.5,0,.4-.1.5-.2.3-.4.3-.4.1-.8.1h-.4,0ZM303.6,71.4h.2c.2,0,.4,0,.5,0s.2-.1.3-.2.1-.3.1-.5c0-.3,0-.5-.2-.6s-.4-.2-.7-.2-.2,0-.3,0v1.6h0Z"/>
        </g>
      </g>
      <g class="st8">
        <g class="st8">
          <path class="st5" d="M308.8,71.9h-1.3v.2c-.2.3-.3.5-.3.6s0,.2.1.2c0,0,.2,0,.3,0h0c0,.1-1,.1-1,.1h0c.2-.1.3-.2.4-.3,0,0,.2-.3.3-.5,0,0,0-.1.1-.3l1-2.4h.1l1.2,2.8.2.4c0,0,0,.1.1.2,0,0,.2,0,.3,0h0c0,.1-1.4.1-1.4.1h0c.2-.1.3-.1.3-.2,0,0,0,0,0-.1s0-.2-.1-.3l-.3-.7h0ZM308.7,71.8l-.6-1.5-.6,1.5h1.2Z"/>
          <path class="st5" d="M312,73.1v-1.1h.1c.1.7.5,1.1,1,1.1s.4,0,.6-.2.2-.3.2-.5,0-.3-.2-.4-.3-.2-.7-.4c-.3-.1-.5-.2-.6-.3s-.2-.2-.3-.4-.1-.3-.1-.5c0-.2,0-.5.3-.6s.4-.2.7-.2.3,0,.4,0,.3.1.4.3c0,0,.1-.2.1-.3h.1v.9h-.1c0-.3-.2-.5-.4-.6s-.4-.2-.6-.2-.4,0-.5.2c0,.1-.1.2-.1.4s0,.3.2.4c.1.1.3.2.7.4.3.1.5.2.7.3s.2.2.3.3.1.3.1.5c0,.3-.1.5-.3.7s-.5.3-.8.3-.7-.1-1-.4c0,0-.1.2-.1.3h-.1,0Z"/>
        </g>
      </g>
      <g class="st8">
        <g class="st8">
          <path class="st5" d="M316.3,70.5h-.1v-.8h3.4v.8s0,0,0,0c0-.2,0-.4-.2-.5s-.1-.2-.2-.2-.2,0-.4,0h-.6v2.5c0,.3,0,.5,0,.5s0,.2.1.2.2,0,.3,0h.2c0,.1-1.7.1-1.7.1h0c0-.1.2-.1.2-.1.2,0,.2,0,.3,0s0,0,.1-.2,0-.3,0-.6v-2.5h-.5c-.2,0-.4,0-.5,0s-.2,0-.2.2-.1.3-.2.5h0Z"/>
        </g>
      </g>
      <g class="st8">
        <g class="st8">
          <path class="st5" d="M323.2,71.9h-1.3v.2c-.2.3-.3.5-.3.6s0,.2.1.2c0,0,.2,0,.3,0h0c0,.1-1,.1-1,.1h0c.2-.1.3-.2.4-.3,0,0,.2-.3.3-.5,0,0,0-.1.1-.3l1-2.4h.1l1.2,2.8.2.4c0,0,0,.1.1.2,0,0,.2,0,.3,0h0c0,.1-1.4.1-1.4.1h0c.2-.1.3-.1.3-.2,0,0,0,0,0-.1s0-.2-.1-.3l-.3-.7h0ZM323.2,71.8l-.6-1.5-.6,1.5h1.2Z"/>
        </g>
      </g>
      <g class="st8">
        <g class="st8">
          <path class="st5" d="M285,77.4h1.1c-.1.2-.3.2-.4.3s-.2.3-.3.5c0,.2-.2.4-.2.5.2.3.3.4.4.5.1,0,.2.1.3.1s.3,0,.4-.2h.1c0,.1-.1.3-.2.4s-.2.1-.4.1c-.3,0-.6-.2-.9-.5-.3.3-.6.5-1,.5s-.2,0-.4,0-.2-.1-.3-.2-.2-.2-.2-.3,0-.2,0-.4c0-.2,0-.4.2-.5.1-.1.3-.3.7-.6-.2-.3-.3-.5-.3-.8s0-.3.2-.5c.1-.1.3-.2.5-.2s.4,0,.5.2.2.2.2.4c0,.3-.2.5-.7.8.2.2.3.4.4.6s.3.4.4.6c.1-.1.2-.3.2-.4s0-.3,0-.4c0-.2-.1-.3-.4-.4h0c0-.1,0-.1,0-.1ZM283.9,77.6c-.2.1-.3.2-.4.4-.1.1-.1.3-.1.4,0,.2,0,.4.2.6s.4.3.6.3.5-.1.7-.4c-.2-.3-.4-.5-.5-.8s-.3-.4-.4-.6h0ZM284.1,77.3c.3-.2.5-.4.5-.7s0-.1,0-.2,0-.1,0-.1,0,0-.1,0-.1,0-.2,0c-.1,0-.2,0-.3.1s-.1.2-.1.3.1.4.3.7h0Z"/>
          <path class="st5" d="M293.4,78.9l1.3-2.9h1.1c0,.1-.1.1-.1.1-.2,0-.3,0-.3,0s0,0-.1.2,0,.3,0,.5v1.7c0,.3,0,.5,0,.5,0,0,0,.1.1.2s.2,0,.3,0h.2c0,.1-1.7.1-1.7.1h0c0-.1.1-.1.1-.1.1,0,.2,0,.3,0s0,0,.1-.2,0-.3,0-.6v-2.2l-1.4,3.1h-.1l-1.4-3.1v2c0,.3,0,.5,0,.6s0,.2.2.3.2.1.4.1h0c0,.1-1.3.1-1.3.1h0c.2-.1.3-.2.4-.2s.2-.2.2-.3,0-.3,0-.6v-1.5c0-.3,0-.5,0-.5s0-.1-.1-.2-.2,0-.4,0h0c0-.1,1.1-.1,1.1-.1l1.3,2.9h0Z"/>
          <path class="st5" d="M297.7,77.7c0-.5.2-1,.5-1.3s.8-.5,1.4-.5,1,.2,1.4.5.5.8.5,1.3-.2,1-.5,1.3-.8.5-1.4.5-1-.2-1.4-.5-.5-.8-.5-1.3h0ZM298.2,77.8c0,.6.1,1,.3,1.3s.6.4,1,.4.7-.1.9-.4.4-.7.4-1.3-.1-1-.3-1.3-.5-.4-1-.4-.7.1-1,.4-.3.7-.3,1.3h0Z"/>
          <path class="st5" d="M307.2,79.5h-1c-.2-.1-.4-.4-.8-.9-.1-.2-.2-.3-.4-.5-.1-.1-.2-.2-.2-.3s-.1,0-.2,0h-.1v.8c0,.3,0,.5,0,.5,0,0,0,.1.1.2s.2,0,.3,0h.2c0,.1-1.7.1-1.7.1h0c0-.1.1-.1.1-.1.2,0,.2,0,.3,0s0,0,.1-.2,0-.3,0-.6v-1.7c0-.3,0-.5,0-.5s0-.1-.1-.2-.2,0-.4,0h0c0-.1.5-.1.5-.1.3,0,.6,0,.8,0,.3,0,.6,0,.8,0s.4.2.5.3.2.3.2.5,0,.4-.2.6-.4.3-.7.3c.1,0,.4.3.7.8.3.4.5.6.6.7s.3.2.5.2h0c0,.1,0,.1,0,.1ZM304.5,77.7h.4c.1,0,.3,0,.4,0s.2,0,.2-.1.1-.1.1-.2,0-.2,0-.4c0-.2,0-.4-.2-.6s-.4-.2-.8-.2-.1,0-.2,0v1.6h0Z"/>
          <path class="st5" d="M311.8,78.4h.1v1.1h-3c0-.1,0-.1,0-.1.2,0,.3,0,.3,0s0-.1,0-.2,0-.2,0-.5v-1.7c0-.3,0-.4,0-.5s0-.1-.1-.2c0,0-.2,0-.3,0h0c0-.1,2.5-.1,2.5-.1v.9c0,0,0,0,0,0,0-.2-.1-.4-.2-.5s-.2-.2-.3-.2-.3,0-.5,0h-.5v1.5h.4c.2,0,.3,0,.4,0s.1,0,.1-.1c0,0,0-.2,0-.4h.1v1.2h-.1c0-.2,0-.3,0-.4s0-.1-.1-.1-.2,0-.3,0h-.4v.8c0,.4,0,.7,0,.7,0,0,.2.1.4.1h.3c.2,0,.3,0,.5,0s.2-.1.3-.3c.1-.1.2-.4.2-.6h0Z"/>
        </g>
      </g>
    </g>
    <path class="st5" d="M297.4,103.4c-13.3,0-25.9-5.2-35.3-14.6-9.4-9.4-14.6-22-14.6-35.3s5.2-25.8,14.6-35.3c9.4-9.4,22-14.6,35.3-14.6s25.9,5.2,35.3,14.6c9.4,9.4,14.6,22,14.6,35.3s-5.2,25.9-14.6,35.3-22,14.6-35.3,14.6h0ZM297.4,5.3c-12.9,0-25,5-34,14.1-9.1,9.1-14.1,21.2-14.1,34s5,25,14.1,34c9.1,9.1,21.2,14.1,34,14.1s25-5,34-14.1c9.1-9.1,14.1-21.2,14.1-34s-5-25-14.1-34c-9.1-9.1-21.2-14.1-34.1-14.1Z"/>
    <path class="st5" d="M297.4,92.8c-8.6,0-17.1-2.9-23.9-8.2-6.8-5.2-11.8-12.6-14-20.7l.8-.2c2.2,7.9,7.1,15.1,13.7,20.2,6.7,5.2,15,8,23.4,8s16.5-2.7,23.2-7.8c6.5-4.9,11.4-11.9,13.7-19.7l.8.2c-2.4,8-7.3,15.1-14,20.1-6.9,5.2-15.1,8-23.7,8h0Z"/>
    <path class="st5" d="M335.9,52c-.4-10-4.5-19.3-11.7-26.2-7.2-7-16.7-10.8-26.7-10.8s-17.6,3.1-24.5,8.8c-6.8,5.6-11.5,13.4-13.2,21.9l-.9-.2c1.8-8.7,6.6-16.7,13.5-22.4,7-5.8,15.9-9,25-9s20,3.9,27.3,11c7.4,7.1,11.6,16.6,12,26.8h-.9s0,0,0,0Z"/>
    <g class="st8">
      <g class="st8">
        <g class="st8">
          <path class="st5" d="M276.4,42c-.9-.5-1.7-1.1-2.2-2.1s-.8-2.1-.8-3.5.4-3.5,1.3-5.1,2.1-2.9,3.6-3.9,3.2-1.5,5-1.5,1.9.1,2.8.4c.9.3,1.4.7,1.8,1.2-.2.4-.3.9-.4,1.5-.1.6-.2,1.2-.2,1.7h-.6c0-.1,0-.4,0-.8s0-.6-.1-.9c-.1-.7-.4-1.3-.9-1.7s-1.3-.6-2.3-.6c-1.6,0-3.1.5-4.4,1.4s-2.4,2.2-3.1,3.7c-.7,1.5-1.1,3-1.1,4.5s.2,2.1.7,2.9c.5.8,1.1,1.3,1.8,1.7.8.4,1.6.6,2.5.6,1.6,0,3.1-.5,4.5-1.6s2.5-2.5,3.2-4.5c.4,0,.6.3.6.8s-.4,1.7-1.2,2.7-1.9,1.9-3.2,2.6-2.7,1.1-4.1,1.1-2.1-.2-3.1-.7h0Z"/>
          <path class="st5" d="M300.7,37.3c0,.6-.4,1.3-1.2,2.1s-1.7,1.5-2.8,2.1c-1.1.6-2,.9-2.7.9s-1.3-.2-1.8-.5-.9-.8-1.2-1.2-.4-.8-.4-1c.2-.9.5-2.1.8-3.6l.2-1.3c0-.3.3-.6.7-1,.4-.3.8-.6,1.3-.8s.9-.3,1.1-.3.5,0,.8.2.6.4.9.7.4.7.4,1.2-.2,1.1-.5,1.6c-.4.5-.9.9-1.6,1.2s-1.6.5-2.6.5l-.3,1.5c0,.1,0,.4.2.7s.4.6.8.9c.4.3.8.4,1.4.4s1.5-.2,2.3-.7,1.6-1.1,2.2-1.8c.7-.7,1.2-1.4,1.5-2.1.3,0,.4.2.4.5h0ZM294,33.9c-.3.2-.5.3-.8.6-.2.2-.4.4-.4.6-.2.7-.3,1.4-.4,2.1,1.2,0,2.1-.3,2.7-.7s.9-.9.9-1.4-.1-.7-.4-1-.5-.4-.8-.4-.4,0-.7.2h0Z"/>
          <path class="st5" d="M309.9,34.3c0,0,0,.2,0,.2,0,.3-.1.6-.4.9s-.7.5-1.2.7-1,.3-1.4.3c-.8,0-1.4-.2-2-.6-.5-.4-.9-1-1-1.7-.7,0-1.3.5-1.9,1.3s-1,1.7-1.2,2.6c0,.2-.1.6-.4,1.4-.2.8-.4,1.7-.6,2.8,0,0,0,0,0,.1,0,0,0,0-.2,0s-.3,0-.5-.1-.3-.2-.3-.3c0-.2,0-.5.1-.8.9-4.3,1.5-7,1.8-8,0-.1,0-.2.1-.3s.1,0,.2,0,.2,0,.4.1c.2.1.4.2.5.3l-.4,1.3v.5c.2-.5.6-1,1.1-1.3s1-.5,1.5-.5.3,0,.5,0,.3,0,.3.1c0,.7.2,1.3.6,1.7.4.4.9.5,1.6.5s1.1-.1,1.6-.3.8-.6,1.1-1.1c0,0,.1,0,.2.1h0Z"/>
          <path class="st5" d="M317.9,37.3c0,.6-.4,1.3-1.2,2.1s-1.7,1.5-2.8,2.1c-1.1.6-2,.9-2.7.9s-1.3-.2-1.8-.5c-.5-.4-.9-.8-1.2-1.2-.3-.4-.4-.8-.4-1,.2-.9.5-2.1.8-3.6l.2-1.3c0-.3.3-.6.7-1,.4-.3.8-.6,1.3-.8.5-.2.9-.3,1.1-.3s.5,0,.8.2.6.4.9.7.4.7.4,1.2-.2,1.1-.5,1.6c-.4.5-.9.9-1.6,1.2s-1.6.5-2.6.5l-.3,1.5c0,.1,0,.4.2.7s.4.6.8.9.8.4,1.4.4,1.5-.2,2.3-.7,1.6-1.1,2.2-1.8c.7-.7,1.2-1.4,1.5-2.1.3,0,.4.2.4.5h0ZM311.1,33.9c-.3.2-.5.3-.8.6-.2.2-.4.4-.4.6-.2.7-.3,1.4-.4,2.1,1.2,0,2.1-.3,2.7-.7s.9-.9.9-1.4-.1-.7-.4-1-.5-.4-.8-.4-.4,0-.7.2h0Z"/>
          <path class="st5" d="M315.9,42.1c-.5-.4-.8-.8-.8-1.2s0-.4.2-.6c.1-.2.3-.2.5-.3.2.6.4,1,.8,1.3.4.3.8.4,1.4.4s1.2-.2,1.7-.6.6-.8.6-1.4-.1-.7-.3-1-.5-.6-1-1c-.5-.4-.8-.8-1.1-1.1-.2-.3-.4-.7-.4-1.1s.1-.9.4-1.4c.3-.4.7-.8,1.1-1s1-.4,1.4-.4.8,0,1.2.3c.4.2.6.4.6.8s-.2.6-.5,1c-.2-.4-.4-.6-.7-.8-.3-.2-.6-.3-.9-.3-.5,0-.9.2-1.1.5-.2.4-.4.7-.4,1.1s.1.5.3.8c.2.2.5.5.9.9.5.4.9.8,1.2,1.2.3.4.4.8.4,1.2s-.2,1-.5,1.5c-.3.5-.8.9-1.4,1.3s-1.2.5-1.9.5-1.4-.2-1.9-.5h0Z"/>
        </g>
      </g>
      <g class="st8">
        <g class="st8">
          <path class="st5" d="M254.6,63.6c-.7-.1-1.2-.3-1.6-.5-.2-.5-.3-.9-.4-1.3l.2-.2c.5.5,1.1.9,1.6,1.1s1.2.4,2,.4,1.7-.2,2.4-.5,1.3-.9,1.9-1.8c.6-.9,1-2.1,1.4-3.7l.3-1.2c.5-2.4,1-4.4,1.5-5.9.2-.3.5-.5.8-.7s.6-.3,1-.5h.2c-.4.6-.7,1.4-1.1,2.6s-.7,2.6-1.1,4.3l-.3,1.5c-1.1,4.4-3.4,6.6-6.8,6.6s-1.3,0-2-.2h0ZM255.3,54.7c-.6-.9-.8-1.9-.8-2.8s.3-1.8.8-2.5c.6-.8,1.4-1.4,2.6-1.8s2.6-.7,4.2-.7,1.6,0,2.2.1,1.5.2,2.6.4c1.3.3,2.3.4,3,.4s1.3-.1,1.9-.3c.6-.2,1-.6,1.3-1.1-.2.7-.5,1.3-1.1,1.8-.6.5-1.4.7-2.5.7s-1.1,0-1.8-.1-1.6-.2-2.7-.4c-1.1-.2-2-.3-2.7-.4-.7,0-1.3-.1-1.7-.1-.9,0-1.7.2-2.4.5-.7.3-1.4.8-1.8,1.4s-.7,1.3-.7,2.2.3,1.6.8,2.3c.5.7,1.3,1.4,2.4,2.2h0c-.3.1-.6.1-.8.1s-.4,0-.6.1c-.8-.5-1.5-1.2-2.1-2.1h0Z"/>
          <path class="st5" d="M279.9,55.4c0,0,0,.2,0,.2,0,.3-.2.6-.4.9-.3.3-.7.5-1.2.7s-1,.3-1.4.3c-.8,0-1.4-.2-2-.6-.5-.4-.9-1-1-1.7-.7,0-1.3.5-1.9,1.3s-1,1.7-1.2,2.6c0,.2-.1.6-.3,1.4-.2.8-.4,1.7-.6,2.8,0,0,0,0,0,.1,0,0,0,0-.1,0s-.3,0-.5-.1-.3-.2-.3-.3c0-.2,0-.5.1-.8.9-4.3,1.5-7,1.8-8,0-.1,0-.2.1-.3,0,0,.1,0,.2,0s.2,0,.4.1c.2.1.4.2.5.3l-.4,1.3v.5c.2-.5.6-1,1.1-1.3s1-.5,1.5-.5.3,0,.5,0c.2,0,.3,0,.3.1,0,.7.2,1.3.6,1.7s.9.5,1.6.5,1.1-.1,1.6-.3c.4-.2.8-.6,1.1-1.1,0,0,.1,0,.2.1h0Z"/>
          <path class="st5" d="M291,58.8c0,.7-.3,1.4-.9,2.2s-1.4,1.4-2.2,2c-.9.5-1.7.8-2.4.8s-1.1-.2-1.4-.5-.5-.8-.6-1.4c-.4.5-.9,1-1.4,1.4s-1.1.5-1.6.5-.8-.1-1.2-.4-.7-.6-1-1-.4-.8-.4-1.1l1.1-4.6c0-.4.3-.8.7-1.2.4-.4.8-.8,1.4-1,.5-.3,1.1-.4,1.6-.4s1.3.2,1.9.7c.1-.4.2-.6.3-.7s.2-.1.3-.2h1.1c0-.1,0,0,0,0-.3.2-.5.6-.7,1.1-.5,1.8-.8,3.1-1,3.9-.2.8-.3,1.6-.3,2.2s0,1.1.2,1.4.5.4.8.4,1.1-.2,1.7-.6c.7-.4,1.3-1,1.9-1.7s1.1-1.5,1.4-2.4c.2,0,.3.2.3.6h0ZM281.5,62.3c.4-.2.7-.4,1.1-.8s.5-.7.7-1.2l.4-1.9c0-.3.2-.8.3-1.5.2-.7.3-1.2.4-1.6-.4-.4-1-.6-1.6-.6s-.9.1-1.3.4-.7.6-.9.9c-.2.4-.4.7-.5,1l-.9,4.1c0,.4.2.7.5,1,.3.3.6.5.9.5s.6,0,1-.3h0Z"/>
          <path class="st5" d="M305.4,59.7c-.1.6-.5,1.2-1.1,1.8s-1.3,1.1-2.2,1.6-1.7.6-2.5.6-1.5-.3-1.9-.8c-.4-.5-.6-1.3-.6-2.2s0-.4,0-.5c-.6,1-1.4,1.9-2.3,2.5s-1.7,1-2.5,1-1.1-.2-1.4-.7c-.3-.5-.5-1.2-.5-2s.3-2.7.9-5.6h-2.2c-.1,0-.2,0-.3-.2.2-.4.4-.7.5-.9h2.2s1.1-4.9,1.1-4.9c.1-.7.3-1.1.4-1.3s.3-.3.6-.3.4,0,.5.2c0,0,0,.2-.2.5s-.2.6-.3,1c-.3,1.3-.6,2.9-1,4.8h5.7c0,0,1.2-5.3,1.2-5.3,0-.3.2-.6.4-.7s.4-.2.7-.2.3,0,.3.1c0,.1,0,.3-.2.5,0,.2-.2.5-.2.8l-1,4.9h4.1c0,.2,0,.4-.2.5s-.3.2-.5.2h-3.6c-.6,3.1-.9,4.9-.9,5.6s.1,1.3.4,1.7c.3.4.7.5,1.3.5.9,0,1.9-.3,2.8-1,.9-.7,1.8-1.5,2.5-2.6.1.2.1.4.1.5h0ZM298.1,55.1h-5.7c-.6,3.2-.8,5-.8,5.6s.1,1.1.3,1.5c.2.4.5.6.8.6.5,0,1.1-.3,1.9-.8s1.4-1.3,2-2.3,1-2,1.3-3.1l.3-1.5h0Z"/>
          <path class="st5" d="M316.9,55.8c0,.4-.2.8-.5,1.2-.3.4-.7.7-1.3,1-.5.3-1.1.4-1.7.4s-1.6-.2-2.2-.7c0,.4-.2.9-.4,1.4,0,.2-.1.5-.3,1.2-.2.6-.3,1.1-.3,1.6-.1.2-.3.5-.6.8-.3.3-.7.5-1.1.7s-.9.3-1.3.3-.9-.1-1.4-.4-.8-.6-1.1-1-.4-.9-.4-1.4c.2-.6.4-1.3.5-1.8s.3-1.1.4-1.7l.2-1.1c0-.4.3-.7.6-1,.3-.4.7-.6,1.2-.8.5-.2,1-.3,1.4-.3s.4,0,.8,0c0-.4.1-.6.2-.7.1-.1.3-.2.6-.2s.3,0,.5,0c0,.4-.1.8-.1,1.1,0,.9.3,1.6.8,2.2.5.6,1.3.9,2.2.9s1.3-.2,1.8-.5c.5-.4.9-.9,1.2-1.6.2,0,.2.2.2.5h0ZM309.8,59.4c.3-1,.5-1.9.6-2.5-.3-.4-.6-1-.7-1.6,0,0,0-.1,0-.1s0,0-.1,0c-.2,0-.5-.1-.8-.1-.6,0-1.1.2-1.5.5s-.7.7-.8,1.1c0,.2-.2.9-.5,2.2-.1.7-.3,1.5-.5,2.2,0,.6.2,1,.6,1.3s.8.5,1.2.5.8-.1,1.2-.4c.4-.3.7-.5.8-.8.1-.6.3-1.3.5-2.1h0Z"/>
          <path class="st5" d="M325.6,55.4c0,0,0,.2,0,.2,0,.3-.1.6-.4.9s-.7.5-1.2.7-1,.3-1.4.3c-.8,0-1.4-.2-2-.6-.5-.4-.9-1-1-1.7-.7,0-1.3.5-1.9,1.3s-1,1.7-1.2,2.6c0,.2-.1.6-.4,1.4-.2.8-.4,1.7-.6,2.8,0,0,0,0,0,.1s0,0-.1,0c-.1,0-.3,0-.5-.1s-.3-.2-.3-.3c0-.2,0-.5.1-.8.9-4.3,1.5-7,1.8-8,0-.1,0-.2.1-.3s.1,0,.2,0,.2,0,.4.1c.2.1.4.2.5.3l-.4,1.3v.5c.2-.5.6-1,1.1-1.3s1-.5,1.5-.5.3,0,.5,0,.3,0,.3.1c0,.7.2,1.3.6,1.7.4.4.9.5,1.6.5s1.1-.1,1.6-.3c.4-.2.8-.6,1.1-1.1,0,0,.1,0,.2.1h0Z"/>
          <path class="st5" d="M324.4,63.1c-.4-.4-.6-.9-.6-1.6.2-.7.6-2.4,1.2-4.9.3-1.2.4-2,.5-2.2.2-.3.5-.5.8-.5s.4,0,.4.2c-.1.4-.3,1-.4,1.8s-.3,1.5-.4,2c-.4,1.9-.7,3.1-.8,3.7,0,.4.1.6.3.8.2.2.5.3.8.3.8,0,1.5-.3,2.3-.8s1.4-1.2,2-1.9,1-1.3,1.3-1.9c0,0,.2,0,.2.1,0,0,0,.2,0,.4s0,.5-.2.7c-.8,1.3-1.7,2.3-2.8,3.1s-2,1.2-3.1,1.2-1-.2-1.4-.5h0ZM326.3,50.8c-.1-.1-.2-.3-.2-.6s.1-.6.3-.8c.2-.2.4-.4.8-.4s.4,0,.5.2.2.3.2.5c0,.3-.1.6-.3.8s-.5.4-.8.4-.4,0-.5-.2h0Z"/>
          <path class="st5" d="M343.7,58.8c0,.7-.3,1.4-.9,2.2s-1.4,1.4-2.2,2c-.9.5-1.7.8-2.4.8s-1.1-.2-1.4-.5-.5-.8-.6-1.4c-.4.5-.9,1-1.4,1.4-.6.4-1.1.5-1.6.5s-.8-.1-1.2-.4-.7-.6-1-1-.4-.8-.4-1.1l1.1-4.6c0-.4.3-.8.7-1.2.4-.4.8-.8,1.4-1,.5-.3,1.1-.4,1.6-.4s1.3.2,1.9.7c.1-.4.2-.6.3-.7s.2-.1.3-.2h1.1c0-.1,0,0,0,0-.3.2-.5.6-.7,1.1-.5,1.8-.8,3.1-1,3.9-.2.8-.3,1.6-.3,2.2s0,1.1.2,1.4c.2.3.5.4.8.4s1.1-.2,1.7-.6c.7-.4,1.3-1,1.9-1.7s1.1-1.5,1.4-2.4c.2,0,.3.2.3.6h0ZM334.2,62.3c.4-.2.7-.4,1.1-.8s.5-.7.7-1.2l.4-1.9c0-.3.2-.8.3-1.5.2-.7.3-1.2.4-1.6-.4-.4-1-.6-1.6-.6s-.9.1-1.3.4c-.4.2-.7.6-.9.9s-.4.7-.5,1l-.9,4.1c0,.4.2.7.5,1s.6.5.9.5.6,0,1-.3h0Z"/>
        </g>
      </g>
    </g>
    <text class="st4" transform="translate(58.2 145.4)"><tspan x="0" y="0">VINO ROSSO</tspan></text>
    <text class="st2" transform="translate(16.7 175.2)"><tspan x="0" y="0">2018 QUARANTA FILARI</tspan></text>
    <text class="st3" transform="translate(222.1 175.9)"><tspan x="0" y="0">65/240 </tspan></text>
    <text class="st1" transform="translate(16.5 187.3)"><tspan x="0" y="0">Primitivo &amp; nero di troia - apulien - 13%</tspan></text>
    <text class="st2" transform="translate(16.7 226.2)"><tspan x="0" y="0">2018 COSTA DEL NERO</tspan></text>
    <text class="st3" transform="translate(222.1 226.9)"><tspan x="0" y="0">75/290 </tspan></text>
    <text class="st1" transform="translate(16.5 238.3)"><tspan x="0" y="0">pinot Nero - DOC oltrpo pavese - 14%</tspan></text>
    <text class="st2" transform="translate(16.7 277.2)"><tspan x="0" y="0">2020 CHIANTI CLASSICO </tspan><tspan x="0" y="12">CASTELLARE</tspan></text>
    <text class="st3" transform="translate(222.1 277.9)"><tspan x="0" y="0">85/320 </tspan></text>
    <text class="st1" transform="translate(16.5 300.3)"><tspan x="0" y="0">DOC Toscana - 13,5%</tspan></text>
    <text class="st4" transform="translate(337.9 416.5)"><tspan x="0" y="0">VINO DOLCE</tspan></text>
    <text class="st2" transform="translate(307.6 502.2)"><tspan x="0" y="0">2022 BRACHETTO</tspan></text>
    <text class="st3" transform="translate(515.2 503.8)"><tspan x="0" y="0">65/240 kr.</tspan></text>
    <text class="st0" transform="translate(307.4 513.6)"><tspan x="0" y="0">DOC Piemonte - 6%</tspan></text>
    <text class="st2" transform="translate(307.6 553.2)"><tspan x="0" y="0">MOSCATO DASTI </tspan></text>
    <text class="st3" transform="translate(515.2 554.8)"><tspan x="0" y="0">75/290 kr.</tspan></text>
    <text class="st1" transform="translate(307.4 565.3)"><tspan x="0" y="0">DOC Piemonte - 5%</tspan></text>
    <text class="st4" transform="translate(334.1 145.3)"><tspan x="0" y="0">VINO BIANCO</tspan></text>
    <text class="st4" transform="translate(96.2 621.9)"><tspan x="0" y="0">SPUMANTE - BUBBLY WINE </tspan></text>
    <text class="st2" transform="translate(309.8 175.2)"><tspan x="0" y="0">2017 QUARANTA FILARI</tspan></text>
    <text class="st1" transform="translate(309.6 187.3)"><tspan x="0" y="0">Bambino &amp; Falanghina - Apulien - 13,5%</tspan></text>
    <text class="st2" transform="translate(309.8 226.2)"><tspan x="0" y="0">2017 RIES</tspan></text>
    <text class="st3" transform="translate(515.2 226.9)"><tspan x="0" y="0">75/290 kr.</tspan></text>
    <text class="st3" transform="translate(515.2 175.8)"><tspan x="0" y="0">65/240 kr.</tspan></text>
    <text class="st1" transform="translate(309.6 238.3)"><tspan x="0" y="0">Riesling - Provincia di pavia - 12,5%</tspan></text>
    <text class="st2" transform="translate(309.8 277.2)"><tspan x="0" y="0">2023 MODEANO</tspan></text>
    <text class="st3" transform="translate(515.2 277.9)"><tspan x="0" y="0">75/290 kr.</tspan></text>
    <text class="st1" transform="translate(309.6 289.3)"><tspan x="0" y="0">Sauvignon Blanc DOC Friuli - 13%</tspan></text>
    <text class="st2" transform="translate(309.8 328.2)"><tspan x="0" y="0">2017 TIRSAT</tspan></text>
    <text class="st3" transform="translate(515.2 328.9)"><tspan x="0" y="0">85/320 kr.</tspan></text>
    <text class="st1" transform="translate(309.6 340.3)"><tspan x="0" y="0">Chardonnay &amp; Viognier - lgt Sicilien - 13%</tspan></text>
    <text class="st4" transform="translate(28.4 416.2)"><tspan x="0" y="0">VINO NATURALE</tspan></text>
    <text class="st4" transform="translate(339 461.7)"><tspan x="0" y="0">SWEET WINE</tspan></text>
    <text class="st4" transform="translate(45.5 461.4)"><tspan x="0" y="0">ORANGE WINE</tspan></text>
    <text class="st2" transform="translate(18 499.9)"><tspan x="0" y="0">2023 MODENA </tspan></text>
    <text class="st3" transform="translate(223.4 500.5)"><tspan x="0" y="0">75/290 kr.</tspan></text>
    <text class="st1" transform="translate(17.9 512)"><tspan x="0" y="0">Pinot Gris Ramato - DOC Venezie - Friuli </tspan><tspan x="0" y="10">13%</tspan></text>
    <line class="st10" x1="445.9" y1="429.6" x2="434.8" y2="429.6"/>
    <line class="st10" x1="159.4" y1="428.5" x2="148.4" y2="428.5"/>
    <g>
      <text class="st2" transform="translate(120.2 655.8)"><tspan x="0" y="0">2022 BRUT DI PINOT CHARMANT</tspan></text>
      <text class="st3" transform="translate(401.7 656.5)"><tspan x="0" y="0">85/320 kr.</tspan></text>
      <text class="st3" transform="translate(401.7 707.5)"><tspan x="0" y="0">85/320 kr.</tspan></text>
      <text class="st3" transform="translate(401.7 758.6)"><tspan x="0" y="0">85/320 kr.</tspan></text>
      <text class="st1" transform="translate(119.9 668)"><tspan x="0" y="0">100% Pinot Nero - Piemonte - 11%</tspan></text>
      <text class="st2" transform="translate(120.2 706.9)"><tspan x="0" y="0">2022 PROSECCO</tspan></text>
      <text class="st1" transform="translate(119.9 719)"><tspan x="0" y="0">100% Glera - DOC Friuli - 11,5%</tspan></text>
      <text class="st2" transform="translate(120.2 757.9)"><tspan x="0" y="0">2021 MILORD BRUT</tspan></text>
      <text class="st1" transform="translate(119.9 770)"><tspan x="0" y="0">100% Pinot Nero - Piemonte - 12%</tspan></text>
    </g>
    <path class="st9" d="M494,824.9c.5-.5,3-.5,3.8-.4,2.2.2,3.9,1.1,6.3.3s3-3.2,3.6-5.1c1.6-4.7,3.4-10.5,4.5-15.3s-2-8.2-5.1-12.9c-5.5-8.3-3.4-14.1,1.2-22.1s4.3-7.3,6.6-10.6c.2-.3,1.4-2,1.5-2,.3-.2.7-.1,1-.1l20.1,6c.4.3.4.5.5,1,.3,2.9,0,6.1-.1,9-.2,10.2.4,19.4-10.2,24.2-3.5,1.6-9.3,2.8-11.4,6.3-2,5.6-4.2,11.8-5.6,17.7s-.7,3.2-.2,4.9c.8,2.6,6.3,3.9,8.4,5.8s1.1,1.7,0,2.1c-1.8.6-7.2-.7-9.3-1.2-4.1-1-9.5-2.6-13.2-4.7s-3.2-1.8-2.2-2.8Z"/>
    <path class="st9" d="M560.6,752.3c.8-.2,1.2.4,1.6,1,2.8,3.8,6,8.9,8.4,13,4,6.9,5.7,12.6,1.2,19.9-2.2,3.6-6.4,7.6-6,12.1,1.7,5.7,3.2,11.9,5.3,17.4.5,1.3,1.3,3.1,2.4,3.9,2.4,1.9,7.3-.2,10.2.1s2.1,1.1.9,2.2c-1.7,1.6-6.5,3.3-8.8,4.1-3.1,1.1-12.4,4-15.3,3.2s-1.1-1.3-.3-2c2.2-2.2,6.9-2.6,8.1-5.6s.2-3.4-.2-5.1c-1.5-5.6-3.7-11.3-5.4-16.8-1.9-4.7-7.5-5.1-11.7-6.9-11.7-5.2-10.6-15.9-10.9-26.9s-.4-4.7-.1-6.4.3-.7.6-.8c.7-.4,2.7-.9,3.6-1.2,5.5-1.8,11-3.2,16.4-5.1Z"/>
    <path class="st9" d="M545.4,742.7c.3-.2.4-.6.7-.9.8-.7,1.7-.9,2.6-.6,2.4.8,1.4,3.7.1,5.2s-3.6,1.6-5.3,2.8c-.1-1-1.1-1.6-1.6-2.3-1.2-1.6-1.9-3.3-1.3-5.3,1-3.3,5.1-1.9,4.7,1.2Z"/>
    <path class="st9" d="M537.3,755.1c-2.1-.9-4.4-.8-5.6-3.1s1.8-4.1,3.5-2c0-3.8,4.3-3.3,4.1.6s-1.6,2.9-2.1,4.6Z"/>
  </g>
</svg>